<svg width="520" height="160" viewBox="0 0 520 160" fill="none" xmlns="http://www.w3.org/2000/svg">
<g clipPath="url(#clip0_4257_409910)">
<rect width="713.143" height="336.842" fill="#247DBC"/>
<path fillRule="evenodd" clipRule="evenodd" d="M317.492 183.992C313.329 179.829 313.329 173.078 317.492 168.915L378.934 107.473C385.804 100.603 385.804 89.4649 378.934 82.5949C372.064 75.725 360.926 75.725 354.056 82.5949L312.467 124.184C310.94 125.711 310.94 128.186 312.467 129.713C313.993 131.239 316.468 131.239 317.995 129.713L358.202 89.5055C362.366 85.3419 369.116 85.3419 373.28 89.5055C377.443 93.6691 377.443 100.42 373.28 104.583L333.073 144.79C323.219 154.644 307.243 154.644 297.389 144.79C287.535 134.937 287.535 118.96 297.389 109.107L338.978 67.5172C354.175 52.3201 378.815 52.3201 394.012 67.5172C409.209 82.7143 409.209 107.354 394.012 122.551L332.57 183.992C328.407 188.156 321.656 188.156 317.492 183.992Z" fill="url(#paint0_linear_4257_409910)"/>
<path fillRule="evenodd" clipRule="evenodd" d="M137.492 177.992C133.329 173.829 133.329 167.078 137.492 162.915L198.934 101.473C205.804 94.6032 205.804 83.4649 198.934 76.5949C192.064 69.725 180.926 69.725 174.056 76.5949L132.467 118.184C130.94 119.711 130.94 122.186 132.467 123.713C133.993 125.239 136.468 125.239 137.995 123.713L178.202 83.5055C182.366 79.3419 189.116 79.3419 193.28 83.5055C197.443 87.6691 197.443 94.4196 193.28 98.5832L153.073 138.79C143.219 148.644 127.243 148.644 117.389 138.79C107.535 128.937 107.535 112.96 117.389 103.107L158.978 61.5172C174.175 46.3201 198.815 46.3201 214.012 61.5172C229.209 76.7143 229.209 101.354 214.012 116.551L152.57 177.992C148.407 182.156 141.656 182.156 137.492 177.992Z" fill="url(#paint1_linear_4257_409910)"/>
<path fillRule="evenodd" clipRule="evenodd" d="M233.172 151.992C229.009 147.829 229.009 141.078 233.172 136.915L294.614 75.4731C301.484 68.6032 301.484 57.4649 294.614 50.5949C287.744 43.725 276.605 43.725 269.735 50.5949L228.146 92.1842C226.62 93.7109 226.62 96.1861 228.146 97.7127C229.673 99.2394 232.148 99.2394 233.675 97.7127L273.882 57.5055C278.045 53.3419 284.796 53.3419 288.96 57.5055C293.123 61.6691 293.123 68.4196 288.96 72.5832L248.752 112.79C238.899 122.644 222.922 122.644 213.069 112.79C203.215 102.937 203.215 86.9604 213.068 77.1065L254.658 35.5172C269.855 20.3201 294.494 20.3201 309.691 35.5172C324.888 50.7143 324.888 75.3537 309.691 90.5508L248.25 151.992C244.086 156.156 237.336 156.156 233.172 151.992Z" fill="url(#paint2_linear_4257_409910)"/>
</g>
<defs>
<linearGradient id="paint0_linear_4257_409910" x1="297.514" y1="164.014" x2="394.012" y2="67.5172" gradientUnits="userSpaceOnUse">
<stop stop-color="#CCF88E" stop-opacity="0.8"/>
<stop offset="1" stop-color="#CCF88E" stop-opacity="0"/>
</linearGradient>
<linearGradient id="paint1_linear_4257_409910" x1="117.514" y1="158.014" x2="214.012" y2="61.5172" gradientUnits="userSpaceOnUse">
<stop stop-color="#CCF88E" stop-opacity="0.8"/>
<stop offset="1" stop-color="#CCF88E" stop-opacity="0"/>
</linearGradient>
<linearGradient id="paint2_linear_4257_409910" x1="213.194" y1="132.014" x2="309.691" y2="35.5172" gradientUnits="userSpaceOnUse">
<stop stop-color="#CCF88E" stop-opacity="0.8"/>
<stop offset="1" stop-color="#CCF88E" stop-opacity="0"/>
</linearGradient>
<clipPath id="clip0_4257_409910">
<rect width="520" height="160" fill="white"/>
</clipPath>
</defs>
</svg>
