<svg width="520" height="160" viewBox="0 0 520 160" fill="none" xmlns="http://www.w3.org/2000/svg">
<g clipPath="url(#clip0_4257_409839)">
<rect width="713.143" height="336.842" fill="#C1EF78"/>
<rect x="130" y="82.9219" width="27.529" height="94.362" rx="13.7645" transform="rotate(-60 130 82.9219)" fill="url(#paint0_linear_4257_409839)"/>
<rect width="27.529" height="94.362" rx="13.7645" transform="matrix(-0.5 -0.866025 -0.866025 0.5 389.484 114.406)" fill="url(#paint1_linear_4257_409839)"/>
<rect x="297.297" y="-2.16406" width="27.529" height="208.307" transform="rotate(30 297.297 -2.16406)" fill="url(#paint2_linear_4257_409839)"/>
<rect x="144.062" y="96.9062" width="27.529" height="91.096" rx="13.7645" transform="rotate(-120 144.062 96.9062)" fill="url(#paint3_linear_4257_409839)"/>
<rect width="27.529" height="91.096" rx="13.7645" transform="matrix(0.5 -0.866025 -0.866025 -0.5 375.422 128.391)" fill="url(#paint4_linear_4257_409839)"/>
</g>
<defs>
<linearGradient id="paint0_linear_4257_409839" x1="143.765" y1="82.9219" x2="80.8377" y2="217.854" gradientUnits="userSpaceOnUse">
<stop stop-color="#247DBC" stop-opacity="0.71"/>
<stop offset="1" stop-color="#217BBB" stop-opacity="0"/>
</linearGradient>
<linearGradient id="paint1_linear_4257_409839" x1="13.7645" y1="0" x2="-49.1623" y2="134.932" gradientUnits="userSpaceOnUse">
<stop stop-color="#247DBC" stop-opacity="0.71"/>
<stop offset="1" stop-color="#217BBB" stop-opacity="0"/>
</linearGradient>
<linearGradient id="paint2_linear_4257_409839" x1="311.061" y1="-2.16406" x2="129.812" y2="173.891" gradientUnits="userSpaceOnUse">
<stop stop-color="#247DBC" stop-opacity="0.71"/>
<stop offset="1" stop-color="#217BBB" stop-opacity="0"/>
</linearGradient>
<linearGradient id="paint3_linear_4257_409839" x1="157.827" y1="96.9062" x2="98.4594" y2="228.771" gradientUnits="userSpaceOnUse">
<stop stop-color="#247DBC" stop-opacity="0.71"/>
<stop offset="1" stop-color="#217BBB" stop-opacity="0"/>
</linearGradient>
<linearGradient id="paint4_linear_4257_409839" x1="13.7645" y1="0" x2="-45.6031" y2="131.865" gradientUnits="userSpaceOnUse">
<stop stop-color="#247DBC" stop-opacity="0.71"/>
<stop offset="1" stop-color="#217BBB" stop-opacity="0"/>
</linearGradient>
<clipPath id="clip0_4257_409839">
<rect width="520" height="160" fill="white"/>
</clipPath>
</defs>
</svg>
