<svg width="520" height="160" viewBox="0 0 520 160" fill="none" xmlns="http://www.w3.org/2000/svg">
<g clipPath="url(#clip0_4257_409824)">
<rect width="713.143" height="336.842" fill="#F97F6F"/>
<path fillRule="evenodd" clipRule="evenodd" d="M159.228 24.2268C174.182 7.87398 195.446 -5.56359 210.393 -13L217.341 0.9744C203.378 7.92124 183.939 20.3276 170.74 34.7611C164.144 41.9739 159.536 49.2301 157.611 56.1279C155.768 62.7315 156.307 69.1781 160.372 75.6981C161.393 77.3348 162.367 78.1012 163.171 78.5027C163.991 78.9123 165.132 79.1894 166.839 79.0791C170.553 78.8393 175.844 76.848 182.809 72.649C195.48 65.0097 210.429 52.1567 226.262 38.5433C227.696 37.3103 229.137 36.0711 230.585 34.829C247.524 20.2924 265.45 5.23305 281.025 -2.4959C288.789 -6.34828 297.128 -8.99024 305.083 -7.8602C313.749 -6.62906 320.364 -1.18868 324.599 7.57576C333.6 26.2046 323.09 44.2479 309.241 58.7093C294.985 73.5953 274.191 87.9656 254.88 100.739C251.486 102.985 248.147 105.175 244.893 107.309C229.149 117.638 215.389 126.666 206.899 134.319C204.409 136.563 202.615 138.483 201.437 140.081C200.698 141.082 200.331 141.785 200.151 142.213C200.588 142.554 201.452 143.106 203.032 143.748C211.804 147.307 223.237 145.022 237.579 137.181C251.67 129.477 266.66 117.464 281.507 104.91C284.429 102.439 287.355 99.9386 290.266 97.451C301.832 87.5678 313.161 77.8864 323.126 71.0253C329.368 66.7273 335.661 63.1106 341.631 61.2924C347.658 59.4568 354.594 59.1229 360.603 63.341C368.921 69.1803 372.676 76.3526 372.98 84.2616C373.244 91.1125 370.806 97.8488 368.981 102.89L368.85 103.254C366.751 109.058 365.414 112.957 365.471 116.333C365.511 118.72 364.437 127.767 368.85 130.817C360.644 125.146 351.641 120.681 351.075 114.713C350.966 108.226 352.115 103.627 353.895 98.7246C353.991 98.46 354.086 98.2 354.178 97.9449C356.242 92.236 357.521 88.2878 357.39 84.8614C357.292 82.3272 356.401 79.4581 351.641 76.1165C351.11 75.7442 349.786 75.1234 346.175 76.2232C342.507 77.3403 337.782 79.8812 331.972 83.8818C322.746 90.234 312.257 99.1939 300.768 109.008C297.771 111.567 294.707 114.185 291.579 116.83C276.77 129.351 260.698 142.328 245.062 150.876C229.677 159.288 212.716 164.52 197.167 158.21C193.495 156.72 190.044 154.669 187.617 151.651C184.962 148.35 183.96 144.413 184.557 140.405C185.101 136.749 186.895 133.509 188.88 130.817C190.912 128.061 193.537 125.354 196.454 122.725C205.925 114.187 221.005 104.303 236.725 93.9986C239.896 91.9205 243.092 89.8254 246.274 87.7207C265.739 74.8457 285.098 61.3579 297.974 47.9126C311.257 34.0426 314.858 23.2811 310.551 14.3676C308.132 9.36084 305.469 7.95865 302.889 7.59211C299.597 7.12448 294.722 8.12974 287.959 11.4857C274.481 18.1735 258.105 31.7755 240.743 46.6747C239.234 47.9703 237.717 49.2754 236.195 50.5846C220.71 63.9075 204.733 77.6542 190.862 86.0165C183.301 90.5751 175.377 94.1676 167.844 94.654C163.929 94.9069 159.938 94.3326 156.201 92.4661C152.448 90.5915 149.44 87.6568 147.133 83.9572C140.552 73.401 139.668 62.3772 142.584 51.9313C145.417 41.7796 151.747 32.4071 159.228 24.2268Z" fill="url(#paint0_linear_4257_409824)"/>
</g>
<defs>
<linearGradient id="paint0_linear_4257_409824" x1="257" y1="-13" x2="226.408" y2="286.802" gradientUnits="userSpaceOnUse">
<stop stop-color="white" stop-opacity="0.8"/>
<stop offset="1" stop-color="white" stop-opacity="0"/>
</linearGradient>
<clipPath id="clip0_4257_409824">
<rect width="520" height="160" fill="white"/>
</clipPath>
</defs>
</svg>
