<svg width="33" height="33" viewBox="0 0 33 33" fill="none" xmlns="http://www.w3.org/2000/svg">
<rect x="0.384766" y="0.933594" width="32" height="32" rx="4" fill="#69A3CC" fill-opacity="0.4"/>
<path fillRule="evenodd" clipRule="evenodd" d="M7.02134 8.94336C6.51579 8.94336 6.10596 9.35319 6.10596 9.85874V24.0472C6.10596 24.5528 6.51579 24.9626 7.02134 24.9626H22.354C22.8596 24.9626 23.2694 24.5528 23.2694 24.0472V20.1767L25.1573 21.2353C25.8488 21.6232 26.7021 21.1233 26.7021 20.3305V13.5748C26.7021 12.782 25.8488 12.2822 25.1573 12.67L23.2694 13.7286V9.85874C23.2694 9.35319 22.8596 8.94336 22.354 8.94336H7.02134Z" fill="white"/>
<path fillRule="evenodd" clipRule="evenodd" d="M7.02134 8.94336C6.51579 8.94336 6.10596 9.35319 6.10596 9.85874V24.0472C6.10596 24.5528 6.51579 24.9626 7.02134 24.9626H22.354C22.8596 24.9626 23.2694 24.5528 23.2694 24.0472V20.1767L25.1573 21.2353C25.8488 21.6232 26.7021 21.1233 26.7021 20.3305V13.5748C26.7021 12.782 25.8488 12.2822 25.1573 12.67L23.2694 13.7286V9.85874C23.2694 9.35319 22.8596 8.94336 22.354 8.94336H7.02134Z" fill="#69A3CC" fill-opacity="0.08"/>
<rect x="7.93652" y="10.7734" width="2.05961" height="2.05961" rx="1.02981" fill="#4F87B8"/>
</svg>
