<svg width="32" height="32" viewBox="0 0 32 32" fill="none" xmlns="http://www.w3.org/2000/svg">
<rect width="32" height="32" rx="4" fill="#69A3CC"/>
<path fillRule="evenodd" clipRule="evenodd" d="M6.6284 8C6.12345 8 5.71411 8.40934 5.71411 8.91429V23.0857C5.71411 23.5907 6.12345 24 6.6284 24H21.9427C22.4476 24 22.857 23.5907 22.857 23.0857V19.2201L24.7425 20.2775C25.4332 20.6648 26.2855 20.1656 26.2855 19.3737V12.6262C26.2855 11.8343 25.4332 11.335 24.7425 11.7224L22.857 12.7798V8.91429C22.857 8.40934 22.4476 8 21.9427 8H6.6284Z" fill="white"/>
<path fillRule="evenodd" clipRule="evenodd" d="M6.6284 8C6.12345 8 5.71411 8.40934 5.71411 8.91429V23.0857C5.71411 23.5907 6.12345 24 6.6284 24H21.9427C22.4476 24 22.857 23.5907 22.857 23.0857V19.2201L24.7425 20.2775C25.4332 20.6648 26.2855 20.1656 26.2855 19.3737V12.6262C26.2855 11.8343 25.4332 11.335 24.7425 11.7224L22.857 12.7798V8.91429C22.857 8.40934 22.4476 8 21.9427 8H6.6284Z" fill="#69A3CC" fill-opacity="0.08"/>
<rect x="7.54297" y="9.82812" width="2.05714" height="2.05714" rx="1.02857" fill="#4F87B8"/>
</svg>
