<svg width="33" height="33" viewBox="0 0 33 33" fill="none" xmlns="http://www.w3.org/2000/svg">
<rect x="0.577148" y="0.933594" width="32" height="32" rx="4" fill="#69A3CC" fill-opacity="0.4"/>
<path fillRule="evenodd" clipRule="evenodd" d="M24.5264 21.5279C25.3047 20.1819 25.7501 18.6193 25.7501 16.9527C25.7501 11.8971 21.6518 7.79883 16.5962 7.79883C11.5407 7.79883 7.44238 11.8971 7.44238 16.9527C7.44238 22.0082 11.5407 26.1065 16.5962 26.1065C18.2642 26.1065 19.8279 25.6604 21.1747 24.881L24.2034 25.6927C24.8911 25.877 25.5205 25.2481 25.3367 24.5603L24.5264 21.5279Z" fill="white"/>
<path fillRule="evenodd" clipRule="evenodd" d="M24.5264 21.5279C25.3047 20.1819 25.7501 18.6193 25.7501 16.9527C25.7501 11.8971 21.6518 7.79883 16.5962 7.79883C11.5407 7.79883 7.44238 11.8971 7.44238 16.9527C7.44238 22.0082 11.5407 26.1065 16.5962 26.1065C18.2642 26.1065 19.8279 25.6604 21.1747 24.881L24.2034 25.6927C24.8911 25.877 25.5205 25.2481 25.3367 24.5603L24.5264 21.5279Z" fill="#69A3CC" fill-opacity="0.08"/>
<rect x="10.7607" y="15.9219" width="2.05961" height="2.05961" rx="1.02981" fill="#4F87B8"/>
<rect x="15.5659" y="15.9219" width="2.05961" height="2.05961" rx="1.02981" fill="#4F87B8"/>
<rect x="20.3721" y="15.9219" width="2.05961" height="2.05961" rx="1.02981" fill="#4F87B8"/>
</svg>
