<svg width="32" height="32" viewBox="0 0 32 32" fill="none" xmlns="http://www.w3.org/2000/svg">
<rect width="32" height="32" rx="4" fill="#69A3CC"/>
<path fillRule="evenodd" clipRule="evenodd" d="M23.9201 20.5718C24.6973 19.2274 25.1422 17.6668 25.1422 16.0022C25.1422 10.9528 21.0488 6.85938 15.9993 6.85938C10.9498 6.85938 6.85645 10.9528 6.85645 16.0022C6.85645 21.0517 10.9498 25.1451 15.9993 25.1451C17.6656 25.1451 19.2278 24.6993 20.5731 23.9206L23.5974 24.7311C24.2842 24.9151 24.9129 24.287 24.7293 23.6L23.9201 20.5718Z" fill="white"/>
<path fillRule="evenodd" clipRule="evenodd" d="M23.9201 20.5718C24.6973 19.2274 25.1422 17.6668 25.1422 16.0022C25.1422 10.9528 21.0488 6.85938 15.9993 6.85938C10.9498 6.85938 6.85645 10.9528 6.85645 16.0022C6.85645 21.0517 10.9498 25.1451 15.9993 25.1451C17.6656 25.1451 19.2278 24.6993 20.5731 23.9206L23.5974 24.7311C24.2842 24.9151 24.9129 24.287 24.7293 23.6L23.9201 20.5718Z" fill="#69A3CC" fill-opacity="0.08"/>
<rect x="10.1719" y="14.9727" width="2.05714" height="2.05714" rx="1.02857" fill="#4F87B8"/>
<rect x="14.9717" y="14.9727" width="2.05714" height="2.05714" rx="1.02857" fill="#4F87B8"/>
<rect x="19.7715" y="14.9727" width="2.05714" height="2.05714" rx="1.02857" fill="#4F87B8"/>
</svg>
