<svg width="16" height="17" viewBox="0 0 16 17" fill="none" xmlns="http://www.w3.org/2000/svg">
<g clipPath="url(#clip0_1006_4434)">
<path d="M8 2.5C6.53514 2.5 5.33333 3.7018 5.33333 5.16667C5.33333 6.63153 6.53514 7.83333 8 7.83333C9.46486 7.83333 10.6667 6.63153 10.6667 5.16667C10.6667 3.7018 9.46486 2.5 8 2.5ZM8 3.83333C8.74428 3.83333 9.33333 4.42239 9.33333 5.16667C9.33333 5.91094 8.74428 6.5 8 6.5C7.25572 6.5 6.66667 5.91094 6.66667 5.16667C6.66667 4.42239 7.25572 3.83333 8 3.83333ZM8 9.83333C5.906 9.83333 2 10.8633 2 12.8333V14.5H9.45703L8.64583 13.7982L7.91536 13.1667H3.33333V12.8333C3.33333 12.254 5.80533 11.1667 8 11.1667C8.93733 11.1667 9.9247 11.366 10.7487 11.638L11.2682 10.4036C10.1482 10.0263 8.90467 9.83333 8 9.83333ZM12.6745 10.5L11.7891 12.5951L9.51823 12.7891L11.2396 14.2799L10.7227 16.4987L12.6745 15.3229L14.6263 16.5L14.1094 14.2747L15.8307 12.7852L13.5612 12.5911L12.6745 10.5Z" fill="#69A3CC"/>
</g>
<defs>
<clipPath id="clip0_1006_4434">
<rect width="16" height="16" fill="white" transform="translate(0 0.5)"/>
</clipPath>
</defs>
</svg>
