<svg width="33" height="33" viewBox="0 0 33 33" fill="none" xmlns="http://www.w3.org/2000/svg">
<rect x="0.192383" y="0.933594" width="32" height="32" rx="4" fill="#69A3CC" fill-opacity="0.4"/>
<path d="M23.6696 14.2377C23.6696 14.8783 23.5902 15.5004 23.4406 16.0946C22.8541 18.708 21.0737 22.3209 17.4058 26.0023C16.6769 26.7339 15.4995 26.7339 14.7706 26.0023C11.1028 22.3209 9.32235 18.708 8.73589 16.0945C8.58629 15.5004 8.50684 14.8783 8.50684 14.2377C8.50684 10.0506 11.9011 6.65625 16.0882 6.65625C20.2753 6.65625 23.6696 10.0506 23.6696 14.2377Z" fill="white"/>
<path d="M23.6696 14.2377C23.6696 14.8783 23.5902 15.5004 23.4406 16.0946C22.8541 18.708 21.0737 22.3209 17.4058 26.0023C16.6769 26.7339 15.4995 26.7339 14.7706 26.0023C11.1028 22.3209 9.32235 18.708 8.73589 16.0945C8.58629 15.5004 8.50684 14.8783 8.50684 14.2377C8.50684 10.0506 11.9011 6.65625 16.0882 6.65625C20.2753 6.65625 23.6696 10.0506 23.6696 14.2377Z" fill="#69A3CC" fill-opacity="0.08"/>
<mask id="mask0_1977_26531" style="mask-type:alpha" maskUnits="userSpaceOnUse" x="8" y="6" width="16" height="21">
<path d="M23.6692 14.2357C23.6692 14.8763 23.5897 15.4984 23.4401 16.0926C22.8536 18.7061 21.0732 22.3189 17.4053 26.0004C16.6765 26.7319 15.499 26.7319 14.7702 26.0004C11.1023 22.3189 9.32187 18.7061 8.73541 16.0926C8.58581 15.4984 8.50635 14.8763 8.50635 14.2357C8.50635 10.0486 11.9007 6.6543 16.0878 6.6543C20.2748 6.6543 23.6692 10.0486 23.6692 14.2357Z" fill="#4F87B8"/>
</mask>
<g mask="url(#mask0_1977_26531)">
<path fillRule="evenodd" clipRule="evenodd" d="M16.1848 18.6563C12.0181 18.6563 8.59906 21.8576 8.2531 25.9348C8.22124 26.3102 8.52978 26.6168 8.90662 26.6168L23.4629 26.6168C23.8397 26.6168 24.1483 26.3102 24.1164 25.9348C23.7705 21.8576 20.3515 18.6563 16.1848 18.6563Z" fill="#4F87B8"/>
</g>
<circle cx="16.1847" cy="14.6784" r="2.96938" fill="#4F87B8"/>
</svg>
