<svg width="32" height="32" viewBox="0 0 32 32" fill="none" xmlns="http://www.w3.org/2000/svg">
<rect width="32" height="32" rx="4" fill="#C3C6C9"/>
<path d="M23.4493 13.2871C23.4493 13.927 23.3699 14.5483 23.2205 15.1418C22.6348 17.7522 20.8564 21.3607 17.193 25.0377C16.465 25.7684 15.289 25.7684 14.561 25.0377C10.8975 21.3607 9.11923 17.7521 8.53347 15.1418C8.38405 14.5483 8.30469 13.927 8.30469 13.2871C8.30469 9.10508 11.6949 5.71484 15.877 5.71484C20.0591 5.71484 23.4493 9.10508 23.4493 13.2871Z" fill="white"/>
<path d="M23.4493 13.2871C23.4493 13.927 23.3699 14.5483 23.2205 15.1418C22.6348 17.7522 20.8564 21.3607 17.193 25.0377C16.465 25.7684 15.289 25.7684 14.561 25.0377C10.8975 21.3607 9.11923 17.7521 8.53347 15.1418C8.38405 14.5483 8.30469 13.927 8.30469 13.2871C8.30469 9.10508 11.6949 5.71484 15.877 5.71484C20.0591 5.71484 23.4493 9.10508 23.4493 13.2871Z" fill="#F8F8F8"/>
<mask id="mask0_1751_25051" style="mask-type:alpha" maskUnits="userSpaceOnUse" x="8" y="5" width="16" height="21">
<path d="M23.4483 13.2871C23.4483 13.927 23.369 14.5483 23.2195 15.1418C22.6338 17.7522 20.8555 21.3607 17.192 25.0377C16.464 25.7684 15.288 25.7684 14.56 25.0377C10.8966 21.3607 9.11825 17.7521 8.53249 15.1418C8.38307 14.5483 8.30371 13.927 8.30371 13.2871C8.30371 9.10508 11.6939 5.71484 15.876 5.71484C20.0581 5.71484 23.4483 9.10508 23.4483 13.2871Z" fill="#4F87B8"/>
</mask>
<g mask="url(#mask0_1751_25051)">
<path fillRule="evenodd" clipRule="evenodd" d="M15.973 17.7031C11.8113 17.7031 8.39639 20.9005 8.05085 24.9728C8.01902 25.3479 8.32719 25.654 8.70358 25.654L23.2424 25.654C23.6188 25.654 23.927 25.3479 23.8951 24.9728C23.5496 20.9005 20.1347 17.7031 15.973 17.7031Z" fill="#9DA0A4"/>
</g>
<circle cx="15.9736" cy="13.7275" r="2.96582" fill="#9DA0A4"/>
</svg>
