<svg width="121" height="24" viewBox="0 0 121 24" fill="none" xmlns="http://www.w3.org/2000/svg">
<path fillRule="evenodd" clipRule="evenodd" d="M49.6243 17.1433C50.9533 17.1433 52.131 16.5131 52.8579 15.5433H56.7756C55.788 18.4635 52.9595 20.5719 49.6243 20.5719C45.4677 20.5719 42.0981 17.2972 42.0981 13.2576C42.0981 9.21807 45.4677 5.94336 49.6243 5.94336C53.7808 5.94336 57.1504 9.21807 57.1504 13.2576C57.1504 13.4112 57.1455 13.5636 57.1359 13.7148H45.6534C45.8862 15.6454 47.5752 17.1433 49.6243 17.1433ZM45.8822 11.8862C46.4526 10.4169 47.9128 9.37193 49.6243 9.37193C51.3357 9.37193 52.796 10.4169 53.3664 11.8862H45.8822Z" fill="#FBF8F7"/>
<path fillRule="evenodd" clipRule="evenodd" d="M74.0854 3.43164H70.5576V7.06229C69.3991 6.35498 68.0284 5.94592 66.5593 5.94592C62.4028 5.94592 59.0332 9.22064 59.0332 13.2602C59.0332 17.2998 62.4028 20.5745 66.5593 20.5745C68.0284 20.5745 69.3991 20.1654 70.5576 19.4581V20.5745H74.0854V3.43164ZM70.5576 13.2602C70.5576 11.1142 68.7675 9.37449 66.5593 9.37449C64.3511 9.37449 62.5611 11.1142 62.5611 13.2602C62.5611 15.4062 64.3511 17.1459 66.5593 17.1459C68.7675 17.1459 70.5576 15.4062 70.5576 13.2602Z" fill="#FBF8F7"/>
<path fillRule="evenodd" clipRule="evenodd" d="M105 3.43164H108.528V7.06229C109.686 6.35498 111.057 5.94592 112.526 5.94592C116.683 5.94592 120.052 9.22064 120.052 13.2602C120.052 17.2998 116.683 20.5745 112.526 20.5745C111.057 20.5745 109.686 20.1654 108.528 19.4581V20.5745H105V3.43164ZM108.528 13.2602C108.528 15.4062 110.318 17.1459 112.526 17.1459C114.734 17.1459 116.524 15.4062 116.524 13.2602C116.524 11.1142 114.734 9.37449 112.526 9.37449C110.318 9.37449 108.528 11.1142 108.528 13.2602Z" fill="#FBF8F7"/>
<path fillRule="evenodd" clipRule="evenodd" d="M95.2766 17.1453C97.4848 17.1453 99.2748 15.4056 99.2748 13.2596C99.2748 11.1136 97.4848 9.37388 95.2766 9.37388C93.0684 9.37388 91.2784 11.1136 91.2784 13.2596C91.2784 15.4056 93.0684 17.1453 95.2766 17.1453ZM95.2766 20.5739C99.4332 20.5739 102.803 17.2992 102.803 13.2596C102.803 9.22003 99.4332 5.94531 95.2766 5.94531C91.12 5.94531 87.7505 9.22003 87.7505 13.2596C87.7505 17.2992 91.12 20.5739 95.2766 20.5739Z" fill="#FBF8F7"/>
<path d="M35.2788 13.2576C35.2788 13.2576 35.2788 13.2576 35.2788 13.2576V20.5719H31.751L31.751 13.2576C31.751 13.2576 31.751 13.2576 31.751 13.2576C31.751 9.21807 35.1205 5.94336 39.2771 5.94336C39.5957 5.94336 39.9097 5.9626 40.2179 5.99995V9.4801C39.9162 9.40939 39.6011 9.37193 39.2771 9.37193C37.0689 9.37193 35.2788 11.1116 35.2788 13.2576Z" fill="#FBF8F7"/>
<path d="M80.7784 13.2596C80.7784 13.2596 80.7784 13.2596 80.7784 13.2596L80.7784 20.5739H77.2505L77.2505 13.2596C77.2505 13.2596 77.2505 13.2596 77.2505 13.2596C77.2505 9.22003 80.62 5.94531 84.7766 5.94531C85.0952 5.94531 85.4092 5.96455 85.7174 6.0019V9.48205C85.4157 9.41134 85.1006 9.37388 84.7766 9.37388C82.5684 9.37388 80.7784 11.1136 80.7784 13.2596Z" fill="#FBF8F7"/>
<path d="M19.0826 1.94055L19.0826 11.9538C19.057 8.3601 16.0515 5.45455 12.3478 5.45455C8.62812 5.45455 5.61274 8.38504 5.61274 12L5.61252 24H0L1.33719e-06 12C2.66387e-05 5.37256 5.52842 0 12.3478 0C14.8324 0 17.1457 0.713241 19.0826 1.94055Z" fill="#FBF8F7"/>
<path d="M19.0831 12C19.0831 15.615 16.0679 18.5455 12.3482 18.5455C8.63737 18.5455 5.62745 15.6288 5.61328 12.0256L5.61328 22.0594C7.55021 23.2867 9.86352 24 12.3482 24C19.1676 24 24.6958 18.6274 24.6958 12L24.6956 3.40421e-07L19.0831 0L19.0831 12Z" fill="#69A3CC"/>
</svg>
