<svg width="16" height="17" viewBox="0 0 16 17" fill="none" xmlns="http://www.w3.org/2000/svg">
<path d="M8.00008 1.83984C5.42941 1.83984 3.33862 3.93194 3.33862 6.5026C3.33862 9.49127 7.31643 14.3461 7.48576 14.5508L8.00008 15.1745L8.5144 14.5508C8.68374 14.3454 12.6615 9.49127 12.6615 6.5026C12.6615 3.93127 10.5707 1.83984 8.00008 1.83984ZM8.00008 3.17318C9.83541 3.17318 11.3282 4.66727 11.3282 6.5026C11.3282 8.30594 9.25208 11.4074 8.00008 13.0508C6.74808 11.4088 4.67196 8.3086 4.67196 6.5026C4.67196 4.66727 6.16475 3.17318 8.00008 3.17318ZM8.00008 4.83333C7.07941 4.83333 6.33341 5.57933 6.33341 6.5C6.33341 7.42067 7.07941 8.16667 8.00008 8.16667C8.92075 8.16667 9.66675 7.42067 9.66675 6.5C9.66675 5.57933 8.92075 4.83333 8.00008 4.83333Z" fill="#69A3CC"/>
</svg>
