<svg width="33" height="32" viewBox="0 0 33 32" fill="none" xmlns="http://www.w3.org/2000/svg">
<path d="M25.4435 2.5874L25.4435 15.9384C25.4094 11.1468 21.4021 7.27273 16.4637 7.27273C11.5042 7.27273 7.48366 11.1801 7.48366 16L7.48336 31.9999H0L1.78292e-06 15.9999C3.55183e-05 7.16341 7.37123 0 16.4637 0C19.7766 0 22.8609 0.950988 25.4435 2.5874Z" fill="#FBF8F7"/>
<path d="M25.4441 16C25.4441 20.8199 21.4239 24.7273 16.4643 24.7273C11.5165 24.7273 7.50327 20.8383 7.48438 16.0341L7.48438 29.4125C10.067 31.049 13.1514 32 16.4643 32C25.5568 32 32.9277 24.8366 32.9277 16L32.9275 4.53895e-07L25.4441 0L25.4441 16Z" fill="#69A3CC"/>
</svg>
