<svg width="24" height="25" viewBox="0 0 24 25" fill="none" xmlns="http://www.w3.org/2000/svg">
<path d="M18.5454 2.60655L18.5454 12.6197C18.5206 9.02607 15.5997 6.12053 12.0002 6.12053C8.38522 6.12053 5.45474 9.05102 5.45474 12.666L5.45452 24.6659H0L1.29954e-06 12.6659C2.58888e-05 6.03855 5.37279 0.666016 12.0002 0.666016C14.4149 0.666016 16.663 1.37925 18.5454 2.60655Z" fill="#FBF8F7"/>
<path d="M18.5457 12.666C18.5457 16.2809 15.6154 19.2114 12.0004 19.2114C8.39404 19.2114 5.46885 16.2947 5.45508 12.6915L5.45508 22.7253C7.33748 23.9526 9.58567 24.6659 12.0004 24.6659C18.6278 24.6659 24.0004 19.2933 24.0004 12.666L24.0002 0.666016L18.5457 0.666016L18.5457 12.666Z" fill="#69A3CC"/>
</svg>
