<svg width="21" height="22" viewBox="0 0 21 22" fill="none" xmlns="http://www.w3.org/2000/svg">
<path d="M16.2273 2.19798L16.2273 10.9596C16.2056 7.81509 13.6498 5.27273 10.5002 5.27273C7.33711 5.27273 4.77292 7.83692 4.77292 11L4.77273 21.5H0L1.13711e-06 11C2.26528e-05 5.20099 4.70122 0.5 10.5002 0.5C12.6131 0.5 14.5802 1.12409 16.2273 2.19798Z" fill="#0C151D"/>
<path d="M16.2272 11C16.2272 14.1631 13.6631 16.7273 10.5001 16.7273C7.34443 16.7273 4.78488 14.1752 4.77283 11.0224L4.77283 19.802C6.41994 20.8759 8.38712 21.5 10.5001 21.5C16.2991 21.5 21.0001 16.799 21.0001 11L20.9999 0.5L16.2272 0.5L16.2272 11Z" fill="#69A3CC"/>
</svg>
