<svg width="33" height="33" viewBox="0 0 33 33" fill="none" xmlns="http://www.w3.org/2000/svg">
<rect x="0.769043" y="0.277344" width="32" height="32" rx="4" fill="#69A3CC" fill-opacity="0.4"/>
<path fillRule="evenodd" clipRule="evenodd" d="M14.957 6.4451C14.957 6.1982 15.1571 5.99805 15.404 5.99805H18.1715C18.4184 5.99805 18.6185 6.1982 18.6185 6.44509V7.91047C19.6315 8.13058 20.5778 8.52958 21.4226 9.07272L22.459 8.03631C22.6336 7.86172 22.9167 7.86172 23.0913 8.03631L25.0481 9.99318C25.2227 10.1678 25.2227 10.4508 25.0481 10.6254L24.0117 11.6618C24.5548 12.5066 24.9537 13.4527 25.1739 14.4656H26.6388C26.8857 14.4656 27.0859 14.6658 27.0859 14.9127V17.6801C27.0859 17.927 26.8857 18.1272 26.6388 18.1272H25.1739C24.9538 19.14 24.555 20.086 24.012 20.9307L25.0483 21.967C25.2229 22.1416 25.2229 22.4246 25.0483 22.5992L23.0914 24.5561C22.9169 24.7307 22.6338 24.7307 22.4592 24.5561L21.4231 23.52C20.5782 24.0633 19.6317 24.4624 18.6185 24.6826V26.1471C18.6185 26.394 18.4184 26.5942 18.1715 26.5942H15.404C15.1571 26.5942 14.957 26.394 14.957 26.1471V24.6825C13.9438 24.4623 12.9974 24.0632 12.1525 23.5199L11.1166 24.5559C10.942 24.7304 10.6589 24.7304 10.4844 24.5559L8.52749 22.599C8.3529 22.4244 8.3529 22.1413 8.52749 21.9668L9.56365 20.9306C9.02073 20.086 8.62188 19.1399 8.40183 18.1272H6.93679C6.6899 18.1272 6.48975 17.927 6.48975 17.6801V14.9127C6.48975 14.6658 6.6899 14.4656 6.93679 14.4656H8.40188C8.62198 13.4528 9.02092 12.5066 9.56397 11.6619L8.52766 10.6256C8.35308 10.451 8.35308 10.168 8.52766 9.99339L10.4845 8.03651C10.6591 7.86193 10.9422 7.86193 11.1168 8.03651L12.153 9.07278C12.9978 8.52965 13.944 8.13065 14.957 7.91052V6.4451Z" fill="white"/>
<path fillRule="evenodd" clipRule="evenodd" d="M14.957 6.4451C14.957 6.1982 15.1571 5.99805 15.404 5.99805H18.1715C18.4184 5.99805 18.6185 6.1982 18.6185 6.44509V7.91047C19.6315 8.13058 20.5778 8.52958 21.4226 9.07272L22.459 8.03631C22.6336 7.86172 22.9167 7.86172 23.0913 8.03631L25.0481 9.99318C25.2227 10.1678 25.2227 10.4508 25.0481 10.6254L24.0117 11.6618C24.5548 12.5066 24.9537 13.4527 25.1739 14.4656H26.6388C26.8857 14.4656 27.0859 14.6658 27.0859 14.9127V17.6801C27.0859 17.927 26.8857 18.1272 26.6388 18.1272H25.1739C24.9538 19.14 24.555 20.086 24.012 20.9307L25.0483 21.967C25.2229 22.1416 25.2229 22.4246 25.0483 22.5992L23.0914 24.5561C22.9169 24.7307 22.6338 24.7307 22.4592 24.5561L21.4231 23.52C20.5782 24.0633 19.6317 24.4624 18.6185 24.6826V26.1471C18.6185 26.394 18.4184 26.5942 18.1715 26.5942H15.404C15.1571 26.5942 14.957 26.394 14.957 26.1471V24.6825C13.9438 24.4623 12.9974 24.0632 12.1525 23.5199L11.1166 24.5559C10.942 24.7304 10.6589 24.7304 10.4844 24.5559L8.52749 22.599C8.3529 22.4244 8.3529 22.1413 8.52749 21.9668L9.56365 20.9306C9.02073 20.086 8.62188 19.1399 8.40183 18.1272H6.93679C6.6899 18.1272 6.48975 17.927 6.48975 17.6801V14.9127C6.48975 14.6658 6.6899 14.4656 6.93679 14.4656H8.40188C8.62198 13.4528 9.02092 12.5066 9.56397 11.6619L8.52766 10.6256C8.35308 10.451 8.35308 10.168 8.52766 9.99339L10.4845 8.03651C10.6591 7.86193 10.9422 7.86193 11.1168 8.03651L12.153 9.07278C12.9978 8.52965 13.944 8.13065 14.957 7.91052V6.4451Z" fill="#69A3CC" fill-opacity="0.08"/>
<circle cx="16.7883" cy="16.2957" r="4.57692" fill="#4F87B8"/>
</svg>
