<svg width="32" height="32" viewBox="0 0 32 32" fill="none" xmlns="http://www.w3.org/2000/svg">
<rect width="32" height="32" rx="4" fill="#69A3CC"/>
<path fillRule="evenodd" clipRule="evenodd" d="M14.1717 6.16136C14.1717 5.91475 14.3717 5.71484 14.6183 5.71484H17.3824C17.629 5.71484 17.8289 5.91475 17.8289 6.16136V7.62476C18.8406 7.84465 19.7856 8.24317 20.6293 8.78562L21.6647 7.7502C21.8391 7.57583 22.1218 7.57583 22.2961 7.7502L24.2507 9.70473C24.425 9.8791 24.425 10.1618 24.2507 10.3362L23.2152 11.3717C23.7576 12.2154 24.156 13.1604 24.3758 14.172H25.8395C26.0861 14.172 26.286 14.3719 26.286 14.6185V17.3826C26.286 17.6292 26.0861 17.8291 25.8395 17.8291H24.3759C24.156 18.8408 23.7576 19.7858 23.2152 20.6295L24.2507 21.6649C24.425 21.8393 24.425 22.122 24.2507 22.2964L22.2961 24.2509C22.1218 24.4253 21.839 24.4253 21.6647 24.2509L20.6293 23.2156C19.7856 23.7581 18.8406 24.1566 17.8289 24.3765V25.8398C17.8289 26.0864 17.629 26.2863 17.3824 26.2863H14.6183C14.3717 26.2863 14.1717 26.0864 14.1717 25.8398V24.3767C13.1599 24.1569 12.2148 23.7584 11.371 23.2159L10.3359 24.251C10.1615 24.4253 9.87882 24.4253 9.70445 24.251L7.74992 22.2964C7.57555 22.1221 7.57555 21.8393 7.74992 21.665L8.78489 20.63C8.24235 19.7862 7.84379 18.841 7.62393 17.8291H6.16111C5.91451 17.8291 5.7146 17.6292 5.7146 17.3826V14.6185C5.7146 14.3719 5.91451 14.172 6.16111 14.172H7.62396C7.84383 13.1602 8.24239 12.215 8.78492 11.3712L7.7499 10.3362C7.57553 10.1618 7.57553 9.8791 7.7499 9.70473L9.70443 7.7502C9.8788 7.57583 10.1615 7.57583 10.3359 7.7502L11.371 8.78531C12.2148 8.24287 13.1599 7.84439 14.1717 7.62458V6.16136Z" fill="white"/>
<path fillRule="evenodd" clipRule="evenodd" d="M14.1717 6.16136C14.1717 5.91475 14.3717 5.71484 14.6183 5.71484H17.3824C17.629 5.71484 17.8289 5.91475 17.8289 6.16136V7.62476C18.8406 7.84465 19.7856 8.24317 20.6293 8.78562L21.6647 7.7502C21.8391 7.57583 22.1218 7.57583 22.2961 7.7502L24.2507 9.70473C24.425 9.8791 24.425 10.1618 24.2507 10.3362L23.2152 11.3717C23.7576 12.2154 24.156 13.1604 24.3758 14.172H25.8395C26.0861 14.172 26.286 14.3719 26.286 14.6185V17.3826C26.286 17.6292 26.0861 17.8291 25.8395 17.8291H24.3759C24.156 18.8408 23.7576 19.7858 23.2152 20.6295L24.2507 21.6649C24.425 21.8393 24.425 22.122 24.2507 22.2964L22.2961 24.2509C22.1218 24.4253 21.839 24.4253 21.6647 24.2509L20.6293 23.2156C19.7856 23.7581 18.8406 24.1566 17.8289 24.3765V25.8398C17.8289 26.0864 17.629 26.2863 17.3824 26.2863H14.6183C14.3717 26.2863 14.1717 26.0864 14.1717 25.8398V24.3767C13.1599 24.1569 12.2148 23.7584 11.371 23.2159L10.3359 24.251C10.1615 24.4253 9.87882 24.4253 9.70445 24.251L7.74992 22.2964C7.57555 22.1221 7.57555 21.8393 7.74992 21.665L8.78489 20.63C8.24235 19.7862 7.84379 18.841 7.62393 17.8291H6.16111C5.91451 17.8291 5.7146 17.6292 5.7146 17.3826V14.6185C5.7146 14.3719 5.91451 14.172 6.16111 14.172H7.62396C7.84383 13.1602 8.24239 12.215 8.78492 11.3712L7.7499 10.3362C7.57553 10.1618 7.57553 9.8791 7.7499 9.70473L9.70443 7.7502C9.8788 7.57583 10.1615 7.57583 10.3359 7.7502L11.371 8.78531C12.2148 8.24287 13.1599 7.84439 14.1717 7.62458V6.16136Z" fill="#69A3CC" fill-opacity="0.08"/>
<circle cx="15.9999" cy="16.0011" r="4.57143" fill="#4F87B8"/>
</svg>
