<svg width="57" height="62" viewBox="0 0 57 62" fill="none" xmlns="http://www.w3.org/2000/svg">
<path fillRule="evenodd" clipRule="evenodd" d="M23.4605 8.97747C23.4886 9.1323 23.4231 9.30371 23.2989 9.40025L6.00868 22.8449C5.13216 23.5264 4.81431 24.8383 5.30107 25.7654L16.8976 47.8531C17.2879 48.5965 17.9006 49.1338 18.6384 49.3798L31.5274 53.6761C31.9501 53.817 32.4038 53.3391 32.3299 52.8308C32.2994 52.6207 32.3617 52.393 32.4971 52.2202L41.4395 40.8052C42.0439 40.0336 42.4195 39.0734 42.5 38.0942L44.7427 10.81C44.8337 9.70257 44.161 8.82061 43.2134 8.80487L26.2009 8.52235C26.0161 8.51928 25.8702 8.37662 25.8401 8.16978C25.7926 7.84264 25.4713 7.71101 25.2122 7.91249L24.6499 8.34974C24.5299 8.44306 24.3918 8.49231 24.2565 8.49006L23.8233 8.48287C23.6023 8.4792 23.4161 8.73296 23.4605 8.97747Z" fill="#0C151D"/>
<path fillRule="evenodd" clipRule="evenodd" d="M25.0001 8.00047L8.38444 22.8135C7.58642 23.5249 7.32722 24.7655 7.79283 25.6451L19.5318 47.8218C19.908 48.5324 20.4884 49.0539 21.188 49.3101L32.8412 53.5758C33.5357 53.83 34.3521 53.5245 34.8784 52.8133L43.8037 40.7549C44.3615 40.0012 44.7066 39.0837 44.7833 38.1501L47.0349 10.7574C47.1248 9.66365 46.4694 8.78728 45.5359 8.75307L25.0008 8.0005C25.0007 8.0005 25.0007 8.00043 25.0006 8.00033C25.0006 8.00016 25.0004 8.00011 25.0003 8.00024L25.0001 8.00047Z" fill="white"/>
<path d="M25.0001 8.00047L25.2686 8.37313L25.2565 8.38535L25.2437 8.39669L25.0001 8.00047ZM19.5318 47.8218L19.1402 48.1335L19.5318 47.8218ZM21.188 49.3101L21.0035 49.8078L21.188 49.3101ZM43.8037 40.7549L43.4789 40.4477L43.4789 40.4477L43.8037 40.7549ZM44.7833 38.1501L45.2306 38.1316L44.7833 38.1501ZM25.0008 8.0005L25.0733 7.48094L25.0008 8.0005ZM47.0349 10.7574L47.4821 10.7389L47.0349 10.7574ZM25.0003 8.00024L25.2689 8.37289L25.0003 8.00024ZM32.8412 53.5758L33.0257 53.078L32.8412 53.5758ZM34.8784 52.8133L35.2032 53.1205L34.8784 52.8133ZM8.38444 22.8135L8.62812 23.2097L8.38444 22.8135ZM7.79283 25.6451L8.18441 25.3334L7.79283 25.6451ZM8.14077 22.4173L24.7564 7.60425L25.2437 8.39669L8.62812 23.2097L8.14077 22.4173ZM19.1402 48.1335L7.40124 25.9568L8.18441 25.3334L19.9234 47.5101L19.1402 48.1335ZM21.0035 49.8078C20.2163 49.5197 19.5634 48.9329 19.1402 48.1335L19.9234 47.5101C20.2525 48.1319 20.7604 48.5882 21.3726 48.8123L21.0035 49.8078ZM32.6566 54.0735L21.0035 49.8078L21.3726 48.8123L33.0257 53.078L32.6566 54.0735ZM34.5537 52.5062L43.4789 40.4477L44.1284 41.062L35.2032 53.1205L34.5537 52.5062ZM43.4789 40.4477C43.967 39.7883 44.269 38.9854 44.3361 38.1686L45.2306 38.1316C45.1442 39.1819 44.756 40.2141 44.1284 41.062L43.4789 40.4477ZM44.3361 38.1686L46.5877 10.7759L47.4821 10.7389L45.2306 38.1316L44.3361 38.1686ZM45.4634 9.27263L24.9284 8.52006L25.0733 7.48094L45.6083 8.23351L45.4634 9.27263ZM24.7315 7.62782L24.7318 7.62758L25.2689 8.37289L25.2686 8.37313L24.7315 7.62782ZM24.9284 8.52006C24.747 8.51341 24.601 8.37775 24.5616 8.17596L25.4397 7.82471C25.4004 7.62311 25.2545 7.48758 25.0733 7.48094L24.9284 8.52006ZM46.5877 10.7759C46.6551 9.95556 46.1635 9.29829 45.4634 9.27263L45.6083 8.23351C46.7752 8.27627 47.5945 9.37173 47.4821 10.7389L46.5877 10.7759ZM24.5616 8.17596C24.631 8.53165 25.007 8.63637 25.2689 8.37289L24.7318 7.62758C24.9938 7.36385 25.3703 7.46867 25.4397 7.82471L24.5616 8.17596ZM33.0257 53.078C33.5466 53.2687 34.1589 53.0396 34.5537 52.5062L35.2032 53.1205C34.5452 54.0094 33.5248 54.3913 32.6566 54.0735L33.0257 53.078ZM8.62812 23.2097C8.0296 23.7433 7.8352 24.6737 8.18441 25.3334L7.40124 25.9568C6.81924 24.8573 7.14323 23.3066 8.14077 22.4173L8.62812 23.2097Z" fill="#0C151D"/>
<path fillRule="evenodd" clipRule="evenodd" d="M26.0002 12.9942C26.0002 12.994 26 12.9939 25.9999 12.9941L13.2126 24.0559C12.4109 24.7494 12.1323 25.9782 12.5749 26.8684L21.1404 44.0956C21.5276 44.8744 22.1544 45.4384 22.9153 45.6928L32.8477 49.0135C32.8499 49.0142 32.8522 49.0116 32.8517 49.0091C32.8515 49.008 32.8518 49.0068 32.8525 49.0059L40.4241 39.0492C41.004 38.2867 41.3634 37.3489 41.442 36.3936L43.1761 15.2957C43.267 14.1899 42.5964 13.3085 41.6503 13.2906L26.0004 12.9944C26.0003 12.9943 26.0003 12.9943 26.0002 12.9942Z" fill="#217BBB"/>
<path d="M21.1404 44.0956L20.7435 44.3971L21.1404 44.0956ZM22.9153 45.6928L23.0903 45.1918L22.9153 45.6928ZM40.4241 39.0492L40.7441 39.3627L40.4241 39.0492ZM41.442 36.3936L41.8892 36.3751L41.442 36.3936ZM26.0004 12.9944L26.0662 12.4746L26.0004 12.9944ZM32.8477 49.0135L33.0227 48.5124L32.8477 49.0135ZM25.9999 12.9941L26.2373 13.3958L25.9999 12.9941ZM32.8525 49.0059L33.1725 49.3194L32.8525 49.0059ZM13.2126 24.0559L12.9751 23.6542L13.2126 24.0559ZM12.5749 26.8684L12.9718 26.567L12.5749 26.8684ZM12.9751 23.6542L25.7625 12.5924L26.2373 13.3958L13.45 24.4576L12.9751 23.6542ZM20.7435 44.3971L12.1781 27.1698L12.9718 26.567L21.5372 43.7942L20.7435 44.3971ZM22.7403 46.1939C21.8843 45.9077 21.1791 45.2732 20.7435 44.3971L21.5372 43.7942C21.876 44.4756 22.4245 44.9692 23.0903 45.1918L22.7403 46.1939ZM32.6727 49.5145L22.7403 46.1939L23.0903 45.1918L33.0227 48.5124L32.6727 49.5145ZM32.5325 48.6924L40.1041 38.7358L40.7441 39.3627L33.1725 49.3194L32.5325 48.6924ZM40.1041 38.7358C40.6115 38.0686 40.926 37.248 40.9947 36.4121L41.8892 36.3751C41.8008 37.4498 41.3965 38.5049 40.7441 39.3627L40.1041 38.7358ZM40.9947 36.4121L42.7289 15.3142L43.6233 15.2772L41.8892 36.3751L40.9947 36.4121ZM41.5845 13.8104L25.9347 13.5141L26.0662 12.4746L41.7161 12.7709L41.5845 13.8104ZM25.9347 13.5141C25.7482 13.5106 25.5969 13.3708 25.5596 13.1612L26.4409 12.8272C26.4036 12.6177 26.2525 12.4781 26.0662 12.4746L25.9347 13.5141ZM42.7289 15.3142C42.7971 14.4848 42.2941 13.8238 41.5845 13.8104L41.7161 12.7709C42.8986 12.7933 43.737 13.8949 43.6233 15.2772L42.7289 15.3142ZM33.0227 48.5124C32.6905 48.4013 32.3374 48.7887 32.4122 49.1823L33.2912 48.8358C33.367 49.2346 33.0094 49.6271 32.6727 49.5145L33.0227 48.5124ZM25.7625 12.5924C26.0277 12.3629 26.3793 12.481 26.4409 12.8272L25.5596 13.1612C25.6212 13.507 25.9724 13.625 26.2373 13.3958L25.7625 12.5924ZM32.4122 49.1823C32.3807 49.0166 32.4259 48.8326 32.5325 48.6924L33.1725 49.3194C33.2777 49.181 33.3223 48.9994 33.2912 48.8358L32.4122 49.1823ZM13.45 24.4576C12.8488 24.9777 12.6398 25.8993 12.9718 26.567L12.1781 27.1698C11.6248 26.057 11.973 24.5211 12.9751 23.6542L13.45 24.4576Z" fill="#0C151D"/>
<path d="M21.1491 31.0775L20.1872 32.4113C19.579 33.2547 19.7186 34.4235 20.5083 35.1L26.5036 40.236C27.4488 41.0456 28.896 40.8047 29.5278 39.7325L40.3172 21.4229C40.732 20.719 40.6769 19.8334 40.1779 19.1863L39.2483 17.9807C38.3568 16.8245 36.567 16.9822 35.8914 18.2766L28.3211 32.7816C28.0223 33.354 27.2675 33.4975 26.7796 33.0746L24.0812 30.7359C23.1933 29.9663 21.8364 30.1244 21.1491 31.0775Z" fill="#0C151D"/>
<path d="M28.2208 34.6425L28.6829 34.9802L28.9555 34.477L37.6409 18.4457C38.1577 17.4917 39.4851 17.3851 40.1476 18.2443L41.1094 19.4916C41.4836 19.977 41.525 20.6411 41.2139 21.1691L30.3587 39.5904C29.9018 40.3658 28.8697 40.567 28.1549 40.0202L21.7653 35.1317C21.0795 34.607 20.9772 33.6129 21.5419 32.9595L22.3319 32.0454C22.8426 31.4545 23.7213 31.3544 24.3518 31.8152L28.2208 34.6425Z" fill="white" stroke="#0C151D"/>
</svg>
