
<svg width="13" height="16" viewBox="0 0 13 16" fill="none" xmlns="http://www.w3.org/2000/svg">
<path fillRule="evenodd" clipRule="evenodd" d="M7.26957 0.00244123C7.26383 0.00241643 7.25809 0.00240308 7.25235 0.00240308C7.2466 0.00240308 7.24086 0.00241643 7.23513 0.00244123L5.52402 0.00244128L5.49687 0.00244128C5.3512 0.00244129 5.23311 0.12053 5.23311 0.266199L5.23311 0.556621C3.18885 1.72615 1.74219 4.619 1.74219 8.0024C1.74219 11.3858 3.18885 14.2787 5.23311 15.4482L5.23311 15.7387C5.23311 15.8844 5.3512 16.0024 5.49687 16.0024L7.29663 16.0024C7.30221 16.0024 7.30776 16.0023 7.31326 16.0019C10.3284 15.9545 12.7625 12.3912 12.7625 8.0024C12.7625 3.6128 10.3274 0.0489289 7.31152 0.00285512C7.30659 0.00258046 7.30163 0.00244123 7.29663 0.00244123L7.26957 0.00244123Z" fill="white"/>
<path fillRule="evenodd" clipRule="evenodd" d="M7.26841 0.266199L7.25235 0.266161L7.23628 0.266196L7.23513 0.266201L5.49687 0.266199L5.49687 0.709597L5.36409 0.78556C3.4282 1.89309 2.00594 4.67886 2.00594 8.0024C2.00594 11.3259 3.4282 14.1117 5.36409 15.2192L5.49687 15.2952L5.49687 15.7387L7.29663 15.7387L7.30299 15.7383L7.30911 15.7382C8.70634 15.7162 9.99776 14.8792 10.9506 13.4816C11.9026 12.0852 12.4987 10.1505 12.4987 8.0024C12.4987 5.85392 11.9024 3.91882 10.9501 2.52241C9.99689 1.12475 8.70508 0.287933 7.30749 0.266581L7.30217 0.2665L7.29685 0.266204L7.26841 0.266199ZM7.25235 0.00240308L7.26957 0.00244123L7.29663 0.00244123C7.30163 0.00244123 7.30659 0.00258046 7.31152 0.00285512C10.3274 0.0489289 12.7625 3.6128 12.7625 8.0024C12.7625 12.3912 10.3284 15.9545 7.31326 16.0019C7.30776 16.0023 7.30221 16.0024 7.29663 16.0024L5.49687 16.0024C5.3512 16.0024 5.23311 15.8844 5.23311 15.7387L5.23311 15.4482C3.18885 14.2787 1.74219 11.3858 1.74219 8.0024C1.74219 4.619 3.18885 1.72615 5.23311 0.556621L5.23311 0.266199C5.23311 0.12053 5.3512 0.00244129 5.49687 0.00244128L7.23513 0.00244123L7.25235 0.00240308Z" fill="#22272F"/>
<path d="M5.51016 0.00244117C8.55334 0.00244103 11.0203 3.58416 11.0203 8.00244C11.0203 12.4207 8.55334 16.0024 5.51016 16.0024C2.46698 16.0024 -1.56562e-07 12.4207 -3.49691e-07 8.00244C-5.4282e-07 3.58416 2.46698 0.0024413 5.51016 0.00244117Z" fill="white"/>
<path fillRule="evenodd" clipRule="evenodd" d="M9.18921 2.4952C8.22527 1.09569 6.92011 0.2662 5.51016 0.2662C4.10021 0.2662 2.79505 1.09569 1.83111 2.4952C0.867944 3.89358 0.263757 5.83988 0.263757 8.00244C0.263757 10.165 0.867944 12.1113 1.83111 13.5097C2.79505 14.9092 4.10021 15.7387 5.51016 15.7387C6.92011 15.7387 8.22527 14.9092 9.18921 13.5097C10.1524 12.1113 10.7566 10.165 10.7566 8.00244C10.7566 5.83988 10.1524 3.89358 9.18921 2.4952ZM11.0203 8.00244C11.0203 3.58416 8.55334 0.00244199 5.51016 0.00244212C2.46698 0.00244225 -5.4282e-07 3.58416 -3.49691e-07 8.00244C-1.56562e-07 12.4207 2.46698 16.0024 5.51016 16.0024C8.55334 16.0024 11.0203 12.4207 11.0203 8.00244Z" fill="#22272F"/>
<path d="M4.54639 3.78277C2.99714 3.78277 1.74122 5.60619 1.74122 7.85549C1.74122 10.1048 2.99714 11.9282 4.54639 11.9282C6.09564 11.9282 7.35156 10.1048 7.35156 7.85549C7.35156 5.60619 6.09564 3.78277 4.54639 3.78277Z" fill="#22272F"/>
<path fillRule="evenodd" clipRule="evenodd" d="M2.78005 5.12525C3.25449 4.43644 3.8834 4.04652 4.54639 4.04652C5.20938 4.04652 5.83829 4.43644 6.31273 5.12526C6.78638 5.81294 7.08781 6.77742 7.08781 7.85549C7.08781 8.93357 6.78638 9.89805 6.31273 10.5857C5.83829 11.2746 5.20938 11.6645 4.54639 11.6645C3.8834 11.6645 3.25449 11.2746 2.78005 10.5857C2.3064 9.89805 2.00498 8.93357 2.00498 7.85549C2.00498 6.77742 2.3064 5.81294 2.78005 5.12525ZM1.74122 7.85549C1.74122 5.60619 2.99714 3.78277 4.54639 3.78277C6.09564 3.78277 7.35156 5.60619 7.35156 7.85549C7.35156 10.1048 6.09564 11.9282 4.54639 11.9282C2.99714 11.9282 1.74122 10.1048 1.74122 7.85549Z" fill="#22272F"/>
<path d="M4.65709 3.77979H5.43003C5.51182 3.77979 5.57812 3.84609 5.57812 3.92788V11.6615C5.57812 11.8072 5.46004 11.9252 5.31437 11.9252H4.65709C4.51142 11.9252 4.39333 11.8072 4.39333 11.6615V4.04354C4.39333 3.89787 4.51142 3.77979 4.65709 3.77979Z" fill="#22272F"/>
<path d="M5.43702 3.78277C3.88776 3.78277 2.63184 5.60619 2.63184 7.85549C2.63184 10.1048 3.88776 11.9282 5.43701 11.9282C6.98627 11.9282 8.24219 10.1048 8.24219 7.85549C8.24219 5.60619 6.98627 3.78277 5.43702 3.78277Z" fill="white"/>
<path fillRule="evenodd" clipRule="evenodd" d="M3.67068 5.12525C4.14511 4.43644 4.77403 4.04652 5.43702 4.04652C6.10001 4.04652 6.72892 4.43644 7.20335 5.12526C7.67701 5.81294 7.97843 6.77742 7.97843 7.85549C7.97843 8.93357 7.67701 9.89805 7.20335 10.5857C6.72892 11.2746 6.1 11.6645 5.43701 11.6645C4.77402 11.6645 4.14511 11.2746 3.67068 10.5857C3.19702 9.89805 2.8956 8.93357 2.8956 7.85549C2.8956 6.77742 3.19702 5.81294 3.67068 5.12525ZM2.63184 7.85549C2.63184 5.60619 3.88776 3.78277 5.43702 3.78277C6.98627 3.78277 8.24219 5.60619 8.24219 7.85549C8.24219 10.1048 6.98627 11.9282 5.43701 11.9282C3.88776 11.9282 2.63184 10.1048 2.63184 7.85549Z" fill="#22272F"/>
</svg>
