<svg width="16" height="17" viewBox="0 0 16 17" fill="none" xmlns="http://www.w3.org/2000/svg">
<path d="M1.99992 2.5C1.63192 2.5 1.33325 2.79867 1.33325 3.16667V9.83333C1.33325 10.2013 1.63192 10.5 1.99992 10.5H13.9999C14.3679 10.5 14.6666 10.2013 14.6666 9.83333V3.16667C14.6666 2.79867 14.3679 2.5 13.9999 2.5H1.99992ZM3.27466 3.83333H12.7252C12.7749 3.97354 12.8553 4.10088 12.9605 4.20607C13.0657 4.31126 13.193 4.39166 13.3333 4.44141V8.55859C13.193 8.60834 13.0657 8.68874 12.9605 8.79393C12.8553 8.89912 12.7749 9.02646 12.7252 9.16667H3.27466C3.22492 9.02646 3.14452 8.89912 3.03932 8.79393C2.93413 8.68874 2.80679 8.60834 2.66659 8.55859V4.44141C2.80679 4.39166 2.93413 4.31126 3.03932 4.20607C3.14452 4.10088 3.22492 3.97354 3.27466 3.83333ZM7.99992 4.5C7.46949 4.5 6.96078 4.71071 6.5857 5.08579C6.21063 5.46086 5.99992 5.96957 5.99992 6.5C5.99992 7.03043 6.21063 7.53914 6.5857 7.91421C6.96078 8.28929 7.46949 8.5 7.99992 8.5C8.53035 8.5 9.03906 8.28929 9.41413 7.91421C9.78921 7.53914 9.99992 7.03043 9.99992 6.5C9.99992 5.96957 9.78921 5.46086 9.41413 5.08579C9.03906 4.71071 8.53035 4.5 7.99992 4.5ZM4.66659 5.83333C4.29859 5.83333 3.99992 6.13133 3.99992 6.5C3.99992 6.86867 4.29859 7.16667 4.66659 7.16667C5.03459 7.16667 5.33325 6.86867 5.33325 6.5C5.33325 6.13133 5.03459 5.83333 4.66659 5.83333ZM11.3333 5.83333C10.9653 5.83333 10.6666 6.13133 10.6666 6.5C10.6666 6.86867 10.9653 7.16667 11.3333 7.16667C11.7013 7.16667 11.9999 6.86867 11.9999 6.5C11.9999 6.13133 11.7013 5.83333 11.3333 5.83333ZM2.66007 11.8333L12.8189 14.4792C13.1756 14.5718 13.5388 14.3573 13.6314 14.0013L14.1965 11.8333H12.8189L12.6614 12.4336C12.362 12.4596 12.0918 12.6192 11.9231 12.8672L7.95174 11.8333H2.66007Z" fill="#69A3CC"/>
</svg>
