<svg width="29" height="31" viewBox="0 0 29 31" fill="none" xmlns="http://www.w3.org/2000/svg">
<path fillRule="evenodd" clipRule="evenodd" d="M14.9018 27.2312C14.802 21.5763 10.2361 17.0108 4.58099 16.9117V16.9085C10.2362 16.8094 14.8022 12.2439 14.9019 6.58887H14.905C15.0047 12.243 19.5693 16.8081 25.2234 16.9084V16.9117C19.5694 17.0121 15.0048 21.5771 14.905 27.2312H14.9018Z" fill="#69A3CC"/>
<path fillRule="evenodd" clipRule="evenodd" d="M0 4.86924V4.87085C2.66869 4.91695 4.8236 7.07117 4.87082 9.73959H4.87207C4.91923 7.07223 7.0724 4.91865 9.73959 4.87083V4.86917C7.07226 4.82134 4.91901 2.66754 4.87206 0H4.87083C4.82387 2.66865 2.66886 4.82313 0 4.86924Z" fill="#69A3CC"/>
</svg>
