<svg width="16" height="16" viewBox="0 0 16 16" fill="none" xmlns="http://www.w3.org/2000/svg">
<g clipPath="url(#clip0_41_3927)">
<path d="M2 5.00002C2 4.86741 2.05268 4.74024 2.14645 4.64647C2.24021 4.5527 2.36739 4.50002 2.5 4.50002H4.82312C4.9309 4.139 5.1523 3.82241 5.45442 3.59731C5.75654 3.3722 6.12324 3.25061 6.5 3.25061C6.87676 3.25061 7.24346 3.3722 7.54558 3.59731C7.8477 3.82241 8.0691 4.139 8.17688 4.50002H13.5C13.6326 4.50002 13.7598 4.5527 13.8536 4.64647C13.9473 4.74024 14 4.86741 14 5.00002C14 5.13263 13.9473 5.25981 13.8536 5.35357C13.7598 5.44734 13.6326 5.50002 13.5 5.50002H8.17688C8.0691 5.86104 7.8477 6.17763 7.54558 6.40274C7.24346 6.62784 6.87676 6.74943 6.5 6.74943C6.12324 6.74943 5.75654 6.62784 5.45442 6.40274C5.1523 6.17763 4.9309 5.86104 4.82312 5.50002H2.5C2.36739 5.50002 2.24021 5.44734 2.14645 5.35357C2.05268 5.25981 2 5.13263 2 5.00002ZM13.5 10.5H12.1769C12.0691 10.139 11.8477 9.82241 11.5456 9.5973C11.2435 9.3722 10.8768 9.25061 10.5 9.25061C10.1232 9.25061 9.75654 9.3722 9.45442 9.5973C9.1523 9.82241 8.9309 10.139 8.82312 10.5H2.5C2.36739 10.5 2.24021 10.5527 2.14645 10.6465C2.05268 10.7402 2 10.8674 2 11C2 11.1326 2.05268 11.2598 2.14645 11.3536C2.24021 11.4473 2.36739 11.5 2.5 11.5H8.82312C8.9309 11.861 9.1523 12.1776 9.45442 12.4027C9.75654 12.6278 10.1232 12.7494 10.5 12.7494C10.8768 12.7494 11.2435 12.6278 11.5456 12.4027C11.8477 12.1776 12.0691 11.861 12.1769 11.5H13.5C13.6326 11.5 13.7598 11.4473 13.8536 11.3536C13.9473 11.2598 14 11.1326 14 11C14 10.8674 13.9473 10.7402 13.8536 10.6465C13.7598 10.5527 13.6326 10.5 13.5 10.5Z" fill="#69A3CC"/>
</g>
<defs>
<clipPath id="clip0_41_3927">
<rect width="16" height="16" fill="white"/>
</clipPath>
</defs>
</svg>
