<svg width="24" height="24" viewBox="0 0 24 24" fill="none" xmlns="http://www.w3.org/2000/svg">
<g id="Medium / Star">
<path id="Subtract" fillRule="evenodd" clipRule="evenodd" d="M13.8019 7.2002C13.8656 10.8159 16.7846 13.7352 20.4002 13.7993V13.8025C16.7851 13.8666 13.8664 16.7851 13.802 20.4002H13.8005C13.7365 16.784 10.8166 13.8646 7.2002 13.8015V13.7993C10.8168 13.7363 13.7369 10.8166 13.8006 7.2002H13.8019Z" fill="#69A3CC"/>
<path id="Subtract_2" fillRule="evenodd" clipRule="evenodd" d="M10.8001 7.20148V7.1996C8.82817 7.16456 7.23618 5.57252 7.20119 3.60059H7.20068C7.16588 5.57326 5.57292 7.16584 3.6001 7.20002V7.20043C5.57307 7.23472 7.16608 8.82764 7.2005 10.8006H7.20119C7.23613 8.82861 8.82814 7.23653 10.8001 7.20148Z" fill="#69A3CC"/>
</g>
</svg>
