<svg width="33" height="33" viewBox="0 0 33 33" fill="none" xmlns="http://www.w3.org/2000/svg">
<rect x="0.961426" y="0.277344" width="32" height="32" rx="4" fill="#69A3CC" fill-opacity="0.4"/>
<rect x="7.82666" y="11.7188" width="18.3077" height="13.7308" rx="0.915384" fill="#69A3CC" fill-opacity="0.08"/>
<path d="M8.36222 12.596C8.38265 12.1057 8.78608 11.7188 9.27681 11.7188H24.6842C25.1749 11.7188 25.5784 12.1057 25.5988 12.596L26.0946 24.496C26.1163 25.0161 25.7005 25.4495 25.18 25.4495H8.78098C8.26048 25.4495 7.84472 25.0161 7.86639 24.496L8.36222 12.596Z" fill="white"/>
<path d="M8.36222 12.596C8.38265 12.1057 8.78608 11.7188 9.27681 11.7188H24.6842C25.1749 11.7188 25.5784 12.1057 25.5988 12.596L26.0946 24.496C26.1163 25.0161 25.7005 25.4495 25.18 25.4495H8.78098C8.26048 25.4495 7.84472 25.0161 7.86639 24.496L8.36222 12.596Z" fill="#69A3CC" fill-opacity="0.08"/>
<path fillRule="evenodd" clipRule="evenodd" d="M6.68337 12.1772H6.68262V8.05796C6.68262 7.55241 7.09245 7.14258 7.598 7.14258H26.3634C26.8689 7.14258 27.2788 7.55241 27.2788 8.05796V12.1072C27.2788 12.112 27.2788 12.1168 27.2788 12.1217C27.2788 12.1265 27.2788 12.1314 27.2788 12.1362V12.1772H27.2782C27.2487 13.5734 26.1076 14.6962 24.7043 14.6962C23.301 14.6962 22.1599 13.5734 22.1304 12.1772H22.1295C22.0999 13.5734 20.9589 14.6962 19.5555 14.6962C18.1522 14.6962 17.0111 13.5734 16.9816 12.1772H16.9803C16.9508 13.5734 15.8097 14.6962 14.4064 14.6962C13.0031 14.6962 11.862 13.5734 11.8325 12.1772H11.8312C11.8017 13.5734 10.6606 14.6962 9.2573 14.6962C7.85398 14.6962 6.7129 13.5734 6.68337 12.1772Z" fill="white"/>
<path fillRule="evenodd" clipRule="evenodd" d="M6.68337 12.1772H6.68262V8.05796C6.68262 7.55241 7.09245 7.14258 7.598 7.14258H26.3634C26.8689 7.14258 27.2788 7.55241 27.2788 8.05796V12.1072C27.2788 12.112 27.2788 12.1168 27.2788 12.1217C27.2788 12.1265 27.2788 12.1314 27.2788 12.1362V12.1772H27.2782C27.2487 13.5734 26.1076 14.6962 24.7043 14.6962C23.301 14.6962 22.1599 13.5734 22.1304 12.1772H22.1295C22.0999 13.5734 20.9589 14.6962 19.5555 14.6962C18.1522 14.6962 17.0111 13.5734 16.9816 12.1772H16.9803C16.9508 13.5734 15.8097 14.6962 14.4064 14.6962C13.0031 14.6962 11.862 13.5734 11.8325 12.1772H11.8312C11.8017 13.5734 10.6606 14.6962 9.2573 14.6962C7.85398 14.6962 6.7129 13.5734 6.68337 12.1772Z" fill="#69A3CC" fill-opacity="0.4"/>
<rect x="12.8613" y="21.7871" width="8.23846" height="1.83077" rx="0.457692" fill="#4F87B8"/>
</svg>
