<svg width="32" height="32" viewBox="0 0 32 32" fill="none" xmlns="http://www.w3.org/2000/svg">
<rect width="32" height="32" rx="4" fill="#69A3CC"/>
<rect x="6.85742" y="11.4297" width="18.2857" height="13.7143" rx="0.914286" fill="#69A3CC" fill-opacity="0.08"/>
<path d="M7.39234 12.3059C7.41275 11.8162 7.81569 11.4297 8.30583 11.4297H23.6947C24.1849 11.4297 24.5878 11.8162 24.6082 12.3059L25.1035 24.1916C25.1251 24.7111 24.7098 25.144 24.19 25.144H7.8106C7.29072 25.144 6.87546 24.7111 6.8971 24.1916L7.39234 12.3059Z" fill="white"/>
<path d="M7.39234 12.3059C7.41275 11.8162 7.81569 11.4297 8.30583 11.4297H23.6947C24.1849 11.4297 24.5878 11.8162 24.6082 12.3059L25.1035 24.1916C25.1251 24.7111 24.7098 25.144 24.19 25.144H7.8106C7.29072 25.144 6.87546 24.7111 6.8971 24.1916L7.39234 12.3059Z" fill="#69A3CC" fill-opacity="0.08"/>
<path fillRule="evenodd" clipRule="evenodd" d="M5.71522 11.884H5.7146V11.8268V7.76975C5.7146 7.26481 6.12394 6.85547 6.62889 6.85547H25.3717C25.8767 6.85547 26.286 7.26481 26.286 7.76976V11.8268V11.884H26.2854C26.255 13.2778 25.1156 14.3982 23.7146 14.3982C22.3136 14.3982 21.1742 13.2778 21.1438 11.884H21.143C21.1125 13.2778 19.9732 14.3982 18.5722 14.3982C17.1711 14.3982 16.0318 13.2778 16.0014 11.884H15.9994C15.969 13.2778 14.8296 14.3982 13.4286 14.3982C12.0276 14.3982 10.8882 13.2778 10.8578 11.884H10.8568C10.8264 13.2778 9.68706 14.3982 8.28603 14.3982C6.885 14.3982 5.74566 13.2778 5.71522 11.884Z" fill="white"/>
<path fillRule="evenodd" clipRule="evenodd" d="M5.71522 11.884H5.7146V11.8268V7.76975C5.7146 7.26481 6.12394 6.85547 6.62889 6.85547H25.3717C25.8767 6.85547 26.286 7.26481 26.286 7.76976V11.8268V11.884H26.2854C26.255 13.2778 25.1156 14.3982 23.7146 14.3982C22.3136 14.3982 21.1742 13.2778 21.1438 11.884H21.143C21.1125 13.2778 19.9732 14.3982 18.5722 14.3982C17.1711 14.3982 16.0318 13.2778 16.0014 11.884H15.9994C15.969 13.2778 14.8296 14.3982 13.4286 14.3982C12.0276 14.3982 10.8882 13.2778 10.8578 11.884H10.8568C10.8264 13.2778 9.68706 14.3982 8.28603 14.3982C6.885 14.3982 5.74566 13.2778 5.71522 11.884Z" fill="#69A3CC" fill-opacity="0.4"/>
<rect x="11.8857" y="21.4844" width="8.22857" height="1.82857" rx="0.457143" fill="#4F87B8"/>
</svg>
