
<svg width="16" height="16" viewBox="0 0 16 16" fill="none" xmlns="http://www.w3.org/2000/svg">
<path d="M9.96761 3L4.40909 3C4.30059 3 4.19654 3.05268 4.11982 3.14645C4.0431 3.24022 4 3.36739 4 3.5L4 13.5C4 13.6326 4.0431 13.7598 4.11982 13.8536C4.19654 13.9473 4.30059 14 4.40909 14L12.5909 14C12.6994 14 12.8035 13.9473 12.8802 13.8536C12.9569 13.7598 13 13.6326 13 13.5L13 6.70625C13.0002 6.64133 12.9899 6.57699 12.9697 6.51693C12.9495 6.45688 12.9199 6.40227 12.8824 6.35625L10.254 3.14375C10.2163 3.09796 10.1716 3.06169 10.1225 3.03702C10.0734 3.01235 10.0207 2.99977 9.96761 3V3Z" stroke="#526277" strokeLinecap="round" strokeLinejoin="round"/>
<path d="M12.9646 6.5L10.1367 6.5L10.1367 3.04375" stroke="#526277" strokeLinecap="round" strokeLinejoin="round"/>
<rect x="6" y="8" width="1.25" height="1.25" rx="0.625" fill="#526277"/>
<rect x="7.75" y="8.125" width="3" height="1" rx="0.5" fill="#526277"/>
<rect x="6" y="10" width="1.25" height="1.25" rx="0.625" fill="#526277"/>
<rect x="7.75" y="10.125" width="4" height="1" rx="0.5" fill="#526277"/>
</svg>
