<svg width="36" height="36" viewBox="0 0 36 36" fill="none" xmlns="http://www.w3.org/2000/svg">
<g clipPath="url(#clip0_3157_29957)">
<path d="M27.6504 32.0769H27.1532C24.9526 32.0769 22.8709 33.0757 21.4939 34.7923C21.1657 35.2018 20.5197 35.1138 20.3123 34.6326L18.5866 30.6282C17.3615 27.7854 19.446 24.6172 22.5415 24.6172C24.222 24.6172 25.749 25.5947 26.4525 27.1208L28.2823 31.09C28.4949 31.551 28.1584 32.0769 27.6504 32.0769Z" fill="url(#paint0_linear_3157_29957)"/>
<path d="M14.0214 24.6172C17.1387 24.6172 19.2309 27.8168 17.9809 30.6725L16.2436 34.6416C16.0339 35.1205 15.3902 35.2063 15.0634 34.7982C13.6836 33.0779 11.5975 32.0769 9.3922 32.0769H8.90245C8.39444 32.0769 8.05801 31.551 8.27061 31.09L10.0962 27.1299C10.8022 25.5982 12.3348 24.6172 14.0214 24.6172Z" fill="url(#paint1_linear_3157_29957)"/>
<path d="M19.3818 3.37049C20.4181 3.95153 21.5836 4.26365 22.7715 4.27834C23.8241 4.29102 24.7946 4.85124 25.3317 5.75685C25.9382 6.77795 26.791 7.63073 27.8121 8.23721C28.7169 8.77506 29.2772 9.74483 29.2906 10.7974C29.3053 11.9854 29.6174 13.1508 30.1984 14.1871C30.7132 15.1054 30.7132 16.2251 30.1984 17.1434C29.6174 18.1797 29.3053 19.3451 29.2906 20.5331C29.2779 21.5857 28.7177 22.5562 27.8121 23.0933C26.791 23.6998 25.9382 24.5525 25.3317 25.5736C24.7939 26.4785 23.8241 27.0387 22.7715 27.0521C21.5836 27.0668 20.4181 27.3789 19.3818 27.96C18.4635 28.4747 17.3438 28.4747 16.4255 27.96C15.3893 27.3789 14.2238 27.0668 13.0358 27.0521C11.9833 27.0395 11.0128 26.4792 10.4757 25.5736C9.86918 24.5525 9.0164 23.6998 7.99531 23.0933C7.09044 22.5554 6.53022 21.5857 6.51679 20.5331C6.50211 19.3451 6.18998 18.1797 5.60894 17.1434C5.09422 16.2251 5.09422 15.1054 5.60894 14.1871C6.18998 13.1508 6.50211 11.9854 6.51679 10.7974C6.52947 9.74483 7.0897 8.77431 7.99531 8.23721C9.0164 7.63072 9.86918 6.77795 10.4757 5.75685C11.0135 4.85199 11.9833 4.29176 13.0358 4.27834C14.2238 4.26365 15.3893 3.95153 16.4255 3.37049C17.3431 2.85502 18.4635 2.85502 19.3818 3.37049Z" fill="#CD6D0D"/>
<path d="M17.9332 25.4827C23.2891 25.4827 27.6309 21.1409 27.6309 15.785C27.6309 10.4292 23.2891 6.0874 17.9332 6.0874C12.5774 6.0874 8.2356 10.4292 8.2356 15.785C8.2356 21.1409 12.5774 25.4827 17.9332 25.4827Z" fill="#A84A0D"/>
<path d="M12.873 20.2271V15.6771L13.272 16.0901H11.837V15.3271H13.783V20.2271H12.873ZM16.799 20.2971C16.4117 20.2971 16.0617 20.1991 15.749 20.0031C15.441 19.8071 15.1984 19.5224 15.021 19.1491C14.8437 18.7711 14.755 18.3137 14.755 17.7771C14.755 17.2404 14.8437 16.7854 15.021 16.4121C15.1984 16.0341 15.441 15.7471 15.749 15.5511C16.0617 15.3551 16.4117 15.2571 16.799 15.2571C17.191 15.2571 17.541 15.3551 17.849 15.5511C18.157 15.7471 18.3997 16.0341 18.577 16.4121C18.759 16.7854 18.85 17.2404 18.85 17.7771C18.85 18.3137 18.759 18.7711 18.577 19.1491C18.3997 19.5224 18.157 19.8071 17.849 20.0031C17.541 20.1991 17.191 20.2971 16.799 20.2971ZM16.799 19.5061C17.0277 19.5061 17.226 19.4454 17.394 19.3241C17.562 19.1981 17.6927 19.0067 17.786 18.7501C17.884 18.4934 17.933 18.1691 17.933 17.7771C17.933 17.3804 17.884 17.0561 17.786 16.8041C17.6927 16.5474 17.562 16.3584 17.394 16.2371C17.226 16.1111 17.0277 16.0481 16.799 16.0481C16.5797 16.0481 16.3837 16.1111 16.211 16.2371C16.043 16.3584 15.91 16.5474 15.812 16.8041C15.7187 17.0561 15.672 17.3804 15.672 17.7771C15.672 18.1691 15.7187 18.4934 15.812 18.7501C15.91 19.0067 16.043 19.1981 16.211 19.3241C16.3837 19.4454 16.5797 19.5061 16.799 19.5061ZM20.151 20.2271L23.497 15.3271H24.183L20.837 20.2271H20.151ZM20.557 17.9661C20.3283 17.9661 20.1253 17.9101 19.948 17.7981C19.7706 17.6861 19.633 17.5297 19.535 17.3291C19.437 17.1284 19.388 16.8927 19.388 16.6221C19.388 16.3514 19.437 16.1157 19.535 15.9151C19.633 15.7144 19.7706 15.5581 19.948 15.4461C20.1253 15.3341 20.3283 15.2781 20.557 15.2781C20.795 15.2781 21.0003 15.3341 21.173 15.4461C21.3503 15.5581 21.488 15.7144 21.586 15.9151C21.684 16.1157 21.733 16.3514 21.733 16.6221C21.733 16.8927 21.684 17.1284 21.586 17.3291C21.488 17.5297 21.3503 17.6861 21.173 17.7981C21.0003 17.9101 20.795 17.9661 20.557 17.9661ZM20.564 17.4761C20.7506 17.4761 20.8953 17.4037 20.998 17.2591C21.1053 17.1097 21.159 16.8974 21.159 16.6221C21.159 16.3467 21.1053 16.1367 20.998 15.9921C20.8953 15.8427 20.7506 15.7681 20.564 15.7681C20.3773 15.7681 20.228 15.8427 20.116 15.9921C20.0086 16.1414 19.955 16.3514 19.955 16.6221C19.955 16.8927 20.0086 17.1027 20.116 17.2521C20.228 17.4014 20.3773 17.4761 20.564 17.4761ZM23.77 20.2761C23.5413 20.2761 23.3383 20.2201 23.161 20.1081C22.9836 19.9961 22.846 19.8397 22.748 19.6391C22.65 19.4384 22.601 19.2027 22.601 18.9321C22.601 18.6614 22.65 18.4257 22.748 18.2251C22.846 18.0244 22.9836 17.8681 23.161 17.7561C23.3383 17.6441 23.5413 17.5881 23.77 17.5881C24.008 17.5881 24.2133 17.6441 24.386 17.7561C24.5633 17.8681 24.701 18.0244 24.799 18.2251C24.897 18.4257 24.946 18.6614 24.946 18.9321C24.946 19.2027 24.897 19.4384 24.799 19.6391C24.701 19.8397 24.5633 19.9961 24.386 20.1081C24.2133 20.2201 24.008 20.2761 23.77 20.2761ZM23.77 19.7861C23.9566 19.7861 24.1036 19.7114 24.211 19.5621C24.3183 19.4127 24.372 19.2027 24.372 18.9321C24.372 18.6614 24.3183 18.4514 24.211 18.3021C24.1036 18.1527 23.9566 18.0781 23.77 18.0781C23.588 18.0781 23.441 18.1527 23.329 18.3021C23.2216 18.4467 23.168 18.6567 23.168 18.9321C23.168 19.2074 23.2216 19.4197 23.329 19.5691C23.441 19.7137 23.588 19.7861 23.77 19.7861Z" fill="#F9AC65"/>
<path d="M14.1275 13.6069V11.3939H13.2512V10.754H15.8066V11.3939H14.9344V13.6069H14.1275ZM17.5061 13.664C17.2779 13.664 17.0673 13.6273 16.8744 13.554C16.6815 13.4806 16.513 13.3773 16.369 13.2442C16.2278 13.1084 16.1177 12.9508 16.0389 12.7714C15.9601 12.5921 15.9207 12.3951 15.9207 12.1805C15.9207 11.9658 15.9601 11.7689 16.0389 11.5895C16.1177 11.4102 16.2278 11.254 16.369 11.1208C16.513 10.985 16.6815 10.8804 16.8744 10.807C17.0673 10.7337 17.2779 10.697 17.5061 10.697C17.7371 10.697 17.9476 10.7337 18.1378 10.807C18.3307 10.8804 18.4978 10.985 18.6391 11.1208C18.7804 11.254 18.8905 11.4102 18.9693 11.5895C19.0508 11.7689 19.0915 11.9658 19.0915 12.1805C19.0915 12.3951 19.0508 12.5935 18.9693 12.7755C18.8905 12.9548 18.7804 13.1111 18.6391 13.2442C18.4978 13.3773 18.3307 13.4806 18.1378 13.554C17.9476 13.6273 17.7371 13.664 17.5061 13.664ZM17.5061 12.9956C17.6148 12.9956 17.7153 12.9766 17.8077 12.9385C17.9028 12.9005 17.9843 12.8462 18.0523 12.7755C18.1229 12.7022 18.1772 12.6152 18.2153 12.5147C18.256 12.4142 18.2764 12.3028 18.2764 12.1805C18.2764 12.0555 18.256 11.9441 18.2153 11.8463C18.1772 11.7458 18.1229 11.6602 18.0523 11.5895C17.9843 11.5162 17.9028 11.4605 17.8077 11.4224C17.7153 11.3844 17.6148 11.3654 17.5061 11.3654C17.3974 11.3654 17.2956 11.3844 17.2005 11.4224C17.1081 11.4605 17.0266 11.5162 16.9559 11.5895C16.888 11.6602 16.8337 11.7458 16.7929 11.8463C16.7549 11.9441 16.7358 12.0555 16.7358 12.1805C16.7358 12.3028 16.7549 12.4142 16.7929 12.5147C16.8337 12.6152 16.888 12.7022 16.9559 12.7755C17.0266 12.8462 17.1081 12.9005 17.2005 12.9385C17.2956 12.9766 17.3974 12.9956 17.5061 12.9956ZM19.5142 13.6069V10.754H20.8183C21.0792 10.754 21.3033 10.7962 21.4908 10.8804C21.681 10.9646 21.8277 11.0869 21.931 11.2472C22.0342 11.4048 22.0858 11.5922 22.0858 11.8096C22.0858 12.0243 22.0342 12.2104 21.931 12.368C21.8277 12.5256 21.681 12.6478 21.4908 12.7348C21.3033 12.819 21.0792 12.8611 20.8183 12.8611H19.9625L20.3211 12.5106V13.6069H19.5142ZM20.3211 12.5962L19.9625 12.2253H20.7694C20.9379 12.2253 21.0629 12.1886 21.1444 12.1153C21.2286 12.0419 21.2707 11.94 21.2707 11.8096C21.2707 11.6765 21.2286 11.5732 21.1444 11.4999C21.0629 11.4265 20.9379 11.3898 20.7694 11.3898H19.9625L20.3211 11.019V12.5962Z" fill="#F9AC65"/>
</g>
<defs>
<linearGradient id="paint0_linear_3157_29957" x1="16.8604" y1="29.835" x2="27.4827" y2="29.835" gradientUnits="userSpaceOnUse">
<stop stop-color="#A5470D"/>
<stop offset="0.5" stop-color="#BF6205"/>
<stop offset="1" stop-color="#CD6D0C"/>
</linearGradient>
<linearGradient id="paint1_linear_3157_29957" x1="9.07538" y1="29.8379" x2="19.7618" y2="29.8379" gradientUnits="userSpaceOnUse">
<stop stop-color="#A5470D"/>
<stop offset="0.5" stop-color="#BF6205"/>
<stop offset="1" stop-color="#CD6D0C"/>
</linearGradient>
<clipPath id="clip0_3157_29957">
<rect width="35.8067" height="35.8067" fill="white"/>
</clipPath>
</defs>
</svg>
