<svg width="36" height="36" viewBox="0 0 36 36" fill="none" xmlns="http://www.w3.org/2000/svg">
<g clipPath="url(#clip0_3157_42180)">
<path d="M27.6502 32.0769H27.153C24.9524 32.0769 22.8707 33.0757 21.4937 34.7923C21.1654 35.2018 20.5194 35.1138 20.312 34.6326L18.5863 30.6282C17.3612 27.7854 19.4458 24.6172 22.5413 24.6172C24.2218 24.6172 25.7487 25.5947 26.4523 27.1208L28.282 31.09C28.4946 31.551 28.1582 32.0769 27.6502 32.0769Z" fill="url(#paint0_linear_3157_42180)"/>
<path d="M14.0214 24.6172C17.1387 24.6172 19.2309 27.8168 17.9809 30.6725L16.2436 34.6416C16.0339 35.1205 15.3902 35.2063 15.0634 34.7982C13.6836 33.0779 11.5975 32.0769 9.3922 32.0769H8.90245C8.39444 32.0769 8.05801 31.551 8.27061 31.09L10.0962 27.1299C10.8022 25.5982 12.3348 24.6172 14.0214 24.6172Z" fill="url(#paint1_linear_3157_42180)"/>
<path d="M19.3818 3.37049C20.4181 3.95153 21.5836 4.26365 22.7715 4.27834C23.8241 4.29102 24.7946 4.85124 25.3317 5.75685C25.9382 6.77795 26.791 7.63073 27.8121 8.23721C28.7169 8.77506 29.2772 9.74483 29.2906 10.7974C29.3053 11.9854 29.6174 13.1508 30.1984 14.1871C30.7132 15.1054 30.7132 16.2251 30.1984 17.1434C29.6174 18.1797 29.3053 19.3451 29.2906 20.5331C29.2779 21.5857 28.7177 22.5562 27.8121 23.0933C26.791 23.6998 25.9382 24.5525 25.3317 25.5736C24.7939 26.4785 23.8241 27.0387 22.7715 27.0521C21.5836 27.0668 20.4181 27.3789 19.3818 27.96C18.4635 28.4747 17.3438 28.4747 16.4255 27.96C15.3893 27.3789 14.2238 27.0668 13.0358 27.0521C11.9833 27.0395 11.0128 26.4792 10.4757 25.5736C9.86918 24.5525 9.0164 23.6998 7.99531 23.0933C7.09044 22.5554 6.53022 21.5857 6.51679 20.5331C6.50211 19.3451 6.18998 18.1797 5.60894 17.1434C5.09422 16.2251 5.09422 15.1054 5.60894 14.1871C6.18998 13.1508 6.50211 11.9854 6.51679 10.7974C6.52947 9.74483 7.0897 8.77431 7.99531 8.23721C9.0164 7.63072 9.86918 6.77795 10.4757 5.75685C11.0135 4.85199 11.9833 4.29176 13.0358 4.27834C14.2238 4.26365 15.3893 3.95153 16.4255 3.37049C17.3431 2.85502 18.4635 2.85502 19.3818 3.37049Z" fill="#BCC2C6"/>
<path d="M17.933 25.4827C23.2889 25.4827 27.6306 21.1409 27.6306 15.785C27.6306 10.4292 23.2889 6.0874 17.933 6.0874C12.5771 6.0874 8.23535 10.4292 8.23535 15.785C8.23535 21.1409 12.5771 25.4827 17.933 25.4827Z" fill="#919A9F"/>
<path d="M15.251 20.2971C14.9057 20.2971 14.5673 20.2481 14.236 20.1501C13.9093 20.0474 13.634 19.9074 13.41 19.7301L13.795 19.0231C13.9723 19.1677 14.187 19.2844 14.439 19.3731C14.6957 19.4617 14.9617 19.5061 15.237 19.5061C15.559 19.5061 15.811 19.4384 15.993 19.3031C16.1797 19.1677 16.273 18.9857 16.273 18.7571C16.273 18.6031 16.2333 18.4677 16.154 18.3511C16.0793 18.2344 15.944 18.1457 15.748 18.0851C15.5567 18.0244 15.293 17.9941 14.957 17.9941H13.774L14.026 15.3271H16.903V16.0901H14.362L14.838 15.6561L14.649 17.6511L14.173 17.2241H15.16C15.6453 17.2241 16.035 17.2894 16.329 17.4201C16.6277 17.5461 16.8447 17.7234 16.98 17.9521C17.12 18.1761 17.19 18.4327 17.19 18.7221C17.19 19.0067 17.12 19.2681 16.98 19.5061C16.84 19.7441 16.6253 19.9354 16.336 20.0801C16.0513 20.2247 15.6897 20.2971 15.251 20.2971ZM18.3325 20.2271L21.6785 15.3271H22.3645L19.0185 20.2271H18.3325ZM18.7385 17.9661C18.5099 17.9661 18.3069 17.9101 18.1295 17.7981C17.9522 17.6861 17.8145 17.5297 17.7165 17.3291C17.6185 17.1284 17.5695 16.8927 17.5695 16.6221C17.5695 16.3514 17.6185 16.1157 17.7165 15.9151C17.8145 15.7144 17.9522 15.5581 18.1295 15.4461C18.3069 15.3341 18.5099 15.2781 18.7385 15.2781C18.9765 15.2781 19.1819 15.3341 19.3545 15.4461C19.5319 15.5581 19.6695 15.7144 19.7675 15.9151C19.8655 16.1157 19.9145 16.3514 19.9145 16.6221C19.9145 16.8927 19.8655 17.1284 19.7675 17.3291C19.6695 17.5297 19.5319 17.6861 19.3545 17.7981C19.1819 17.9101 18.9765 17.9661 18.7385 17.9661ZM18.7455 17.4761C18.9322 17.4761 19.0769 17.4037 19.1795 17.2591C19.2869 17.1097 19.3405 16.8974 19.3405 16.6221C19.3405 16.3467 19.2869 16.1367 19.1795 15.9921C19.0769 15.8427 18.9322 15.7681 18.7455 15.7681C18.5589 15.7681 18.4095 15.8427 18.2975 15.9921C18.1902 16.1414 18.1365 16.3514 18.1365 16.6221C18.1365 16.8927 18.1902 17.1027 18.2975 17.2521C18.4095 17.4014 18.5589 17.4761 18.7455 17.4761ZM21.9515 20.2761C21.7229 20.2761 21.5199 20.2201 21.3425 20.1081C21.1652 19.9961 21.0275 19.8397 20.9295 19.6391C20.8315 19.4384 20.7825 19.2027 20.7825 18.9321C20.7825 18.6614 20.8315 18.4257 20.9295 18.2251C21.0275 18.0244 21.1652 17.8681 21.3425 17.7561C21.5199 17.6441 21.7229 17.5881 21.9515 17.5881C22.1895 17.5881 22.3949 17.6441 22.5675 17.7561C22.7449 17.8681 22.8825 18.0244 22.9805 18.2251C23.0785 18.4257 23.1275 18.6614 23.1275 18.9321C23.1275 19.2027 23.0785 19.4384 22.9805 19.6391C22.8825 19.8397 22.7449 19.9961 22.5675 20.1081C22.3949 20.2201 22.1895 20.2761 21.9515 20.2761ZM21.9515 19.7861C22.1382 19.7861 22.2852 19.7114 22.3925 19.5621C22.4999 19.4127 22.5535 19.2027 22.5535 18.9321C22.5535 18.6614 22.4999 18.4514 22.3925 18.3021C22.2852 18.1527 22.1382 18.0781 21.9515 18.0781C21.7695 18.0781 21.6225 18.1527 21.5105 18.3021C21.4032 18.4467 21.3495 18.6567 21.3495 18.9321C21.3495 19.2074 21.4032 19.4197 21.5105 19.5691C21.6225 19.7137 21.7695 19.7861 21.9515 19.7861Z" fill="#E9EBEC"/>
<path d="M14.1272 13.6069V11.3939H13.251V10.754H15.8064V11.3939H14.9342V13.6069H14.1272ZM17.5059 13.664C17.2777 13.664 17.0671 13.6273 16.8742 13.554C16.6813 13.4806 16.5128 13.3773 16.3688 13.2442C16.2275 13.1084 16.1175 12.9508 16.0387 12.7714C15.9599 12.5921 15.9205 12.3951 15.9205 12.1805C15.9205 11.9658 15.9599 11.7689 16.0387 11.5895C16.1175 11.4102 16.2275 11.254 16.3688 11.1208C16.5128 10.985 16.6813 10.8804 16.8742 10.807C17.0671 10.7337 17.2777 10.697 17.5059 10.697C17.7368 10.697 17.9474 10.7337 18.1376 10.807C18.3305 10.8804 18.4976 10.985 18.6389 11.1208C18.7802 11.254 18.8902 11.4102 18.969 11.5895C19.0505 11.7689 19.0913 11.9658 19.0913 12.1805C19.0913 12.3951 19.0505 12.5935 18.969 12.7755C18.8902 12.9548 18.7802 13.1111 18.6389 13.2442C18.4976 13.3773 18.3305 13.4806 18.1376 13.554C17.9474 13.6273 17.7368 13.664 17.5059 13.664ZM17.5059 12.9956C17.6146 12.9956 17.7151 12.9766 17.8075 12.9385C17.9026 12.9005 17.9841 12.8462 18.052 12.7755C18.1227 12.7022 18.177 12.6152 18.215 12.5147C18.2558 12.4142 18.2762 12.3028 18.2762 12.1805C18.2762 12.0555 18.2558 11.9441 18.215 11.8463C18.177 11.7458 18.1227 11.6602 18.052 11.5895C17.9841 11.5162 17.9026 11.4605 17.8075 11.4224C17.7151 11.3844 17.6146 11.3654 17.5059 11.3654C17.3972 11.3654 17.2953 11.3844 17.2002 11.4224C17.1078 11.4605 17.0263 11.5162 16.9557 11.5895C16.8878 11.6602 16.8334 11.7458 16.7927 11.8463C16.7546 11.9441 16.7356 12.0555 16.7356 12.1805C16.7356 12.3028 16.7546 12.4142 16.7927 12.5147C16.8334 12.6152 16.8878 12.7022 16.9557 12.7755C17.0263 12.8462 17.1078 12.9005 17.2002 12.9385C17.2953 12.9766 17.3972 12.9956 17.5059 12.9956ZM19.5139 13.6069V10.754H20.8181C21.0789 10.754 21.3031 10.7962 21.4906 10.8804C21.6808 10.9646 21.8275 11.0869 21.9307 11.2472C22.034 11.4048 22.0856 11.5922 22.0856 11.8096C22.0856 12.0243 22.034 12.2104 21.9307 12.368C21.8275 12.5256 21.6808 12.6478 21.4906 12.7348C21.3031 12.819 21.0789 12.8611 20.8181 12.8611H19.9622L20.3209 12.5106V13.6069H19.5139ZM20.3209 12.5962L19.9622 12.2253H20.7692C20.9377 12.2253 21.0626 12.1886 21.1441 12.1153C21.2284 12.0419 21.2705 11.94 21.2705 11.8096C21.2705 11.6765 21.2284 11.5732 21.1441 11.4999C21.0626 11.4265 20.9377 11.3898 20.7692 11.3898H19.9622L20.3209 11.019V12.5962Z" fill="#E9EBEC"/>
</g>
<defs>
<linearGradient id="paint0_linear_3157_42180" x1="16.8602" y1="29.835" x2="27.4825" y2="29.835" gradientUnits="userSpaceOnUse">
<stop stop-color="#8C969D"/>
<stop offset="0.5" stop-color="#A9A9A9"/>
<stop offset="1" stop-color="#BBC1C5"/>
</linearGradient>
<linearGradient id="paint1_linear_3157_42180" x1="9.07538" y1="29.8379" x2="19.7618" y2="29.8379" gradientUnits="userSpaceOnUse">
<stop stop-color="#8C969D"/>
<stop offset="0.5" stop-color="#A9A9A9"/>
<stop offset="1" stop-color="#BBC1C5"/>
</linearGradient>
<clipPath id="clip0_3157_42180">
<rect width="35.8067" height="35.8067" fill="white"/>
</clipPath>
</defs>
</svg>
