<svg width="119" height="24" viewBox="0 0 119 24" fill="none" xmlns="http://www.w3.org/2000/svg">
<path fillRule="evenodd" clipRule="evenodd" d="M24.1657 18.8571C25.9378 18.8571 27.5079 18.0168 28.4773 16.7238H33.7008C32.384 20.6174 28.6126 23.4286 24.1657 23.4286C18.6236 23.4286 14.1309 19.0623 14.1309 13.6762C14.1309 8.29011 18.6236 3.92383 24.1657 3.92383C29.7078 3.92383 34.2005 8.29011 34.2005 13.6762C34.2005 13.8809 34.194 14.0841 34.1812 14.2857H18.8712C19.1816 16.8598 21.4336 18.8571 24.1657 18.8571ZM19.1762 11.8476C19.9367 9.8886 21.8838 8.49525 24.1657 8.49525C26.4476 8.49525 28.3946 9.8886 29.1551 11.8476H19.1762Z" fill="#FBF8F7"/>
<path fillRule="evenodd" clipRule="evenodd" d="M56.7806 0.572266H52.0767V5.41314C50.5322 4.47005 48.7045 3.92464 46.7458 3.92464C41.2037 3.92464 36.7109 8.29093 36.7109 13.677C36.7109 19.0631 41.2037 23.4294 46.7458 23.4294C48.7045 23.4294 50.5322 22.884 52.0767 21.9409V23.4294H56.7806V0.572266ZM52.0767 13.677C52.0767 10.8157 49.69 8.49606 46.7458 8.49606C43.8015 8.49606 41.4148 10.8157 41.4148 13.677C41.4148 16.5384 43.8015 18.858 46.7458 18.858C49.69 18.858 52.0767 16.5384 52.0767 13.677Z" fill="#FBF8F7"/>
<path fillRule="evenodd" clipRule="evenodd" d="M98 0.572266H102.704V5.41314C104.248 4.47005 106.076 3.92464 108.035 3.92464C113.577 3.92464 118.07 8.29093 118.07 13.677C118.07 19.0631 113.577 23.4294 108.035 23.4294C106.076 23.4294 104.248 22.884 102.704 21.9409V23.4294H98V0.572266ZM102.704 13.677C102.704 16.5384 105.091 18.858 108.035 18.858C110.979 18.858 113.366 16.5384 113.366 13.677C113.366 10.8157 110.979 8.49606 108.035 8.49606C105.091 8.49606 102.704 10.8157 102.704 13.677Z" fill="#FBF8F7"/>
<path fillRule="evenodd" clipRule="evenodd" d="M85.0348 18.8591C87.979 18.8591 90.3658 16.5395 90.3658 13.6782C90.3658 10.8168 87.979 8.4972 85.0348 8.4972C82.0906 8.4972 79.7038 10.8168 79.7038 13.6782C79.7038 16.5395 82.0906 18.8591 85.0348 18.8591ZM85.0348 23.4305C90.5769 23.4305 95.0696 19.0642 95.0696 13.6782C95.0696 8.29207 90.5769 3.92578 85.0348 3.92578C79.4927 3.92578 75 8.29207 75 13.6782C75 19.0642 79.4927 23.4305 85.0348 23.4305Z" fill="#FBF8F7"/>
<path d="M5.0378 13.6762C5.0378 13.6762 5.0378 13.6762 5.0378 13.6762V23.4285H0.333984L0.333985 13.6762C0.333985 13.6762 0.333985 13.6762 0.333985 13.6762C0.333991 8.29011 4.82673 3.92383 10.3688 3.92383C10.7936 3.92383 11.2122 3.94948 11.6232 3.99928V8.63948C11.2209 8.5452 10.8008 8.49525 10.3688 8.49525C7.42457 8.49525 5.03781 10.8148 5.0378 13.6762Z" fill="#FBF8F7"/>
<path d="M65.7038 13.6781C65.7038 13.6781 65.7038 13.6781 65.7038 13.6781L65.7038 23.4305H61L61 13.6781C61 13.6781 61 13.6781 61 13.6781C61 8.29207 65.4927 3.92578 71.0348 3.92578C71.4596 3.92578 71.8782 3.95143 72.2892 4.00123V8.64143C71.8869 8.54715 71.4669 8.4972 71.0348 8.4972C68.0906 8.4972 65.7038 10.8168 65.7038 13.6781Z" fill="#FBF8F7"/>
</svg>
