<svg width="308" height="300" viewBox="0 0 308 300" fill="none" xmlns="http://www.w3.org/2000/svg">
<g clipPath="url(#clip0_4304_99976)">
<rect width="307" height="306" fill="#69A3CC"/>
<path d="M134.964 312.9L217.34 312.9C187.776 312.697 163.873 288.772 163.873 259.29C163.873 229.681 187.981 205.678 217.721 205.678L316.441 205.676L316.441 161L217.72 161C163.199 161 119 205.007 119 259.29C119 279.068 124.868 297.482 134.964 312.9Z" fill="#CCF88E"/>
<path d="M152.131 281.013H126.611L129.646 200.408L152.131 281.013Z" fill="#0C151D"/>
<path d="M112.397 281.258L282.549 281.258" stroke="#0C151D" strokeWidth="1.15319"/>
<path d="M129.478 199.064L151.712 280.221C151.85 280.722 152.305 281.069 152.824 281.069H266.659L244.025 198.455C243.887 197.954 243.432 197.606 242.912 197.606H130.59C129.829 197.606 129.276 198.33 129.478 199.064Z" fill="white" stroke="#0C151D" strokeWidth="1.29557"/>
<path d="M129.478 199.065L132.085 208.573C132.222 209.074 132.678 209.421 133.197 209.421H247.032L244.025 198.455C243.887 197.954 243.432 197.606 242.913 197.606H130.59C129.829 197.606 129.277 198.331 129.478 199.065Z" fill="#217BBB" stroke="#0C151D" strokeWidth="1.29557"/>
<path d="M129.459 200.274L126.791 281.069" stroke="#0C151D" strokeWidth="1.72743"/>
<path d="M178.489 232.99C178.246 232.148 178.878 231.307 179.755 231.307H195.63C196.217 231.307 196.733 231.695 196.896 232.26L201.52 248.289C201.763 249.131 201.131 249.972 200.254 249.972H184.379C183.792 249.972 183.276 249.583 183.113 249.019L178.489 232.99Z" fill="#F5F8FB" stroke="#0C151D" strokeWidth="1.15319"/>
<path d="M185.729 255.855C185.486 255.013 186.119 254.172 186.996 254.172H202.87C203.457 254.172 203.974 254.561 204.136 255.125L208.76 271.154C209.003 271.996 208.371 272.837 207.494 272.837H191.619C191.032 272.837 190.516 272.448 190.353 271.884L185.729 255.855Z" fill="#F5F8FB" stroke="#0C151D" strokeWidth="1.15319"/>
<path d="M201.806 232.97C201.576 232.173 202.174 231.378 203.003 231.378H218.878C219.433 231.378 219.922 231.746 220.076 232.279L224.699 248.308C224.929 249.105 224.331 249.9 223.502 249.9H207.627C207.072 249.9 206.583 249.533 206.429 248.999L201.806 232.97Z" fill="#CCF88E" stroke="#0C151D" strokeWidth="1.29557"/>
<path d="M208.978 255.855C208.735 255.013 209.368 254.172 210.245 254.172H226.119C226.706 254.172 227.223 254.561 227.385 255.125L232.009 271.154C232.252 271.996 231.62 272.837 230.743 272.837H214.868C214.281 272.837 213.765 272.448 213.602 271.884L208.978 255.855Z" fill="#F5F8FB" stroke="#0C151D" strokeWidth="1.15319"/>
<path d="M224.984 232.99C224.741 232.148 225.374 231.307 226.25 231.307H242.125C242.712 231.307 243.228 231.695 243.391 232.26L248.015 248.289C248.258 249.131 247.626 249.972 246.749 249.972H230.874C230.287 249.972 229.771 249.583 229.608 249.019L224.984 232.99Z" fill="#F5F8FB" stroke="#0C151D" strokeWidth="1.15319"/>
<path d="M209.251 240.257L212.814 243.306L217.635 237.208" stroke="#0C151D" strokeWidth="1.15319"/>
<path d="M232.541 255.863C232.311 255.066 232.909 254.271 233.739 254.271H249.613C250.169 254.271 250.657 254.638 250.811 255.172L255.435 271.201C255.665 271.998 255.067 272.793 254.237 272.793H238.362C237.807 272.793 237.319 272.426 237.165 271.892L232.541 255.863Z" fill="#CCF88E" stroke="#0C151D" strokeWidth="1.29557"/>
<path d="M239.985 263.149L243.549 266.198L248.37 260.101" stroke="#0C151D" strokeWidth="1.15319"/>
<mask id="path-17-inside-1_4304_99976" fill="white">
<rect x="52.4316" y="176" width="156.808" height="49.2743" rx="1.15319"/>
</mask>
<rect x="52.4316" y="176" width="156.808" height="49.2743" rx="1.15319" fill="white"/>
<rect x="52.4316" y="176" width="156.808" height="49.2743" rx="1.15319" stroke="#0C151D" strokeWidth="2.59114" mask="url(#path-17-inside-1_4304_99976)"/>
<circle cx="75.5547" cy="210.701" r="3.45956" fill="#69A3CC" stroke="#0C151D" strokeWidth="1.15319"/>
<path d="M66.7048 199.312C66.7048 195.272 69.9795 191.997 74.0191 191.997H77.0907C81.1302 191.997 84.4049 195.272 84.4049 199.312C84.4049 200.614 84.5057 201.914 84.7063 203.2L85.1049 205.756C85.4894 208.222 83.5828 210.448 81.0875 210.448H70.0223C67.527 210.448 65.6204 208.222 66.0049 205.756L66.4035 203.2C66.6041 201.914 66.7048 200.614 66.7048 199.312Z" fill="#F5F8FB" stroke="#0C151D" strokeWidth="1.15319"/>
<circle cx="67.4086" cy="194.88" r="4.61275" fill="#F97F6F"/>
<circle cx="75.5548" cy="189.421" r="2.30637" stroke="#0C151D" strokeWidth="1.15319"/>
<path d="M67.046 197.187V193.115L67.7003 193.747H66.2686V192.574H68.5749V197.187H67.046Z" fill="#0C151D"/>
<path d="M97.8493 192.91V185.655H100.834C101.477 185.655 102.026 185.759 102.482 185.966C102.945 186.173 103.301 186.47 103.55 186.857C103.799 187.244 103.923 187.704 103.923 188.236C103.923 188.768 103.799 189.227 103.55 189.614C103.301 190.001 102.945 190.298 102.482 190.506C102.026 190.713 101.477 190.817 100.834 190.817H98.5955L99.1967 190.184V192.91H97.8493ZM99.1967 190.329L98.5955 189.676H100.772C101.366 189.676 101.812 189.552 102.109 189.303C102.413 189.048 102.565 188.692 102.565 188.236C102.565 187.773 102.413 187.417 102.109 187.168C101.812 186.919 101.366 186.795 100.772 186.795H98.5955L99.1967 186.132V190.329ZM105.093 192.91V187.375H106.327V188.899L106.182 188.453C106.348 188.08 106.607 187.797 106.959 187.604C107.318 187.41 107.764 187.313 108.296 187.313V188.547C108.241 188.533 108.189 188.526 108.141 188.526C108.092 188.519 108.044 188.516 107.996 188.516C107.505 188.516 107.115 188.661 106.824 188.951C106.534 189.234 106.389 189.659 106.389 190.226V192.91H105.093ZM111.832 192.983C111.265 192.983 110.761 192.862 110.319 192.62C109.877 192.371 109.528 192.033 109.272 191.604C109.016 191.176 108.888 190.689 108.888 190.143C108.888 189.59 109.016 189.103 109.272 188.681C109.528 188.253 109.877 187.918 110.319 187.676C110.761 187.434 111.265 187.313 111.832 187.313C112.406 187.313 112.913 187.434 113.356 187.676C113.805 187.918 114.154 188.25 114.402 188.671C114.658 189.093 114.786 189.583 114.786 190.143C114.786 190.689 114.658 191.176 114.402 191.604C114.154 192.033 113.805 192.371 113.356 192.62C112.913 192.862 112.406 192.983 111.832 192.983ZM111.832 191.874C112.15 191.874 112.433 191.805 112.682 191.666C112.931 191.528 113.124 191.328 113.262 191.065C113.407 190.803 113.48 190.495 113.48 190.143C113.48 189.784 113.407 189.476 113.262 189.22C113.124 188.958 112.931 188.757 112.682 188.619C112.433 188.481 112.153 188.412 111.842 188.412C111.525 188.412 111.241 188.481 110.992 188.619C110.751 188.757 110.557 188.958 110.412 189.22C110.267 189.476 110.194 189.784 110.194 190.143C110.194 190.495 110.267 190.803 110.412 191.065C110.557 191.328 110.751 191.528 110.992 191.666C111.241 191.805 111.521 191.874 111.832 191.874ZM118.367 192.983C117.835 192.983 117.355 192.865 116.927 192.63C116.505 192.388 116.173 192.057 115.932 191.635C115.69 191.214 115.569 190.716 115.569 190.143C115.569 189.569 115.69 189.072 115.932 188.65C116.173 188.229 116.505 187.901 116.927 187.666C117.355 187.431 117.835 187.313 118.367 187.313C118.83 187.313 119.245 187.417 119.611 187.624C119.977 187.825 120.267 188.132 120.482 188.547C120.696 188.961 120.803 189.493 120.803 190.143C120.803 190.785 120.699 191.317 120.492 191.739C120.285 192.154 119.998 192.464 119.632 192.672C119.265 192.879 118.844 192.983 118.367 192.983ZM118.523 191.874C118.834 191.874 119.11 191.805 119.352 191.666C119.601 191.528 119.798 191.328 119.943 191.065C120.095 190.803 120.171 190.495 120.171 190.143C120.171 189.784 120.095 189.476 119.943 189.22C119.798 188.958 119.601 188.757 119.352 188.619C119.11 188.481 118.834 188.412 118.523 188.412C118.212 188.412 117.932 188.481 117.683 188.619C117.441 188.757 117.244 188.958 117.092 189.22C116.947 189.476 116.875 189.784 116.875 190.143C116.875 190.495 116.947 190.803 117.092 191.065C117.244 191.328 117.441 191.528 117.683 191.666C117.932 191.805 118.212 191.874 118.523 191.874ZM120.202 192.91V191.604L120.254 190.132L120.15 188.661V185.22H121.435V192.91H120.202ZM125.483 192.983C125.013 192.983 124.598 192.896 124.239 192.724C123.88 192.544 123.6 192.274 123.399 191.915C123.199 191.549 123.099 191.089 123.099 190.537V187.375H124.394V190.36C124.394 190.858 124.505 191.231 124.726 191.48C124.954 191.722 125.275 191.843 125.69 191.843C125.994 191.843 126.257 191.78 126.478 191.656C126.706 191.532 126.882 191.345 127.006 191.096C127.138 190.848 127.203 190.54 127.203 190.174V187.375H128.499V192.91H127.265V191.418L127.483 191.874C127.297 192.233 127.024 192.509 126.664 192.703C126.305 192.889 125.911 192.983 125.483 192.983ZM132.734 192.983C132.154 192.983 131.636 192.862 131.18 192.62C130.731 192.371 130.378 192.033 130.123 191.604C129.867 191.176 129.739 190.689 129.739 190.143C129.739 189.59 129.867 189.103 130.123 188.681C130.378 188.253 130.731 187.918 131.18 187.676C131.636 187.434 132.154 187.313 132.734 187.313C133.273 187.313 133.747 187.424 134.154 187.645C134.569 187.859 134.883 188.177 135.098 188.598L134.103 189.179C133.937 188.916 133.733 188.723 133.491 188.598C133.256 188.474 133 188.412 132.724 188.412C132.406 188.412 132.119 188.481 131.864 188.619C131.608 188.757 131.408 188.958 131.263 189.22C131.118 189.476 131.045 189.784 131.045 190.143C131.045 190.502 131.118 190.813 131.263 191.076C131.408 191.331 131.608 191.528 131.864 191.666C132.119 191.805 132.406 191.874 132.724 191.874C133 191.874 133.256 191.812 133.491 191.687C133.733 191.563 133.937 191.369 134.103 191.107L135.098 191.687C134.883 192.102 134.569 192.423 134.154 192.651C133.747 192.872 133.273 192.983 132.734 192.983ZM138.372 192.983C137.764 192.983 137.294 192.827 136.962 192.516C136.63 192.198 136.465 191.732 136.465 191.117V186.152H137.76V191.086C137.76 191.349 137.826 191.552 137.957 191.698C138.095 191.843 138.285 191.915 138.527 191.915C138.817 191.915 139.059 191.839 139.253 191.687L139.615 192.61C139.463 192.734 139.277 192.827 139.056 192.889C138.835 192.952 138.607 192.983 138.372 192.983ZM135.552 188.453V187.417H139.242V188.453H135.552ZM143.67 192.91V185.655H146.841C147.629 185.655 148.32 185.807 148.914 186.111C149.509 186.415 149.972 186.837 150.303 187.375C150.635 187.914 150.801 188.55 150.801 189.283C150.801 190.008 150.635 190.644 150.303 191.19C149.972 191.729 149.509 192.15 148.914 192.454C148.32 192.758 147.629 192.91 146.841 192.91H143.67ZM145.017 191.77H146.779C147.325 191.77 147.795 191.666 148.189 191.459C148.59 191.252 148.897 190.962 149.111 190.588C149.332 190.215 149.443 189.78 149.443 189.283C149.443 188.778 149.332 188.343 149.111 187.977C148.897 187.604 148.59 187.313 148.189 187.106C147.795 186.899 147.325 186.795 146.779 186.795H145.017V191.77ZM154.71 192.983C154.095 192.983 153.556 192.862 153.093 192.62C152.637 192.371 152.281 192.033 152.026 191.604C151.777 191.176 151.652 190.689 151.652 190.143C151.652 189.59 151.773 189.103 152.015 188.681C152.264 188.253 152.603 187.918 153.031 187.676C153.466 187.434 153.96 187.313 154.513 187.313C155.052 187.313 155.532 187.431 155.954 187.666C156.375 187.901 156.707 188.232 156.949 188.661C157.191 189.089 157.311 189.593 157.311 190.174C157.311 190.229 157.308 190.291 157.301 190.36C157.301 190.43 157.298 190.495 157.291 190.557H152.679V189.697H156.607L156.099 189.967C156.106 189.649 156.04 189.369 155.902 189.127C155.764 188.885 155.574 188.695 155.332 188.557C155.097 188.419 154.824 188.35 154.513 188.35C154.195 188.35 153.915 188.419 153.674 188.557C153.439 188.695 153.252 188.889 153.114 189.137C152.983 189.379 152.917 189.666 152.917 189.998V190.205C152.917 190.537 152.993 190.83 153.145 191.086C153.297 191.342 153.511 191.539 153.788 191.677C154.064 191.815 154.382 191.884 154.741 191.884C155.052 191.884 155.332 191.836 155.581 191.739C155.829 191.642 156.05 191.49 156.244 191.283L156.938 192.081C156.69 192.371 156.375 192.596 155.995 192.755C155.622 192.907 155.194 192.983 154.71 192.983ZM165.542 187.313C165.984 187.313 166.374 187.4 166.713 187.572C167.058 187.745 167.328 188.011 167.521 188.37C167.715 188.723 167.811 189.179 167.811 189.739V192.91H166.516V189.904C166.516 189.414 166.409 189.048 166.195 188.806C165.98 188.564 165.673 188.443 165.272 188.443C164.989 188.443 164.737 188.505 164.516 188.63C164.301 188.754 164.132 188.937 164.008 189.179C163.89 189.421 163.832 189.728 163.832 190.101V192.91H162.536V189.904C162.536 189.414 162.429 189.048 162.215 188.806C162 188.564 161.693 188.443 161.292 188.443C161.009 188.443 160.757 188.505 160.536 188.63C160.321 188.754 160.152 188.937 160.028 189.179C159.91 189.421 159.852 189.728 159.852 190.101V192.91H158.556V187.375H159.789V188.847L159.572 188.412C159.758 188.053 160.028 187.78 160.38 187.593C160.739 187.407 161.147 187.313 161.603 187.313C162.121 187.313 162.57 187.441 162.951 187.697C163.337 187.952 163.593 188.339 163.717 188.858L163.21 188.681C163.389 188.267 163.686 187.935 164.101 187.686C164.516 187.438 164.996 187.313 165.542 187.313ZM171.965 192.983C171.398 192.983 170.894 192.862 170.451 192.62C170.009 192.371 169.66 192.033 169.405 191.604C169.149 191.176 169.021 190.689 169.021 190.143C169.021 189.59 169.149 189.103 169.405 188.681C169.66 188.253 170.009 187.918 170.451 187.676C170.894 187.434 171.398 187.313 171.965 187.313C172.538 187.313 173.046 187.434 173.488 187.676C173.937 187.918 174.286 188.25 174.535 188.671C174.791 189.093 174.919 189.583 174.919 190.143C174.919 190.689 174.791 191.176 174.535 191.604C174.286 192.033 173.937 192.371 173.488 192.62C173.046 192.862 172.538 192.983 171.965 192.983ZM171.965 191.874C172.283 191.874 172.566 191.805 172.815 191.666C173.063 191.528 173.257 191.328 173.395 191.065C173.54 190.803 173.613 190.495 173.613 190.143C173.613 189.784 173.54 189.476 173.395 189.22C173.257 188.958 173.063 188.757 172.815 188.619C172.566 188.481 172.286 188.412 171.975 188.412C171.657 188.412 171.374 188.481 171.125 188.619C170.883 188.757 170.69 188.958 170.545 189.22C170.4 189.476 170.327 189.784 170.327 190.143C170.327 190.495 170.4 190.803 170.545 191.065C170.69 191.328 170.883 191.528 171.125 191.666C171.374 191.805 171.654 191.874 171.965 191.874ZM182.504 193.014C181.952 193.014 181.437 192.924 180.96 192.744C180.49 192.558 180.079 192.299 179.727 191.967C179.381 191.628 179.112 191.231 178.918 190.775C178.725 190.319 178.628 189.822 178.628 189.283C178.628 188.744 178.725 188.246 178.918 187.79C179.112 187.334 179.385 186.94 179.737 186.609C180.089 186.27 180.501 186.011 180.97 185.831C181.44 185.645 181.955 185.551 182.515 185.551C183.109 185.551 183.651 185.655 184.142 185.862C184.633 186.063 185.047 186.363 185.386 186.764L184.515 187.583C184.253 187.299 183.959 187.089 183.634 186.951C183.309 186.805 182.957 186.733 182.577 186.733C182.197 186.733 181.848 186.795 181.53 186.919C181.219 187.044 180.946 187.22 180.711 187.448C180.483 187.676 180.304 187.946 180.172 188.256C180.048 188.567 179.986 188.909 179.986 189.283C179.986 189.656 180.048 189.998 180.172 190.309C180.304 190.62 180.483 190.889 180.711 191.117C180.946 191.345 181.219 191.521 181.53 191.646C181.848 191.77 182.197 191.832 182.577 191.832C182.957 191.832 183.309 191.763 183.634 191.625C183.959 191.48 184.253 191.262 184.515 190.972L185.386 191.801C185.047 192.195 184.633 192.496 184.142 192.703C183.651 192.91 183.106 193.014 182.504 193.014ZM189.912 192.91V191.791L189.839 191.552V189.593C189.839 189.213 189.725 188.92 189.497 188.713C189.269 188.498 188.924 188.391 188.461 188.391C188.15 188.391 187.842 188.44 187.538 188.536C187.241 188.633 186.989 188.768 186.782 188.941L186.274 187.997C186.571 187.769 186.923 187.6 187.331 187.489C187.746 187.372 188.174 187.313 188.616 187.313C189.418 187.313 190.036 187.507 190.471 187.894C190.914 188.274 191.135 188.865 191.135 189.666V192.91H189.912ZM188.17 192.983C187.756 192.983 187.393 192.914 187.082 192.775C186.771 192.63 186.529 192.433 186.357 192.185C186.191 191.929 186.108 191.642 186.108 191.324C186.108 191.013 186.18 190.734 186.326 190.485C186.478 190.236 186.723 190.039 187.061 189.894C187.4 189.749 187.849 189.676 188.409 189.676H190.015V190.537H188.502C188.06 190.537 187.763 190.609 187.611 190.754C187.459 190.893 187.383 191.065 187.383 191.273C187.383 191.507 187.476 191.694 187.663 191.832C187.849 191.97 188.108 192.04 188.44 192.04C188.758 192.04 189.041 191.967 189.29 191.822C189.546 191.677 189.729 191.463 189.839 191.179L190.057 191.957C189.932 192.281 189.708 192.534 189.383 192.713C189.065 192.893 188.661 192.983 188.17 192.983ZM192.797 192.91V185.22H194.093V192.91H192.797ZM195.793 192.91V185.22H197.089V192.91H195.793Z" fill="#0C151D"/>
<path d="M97.2205 203.048V202.599L100.425 198.592H101.116L97.9374 202.599L97.6005 202.496H102.463V203.048H97.2205ZM100.632 204.638V203.048L100.649 202.496V201.096H101.254V204.638H100.632ZM103.551 201.001C103.425 201.001 103.315 200.955 103.223 200.863C103.137 200.771 103.094 200.659 103.094 200.526C103.094 200.388 103.137 200.276 103.223 200.19C103.315 200.103 103.425 200.06 103.551 200.06C103.678 200.06 103.785 200.103 103.871 200.19C103.963 200.276 104.009 200.388 104.009 200.526C104.009 200.659 103.963 200.771 103.871 200.863C103.785 200.955 103.678 201.001 103.551 201.001ZM103.551 204.681C103.425 204.681 103.315 204.635 103.223 204.543C103.137 204.451 103.094 204.338 103.094 204.206C103.094 204.068 103.137 203.955 103.223 203.869C103.315 203.783 103.425 203.739 103.551 203.739C103.678 203.739 103.785 203.783 103.871 203.869C103.963 203.955 104.009 204.068 104.009 204.206C104.009 204.338 103.963 204.451 103.871 204.543C103.785 204.635 103.678 204.681 103.551 204.681ZM107.325 204.69C106.859 204.69 106.444 204.569 106.081 204.327C105.719 204.079 105.434 203.728 105.226 203.273C105.019 202.812 104.915 202.26 104.915 201.615C104.915 200.97 105.019 200.42 105.226 199.965C105.434 199.504 105.719 199.153 106.081 198.911C106.444 198.664 106.859 198.54 107.325 198.54C107.792 198.54 108.206 198.664 108.569 198.911C108.932 199.153 109.217 199.504 109.424 199.965C109.637 200.42 109.744 200.97 109.744 201.615C109.744 202.26 109.637 202.812 109.424 203.273C109.217 203.728 108.932 204.079 108.569 204.327C108.206 204.569 107.792 204.69 107.325 204.69ZM107.325 204.119C107.682 204.119 107.993 204.024 108.258 203.834C108.523 203.639 108.73 203.357 108.88 202.988C109.03 202.614 109.104 202.156 109.104 201.615C109.104 201.073 109.03 200.619 108.88 200.25C108.73 199.876 108.523 199.594 108.258 199.404C107.993 199.208 107.682 199.11 107.325 199.11C106.98 199.11 106.672 199.208 106.401 199.404C106.13 199.594 105.92 199.876 105.77 200.25C105.621 200.619 105.546 201.073 105.546 201.615C105.546 202.156 105.621 202.614 105.77 202.988C105.92 203.357 106.13 203.639 106.401 203.834C106.672 204.024 106.98 204.119 107.325 204.119ZM113.044 204.69C112.577 204.69 112.163 204.569 111.8 204.327C111.437 204.079 111.152 203.728 110.945 203.273C110.738 202.812 110.634 202.26 110.634 201.615C110.634 200.97 110.738 200.42 110.945 199.965C111.152 199.504 111.437 199.153 111.8 198.911C112.163 198.664 112.577 198.54 113.044 198.54C113.51 198.54 113.925 198.664 114.288 198.911C114.65 199.153 114.935 199.504 115.143 199.965C115.356 200.42 115.462 200.97 115.462 201.615C115.462 202.26 115.356 202.812 115.143 203.273C114.935 203.728 114.65 204.079 114.288 204.327C113.925 204.569 113.51 204.69 113.044 204.69ZM113.044 204.119C113.401 204.119 113.712 204.024 113.977 203.834C114.242 203.639 114.449 203.357 114.599 202.988C114.748 202.614 114.823 202.156 114.823 201.615C114.823 201.073 114.748 200.619 114.599 200.25C114.449 199.876 114.242 199.594 113.977 199.404C113.712 199.208 113.401 199.11 113.044 199.11C112.698 199.11 112.39 199.208 112.12 199.404C111.849 199.594 111.639 199.876 111.489 200.25C111.339 200.619 111.265 201.073 111.265 201.615C111.265 202.156 111.339 202.614 111.489 202.988C111.639 203.357 111.849 203.639 112.12 203.834C112.39 204.024 112.698 204.119 113.044 204.119ZM119.099 204.681C118.708 204.681 118.354 204.592 118.037 204.413C117.72 204.229 117.467 203.967 117.277 203.627C117.093 203.282 117.001 202.861 117.001 202.366C117.001 201.871 117.093 201.453 117.277 201.114C117.461 200.768 117.712 200.506 118.028 200.328C118.345 200.149 118.702 200.06 119.099 200.06C119.531 200.06 119.917 200.158 120.257 200.354C120.602 200.544 120.873 200.814 121.069 201.166C121.264 201.511 121.362 201.911 121.362 202.366C121.362 202.827 121.264 203.23 121.069 203.575C120.873 203.921 120.602 204.191 120.257 204.387C119.917 204.583 119.531 204.681 119.099 204.681ZM116.759 206.313V200.103H117.346V201.468L117.286 202.375L117.372 203.29V206.313H116.759ZM119.056 204.137C119.379 204.137 119.667 204.065 119.92 203.921C120.173 203.771 120.375 203.564 120.525 203.299C120.674 203.028 120.749 202.717 120.749 202.366C120.749 202.015 120.674 201.707 120.525 201.442C120.375 201.177 120.173 200.97 119.92 200.82C119.667 200.67 119.379 200.596 119.056 200.596C118.734 200.596 118.443 200.67 118.184 200.82C117.931 200.97 117.729 201.177 117.579 201.442C117.435 201.707 117.363 202.015 117.363 202.366C117.363 202.717 117.435 203.028 117.579 203.299C117.729 203.564 117.931 203.771 118.184 203.921C118.443 204.065 118.734 204.137 119.056 204.137ZM128.278 200.06C128.647 200.06 128.966 200.132 129.237 200.276C129.514 200.414 129.727 200.627 129.876 200.915C130.032 201.203 130.109 201.566 130.109 202.003V204.638H129.496V202.064C129.496 201.586 129.381 201.226 129.151 200.984C128.926 200.737 128.607 200.613 128.192 200.613C127.881 200.613 127.61 200.679 127.38 200.811C127.156 200.938 126.98 201.125 126.853 201.373C126.732 201.615 126.672 201.908 126.672 202.254V204.638H126.059V202.064C126.059 201.586 125.943 201.226 125.713 200.984C125.483 200.737 125.16 200.613 124.746 200.613C124.441 200.613 124.173 200.679 123.943 200.811C123.712 200.938 123.534 201.125 123.407 201.373C123.286 201.615 123.226 201.908 123.226 202.254V204.638H122.612V200.103H123.2V201.33L123.105 201.114C123.243 200.786 123.465 200.529 123.77 200.345C124.081 200.155 124.446 200.06 124.867 200.06C125.31 200.06 125.687 200.172 125.998 200.397C126.309 200.616 126.511 200.947 126.603 201.39L126.361 201.295C126.493 200.927 126.727 200.63 127.061 200.406C127.4 200.175 127.806 200.06 128.278 200.06ZM133.696 202.565V202.029H135.959V202.565H133.696ZM141.094 204.69C140.662 204.69 140.251 204.62 139.859 204.482C139.468 204.338 139.157 204.148 138.926 203.912L139.229 203.42C139.419 203.621 139.678 203.788 140.006 203.921C140.34 204.053 140.7 204.119 141.086 204.119C141.598 204.119 141.987 204.007 142.252 203.783C142.522 203.552 142.658 203.253 142.658 202.884C142.658 202.625 142.594 202.404 142.468 202.219C142.347 202.029 142.139 201.882 141.846 201.779C141.552 201.675 141.149 201.623 140.637 201.623H139.35L139.661 198.592H142.969V199.144H139.911L140.231 198.842L139.963 201.381L139.643 201.071H140.775C141.385 201.071 141.875 201.145 142.243 201.295C142.612 201.445 142.876 201.655 143.038 201.926C143.205 202.191 143.288 202.501 143.288 202.858C143.288 203.198 143.208 203.509 143.046 203.791C142.885 204.068 142.643 204.286 142.321 204.448C141.998 204.609 141.59 204.69 141.094 204.69ZM144.544 201.001C144.417 201.001 144.308 200.955 144.216 200.863C144.129 200.771 144.086 200.659 144.086 200.526C144.086 200.388 144.129 200.276 144.216 200.19C144.308 200.103 144.417 200.06 144.544 200.06C144.671 200.06 144.777 200.103 144.864 200.19C144.956 200.276 145.002 200.388 145.002 200.526C145.002 200.659 144.956 200.771 144.864 200.863C144.777 200.955 144.671 201.001 144.544 201.001ZM144.544 204.681C144.417 204.681 144.308 204.635 144.216 204.543C144.129 204.451 144.086 204.338 144.086 204.206C144.086 204.068 144.129 203.955 144.216 203.869C144.308 203.783 144.417 203.739 144.544 203.739C144.671 203.739 144.777 203.783 144.864 203.869C144.956 203.955 145.002 204.068 145.002 204.206C145.002 204.338 144.956 204.451 144.864 204.543C144.777 204.635 144.671 204.681 144.544 204.681ZM148.318 204.69C147.851 204.69 147.437 204.569 147.074 204.327C146.711 204.079 146.426 203.728 146.219 203.273C146.012 202.812 145.908 202.26 145.908 201.615C145.908 200.97 146.012 200.42 146.219 199.965C146.426 199.504 146.711 199.153 147.074 198.911C147.437 198.664 147.851 198.54 148.318 198.54C148.784 198.54 149.199 198.664 149.561 198.911C149.924 199.153 150.209 199.504 150.417 199.965C150.63 200.42 150.736 200.97 150.736 201.615C150.736 202.26 150.63 202.812 150.417 203.273C150.209 203.728 149.924 204.079 149.561 204.327C149.199 204.569 148.784 204.69 148.318 204.69ZM148.318 204.119C148.675 204.119 148.986 204.024 149.251 203.834C149.515 203.639 149.723 203.357 149.872 202.988C150.022 202.614 150.097 202.156 150.097 201.615C150.097 201.073 150.022 200.619 149.872 200.25C149.723 199.876 149.515 199.594 149.251 199.404C148.986 199.208 148.675 199.11 148.318 199.11C147.972 199.11 147.664 199.208 147.394 199.404C147.123 199.594 146.913 199.876 146.763 200.25C146.613 200.619 146.538 201.073 146.538 201.615C146.538 202.156 146.613 202.614 146.763 202.988C146.913 203.357 147.123 203.639 147.394 203.834C147.664 204.024 147.972 204.119 148.318 204.119ZM154.036 204.69C153.57 204.69 153.155 204.569 152.793 204.327C152.43 204.079 152.145 203.728 151.938 203.273C151.73 202.812 151.627 202.26 151.627 201.615C151.627 200.97 151.73 200.42 151.938 199.965C152.145 199.504 152.43 199.153 152.793 198.911C153.155 198.664 153.57 198.54 154.036 198.54C154.503 198.54 154.917 198.664 155.28 198.911C155.643 199.153 155.928 199.504 156.135 199.965C156.348 200.42 156.455 200.97 156.455 201.615C156.455 202.26 156.348 202.812 156.135 203.273C155.928 203.728 155.643 204.079 155.28 204.327C154.917 204.569 154.503 204.69 154.036 204.69ZM154.036 204.119C154.393 204.119 154.704 204.024 154.969 203.834C155.234 203.639 155.441 203.357 155.591 202.988C155.741 202.614 155.816 202.156 155.816 201.615C155.816 201.073 155.741 200.619 155.591 200.25C155.441 199.876 155.234 199.594 154.969 199.404C154.704 199.208 154.393 199.11 154.036 199.11C153.691 199.11 153.383 199.208 153.112 199.404C152.842 199.594 152.632 199.876 152.482 200.25C152.332 200.619 152.257 201.073 152.257 201.615C152.257 202.156 152.332 202.614 152.482 202.988C152.632 203.357 152.842 203.639 153.112 203.834C153.383 204.024 153.691 204.119 154.036 204.119ZM160.092 204.681C159.7 204.681 159.346 204.592 159.03 204.413C158.713 204.229 158.46 203.967 158.27 203.627C158.085 203.282 157.993 202.861 157.993 202.366C157.993 201.871 158.085 201.453 158.27 201.114C158.454 200.768 158.704 200.506 159.021 200.328C159.338 200.149 159.695 200.06 160.092 200.06C160.524 200.06 160.91 200.158 161.249 200.354C161.595 200.544 161.866 200.814 162.061 201.166C162.257 201.511 162.355 201.911 162.355 202.366C162.355 202.827 162.257 203.23 162.061 203.575C161.866 203.921 161.595 204.191 161.249 204.387C160.91 204.583 160.524 204.681 160.092 204.681ZM157.751 206.313V200.103H158.339V201.468L158.278 202.375L158.365 203.29V206.313H157.751ZM160.049 204.137C160.371 204.137 160.659 204.065 160.913 203.921C161.166 203.771 161.367 203.564 161.517 203.299C161.667 203.028 161.742 202.717 161.742 202.366C161.742 202.015 161.667 201.707 161.517 201.442C161.367 201.177 161.166 200.97 160.913 200.82C160.659 200.67 160.371 200.596 160.049 200.596C159.726 200.596 159.436 200.67 159.177 200.82C158.923 200.97 158.722 201.177 158.572 201.442C158.428 201.707 158.356 202.015 158.356 202.366C158.356 202.717 158.428 203.028 158.572 203.299C158.722 203.564 158.923 203.771 159.177 203.921C159.436 204.065 159.726 204.137 160.049 204.137ZM169.271 200.06C169.64 200.06 169.959 200.132 170.23 200.276C170.506 200.414 170.719 200.627 170.869 200.915C171.024 201.203 171.102 201.566 171.102 202.003V204.638H170.489V202.064C170.489 201.586 170.374 201.226 170.143 200.984C169.919 200.737 169.599 200.613 169.185 200.613C168.874 200.613 168.603 200.679 168.373 200.811C168.148 200.938 167.973 201.125 167.846 201.373C167.725 201.615 167.665 201.908 167.665 202.254V204.638H167.051V202.064C167.051 201.586 166.936 201.226 166.706 200.984C166.475 200.737 166.153 200.613 165.738 200.613C165.433 200.613 165.166 200.679 164.935 200.811C164.705 200.938 164.526 201.125 164.4 201.373C164.279 201.615 164.218 201.908 164.218 202.254V204.638H163.605V200.103H164.192V201.33L164.097 201.114C164.236 200.786 164.457 200.529 164.762 200.345C165.073 200.155 165.439 200.06 165.859 200.06C166.303 200.06 166.68 200.172 166.991 200.397C167.302 200.616 167.503 200.947 167.595 201.39L167.354 201.295C167.486 200.927 167.719 200.63 168.053 200.406C168.393 200.175 168.799 200.06 169.271 200.06Z" fill="#565B61"/>
<path d="M101.332 218.11C100.733 218.11 100.186 218.012 99.6907 217.816C99.1955 217.62 98.7694 217.347 98.4124 216.996C98.0554 216.645 97.779 216.23 97.5832 215.752C97.3875 215.268 97.2896 214.741 97.2896 214.171C97.2896 213.601 97.3875 213.077 97.5832 212.599C97.779 212.122 98.0554 211.707 98.4124 211.356C98.7752 211.004 99.207 210.734 99.708 210.544C100.209 210.354 100.762 210.259 101.366 210.259C101.959 210.259 102.501 210.351 102.99 210.535C103.48 210.719 103.903 210.981 104.26 211.321C104.623 211.655 104.902 212.055 105.098 212.522C105.293 212.982 105.391 213.492 105.391 214.05C105.391 214.54 105.331 214.96 105.21 215.312C105.089 215.663 104.913 215.936 104.683 216.132C104.458 216.322 104.182 216.417 103.854 216.417C103.531 216.417 103.272 216.319 103.076 216.123C102.886 215.928 102.791 215.648 102.791 215.286V214.698L102.835 214.171L102.757 213.178V212.029H103.508V215.139C103.508 215.369 103.554 215.53 103.647 215.622C103.744 215.715 103.862 215.761 104.001 215.761C104.168 215.761 104.312 215.694 104.432 215.562C104.559 215.43 104.651 215.237 104.709 214.983C104.772 214.724 104.804 214.416 104.804 214.059C104.804 213.575 104.72 213.138 104.553 212.746C104.392 212.349 104.156 212.006 103.845 211.718C103.54 211.431 103.177 211.212 102.757 211.062C102.342 210.907 101.879 210.829 101.366 210.829C100.854 210.829 100.385 210.912 99.9585 211.079C99.5381 211.241 99.1754 211.471 98.8702 211.77C98.565 212.064 98.3289 212.415 98.1619 212.824C98.0007 213.233 97.9201 213.682 97.9201 214.171C97.9201 214.667 98.0007 215.121 98.1619 215.536C98.3232 215.945 98.5535 216.296 98.8529 216.59C99.1581 216.889 99.518 217.12 99.9325 217.281C100.353 217.448 100.819 217.531 101.332 217.531C101.597 217.531 101.876 217.5 102.17 217.436C102.463 217.379 102.74 217.284 102.999 217.151L103.189 217.704C102.924 217.836 102.624 217.937 102.29 218.006C101.957 218.075 101.637 218.11 101.332 218.11ZM101.176 216.417C100.767 216.417 100.405 216.322 100.088 216.132C99.7713 215.936 99.5208 215.671 99.3366 215.337C99.1523 215.003 99.0602 214.623 99.0602 214.197C99.0602 213.765 99.1523 213.385 99.3366 213.057C99.5208 212.723 99.7713 212.464 100.088 212.28C100.405 212.09 100.767 211.995 101.176 211.995C101.574 211.995 101.922 212.081 102.221 212.254C102.521 212.421 102.754 212.669 102.921 212.997C103.094 213.325 103.18 213.725 103.18 214.197C103.18 214.669 103.097 215.07 102.93 215.398C102.763 215.726 102.529 215.979 102.23 216.158C101.931 216.331 101.579 216.417 101.176 216.417ZM101.297 215.743C101.579 215.743 101.83 215.683 102.049 215.562C102.273 215.435 102.449 215.257 102.576 215.026C102.708 214.79 102.774 214.514 102.774 214.197C102.774 213.875 102.708 213.598 102.576 213.368C102.449 213.138 102.273 212.962 102.049 212.841C101.83 212.72 101.579 212.66 101.297 212.66C101.009 212.66 100.753 212.723 100.529 212.85C100.31 212.971 100.137 213.146 100.01 213.377C99.8894 213.607 99.8289 213.881 99.8289 214.197C99.8289 214.508 99.8894 214.779 100.01 215.009C100.137 215.24 100.31 215.421 100.529 215.553C100.753 215.68 101.009 215.743 101.297 215.743ZM109.444 216.434C108.977 216.434 108.548 216.359 108.157 216.21C107.765 216.054 107.425 215.838 107.137 215.562C106.85 215.28 106.625 214.952 106.464 214.577C106.303 214.203 106.222 213.791 106.222 213.342C106.222 212.893 106.303 212.481 106.464 212.107C106.625 211.733 106.85 211.408 107.137 211.131C107.431 210.849 107.774 210.633 108.165 210.483C108.557 210.328 108.989 210.25 109.461 210.25C109.939 210.25 110.376 210.328 110.774 210.483C111.171 210.639 111.508 210.872 111.784 211.183L111.249 211.718C111.001 211.477 110.731 211.301 110.437 211.192C110.149 211.076 109.835 211.019 109.495 211.019C109.15 211.019 108.827 211.076 108.528 211.192C108.234 211.307 107.978 211.468 107.759 211.675C107.546 211.883 107.379 212.13 107.258 212.418C107.143 212.7 107.086 213.008 107.086 213.342C107.086 213.67 107.143 213.979 107.258 214.266C107.379 214.549 107.546 214.796 107.759 215.009C107.978 215.216 108.234 215.378 108.528 215.493C108.822 215.608 109.141 215.666 109.487 215.666C109.809 215.666 110.117 215.617 110.411 215.519C110.71 215.415 110.987 215.245 111.24 215.009L111.732 215.666C111.433 215.919 111.082 216.112 110.679 216.244C110.281 216.371 109.87 216.434 109.444 216.434ZM110.903 215.553V213.308H111.732V215.666L110.903 215.553ZM115.226 216.417C114.765 216.417 114.356 216.316 113.999 216.115C113.642 215.913 113.36 215.637 113.153 215.286C112.946 214.929 112.842 214.526 112.842 214.076C112.842 213.622 112.946 213.218 113.153 212.867C113.36 212.516 113.642 212.242 113.999 212.047C114.356 211.845 114.765 211.744 115.226 211.744C115.681 211.744 116.087 211.845 116.444 212.047C116.806 212.242 117.089 212.516 117.29 212.867C117.497 213.213 117.601 213.616 117.601 214.076C117.601 214.531 117.497 214.934 117.29 215.286C117.089 215.637 116.806 215.913 116.444 216.115C116.087 216.316 115.681 216.417 115.226 216.417ZM115.226 215.692C115.519 215.692 115.781 215.625 116.012 215.493C116.248 215.36 116.432 215.173 116.565 214.931C116.697 214.684 116.763 214.399 116.763 214.076C116.763 213.748 116.697 213.466 116.565 213.23C116.432 212.988 116.248 212.801 116.012 212.669C115.781 212.536 115.519 212.47 115.226 212.47C114.932 212.47 114.67 212.536 114.44 212.669C114.209 212.801 114.025 212.988 113.887 213.23C113.749 213.466 113.68 213.748 113.68 214.076C113.68 214.399 113.749 214.684 113.887 214.931C114.025 215.173 114.209 215.36 114.44 215.493C114.67 215.625 114.932 215.692 115.226 215.692ZM120.708 216.417C120.248 216.417 119.839 216.316 119.482 216.115C119.125 215.913 118.843 215.637 118.635 215.286C118.428 214.929 118.325 214.526 118.325 214.076C118.325 213.622 118.428 213.218 118.635 212.867C118.843 212.516 119.125 212.242 119.482 212.047C119.839 211.845 120.248 211.744 120.708 211.744C121.163 211.744 121.569 211.845 121.926 212.047C122.289 212.242 122.571 212.516 122.773 212.867C122.98 213.213 123.084 213.616 123.084 214.076C123.084 214.531 122.98 214.934 122.773 215.286C122.571 215.637 122.289 215.913 121.926 216.115C121.569 216.316 121.163 216.417 120.708 216.417ZM120.708 215.692C121.002 215.692 121.264 215.625 121.494 215.493C121.73 215.36 121.915 215.173 122.047 214.931C122.18 214.684 122.246 214.399 122.246 214.076C122.246 213.748 122.18 213.466 122.047 213.23C121.915 212.988 121.73 212.801 121.494 212.669C121.264 212.536 121.002 212.47 120.708 212.47C120.415 212.47 120.153 212.536 119.922 212.669C119.692 212.801 119.508 212.988 119.37 213.23C119.231 213.466 119.162 213.748 119.162 214.076C119.162 214.399 119.231 214.684 119.37 214.931C119.508 215.173 119.692 215.36 119.922 215.493C120.153 215.625 120.415 215.692 120.708 215.692ZM126.234 218.093C125.814 218.093 125.405 218.032 125.008 217.911C124.616 217.796 124.296 217.629 124.049 217.41L124.446 216.771C124.659 216.955 124.921 217.099 125.232 217.203C125.543 217.312 125.868 217.367 126.208 217.367C126.749 217.367 127.147 217.24 127.4 216.987C127.653 216.734 127.78 216.348 127.78 215.83V214.862L127.867 213.955L127.823 213.04V211.788H128.609V215.743C128.609 216.549 128.408 217.143 128.005 217.523C127.602 217.903 127.011 218.093 126.234 218.093ZM126.13 216.175C125.687 216.175 125.29 216.083 124.939 215.899C124.593 215.709 124.317 215.447 124.109 215.113C123.908 214.779 123.807 214.393 123.807 213.955C123.807 213.512 123.908 213.126 124.109 212.798C124.317 212.464 124.593 212.205 124.939 212.021C125.29 211.836 125.687 211.744 126.13 211.744C126.522 211.744 126.879 211.825 127.201 211.986C127.524 212.142 127.78 212.384 127.97 212.712C128.166 213.04 128.264 213.455 128.264 213.955C128.264 214.451 128.166 214.862 127.97 215.191C127.78 215.519 127.524 215.766 127.201 215.933C126.879 216.095 126.522 216.175 126.13 216.175ZM126.225 215.45C126.531 215.45 126.801 215.386 127.037 215.26C127.273 215.133 127.458 214.957 127.59 214.733C127.728 214.508 127.797 214.249 127.797 213.955C127.797 213.662 127.728 213.403 127.59 213.178C127.458 212.954 127.273 212.781 127.037 212.66C126.801 212.533 126.531 212.47 126.225 212.47C125.92 212.47 125.647 212.533 125.405 212.66C125.169 212.781 124.982 212.954 124.844 213.178C124.711 213.403 124.645 213.662 124.645 213.955C124.645 214.249 124.711 214.508 124.844 214.733C124.982 214.957 125.169 215.133 125.405 215.26C125.647 215.386 125.92 215.45 126.225 215.45ZM130.194 216.365V209.956H131.023V216.365H130.194ZM134.644 216.417C134.155 216.417 133.723 216.316 133.349 216.115C132.98 215.913 132.692 215.637 132.485 215.286C132.283 214.934 132.183 214.531 132.183 214.076C132.183 213.622 132.281 213.218 132.476 212.867C132.678 212.516 132.951 212.242 133.297 212.047C133.648 211.845 134.043 211.744 134.48 211.744C134.924 211.744 135.315 211.842 135.655 212.038C135.995 212.234 136.259 212.51 136.449 212.867C136.645 213.218 136.743 213.63 136.743 214.102C136.743 214.137 136.74 214.177 136.734 214.223C136.734 214.269 136.732 214.312 136.726 214.353H132.83V213.757H136.294L135.957 213.964C135.963 213.67 135.902 213.408 135.776 213.178C135.649 212.948 135.473 212.769 135.249 212.643C135.03 212.51 134.774 212.444 134.48 212.444C134.192 212.444 133.936 212.51 133.711 212.643C133.487 212.769 133.311 212.951 133.185 213.187C133.058 213.417 132.995 213.682 132.995 213.981V214.12C132.995 214.425 133.064 214.698 133.202 214.94C133.346 215.176 133.545 215.36 133.798 215.493C134.051 215.625 134.342 215.692 134.67 215.692C134.941 215.692 135.186 215.645 135.404 215.553C135.629 215.461 135.825 215.323 135.992 215.139L136.449 215.674C136.242 215.916 135.983 216.1 135.672 216.227C135.367 216.354 135.024 216.417 134.644 216.417ZM140.335 216.365V210.319H141.043L143.755 214.888H143.375L146.053 210.319H146.761L146.77 216.365H145.94L145.932 211.623H146.13L143.747 215.631H143.349L140.948 211.623H141.164V216.365H140.335ZM150.502 216.417C150.012 216.417 149.58 216.316 149.206 216.115C148.837 215.913 148.55 215.637 148.342 215.286C148.141 214.934 148.04 214.531 148.04 214.076C148.04 213.622 148.138 213.218 148.334 212.867C148.535 212.516 148.809 212.242 149.154 212.047C149.505 211.845 149.9 211.744 150.337 211.744C150.781 211.744 151.172 211.842 151.512 212.038C151.852 212.234 152.117 212.51 152.307 212.867C152.502 213.218 152.6 213.63 152.6 214.102C152.6 214.137 152.597 214.177 152.592 214.223C152.592 214.269 152.589 214.312 152.583 214.353H148.688V213.757H152.151L151.814 213.964C151.82 213.67 151.76 213.408 151.633 213.178C151.506 212.948 151.331 212.769 151.106 212.643C150.887 212.51 150.631 212.444 150.337 212.444C150.05 212.444 149.793 212.51 149.569 212.643C149.344 212.769 149.169 212.951 149.042 213.187C148.915 213.417 148.852 213.682 148.852 213.981V214.12C148.852 214.425 148.921 214.698 149.059 214.94C149.203 215.176 149.402 215.36 149.655 215.493C149.908 215.625 150.199 215.692 150.527 215.692C150.798 215.692 151.043 215.645 151.262 215.553C151.486 215.461 151.682 215.323 151.849 215.139L152.307 215.674C152.099 215.916 151.84 216.1 151.529 216.227C151.224 216.354 150.882 216.417 150.502 216.417ZM155.79 216.417C155.301 216.417 154.869 216.316 154.495 216.115C154.126 215.913 153.838 215.637 153.631 215.286C153.429 214.934 153.328 214.531 153.328 214.076C153.328 213.622 153.426 213.218 153.622 212.867C153.824 212.516 154.097 212.242 154.443 212.047C154.794 211.845 155.188 211.744 155.626 211.744C156.069 211.744 156.461 211.842 156.801 212.038C157.14 212.234 157.405 212.51 157.595 212.867C157.791 213.218 157.889 213.63 157.889 214.102C157.889 214.137 157.886 214.177 157.88 214.223C157.88 214.269 157.877 214.312 157.872 214.353H153.976V213.757H157.44L157.103 213.964C157.109 213.67 157.048 213.408 156.922 213.178C156.795 212.948 156.619 212.769 156.395 212.643C156.176 212.51 155.92 212.444 155.626 212.444C155.338 212.444 155.082 212.51 154.857 212.643C154.633 212.769 154.457 212.951 154.33 213.187C154.204 213.417 154.14 213.682 154.14 213.981V214.12C154.14 214.425 154.209 214.698 154.348 214.94C154.492 215.176 154.69 215.36 154.944 215.493C155.197 215.625 155.488 215.692 155.816 215.692C156.087 215.692 156.331 215.645 156.55 215.553C156.775 215.461 156.97 215.323 157.137 215.139L157.595 215.674C157.388 215.916 157.129 216.1 156.818 216.227C156.513 216.354 156.17 216.417 155.79 216.417ZM160.612 216.417C160.152 216.417 159.795 216.293 159.541 216.046C159.288 215.798 159.161 215.444 159.161 214.983V210.786H159.99V214.949C159.99 215.196 160.051 215.386 160.172 215.519C160.298 215.651 160.477 215.717 160.707 215.717C160.966 215.717 161.182 215.645 161.355 215.502L161.614 216.097C161.487 216.207 161.335 216.288 161.156 216.339C160.984 216.391 160.802 216.417 160.612 216.417ZM158.384 212.47V211.788H161.303V212.47H158.384Z" fill="#0C151D"/>
<path d="M34.008 65.192V61.502H36.672V66.614C35.286 67.658 33.378 68.216 31.578 68.216C27.618 68.216 24.702 65.498 24.702 61.7C24.702 57.902 27.618 55.184 31.632 55.184C33.846 55.184 35.682 55.94 36.906 57.362L35.034 59.09C34.116 58.118 33.054 57.668 31.776 57.668C29.328 57.668 27.654 59.306 27.654 61.7C27.654 64.058 29.328 65.732 31.74 65.732C32.532 65.732 33.27 65.588 34.008 65.192ZM46.1307 58.316H48.9387V68H46.2747V66.848C45.5367 67.694 44.4567 68.144 43.2687 68.144C40.8387 68.144 39.1287 66.776 39.1287 63.788V58.316H41.9367V63.374C41.9367 64.994 42.6567 65.714 43.8987 65.714C45.1947 65.714 46.1307 64.886 46.1307 63.104V58.316ZM55.4461 58.172C58.3981 58.172 60.1081 59.54 60.1081 62.474V68H57.4801V66.794C56.9581 67.676 55.9501 68.144 54.5281 68.144C52.2601 68.144 50.9101 66.884 50.9101 65.21C50.9101 63.5 52.1161 62.312 55.0681 62.312H57.3001C57.3001 61.106 56.5801 60.404 55.0681 60.404C54.0421 60.404 52.9801 60.746 52.2781 61.304L51.2701 59.342C52.3321 58.586 53.8981 58.172 55.4461 58.172ZM55.2301 66.254C56.1661 66.254 56.9761 65.822 57.3001 64.94V63.95H55.3741C54.0601 63.95 53.6461 64.436 53.6461 65.084C53.6461 65.786 54.2401 66.254 55.2301 66.254ZM65.3315 59.594C66.0155 58.658 67.1675 58.172 68.6615 58.172V60.764C68.4275 60.746 68.2475 60.728 68.0315 60.728C66.4835 60.728 65.4575 61.574 65.4575 63.428V68H62.6495V58.316H65.3315V59.594ZM74.1844 58.172C77.1364 58.172 78.8464 59.54 78.8464 62.474V68H76.2184V66.794C75.6964 67.676 74.6884 68.144 73.2664 68.144C70.9984 68.144 69.6484 66.884 69.6484 65.21C69.6484 63.5 70.8544 62.312 73.8064 62.312H76.0384C76.0384 61.106 75.3184 60.404 73.8064 60.404C72.7804 60.404 71.7184 60.746 71.0164 61.304L70.0084 59.342C71.0704 58.586 72.6364 58.172 74.1844 58.172ZM73.9684 66.254C74.9044 66.254 75.7144 65.822 76.0384 64.94V63.95H74.1124C72.7984 63.95 72.3844 64.436 72.3844 65.084C72.3844 65.786 72.9784 66.254 73.9684 66.254ZM87.2738 58.172C89.5598 58.172 91.2878 59.504 91.2878 62.456V68H88.4798V62.888C88.4798 61.322 87.7598 60.602 86.5178 60.602C85.1678 60.602 84.1958 61.43 84.1958 63.212V68H81.3878V58.316H84.0698V59.45C84.8258 58.622 85.9598 58.172 87.2738 58.172ZM99.3231 65.552L100.079 67.532C99.5031 67.946 98.6571 68.144 97.7931 68.144C95.5071 68.144 94.1751 66.974 94.1751 64.67V60.692H92.6811V58.532H94.1751V56.174H96.9831V58.532H99.3951V60.692H96.9831V64.634C96.9831 65.462 97.4331 65.912 98.1891 65.912C98.6031 65.912 99.0171 65.786 99.3231 65.552ZM110.843 63.194C110.843 63.41 110.807 63.716 110.789 63.95H103.463C103.733 65.156 104.759 65.894 106.235 65.894C107.261 65.894 107.999 65.588 108.665 64.958L110.159 66.578C109.259 67.604 107.909 68.144 106.163 68.144C102.815 68.144 100.637 66.038 100.637 63.158C100.637 60.26 102.851 58.172 105.803 58.172C108.647 58.172 110.843 60.08 110.843 63.194ZM105.821 60.296C104.543 60.296 103.625 61.07 103.427 62.312H108.197C107.999 61.088 107.081 60.296 105.821 60.296ZM122.198 63.194C122.198 63.41 122.162 63.716 122.144 63.95H114.818C115.088 65.156 116.114 65.894 117.59 65.894C118.616 65.894 119.354 65.588 120.02 64.958L121.514 66.578C120.614 67.604 119.264 68.144 117.518 68.144C114.17 68.144 111.992 66.038 111.992 63.158C111.992 60.26 114.206 58.172 117.158 58.172C120.002 58.172 122.198 60.08 122.198 63.194ZM117.176 60.296C115.898 60.296 114.98 61.07 114.782 62.312H119.552C119.354 61.088 118.436 60.296 117.176 60.296ZM131.123 54.644H133.931V68H131.249V66.884C130.547 67.73 129.521 68.144 128.225 68.144C125.489 68.144 123.383 66.2 123.383 63.158C123.383 60.116 125.489 58.172 128.225 58.172C129.413 58.172 130.421 58.55 131.123 59.342V54.644ZM128.711 65.84C130.097 65.84 131.177 64.832 131.177 63.158C131.177 61.484 130.097 60.476 128.711 60.476C127.307 60.476 126.227 61.484 126.227 63.158C126.227 64.832 127.307 65.84 128.711 65.84ZM151.24 68L150.124 65.3H144.274L143.158 68H140.17L145.786 55.4H148.666L154.3 68H151.24ZM145.21 63.086H149.206L147.208 58.262L145.21 63.086ZM161.133 58.172C163.851 58.172 165.957 60.116 165.957 63.158C165.957 66.2 163.851 68.144 161.133 68.144C159.927 68.144 158.937 67.766 158.217 66.974V71.492H155.409V58.316H158.091V59.432C158.793 58.586 159.837 58.172 161.133 58.172ZM160.647 65.84C162.051 65.84 163.113 64.832 163.113 63.158C163.113 61.484 162.051 60.476 160.647 60.476C159.243 60.476 158.181 61.484 158.181 63.158C158.181 64.832 159.243 65.84 160.647 65.84ZM173.561 58.172C176.279 58.172 178.385 60.116 178.385 63.158C178.385 66.2 176.279 68.144 173.561 68.144C172.355 68.144 171.365 67.766 170.645 66.974V71.492H167.837V58.316H170.519V59.432C171.221 58.586 172.265 58.172 173.561 58.172ZM173.075 65.84C174.479 65.84 175.541 64.832 175.541 63.158C175.541 61.484 174.479 60.476 173.075 60.476C171.671 60.476 170.609 61.484 170.609 63.158C170.609 64.832 171.671 65.84 173.075 65.84ZM184.873 68.144C181.795 68.144 179.545 66.074 179.545 63.158C179.545 60.242 181.795 58.172 184.873 58.172C187.951 58.172 190.183 60.242 190.183 63.158C190.183 66.074 187.951 68.144 184.873 68.144ZM184.873 65.84C186.277 65.84 187.339 64.832 187.339 63.158C187.339 61.484 186.277 60.476 184.873 60.476C183.469 60.476 182.389 61.484 182.389 63.158C182.389 64.832 183.469 65.84 184.873 65.84ZM193.464 56.966C192.42 56.966 191.718 56.282 191.718 55.4C191.718 54.518 192.42 53.834 193.464 53.834C194.508 53.834 195.21 54.482 195.21 55.346C195.21 56.282 194.508 56.966 193.464 56.966ZM192.06 68V58.316H194.868V68H192.06ZM203.36 58.172C205.646 58.172 207.374 59.504 207.374 62.456V68H204.566V62.888C204.566 61.322 203.846 60.602 202.604 60.602C201.254 60.602 200.282 61.43 200.282 63.212V68H197.474V58.316H200.156V59.45C200.912 58.622 202.046 58.172 203.36 58.172ZM215.409 65.552L216.165 67.532C215.589 67.946 214.743 68.144 213.879 68.144C211.593 68.144 210.261 66.974 210.261 64.67V60.692H208.767V58.532H210.261V56.174H213.069V58.532H215.481V60.692H213.069V64.634C213.069 65.462 213.519 65.912 214.275 65.912C214.689 65.912 215.103 65.786 215.409 65.552ZM230.143 58.172C232.447 58.172 234.103 59.504 234.103 62.456V68H231.295V62.888C231.295 61.322 230.593 60.602 229.459 60.602C228.199 60.602 227.317 61.412 227.317 63.14V68H224.509V62.888C224.509 61.322 223.843 60.602 222.673 60.602C221.431 60.602 220.549 61.412 220.549 63.14V68H217.741V58.316H220.423V59.432C221.143 58.604 222.223 58.172 223.465 58.172C224.815 58.172 225.967 58.694 226.651 59.756C227.425 58.766 228.685 58.172 230.143 58.172ZM246.212 63.194C246.212 63.41 246.176 63.716 246.158 63.95H238.832C239.102 65.156 240.128 65.894 241.604 65.894C242.63 65.894 243.368 65.588 244.034 64.958L245.528 66.578C244.628 67.604 243.278 68.144 241.532 68.144C238.184 68.144 236.006 66.038 236.006 63.158C236.006 60.26 238.22 58.172 241.172 58.172C244.016 58.172 246.212 60.08 246.212 63.194ZM241.19 60.296C239.912 60.296 238.994 61.07 238.796 62.312H243.566C243.368 61.088 242.45 60.296 241.19 60.296ZM253.967 58.172C256.253 58.172 257.981 59.504 257.981 62.456V68H255.173V62.888C255.173 61.322 254.453 60.602 253.211 60.602C251.861 60.602 250.889 61.43 250.889 63.212V68H248.081V58.316H250.763V59.45C251.519 58.622 252.653 58.172 253.967 58.172ZM266.016 65.552L266.772 67.532C266.196 67.946 265.35 68.144 264.486 68.144C262.2 68.144 260.868 66.974 260.868 64.67V60.692H259.374V58.532H260.868V56.174H263.676V58.532H266.088V60.692H263.676V64.634C263.676 65.462 264.126 65.912 264.882 65.912C265.296 65.912 265.71 65.786 266.016 65.552ZM29.634 91.216C27.636 91.216 25.62 90.622 24.504 89.758L25.494 87.562C26.556 88.336 28.14 88.876 29.652 88.876C31.38 88.876 32.082 88.3 32.082 87.526C32.082 85.168 24.756 86.788 24.756 82.108C24.756 79.966 26.484 78.184 30.066 78.184C31.65 78.184 33.27 78.562 34.44 79.3L33.54 81.514C32.37 80.848 31.164 80.524 30.048 80.524C28.32 80.524 27.654 81.172 27.654 81.964C27.654 84.286 34.98 82.684 34.98 87.31C34.98 89.416 33.234 91.216 29.634 91.216ZM46.2605 86.194C46.2605 86.41 46.2245 86.716 46.2065 86.95H38.8805C39.1505 88.156 40.1765 88.894 41.6525 88.894C42.6785 88.894 43.4165 88.588 44.0825 87.958L45.5765 89.578C44.6765 90.604 43.3265 91.144 41.5805 91.144C38.2325 91.144 36.0545 89.038 36.0545 86.158C36.0545 83.26 38.2685 81.172 41.2205 81.172C44.0645 81.172 46.2605 83.08 46.2605 86.194ZM41.2385 83.296C39.9605 83.296 39.0425 84.07 38.8445 85.312H43.6145C43.4165 84.088 42.4985 83.296 41.2385 83.296ZM53.62 88.552L54.376 90.532C53.8 90.946 52.954 91.144 52.09 91.144C49.804 91.144 48.472 89.974 48.472 87.67V83.692H46.978V81.532H48.472V79.174H51.28V81.532H53.692V83.692H51.28V87.634C51.28 88.462 51.73 88.912 52.486 88.912C52.9 88.912 53.314 88.786 53.62 88.552ZM61.2313 88.552L61.9873 90.532C61.4113 90.946 60.5653 91.144 59.7013 91.144C57.4153 91.144 56.0833 89.974 56.0833 87.67V83.692H54.5893V81.532H56.0833V79.174H58.8913V81.532H61.3033V83.692H58.8913V87.634C58.8913 88.462 59.3413 88.912 60.0973 88.912C60.5113 88.912 60.9253 88.786 61.2313 88.552ZM64.9676 79.966C63.9236 79.966 63.2216 79.282 63.2216 78.4C63.2216 77.518 63.9236 76.834 64.9676 76.834C66.0116 76.834 66.7136 77.482 66.7136 78.346C66.7136 79.282 66.0116 79.966 64.9676 79.966ZM63.5636 91V81.316H66.3716V91H63.5636ZM74.8636 81.172C77.1496 81.172 78.8776 82.504 78.8776 85.456V91H76.0696V85.888C76.0696 84.322 75.3496 83.602 74.1076 83.602C72.7576 83.602 71.7856 84.43 71.7856 86.212V91H68.9776V81.316H71.6596V82.45C72.4156 81.622 73.5496 81.172 74.8636 81.172ZM88.8544 81.316H91.5184V89.38C91.5184 92.98 89.5744 94.636 86.0824 94.636C84.2464 94.636 82.4644 94.186 81.3304 93.304L82.4464 91.288C83.2744 91.954 84.6244 92.386 85.8664 92.386C87.8464 92.386 88.7104 91.486 88.7104 89.74V89.326C87.9724 90.136 86.9104 90.532 85.6504 90.532C82.9684 90.532 80.8084 88.678 80.8084 85.852C80.8084 83.026 82.9684 81.172 85.6504 81.172C87.0004 81.172 88.1164 81.622 88.8544 82.558V81.316ZM86.2084 88.228C87.6844 88.228 88.7464 87.274 88.7464 85.852C88.7464 84.43 87.6844 83.476 86.2084 83.476C84.7324 83.476 83.6524 84.43 83.6524 85.852C83.6524 87.274 84.7324 88.228 86.2084 88.228ZM115.682 78.4H118.472L114.35 91H111.218L108.446 82.468L105.584 91H102.47L98.3296 78.4H101.354L104.198 87.256L107.168 78.4H109.868L112.748 87.328L115.682 78.4ZM121.481 79.966C120.437 79.966 119.735 79.282 119.735 78.4C119.735 77.518 120.437 76.834 121.481 76.834C122.525 76.834 123.227 77.482 123.227 78.346C123.227 79.282 122.525 79.966 121.481 79.966ZM120.077 91V81.316H122.885V91H120.077ZM130.981 88.552L131.737 90.532C131.161 90.946 130.315 91.144 129.451 91.144C127.165 91.144 125.833 89.974 125.833 87.67V83.692H124.339V81.532H125.833V79.174H128.641V81.532H131.053V83.692H128.641V87.634C128.641 88.462 129.091 88.912 129.847 88.912C130.261 88.912 130.675 88.786 130.981 88.552ZM139.2 81.172C141.486 81.172 143.214 82.504 143.214 85.456V91H140.406V85.888C140.406 84.322 139.686 83.602 138.444 83.602C137.094 83.602 136.122 84.43 136.122 86.212V91H133.314V77.644H136.122V82.324C136.878 81.568 137.958 81.172 139.2 81.172ZM159.569 88.192V84.502H162.233V89.614C160.847 90.658 158.939 91.216 157.139 91.216C153.179 91.216 150.263 88.498 150.263 84.7C150.263 80.902 153.179 78.184 157.193 78.184C159.407 78.184 161.243 78.94 162.467 80.362L160.595 82.09C159.677 81.118 158.615 80.668 157.337 80.668C154.889 80.668 153.215 82.306 153.215 84.7C153.215 87.058 154.889 88.732 157.301 88.732C158.093 88.732 158.831 88.588 159.569 88.192ZM164.743 91V77.644H167.551V91H164.743ZM174.765 91.144C171.687 91.144 169.437 89.074 169.437 86.158C169.437 83.242 171.687 81.172 174.765 81.172C177.843 81.172 180.075 83.242 180.075 86.158C180.075 89.074 177.843 91.144 174.765 91.144ZM174.765 88.84C176.169 88.84 177.231 87.832 177.231 86.158C177.231 84.484 176.169 83.476 174.765 83.476C173.361 83.476 172.281 84.484 172.281 86.158C172.281 87.832 173.361 88.84 174.765 88.84ZM187.676 81.172C190.394 81.172 192.5 83.116 192.5 86.158C192.5 89.2 190.394 91.144 187.676 91.144C186.38 91.144 185.336 90.73 184.634 89.884V91H181.952V77.644H184.76V82.342C185.48 81.55 186.47 81.172 187.676 81.172ZM187.19 88.84C188.594 88.84 189.656 87.832 189.656 86.158C189.656 84.484 188.594 83.476 187.19 83.476C185.786 83.476 184.724 84.484 184.724 86.158C184.724 87.832 185.786 88.84 187.19 88.84ZM198.128 81.172C201.08 81.172 202.79 82.54 202.79 85.474V91H200.162V89.794C199.64 90.676 198.632 91.144 197.21 91.144C194.942 91.144 193.592 89.884 193.592 88.21C193.592 86.5 194.798 85.312 197.75 85.312H199.982C199.982 84.106 199.262 83.404 197.75 83.404C196.724 83.404 195.662 83.746 194.96 84.304L193.952 82.342C195.014 81.586 196.58 81.172 198.128 81.172ZM197.912 89.254C198.848 89.254 199.658 88.822 199.982 87.94V86.95H198.056C196.742 86.95 196.328 87.436 196.328 88.084C196.328 88.786 196.922 89.254 197.912 89.254ZM205.331 91V77.644H208.139V91H205.331ZM225.293 84.448C226.697 84.898 227.597 85.978 227.597 87.562C227.597 89.74 225.869 91 222.557 91H216.041V78.4H222.197C225.347 78.4 226.967 79.714 226.967 81.676C226.967 82.936 226.319 83.908 225.293 84.448ZM221.837 80.596H218.939V83.566H221.837C223.259 83.566 224.033 83.062 224.033 82.072C224.033 81.082 223.259 80.596 221.837 80.596ZM222.341 88.804C223.853 88.804 224.663 88.336 224.663 87.256C224.663 86.194 223.853 85.69 222.341 85.69H218.939V88.804H222.341ZM233.009 88.624H238.427V91H228.905V89.11L233.765 84.52C234.881 83.458 235.079 82.81 235.079 82.198C235.079 81.208 234.395 80.632 233.063 80.632C231.983 80.632 231.065 81.046 230.453 81.892L228.329 80.524C229.301 79.102 231.065 78.184 233.333 78.184C236.141 78.184 238.013 79.624 238.013 81.91C238.013 83.134 237.671 84.25 235.907 85.888L233.009 88.624ZM249.674 84.448C251.078 84.898 251.978 85.978 251.978 87.562C251.978 89.74 250.25 91 246.938 91H240.422V78.4H246.578C249.728 78.4 251.348 79.714 251.348 81.676C251.348 82.936 250.7 83.908 249.674 84.448ZM246.218 80.596H243.32V83.566H246.218C247.64 83.566 248.414 83.062 248.414 82.072C248.414 81.082 247.64 80.596 246.218 80.596ZM246.722 88.804C248.234 88.804 249.044 88.336 249.044 87.256C249.044 86.194 248.234 85.69 246.722 85.69H243.32V88.804H246.722ZM25.494 114V101.4H31.218C35.34 101.4 38.166 103.884 38.166 107.7C38.166 111.516 35.34 114 31.218 114H25.494ZM28.41 111.606H31.074C33.576 111.606 35.214 110.112 35.214 107.7C35.214 105.288 33.576 103.794 31.074 103.794H28.41V111.606ZM49.6531 109.194C49.6531 109.41 49.6171 109.716 49.5991 109.95H42.2731C42.5431 111.156 43.5691 111.894 45.0451 111.894C46.0711 111.894 46.8091 111.588 47.4751 110.958L48.9691 112.578C48.0691 113.604 46.7191 114.144 44.9731 114.144C41.6251 114.144 39.4471 112.038 39.4471 109.158C39.4471 106.26 41.6611 104.172 44.6131 104.172C47.4571 104.172 49.6531 106.08 49.6531 109.194ZM44.6311 106.296C43.3531 106.296 42.4351 107.07 42.2371 108.312H47.0071C46.8091 107.088 45.8911 106.296 44.6311 106.296ZM56.2026 114.144C53.0526 114.144 50.8026 112.074 50.8026 109.158C50.8026 106.242 53.0526 104.172 56.2026 104.172C58.2366 104.172 59.8386 105.054 60.5406 106.638L58.3626 107.808C57.8406 106.89 57.0666 106.476 56.1846 106.476C54.7626 106.476 53.6466 107.466 53.6466 109.158C53.6466 110.85 54.7626 111.84 56.1846 111.84C57.0666 111.84 57.8406 111.444 58.3626 110.508L60.5406 111.696C59.8386 113.244 58.2366 114.144 56.2026 114.144ZM63.5613 102.966C62.5173 102.966 61.8153 102.282 61.8153 101.4C61.8153 100.518 62.5173 99.834 63.5613 99.834C64.6053 99.834 65.3073 100.482 65.3073 101.346C65.3073 102.282 64.6053 102.966 63.5613 102.966ZM62.1573 114V104.316H64.9653V114H62.1573ZM70.8294 114.144C69.1914 114.144 67.5354 113.694 66.6354 113.1L67.5714 111.084C68.4354 111.642 69.7494 112.02 70.9374 112.02C72.2334 112.02 72.7194 111.678 72.7194 111.138C72.7194 109.554 66.8694 111.174 66.8694 107.304C66.8694 105.468 68.5254 104.172 71.3514 104.172C72.6834 104.172 74.1594 104.478 75.0774 105.018L74.1414 107.016C73.1874 106.476 72.2334 106.296 71.3514 106.296C70.0914 106.296 69.5514 106.692 69.5514 107.196C69.5514 108.852 75.4014 107.25 75.4014 111.066C75.4014 112.866 73.7274 114.144 70.8294 114.144ZM78.5379 102.966C77.4939 102.966 76.7919 102.282 76.7919 101.4C76.7919 100.518 77.4939 99.834 78.5379 99.834C79.5819 99.834 80.2839 100.482 80.2839 101.346C80.2839 102.282 79.5819 102.966 78.5379 102.966ZM77.1339 114V104.316H79.9419V114H77.1339ZM87.156 114.144C84.078 114.144 81.828 112.074 81.828 109.158C81.828 106.242 84.078 104.172 87.156 104.172C90.234 104.172 92.466 106.242 92.466 109.158C92.466 112.074 90.234 114.144 87.156 114.144ZM87.156 111.84C88.56 111.84 89.622 110.832 89.622 109.158C89.622 107.484 88.56 106.476 87.156 106.476C85.752 106.476 84.672 107.484 84.672 109.158C84.672 110.832 85.752 111.84 87.156 111.84ZM100.229 104.172C102.515 104.172 104.243 105.504 104.243 108.456V114H101.435V108.888C101.435 107.322 100.715 106.602 99.4729 106.602C98.1229 106.602 97.1509 107.43 97.1509 109.212V114H94.3429V104.316H97.0249V105.45C97.7809 104.622 98.9149 104.172 100.229 104.172ZM126.286 114H123.55L123.532 106.44L119.824 112.668H118.51L114.82 106.602V114H112.084V101.4H114.496L119.212 109.23L123.856 101.4H126.25L126.286 114ZM132.983 104.172C135.935 104.172 137.645 105.54 137.645 108.474V114H135.017V112.794C134.495 113.676 133.487 114.144 132.065 114.144C129.797 114.144 128.447 112.884 128.447 111.21C128.447 109.5 129.653 108.312 132.605 108.312H134.837C134.837 107.106 134.117 106.404 132.605 106.404C131.579 106.404 130.517 106.746 129.815 107.304L128.807 105.342C129.869 104.586 131.435 104.172 132.983 104.172ZM132.767 112.254C133.703 112.254 134.513 111.822 134.837 110.94V109.95H132.911C131.597 109.95 131.183 110.436 131.183 111.084C131.183 111.786 131.777 112.254 132.767 112.254ZM147.405 114L144.345 110.202L142.995 111.534V114H140.187V100.644H142.995V108.204L147.099 104.316H150.447L146.415 108.42L150.807 114H147.405ZM161.134 109.194C161.134 109.41 161.098 109.716 161.08 109.95H153.754C154.024 111.156 155.05 111.894 156.526 111.894C157.552 111.894 158.29 111.588 158.956 110.958L160.45 112.578C159.55 113.604 158.2 114.144 156.454 114.144C153.106 114.144 150.928 112.038 150.928 109.158C150.928 106.26 153.142 104.172 156.094 104.172C158.938 104.172 161.134 106.08 161.134 109.194ZM156.112 106.296C154.834 106.296 153.916 107.07 153.718 108.312H158.488C158.29 107.088 157.372 106.296 156.112 106.296ZM165.685 105.594C166.369 104.658 167.521 104.172 169.015 104.172V106.764C168.781 106.746 168.601 106.728 168.385 106.728C166.837 106.728 165.811 107.574 165.811 109.428V114H163.003V104.316H165.685V105.594ZM173.978 114.144C172.34 114.144 170.684 113.694 169.784 113.1L170.72 111.084C171.584 111.642 172.898 112.02 174.086 112.02C175.382 112.02 175.868 111.678 175.868 111.138C175.868 109.554 170.018 111.174 170.018 107.304C170.018 105.468 171.674 104.172 174.5 104.172C175.832 104.172 177.308 104.478 178.226 105.018L177.29 107.016C176.336 106.476 175.382 106.296 174.5 106.296C173.24 106.296 172.7 106.692 172.7 107.196C172.7 108.852 178.55 107.25 178.55 111.066C178.55 112.866 176.876 114.144 173.978 114.144Z" fill="white"/>
<path d="M26.436 37.12C25.9 37.12 25.404 37.016 24.948 36.808C24.5 36.6 24.132 36.3 23.844 35.908L24.732 34.84C24.964 35.16 25.216 35.4 25.488 35.56C25.768 35.72 26.072 35.8 26.4 35.8C27.272 35.8 27.708 35.284 27.708 34.252V29.908H24.72V28.6H29.268V34.168C29.268 35.16 29.024 35.9 28.536 36.388C28.056 36.876 27.356 37.12 26.436 37.12ZM34.1921 37.084C33.5361 37.084 32.9521 36.944 32.4401 36.664C31.9281 36.376 31.5241 35.984 31.2281 35.488C30.9321 34.992 30.7841 34.428 30.7841 33.796C30.7841 33.156 30.9321 32.592 31.2281 32.104C31.5241 31.608 31.9281 31.22 32.4401 30.94C32.9521 30.66 33.5361 30.52 34.1921 30.52C34.8561 30.52 35.4441 30.66 35.9561 30.94C36.4761 31.22 36.8801 31.604 37.1681 32.092C37.4641 32.58 37.6121 33.148 37.6121 33.796C37.6121 34.428 37.4641 34.992 37.1681 35.488C36.8801 35.984 36.4761 36.376 35.9561 36.664C35.4441 36.944 34.8561 37.084 34.1921 37.084ZM34.1921 35.8C34.5601 35.8 34.8881 35.72 35.1761 35.56C35.4641 35.4 35.6881 35.168 35.8481 34.864C36.0161 34.56 36.1001 34.204 36.1001 33.796C36.1001 33.38 36.0161 33.024 35.8481 32.728C35.6881 32.424 35.4641 32.192 35.1761 32.032C34.8881 31.872 34.5641 31.792 34.2041 31.792C33.8361 31.792 33.5081 31.872 33.2201 32.032C32.9401 32.192 32.7161 32.424 32.5481 32.728C32.3801 33.024 32.2961 33.38 32.2961 33.796C32.2961 34.204 32.3801 34.56 32.5481 34.864C32.7161 35.168 32.9401 35.4 33.2201 35.56C33.5081 35.72 33.8321 35.8 34.1921 35.8ZM39.0465 37V30.592H40.5465V37H39.0465ZM39.8025 29.536C39.5225 29.536 39.2905 29.448 39.1065 29.272C38.9305 29.096 38.8425 28.884 38.8425 28.636C38.8425 28.38 38.9305 28.168 39.1065 28C39.2905 27.824 39.5225 27.736 39.8025 27.736C40.0825 27.736 40.3105 27.82 40.4865 27.988C40.6705 28.148 40.7625 28.352 40.7625 28.6C40.7625 28.864 40.6745 29.088 40.4985 29.272C40.3225 29.448 40.0905 29.536 39.8025 29.536ZM46.1513 30.52C46.6633 30.52 47.1193 30.62 47.5193 30.82C47.9273 31.02 48.2473 31.328 48.4793 31.744C48.7113 32.152 48.8273 32.68 48.8273 33.328V37H47.3273V33.52C47.3273 32.952 47.1913 32.528 46.9193 32.248C46.6553 31.968 46.2833 31.828 45.8033 31.828C45.4513 31.828 45.1393 31.9 44.8673 32.044C44.5953 32.188 44.3833 32.404 44.2313 32.692C44.0873 32.972 44.0153 33.328 44.0153 33.76V37H42.5153V30.592H43.9433V32.32L43.6913 31.792C43.9153 31.384 44.2393 31.072 44.6633 30.856C45.0953 30.632 45.5913 30.52 46.1513 30.52ZM117.216 37.084C116.672 37.084 116.192 36.984 115.776 36.784C115.36 36.576 115.036 36.264 114.804 35.848C114.572 35.424 114.456 34.892 114.456 34.252V30.592H115.956V34.048C115.956 34.624 116.084 35.056 116.34 35.344C116.604 35.624 116.976 35.764 117.456 35.764C117.808 35.764 118.112 35.692 118.368 35.548C118.632 35.404 118.836 35.188 118.98 34.9C119.132 34.612 119.208 34.256 119.208 33.832V30.592H120.708V37H119.28V35.272L119.532 35.8C119.316 36.216 119 36.536 118.584 36.76C118.168 36.976 117.712 37.084 117.216 37.084ZM124.652 37.084C124.116 37.084 123.6 37.016 123.104 36.88C122.616 36.736 122.228 36.564 121.94 36.364L122.516 35.224C122.804 35.408 123.148 35.56 123.548 35.68C123.948 35.8 124.348 35.86 124.748 35.86C125.22 35.86 125.56 35.796 125.768 35.668C125.984 35.54 126.092 35.368 126.092 35.152C126.092 34.976 126.02 34.844 125.876 34.756C125.732 34.66 125.544 34.588 125.312 34.54C125.08 34.492 124.82 34.448 124.532 34.408C124.252 34.368 123.968 34.316 123.68 34.252C123.4 34.18 123.144 34.08 122.912 33.952C122.68 33.816 122.492 33.636 122.348 33.412C122.204 33.188 122.132 32.892 122.132 32.524C122.132 32.116 122.248 31.764 122.479 31.468C122.712 31.164 123.036 30.932 123.451 30.772C123.876 30.604 124.376 30.52 124.952 30.52C125.384 30.52 125.82 30.568 126.26 30.664C126.7 30.76 127.064 30.896 127.352 31.072L126.776 32.212C126.472 32.028 126.164 31.904 125.852 31.84C125.548 31.768 125.244 31.732 124.94 31.732C124.484 31.732 124.144 31.8 123.92 31.936C123.704 32.072 123.596 32.244 123.596 32.452C123.596 32.644 123.668 32.788 123.812 32.884C123.956 32.98 124.144 33.056 124.376 33.112C124.608 33.168 124.864 33.216 125.144 33.256C125.432 33.288 125.716 33.34 125.996 33.412C126.276 33.484 126.532 33.584 126.764 33.712C127.004 33.832 127.196 34.004 127.34 34.228C127.484 34.452 127.556 34.744 127.556 35.104C127.556 35.504 127.436 35.852 127.196 36.148C126.964 36.444 126.632 36.676 126.2 36.844C125.768 37.004 125.252 37.084 124.652 37.084ZM131.859 37.084C131.147 37.084 130.523 36.944 129.987 36.664C129.459 36.376 129.047 35.984 128.751 35.488C128.463 34.992 128.319 34.428 128.319 33.796C128.319 33.156 128.459 32.592 128.739 32.104C129.027 31.608 129.419 31.22 129.915 30.94C130.419 30.66 130.991 30.52 131.631 30.52C132.255 30.52 132.811 30.656 133.299 30.928C133.787 31.2 134.171 31.584 134.451 32.08C134.731 32.576 134.871 33.16 134.871 33.832C134.871 33.896 134.867 33.968 134.859 34.048C134.859 34.128 134.855 34.204 134.847 34.276H129.507V33.28H134.055L133.467 33.592C133.475 33.224 133.399 32.9 133.239 32.62C133.079 32.34 132.859 32.12 132.579 31.96C132.307 31.8 131.991 31.72 131.631 31.72C131.263 31.72 130.939 31.8 130.659 31.96C130.387 32.12 130.171 32.344 130.011 32.632C129.859 32.912 129.783 33.244 129.783 33.628V33.868C129.783 34.252 129.871 34.592 130.047 34.888C130.223 35.184 130.471 35.412 130.791 35.572C131.111 35.732 131.479 35.812 131.895 35.812C132.255 35.812 132.579 35.756 132.867 35.644C133.155 35.532 133.411 35.356 133.635 35.116L134.439 36.04C134.151 36.376 133.787 36.636 133.347 36.82C132.915 36.996 132.419 37.084 131.859 37.084ZM136.312 37V30.592H137.74V32.356L137.572 31.84C137.764 31.408 138.064 31.08 138.472 30.856C138.888 30.632 139.404 30.52 140.02 30.52V31.948C139.956 31.932 139.896 31.924 139.84 31.924C139.784 31.916 139.728 31.912 139.672 31.912C139.104 31.912 138.652 32.08 138.316 32.416C137.98 32.744 137.812 33.236 137.812 33.892V37H136.312ZM143.331 37.084C142.795 37.084 142.279 37.016 141.783 36.88C141.295 36.736 140.907 36.564 140.619 36.364L141.195 35.224C141.483 35.408 141.827 35.56 142.227 35.68C142.627 35.8 143.027 35.86 143.427 35.86C143.899 35.86 144.239 35.796 144.447 35.668C144.663 35.54 144.771 35.368 144.771 35.152C144.771 34.976 144.699 34.844 144.555 34.756C144.411 34.66 144.223 34.588 143.991 34.54C143.759 34.492 143.499 34.448 143.211 34.408C142.931 34.368 142.647 34.316 142.359 34.252C142.079 34.18 141.823 34.08 141.591 33.952C141.359 33.816 141.171 33.636 141.027 33.412C140.883 33.188 140.811 32.892 140.811 32.524C140.811 32.116 140.927 31.764 141.159 31.468C141.391 31.164 141.715 30.932 142.131 30.772C142.555 30.604 143.055 30.52 143.631 30.52C144.063 30.52 144.499 30.568 144.939 30.664C145.379 30.76 145.743 30.896 146.031 31.072L145.455 32.212C145.151 32.028 144.843 31.904 144.531 31.84C144.227 31.768 143.923 31.732 143.619 31.732C143.163 31.732 142.823 31.8 142.599 31.936C142.383 32.072 142.275 32.244 142.275 32.452C142.275 32.644 142.347 32.788 142.491 32.884C142.635 32.98 142.823 33.056 143.055 33.112C143.287 33.168 143.543 33.216 143.823 33.256C144.111 33.288 144.395 33.34 144.675 33.412C144.955 33.484 145.211 33.584 145.443 33.712C145.683 33.832 145.875 34.004 146.019 34.228C146.163 34.452 146.235 34.744 146.235 35.104C146.235 35.504 146.115 35.852 145.875 36.148C145.643 36.444 145.311 36.676 144.879 36.844C144.447 37.004 143.931 37.084 143.331 37.084Z" fill="white"/>
<path d="M53.4825 37V35.956L56.8185 32.788C57.0985 32.524 57.3065 32.292 57.4425 32.092C57.5785 31.892 57.6665 31.708 57.7065 31.54C57.7545 31.364 57.7785 31.2 57.7785 31.048C57.7785 30.664 57.6465 30.368 57.3825 30.16C57.1185 29.944 56.7305 29.836 56.2185 29.836C55.8105 29.836 55.4385 29.908 55.1025 30.052C54.7745 30.196 54.4905 30.416 54.2505 30.712L53.1585 29.872C53.4865 29.432 53.9265 29.092 54.4785 28.852C55.0385 28.604 55.6625 28.48 56.3505 28.48C56.9585 28.48 57.4865 28.58 57.9345 28.78C58.3905 28.972 58.7385 29.248 58.9785 29.608C59.2265 29.968 59.3505 30.396 59.3505 30.892C59.3505 31.164 59.3145 31.436 59.2425 31.708C59.1705 31.972 59.0345 32.252 58.8345 32.548C58.6345 32.844 58.3425 33.176 57.9585 33.544L55.0905 36.268L54.7665 35.68H59.6745V37H53.4825ZM64.0789 37.12C63.4149 37.12 62.8149 36.952 62.2789 36.616C61.7509 36.28 61.3349 35.792 61.0309 35.152C60.7269 34.504 60.5749 33.72 60.5749 32.8C60.5749 31.88 60.7269 31.1 61.0309 30.46C61.3349 29.812 61.7509 29.32 62.2789 28.984C62.8149 28.648 63.4149 28.48 64.0789 28.48C64.7509 28.48 65.3509 28.648 65.8789 28.984C66.4069 29.32 66.8229 29.812 67.1269 30.46C67.4389 31.1 67.5949 31.88 67.5949 32.8C67.5949 33.72 67.4389 34.504 67.1269 35.152C66.8229 35.792 66.4069 36.28 65.8789 36.616C65.3509 36.952 64.7509 37.12 64.0789 37.12ZM64.0789 35.764C64.4709 35.764 64.8109 35.66 65.0989 35.452C65.3869 35.236 65.6109 34.908 65.7709 34.468C65.9389 34.028 66.0229 33.472 66.0229 32.8C66.0229 32.12 65.9389 31.564 65.7709 31.132C65.6109 30.692 65.3869 30.368 65.0989 30.16C64.8109 29.944 64.4709 29.836 64.0789 29.836C63.7029 29.836 63.3669 29.944 63.0709 30.16C62.7829 30.368 62.5549 30.692 62.3869 31.132C62.2269 31.564 62.1469 32.12 62.1469 32.8C62.1469 33.472 62.2269 34.028 62.3869 34.468C62.5549 34.908 62.7829 35.236 63.0709 35.452C63.3669 35.66 63.7029 35.764 64.0789 35.764ZM72.1531 37.12C71.4891 37.12 70.8891 36.952 70.3531 36.616C69.8251 36.28 69.4091 35.792 69.1051 35.152C68.8011 34.504 68.6491 33.72 68.6491 32.8C68.6491 31.88 68.8011 31.1 69.1051 30.46C69.4091 29.812 69.8251 29.32 70.3531 28.984C70.8891 28.648 71.4891 28.48 72.1531 28.48C72.8251 28.48 73.4251 28.648 73.9531 28.984C74.4811 29.32 74.8971 29.812 75.2011 30.46C75.5131 31.1 75.6691 31.88 75.6691 32.8C75.6691 33.72 75.5131 34.504 75.2011 35.152C74.8971 35.792 74.4811 36.28 73.9531 36.616C73.4251 36.952 72.8251 37.12 72.1531 37.12ZM72.1531 35.764C72.5451 35.764 72.8851 35.66 73.1731 35.452C73.4611 35.236 73.6851 34.908 73.8451 34.468C74.0131 34.028 74.0971 33.472 74.0971 32.8C74.0971 32.12 74.0131 31.564 73.8451 31.132C73.6851 30.692 73.4611 30.368 73.1731 30.16C72.8851 29.944 72.5451 29.836 72.1531 29.836C71.7771 29.836 71.4411 29.944 71.1451 30.16C70.8571 30.368 70.6291 30.692 70.4611 31.132C70.3011 31.564 70.2211 32.12 70.2211 32.8C70.2211 33.472 70.3011 34.028 70.4611 34.468C70.6291 34.908 70.8571 35.236 71.1451 35.452C71.4411 35.66 71.7771 35.764 72.1531 35.764ZM76.6427 38.812L77.3387 36.16L77.5427 37.048C77.2627 37.048 77.0267 36.964 76.8347 36.796C76.6507 36.62 76.5587 36.384 76.5587 36.088C76.5587 35.784 76.6507 35.544 76.8347 35.368C77.0267 35.184 77.2587 35.092 77.5307 35.092C77.8107 35.092 78.0427 35.184 78.2267 35.368C78.4107 35.552 78.5027 35.792 78.5027 36.088C78.5027 36.168 78.4947 36.256 78.4787 36.352C78.4627 36.44 78.4347 36.544 78.3947 36.664C78.3627 36.784 78.3067 36.936 78.2267 37.12L77.6147 38.812H76.6427ZM82.8758 37.12C82.2118 37.12 81.6118 36.952 81.0758 36.616C80.5478 36.28 80.1318 35.792 79.8278 35.152C79.5238 34.504 79.3718 33.72 79.3718 32.8C79.3718 31.88 79.5238 31.1 79.8278 30.46C80.1318 29.812 80.5478 29.32 81.0758 28.984C81.6118 28.648 82.2118 28.48 82.8758 28.48C83.5478 28.48 84.1478 28.648 84.6758 28.984C85.2038 29.32 85.6198 29.812 85.9238 30.46C86.2358 31.1 86.3918 31.88 86.3918 32.8C86.3918 33.72 86.2358 34.504 85.9238 35.152C85.6198 35.792 85.2038 36.28 84.6758 36.616C84.1478 36.952 83.5478 37.12 82.8758 37.12ZM82.8758 35.764C83.2678 35.764 83.6078 35.66 83.8958 35.452C84.1838 35.236 84.4078 34.908 84.5678 34.468C84.7358 34.028 84.8198 33.472 84.8198 32.8C84.8198 32.12 84.7358 31.564 84.5678 31.132C84.4078 30.692 84.1838 30.368 83.8958 30.16C83.6078 29.944 83.2678 29.836 82.8758 29.836C82.4998 29.836 82.1638 29.944 81.8678 30.16C81.5798 30.368 81.3518 30.692 81.1838 31.132C81.0238 31.564 80.9438 32.12 80.9438 32.8C80.9438 33.472 81.0238 34.028 81.1838 34.468C81.3518 34.908 81.5798 35.236 81.8678 35.452C82.1638 35.66 82.4998 35.764 82.8758 35.764ZM90.95 37.12C90.286 37.12 89.686 36.952 89.15 36.616C88.622 36.28 88.206 35.792 87.902 35.152C87.598 34.504 87.446 33.72 87.446 32.8C87.446 31.88 87.598 31.1 87.902 30.46C88.206 29.812 88.622 29.32 89.15 28.984C89.686 28.648 90.286 28.48 90.95 28.48C91.622 28.48 92.222 28.648 92.75 28.984C93.278 29.32 93.694 29.812 93.998 30.46C94.31 31.1 94.466 31.88 94.466 32.8C94.466 33.72 94.31 34.504 93.998 35.152C93.694 35.792 93.278 36.28 92.75 36.616C92.222 36.952 91.622 37.12 90.95 37.12ZM90.95 35.764C91.342 35.764 91.682 35.66 91.97 35.452C92.258 35.236 92.482 34.908 92.642 34.468C92.81 34.028 92.894 33.472 92.894 32.8C92.894 32.12 92.81 31.564 92.642 31.132C92.482 30.692 92.258 30.368 91.97 30.16C91.682 29.944 91.342 29.836 90.95 29.836C90.574 29.836 90.238 29.944 89.942 30.16C89.654 30.368 89.426 30.692 89.258 31.132C89.098 31.564 89.018 32.12 89.018 32.8C89.018 33.472 89.098 34.028 89.258 34.468C89.426 34.908 89.654 35.236 89.942 35.452C90.238 35.66 90.574 35.764 90.95 35.764ZM99.0242 37.12C98.3602 37.12 97.7602 36.952 97.2242 36.616C96.6962 36.28 96.2802 35.792 95.9762 35.152C95.6722 34.504 95.5202 33.72 95.5202 32.8C95.5202 31.88 95.6722 31.1 95.9762 30.46C96.2802 29.812 96.6962 29.32 97.2242 28.984C97.7602 28.648 98.3602 28.48 99.0242 28.48C99.6962 28.48 100.296 28.648 100.824 28.984C101.352 29.32 101.768 29.812 102.072 30.46C102.384 31.1 102.54 31.88 102.54 32.8C102.54 33.72 102.384 34.504 102.072 35.152C101.768 35.792 101.352 36.28 100.824 36.616C100.296 36.952 99.6962 37.12 99.0242 37.12ZM99.0242 35.764C99.4162 35.764 99.7562 35.66 100.044 35.452C100.332 35.236 100.556 34.908 100.716 34.468C100.884 34.028 100.968 33.472 100.968 32.8C100.968 32.12 100.884 31.564 100.716 31.132C100.556 30.692 100.332 30.368 100.044 30.16C99.7562 29.944 99.4162 29.836 99.0242 29.836C98.6482 29.836 98.3122 29.944 98.0162 30.16C97.7282 30.368 97.5002 30.692 97.3322 31.132C97.1722 31.564 97.0922 32.12 97.0922 32.8C97.0922 33.472 97.1722 34.028 97.3322 34.468C97.5002 34.908 97.7282 35.236 98.0162 35.452C98.3122 35.66 98.6482 35.764 99.0242 35.764ZM106.029 35.5V30.1H107.313V35.5H106.029ZM103.905 33.4V32.2H109.437V33.4H103.905Z" fill="#CCF88E"/>
</g>
<defs>
<clipPath id="clip0_4304_99976">
<rect width="308" height="300" rx="4" fill="white"/>
</clipPath>
</defs>
</svg>
