<svg width="185" height="109" viewBox="0 0 185 109" fill="none" xmlns="http://www.w3.org/2000/svg">
<path d="M21.1487 3.38156C20.2065 4.14458 20.0612 5.52697 20.8242 6.46922C21.5872 7.41146 22.9696 7.55676 23.9118 6.79374C24.8541 6.03073 24.9994 4.64834 24.2364 3.70609C23.4733 2.76384 22.0909 2.61854 21.1487 3.38156Z" fill="#0C151D"/>
<path d="M23.0496 5.05819C21.769 12.0101 26.2329 28.2189 54.3331 37.4393C82.4333 46.6597 82.5065 57.3802 79.0305 61.5879" stroke="black" strokeWidth="1.09766" stroke-dasharray="2.2 2.2"/>
<path fillRule="evenodd" clipRule="evenodd" d="M96.971 28.1512C94.3413 27.8052 92.0076 29.852 92.0076 32.5044V80.7259C92.0076 80.7462 92.0077 80.7664 92.008 80.7866V53.782C92.008 51.5785 93.6412 49.7163 95.8259 49.4288L170.467 39.6076C173.077 39.2643 175.395 41.2771 175.43 43.8998V42.3256C175.43 40.1221 173.797 38.2599 171.612 37.9724L96.971 28.1512Z" fill="#E5E5E5"/>
<path fillRule="evenodd" clipRule="evenodd" d="M96.8278 29.2395L171.469 39.0607C171.731 39.0952 171.983 39.16 172.22 39.2511C174.034 39.7579 175.403 41.4102 175.43 43.4211V42.3256C175.43 40.1221 173.797 38.2599 171.612 37.9724L96.971 28.1512C94.3413 27.8052 92.0076 29.852 92.0076 32.5044V80.7259C92.0076 80.7462 92.0077 80.7664 92.008 80.7866V53.3033C92.008 52.1975 92.4193 51.1776 93.1052 50.3996V32.5044C93.1052 30.5151 94.8555 28.98 96.8278 29.2395Z" fill="#0C151D"/>
<path fillRule="evenodd" clipRule="evenodd" d="M88.1442 28.1511C90.7739 27.8051 93.1077 29.8519 93.1077 32.5043V80.7258C93.1077 80.7459 93.1075 80.7659 93.1073 80.786V53.7818C93.1073 51.5784 91.474 49.7162 89.2894 49.4287L14.6482 39.6075C12.0385 39.2641 9.72032 41.2773 9.6852 43.9002V42.3255C9.6852 40.122 11.3184 38.2598 13.5031 37.9723L88.1442 28.1511Z" fill="#E5E5E5"/>
<path fillRule="evenodd" clipRule="evenodd" d="M88.2868 29.2346L13.6456 39.0558C13.3868 39.0899 13.1383 39.1534 12.9034 39.2427C11.0673 39.7517 9.68457 41.4345 9.68457 43.4761V42.3207C9.68457 40.1172 11.3178 38.255 13.5025 37.9675L88.1436 28.1463C90.7733 27.8003 93.107 29.8471 93.107 32.4995V53.2973C93.107 52.1913 92.6956 51.1712 92.0094 50.3932V32.4995C92.0094 30.5102 90.2591 28.9751 88.2868 29.2346Z" fill="#0C151D"/>
<path d="M9.68433 44.0873C9.68433 41.435 12.0181 39.3882 14.6478 39.7342L89.2889 49.5554C91.4736 49.8429 93.1068 51.7051 93.1068 53.9085V106.992H92.558H92.0091L13.5022 96.662C11.3175 96.3745 9.68433 94.5124 9.68433 92.3089V44.0873Z" fill="white"/>
<mask id="path-8-inside-1_4523_164855" fill="white">
<path fillRule="evenodd" clipRule="evenodd" d="M67.0733 14.956C65.7508 14.767 64.5675 15.7933 64.5675 17.1292V20.3538L53.8772 18.9472C52.5624 18.7742 51.3955 19.7975 51.3955 21.1237V71.8484C51.3955 74.0518 53.0287 75.914 55.2134 76.2015L134.818 86.6758V31.5226C134.818 30.4209 134.001 29.4898 132.909 29.3461L87.6185 23.3868V19.795C87.6185 18.7025 86.8152 17.7762 85.7336 17.6217L67.0733 14.956Z"/>
</mask>
<path fillRule="evenodd" clipRule="evenodd" d="M67.0733 14.956C65.7508 14.767 64.5675 15.7933 64.5675 17.1292V20.3538L53.8772 18.9472C52.5624 18.7742 51.3955 19.7975 51.3955 21.1237V71.8484C51.3955 74.0518 53.0287 75.914 55.2134 76.2015L134.818 86.6758V31.5226C134.818 30.4209 134.001 29.4898 132.909 29.3461L87.6185 23.3868V19.795C87.6185 18.7025 86.8152 17.7762 85.7336 17.6217L67.0733 14.956Z" fill="#FCFCFC"/>
<path d="M67.0733 14.956L66.9181 16.0426L67.0733 14.956ZM64.5675 20.3538L64.4243 21.4421L65.6652 21.6053V20.3538H64.5675ZM53.8772 18.9472L53.734 20.0354L53.8772 18.9472ZM55.2134 76.2015L55.3566 75.1132H55.3566L55.2134 76.2015ZM134.818 86.6758L134.675 87.7641L135.916 87.9273V86.6758H134.818ZM132.909 29.3461L132.766 30.4344L132.909 29.3461ZM87.6185 23.3868H86.5208V24.3495L87.4753 24.4751L87.6185 23.3868ZM85.7336 17.6217L85.8889 16.5351H85.8889L85.7336 17.6217ZM65.6652 17.1292C65.6652 16.4613 66.2568 15.9481 66.9181 16.0426L67.2286 13.8693C65.2448 13.5859 63.4699 15.1253 63.4699 17.1292H65.6652ZM65.6652 20.3538V17.1292H63.4699V20.3538H65.6652ZM53.734 20.0354L64.4243 21.4421L64.7107 19.2655L54.0204 17.8589L53.734 20.0354ZM52.4932 21.1237C52.4932 20.4606 53.0766 19.9489 53.734 20.0354L54.0204 17.8589C52.0481 17.5994 50.2978 19.1344 50.2978 21.1237H52.4932ZM52.4932 71.8484V21.1237H50.2978V71.8484H52.4932ZM55.3566 75.1132C53.7181 74.8976 52.4932 73.501 52.4932 71.8484H50.2978C50.2978 74.6027 52.3394 76.9305 55.0702 77.2898L55.3566 75.1132ZM134.961 85.5875L55.3566 75.1132L55.0702 77.2898L134.675 87.7641L134.961 85.5875ZM133.72 31.5226V86.6758H135.916V31.5226H133.72ZM132.766 30.4344C133.312 30.5062 133.72 30.9718 133.72 31.5226H135.916C135.916 29.87 134.691 28.4734 133.052 28.2578L132.766 30.4344ZM87.4753 24.4751L132.766 30.4344L133.052 28.2578L87.7617 22.2985L87.4753 24.4751ZM86.5208 19.795V23.3868H88.7162V19.795H86.5208ZM85.5784 18.7084C86.1192 18.7856 86.5208 19.2487 86.5208 19.795H88.7162C88.7162 18.1562 87.5111 16.7669 85.8889 16.5351L85.5784 18.7084ZM66.9181 16.0426L85.5784 18.7084L85.8889 16.5351L67.2286 13.8693L66.9181 16.0426Z" fill="#9DA0A4" mask="url(#path-8-inside-1_4523_164855)"/>
<path d="M162.089 17.7999C145.624 32.0695 128.062 16.1534 115.438 15.0557C102.815 13.958 85.8016 19.9952 82.5086 39.7531C81.0968 48.2237 83.8251 58.7539 87.6189 68.1676" stroke="#0C151D" strokeWidth="1.09766" stroke-dasharray="2.2 2.2"/>
<circle cx="162.26" cy="18.2254" r="2.19533" fill="#0C151D"/>
<path d="M9.68433 44.0873C9.68433 41.435 12.0181 39.3882 14.6478 39.7342L89.2889 49.5554C91.4736 49.8429 93.1068 51.7051 93.1068 53.9085V106.992H92.558H92.0091L13.5022 96.662C11.3175 96.3745 9.68433 94.5124 9.68433 92.3089V44.0873Z" fill="#0C151D"/>
<path fillRule="evenodd" clipRule="evenodd" d="M89.1457 50.6437L14.5046 40.8225C12.5323 40.563 10.782 42.0981 10.782 44.0873V92.3089C10.782 93.9615 12.0069 95.3581 13.6454 95.5737L92.0091 105.885V53.9085C92.0091 52.2559 90.7842 50.8593 89.1457 50.6437ZM93.1068 53.9085C93.1068 51.7051 91.4736 49.8429 89.2889 49.5554L14.6478 39.7342C12.0181 39.3882 9.68433 41.435 9.68433 44.0873V92.3089C9.68433 94.5124 11.3175 96.3745 13.5022 96.662L92.0091 106.994H92.558H93.1068V53.9085Z" fill="#0C151D"/>
<path d="M175.432 44.0867C175.432 41.4343 173.098 39.3876 170.468 39.7336L95.8273 49.5548C93.6426 49.8422 92.0094 51.7044 92.0094 53.9079V105.489C92.6862 106.415 93.8144 106.898 94.9516 106.749L171.614 96.6614C173.799 96.3739 175.432 94.5117 175.432 92.3083V44.0867Z" fill="white"/>
<path fillRule="evenodd" clipRule="evenodd" d="M95.9705 50.6437L170.612 40.8225C172.584 40.563 174.334 42.0981 174.334 44.0873V92.3089C174.334 93.9615 173.109 95.3581 171.471 95.5737L93.1071 105.885V53.9085C93.1071 52.2559 94.332 50.8593 95.9705 50.6437ZM92.0094 53.9085C92.0094 51.7051 93.6426 49.8429 95.8273 49.5554L170.468 39.7342C173.098 39.3882 175.432 41.435 175.432 44.0873V92.3089C175.432 94.5124 173.799 96.3745 171.614 96.662L93.1071 106.992L92.0094 105.885V53.9085Z" fill="#0C151D"/>
<path d="M181.627 53.8474L174.497 40.4251C174.068 39.6189 173.186 39.1619 172.28 39.2773L95.3262 49.0902C93.7589 49.2901 92.9096 51.0302 93.7162 52.3887L101.7 65.8344C102.147 66.5879 103 67.0031 103.869 66.8908L179.97 57.0546C181.491 56.858 182.347 55.2019 181.627 53.8474Z" fill="white" stroke="#0C151D" strokeWidth="1.09766"/>
<path d="M3.48784 53.8474L10.6185 40.4251C11.0468 39.6189 11.9293 39.1619 12.8349 39.2773L89.7888 49.0902C91.3561 49.2901 92.2054 51.0302 91.3988 52.3887L83.4155 65.8344C82.9681 66.5879 82.1154 67.0031 81.2464 66.8908L5.14516 57.0546C3.62407 56.858 2.76828 55.2019 3.48784 53.8474Z" fill="white" stroke="#0C151D" strokeWidth="1.09766"/>
<rect x="92.0088" y="51.1573" width="1.09766" height="7.68365" fill="#0C151D"/>
</svg>
