<svg width="282" height="133" viewBox="0 0 282 133" fill="none" xmlns="http://www.w3.org/2000/svg">
<rect width="282" height="133" rx="8" fill="#314A71"/>
<g clipPath="url(#clip0_1577_21835)">
<path d="M16 24C16 19.5817 19.5817 16 24 16H258C262.418 16 266 19.5817 266 24V133H16V24Z" fill="white"/>
<path d="M69 36C69 33.7909 70.7909 32 73 32H209C211.209 32 213 33.7909 213 36V133H69V36Z" fill="#F8F8F8"/>
<rect x="89" y="93" width="80" height="8" rx="2" fill="#ECECEC"/>
<rect x="89" y="81" width="48" height="8" rx="2" fill="#ECECEC"/>
<rect x="89" y="105" width="116" height="8" rx="2" fill="#ECECEC"/>
<rect x="89" y="117" width="116" height="8" rx="2" fill="#ECECEC"/>
<rect x="77" y="40" width="128" height="32" rx="2" fill="#69A3CC" fill-opacity="0.16"/>
<rect x="77" y="93" width="8" height="8" rx="2" fill="#ECECEC"/>
<rect x="77" y="81" width="8" height="8" rx="2" fill="#ECECEC"/>
<rect x="77" y="105" width="8" height="8" rx="2" fill="#ECECEC"/>
<rect x="77" y="117" width="8" height="8" rx="2" fill="#ECECEC"/>
<rect x="32" y="77" width="80" height="40" rx="4" fill="#69A3CC" fill-opacity="0.4"/>
<rect x="36" y="81" width="36" height="8" rx="2" fill="white"/>
<rect x="36" y="93" width="72" height="8" rx="2" fill="white"/>
<rect x="36" y="105" width="48" height="8" rx="2" fill="white"/>
<rect x="170" y="48" width="80" height="16" rx="4" fill="#69A3CC" fill-opacity="0.8"/>
<rect x="174" y="52" width="8" height="8" rx="2" fill="white"/>
<rect x="186" y="52" width="60" height="8" rx="2" fill="white"/>
<rect x="170" y="68" width="80" height="16" rx="4" fill="#69A3CC" fill-opacity="0.8"/>
<rect x="174" y="72" width="8" height="8" rx="2" fill="white"/>
<rect x="186" y="72" width="60" height="8" rx="2" fill="white"/>
</g>
<defs>
<clipPath id="clip0_1577_21835">
<path d="M16 24C16 19.5817 19.5817 16 24 16H258C262.418 16 266 19.5817 266 24V133H16V24Z" fill="white"/>
</clipPath>
</defs>
</svg>
