<svg width="1400" height="1024" viewBox="0 0 1400 1024" fill="none" xmlns="http://www.w3.org/2000/svg">
<g clipPath="url(#clip0_4286_164766)">
<rect x="-260" width="1920" height="1024" fill="url(#paint0_linear_4286_164766)"/>
<path opacity="0.08" fillRule="evenodd" clipRule="evenodd" d="M700 232.995C700 273.187 732.603 305.77 772.821 305.77L940.308 305.77C980.525 305.77 1013.13 273.187 1013.13 232.995L1013.13 35.4127L1013.13 7.39453L1013.13 -41.0005L872.585 -41.0005L872.585 0.117084L843.456 0.117081L843.456 -41.0005L700 -41.0005L700 7.3945L700 35.4126L700 232.995Z" fill="#CCF88E"/>
<path opacity="0.08" fillRule="evenodd" clipRule="evenodd" d="M626.128 378.774C626.128 338.582 593.525 306 553.308 306H320.282C316.26 306 313 309.258 313 313.277V576.357V604.375V652.77H456.456V611.652H482.672V652.77H626.128V604.375V576.357V378.774Z" fill="#FBF8F7"/>
<path opacity="0.08" d="M1154.69 614.2C1154.69 709.856 1071.93 787.4 969.845 787.4C867.758 787.4 785 709.856 785 614.2C785 518.544 867.758 441 969.845 441C1071.93 441 1154.69 518.544 1154.69 614.2Z" fill="#69A3CC"/>
<path opacity="0.08" d="M398 954.2C398 882.845 457.389 825 530.649 825H722.99C726.653 825 729.622 827.892 729.622 831.46V1141.54C729.622 1145.11 726.653 1148 722.99 1148H404.632C400.969 1148 398 1145.11 398 1141.54V954.2Z" fill="#F97F6F"/>
</g>
<defs>
<linearGradient id="paint0_linear_4286_164766" x1="140.645" y1="112" x2="371.066" y2="2075.01" gradientUnits="userSpaceOnUse">
<stop stop-color="#0C151D"/>
<stop offset="1" stop-color="#217BBB"/>
</linearGradient>
<clipPath id="clip0_4286_164766">
<rect width="1400" height="1024" fill="white"/>
</clipPath>
</defs>
</svg>
