<svg width="1304" height="406" viewBox="0 0 1304 406" fill="none" xmlns="http://www.w3.org/2000/svg">
<g clipPath="url(#clip0_3398_63321)">
<rect width="1304" height="406" rx="8" fill="#314A71"/>
<ellipse cx="1055.5" cy="203.5" rx="142.5" ry="142.5" transform="rotate(-180 1055.5 203.5)" fill="#69A3CC" fill-opacity="0.05"/>
<ellipse opacity="0.4" cx="1055.5" cy="203.5" rx="212.5" ry="212.5" transform="rotate(-180 1055.5 203.5)" fill="#69A3CC" fill-opacity="0.22"/>
<ellipse opacity="0.4" cx="1055.5" cy="203.5" rx="293.5" ry="293.5" transform="rotate(-180 1055.5 203.5)" fill="#69A3CC" fill-opacity="0.15"/>
<path d="M83.984 108V74.4H98.528C101.536 74.4 104.128 74.896 106.304 75.888C108.48 76.848 110.16 78.24 111.344 80.064C112.528 81.888 113.12 84.064 113.12 86.592C113.12 89.088 112.528 91.248 111.344 93.072C110.16 94.896 108.48 96.304 106.304 97.296C104.128 98.256 101.536 98.736 98.528 98.736H88.304L91.76 95.232V108H83.984ZM91.76 96.096L88.304 92.4H98.096C100.496 92.4 102.288 91.888 103.472 90.864C104.656 89.84 105.248 88.416 105.248 86.592C105.248 84.736 104.656 83.296 103.472 82.272C102.288 81.248 100.496 80.736 98.096 80.736H88.304L91.76 77.04V96.096ZM118.144 108V82.176H125.296V89.472L124.288 87.36C125.056 85.536 126.288 84.16 127.984 83.232C129.68 82.272 131.744 81.792 134.176 81.792V88.704C133.856 88.672 133.568 88.656 133.312 88.656C133.056 88.624 132.784 88.608 132.496 88.608C130.448 88.608 128.784 89.2 127.504 90.384C126.256 91.536 125.632 93.344 125.632 95.808V108H118.144ZM151.21 108.384C148.266 108.384 145.674 107.808 143.434 106.656C141.226 105.504 139.514 103.936 138.298 101.952C137.082 99.936 136.474 97.648 136.474 95.088C136.474 92.496 137.066 90.208 138.25 88.224C139.466 86.208 141.114 84.64 143.194 83.52C145.274 82.368 147.626 81.792 150.25 81.792C152.778 81.792 155.05 82.336 157.066 83.424C159.114 84.48 160.73 86.016 161.914 88.032C163.098 90.016 163.69 92.4 163.69 95.184C163.69 95.472 163.674 95.808 163.642 96.192C163.61 96.544 163.578 96.88 163.546 97.2H142.57V92.832H159.609L156.73 94.128C156.73 92.784 156.458 91.616 155.914 90.624C155.37 89.632 154.618 88.864 153.658 88.32C152.698 87.744 151.578 87.456 150.298 87.456C149.018 87.456 147.882 87.744 146.89 88.32C145.93 88.864 145.178 89.648 144.634 90.672C144.09 91.664 143.818 92.848 143.818 94.224V95.376C143.818 96.784 144.122 98.032 144.73 99.12C145.37 100.176 146.25 100.992 147.37 101.568C148.522 102.112 149.866 102.384 151.402 102.384C152.778 102.384 153.978 102.176 155.002 101.76C156.058 101.344 157.018 100.72 157.882 99.888L161.866 104.208C160.682 105.552 159.194 106.592 157.402 107.328C155.61 108.032 153.546 108.384 151.21 108.384ZM181.155 108.384C178.371 108.384 175.891 107.824 173.715 106.704C171.539 105.552 169.827 103.968 168.579 101.952C167.363 99.936 166.755 97.648 166.755 95.088C166.755 92.496 167.363 90.208 168.579 88.224C169.827 86.208 171.539 84.64 173.715 83.52C175.891 82.368 178.371 81.792 181.155 81.792C183.875 81.792 186.243 82.368 188.259 83.52C190.275 84.64 191.763 86.256 192.723 88.368L186.915 91.488C186.243 90.272 185.395 89.376 184.371 88.8C183.379 88.224 182.291 87.936 181.107 87.936C179.827 87.936 178.675 88.224 177.651 88.8C176.627 89.376 175.811 90.192 175.203 91.248C174.627 92.304 174.339 93.584 174.339 95.088C174.339 96.592 174.627 97.872 175.203 98.928C175.811 99.984 176.627 100.8 177.651 101.376C178.675 101.952 179.827 102.24 181.107 102.24C182.291 102.24 183.379 101.968 184.371 101.424C185.395 100.848 186.243 99.936 186.915 98.688L192.723 101.856C191.763 103.936 190.275 105.552 188.259 106.704C186.243 107.824 183.875 108.384 181.155 108.384ZM196.847 108V82.176H204.335V108H196.847ZM200.591 78.576C199.215 78.576 198.095 78.176 197.231 77.376C196.367 76.576 195.935 75.584 195.935 74.4C195.935 73.216 196.367 72.224 197.231 71.424C198.095 70.624 199.215 70.224 200.591 70.224C201.967 70.224 203.087 70.608 203.951 71.376C204.815 72.112 205.247 73.072 205.247 74.256C205.247 75.504 204.815 76.544 203.951 77.376C203.119 78.176 201.999 78.576 200.591 78.576ZM219.972 108.384C217.764 108.384 215.636 108.128 213.588 107.616C211.572 107.072 209.972 106.4 208.788 105.6L211.284 100.224C212.468 100.96 213.86 101.568 215.46 102.048C217.092 102.496 218.692 102.72 220.26 102.72C221.988 102.72 223.204 102.512 223.908 102.096C224.644 101.68 225.012 101.104 225.012 100.368C225.012 99.76 224.724 99.312 224.148 99.024C223.604 98.704 222.868 98.464 221.94 98.304C221.012 98.144 219.988 97.984 218.868 97.824C217.78 97.664 216.676 97.456 215.556 97.2C214.436 96.912 213.412 96.496 212.484 95.952C211.556 95.408 210.804 94.672 210.228 93.744C209.684 92.816 209.412 91.616 209.412 90.144C209.412 88.512 209.876 87.072 210.804 85.824C211.764 84.576 213.14 83.6 214.932 82.896C216.724 82.16 218.868 81.792 221.364 81.792C223.124 81.792 224.916 81.984 226.74 82.368C228.564 82.752 230.084 83.312 231.3 84.048L228.804 89.376C227.556 88.64 226.292 88.144 225.012 87.888C223.764 87.6 222.548 87.456 221.364 87.456C219.7 87.456 218.484 87.68 217.716 88.128C216.948 88.576 216.564 89.152 216.564 89.856C216.564 90.496 216.836 90.976 217.38 91.296C217.956 91.616 218.708 91.872 219.636 92.064C220.564 92.256 221.572 92.432 222.66 92.592C223.78 92.72 224.9 92.928 226.02 93.216C227.14 93.504 228.148 93.92 229.044 94.464C229.972 94.976 230.724 95.696 231.3 96.624C231.876 97.52 232.164 98.704 232.164 100.176C232.164 101.776 231.684 103.2 230.724 104.448C229.764 105.664 228.372 106.624 226.548 107.328C224.756 108.032 222.564 108.384 219.972 108.384ZM236.784 108V82.176H244.272V108H236.784ZM240.528 78.576C239.152 78.576 238.032 78.176 237.168 77.376C236.304 76.576 235.872 75.584 235.872 74.4C235.872 73.216 236.304 72.224 237.168 71.424C238.032 70.624 239.152 70.224 240.528 70.224C241.904 70.224 243.024 70.608 243.888 71.376C244.752 72.112 245.184 73.072 245.184 74.256C245.184 75.504 244.752 76.544 243.888 77.376C243.056 78.176 241.936 78.576 240.528 78.576ZM263.51 108.384C260.758 108.384 258.31 107.808 256.166 106.656C254.054 105.504 252.374 103.936 251.126 101.952C249.91 99.936 249.302 97.648 249.302 95.088C249.302 92.496 249.91 90.208 251.126 88.224C252.374 86.208 254.054 84.64 256.166 83.52C258.31 82.368 260.758 81.792 263.51 81.792C266.23 81.792 268.662 82.368 270.806 83.52C272.95 84.64 274.63 86.192 275.846 88.176C277.062 90.16 277.67 92.464 277.67 95.088C277.67 97.648 277.062 99.936 275.846 101.952C274.63 103.936 272.95 105.504 270.806 106.656C268.662 107.808 266.23 108.384 263.51 108.384ZM263.51 102.24C264.758 102.24 265.878 101.952 266.87 101.376C267.862 100.8 268.646 99.984 269.222 98.928C269.798 97.84 270.086 96.56 270.086 95.088C270.086 93.584 269.798 92.304 269.222 91.248C268.646 90.192 267.862 89.376 266.87 88.8C265.878 88.224 264.758 87.936 263.51 87.936C262.262 87.936 261.142 88.224 260.15 88.8C259.158 89.376 258.358 90.192 257.75 91.248C257.174 92.304 256.886 93.584 256.886 95.088C256.886 96.56 257.174 97.84 257.75 98.928C258.358 99.984 259.158 100.8 260.15 101.376C261.142 101.952 262.262 102.24 263.51 102.24ZM298.371 81.792C300.419 81.792 302.243 82.208 303.843 83.04C305.475 83.84 306.755 85.088 307.683 86.784C308.611 88.448 309.075 90.592 309.075 93.216V108H301.587V94.368C301.587 92.288 301.123 90.752 300.195 89.76C299.299 88.768 298.019 88.272 296.355 88.272C295.171 88.272 294.099 88.528 293.139 89.04C292.211 89.52 291.475 90.272 290.931 91.296C290.419 92.32 290.163 93.632 290.163 95.232V108H282.675V82.176H289.827V89.328L288.483 87.168C289.411 85.44 290.739 84.112 292.467 83.184C294.195 82.256 296.163 81.792 298.371 81.792ZM83.984 180V146.4H91.76V180H83.984ZM114.902 153.792C116.95 153.792 118.774 154.208 120.374 155.04C122.006 155.84 123.286 157.088 124.214 158.784C125.142 160.448 125.606 162.592 125.606 165.216V180H118.118V166.368C118.118 164.288 117.654 162.752 116.726 161.76C115.83 160.768 114.55 160.272 112.886 160.272C111.702 160.272 110.63 160.528 109.67 161.04C108.742 161.52 108.006 162.272 107.462 163.296C106.95 164.32 106.694 165.632 106.694 167.232V180H99.206V154.176H106.358V161.328L105.014 159.168C105.942 157.44 107.27 156.112 108.998 155.184C110.726 154.256 112.694 153.792 114.902 153.792ZM142.099 180L157.075 146.4H164.755L179.779 180H171.619L159.331 150.336H162.403L150.067 180H142.099ZM149.587 172.8L151.651 166.896H168.931L171.043 172.8H149.587ZM191.191 180.384C188.983 180.384 186.855 180.128 184.807 179.616C182.791 179.072 181.191 178.4 180.007 177.6L182.503 172.224C183.687 172.96 185.079 173.568 186.679 174.048C188.311 174.496 189.911 174.72 191.479 174.72C193.207 174.72 194.423 174.512 195.127 174.096C195.863 173.68 196.231 173.104 196.231 172.368C196.231 171.76 195.943 171.312 195.367 171.024C194.823 170.704 194.087 170.464 193.159 170.304C192.231 170.144 191.207 169.984 190.087 169.824C188.999 169.664 187.895 169.456 186.775 169.2C185.655 168.912 184.631 168.496 183.703 167.952C182.775 167.408 182.023 166.672 181.447 165.744C180.903 164.816 180.631 163.616 180.631 162.144C180.631 160.512 181.095 159.072 182.023 157.824C182.983 156.576 184.359 155.6 186.151 154.896C187.943 154.16 190.087 153.792 192.583 153.792C194.343 153.792 196.135 153.984 197.959 154.368C199.783 154.752 201.303 155.312 202.519 156.048L200.023 161.376C198.775 160.64 197.511 160.144 196.231 159.888C194.983 159.6 193.767 159.456 192.583 159.456C190.919 159.456 189.703 159.68 188.935 160.128C188.167 160.576 187.783 161.152 187.783 161.856C187.783 162.496 188.055 162.976 188.599 163.296C189.175 163.616 189.927 163.872 190.855 164.064C191.783 164.256 192.791 164.432 193.879 164.592C194.999 164.72 196.119 164.928 197.239 165.216C198.359 165.504 199.367 165.92 200.263 166.464C201.191 166.976 201.943 167.696 202.519 168.624C203.095 169.52 203.383 170.704 203.383 172.176C203.383 173.776 202.903 175.2 201.943 176.448C200.983 177.664 199.591 178.624 197.767 179.328C195.975 180.032 193.783 180.384 191.191 180.384ZM216.691 180.384C214.483 180.384 212.355 180.128 210.307 179.616C208.291 179.072 206.691 178.4 205.507 177.6L208.003 172.224C209.187 172.96 210.579 173.568 212.179 174.048C213.811 174.496 215.411 174.72 216.979 174.72C218.707 174.72 219.923 174.512 220.627 174.096C221.363 173.68 221.731 173.104 221.731 172.368C221.731 171.76 221.443 171.312 220.867 171.024C220.323 170.704 219.587 170.464 218.659 170.304C217.731 170.144 216.707 169.984 215.587 169.824C214.499 169.664 213.395 169.456 212.275 169.2C211.155 168.912 210.131 168.496 209.203 167.952C208.275 167.408 207.523 166.672 206.947 165.744C206.403 164.816 206.131 163.616 206.131 162.144C206.131 160.512 206.595 159.072 207.523 157.824C208.483 156.576 209.859 155.6 211.651 154.896C213.443 154.16 215.587 153.792 218.083 153.792C219.843 153.792 221.635 153.984 223.459 154.368C225.283 154.752 226.803 155.312 228.019 156.048L225.523 161.376C224.275 160.64 223.011 160.144 221.731 159.888C220.483 159.6 219.267 159.456 218.083 159.456C216.419 159.456 215.203 159.68 214.435 160.128C213.667 160.576 213.283 161.152 213.283 161.856C213.283 162.496 213.555 162.976 214.099 163.296C214.675 163.616 215.427 163.872 216.355 164.064C217.283 164.256 218.291 164.432 219.379 164.592C220.499 164.72 221.619 164.928 222.739 165.216C223.859 165.504 224.867 165.92 225.763 166.464C226.691 166.976 227.443 167.696 228.019 168.624C228.595 169.52 228.883 170.704 228.883 172.176C228.883 173.776 228.403 175.2 227.443 176.448C226.483 177.664 225.091 178.624 223.267 179.328C221.475 180.032 219.283 180.384 216.691 180.384ZM246.319 180.384C243.375 180.384 240.783 179.808 238.543 178.656C236.335 177.504 234.623 175.936 233.407 173.952C232.191 171.936 231.583 169.648 231.583 167.088C231.583 164.496 232.175 162.208 233.359 160.224C234.575 158.208 236.223 156.64 238.303 155.52C240.383 154.368 242.735 153.792 245.359 153.792C247.887 153.792 250.159 154.336 252.175 155.424C254.223 156.48 255.839 158.016 257.023 160.032C258.207 162.016 258.799 164.4 258.799 167.184C258.799 167.472 258.783 167.808 258.751 168.192C258.719 168.544 258.687 168.88 258.655 169.2H237.679V164.832H254.719L251.839 166.128C251.839 164.784 251.567 163.616 251.023 162.624C250.479 161.632 249.727 160.864 248.767 160.32C247.807 159.744 246.687 159.456 245.407 159.456C244.127 159.456 242.991 159.744 241.999 160.32C241.039 160.864 240.287 161.648 239.743 162.672C239.199 163.664 238.927 164.848 238.927 166.224V167.376C238.927 168.784 239.231 170.032 239.839 171.12C240.479 172.176 241.359 172.992 242.479 173.568C243.631 174.112 244.975 174.384 246.511 174.384C247.887 174.384 249.087 174.176 250.111 173.76C251.167 173.344 252.127 172.72 252.991 171.888L256.975 176.208C255.791 177.552 254.303 178.592 252.511 179.328C250.719 180.032 248.655 180.384 246.319 180.384ZM272.472 180.384C270.264 180.384 268.136 180.128 266.088 179.616C264.072 179.072 262.472 178.4 261.288 177.6L263.784 172.224C264.968 172.96 266.36 173.568 267.96 174.048C269.592 174.496 271.192 174.72 272.76 174.72C274.488 174.72 275.704 174.512 276.408 174.096C277.144 173.68 277.512 173.104 277.512 172.368C277.512 171.76 277.224 171.312 276.648 171.024C276.104 170.704 275.368 170.464 274.44 170.304C273.512 170.144 272.488 169.984 271.368 169.824C270.28 169.664 269.176 169.456 268.056 169.2C266.936 168.912 265.912 168.496 264.984 167.952C264.056 167.408 263.304 166.672 262.728 165.744C262.184 164.816 261.912 163.616 261.912 162.144C261.912 160.512 262.376 159.072 263.304 157.824C264.264 156.576 265.64 155.6 267.432 154.896C269.224 154.16 271.368 153.792 273.864 153.792C275.624 153.792 277.416 153.984 279.24 154.368C281.064 154.752 282.584 155.312 283.8 156.048L281.304 161.376C280.056 160.64 278.792 160.144 277.512 159.888C276.264 159.6 275.048 159.456 273.864 159.456C272.2 159.456 270.984 159.68 270.216 160.128C269.448 160.576 269.064 161.152 269.064 161.856C269.064 162.496 269.336 162.976 269.88 163.296C270.456 163.616 271.208 163.872 272.136 164.064C273.064 164.256 274.072 164.432 275.16 164.592C276.28 164.72 277.4 164.928 278.52 165.216C279.64 165.504 280.648 165.92 281.544 166.464C282.472 166.976 283.224 167.696 283.8 168.624C284.376 169.52 284.664 170.704 284.664 172.176C284.664 173.776 284.184 175.2 283.224 176.448C282.264 177.664 280.872 178.624 279.048 179.328C277.256 180.032 275.064 180.384 272.472 180.384ZM297.972 180.384C295.764 180.384 293.636 180.128 291.588 179.616C289.572 179.072 287.972 178.4 286.788 177.6L289.284 172.224C290.468 172.96 291.86 173.568 293.46 174.048C295.092 174.496 296.692 174.72 298.26 174.72C299.988 174.72 301.204 174.512 301.908 174.096C302.644 173.68 303.012 173.104 303.012 172.368C303.012 171.76 302.724 171.312 302.148 171.024C301.604 170.704 300.868 170.464 299.94 170.304C299.012 170.144 297.988 169.984 296.868 169.824C295.78 169.664 294.676 169.456 293.556 169.2C292.436 168.912 291.412 168.496 290.484 167.952C289.556 167.408 288.804 166.672 288.228 165.744C287.684 164.816 287.412 163.616 287.412 162.144C287.412 160.512 287.876 159.072 288.804 157.824C289.764 156.576 291.14 155.6 292.932 154.896C294.724 154.16 296.868 153.792 299.364 153.792C301.124 153.792 302.916 153.984 304.74 154.368C306.564 154.752 308.084 155.312 309.3 156.048L306.804 161.376C305.556 160.64 304.292 160.144 303.012 159.888C301.764 159.6 300.548 159.456 299.364 159.456C297.7 159.456 296.484 159.68 295.716 160.128C294.948 160.576 294.564 161.152 294.564 161.856C294.564 162.496 294.836 162.976 295.38 163.296C295.956 163.616 296.708 163.872 297.636 164.064C298.564 164.256 299.572 164.432 300.66 164.592C301.78 164.72 302.9 164.928 304.02 165.216C305.14 165.504 306.148 165.92 307.044 166.464C307.972 166.976 308.724 167.696 309.3 168.624C309.876 169.52 310.164 170.704 310.164 172.176C310.164 173.776 309.684 175.2 308.724 176.448C307.764 177.664 306.372 178.624 304.548 179.328C302.756 180.032 300.564 180.384 297.972 180.384ZM347.856 153.792C349.904 153.792 351.712 154.208 353.28 155.04C354.88 155.84 356.128 157.088 357.024 158.784C357.952 160.448 358.416 162.592 358.416 165.216V180H350.928V166.368C350.928 164.288 350.496 162.752 349.632 161.76C348.768 160.768 347.552 160.272 345.984 160.272C344.896 160.272 343.92 160.528 343.056 161.04C342.192 161.52 341.52 162.256 341.04 163.248C340.56 164.24 340.32 165.504 340.32 167.04V180H332.832V166.368C332.832 164.288 332.4 162.752 331.536 161.76C330.704 160.768 329.504 160.272 327.936 160.272C326.848 160.272 325.872 160.528 325.008 161.04C324.144 161.52 323.472 162.256 322.992 163.248C322.512 164.24 322.272 165.504 322.272 167.04V180H314.784V154.176H321.936V161.232L320.592 159.168C321.488 157.408 322.752 156.08 324.384 155.184C326.048 154.256 327.936 153.792 330.048 153.792C332.416 153.792 334.48 154.4 336.24 155.616C338.032 156.8 339.216 158.624 339.792 161.088L337.152 160.368C338.016 158.352 339.392 156.752 341.28 155.568C343.2 154.384 345.392 153.792 347.856 153.792ZM378.131 180.384C375.187 180.384 372.595 179.808 370.355 178.656C368.147 177.504 366.435 175.936 365.219 173.952C364.003 171.936 363.395 169.648 363.395 167.088C363.395 164.496 363.987 162.208 365.171 160.224C366.387 158.208 368.035 156.64 370.115 155.52C372.195 154.368 374.547 153.792 377.171 153.792C379.699 153.792 381.971 154.336 383.987 155.424C386.035 156.48 387.651 158.016 388.835 160.032C390.019 162.016 390.611 164.4 390.611 167.184C390.611 167.472 390.595 167.808 390.563 168.192C390.531 168.544 390.499 168.88 390.467 169.2H369.491V164.832H386.531L383.651 166.128C383.651 164.784 383.379 163.616 382.835 162.624C382.291 161.632 381.539 160.864 380.579 160.32C379.619 159.744 378.499 159.456 377.219 159.456C375.939 159.456 374.803 159.744 373.811 160.32C372.851 160.864 372.099 161.648 371.555 162.672C371.011 163.664 370.739 164.848 370.739 166.224V167.376C370.739 168.784 371.043 170.032 371.651 171.12C372.291 172.176 373.171 172.992 374.291 173.568C375.443 174.112 376.787 174.384 378.323 174.384C379.699 174.384 380.899 174.176 381.923 173.76C382.979 173.344 383.939 172.72 384.803 171.888L388.787 176.208C387.603 177.552 386.115 178.592 384.323 179.328C382.531 180.032 380.467 180.384 378.131 180.384ZM411.293 153.792C413.341 153.792 415.165 154.208 416.765 155.04C418.397 155.84 419.677 157.088 420.605 158.784C421.533 160.448 421.997 162.592 421.997 165.216V180H414.509V166.368C414.509 164.288 414.045 162.752 413.117 161.76C412.221 160.768 410.941 160.272 409.277 160.272C408.093 160.272 407.021 160.528 406.061 161.04C405.133 161.52 404.397 162.272 403.853 163.296C403.341 164.32 403.085 165.632 403.085 167.232V180H395.597V154.176H402.749V161.328L401.405 159.168C402.333 157.44 403.661 156.112 405.389 155.184C407.117 154.256 409.085 153.792 411.293 153.792ZM439.344 180.384C436.304 180.384 433.936 179.616 432.24 178.08C430.544 176.512 429.696 174.192 429.696 171.12V148.464H437.184V171.024C437.184 172.112 437.472 172.96 438.048 173.568C438.624 174.144 439.408 174.432 440.4 174.432C441.584 174.432 442.592 174.112 443.424 173.472L445.44 178.752C444.672 179.296 443.744 179.712 442.656 180C441.6 180.256 440.496 180.384 439.344 180.384ZM425.712 160.512V154.752H443.616V160.512H425.712Z" fill="#FBF8F7"/>
<path fillRule="evenodd" clipRule="evenodd" d="M91.9997 307C91.8837 300.425 86.575 295.117 80 295.002V295C86.5757 294.885 91.8848 289.576 91.9997 283H92.0024C92.1173 289.575 97.4253 294.884 104 295V295.006C97.4272 295.122 92.1205 300.428 92.0025 307H91.9997Z" fill="#69A3CC"/>
<path d="M113.89 302V289.4H115.69V302H113.89ZM124.304 292.37C125.084 292.37 125.768 292.52 126.356 292.82C126.956 293.12 127.424 293.576 127.76 294.188C128.096 294.8 128.264 295.574 128.264 296.51V302H126.536V296.708C126.536 295.784 126.308 295.088 125.852 294.62C125.408 294.152 124.778 293.918 123.962 293.918C123.35 293.918 122.816 294.038 122.36 294.278C121.904 294.518 121.55 294.872 121.298 295.34C121.058 295.808 120.938 296.39 120.938 297.086V302H119.21V292.46H120.866V295.034L120.596 294.35C120.908 293.726 121.388 293.24 122.036 292.892C122.684 292.544 123.44 292.37 124.304 292.37ZM134.198 302.108C133.406 302.108 132.65 302 131.93 301.784C131.222 301.568 130.664 301.304 130.256 300.992L130.976 299.624C131.384 299.9 131.888 300.134 132.488 300.326C133.088 300.518 133.7 300.614 134.324 300.614C135.128 300.614 135.704 300.5 136.052 300.272C136.412 300.044 136.592 299.726 136.592 299.318C136.592 299.018 136.484 298.784 136.268 298.616C136.052 298.448 135.764 298.322 135.404 298.238C135.056 298.154 134.666 298.082 134.234 298.022C133.802 297.95 133.37 297.866 132.938 297.77C132.506 297.662 132.11 297.518 131.75 297.338C131.39 297.146 131.102 296.888 130.886 296.564C130.67 296.228 130.562 295.784 130.562 295.232C130.562 294.656 130.724 294.152 131.048 293.72C131.372 293.288 131.828 292.958 132.416 292.73C133.016 292.49 133.724 292.37 134.54 292.37C135.164 292.37 135.794 292.448 136.43 292.604C137.078 292.748 137.606 292.958 138.014 293.234L137.276 294.602C136.844 294.314 136.394 294.116 135.926 294.008C135.458 293.9 134.99 293.846 134.522 293.846C133.766 293.846 133.202 293.972 132.83 294.224C132.458 294.464 132.272 294.776 132.272 295.16C132.272 295.484 132.38 295.736 132.596 295.916C132.824 296.084 133.112 296.216 133.46 296.312C133.82 296.408 134.216 296.492 134.648 296.564C135.08 296.624 135.512 296.708 135.944 296.816C136.376 296.912 136.766 297.05 137.114 297.23C137.474 297.41 137.762 297.662 137.978 297.986C138.206 298.31 138.32 298.742 138.32 299.282C138.32 299.858 138.152 300.356 137.816 300.776C137.48 301.196 137.006 301.526 136.394 301.766C135.782 301.994 135.05 302.108 134.198 302.108ZM143.756 302.108C142.796 302.108 142.052 301.85 141.524 301.334C140.996 300.818 140.732 300.08 140.732 299.12V290.372H142.46V299.048C142.46 299.564 142.586 299.96 142.838 300.236C143.102 300.512 143.474 300.65 143.954 300.65C144.494 300.65 144.944 300.5 145.304 300.2L145.844 301.442C145.58 301.67 145.262 301.838 144.89 301.946C144.53 302.054 144.152 302.108 143.756 302.108ZM139.112 293.882V292.46H145.196V293.882H139.112ZM153.855 302V299.984L153.765 299.606V296.168C153.765 295.436 153.549 294.872 153.117 294.476C152.697 294.068 152.061 293.864 151.209 293.864C150.645 293.864 150.093 293.96 149.553 294.152C149.013 294.332 148.557 294.578 148.185 294.89L147.465 293.594C147.957 293.198 148.545 292.898 149.229 292.694C149.925 292.478 150.651 292.37 151.407 292.37C152.715 292.37 153.723 292.688 154.431 293.324C155.139 293.96 155.493 294.932 155.493 296.24V302H153.855ZM150.723 302.108C150.015 302.108 149.391 301.988 148.851 301.748C148.323 301.508 147.915 301.178 147.627 300.758C147.339 300.326 147.195 299.84 147.195 299.3C147.195 298.784 147.315 298.316 147.555 297.896C147.807 297.476 148.209 297.14 148.761 296.888C149.325 296.636 150.081 296.51 151.029 296.51H154.053V297.752H151.101C150.237 297.752 149.655 297.896 149.355 298.184C149.055 298.472 148.905 298.82 148.905 299.228C148.905 299.696 149.091 300.074 149.463 300.362C149.835 300.638 150.351 300.776 151.011 300.776C151.659 300.776 152.223 300.632 152.703 300.344C153.195 300.056 153.549 299.636 153.765 299.084L154.107 300.272C153.879 300.836 153.477 301.286 152.901 301.622C152.325 301.946 151.599 302.108 150.723 302.108ZM163.785 292.37C164.565 292.37 165.249 292.52 165.837 292.82C166.437 293.12 166.905 293.576 167.241 294.188C167.577 294.8 167.745 295.574 167.745 296.51V302H166.017V296.708C166.017 295.784 165.789 295.088 165.333 294.62C164.889 294.152 164.259 293.918 163.443 293.918C162.831 293.918 162.297 294.038 161.841 294.278C161.385 294.518 161.031 294.872 160.779 295.34C160.539 295.808 160.419 296.39 160.419 297.086V302H158.691V292.46H160.347V295.034L160.077 294.35C160.389 293.726 160.869 293.24 161.517 292.892C162.165 292.544 162.921 292.37 163.785 292.37ZM174.219 302.108C173.259 302.108 172.515 301.85 171.987 301.334C171.459 300.818 171.195 300.08 171.195 299.12V290.372H172.923V299.048C172.923 299.564 173.049 299.96 173.301 300.236C173.565 300.512 173.937 300.65 174.417 300.65C174.957 300.65 175.407 300.5 175.767 300.2L176.307 301.442C176.043 301.67 175.725 301.838 175.353 301.946C174.993 302.054 174.615 302.108 174.219 302.108ZM169.575 293.882V292.46H175.659V293.882H169.575ZM187.388 302.108C186.416 302.108 185.546 301.898 184.778 301.478C184.022 301.058 183.428 300.482 182.996 299.75C182.564 299.018 182.348 298.178 182.348 297.23C182.348 296.282 182.564 295.442 182.996 294.71C183.428 293.978 184.022 293.408 184.778 293C185.546 292.58 186.416 292.37 187.388 292.37C188.252 292.37 189.02 292.544 189.692 292.892C190.376 293.228 190.904 293.732 191.276 294.404L189.962 295.25C189.65 294.782 189.266 294.44 188.81 294.224C188.366 293.996 187.886 293.882 187.37 293.882C186.746 293.882 186.188 294.02 185.696 294.296C185.204 294.572 184.814 294.962 184.526 295.466C184.238 295.958 184.094 296.546 184.094 297.23C184.094 297.914 184.238 298.508 184.526 299.012C184.814 299.516 185.204 299.906 185.696 300.182C186.188 300.458 186.746 300.596 187.37 300.596C187.886 300.596 188.366 300.488 188.81 300.272C189.266 300.044 189.65 299.696 189.962 299.228L191.276 300.056C190.904 300.716 190.376 301.226 189.692 301.586C189.02 301.934 188.252 302.108 187.388 302.108ZM197.458 302.108C196.498 302.108 195.646 301.898 194.902 301.478C194.158 301.058 193.57 300.482 193.138 299.75C192.706 299.006 192.49 298.166 192.49 297.23C192.49 296.282 192.706 295.442 193.138 294.71C193.57 293.978 194.158 293.408 194.902 293C195.646 292.58 196.498 292.37 197.458 292.37C198.406 292.37 199.252 292.58 199.996 293C200.752 293.408 201.34 293.978 201.76 294.71C202.192 295.43 202.408 296.27 202.408 297.23C202.408 298.178 202.192 299.018 201.76 299.75C201.34 300.482 200.752 301.058 199.996 301.478C199.252 301.898 198.406 302.108 197.458 302.108ZM197.458 300.596C198.07 300.596 198.616 300.458 199.096 300.182C199.588 299.906 199.972 299.516 200.248 299.012C200.524 298.496 200.662 297.902 200.662 297.23C200.662 296.546 200.524 295.958 200.248 295.466C199.972 294.962 199.588 294.572 199.096 294.296C198.616 294.02 198.07 293.882 197.458 293.882C196.846 293.882 196.3 294.02 195.82 294.296C195.34 294.572 194.956 294.962 194.668 295.466C194.38 295.958 194.236 296.546 194.236 297.23C194.236 297.902 194.38 298.496 194.668 299.012C194.956 299.516 195.34 299.906 195.82 300.182C196.3 300.458 196.846 300.596 197.458 300.596ZM216.732 292.37C217.5 292.37 218.178 292.52 218.766 292.82C219.354 293.12 219.81 293.576 220.134 294.188C220.47 294.8 220.638 295.574 220.638 296.51V302H218.91V296.708C218.91 295.784 218.694 295.088 218.262 294.62C217.83 294.152 217.224 293.918 216.444 293.918C215.868 293.918 215.364 294.038 214.932 294.278C214.5 294.518 214.164 294.872 213.924 295.34C213.696 295.808 213.582 296.39 213.582 297.086V302H211.854V296.708C211.854 295.784 211.638 295.088 211.206 294.62C210.786 294.152 210.18 293.918 209.388 293.918C208.824 293.918 208.326 294.038 207.894 294.278C207.462 294.518 207.126 294.872 206.886 295.34C206.646 295.808 206.526 296.39 206.526 297.086V302H204.798V292.46H206.454V294.998L206.184 294.35C206.484 293.726 206.946 293.24 207.57 292.892C208.194 292.544 208.92 292.37 209.748 292.37C210.66 292.37 211.446 292.598 212.106 293.054C212.766 293.498 213.198 294.176 213.402 295.088L212.7 294.8C212.988 294.068 213.492 293.48 214.212 293.036C214.932 292.592 215.772 292.37 216.732 292.37ZM228.876 302.108C228.084 302.108 227.358 301.928 226.698 301.568C226.05 301.196 225.528 300.65 225.132 299.93C224.748 299.21 224.556 298.31 224.556 297.23C224.556 296.15 224.742 295.25 225.114 294.53C225.498 293.81 226.014 293.27 226.662 292.91C227.322 292.55 228.06 292.37 228.876 292.37C229.812 292.37 230.64 292.574 231.36 292.982C232.08 293.39 232.65 293.96 233.07 294.692C233.49 295.412 233.7 296.258 233.7 297.23C233.7 298.202 233.49 299.054 233.07 299.786C232.65 300.518 232.08 301.088 231.36 301.496C230.64 301.904 229.812 302.108 228.876 302.108ZM223.818 305.492V292.46H225.474V295.034L225.366 297.248L225.546 299.462V305.492H223.818ZM228.732 300.596C229.344 300.596 229.89 300.458 230.37 300.182C230.862 299.906 231.246 299.516 231.522 299.012C231.81 298.496 231.954 297.902 231.954 297.23C231.954 296.546 231.81 295.958 231.522 295.466C231.246 294.962 230.862 294.572 230.37 294.296C229.89 294.02 229.344 293.882 228.732 293.882C228.132 293.882 227.586 294.02 227.094 294.296C226.614 294.572 226.23 294.962 225.942 295.466C225.666 295.958 225.528 296.546 225.528 297.23C225.528 297.902 225.666 298.496 225.942 299.012C226.23 299.516 226.614 299.906 227.094 300.182C227.586 300.458 228.132 300.596 228.732 300.596ZM236.087 302V292.46H237.743V295.052L237.581 294.404C237.845 293.744 238.289 293.24 238.913 292.892C239.537 292.544 240.305 292.37 241.217 292.37V294.044C241.145 294.032 241.073 294.026 241.001 294.026C240.941 294.026 240.881 294.026 240.821 294.026C239.897 294.026 239.165 294.302 238.625 294.854C238.085 295.406 237.815 296.204 237.815 297.248V302H236.087ZM247.507 302.108C246.487 302.108 245.587 301.898 244.807 301.478C244.039 301.058 243.439 300.482 243.007 299.75C242.587 299.018 242.377 298.178 242.377 297.23C242.377 296.282 242.581 295.442 242.989 294.71C243.409 293.978 243.979 293.408 244.699 293C245.431 292.58 246.253 292.37 247.165 292.37C248.089 292.37 248.905 292.574 249.613 292.982C250.321 293.39 250.873 293.966 251.269 294.71C251.677 295.442 251.881 296.3 251.881 297.284C251.881 297.356 251.875 297.44 251.863 297.536C251.863 297.632 251.857 297.722 251.845 297.806H243.727V296.564H250.945L250.243 296.996C250.255 296.384 250.129 295.838 249.865 295.358C249.601 294.878 249.235 294.506 248.767 294.242C248.311 293.966 247.777 293.828 247.165 293.828C246.565 293.828 246.031 293.966 245.563 294.242C245.095 294.506 244.729 294.884 244.465 295.376C244.201 295.856 244.069 296.408 244.069 297.032V297.32C244.069 297.956 244.213 298.526 244.501 299.03C244.801 299.522 245.215 299.906 245.743 300.182C246.271 300.458 246.877 300.596 247.561 300.596C248.125 300.596 248.635 300.5 249.091 300.308C249.559 300.116 249.967 299.828 250.315 299.444L251.269 300.56C250.837 301.064 250.297 301.448 249.649 301.712C249.013 301.976 248.299 302.108 247.507 302.108ZM259.375 292.37C260.155 292.37 260.839 292.52 261.427 292.82C262.027 293.12 262.495 293.576 262.831 294.188C263.167 294.8 263.335 295.574 263.335 296.51V302H261.607V296.708C261.607 295.784 261.379 295.088 260.923 294.62C260.479 294.152 259.849 293.918 259.033 293.918C258.421 293.918 257.887 294.038 257.431 294.278C256.975 294.518 256.621 294.872 256.369 295.34C256.129 295.808 256.009 296.39 256.009 297.086V302H254.281V288.644H256.009V295.034L255.667 294.35C255.979 293.726 256.459 293.24 257.107 292.892C257.755 292.544 258.511 292.37 259.375 292.37ZM270.781 302.108C269.761 302.108 268.861 301.898 268.081 301.478C267.313 301.058 266.713 300.482 266.281 299.75C265.861 299.018 265.651 298.178 265.651 297.23C265.651 296.282 265.855 295.442 266.263 294.71C266.683 293.978 267.253 293.408 267.973 293C268.705 292.58 269.527 292.37 270.439 292.37C271.363 292.37 272.179 292.574 272.887 292.982C273.595 293.39 274.147 293.966 274.543 294.71C274.951 295.442 275.155 296.3 275.155 297.284C275.155 297.356 275.149 297.44 275.137 297.536C275.137 297.632 275.131 297.722 275.119 297.806H267.001V296.564H274.219L273.517 296.996C273.529 296.384 273.403 295.838 273.139 295.358C272.875 294.878 272.509 294.506 272.041 294.242C271.585 293.966 271.051 293.828 270.439 293.828C269.839 293.828 269.305 293.966 268.837 294.242C268.369 294.506 268.003 294.884 267.739 295.376C267.475 295.856 267.343 296.408 267.343 297.032V297.32C267.343 297.956 267.487 298.526 267.775 299.03C268.075 299.522 268.489 299.906 269.017 300.182C269.545 300.458 270.151 300.596 270.835 300.596C271.399 300.596 271.909 300.5 272.365 300.308C272.833 300.116 273.241 299.828 273.589 299.444L274.543 300.56C274.111 301.064 273.571 301.448 272.923 301.712C272.287 301.976 271.573 302.108 270.781 302.108ZM282.648 292.37C283.428 292.37 284.112 292.52 284.7 292.82C285.3 293.12 285.768 293.576 286.104 294.188C286.44 294.8 286.608 295.574 286.608 296.51V302H284.88V296.708C284.88 295.784 284.652 295.088 284.196 294.62C283.752 294.152 283.122 293.918 282.306 293.918C281.694 293.918 281.16 294.038 280.704 294.278C280.248 294.518 279.894 294.872 279.642 295.34C279.402 295.808 279.282 296.39 279.282 297.086V302H277.554V292.46H279.21V295.034L278.94 294.35C279.252 293.726 279.732 293.24 280.38 292.892C281.028 292.544 281.784 292.37 282.648 292.37ZM292.542 302.108C291.75 302.108 290.994 302 290.274 301.784C289.566 301.568 289.008 301.304 288.6 300.992L289.32 299.624C289.728 299.9 290.232 300.134 290.832 300.326C291.432 300.518 292.044 300.614 292.668 300.614C293.472 300.614 294.048 300.5 294.396 300.272C294.756 300.044 294.936 299.726 294.936 299.318C294.936 299.018 294.828 298.784 294.612 298.616C294.396 298.448 294.108 298.322 293.748 298.238C293.4 298.154 293.01 298.082 292.578 298.022C292.146 297.95 291.714 297.866 291.282 297.77C290.85 297.662 290.454 297.518 290.094 297.338C289.734 297.146 289.446 296.888 289.23 296.564C289.014 296.228 288.906 295.784 288.906 295.232C288.906 294.656 289.068 294.152 289.392 293.72C289.716 293.288 290.172 292.958 290.76 292.73C291.36 292.49 292.068 292.37 292.884 292.37C293.508 292.37 294.138 292.448 294.774 292.604C295.422 292.748 295.95 292.958 296.358 293.234L295.62 294.602C295.188 294.314 294.738 294.116 294.27 294.008C293.802 293.9 293.334 293.846 292.866 293.846C292.11 293.846 291.546 293.972 291.174 294.224C290.802 294.464 290.616 294.776 290.616 295.16C290.616 295.484 290.724 295.736 290.94 295.916C291.168 296.084 291.456 296.216 291.804 296.312C292.164 296.408 292.56 296.492 292.992 296.564C293.424 296.624 293.856 296.708 294.288 296.816C294.72 296.912 295.11 297.05 295.458 297.23C295.818 297.41 296.106 297.662 296.322 297.986C296.55 298.31 296.664 298.742 296.664 299.282C296.664 299.858 296.496 300.356 296.16 300.776C295.824 301.196 295.35 301.526 294.738 301.766C294.126 301.994 293.394 302.108 292.542 302.108ZM298.824 302V292.46H300.552V302H298.824ZM299.688 290.624C299.352 290.624 299.07 290.516 298.842 290.3C298.626 290.084 298.518 289.82 298.518 289.508C298.518 289.184 298.626 288.914 298.842 288.698C299.07 288.482 299.352 288.374 299.688 288.374C300.024 288.374 300.3 288.482 300.516 288.698C300.744 288.902 300.858 289.16 300.858 289.472C300.858 289.796 300.75 290.072 300.534 290.3C300.318 290.516 300.036 290.624 299.688 290.624ZM306.353 302L302.177 292.46H303.977L307.685 301.1H306.821L310.601 292.46H312.293L308.117 302H306.353ZM317.89 302.108C316.87 302.108 315.97 301.898 315.19 301.478C314.422 301.058 313.822 300.482 313.39 299.75C312.97 299.018 312.76 298.178 312.76 297.23C312.76 296.282 312.964 295.442 313.372 294.71C313.792 293.978 314.362 293.408 315.082 293C315.814 292.58 316.636 292.37 317.548 292.37C318.472 292.37 319.288 292.574 319.996 292.982C320.704 293.39 321.256 293.966 321.652 294.71C322.06 295.442 322.264 296.3 322.264 297.284C322.264 297.356 322.258 297.44 322.246 297.536C322.246 297.632 322.24 297.722 322.228 297.806H314.11V296.564H321.328L320.626 296.996C320.638 296.384 320.512 295.838 320.248 295.358C319.984 294.878 319.618 294.506 319.15 294.242C318.694 293.966 318.16 293.828 317.548 293.828C316.948 293.828 316.414 293.966 315.946 294.242C315.478 294.506 315.112 294.884 314.848 295.376C314.584 295.856 314.452 296.408 314.452 297.032V297.32C314.452 297.956 314.596 298.526 314.884 299.03C315.184 299.522 315.598 299.906 316.126 300.182C316.654 300.458 317.26 300.596 317.944 300.596C318.508 300.596 319.018 300.5 319.474 300.308C319.942 300.116 320.35 299.828 320.698 299.444L321.652 300.56C321.22 301.064 320.68 301.448 320.032 301.712C319.396 301.976 318.682 302.108 317.89 302.108ZM329.497 302V292.46H331.153V295.052L330.991 294.404C331.255 293.744 331.699 293.24 332.323 292.892C332.947 292.544 333.715 292.37 334.627 292.37V294.044C334.555 294.032 334.483 294.026 334.411 294.026C334.351 294.026 334.291 294.026 334.231 294.026C333.307 294.026 332.575 294.302 332.035 294.854C331.495 295.406 331.225 296.204 331.225 297.248V302H329.497ZM340.917 302.108C339.897 302.108 338.997 301.898 338.217 301.478C337.449 301.058 336.849 300.482 336.417 299.75C335.997 299.018 335.787 298.178 335.787 297.23C335.787 296.282 335.991 295.442 336.399 294.71C336.819 293.978 337.389 293.408 338.109 293C338.841 292.58 339.663 292.37 340.575 292.37C341.499 292.37 342.315 292.574 343.023 292.982C343.731 293.39 344.283 293.966 344.679 294.71C345.087 295.442 345.291 296.3 345.291 297.284C345.291 297.356 345.285 297.44 345.273 297.536C345.273 297.632 345.267 297.722 345.255 297.806H337.137V296.564H344.355L343.653 296.996C343.665 296.384 343.539 295.838 343.275 295.358C343.011 294.878 342.645 294.506 342.177 294.242C341.721 293.966 341.187 293.828 340.575 293.828C339.975 293.828 339.441 293.966 338.973 294.242C338.505 294.506 338.139 294.884 337.875 295.376C337.611 295.856 337.479 296.408 337.479 297.032V297.32C337.479 297.956 337.623 298.526 337.911 299.03C338.211 299.522 338.625 299.906 339.153 300.182C339.681 300.458 340.287 300.596 340.971 300.596C341.535 300.596 342.045 300.5 342.501 300.308C342.969 300.116 343.377 299.828 343.725 299.444L344.679 300.56C344.247 301.064 343.707 301.448 343.059 301.712C342.423 301.976 341.709 302.108 340.917 302.108ZM350.427 302.108C349.635 302.108 348.879 302 348.159 301.784C347.451 301.568 346.893 301.304 346.485 300.992L347.205 299.624C347.613 299.9 348.117 300.134 348.717 300.326C349.317 300.518 349.929 300.614 350.553 300.614C351.357 300.614 351.933 300.5 352.281 300.272C352.641 300.044 352.821 299.726 352.821 299.318C352.821 299.018 352.713 298.784 352.497 298.616C352.281 298.448 351.993 298.322 351.633 298.238C351.285 298.154 350.895 298.082 350.463 298.022C350.031 297.95 349.599 297.866 349.167 297.77C348.735 297.662 348.339 297.518 347.979 297.338C347.619 297.146 347.331 296.888 347.115 296.564C346.899 296.228 346.791 295.784 346.791 295.232C346.791 294.656 346.953 294.152 347.277 293.72C347.601 293.288 348.057 292.958 348.645 292.73C349.245 292.49 349.953 292.37 350.769 292.37C351.393 292.37 352.023 292.448 352.659 292.604C353.307 292.748 353.835 292.958 354.243 293.234L353.505 294.602C353.073 294.314 352.623 294.116 352.155 294.008C351.687 293.9 351.219 293.846 350.751 293.846C349.995 293.846 349.431 293.972 349.059 294.224C348.687 294.464 348.501 294.776 348.501 295.16C348.501 295.484 348.609 295.736 348.825 295.916C349.053 296.084 349.341 296.216 349.689 296.312C350.049 296.408 350.445 296.492 350.877 296.564C351.309 296.624 351.741 296.708 352.173 296.816C352.605 296.912 352.995 297.05 353.343 297.23C353.703 297.41 353.991 297.662 354.207 297.986C354.435 298.31 354.549 298.742 354.549 299.282C354.549 299.858 354.381 300.356 354.045 300.776C353.709 301.196 353.235 301.526 352.623 301.766C352.011 301.994 351.279 302.108 350.427 302.108ZM360.722 302.108C359.906 302.108 359.186 301.958 358.562 301.658C357.95 301.358 357.47 300.902 357.122 300.29C356.786 299.666 356.618 298.886 356.618 297.95V292.46H358.346V297.752C358.346 298.688 358.568 299.39 359.012 299.858C359.468 300.326 360.104 300.56 360.92 300.56C361.52 300.56 362.042 300.44 362.486 300.2C362.93 299.948 363.272 299.588 363.512 299.12C363.752 298.64 363.872 298.064 363.872 297.392V292.46H365.6V302H363.962V299.426L364.232 300.11C363.92 300.746 363.452 301.238 362.828 301.586C362.204 301.934 361.502 302.108 360.722 302.108ZM368.89 302V288.644H370.618V302H368.89ZM377.422 302.108C376.462 302.108 375.718 301.85 375.19 301.334C374.662 300.818 374.398 300.08 374.398 299.12V290.372H376.126V299.048C376.126 299.564 376.252 299.96 376.504 300.236C376.768 300.512 377.14 300.65 377.62 300.65C378.16 300.65 378.61 300.5 378.97 300.2L379.51 301.442C379.246 301.67 378.928 301.838 378.556 301.946C378.196 302.054 377.818 302.108 377.422 302.108ZM372.778 293.882V292.46H378.862V293.882H372.778ZM384.335 302.108C383.543 302.108 382.787 302 382.067 301.784C381.359 301.568 380.801 301.304 380.393 300.992L381.113 299.624C381.521 299.9 382.025 300.134 382.625 300.326C383.225 300.518 383.837 300.614 384.461 300.614C385.265 300.614 385.841 300.5 386.189 300.272C386.549 300.044 386.729 299.726 386.729 299.318C386.729 299.018 386.621 298.784 386.405 298.616C386.189 298.448 385.901 298.322 385.541 298.238C385.193 298.154 384.803 298.082 384.371 298.022C383.939 297.95 383.507 297.866 383.075 297.77C382.643 297.662 382.247 297.518 381.887 297.338C381.527 297.146 381.239 296.888 381.023 296.564C380.807 296.228 380.699 295.784 380.699 295.232C380.699 294.656 380.861 294.152 381.185 293.72C381.509 293.288 381.965 292.958 382.553 292.73C383.153 292.49 383.861 292.37 384.677 292.37C385.301 292.37 385.931 292.448 386.567 292.604C387.215 292.748 387.743 292.958 388.151 293.234L387.413 294.602C386.981 294.314 386.531 294.116 386.063 294.008C385.595 293.9 385.127 293.846 384.659 293.846C383.903 293.846 383.339 293.972 382.967 294.224C382.595 294.464 382.409 294.776 382.409 295.16C382.409 295.484 382.517 295.736 382.733 295.916C382.961 296.084 383.249 296.216 383.597 296.312C383.957 296.408 384.353 296.492 384.785 296.564C385.217 296.624 385.649 296.708 386.081 296.816C386.513 296.912 386.903 297.05 387.251 297.23C387.611 297.41 387.899 297.662 388.115 297.986C388.343 298.31 388.457 298.742 388.457 299.282C388.457 299.858 388.289 300.356 387.953 300.776C387.617 301.196 387.143 301.526 386.531 301.766C385.919 301.994 385.187 302.108 384.335 302.108ZM389.933 304.664L390.833 301.028L391.067 302.072C390.719 302.072 390.425 301.964 390.185 301.748C389.957 301.532 389.843 301.238 389.843 300.866C389.843 300.506 389.957 300.212 390.185 299.984C390.425 299.756 390.713 299.642 391.049 299.642C391.397 299.642 391.679 299.762 391.895 300.002C392.111 300.23 392.219 300.518 392.219 300.866C392.219 300.986 392.207 301.106 392.183 301.226C392.171 301.334 392.141 301.466 392.093 301.622C392.057 301.766 391.997 301.946 391.913 302.162L391.067 304.664H389.933ZM405.451 302V299.984L405.361 299.606V296.168C405.361 295.436 405.145 294.872 404.713 294.476C404.293 294.068 403.657 293.864 402.805 293.864C402.241 293.864 401.689 293.96 401.149 294.152C400.609 294.332 400.153 294.578 399.781 294.89L399.061 293.594C399.553 293.198 400.141 292.898 400.825 292.694C401.521 292.478 402.247 292.37 403.003 292.37C404.311 292.37 405.319 292.688 406.027 293.324C406.735 293.96 407.089 294.932 407.089 296.24V302H405.451ZM402.319 302.108C401.611 302.108 400.987 301.988 400.447 301.748C399.919 301.508 399.511 301.178 399.223 300.758C398.935 300.326 398.791 299.84 398.791 299.3C398.791 298.784 398.911 298.316 399.151 297.896C399.403 297.476 399.805 297.14 400.357 296.888C400.921 296.636 401.677 296.51 402.625 296.51H405.649V297.752H402.697C401.833 297.752 401.251 297.896 400.951 298.184C400.651 298.472 400.501 298.82 400.501 299.228C400.501 299.696 400.687 300.074 401.059 300.362C401.431 300.638 401.947 300.776 402.607 300.776C403.255 300.776 403.819 300.632 404.299 300.344C404.791 300.056 405.145 299.636 405.361 299.084L405.703 300.272C405.475 300.836 405.073 301.286 404.497 301.622C403.921 301.946 403.195 302.108 402.319 302.108ZM415.38 292.37C416.16 292.37 416.844 292.52 417.432 292.82C418.032 293.12 418.5 293.576 418.836 294.188C419.172 294.8 419.34 295.574 419.34 296.51V302H417.612V296.708C417.612 295.784 417.384 295.088 416.928 294.62C416.484 294.152 415.854 293.918 415.038 293.918C414.426 293.918 413.892 294.038 413.436 294.278C412.98 294.518 412.626 294.872 412.374 295.34C412.134 295.808 412.014 296.39 412.014 297.086V302H410.286V292.46H411.942V295.034L411.672 294.35C411.984 293.726 412.464 293.24 413.112 292.892C413.76 292.544 414.516 292.37 415.38 292.37ZM426.48 302.108C425.556 302.108 424.728 301.904 423.996 301.496C423.276 301.088 422.706 300.518 422.286 299.786C421.866 299.054 421.656 298.202 421.656 297.23C421.656 296.258 421.866 295.412 422.286 294.692C422.706 293.96 423.276 293.39 423.996 292.982C424.728 292.574 425.556 292.37 426.48 292.37C427.284 292.37 428.01 292.55 428.658 292.91C429.306 293.27 429.822 293.81 430.206 294.53C430.602 295.25 430.8 296.15 430.8 297.23C430.8 298.31 430.608 299.21 430.224 299.93C429.852 300.65 429.342 301.196 428.694 301.568C428.046 301.928 427.308 302.108 426.48 302.108ZM426.624 300.596C427.224 300.596 427.764 300.458 428.244 300.182C428.736 299.906 429.12 299.516 429.396 299.012C429.684 298.496 429.828 297.902 429.828 297.23C429.828 296.546 429.684 295.958 429.396 295.466C429.12 294.962 428.736 294.572 428.244 294.296C427.764 294.02 427.224 293.882 426.624 293.882C426.012 293.882 425.466 294.02 424.986 294.296C424.506 294.572 424.122 294.962 423.834 295.466C423.546 295.958 423.402 296.546 423.402 297.23C423.402 297.902 423.546 298.496 423.834 299.012C424.122 299.516 424.506 299.906 424.986 300.182C425.466 300.458 426.012 300.596 426.624 300.596ZM429.882 302V299.426L429.99 297.212L429.81 294.998V288.644H431.538V302H429.882ZM443.566 302.144C442.606 302.144 441.688 302 440.812 301.712C439.936 301.412 439.246 301.028 438.742 300.56L439.408 299.156C439.888 299.576 440.5 299.924 441.244 300.2C441.988 300.476 442.762 300.614 443.566 300.614C444.298 300.614 444.892 300.53 445.348 300.362C445.804 300.194 446.14 299.966 446.356 299.678C446.572 299.378 446.68 299.042 446.68 298.67C446.68 298.238 446.536 297.89 446.248 297.626C445.972 297.362 445.606 297.152 445.15 296.996C444.706 296.828 444.214 296.684 443.674 296.564C443.134 296.444 442.588 296.306 442.036 296.15C441.496 295.982 440.998 295.772 440.542 295.52C440.098 295.268 439.738 294.932 439.462 294.512C439.186 294.08 439.048 293.528 439.048 292.856C439.048 292.208 439.216 291.614 439.552 291.074C439.9 290.522 440.428 290.084 441.136 289.76C441.856 289.424 442.768 289.256 443.872 289.256C444.604 289.256 445.33 289.352 446.05 289.544C446.77 289.736 447.394 290.012 447.922 290.372L447.328 291.812C446.788 291.452 446.218 291.194 445.618 291.038C445.018 290.87 444.436 290.786 443.872 290.786C443.164 290.786 442.582 290.876 442.126 291.056C441.67 291.236 441.334 291.476 441.118 291.776C440.914 292.076 440.812 292.412 440.812 292.784C440.812 293.228 440.95 293.582 441.226 293.846C441.514 294.11 441.88 294.32 442.324 294.476C442.78 294.632 443.278 294.776 443.818 294.908C444.358 295.028 444.898 295.166 445.438 295.322C445.99 295.478 446.488 295.682 446.932 295.934C447.388 296.186 447.754 296.522 448.03 296.942C448.306 297.362 448.444 297.902 448.444 298.562C448.444 299.198 448.27 299.792 447.922 300.344C447.574 300.884 447.034 301.322 446.302 301.658C445.582 301.982 444.67 302.144 443.566 302.144ZM453.972 302L449.76 289.4H451.614L455.484 301.028H454.548L458.562 289.4H460.218L464.142 301.028H463.242L467.166 289.4H468.876L464.664 302H462.774L459.102 291.218H459.588L455.898 302H453.972ZM476.625 302.144C475.665 302.144 474.771 301.982 473.943 301.658C473.127 301.334 472.419 300.884 471.819 300.308C471.219 299.72 470.751 299.036 470.415 298.256C470.079 297.476 469.911 296.624 469.911 295.7C469.911 294.776 470.079 293.924 470.415 293.144C470.751 292.364 471.219 291.686 471.819 291.11C472.419 290.522 473.127 290.066 473.943 289.742C474.759 289.418 475.653 289.256 476.625 289.256C477.585 289.256 478.467 289.418 479.271 289.742C480.087 290.054 480.795 290.504 481.395 291.092C482.007 291.668 482.475 292.346 482.799 293.126C483.135 293.906 483.303 294.764 483.303 295.7C483.303 296.636 483.135 297.494 482.799 298.274C482.475 299.054 482.007 299.738 481.395 300.326C480.795 300.902 480.087 301.352 479.271 301.676C478.467 301.988 477.585 302.144 476.625 302.144ZM476.625 300.542C477.321 300.542 477.963 300.422 478.551 300.182C479.151 299.942 479.667 299.606 480.099 299.174C480.543 298.73 480.885 298.214 481.125 297.626C481.377 297.038 481.503 296.396 481.503 295.7C481.503 295.004 481.377 294.362 481.125 293.774C480.885 293.186 480.543 292.676 480.099 292.244C479.667 291.8 479.151 291.458 478.551 291.218C477.963 290.978 477.321 290.858 476.625 290.858C475.917 290.858 475.263 290.978 474.663 291.218C474.075 291.458 473.559 291.8 473.115 292.244C472.671 292.676 472.323 293.186 472.071 293.774C471.831 294.362 471.711 295.004 471.711 295.7C471.711 296.396 471.831 297.038 472.071 297.626C472.323 298.214 472.671 298.73 473.115 299.174C473.559 299.606 474.075 299.942 474.663 300.182C475.263 300.422 475.917 300.542 476.625 300.542ZM488.38 302V290.966H484.06V289.4H494.482V290.966H490.162V302H488.38ZM506.947 302V299.984L506.857 299.606V296.168C506.857 295.436 506.641 294.872 506.209 294.476C505.789 294.068 505.153 293.864 504.301 293.864C503.737 293.864 503.185 293.96 502.645 294.152C502.105 294.332 501.649 294.578 501.277 294.89L500.557 293.594C501.049 293.198 501.637 292.898 502.321 292.694C503.017 292.478 503.743 292.37 504.499 292.37C505.807 292.37 506.815 292.688 507.523 293.324C508.231 293.96 508.585 294.932 508.585 296.24V302H506.947ZM503.815 302.108C503.107 302.108 502.483 301.988 501.943 301.748C501.415 301.508 501.007 301.178 500.719 300.758C500.431 300.326 500.287 299.84 500.287 299.3C500.287 298.784 500.407 298.316 500.647 297.896C500.899 297.476 501.301 297.14 501.853 296.888C502.417 296.636 503.173 296.51 504.121 296.51H507.145V297.752H504.193C503.329 297.752 502.747 297.896 502.447 298.184C502.147 298.472 501.997 298.82 501.997 299.228C501.997 299.696 502.183 300.074 502.555 300.362C502.927 300.638 503.443 300.776 504.103 300.776C504.751 300.776 505.315 300.632 505.795 300.344C506.287 300.056 506.641 299.636 506.857 299.084L507.199 300.272C506.971 300.836 506.569 301.286 505.993 301.622C505.417 301.946 504.691 302.108 503.815 302.108ZM516.877 292.37C517.657 292.37 518.341 292.52 518.929 292.82C519.529 293.12 519.997 293.576 520.333 294.188C520.669 294.8 520.837 295.574 520.837 296.51V302H519.109V296.708C519.109 295.784 518.881 295.088 518.425 294.62C517.981 294.152 517.351 293.918 516.535 293.918C515.923 293.918 515.389 294.038 514.933 294.278C514.477 294.518 514.123 294.872 513.871 295.34C513.631 295.808 513.511 296.39 513.511 297.086V302H511.783V292.46H513.439V295.034L513.169 294.35C513.481 293.726 513.961 293.24 514.609 292.892C515.257 292.544 516.013 292.37 516.877 292.37ZM529.956 302V299.984L529.866 299.606V296.168C529.866 295.436 529.65 294.872 529.218 294.476C528.798 294.068 528.162 293.864 527.31 293.864C526.746 293.864 526.194 293.96 525.654 294.152C525.114 294.332 524.658 294.578 524.286 294.89L523.566 293.594C524.058 293.198 524.646 292.898 525.33 292.694C526.026 292.478 526.752 292.37 527.508 292.37C528.816 292.37 529.824 292.688 530.532 293.324C531.24 293.96 531.594 294.932 531.594 296.24V302H529.956ZM526.824 302.108C526.116 302.108 525.492 301.988 524.952 301.748C524.424 301.508 524.016 301.178 523.728 300.758C523.44 300.326 523.296 299.84 523.296 299.3C523.296 298.784 523.416 298.316 523.656 297.896C523.908 297.476 524.31 297.14 524.862 296.888C525.426 296.636 526.182 296.51 527.13 296.51H530.154V297.752H527.202C526.338 297.752 525.756 297.896 525.456 298.184C525.156 298.472 525.006 298.82 525.006 299.228C525.006 299.696 525.192 300.074 525.564 300.362C525.936 300.638 526.452 300.776 527.112 300.776C527.76 300.776 528.324 300.632 528.804 300.344C529.296 300.056 529.65 299.636 529.866 299.084L530.208 300.272C529.98 300.836 529.578 301.286 529.002 301.622C528.426 301.946 527.7 302.108 526.824 302.108ZM534.792 302V288.644H536.52V302H534.792ZM540.234 305.6C539.778 305.6 539.334 305.522 538.902 305.366C538.47 305.222 538.098 305.006 537.786 304.718L538.524 303.422C538.764 303.65 539.028 303.824 539.316 303.944C539.604 304.064 539.91 304.124 540.234 304.124C540.654 304.124 541.002 304.016 541.278 303.8C541.554 303.584 541.812 303.2 542.052 302.648L542.646 301.334L542.826 301.118L546.57 292.46H548.262L543.636 302.954C543.36 303.626 543.048 304.154 542.7 304.538C542.364 304.922 541.992 305.192 541.584 305.348C541.176 305.516 540.726 305.6 540.234 305.6ZM542.502 302.306L538.146 292.46H539.946L543.654 300.956L542.502 302.306ZM552.487 302.108C551.695 302.108 550.939 302 550.219 301.784C549.511 301.568 548.953 301.304 548.545 300.992L549.265 299.624C549.673 299.9 550.177 300.134 550.777 300.326C551.377 300.518 551.989 300.614 552.613 300.614C553.417 300.614 553.993 300.5 554.341 300.272C554.701 300.044 554.881 299.726 554.881 299.318C554.881 299.018 554.773 298.784 554.557 298.616C554.341 298.448 554.053 298.322 553.693 298.238C553.345 298.154 552.955 298.082 552.523 298.022C552.091 297.95 551.659 297.866 551.227 297.77C550.795 297.662 550.399 297.518 550.039 297.338C549.679 297.146 549.391 296.888 549.175 296.564C548.959 296.228 548.851 295.784 548.851 295.232C548.851 294.656 549.013 294.152 549.337 293.72C549.661 293.288 550.117 292.958 550.705 292.73C551.305 292.49 552.013 292.37 552.829 292.37C553.453 292.37 554.083 292.448 554.719 292.604C555.367 292.748 555.895 292.958 556.303 293.234L555.565 294.602C555.133 294.314 554.683 294.116 554.215 294.008C553.747 293.9 553.279 293.846 552.811 293.846C552.055 293.846 551.491 293.972 551.119 294.224C550.747 294.464 550.561 294.776 550.561 295.16C550.561 295.484 550.669 295.736 550.885 295.916C551.113 296.084 551.401 296.216 551.749 296.312C552.109 296.408 552.505 296.492 552.937 296.564C553.369 296.624 553.801 296.708 554.233 296.816C554.665 296.912 555.055 297.05 555.403 297.23C555.763 297.41 556.051 297.662 556.267 297.986C556.495 298.31 556.609 298.742 556.609 299.282C556.609 299.858 556.441 300.356 556.105 300.776C555.769 301.196 555.295 301.526 554.683 301.766C554.071 301.994 553.339 302.108 552.487 302.108ZM558.769 302V292.46H560.497V302H558.769ZM559.633 290.624C559.297 290.624 559.015 290.516 558.787 290.3C558.571 290.084 558.463 289.82 558.463 289.508C558.463 289.184 558.571 288.914 558.787 288.698C559.015 288.482 559.297 288.374 559.633 288.374C559.969 288.374 560.245 288.482 560.461 288.698C560.689 288.902 560.803 289.16 560.803 289.472C560.803 289.796 560.695 290.072 560.479 290.3C560.263 290.516 559.981 290.624 559.633 290.624ZM566.532 302.108C565.74 302.108 564.984 302 564.264 301.784C563.556 301.568 562.998 301.304 562.59 300.992L563.31 299.624C563.718 299.9 564.222 300.134 564.822 300.326C565.422 300.518 566.034 300.614 566.658 300.614C567.462 300.614 568.038 300.5 568.386 300.272C568.746 300.044 568.926 299.726 568.926 299.318C568.926 299.018 568.818 298.784 568.602 298.616C568.386 298.448 568.098 298.322 567.738 298.238C567.39 298.154 567 298.082 566.568 298.022C566.136 297.95 565.704 297.866 565.272 297.77C564.84 297.662 564.444 297.518 564.084 297.338C563.724 297.146 563.436 296.888 563.22 296.564C563.004 296.228 562.896 295.784 562.896 295.232C562.896 294.656 563.058 294.152 563.382 293.72C563.706 293.288 564.162 292.958 564.75 292.73C565.35 292.49 566.058 292.37 566.874 292.37C567.498 292.37 568.128 292.448 568.764 292.604C569.412 292.748 569.94 292.958 570.348 293.234L569.61 294.602C569.178 294.314 568.728 294.116 568.26 294.008C567.792 293.9 567.324 293.846 566.856 293.846C566.1 293.846 565.536 293.972 565.164 294.224C564.792 294.464 564.606 294.776 564.606 295.16C564.606 295.484 564.714 295.736 564.93 295.916C565.158 296.084 565.446 296.216 565.794 296.312C566.154 296.408 566.55 296.492 566.982 296.564C567.414 296.624 567.846 296.708 568.278 296.816C568.71 296.912 569.1 297.05 569.448 297.23C569.808 297.41 570.096 297.662 570.312 297.986C570.54 298.31 570.654 298.742 570.654 299.282C570.654 299.858 570.486 300.356 570.15 300.776C569.814 301.196 569.34 301.526 568.728 301.766C568.116 301.994 567.384 302.108 566.532 302.108Z" fill="#FBF8F7"/>
<path fillRule="evenodd" clipRule="evenodd" d="M91.9997 264C91.8837 257.425 86.575 252.117 80 252.002V252C86.5757 251.885 91.8848 246.576 91.9997 240H92.0024C92.1173 246.575 97.4253 251.884 104 252V252.006C97.4272 252.122 92.1205 257.428 92.0025 264H91.9997Z" fill="#69A3CC"/>
<path d="M113.89 259V246.4H118.804C119.908 246.4 120.85 246.574 121.63 246.922C122.41 247.27 123.01 247.774 123.43 248.434C123.85 249.094 124.06 249.88 124.06 250.792C124.06 251.704 123.85 252.49 123.43 253.15C123.01 253.798 122.41 254.296 121.63 254.644C120.85 254.992 119.908 255.166 118.804 255.166H114.88L115.69 254.338V259H113.89ZM122.314 259L119.11 254.428H121.036L124.276 259H122.314ZM115.69 254.518L114.88 253.636H118.75C119.902 253.636 120.772 253.39 121.36 252.898C121.96 252.394 122.26 251.692 122.26 250.792C122.26 249.892 121.96 249.196 121.36 248.704C120.772 248.212 119.902 247.966 118.75 247.966H114.88L115.69 247.066V254.518ZM130.964 259.108C129.944 259.108 129.044 258.898 128.264 258.478C127.496 258.058 126.896 257.482 126.464 256.75C126.044 256.018 125.834 255.178 125.834 254.23C125.834 253.282 126.038 252.442 126.446 251.71C126.866 250.978 127.436 250.408 128.156 250C128.888 249.58 129.71 249.37 130.622 249.37C131.546 249.37 132.362 249.574 133.07 249.982C133.778 250.39 134.33 250.966 134.726 251.71C135.134 252.442 135.338 253.3 135.338 254.284C135.338 254.356 135.332 254.44 135.32 254.536C135.32 254.632 135.314 254.722 135.302 254.806H127.184V253.564H134.402L133.7 253.996C133.712 253.384 133.586 252.838 133.322 252.358C133.058 251.878 132.692 251.506 132.224 251.242C131.768 250.966 131.234 250.828 130.622 250.828C130.022 250.828 129.488 250.966 129.02 251.242C128.552 251.506 128.186 251.884 127.922 252.376C127.658 252.856 127.526 253.408 127.526 254.032V254.32C127.526 254.956 127.67 255.526 127.958 256.03C128.258 256.522 128.672 256.906 129.2 257.182C129.728 257.458 130.334 257.596 131.018 257.596C131.582 257.596 132.092 257.5 132.548 257.308C133.016 257.116 133.424 256.828 133.772 256.444L134.726 257.56C134.294 258.064 133.754 258.448 133.106 258.712C132.47 258.976 131.756 259.108 130.964 259.108ZM143.396 259V256.984L143.306 256.606V253.168C143.306 252.436 143.09 251.872 142.658 251.476C142.238 251.068 141.602 250.864 140.75 250.864C140.186 250.864 139.634 250.96 139.094 251.152C138.554 251.332 138.098 251.578 137.726 251.89L137.006 250.594C137.498 250.198 138.086 249.898 138.77 249.694C139.466 249.478 140.192 249.37 140.948 249.37C142.256 249.37 143.264 249.688 143.972 250.324C144.68 250.96 145.034 251.932 145.034 253.24V259H143.396ZM140.264 259.108C139.556 259.108 138.932 258.988 138.392 258.748C137.864 258.508 137.456 258.178 137.168 257.758C136.88 257.326 136.736 256.84 136.736 256.3C136.736 255.784 136.856 255.316 137.096 254.896C137.348 254.476 137.75 254.14 138.302 253.888C138.866 253.636 139.622 253.51 140.57 253.51H143.594V254.752H140.642C139.778 254.752 139.196 254.896 138.896 255.184C138.596 255.472 138.446 255.82 138.446 256.228C138.446 256.696 138.632 257.074 139.004 257.362C139.376 257.638 139.892 257.776 140.552 257.776C141.2 257.776 141.764 257.632 142.244 257.344C142.736 257.056 143.09 256.636 143.306 256.084L143.648 257.272C143.42 257.836 143.018 258.286 142.442 258.622C141.866 258.946 141.14 259.108 140.264 259.108ZM148.232 259V245.644H149.96V259H148.232ZM152.647 254.806V253.312H157.489V254.806H152.647ZM163.602 259.108C162.642 259.108 161.898 258.85 161.37 258.334C160.842 257.818 160.578 257.08 160.578 256.12V247.372H162.306V256.048C162.306 256.564 162.432 256.96 162.684 257.236C162.948 257.512 163.32 257.65 163.8 257.65C164.34 257.65 164.79 257.5 165.15 257.2L165.69 258.442C165.426 258.67 165.108 258.838 164.736 258.946C164.376 259.054 163.998 259.108 163.602 259.108ZM158.958 250.882V249.46H165.042V250.882H158.958ZM167.779 259V249.46H169.507V259H167.779ZM168.643 247.624C168.307 247.624 168.025 247.516 167.797 247.3C167.581 247.084 167.473 246.82 167.473 246.508C167.473 246.184 167.581 245.914 167.797 245.698C168.025 245.482 168.307 245.374 168.643 245.374C168.979 245.374 169.255 245.482 169.471 245.698C169.699 245.902 169.813 246.16 169.813 246.472C169.813 246.796 169.705 247.072 169.489 247.3C169.273 247.516 168.991 247.624 168.643 247.624ZM184.74 249.37C185.508 249.37 186.186 249.52 186.774 249.82C187.362 250.12 187.818 250.576 188.142 251.188C188.478 251.8 188.646 252.574 188.646 253.51V259H186.918V253.708C186.918 252.784 186.702 252.088 186.27 251.62C185.838 251.152 185.232 250.918 184.452 250.918C183.876 250.918 183.372 251.038 182.94 251.278C182.508 251.518 182.172 251.872 181.932 252.34C181.704 252.808 181.59 253.39 181.59 254.086V259H179.862V253.708C179.862 252.784 179.646 252.088 179.214 251.62C178.794 251.152 178.188 250.918 177.396 250.918C176.832 250.918 176.334 251.038 175.902 251.278C175.47 251.518 175.134 251.872 174.894 252.34C174.654 252.808 174.534 253.39 174.534 254.086V259H172.806V249.46H174.462V251.998L174.192 251.35C174.492 250.726 174.954 250.24 175.578 249.892C176.202 249.544 176.928 249.37 177.756 249.37C178.668 249.37 179.454 249.598 180.114 250.054C180.774 250.498 181.206 251.176 181.41 252.088L180.708 251.8C180.996 251.068 181.5 250.48 182.22 250.036C182.94 249.592 183.78 249.37 184.74 249.37ZM196.074 259.108C195.054 259.108 194.154 258.898 193.374 258.478C192.606 258.058 192.006 257.482 191.574 256.75C191.154 256.018 190.944 255.178 190.944 254.23C190.944 253.282 191.148 252.442 191.556 251.71C191.976 250.978 192.546 250.408 193.266 250C193.998 249.58 194.82 249.37 195.732 249.37C196.656 249.37 197.472 249.574 198.18 249.982C198.888 250.39 199.44 250.966 199.836 251.71C200.244 252.442 200.448 253.3 200.448 254.284C200.448 254.356 200.442 254.44 200.43 254.536C200.43 254.632 200.424 254.722 200.412 254.806H192.294V253.564H199.512L198.81 253.996C198.822 253.384 198.696 252.838 198.432 252.358C198.168 251.878 197.802 251.506 197.334 251.242C196.878 250.966 196.344 250.828 195.732 250.828C195.132 250.828 194.598 250.966 194.13 251.242C193.662 251.506 193.296 251.884 193.032 252.376C192.768 252.856 192.636 253.408 192.636 254.032V254.32C192.636 254.956 192.78 255.526 193.068 256.03C193.368 256.522 193.782 256.906 194.31 257.182C194.838 257.458 195.444 257.596 196.128 257.596C196.692 257.596 197.202 257.5 197.658 257.308C198.126 257.116 198.534 256.828 198.882 256.444L199.836 257.56C199.404 258.064 198.864 258.448 198.216 258.712C197.58 258.976 196.866 259.108 196.074 259.108ZM211.929 259.108C210.909 259.108 210.009 258.898 209.229 258.478C208.461 258.058 207.861 257.482 207.429 256.75C207.009 256.018 206.799 255.178 206.799 254.23C206.799 253.282 207.003 252.442 207.411 251.71C207.831 250.978 208.401 250.408 209.121 250C209.853 249.58 210.675 249.37 211.587 249.37C212.511 249.37 213.327 249.574 214.035 249.982C214.743 250.39 215.295 250.966 215.691 251.71C216.099 252.442 216.303 253.3 216.303 254.284C216.303 254.356 216.297 254.44 216.285 254.536C216.285 254.632 216.279 254.722 216.267 254.806H208.149V253.564H215.367L214.665 253.996C214.677 253.384 214.551 252.838 214.287 252.358C214.023 251.878 213.657 251.506 213.189 251.242C212.733 250.966 212.199 250.828 211.587 250.828C210.987 250.828 210.453 250.966 209.985 251.242C209.517 251.506 209.151 251.884 208.887 252.376C208.623 252.856 208.491 253.408 208.491 254.032V254.32C208.491 254.956 208.635 255.526 208.923 256.03C209.223 256.522 209.637 256.906 210.165 257.182C210.693 257.458 211.299 257.596 211.983 257.596C212.547 257.596 213.057 257.5 213.513 257.308C213.981 257.116 214.389 256.828 214.737 256.444L215.691 257.56C215.259 258.064 214.719 258.448 214.071 258.712C213.435 258.976 212.721 259.108 211.929 259.108ZM221.029 259L216.853 249.46H218.653L222.361 258.1H221.497L225.277 249.46H226.969L222.793 259H221.029ZM234.205 259V256.984L234.115 256.606V253.168C234.115 252.436 233.899 251.872 233.467 251.476C233.047 251.068 232.411 250.864 231.559 250.864C230.995 250.864 230.443 250.96 229.903 251.152C229.363 251.332 228.907 251.578 228.535 251.89L227.815 250.594C228.307 250.198 228.895 249.898 229.579 249.694C230.275 249.478 231.001 249.37 231.757 249.37C233.065 249.37 234.073 249.688 234.781 250.324C235.489 250.96 235.843 251.932 235.843 253.24V259H234.205ZM231.073 259.108C230.365 259.108 229.741 258.988 229.201 258.748C228.673 258.508 228.265 258.178 227.977 257.758C227.689 257.326 227.545 256.84 227.545 256.3C227.545 255.784 227.665 255.316 227.905 254.896C228.157 254.476 228.559 254.14 229.111 253.888C229.675 253.636 230.431 253.51 231.379 253.51H234.403V254.752H231.451C230.587 254.752 230.005 254.896 229.705 255.184C229.405 255.472 229.255 255.82 229.255 256.228C229.255 256.696 229.441 257.074 229.813 257.362C230.185 257.638 230.701 257.776 231.361 257.776C232.009 257.776 232.573 257.632 233.053 257.344C233.545 257.056 233.899 256.636 234.115 256.084L234.457 257.272C234.229 257.836 233.827 258.286 233.251 258.622C232.675 258.946 231.949 259.108 231.073 259.108ZM239.04 259V245.644H240.768V259H239.04ZM248.082 259.108C247.266 259.108 246.546 258.958 245.922 258.658C245.31 258.358 244.83 257.902 244.482 257.29C244.146 256.666 243.978 255.886 243.978 254.95V249.46H245.706V254.752C245.706 255.688 245.928 256.39 246.372 256.858C246.828 257.326 247.464 257.56 248.28 257.56C248.88 257.56 249.402 257.44 249.846 257.2C250.29 256.948 250.632 256.588 250.872 256.12C251.112 255.64 251.232 255.064 251.232 254.392V249.46H252.96V259H251.322V256.426L251.592 257.11C251.28 257.746 250.812 258.238 250.188 258.586C249.564 258.934 248.862 259.108 248.082 259.108ZM262.171 259V256.984L262.081 256.606V253.168C262.081 252.436 261.865 251.872 261.433 251.476C261.013 251.068 260.377 250.864 259.525 250.864C258.961 250.864 258.409 250.96 257.869 251.152C257.329 251.332 256.873 251.578 256.501 251.89L255.781 250.594C256.273 250.198 256.861 249.898 257.545 249.694C258.241 249.478 258.967 249.37 259.723 249.37C261.031 249.37 262.039 249.688 262.747 250.324C263.455 250.96 263.809 251.932 263.809 253.24V259H262.171ZM259.039 259.108C258.331 259.108 257.707 258.988 257.167 258.748C256.639 258.508 256.231 258.178 255.943 257.758C255.655 257.326 255.511 256.84 255.511 256.3C255.511 255.784 255.631 255.316 255.871 254.896C256.123 254.476 256.525 254.14 257.077 253.888C257.641 253.636 258.397 253.51 259.345 253.51H262.369V254.752H259.417C258.553 254.752 257.971 254.896 257.671 255.184C257.371 255.472 257.221 255.82 257.221 256.228C257.221 256.696 257.407 257.074 257.779 257.362C258.151 257.638 258.667 257.776 259.327 257.776C259.975 257.776 260.539 257.632 261.019 257.344C261.511 257.056 261.865 256.636 262.081 256.084L262.423 257.272C262.195 257.836 261.793 258.286 261.217 258.622C260.641 258.946 259.915 259.108 259.039 259.108ZM270.283 259.108C269.323 259.108 268.579 258.85 268.051 258.334C267.523 257.818 267.259 257.08 267.259 256.12V247.372H268.987V256.048C268.987 256.564 269.113 256.96 269.365 257.236C269.629 257.512 270.001 257.65 270.481 257.65C271.021 257.65 271.471 257.5 271.831 257.2L272.371 258.442C272.107 258.67 271.789 258.838 271.417 258.946C271.057 259.054 270.679 259.108 270.283 259.108ZM265.639 250.882V249.46H271.723V250.882H265.639ZM274.46 259V249.46H276.188V259H274.46ZM275.324 247.624C274.988 247.624 274.706 247.516 274.478 247.3C274.262 247.084 274.154 246.82 274.154 246.508C274.154 246.184 274.262 245.914 274.478 245.698C274.706 245.482 274.988 245.374 275.324 245.374C275.66 245.374 275.936 245.482 276.152 245.698C276.38 245.902 276.494 246.16 276.494 246.472C276.494 246.796 276.386 247.072 276.17 247.3C275.954 247.516 275.672 247.624 275.324 247.624ZM283.574 259.108C282.614 259.108 281.762 258.898 281.018 258.478C280.274 258.058 279.686 257.482 279.254 256.75C278.822 256.006 278.606 255.166 278.606 254.23C278.606 253.282 278.822 252.442 279.254 251.71C279.686 250.978 280.274 250.408 281.018 250C281.762 249.58 282.614 249.37 283.574 249.37C284.522 249.37 285.368 249.58 286.112 250C286.868 250.408 287.456 250.978 287.876 251.71C288.308 252.43 288.524 253.27 288.524 254.23C288.524 255.178 288.308 256.018 287.876 256.75C287.456 257.482 286.868 258.058 286.112 258.478C285.368 258.898 284.522 259.108 283.574 259.108ZM283.574 257.596C284.186 257.596 284.732 257.458 285.212 257.182C285.704 256.906 286.088 256.516 286.364 256.012C286.64 255.496 286.778 254.902 286.778 254.23C286.778 253.546 286.64 252.958 286.364 252.466C286.088 251.962 285.704 251.572 285.212 251.296C284.732 251.02 284.186 250.882 283.574 250.882C282.962 250.882 282.416 251.02 281.936 251.296C281.456 251.572 281.072 251.962 280.784 252.466C280.496 252.958 280.352 253.546 280.352 254.23C280.352 254.902 280.496 255.496 280.784 256.012C281.072 256.516 281.456 256.906 281.936 257.182C282.416 257.458 282.962 257.596 283.574 257.596ZM296.007 249.37C296.787 249.37 297.471 249.52 298.059 249.82C298.659 250.12 299.127 250.576 299.463 251.188C299.799 251.8 299.967 252.574 299.967 253.51V259H298.239V253.708C298.239 252.784 298.011 252.088 297.555 251.62C297.111 251.152 296.481 250.918 295.665 250.918C295.053 250.918 294.519 251.038 294.063 251.278C293.607 251.518 293.253 251.872 293.001 252.34C292.761 252.808 292.641 253.39 292.641 254.086V259H290.913V249.46H292.569V252.034L292.299 251.35C292.611 250.726 293.091 250.24 293.739 249.892C294.387 249.544 295.143 249.37 296.007 249.37ZM305.901 259.108C305.109 259.108 304.353 259 303.633 258.784C302.925 258.568 302.367 258.304 301.959 257.992L302.679 256.624C303.087 256.9 303.591 257.134 304.191 257.326C304.791 257.518 305.403 257.614 306.027 257.614C306.831 257.614 307.407 257.5 307.755 257.272C308.115 257.044 308.295 256.726 308.295 256.318C308.295 256.018 308.187 255.784 307.971 255.616C307.755 255.448 307.467 255.322 307.107 255.238C306.759 255.154 306.369 255.082 305.937 255.022C305.505 254.95 305.073 254.866 304.641 254.77C304.209 254.662 303.813 254.518 303.453 254.338C303.093 254.146 302.805 253.888 302.589 253.564C302.373 253.228 302.265 252.784 302.265 252.232C302.265 251.656 302.427 251.152 302.751 250.72C303.075 250.288 303.531 249.958 304.119 249.73C304.719 249.49 305.427 249.37 306.243 249.37C306.867 249.37 307.497 249.448 308.133 249.604C308.781 249.748 309.309 249.958 309.717 250.234L308.979 251.602C308.547 251.314 308.097 251.116 307.629 251.008C307.161 250.9 306.693 250.846 306.225 250.846C305.469 250.846 304.905 250.972 304.533 251.224C304.161 251.464 303.975 251.776 303.975 252.16C303.975 252.484 304.083 252.736 304.299 252.916C304.527 253.084 304.815 253.216 305.163 253.312C305.523 253.408 305.919 253.492 306.351 253.564C306.783 253.624 307.215 253.708 307.647 253.816C308.079 253.912 308.469 254.05 308.817 254.23C309.177 254.41 309.465 254.662 309.681 254.986C309.909 255.31 310.023 255.742 310.023 256.282C310.023 256.858 309.855 257.356 309.519 257.776C309.183 258.196 308.709 258.526 308.097 258.766C307.485 258.994 306.753 259.108 305.901 259.108Z" fill="#FBF8F7"/>
<path fillRule="evenodd" clipRule="evenodd" d="M91.9997 350C91.8837 343.425 86.575 338.117 80 338.002V338C86.5757 337.885 91.8848 332.576 91.9997 326H92.0024C92.1173 332.575 97.4253 337.884 104 338V338.006C97.4272 338.122 92.1205 343.428 92.0025 350H91.9997Z" fill="#69A3CC"/>
<path d="M113.89 345V332.4H115.69V345H113.89ZM124.304 335.37C125.084 335.37 125.768 335.52 126.356 335.82C126.956 336.12 127.424 336.576 127.76 337.188C128.096 337.8 128.264 338.574 128.264 339.51V345H126.536V339.708C126.536 338.784 126.308 338.088 125.852 337.62C125.408 337.152 124.778 336.918 123.962 336.918C123.35 336.918 122.816 337.038 122.36 337.278C121.904 337.518 121.55 337.872 121.298 338.34C121.058 338.808 120.938 339.39 120.938 340.086V345H119.21V335.46H120.866V338.034L120.596 337.35C120.908 336.726 121.388 336.24 122.036 335.892C122.684 335.544 123.44 335.37 124.304 335.37ZM134.738 345.108C133.778 345.108 133.034 344.85 132.506 344.334C131.978 343.818 131.714 343.08 131.714 342.12V333.372H133.442V342.048C133.442 342.564 133.568 342.96 133.82 343.236C134.084 343.512 134.456 343.65 134.936 343.65C135.476 343.65 135.926 343.5 136.286 343.2L136.826 344.442C136.562 344.67 136.244 344.838 135.872 344.946C135.512 345.054 135.134 345.108 134.738 345.108ZM130.094 336.882V335.46H136.178V336.882H130.094ZM142.929 345.108C142.113 345.108 141.393 344.958 140.769 344.658C140.157 344.358 139.677 343.902 139.329 343.29C138.993 342.666 138.825 341.886 138.825 340.95V335.46H140.553V340.752C140.553 341.688 140.775 342.39 141.219 342.858C141.675 343.326 142.311 343.56 143.127 343.56C143.727 343.56 144.249 343.44 144.693 343.2C145.137 342.948 145.479 342.588 145.719 342.12C145.959 341.64 146.079 341.064 146.079 340.392V335.46H147.807V345H146.169V342.426L146.439 343.11C146.127 343.746 145.659 344.238 145.035 344.586C144.411 344.934 143.709 345.108 142.929 345.108ZM151.097 345V335.46H152.825V345H151.097ZM151.961 333.624C151.625 333.624 151.343 333.516 151.115 333.3C150.899 333.084 150.791 332.82 150.791 332.508C150.791 332.184 150.899 331.914 151.115 331.698C151.343 331.482 151.625 331.374 151.961 331.374C152.297 331.374 152.573 331.482 152.789 331.698C153.017 331.902 153.131 332.16 153.131 332.472C153.131 332.796 153.023 333.072 152.807 333.3C152.591 333.516 152.309 333.624 151.961 333.624ZM159.4 345.108C158.44 345.108 157.696 344.85 157.168 344.334C156.64 343.818 156.376 343.08 156.376 342.12V333.372H158.104V342.048C158.104 342.564 158.23 342.96 158.482 343.236C158.746 343.512 159.118 343.65 159.598 343.65C160.138 343.65 160.588 343.5 160.948 343.2L161.488 344.442C161.224 344.67 160.906 344.838 160.534 344.946C160.174 345.054 159.796 345.108 159.4 345.108ZM154.756 336.882V335.46H160.84V336.882H154.756ZM163.577 345V335.46H165.305V345H163.577ZM164.441 333.624C164.105 333.624 163.823 333.516 163.595 333.3C163.379 333.084 163.271 332.82 163.271 332.508C163.271 332.184 163.379 331.914 163.595 331.698C163.823 331.482 164.105 331.374 164.441 331.374C164.777 331.374 165.053 331.482 165.269 331.698C165.497 331.902 165.611 332.16 165.611 332.472C165.611 332.796 165.503 333.072 165.287 333.3C165.071 333.516 164.789 333.624 164.441 333.624ZM171.107 345L166.931 335.46H168.731L172.439 344.1H171.575L175.355 335.46H177.047L172.871 345H171.107ZM182.644 345.108C181.624 345.108 180.724 344.898 179.944 344.478C179.176 344.058 178.576 343.482 178.144 342.75C177.724 342.018 177.514 341.178 177.514 340.23C177.514 339.282 177.718 338.442 178.126 337.71C178.546 336.978 179.116 336.408 179.836 336C180.568 335.58 181.39 335.37 182.302 335.37C183.226 335.37 184.042 335.574 184.75 335.982C185.458 336.39 186.01 336.966 186.406 337.71C186.814 338.442 187.018 339.3 187.018 340.284C187.018 340.356 187.012 340.44 187 340.536C187 340.632 186.994 340.722 186.982 340.806H178.864V339.564H186.082L185.38 339.996C185.392 339.384 185.266 338.838 185.002 338.358C184.738 337.878 184.372 337.506 183.904 337.242C183.448 336.966 182.914 336.828 182.302 336.828C181.702 336.828 181.168 336.966 180.7 337.242C180.232 337.506 179.866 337.884 179.602 338.376C179.338 338.856 179.206 339.408 179.206 340.032V340.32C179.206 340.956 179.35 341.526 179.638 342.03C179.938 342.522 180.352 342.906 180.88 343.182C181.408 343.458 182.014 343.596 182.698 343.596C183.262 343.596 183.772 343.5 184.228 343.308C184.696 343.116 185.104 342.828 185.452 342.444L186.406 343.56C185.974 344.064 185.434 344.448 184.786 344.712C184.15 344.976 183.436 345.108 182.644 345.108ZM199.723 345.144C198.067 345.144 196.765 344.67 195.817 343.722C194.869 342.774 194.395 341.388 194.395 339.564V332.4H196.195V339.492C196.195 340.896 196.501 341.922 197.113 342.57C197.737 343.218 198.613 343.542 199.741 343.542C200.881 343.542 201.757 343.218 202.369 342.57C202.993 341.922 203.305 340.896 203.305 339.492V332.4H205.051V339.564C205.051 341.388 204.577 342.774 203.629 343.722C202.693 344.67 201.391 345.144 199.723 345.144ZM208.742 345V332.4H210.542V345H208.742ZM220.912 345L217.366 335.46H219.004L222.154 344.1H221.38L224.656 335.46H226.114L229.318 344.1H228.562L231.784 335.46H233.332L229.768 345H228.112L225.106 337.116H225.61L222.568 345H220.912ZM235.085 345V335.46H236.813V345H235.085ZM235.949 333.624C235.613 333.624 235.331 333.516 235.103 333.3C234.887 333.084 234.779 332.82 234.779 332.508C234.779 332.184 234.887 331.914 235.103 331.698C235.331 331.482 235.613 331.374 235.949 331.374C236.285 331.374 236.561 331.482 236.777 331.698C237.005 331.902 237.119 332.16 237.119 332.472C237.119 332.796 237.011 333.072 236.795 333.3C236.579 333.516 236.297 333.624 235.949 333.624ZM243.389 345.108C242.429 345.108 241.685 344.85 241.157 344.334C240.629 343.818 240.365 343.08 240.365 342.12V333.372H242.093V342.048C242.093 342.564 242.219 342.96 242.471 343.236C242.735 343.512 243.107 343.65 243.587 343.65C244.127 343.65 244.577 343.5 244.937 343.2L245.477 344.442C245.213 344.67 244.895 344.838 244.523 344.946C244.163 345.054 243.785 345.108 243.389 345.108ZM238.745 336.882V335.46H244.829V336.882H238.745ZM252.66 335.37C253.44 335.37 254.124 335.52 254.712 335.82C255.312 336.12 255.78 336.576 256.116 337.188C256.452 337.8 256.62 338.574 256.62 339.51V345H254.892V339.708C254.892 338.784 254.664 338.088 254.208 337.62C253.764 337.152 253.134 336.918 252.318 336.918C251.706 336.918 251.172 337.038 250.716 337.278C250.26 337.518 249.906 337.872 249.654 338.34C249.414 338.808 249.294 339.39 249.294 340.086V345H247.566V331.644H249.294V338.034L248.952 337.35C249.264 336.726 249.744 336.24 250.392 335.892C251.04 335.544 251.796 335.37 252.66 335.37ZM270.574 345V342.984L270.484 342.606V339.168C270.484 338.436 270.268 337.872 269.836 337.476C269.416 337.068 268.78 336.864 267.928 336.864C267.364 336.864 266.812 336.96 266.272 337.152C265.732 337.332 265.276 337.578 264.904 337.89L264.184 336.594C264.676 336.198 265.264 335.898 265.948 335.694C266.644 335.478 267.37 335.37 268.126 335.37C269.434 335.37 270.442 335.688 271.15 336.324C271.858 336.96 272.212 337.932 272.212 339.24V345H270.574ZM267.442 345.108C266.734 345.108 266.11 344.988 265.57 344.748C265.042 344.508 264.634 344.178 264.346 343.758C264.058 343.326 263.914 342.84 263.914 342.3C263.914 341.784 264.034 341.316 264.274 340.896C264.526 340.476 264.928 340.14 265.48 339.888C266.044 339.636 266.8 339.51 267.748 339.51H270.772V340.752H267.82C266.956 340.752 266.374 340.896 266.074 341.184C265.774 341.472 265.624 341.82 265.624 342.228C265.624 342.696 265.81 343.074 266.182 343.362C266.554 343.638 267.07 343.776 267.73 343.776C268.378 343.776 268.942 343.632 269.422 343.344C269.914 343.056 270.268 342.636 270.484 342.084L270.826 343.272C270.598 343.836 270.196 344.286 269.62 344.622C269.044 344.946 268.318 345.108 267.442 345.108ZM279.567 345.108C278.595 345.108 277.725 344.898 276.957 344.478C276.201 344.058 275.607 343.482 275.175 342.75C274.743 342.018 274.527 341.178 274.527 340.23C274.527 339.282 274.743 338.442 275.175 337.71C275.607 336.978 276.201 336.408 276.957 336C277.725 335.58 278.595 335.37 279.567 335.37C280.431 335.37 281.199 335.544 281.871 335.892C282.555 336.228 283.083 336.732 283.455 337.404L282.141 338.25C281.829 337.782 281.445 337.44 280.989 337.224C280.545 336.996 280.065 336.882 279.549 336.882C278.925 336.882 278.367 337.02 277.875 337.296C277.383 337.572 276.993 337.962 276.705 338.466C276.417 338.958 276.273 339.546 276.273 340.23C276.273 340.914 276.417 341.508 276.705 342.012C276.993 342.516 277.383 342.906 277.875 343.182C278.367 343.458 278.925 343.596 279.549 343.596C280.065 343.596 280.545 343.488 280.989 343.272C281.445 343.044 281.829 342.696 282.141 342.228L283.455 343.056C283.083 343.716 282.555 344.226 281.871 344.586C281.199 344.934 280.431 345.108 279.567 345.108ZM289.092 345.108C288.132 345.108 287.388 344.85 286.86 344.334C286.332 343.818 286.068 343.08 286.068 342.12V333.372H287.796V342.048C287.796 342.564 287.922 342.96 288.174 343.236C288.438 343.512 288.81 343.65 289.29 343.65C289.83 343.65 290.28 343.5 290.64 343.2L291.18 344.442C290.916 344.67 290.598 344.838 290.226 344.946C289.866 345.054 289.488 345.108 289.092 345.108ZM284.448 336.882V335.46H290.532V336.882H284.448ZM293.269 345V335.46H294.997V345H293.269ZM294.133 333.624C293.797 333.624 293.515 333.516 293.287 333.3C293.071 333.084 292.963 332.82 292.963 332.508C292.963 332.184 293.071 331.914 293.287 331.698C293.515 331.482 293.797 331.374 294.133 331.374C294.469 331.374 294.745 331.482 294.961 331.698C295.189 331.902 295.303 332.16 295.303 332.472C295.303 332.796 295.195 333.072 294.979 333.3C294.763 333.516 294.481 333.624 294.133 333.624ZM302.382 345.108C301.422 345.108 300.57 344.898 299.826 344.478C299.082 344.058 298.494 343.482 298.062 342.75C297.63 342.006 297.414 341.166 297.414 340.23C297.414 339.282 297.63 338.442 298.062 337.71C298.494 336.978 299.082 336.408 299.826 336C300.57 335.58 301.422 335.37 302.382 335.37C303.33 335.37 304.176 335.58 304.92 336C305.676 336.408 306.264 336.978 306.684 337.71C307.116 338.43 307.332 339.27 307.332 340.23C307.332 341.178 307.116 342.018 306.684 342.75C306.264 343.482 305.676 344.058 304.92 344.478C304.176 344.898 303.33 345.108 302.382 345.108ZM302.382 343.596C302.994 343.596 303.54 343.458 304.02 343.182C304.512 342.906 304.896 342.516 305.172 342.012C305.448 341.496 305.586 340.902 305.586 340.23C305.586 339.546 305.448 338.958 305.172 338.466C304.896 337.962 304.512 337.572 304.02 337.296C303.54 337.02 302.994 336.882 302.382 336.882C301.77 336.882 301.224 337.02 300.744 337.296C300.264 337.572 299.88 337.962 299.592 338.466C299.304 338.958 299.16 339.546 299.16 340.23C299.16 340.902 299.304 341.496 299.592 342.012C299.88 342.516 300.264 342.906 300.744 343.182C301.224 343.458 301.77 343.596 302.382 343.596ZM314.816 335.37C315.596 335.37 316.28 335.52 316.868 335.82C317.468 336.12 317.936 336.576 318.272 337.188C318.608 337.8 318.776 338.574 318.776 339.51V345H317.048V339.708C317.048 338.784 316.82 338.088 316.364 337.62C315.92 337.152 315.29 336.918 314.474 336.918C313.862 336.918 313.328 337.038 312.872 337.278C312.416 337.518 312.062 337.872 311.81 338.34C311.57 338.808 311.45 339.39 311.45 340.086V345H309.722V335.46H311.378V338.034L311.108 337.35C311.42 336.726 311.9 336.24 312.548 335.892C313.196 335.544 313.952 335.37 314.816 335.37ZM327.896 345V342.984L327.806 342.606V339.168C327.806 338.436 327.59 337.872 327.158 337.476C326.738 337.068 326.102 336.864 325.25 336.864C324.686 336.864 324.134 336.96 323.594 337.152C323.054 337.332 322.598 337.578 322.226 337.89L321.506 336.594C321.998 336.198 322.586 335.898 323.27 335.694C323.966 335.478 324.692 335.37 325.448 335.37C326.756 335.37 327.764 335.688 328.472 336.324C329.18 336.96 329.534 337.932 329.534 339.24V345H327.896ZM324.764 345.108C324.056 345.108 323.432 344.988 322.892 344.748C322.364 344.508 321.956 344.178 321.668 343.758C321.38 343.326 321.236 342.84 321.236 342.3C321.236 341.784 321.356 341.316 321.596 340.896C321.848 340.476 322.25 340.14 322.802 339.888C323.366 339.636 324.122 339.51 325.07 339.51H328.094V340.752H325.142C324.278 340.752 323.696 340.896 323.396 341.184C323.096 341.472 322.946 341.82 322.946 342.228C322.946 342.696 323.132 343.074 323.504 343.362C323.876 343.638 324.392 343.776 325.052 343.776C325.7 343.776 326.264 343.632 326.744 343.344C327.236 343.056 327.59 342.636 327.806 342.084L328.148 343.272C327.92 343.836 327.518 344.286 326.942 344.622C326.366 344.946 325.64 345.108 324.764 345.108ZM337.79 345.108C336.974 345.108 336.236 344.928 335.576 344.568C334.928 344.196 334.412 343.65 334.028 342.93C333.656 342.21 333.47 341.31 333.47 340.23C333.47 339.15 333.662 338.25 334.046 337.53C334.442 336.81 334.964 336.27 335.612 335.91C336.272 335.55 336.998 335.37 337.79 335.37C338.726 335.37 339.554 335.574 340.274 335.982C340.994 336.39 341.564 336.96 341.984 337.692C342.404 338.412 342.614 339.258 342.614 340.23C342.614 341.202 342.404 342.054 341.984 342.786C341.564 343.518 340.994 344.088 340.274 344.496C339.554 344.904 338.726 345.108 337.79 345.108ZM332.732 345V331.644H334.46V337.998L334.28 340.212L334.388 342.426V345H332.732ZM337.646 343.596C338.258 343.596 338.804 343.458 339.284 343.182C339.776 342.906 340.16 342.516 340.436 342.012C340.724 341.496 340.868 340.902 340.868 340.23C340.868 339.546 340.724 338.958 340.436 338.466C340.16 337.962 339.776 337.572 339.284 337.296C338.804 337.02 338.258 336.882 337.646 336.882C337.046 336.882 336.5 337.02 336.008 337.296C335.528 337.572 335.144 337.962 334.856 338.466C334.58 338.958 334.442 339.546 334.442 340.23C334.442 340.902 334.58 341.496 334.856 342.012C335.144 342.516 335.528 342.906 336.008 343.182C336.5 343.458 337.046 343.596 337.646 343.596ZM345.001 345V331.644H346.729V345H345.001ZM354.277 345.108C353.257 345.108 352.357 344.898 351.577 344.478C350.809 344.058 350.209 343.482 349.777 342.75C349.357 342.018 349.147 341.178 349.147 340.23C349.147 339.282 349.351 338.442 349.759 337.71C350.179 336.978 350.749 336.408 351.469 336C352.201 335.58 353.023 335.37 353.935 335.37C354.859 335.37 355.675 335.574 356.383 335.982C357.091 336.39 357.643 336.966 358.039 337.71C358.447 338.442 358.651 339.3 358.651 340.284C358.651 340.356 358.645 340.44 358.633 340.536C358.633 340.632 358.627 340.722 358.615 340.806H350.497V339.564H357.715L357.013 339.996C357.025 339.384 356.899 338.838 356.635 338.358C356.371 337.878 356.005 337.506 355.537 337.242C355.081 336.966 354.547 336.828 353.935 336.828C353.335 336.828 352.801 336.966 352.333 337.242C351.865 337.506 351.499 337.884 351.235 338.376C350.971 338.856 350.839 339.408 350.839 340.032V340.32C350.839 340.956 350.983 341.526 351.271 342.03C351.571 342.522 351.985 342.906 352.513 343.182C353.041 343.458 353.647 343.596 354.331 343.596C354.895 343.596 355.405 343.5 355.861 343.308C356.329 343.116 356.737 342.828 357.085 342.444L358.039 343.56C357.607 344.064 357.067 344.448 356.419 344.712C355.783 344.976 355.069 345.108 354.277 345.108ZM365.884 345V335.46H367.612V345H365.884ZM366.748 333.624C366.412 333.624 366.13 333.516 365.902 333.3C365.686 333.084 365.578 332.82 365.578 332.508C365.578 332.184 365.686 331.914 365.902 331.698C366.13 331.482 366.412 331.374 366.748 331.374C367.084 331.374 367.36 331.482 367.576 331.698C367.804 331.902 367.918 332.16 367.918 332.472C367.918 332.796 367.81 333.072 367.594 333.3C367.378 333.516 367.096 333.624 366.748 333.624ZM376.005 335.37C376.785 335.37 377.469 335.52 378.057 335.82C378.657 336.12 379.125 336.576 379.461 337.188C379.797 337.8 379.965 338.574 379.965 339.51V345H378.237V339.708C378.237 338.784 378.009 338.088 377.553 337.62C377.109 337.152 376.479 336.918 375.663 336.918C375.051 336.918 374.517 337.038 374.061 337.278C373.605 337.518 373.251 337.872 372.999 338.34C372.759 338.808 372.639 339.39 372.639 340.086V345H370.911V335.46H372.567V338.034L372.297 337.35C372.609 336.726 373.089 336.24 373.737 335.892C374.385 335.544 375.141 335.37 376.005 335.37ZM385.899 345.108C385.107 345.108 384.351 345 383.631 344.784C382.923 344.568 382.365 344.304 381.957 343.992L382.677 342.624C383.085 342.9 383.589 343.134 384.189 343.326C384.789 343.518 385.401 343.614 386.025 343.614C386.829 343.614 387.405 343.5 387.753 343.272C388.113 343.044 388.293 342.726 388.293 342.318C388.293 342.018 388.185 341.784 387.969 341.616C387.753 341.448 387.465 341.322 387.105 341.238C386.757 341.154 386.367 341.082 385.935 341.022C385.503 340.95 385.071 340.866 384.639 340.77C384.207 340.662 383.811 340.518 383.451 340.338C383.091 340.146 382.803 339.888 382.587 339.564C382.371 339.228 382.263 338.784 382.263 338.232C382.263 337.656 382.425 337.152 382.749 336.72C383.073 336.288 383.529 335.958 384.117 335.73C384.717 335.49 385.425 335.37 386.241 335.37C386.865 335.37 387.495 335.448 388.131 335.604C388.779 335.748 389.307 335.958 389.715 336.234L388.977 337.602C388.545 337.314 388.095 337.116 387.627 337.008C387.159 336.9 386.691 336.846 386.223 336.846C385.467 336.846 384.903 336.972 384.531 337.224C384.159 337.464 383.973 337.776 383.973 338.16C383.973 338.484 384.081 338.736 384.297 338.916C384.525 339.084 384.813 339.216 385.161 339.312C385.521 339.408 385.917 339.492 386.349 339.564C386.781 339.624 387.213 339.708 387.645 339.816C388.077 339.912 388.467 340.05 388.815 340.23C389.175 340.41 389.463 340.662 389.679 340.986C389.907 341.31 390.021 341.742 390.021 342.282C390.021 342.858 389.853 343.356 389.517 343.776C389.181 344.196 388.707 344.526 388.095 344.766C387.483 344.994 386.751 345.108 385.899 345.108ZM392.181 345V335.46H393.909V345H392.181ZM393.045 333.624C392.709 333.624 392.427 333.516 392.199 333.3C391.983 333.084 391.875 332.82 391.875 332.508C391.875 332.184 391.983 331.914 392.199 331.698C392.427 331.482 392.709 331.374 393.045 331.374C393.381 331.374 393.657 331.482 393.873 331.698C394.101 331.902 394.215 332.16 394.215 332.472C394.215 332.796 394.107 333.072 393.891 333.3C393.675 333.516 393.393 333.624 393.045 333.624ZM401.384 348.6C400.508 348.6 399.656 348.474 398.828 348.222C398.012 347.982 397.346 347.634 396.83 347.178L397.658 345.846C398.102 346.23 398.648 346.53 399.296 346.746C399.944 346.974 400.622 347.088 401.33 347.088C402.458 347.088 403.286 346.824 403.814 346.296C404.342 345.768 404.606 344.964 404.606 343.884V341.868L404.786 339.978L404.696 338.07V335.46H406.334V343.704C406.334 345.384 405.914 346.62 405.074 347.412C404.234 348.204 403.004 348.6 401.384 348.6ZM401.168 344.604C400.244 344.604 399.416 344.412 398.684 344.028C397.964 343.632 397.388 343.086 396.956 342.39C396.536 341.694 396.326 340.89 396.326 339.978C396.326 339.054 396.536 338.25 396.956 337.566C397.388 336.87 397.964 336.33 398.684 335.946C399.416 335.562 400.244 335.37 401.168 335.37C401.984 335.37 402.728 335.538 403.4 335.874C404.072 336.198 404.606 336.702 405.002 337.386C405.41 338.07 405.614 338.934 405.614 339.978C405.614 341.01 405.41 341.868 405.002 342.552C404.606 343.236 404.072 343.752 403.4 344.1C402.728 344.436 401.984 344.604 401.168 344.604ZM401.366 343.092C402.002 343.092 402.566 342.96 403.058 342.696C403.55 342.432 403.934 342.066 404.21 341.598C404.498 341.13 404.642 340.59 404.642 339.978C404.642 339.366 404.498 338.826 404.21 338.358C403.934 337.89 403.55 337.53 403.058 337.278C402.566 337.014 402.002 336.882 401.366 336.882C400.73 336.882 400.16 337.014 399.656 337.278C399.164 337.53 398.774 337.89 398.486 338.358C398.21 338.826 398.072 339.366 398.072 339.978C398.072 340.59 398.21 341.13 398.486 341.598C398.774 342.066 399.164 342.432 399.656 342.696C400.16 342.96 400.73 343.092 401.366 343.092ZM414.73 335.37C415.51 335.37 416.194 335.52 416.782 335.82C417.382 336.12 417.85 336.576 418.186 337.188C418.522 337.8 418.69 338.574 418.69 339.51V345H416.962V339.708C416.962 338.784 416.734 338.088 416.278 337.62C415.834 337.152 415.204 336.918 414.388 336.918C413.776 336.918 413.242 337.038 412.786 337.278C412.33 337.518 411.976 337.872 411.724 338.34C411.484 338.808 411.364 339.39 411.364 340.086V345H409.636V331.644H411.364V338.034L411.022 337.35C411.334 336.726 411.814 336.24 412.462 335.892C413.11 335.544 413.866 335.37 414.73 335.37ZM425.164 345.108C424.204 345.108 423.46 344.85 422.932 344.334C422.404 343.818 422.14 343.08 422.14 342.12V333.372H423.868V342.048C423.868 342.564 423.994 342.96 424.246 343.236C424.51 343.512 424.882 343.65 425.362 343.65C425.902 343.65 426.352 343.5 426.712 343.2L427.252 344.442C426.988 344.67 426.67 344.838 426.298 344.946C425.938 345.054 425.56 345.108 425.164 345.108ZM420.52 336.882V335.46H426.604V336.882H420.52ZM432.077 345.108C431.285 345.108 430.529 345 429.809 344.784C429.101 344.568 428.543 344.304 428.135 343.992L428.855 342.624C429.263 342.9 429.767 343.134 430.367 343.326C430.967 343.518 431.579 343.614 432.203 343.614C433.007 343.614 433.583 343.5 433.931 343.272C434.291 343.044 434.471 342.726 434.471 342.318C434.471 342.018 434.363 341.784 434.147 341.616C433.931 341.448 433.643 341.322 433.283 341.238C432.935 341.154 432.545 341.082 432.113 341.022C431.681 340.95 431.249 340.866 430.817 340.77C430.385 340.662 429.989 340.518 429.629 340.338C429.269 340.146 428.981 339.888 428.765 339.564C428.549 339.228 428.441 338.784 428.441 338.232C428.441 337.656 428.603 337.152 428.927 336.72C429.251 336.288 429.707 335.958 430.295 335.73C430.895 335.49 431.603 335.37 432.419 335.37C433.043 335.37 433.673 335.448 434.309 335.604C434.957 335.748 435.485 335.958 435.893 336.234L435.155 337.602C434.723 337.314 434.273 337.116 433.805 337.008C433.337 336.9 432.869 336.846 432.401 336.846C431.645 336.846 431.081 336.972 430.709 337.224C430.337 337.464 430.151 337.776 430.151 338.16C430.151 338.484 430.259 338.736 430.475 338.916C430.703 339.084 430.991 339.216 431.339 339.312C431.699 339.408 432.095 339.492 432.527 339.564C432.959 339.624 433.391 339.708 433.823 339.816C434.255 339.912 434.645 340.05 434.993 340.23C435.353 340.41 435.641 340.662 435.857 340.986C436.085 341.31 436.199 341.742 436.199 342.282C436.199 342.858 436.031 343.356 435.695 343.776C435.359 344.196 434.885 344.526 434.273 344.766C433.661 344.994 432.929 345.108 432.077 345.108Z" fill="#FBF8F7"/>
<rect x="889.002" y="98.0005" width="335" height="210" rx="13.886" fill="white"/>
<rect x="889.002" y="98.0005" width="335" height="210" rx="13.886" fill="#69A3CC" fill-opacity="0.16"/>
<g clipPath="url(#clip1_3398_63321)">
<path d="M1000 132.944C1000 129.109 1003.11 126 1006.94 126H1189.06C1192.89 126 1196 129.109 1196 132.943V348C1196 361.255 1185.26 372 1172 372H1000V132.944Z" fill="white"/>
<rect x="1046" y="134" width="142" height="38" rx="3.4715" fill="#69A3CC" fill-opacity="0.16"/>
<path d="M1008 220.47C1008 218.554 1009.56 217 1011.47 217H1184.53C1186.45 217 1188 218.554 1188 220.47V304.53C1188 306.447 1186.45 308 1184.53 308H1011.47C1009.56 308 1008 306.447 1008 304.53V220.47Z" fill="#F8F8F8"/>
<rect x="1037" y="225" width="143" height="14" rx="3.4715" fill="#69A3CC" fill-opacity="0.16"/>
<mask id="mask0_3398_63321" style="mask-type:alpha" maskUnits="userSpaceOnUse" x="1000" y="126" width="197" height="247">
<path d="M1000 132.944C1000 129.109 1003.11 126 1006.94 126H1189.06C1192.89 126 1196 129.109 1196 132.943V348C1196 361.255 1185.26 372 1172 372H1000V132.944Z" fill="white"/>
</mask>
<g mask="url(#mask0_3398_63321)">
<path d="M1008 319.47C1008 317.554 1009.56 316 1011.47 316H1184.53C1186.45 316 1188 317.554 1188 319.47V368.53C1188 370.447 1186.45 372 1184.53 372H1011.47C1009.56 372 1008 370.447 1008 368.53V319.47Z" fill="#F8F8F8"/>
<rect x="1037" y="366" width="143" height="14" rx="3.4715" fill="#69A3CC" fill-opacity="0.16"/>
</g>
<rect x="1037" y="324" width="143" height="14" rx="3.4715" fill="#69A3CC" fill-opacity="0.16"/>
<rect x="1008" y="180" width="180" height="29" rx="3.4715" fill="#ECECEC"/>
<rect x="1037" y="246" width="143" height="14" rx="3.4715" fill="#69A3CC" fill-opacity="0.16"/>
<rect x="1037" y="345" width="143" height="14" rx="3.4715" fill="#69A3CC" fill-opacity="0.16"/>
<rect x="1037" y="267" width="143" height="14" rx="3.4715" fill="#69A3CC" fill-opacity="0.16"/>
<rect x="1037" y="288" width="143" height="14" rx="3.4715" fill="#69A3CC" fill-opacity="0.16"/>
<rect x="1016" y="225" width="13.886" height="13.886" rx="3.4715" fill="#69A3CC"/>
<rect x="1016" y="324" width="13.886" height="13.886" rx="3.4715" fill="#69A3CC" fill-opacity="0.16"/>
<rect x="1052" y="140" width="70" height="5" rx="2.5" fill="#69A3CC"/>
<rect x="1052" y="150" width="108" height="6" rx="3" fill="#69A3CC"/>
<rect x="1052" y="161" width="90" height="5" rx="2.5" fill="#69A3CC"/>
<path d="M1019.9 252.667L1022.04 255L1025.9 251" stroke="#4B9C2F" strokeWidth="2" strokeLinecap="round" strokeLinejoin="round"/>
<rect x="1016" y="245.83" width="13.886" height="13.886" rx="3.4715" fill="#69A3CC" fill-opacity="0.16"/>
<rect x="1016" y="344.83" width="13.886" height="13.886" rx="3.4715" fill="#69A3CC"/>
<rect x="1016" y="266.659" width="13.886" height="13.886" rx="3.4715" fill="#69A3CC" fill-opacity="0.16"/>
<rect x="1016" y="365.659" width="13.886" height="13.886" rx="3.4715" fill="#69A3CC" fill-opacity="0.16"/>
<rect x="1016" y="288" width="13.886" height="13.886" rx="3.4715" fill="#69A3CC" fill-opacity="0.16"/>
<rect x="917.002" y="126" width="75" height="28" rx="6.94301" fill="#69A3CC" fill-opacity="0.4"/>
<rect width="75" height="73" rx="6.94301" transform="matrix(1 0 -0.000189952 1 917.01 162)" fill="white"/>
<path fillRule="evenodd" clipRule="evenodd" d="M1025.51 201.511C1025.44 197.605 1022.28 194.452 1018.38 194.385V194.383C1022.28 194.316 1025.44 191.163 1025.51 187.258H1025.51C1025.58 191.161 1028.73 194.313 1032.63 194.383V194.385C1028.73 194.455 1025.58 197.607 1025.51 201.511H1025.51Z" fill="#69A3CC"/>
<path fillRule="evenodd" clipRule="evenodd" d="M979.002 325C976.793 325 975.002 326.791 975.002 329V348C975.002 361.255 985.747 372 999.002 372H1162V371.056C1152 368.16 1144.69 358.934 1144.69 348V331V327.689C1144.69 326.204 1143.49 325 1142 325H979.002Z" fill="#C1DDED"/>
</g>
<circle cx="1023.5" cy="153.5" r="11.5" stroke="#C1DDED" strokeWidth="8"/>
<path d="M1012 153.5C1012 159.851 1017.15 165 1023.5 165C1029.85 165 1035 159.851 1035 153.5C1035 147.149 1029.85 142 1023.5 142" stroke="#69A3CC" strokeWidth="8"/>
<path fillRule="evenodd" clipRule="evenodd" d="M1213.62 120.026C1196.51 120.332 1182.71 134.141 1182.4 151.246H1182.39C1182.09 134.137 1168.28 120.325 1151.17 120.026V120.016C1168.28 119.718 1182.09 105.905 1182.39 88.7964H1182.4C1182.71 105.901 1196.51 119.711 1213.62 120.016V120.026Z" fill="#EB896A"/>
<path fillRule="evenodd" clipRule="evenodd" d="M1140.75 109.603C1140.55 98.2007 1131.34 88.9948 1119.94 88.7963V88.79C1131.34 88.5915 1140.55 79.3859 1140.75 67.9834H1140.76C1140.96 79.3818 1150.16 88.5849 1161.56 88.7899V88.7967C1150.16 89.0017 1140.96 98.205 1140.76 109.603H1140.75Z" fill="#F6E9E7"/>
</g>
<defs>
<clipPath id="clip0_3398_63321">
<rect width="1304" height="406" rx="8" fill="white"/>
</clipPath>
<clipPath id="clip1_3398_63321">
<rect x="889.002" y="98.0005" width="335" height="274" rx="13.886" fill="white"/>
</clipPath>
</defs>
</svg>
