<svg width="1304" height="406" viewBox="0 0 1304 406" fill="none" xmlns="http://www.w3.org/2000/svg">
<g clipPath="url(#clip0_3400_61847)">
<rect width="1304" height="406" rx="8" fill="white"/>
<rect width="1304" height="406" rx="8" fill="#D8532A"/>
<g filter="url(#filter0_f_3400_61847)">
<circle cx="1032" cy="200" r="250" fill="#E8704B" fill-opacity="0.64"/>
</g>
<path d="M100.064 107.576C89.648 107.576 81.872 100.328 81.872 90.2C81.872 80.072 89.648 72.824 100.112 72.824C105.92 72.824 110.768 74.936 113.936 78.776L108.944 83.384C106.688 80.792 103.856 79.448 100.496 79.448C94.208 79.448 89.744 83.864 89.744 90.2C89.744 96.536 94.208 100.952 100.496 100.952C103.856 100.952 106.688 99.608 108.944 96.968L113.936 101.576C110.768 105.464 105.92 107.576 100.064 107.576ZM134.355 80.792C140.451 80.792 145.059 84.344 145.059 92.216V107H137.571V93.368C137.571 89.192 135.651 87.272 132.339 87.272C128.739 87.272 126.147 89.48 126.147 94.232V107H118.659V71.384H126.147V83.864C128.163 81.848 131.043 80.792 134.355 80.792ZM177.424 94.184C177.424 94.76 177.328 95.576 177.28 96.2H157.744C158.464 99.416 161.2 101.384 165.136 101.384C167.872 101.384 169.84 100.568 171.616 98.888L175.6 103.208C173.2 105.944 169.6 107.384 164.944 107.384C156.016 107.384 150.208 101.768 150.208 94.088C150.208 86.36 156.112 80.792 163.984 80.792C171.568 80.792 177.424 85.88 177.424 94.184ZM164.032 86.456C160.624 86.456 158.176 88.52 157.648 91.832H170.368C169.84 88.568 167.392 86.456 164.032 86.456ZM192.122 80.792C199.994 80.792 204.554 84.44 204.554 92.264V107H197.546V103.784C196.154 106.136 193.466 107.384 189.674 107.384C183.626 107.384 180.026 104.024 180.026 99.56C180.026 95 183.242 91.832 191.114 91.832H197.066C197.066 88.616 195.146 86.744 191.114 86.744C188.378 86.744 185.546 87.656 183.674 89.144L180.986 83.912C183.818 81.896 187.994 80.792 192.122 80.792ZM191.546 102.344C194.042 102.344 196.202 101.192 197.066 98.84V96.2H191.93C188.426 96.2 187.322 97.496 187.322 99.224C187.322 101.096 188.906 102.344 191.546 102.344ZM225.971 100.472L227.987 105.752C226.451 106.856 224.195 107.384 221.891 107.384C215.795 107.384 212.243 104.264 212.243 98.12V87.512H208.259V81.752H212.243V75.464H219.731V81.752H226.163V87.512H219.731V98.024C219.731 100.232 220.931 101.432 222.947 101.432C224.051 101.432 225.155 101.096 225.971 100.472ZM235.934 77.576C233.15 77.576 231.278 75.752 231.278 73.4C231.278 71.048 233.15 69.224 235.934 69.224C238.718 69.224 240.59 70.952 240.59 73.256C240.59 75.752 238.718 77.576 235.934 77.576ZM232.19 107V81.176H239.678V107H232.19ZM262.324 80.792C268.42 80.792 273.028 84.344 273.028 92.216V107H265.54V93.368C265.54 89.192 263.62 87.272 260.308 87.272C256.708 87.272 254.116 89.48 254.116 94.232V107H246.628V81.176H253.78V84.2C255.796 81.992 258.82 80.792 262.324 80.792ZM299.633 81.176H306.737V102.68C306.737 112.28 301.553 116.696 292.241 116.696C287.345 116.696 282.593 115.496 279.569 113.144L282.545 107.768C284.753 109.544 288.353 110.696 291.665 110.696C296.945 110.696 299.249 108.296 299.249 103.64V102.536C297.281 104.696 294.449 105.752 291.089 105.752C283.937 105.752 278.177 100.808 278.177 93.272C278.177 85.736 283.937 80.792 291.089 80.792C294.689 80.792 297.665 81.992 299.633 84.488V81.176ZM292.577 99.608C296.513 99.608 299.345 97.064 299.345 93.272C299.345 89.48 296.513 86.936 292.577 86.936C288.641 86.936 285.761 89.48 285.761 93.272C285.761 97.064 288.641 99.608 292.577 99.608ZM343.908 107.576C333.492 107.576 325.716 100.328 325.716 90.2C325.716 80.072 333.492 72.824 343.956 72.824C349.764 72.824 354.612 74.936 357.78 78.776L352.788 83.384C350.532 80.792 347.7 79.448 344.34 79.448C338.052 79.448 333.588 83.864 333.588 90.2C333.588 96.536 338.052 100.952 344.34 100.952C347.7 100.952 350.532 99.608 352.788 96.968L357.78 101.576C354.612 105.464 349.764 107.576 343.908 107.576ZM373.9 107.384C365.692 107.384 359.692 101.864 359.692 94.088C359.692 86.312 365.692 80.792 373.9 80.792C382.108 80.792 388.06 86.312 388.06 94.088C388.06 101.864 382.108 107.384 373.9 107.384ZM373.9 101.24C377.644 101.24 380.476 98.552 380.476 94.088C380.476 89.624 377.644 86.936 373.9 86.936C370.156 86.936 367.276 89.624 367.276 94.088C367.276 98.552 370.156 101.24 373.9 101.24ZM408.761 80.792C414.857 80.792 419.465 84.344 419.465 92.216V107H411.977V93.368C411.977 89.192 410.057 87.272 406.745 87.272C403.145 87.272 400.553 89.48 400.553 94.232V107H393.065V81.176H400.217V84.2C402.233 81.992 405.257 80.792 408.761 80.792ZM439.014 107.384C430.614 107.384 424.614 101.864 424.614 94.088C424.614 86.312 430.614 80.792 439.014 80.792C444.438 80.792 448.71 83.144 450.582 87.368L444.774 90.488C443.382 88.04 441.318 86.936 438.966 86.936C435.174 86.936 432.198 89.576 432.198 94.088C432.198 98.6 435.174 101.24 438.966 101.24C441.318 101.24 443.382 100.184 444.774 97.688L450.582 100.856C448.71 104.984 444.438 107.384 439.014 107.384ZM479.861 94.184C479.861 94.76 479.765 95.576 479.717 96.2H460.181C460.901 99.416 463.637 101.384 467.573 101.384C470.309 101.384 472.277 100.568 474.053 98.888L478.037 103.208C475.637 105.944 472.037 107.384 467.381 107.384C458.453 107.384 452.645 101.768 452.645 94.088C452.645 86.36 458.549 80.792 466.421 80.792C474.005 80.792 479.861 85.88 479.861 94.184ZM466.469 86.456C463.061 86.456 460.613 88.52 460.085 91.832H472.805C472.277 88.568 469.829 86.456 466.469 86.456ZM491.999 84.584C493.823 82.088 496.895 80.792 500.879 80.792V87.704C500.255 87.656 499.775 87.608 499.199 87.608C495.071 87.608 492.335 89.864 492.335 94.808V107H484.847V81.176H491.999V84.584ZM521.027 80.792C527.123 80.792 531.731 84.344 531.731 92.216V107H524.243V93.368C524.243 89.192 522.323 87.272 519.011 87.272C515.411 87.272 512.819 89.48 512.819 94.232V107H505.331V81.176H512.483V84.2C514.499 81.992 517.523 80.792 521.027 80.792ZM547.207 107.384C542.839 107.384 538.423 106.184 536.023 104.6L538.519 99.224C540.823 100.712 544.327 101.72 547.495 101.72C550.951 101.72 552.247 100.808 552.247 99.368C552.247 95.144 536.646 99.464 536.646 89.144C536.646 84.248 541.062 80.792 548.599 80.792C552.151 80.792 556.087 81.608 558.535 83.048L556.039 88.376C553.495 86.936 550.951 86.456 548.599 86.456C545.239 86.456 543.799 87.512 543.799 88.856C543.799 93.272 559.399 89 559.399 99.176C559.399 103.976 554.935 107.384 547.207 107.384ZM570.322 95.336C570.322 88.616 577.81 87.128 577.81 82.952C577.81 80.6 575.746 79.112 572.626 79.112C569.554 79.112 567.202 80.456 565.666 82.664L559.858 79.256C562.45 75.32 566.962 72.824 573.442 72.824C580.642 72.824 585.634 76.04 585.634 81.704C585.634 89.384 577.57 90.248 577.57 95.336H570.322ZM573.97 107.384C571.282 107.384 569.362 105.416 569.362 103.016C569.362 100.568 571.282 98.744 573.97 98.744C576.658 98.744 578.578 100.568 578.578 103.016C578.578 105.416 576.658 107.384 573.97 107.384ZM90.944 179V151.736H80.192V145.4H109.472V151.736H98.72V179H90.944ZM119.717 156.584C121.541 154.088 124.613 152.792 128.597 152.792V159.704C127.973 159.656 127.493 159.608 126.917 159.608C122.789 159.608 120.053 161.864 120.053 166.808V179H112.565V153.176H119.717V156.584ZM151.765 153.176H159.253V179H152.149V175.928C150.181 178.184 147.301 179.384 144.133 179.384C137.653 179.384 133.093 175.736 133.093 167.768V153.176H140.581V166.664C140.581 170.984 142.501 172.904 145.813 172.904C149.269 172.904 151.765 170.696 151.765 165.944V153.176ZM174.878 179.384C170.51 179.384 166.094 178.184 163.694 176.6L166.19 171.224C168.494 172.712 171.998 173.72 175.166 173.72C178.622 173.72 179.918 172.808 179.918 171.368C179.918 167.144 164.318 171.464 164.318 161.144C164.318 156.248 168.734 152.792 176.27 152.792C179.822 152.792 183.758 153.608 186.206 155.048L183.71 160.376C181.166 158.936 178.622 158.456 176.27 158.456C172.91 158.456 171.47 159.512 171.47 160.856C171.47 165.272 187.07 161 187.07 171.176C187.07 175.976 182.606 179.384 174.878 179.384ZM206.33 172.472L208.346 177.752C206.81 178.856 204.554 179.384 202.25 179.384C196.154 179.384 192.602 176.264 192.602 170.12V159.512H188.618V153.752H192.602V147.464H200.09V153.752H206.522V159.512H200.09V170.024C200.09 172.232 201.29 173.432 203.306 173.432C204.41 173.432 205.514 173.096 206.33 172.472ZM256.432 179H248.08L241.6 169.64H241.216H234.448V179H226.672V145.4H241.216C250.192 145.4 255.808 150.056 255.808 157.592C255.808 162.632 253.264 166.328 248.896 168.2L256.432 179ZM247.936 157.592C247.936 153.896 245.536 151.736 240.784 151.736H234.448V163.448H240.784C245.536 163.448 247.936 161.24 247.936 157.592ZM286.736 166.184C286.736 166.76 286.64 167.576 286.592 168.2H267.056C267.776 171.416 270.512 173.384 274.448 173.384C277.184 173.384 279.152 172.568 280.928 170.888L284.912 175.208C282.512 177.944 278.912 179.384 274.256 179.384C265.328 179.384 259.52 173.768 259.52 166.088C259.52 158.36 265.424 152.792 273.296 152.792C280.88 152.792 286.736 157.88 286.736 166.184ZM273.344 158.456C269.936 158.456 267.488 160.52 266.96 163.832H279.68C279.152 160.568 276.704 158.456 273.344 158.456ZM310.538 143.384H318.026V179H310.874V176.024C309.002 178.28 306.266 179.384 302.81 179.384C295.514 179.384 289.898 174.2 289.898 166.088C289.898 157.976 295.514 152.792 302.81 152.792C305.978 152.792 308.666 153.8 310.538 155.912V143.384ZM304.106 173.24C307.802 173.24 310.682 170.552 310.682 166.088C310.682 161.624 307.802 158.936 304.106 158.936C300.362 158.936 297.482 161.624 297.482 166.088C297.482 170.552 300.362 173.24 304.106 173.24ZM332.108 156.584C333.932 154.088 337.004 152.792 340.988 152.792V159.704C340.364 159.656 339.884 159.608 339.308 159.608C335.18 159.608 332.444 161.864 332.444 166.808V179H324.956V153.176H332.108V156.584ZM357.494 179.384C349.286 179.384 343.286 173.864 343.286 166.088C343.286 158.312 349.286 152.792 357.494 152.792C365.702 152.792 371.654 158.312 371.654 166.088C371.654 173.864 365.702 179.384 357.494 179.384ZM357.494 173.24C361.238 173.24 364.07 170.552 364.07 166.088C364.07 161.624 361.238 158.936 357.494 158.936C353.75 158.936 350.87 161.624 350.87 166.088C350.87 170.552 353.75 173.24 357.494 173.24ZM391.923 152.792C399.171 152.792 404.787 157.976 404.787 166.088C404.787 174.2 399.171 179.384 391.923 179.384C388.467 179.384 385.683 178.28 383.811 176.024V179H376.659V143.384H384.147V155.912C386.067 153.8 388.707 152.792 391.923 152.792ZM390.627 173.24C394.371 173.24 397.203 170.552 397.203 166.088C397.203 161.624 394.371 158.936 390.627 158.936C386.883 158.936 384.051 161.624 384.051 166.088C384.051 170.552 386.883 173.24 390.627 173.24Z" fill="#FBF8F7"/>
<path fillRule="evenodd" clipRule="evenodd" d="M91.9996 306C91.8837 299.425 86.575 294.117 80 294.002V294C86.5757 293.885 91.8848 288.576 91.9997 282H92.0024C92.1173 288.575 97.4253 293.884 104 294V294.006C97.4272 294.122 92.1205 299.428 92.0025 306H91.9996Z" fill="#EB896A"/>
<path d="M111.982 301L117.688 288.4H119.47L125.194 301H123.304L118.21 289.408H118.93L113.836 301H111.982ZM114.412 297.85L114.898 296.41H121.99L122.512 297.85H114.412ZM127.074 301V288.4H128.874V301H127.074ZM142.286 301.108C141.494 301.108 140.768 300.928 140.108 300.568C139.46 300.196 138.938 299.65 138.542 298.93C138.158 298.21 137.966 297.31 137.966 296.23C137.966 295.15 138.152 294.25 138.524 293.53C138.908 292.81 139.424 292.27 140.072 291.91C140.732 291.55 141.47 291.37 142.286 291.37C143.222 291.37 144.05 291.574 144.77 291.982C145.49 292.39 146.06 292.96 146.48 293.692C146.9 294.412 147.11 295.258 147.11 296.23C147.11 297.202 146.9 298.054 146.48 298.786C146.06 299.518 145.49 300.088 144.77 300.496C144.05 300.904 143.222 301.108 142.286 301.108ZM137.228 304.492V291.46H138.884V294.034L138.776 296.248L138.956 298.462V304.492H137.228ZM142.142 299.596C142.754 299.596 143.3 299.458 143.78 299.182C144.272 298.906 144.656 298.516 144.932 298.012C145.22 297.496 145.364 296.902 145.364 296.23C145.364 295.546 145.22 294.958 144.932 294.466C144.656 293.962 144.272 293.572 143.78 293.296C143.3 293.02 142.754 292.882 142.142 292.882C141.542 292.882 140.996 293.02 140.504 293.296C140.024 293.572 139.64 293.962 139.352 294.466C139.076 294.958 138.938 295.546 138.938 296.23C138.938 296.902 139.076 297.496 139.352 298.012C139.64 298.516 140.024 298.906 140.504 299.182C140.996 299.458 141.542 299.596 142.142 299.596ZM149.497 301V291.46H151.153V294.052L150.991 293.404C151.255 292.744 151.699 292.24 152.323 291.892C152.947 291.544 153.715 291.37 154.627 291.37V293.044C154.555 293.032 154.483 293.026 154.411 293.026C154.351 293.026 154.291 293.026 154.231 293.026C153.307 293.026 152.575 293.302 152.035 293.854C151.495 294.406 151.225 295.204 151.225 296.248V301H149.497ZM160.755 301.108C159.795 301.108 158.943 300.898 158.199 300.478C157.455 300.058 156.867 299.482 156.435 298.75C156.003 298.006 155.787 297.166 155.787 296.23C155.787 295.282 156.003 294.442 156.435 293.71C156.867 292.978 157.455 292.408 158.199 292C158.943 291.58 159.795 291.37 160.755 291.37C161.703 291.37 162.549 291.58 163.293 292C164.049 292.408 164.637 292.978 165.057 293.71C165.489 294.43 165.705 295.27 165.705 296.23C165.705 297.178 165.489 298.018 165.057 298.75C164.637 299.482 164.049 300.058 163.293 300.478C162.549 300.898 161.703 301.108 160.755 301.108ZM160.755 299.596C161.367 299.596 161.913 299.458 162.393 299.182C162.885 298.906 163.269 298.516 163.545 298.012C163.821 297.496 163.959 296.902 163.959 296.23C163.959 295.546 163.821 294.958 163.545 294.466C163.269 293.962 162.885 293.572 162.393 293.296C161.913 293.02 161.367 292.882 160.755 292.882C160.143 292.882 159.597 293.02 159.117 293.296C158.637 293.572 158.253 293.962 157.965 294.466C157.677 294.958 157.533 295.546 157.533 296.23C157.533 296.902 157.677 297.496 157.965 298.012C158.253 298.516 158.637 298.906 159.117 299.182C159.597 299.458 160.143 299.596 160.755 299.596ZM172.253 301.108C171.281 301.108 170.411 300.898 169.643 300.478C168.887 300.058 168.293 299.482 167.861 298.75C167.429 298.018 167.213 297.178 167.213 296.23C167.213 295.282 167.429 294.442 167.861 293.71C168.293 292.978 168.887 292.408 169.643 292C170.411 291.58 171.281 291.37 172.253 291.37C173.117 291.37 173.885 291.544 174.557 291.892C175.241 292.228 175.769 292.732 176.141 293.404L174.827 294.25C174.515 293.782 174.131 293.44 173.675 293.224C173.231 292.996 172.751 292.882 172.235 292.882C171.611 292.882 171.053 293.02 170.561 293.296C170.069 293.572 169.679 293.962 169.391 294.466C169.103 294.958 168.959 295.546 168.959 296.23C168.959 296.914 169.103 297.508 169.391 298.012C169.679 298.516 170.069 298.906 170.561 299.182C171.053 299.458 171.611 299.596 172.235 299.596C172.751 299.596 173.231 299.488 173.675 299.272C174.131 299.044 174.515 298.696 174.827 298.228L176.141 299.056C175.769 299.716 175.241 300.226 174.557 300.586C173.885 300.934 173.117 301.108 172.253 301.108ZM181.777 301.108C180.817 301.108 180.073 300.85 179.545 300.334C179.017 299.818 178.753 299.08 178.753 298.12V289.372H180.481V298.048C180.481 298.564 180.607 298.96 180.859 299.236C181.123 299.512 181.495 299.65 181.975 299.65C182.515 299.65 182.965 299.5 183.325 299.2L183.865 300.442C183.601 300.67 183.283 300.838 182.911 300.946C182.551 301.054 182.173 301.108 181.777 301.108ZM177.133 292.882V291.46H183.217V292.882H177.133ZM189.724 301.108C188.764 301.108 187.912 300.898 187.168 300.478C186.424 300.058 185.836 299.482 185.404 298.75C184.972 298.006 184.756 297.166 184.756 296.23C184.756 295.282 184.972 294.442 185.404 293.71C185.836 292.978 186.424 292.408 187.168 292C187.912 291.58 188.764 291.37 189.724 291.37C190.672 291.37 191.518 291.58 192.262 292C193.018 292.408 193.606 292.978 194.026 293.71C194.458 294.43 194.674 295.27 194.674 296.23C194.674 297.178 194.458 298.018 194.026 298.75C193.606 299.482 193.018 300.058 192.262 300.478C191.518 300.898 190.672 301.108 189.724 301.108ZM189.724 299.596C190.336 299.596 190.882 299.458 191.362 299.182C191.854 298.906 192.238 298.516 192.514 298.012C192.79 297.496 192.928 296.902 192.928 296.23C192.928 295.546 192.79 294.958 192.514 294.466C192.238 293.962 191.854 293.572 191.362 293.296C190.882 293.02 190.336 292.882 189.724 292.882C189.112 292.882 188.566 293.02 188.086 293.296C187.606 293.572 187.222 293.962 186.934 294.466C186.646 294.958 186.502 295.546 186.502 296.23C186.502 296.902 186.646 297.496 186.934 298.012C187.222 298.516 187.606 298.906 188.086 299.182C188.566 299.458 189.112 299.596 189.724 299.596ZM197.064 301V291.46H198.72V294.052L198.558 293.404C198.822 292.744 199.266 292.24 199.89 291.892C200.514 291.544 201.282 291.37 202.194 291.37V293.044C202.122 293.032 202.05 293.026 201.978 293.026C201.918 293.026 201.858 293.026 201.798 293.026C200.874 293.026 200.142 293.302 199.602 293.854C199.062 294.406 198.792 295.204 198.792 296.248V301H197.064ZM204.324 301V291.46H206.052V301H204.324ZM205.188 289.624C204.852 289.624 204.57 289.516 204.342 289.3C204.126 289.084 204.018 288.82 204.018 288.508C204.018 288.184 204.126 287.914 204.342 287.698C204.57 287.482 204.852 287.374 205.188 287.374C205.524 287.374 205.8 287.482 206.016 287.698C206.244 287.902 206.358 288.16 206.358 288.472C206.358 288.796 206.25 289.072 206.034 289.3C205.818 289.516 205.536 289.624 205.188 289.624ZM214.445 291.37C215.225 291.37 215.909 291.52 216.497 291.82C217.097 292.12 217.565 292.576 217.901 293.188C218.237 293.8 218.405 294.574 218.405 295.51V301H216.677V295.708C216.677 294.784 216.449 294.088 215.993 293.62C215.549 293.152 214.919 292.918 214.103 292.918C213.491 292.918 212.957 293.038 212.501 293.278C212.045 293.518 211.691 293.872 211.439 294.34C211.199 294.808 211.079 295.39 211.079 296.086V301H209.351V291.46H211.007V294.034L210.737 293.35C211.049 292.726 211.529 292.24 212.177 291.892C212.825 291.544 213.581 291.37 214.445 291.37ZM225.779 304.6C224.903 304.6 224.051 304.474 223.223 304.222C222.407 303.982 221.741 303.634 221.225 303.178L222.053 301.846C222.497 302.23 223.043 302.53 223.691 302.746C224.339 302.974 225.017 303.088 225.725 303.088C226.853 303.088 227.681 302.824 228.209 302.296C228.737 301.768 229.001 300.964 229.001 299.884V297.868L229.181 295.978L229.091 294.07V291.46H230.729V299.704C230.729 301.384 230.309 302.62 229.469 303.412C228.629 304.204 227.399 304.6 225.779 304.6ZM225.563 300.604C224.639 300.604 223.811 300.412 223.079 300.028C222.359 299.632 221.783 299.086 221.351 298.39C220.931 297.694 220.721 296.89 220.721 295.978C220.721 295.054 220.931 294.25 221.351 293.566C221.783 292.87 222.359 292.33 223.079 291.946C223.811 291.562 224.639 291.37 225.563 291.37C226.379 291.37 227.123 291.538 227.795 291.874C228.467 292.198 229.001 292.702 229.397 293.386C229.805 294.07 230.009 294.934 230.009 295.978C230.009 297.01 229.805 297.868 229.397 298.552C229.001 299.236 228.467 299.752 227.795 300.1C227.123 300.436 226.379 300.604 225.563 300.604ZM225.761 299.092C226.397 299.092 226.961 298.96 227.453 298.696C227.945 298.432 228.329 298.066 228.605 297.598C228.893 297.13 229.037 296.59 229.037 295.978C229.037 295.366 228.893 294.826 228.605 294.358C228.329 293.89 227.945 293.53 227.453 293.278C226.961 293.014 226.397 292.882 225.761 292.882C225.125 292.882 224.555 293.014 224.051 293.278C223.559 293.53 223.169 293.89 222.881 294.358C222.605 294.826 222.467 295.366 222.467 295.978C222.467 296.59 222.605 297.13 222.881 297.598C223.169 298.066 223.559 298.432 224.051 298.696C224.555 298.96 225.125 299.092 225.761 299.092Z" fill="#FBF8F7"/>
<path fillRule="evenodd" clipRule="evenodd" d="M91.9996 263C91.8837 256.425 86.575 251.117 80 251.002V251C86.5757 250.885 91.8848 245.576 91.9997 239H92.0024C92.1173 245.575 97.4253 250.884 104 251V251.006C97.4272 251.122 92.1205 256.428 92.0025 263H91.9996Z" fill="#EB896A"/>
<path d="M113.89 258V245.4H115.366L123.7 255.75H122.926V245.4H124.726V258H123.25L114.916 247.65H115.69V258H113.89ZM132.331 258.108C131.371 258.108 130.519 257.898 129.775 257.478C129.031 257.058 128.443 256.482 128.011 255.75C127.579 255.006 127.363 254.166 127.363 253.23C127.363 252.282 127.579 251.442 128.011 250.71C128.443 249.978 129.031 249.408 129.775 249C130.519 248.58 131.371 248.37 132.331 248.37C133.279 248.37 134.125 248.58 134.869 249C135.625 249.408 136.213 249.978 136.633 250.71C137.065 251.43 137.281 252.27 137.281 253.23C137.281 254.178 137.065 255.018 136.633 255.75C136.213 256.482 135.625 257.058 134.869 257.478C134.125 257.898 133.279 258.108 132.331 258.108ZM132.331 256.596C132.943 256.596 133.489 256.458 133.969 256.182C134.461 255.906 134.845 255.516 135.121 255.012C135.397 254.496 135.535 253.902 135.535 253.23C135.535 252.546 135.397 251.958 135.121 251.466C134.845 250.962 134.461 250.572 133.969 250.296C133.489 250.02 132.943 249.882 132.331 249.882C131.719 249.882 131.173 250.02 130.693 250.296C130.213 250.572 129.829 250.962 129.541 251.466C129.253 251.958 129.109 252.546 129.109 253.23C129.109 253.902 129.253 254.496 129.541 255.012C129.829 255.516 130.213 255.906 130.693 256.182C131.173 256.458 131.719 256.596 132.331 256.596ZM148.663 258.108C147.691 258.108 146.821 257.898 146.053 257.478C145.297 257.058 144.703 256.482 144.271 255.75C143.839 255.018 143.623 254.178 143.623 253.23C143.623 252.282 143.839 251.442 144.271 250.71C144.703 249.978 145.297 249.408 146.053 249C146.821 248.58 147.691 248.37 148.663 248.37C149.527 248.37 150.295 248.544 150.967 248.892C151.651 249.228 152.179 249.732 152.551 250.404L151.237 251.25C150.925 250.782 150.541 250.44 150.085 250.224C149.641 249.996 149.161 249.882 148.645 249.882C148.021 249.882 147.463 250.02 146.971 250.296C146.479 250.572 146.089 250.962 145.801 251.466C145.513 251.958 145.369 252.546 145.369 253.23C145.369 253.914 145.513 254.508 145.801 255.012C146.089 255.516 146.479 255.906 146.971 256.182C147.463 256.458 148.021 256.596 148.645 256.596C149.161 256.596 149.641 256.488 150.085 256.272C150.541 256.044 150.925 255.696 151.237 255.228L152.551 256.056C152.179 256.716 151.651 257.226 150.967 257.586C150.295 257.934 149.527 258.108 148.663 258.108ZM158.734 258.108C157.774 258.108 156.922 257.898 156.178 257.478C155.434 257.058 154.846 256.482 154.414 255.75C153.982 255.006 153.766 254.166 153.766 253.23C153.766 252.282 153.982 251.442 154.414 250.71C154.846 249.978 155.434 249.408 156.178 249C156.922 248.58 157.774 248.37 158.734 248.37C159.682 248.37 160.528 248.58 161.272 249C162.028 249.408 162.616 249.978 163.036 250.71C163.468 251.43 163.684 252.27 163.684 253.23C163.684 254.178 163.468 255.018 163.036 255.75C162.616 256.482 162.028 257.058 161.272 257.478C160.528 257.898 159.682 258.108 158.734 258.108ZM158.734 256.596C159.346 256.596 159.892 256.458 160.372 256.182C160.864 255.906 161.248 255.516 161.524 255.012C161.8 254.496 161.938 253.902 161.938 253.23C161.938 252.546 161.8 251.958 161.524 251.466C161.248 250.962 160.864 250.572 160.372 250.296C159.892 250.02 159.346 249.882 158.734 249.882C158.122 249.882 157.576 250.02 157.096 250.296C156.616 250.572 156.232 250.962 155.944 251.466C155.656 251.958 155.512 252.546 155.512 253.23C155.512 253.902 155.656 254.496 155.944 255.012C156.232 255.516 156.616 255.906 157.096 256.182C157.576 256.458 158.122 256.596 158.734 256.596ZM171.132 258.108C170.34 258.108 169.614 257.928 168.954 257.568C168.306 257.196 167.784 256.65 167.388 255.93C167.004 255.21 166.812 254.31 166.812 253.23C166.812 252.15 166.998 251.25 167.37 250.53C167.754 249.81 168.27 249.27 168.918 248.91C169.578 248.55 170.316 248.37 171.132 248.37C172.068 248.37 172.896 248.574 173.616 248.982C174.336 249.39 174.906 249.96 175.326 250.692C175.746 251.412 175.956 252.258 175.956 253.23C175.956 254.202 175.746 255.054 175.326 255.786C174.906 256.518 174.336 257.088 173.616 257.496C172.896 257.904 172.068 258.108 171.132 258.108ZM166.074 261.492V248.46H167.73V251.034L167.622 253.248L167.802 255.462V261.492H166.074ZM170.988 256.596C171.6 256.596 172.146 256.458 172.626 256.182C173.118 255.906 173.502 255.516 173.778 255.012C174.066 254.496 174.21 253.902 174.21 253.23C174.21 252.546 174.066 251.958 173.778 251.466C173.502 250.962 173.118 250.572 172.626 250.296C172.146 250.02 171.6 249.882 170.988 249.882C170.388 249.882 169.842 250.02 169.35 250.296C168.87 250.572 168.486 250.962 168.198 251.466C167.922 251.958 167.784 252.546 167.784 253.23C167.784 253.902 167.922 254.496 168.198 255.012C168.486 255.516 168.87 255.906 169.35 256.182C169.842 256.458 170.388 256.596 170.988 256.596ZM178.493 261.6C178.037 261.6 177.593 261.522 177.161 261.366C176.729 261.222 176.357 261.006 176.045 260.718L176.783 259.422C177.023 259.65 177.287 259.824 177.575 259.944C177.863 260.064 178.169 260.124 178.493 260.124C178.913 260.124 179.261 260.016 179.537 259.8C179.813 259.584 180.071 259.2 180.311 258.648L180.905 257.334L181.085 257.118L184.829 248.46H186.521L181.895 258.954C181.619 259.626 181.307 260.154 180.959 260.538C180.623 260.922 180.251 261.192 179.843 261.348C179.435 261.516 178.985 261.6 178.493 261.6ZM180.761 258.306L176.405 248.46H178.205L181.913 256.956L180.761 258.306ZM187.294 253.806V252.312H192.136V253.806H187.294ZM199.854 258.108C199.062 258.108 198.336 257.928 197.676 257.568C197.028 257.196 196.506 256.65 196.11 255.93C195.726 255.21 195.534 254.31 195.534 253.23C195.534 252.15 195.72 251.25 196.092 250.53C196.476 249.81 196.992 249.27 197.64 248.91C198.3 248.55 199.038 248.37 199.854 248.37C200.79 248.37 201.618 248.574 202.338 248.982C203.058 249.39 203.628 249.96 204.048 250.692C204.468 251.412 204.678 252.258 204.678 253.23C204.678 254.202 204.468 255.054 204.048 255.786C203.628 256.518 203.058 257.088 202.338 257.496C201.618 257.904 200.79 258.108 199.854 258.108ZM194.796 261.492V248.46H196.452V251.034L196.344 253.248L196.524 255.462V261.492H194.796ZM199.71 256.596C200.322 256.596 200.868 256.458 201.348 256.182C201.84 255.906 202.224 255.516 202.5 255.012C202.788 254.496 202.932 253.902 202.932 253.23C202.932 252.546 202.788 251.958 202.5 251.466C202.224 250.962 201.84 250.572 201.348 250.296C200.868 250.02 200.322 249.882 199.71 249.882C199.11 249.882 198.564 250.02 198.072 250.296C197.592 250.572 197.208 250.962 196.92 251.466C196.644 251.958 196.506 252.546 196.506 253.23C196.506 253.902 196.644 254.496 196.92 255.012C197.208 255.516 197.592 255.906 198.072 256.182C198.564 256.458 199.11 256.596 199.71 256.596ZM212.9 258V255.984L212.81 255.606V252.168C212.81 251.436 212.594 250.872 212.162 250.476C211.742 250.068 211.106 249.864 210.254 249.864C209.69 249.864 209.138 249.96 208.598 250.152C208.058 250.332 207.602 250.578 207.23 250.89L206.51 249.594C207.002 249.198 207.59 248.898 208.274 248.694C208.97 248.478 209.696 248.37 210.452 248.37C211.76 248.37 212.768 248.688 213.476 249.324C214.184 249.96 214.538 250.932 214.538 252.24V258H212.9ZM209.768 258.108C209.06 258.108 208.436 257.988 207.896 257.748C207.368 257.508 206.96 257.178 206.672 256.758C206.384 256.326 206.24 255.84 206.24 255.3C206.24 254.784 206.36 254.316 206.6 253.896C206.852 253.476 207.254 253.14 207.806 252.888C208.37 252.636 209.126 252.51 210.074 252.51H213.098V253.752H210.146C209.282 253.752 208.7 253.896 208.4 254.184C208.1 254.472 207.95 254.82 207.95 255.228C207.95 255.696 208.136 256.074 208.508 256.362C208.88 256.638 209.396 256.776 210.056 256.776C210.704 256.776 211.268 256.632 211.748 256.344C212.24 256.056 212.594 255.636 212.81 255.084L213.152 256.272C212.924 256.836 212.522 257.286 211.946 257.622C211.37 257.946 210.644 258.108 209.768 258.108ZM220.472 258.108C219.68 258.108 218.924 258 218.204 257.784C217.496 257.568 216.938 257.304 216.53 256.992L217.25 255.624C217.658 255.9 218.162 256.134 218.762 256.326C219.362 256.518 219.974 256.614 220.598 256.614C221.402 256.614 221.978 256.5 222.326 256.272C222.686 256.044 222.866 255.726 222.866 255.318C222.866 255.018 222.758 254.784 222.542 254.616C222.326 254.448 222.038 254.322 221.678 254.238C221.33 254.154 220.94 254.082 220.508 254.022C220.076 253.95 219.644 253.866 219.212 253.77C218.78 253.662 218.384 253.518 218.024 253.338C217.664 253.146 217.376 252.888 217.16 252.564C216.944 252.228 216.836 251.784 216.836 251.232C216.836 250.656 216.998 250.152 217.322 249.72C217.646 249.288 218.102 248.958 218.69 248.73C219.29 248.49 219.998 248.37 220.814 248.37C221.438 248.37 222.068 248.448 222.704 248.604C223.352 248.748 223.88 248.958 224.288 249.234L223.55 250.602C223.118 250.314 222.668 250.116 222.2 250.008C221.732 249.9 221.264 249.846 220.796 249.846C220.04 249.846 219.476 249.972 219.104 250.224C218.732 250.464 218.546 250.776 218.546 251.16C218.546 251.484 218.654 251.736 218.87 251.916C219.098 252.084 219.386 252.216 219.734 252.312C220.094 252.408 220.49 252.492 220.922 252.564C221.354 252.624 221.786 252.708 222.218 252.816C222.65 252.912 223.04 253.05 223.388 253.23C223.748 253.41 224.036 253.662 224.252 253.986C224.48 254.31 224.594 254.742 224.594 255.282C224.594 255.858 224.426 256.356 224.09 256.776C223.754 257.196 223.28 257.526 222.668 257.766C222.056 257.994 221.324 258.108 220.472 258.108ZM230.029 258.108C229.069 258.108 228.325 257.85 227.797 257.334C227.269 256.818 227.005 256.08 227.005 255.12V246.372H228.733V255.048C228.733 255.564 228.859 255.96 229.111 256.236C229.375 256.512 229.747 256.65 230.227 256.65C230.767 256.65 231.217 256.5 231.577 256.2L232.117 257.442C231.853 257.67 231.535 257.838 231.163 257.946C230.803 258.054 230.425 258.108 230.029 258.108ZM225.385 249.882V248.46H231.469V249.882H225.385ZM238.138 258.108C237.118 258.108 236.218 257.898 235.438 257.478C234.67 257.058 234.07 256.482 233.638 255.75C233.218 255.018 233.008 254.178 233.008 253.23C233.008 252.282 233.212 251.442 233.62 250.71C234.04 249.978 234.61 249.408 235.33 249C236.062 248.58 236.884 248.37 237.796 248.37C238.72 248.37 239.536 248.574 240.244 248.982C240.952 249.39 241.504 249.966 241.9 250.71C242.308 251.442 242.512 252.3 242.512 253.284C242.512 253.356 242.506 253.44 242.494 253.536C242.494 253.632 242.488 253.722 242.476 253.806H234.358V252.564H241.576L240.874 252.996C240.886 252.384 240.76 251.838 240.496 251.358C240.232 250.878 239.866 250.506 239.398 250.242C238.942 249.966 238.408 249.828 237.796 249.828C237.196 249.828 236.662 249.966 236.194 250.242C235.726 250.506 235.36 250.884 235.096 251.376C234.832 251.856 234.7 252.408 234.7 253.032V253.32C234.7 253.956 234.844 254.526 235.132 255.03C235.432 255.522 235.846 255.906 236.374 256.182C236.902 256.458 237.508 256.596 238.192 256.596C238.756 256.596 239.266 256.5 239.722 256.308C240.19 256.116 240.598 255.828 240.946 255.444L241.9 256.56C241.468 257.064 240.928 257.448 240.28 257.712C239.644 257.976 238.93 258.108 238.138 258.108Z" fill="#FBF8F7"/>
<path fillRule="evenodd" clipRule="evenodd" d="M91.9996 349C91.8837 342.425 86.575 337.117 80 337.002V337C86.5757 336.885 91.8848 331.576 91.9997 325H92.0024C92.1173 331.575 97.4253 336.884 104 337V337.006C97.4272 337.122 92.1205 342.428 92.0025 349H91.9996Z" fill="#EB896A"/>
<path d="M116.392 344V332.966H112.072V331.4H122.494V332.966H118.174V344H116.392ZM129.296 334.37C130.076 334.37 130.76 334.52 131.348 334.82C131.948 335.12 132.416 335.576 132.752 336.188C133.088 336.8 133.256 337.574 133.256 338.51V344H131.528V338.708C131.528 337.784 131.3 337.088 130.844 336.62C130.4 336.152 129.77 335.918 128.954 335.918C128.342 335.918 127.808 336.038 127.352 336.278C126.896 336.518 126.542 336.872 126.29 337.34C126.05 337.808 125.93 338.39 125.93 339.086V344H124.202V330.644H125.93V337.034L125.588 336.35C125.9 335.726 126.38 335.24 127.028 334.892C127.676 334.544 128.432 334.37 129.296 334.37ZM140.54 344.108C139.58 344.108 138.728 343.898 137.984 343.478C137.24 343.058 136.652 342.482 136.22 341.75C135.788 341.006 135.572 340.166 135.572 339.23C135.572 338.282 135.788 337.442 136.22 336.71C136.652 335.978 137.24 335.408 137.984 335C138.728 334.58 139.58 334.37 140.54 334.37C141.488 334.37 142.334 334.58 143.078 335C143.834 335.408 144.422 335.978 144.842 336.71C145.274 337.43 145.49 338.27 145.49 339.23C145.49 340.178 145.274 341.018 144.842 341.75C144.422 342.482 143.834 343.058 143.078 343.478C142.334 343.898 141.488 344.108 140.54 344.108ZM140.54 342.596C141.152 342.596 141.698 342.458 142.178 342.182C142.67 341.906 143.054 341.516 143.33 341.012C143.606 340.496 143.744 339.902 143.744 339.23C143.744 338.546 143.606 337.958 143.33 337.466C143.054 336.962 142.67 336.572 142.178 336.296C141.698 336.02 141.152 335.882 140.54 335.882C139.928 335.882 139.382 336.02 138.902 336.296C138.422 336.572 138.038 336.962 137.75 337.466C137.462 337.958 137.318 338.546 137.318 339.23C137.318 339.902 137.462 340.496 137.75 341.012C138.038 341.516 138.422 341.906 138.902 342.182C139.382 342.458 139.928 342.596 140.54 342.596ZM151.894 344.108C151.078 344.108 150.358 343.958 149.734 343.658C149.122 343.358 148.642 342.902 148.294 342.29C147.958 341.666 147.79 340.886 147.79 339.95V334.46H149.518V339.752C149.518 340.688 149.74 341.39 150.184 341.858C150.64 342.326 151.276 342.56 152.092 342.56C152.692 342.56 153.214 342.44 153.658 342.2C154.102 341.948 154.444 341.588 154.684 341.12C154.924 340.64 155.044 340.064 155.044 339.392V334.46H156.772V344H155.134V341.426L155.404 342.11C155.092 342.746 154.624 343.238 154 343.586C153.376 343.934 152.674 344.108 151.894 344.108ZM164.238 347.6C163.362 347.6 162.51 347.474 161.682 347.222C160.866 346.982 160.2 346.634 159.684 346.178L160.512 344.846C160.956 345.23 161.502 345.53 162.15 345.746C162.798 345.974 163.476 346.088 164.184 346.088C165.312 346.088 166.14 345.824 166.668 345.296C167.196 344.768 167.46 343.964 167.46 342.884V340.868L167.64 338.978L167.55 337.07V334.46H169.188V342.704C169.188 344.384 168.768 345.62 167.928 346.412C167.088 347.204 165.858 347.6 164.238 347.6ZM164.022 343.604C163.098 343.604 162.27 343.412 161.538 343.028C160.818 342.632 160.242 342.086 159.81 341.39C159.39 340.694 159.18 339.89 159.18 338.978C159.18 338.054 159.39 337.25 159.81 336.566C160.242 335.87 160.818 335.33 161.538 334.946C162.27 334.562 163.098 334.37 164.022 334.37C164.838 334.37 165.582 334.538 166.254 334.874C166.926 335.198 167.46 335.702 167.856 336.386C168.264 337.07 168.468 337.934 168.468 338.978C168.468 340.01 168.264 340.868 167.856 341.552C167.46 342.236 166.926 342.752 166.254 343.1C165.582 343.436 164.838 343.604 164.022 343.604ZM164.22 342.092C164.856 342.092 165.42 341.96 165.912 341.696C166.404 341.432 166.788 341.066 167.064 340.598C167.352 340.13 167.496 339.59 167.496 338.978C167.496 338.366 167.352 337.826 167.064 337.358C166.788 336.89 166.404 336.53 165.912 336.278C165.42 336.014 164.856 335.882 164.22 335.882C163.584 335.882 163.014 336.014 162.51 336.278C162.018 336.53 161.628 336.89 161.34 337.358C161.064 337.826 160.926 338.366 160.926 338.978C160.926 339.59 161.064 340.13 161.34 340.598C161.628 341.066 162.018 341.432 162.51 341.696C163.014 341.96 163.584 342.092 164.22 342.092ZM177.584 334.37C178.364 334.37 179.048 334.52 179.636 334.82C180.236 335.12 180.704 335.576 181.04 336.188C181.376 336.8 181.544 337.574 181.544 338.51V344H179.816V338.708C179.816 337.784 179.588 337.088 179.132 336.62C178.688 336.152 178.058 335.918 177.242 335.918C176.63 335.918 176.096 336.038 175.64 336.278C175.184 336.518 174.83 336.872 174.578 337.34C174.338 337.808 174.218 338.39 174.218 339.086V344H172.49V330.644H174.218V337.034L173.876 336.35C174.188 335.726 174.668 335.24 175.316 334.892C175.964 334.544 176.72 334.37 177.584 334.37ZM188.018 344.108C187.058 344.108 186.314 343.85 185.786 343.334C185.258 342.818 184.994 342.08 184.994 341.12V332.372H186.722V341.048C186.722 341.564 186.848 341.96 187.1 342.236C187.364 342.512 187.736 342.65 188.216 342.65C188.756 342.65 189.206 342.5 189.566 342.2L190.106 343.442C189.842 343.67 189.524 343.838 189.152 343.946C188.792 344.054 188.414 344.108 188.018 344.108ZM183.374 335.882V334.46H189.458V335.882H183.374ZM192.447 344V333.614C192.447 332.678 192.717 331.934 193.257 331.382C193.809 330.818 194.589 330.536 195.597 330.536C195.969 330.536 196.323 330.584 196.659 330.68C197.007 330.764 197.301 330.902 197.541 331.094L197.019 332.408C196.839 332.264 196.635 332.156 196.407 332.084C196.179 332 195.939 331.958 195.687 331.958C195.183 331.958 194.799 332.102 194.535 332.39C194.271 332.666 194.139 333.08 194.139 333.632V334.91L194.175 335.702V344H192.447ZM190.827 335.882V334.46H196.911V335.882H190.827ZM202.554 344.108C201.738 344.108 201.018 343.958 200.394 343.658C199.782 343.358 199.302 342.902 198.954 342.29C198.618 341.666 198.45 340.886 198.45 339.95V334.46H200.178V339.752C200.178 340.688 200.4 341.39 200.844 341.858C201.3 342.326 201.936 342.56 202.752 342.56C203.352 342.56 203.874 342.44 204.318 342.2C204.762 341.948 205.104 341.588 205.344 341.12C205.584 340.64 205.704 340.064 205.704 339.392V334.46H207.432V344H205.794V341.426L206.064 342.11C205.752 342.746 205.284 343.238 204.66 343.586C204.036 343.934 203.334 344.108 202.554 344.108ZM210.722 344V330.644H212.45V344H210.722ZM224.525 344.108C223.601 344.108 222.773 343.904 222.041 343.496C221.321 343.088 220.751 342.518 220.331 341.786C219.911 341.054 219.701 340.202 219.701 339.23C219.701 338.258 219.911 337.412 220.331 336.692C220.751 335.96 221.321 335.39 222.041 334.982C222.773 334.574 223.601 334.37 224.525 334.37C225.353 334.37 226.091 334.55 226.739 334.91C227.387 335.27 227.897 335.81 228.269 336.53C228.653 337.25 228.845 338.15 228.845 339.23C228.845 340.31 228.647 341.21 228.251 341.93C227.867 342.65 227.351 343.196 226.703 343.568C226.055 343.928 225.329 344.108 224.525 344.108ZM224.669 342.596C225.269 342.596 225.809 342.458 226.289 342.182C226.781 341.906 227.165 341.516 227.441 341.012C227.729 340.496 227.873 339.902 227.873 339.23C227.873 338.546 227.729 337.958 227.441 337.466C227.165 336.962 226.781 336.572 226.289 336.296C225.809 336.02 225.269 335.882 224.669 335.882C224.057 335.882 223.511 336.02 223.031 336.296C222.551 336.572 222.167 336.962 221.879 337.466C221.591 337.958 221.447 338.546 221.447 339.23C221.447 339.902 221.591 340.496 221.879 341.012C222.167 341.516 222.551 341.906 223.031 342.182C223.511 342.458 224.057 342.596 224.669 342.596ZM227.855 347.492V341.462L228.035 339.248L227.927 337.034V334.46H229.583V347.492H227.855ZM236.867 344.108C236.051 344.108 235.331 343.958 234.707 343.658C234.095 343.358 233.615 342.902 233.267 342.29C232.931 341.666 232.763 340.886 232.763 339.95V334.46H234.491V339.752C234.491 340.688 234.713 341.39 235.157 341.858C235.613 342.326 236.249 342.56 237.065 342.56C237.665 342.56 238.187 342.44 238.631 342.2C239.075 341.948 239.417 341.588 239.657 341.12C239.897 340.64 240.017 340.064 240.017 339.392V334.46H241.745V344H240.107V341.426L240.377 342.11C240.065 342.746 239.597 343.238 238.973 343.586C238.349 343.934 237.647 344.108 236.867 344.108ZM249.282 344.108C248.262 344.108 247.362 343.898 246.582 343.478C245.814 343.058 245.214 342.482 244.782 341.75C244.362 341.018 244.152 340.178 244.152 339.23C244.152 338.282 244.356 337.442 244.764 336.71C245.184 335.978 245.754 335.408 246.474 335C247.206 334.58 248.028 334.37 248.94 334.37C249.864 334.37 250.68 334.574 251.388 334.982C252.096 335.39 252.648 335.966 253.044 336.71C253.452 337.442 253.656 338.3 253.656 339.284C253.656 339.356 253.65 339.44 253.638 339.536C253.638 339.632 253.632 339.722 253.62 339.806H245.502V338.564H252.72L252.018 338.996C252.03 338.384 251.904 337.838 251.64 337.358C251.376 336.878 251.01 336.506 250.542 336.242C250.086 335.966 249.552 335.828 248.94 335.828C248.34 335.828 247.806 335.966 247.338 336.242C246.87 336.506 246.504 336.884 246.24 337.376C245.976 337.856 245.844 338.408 245.844 339.032V339.32C245.844 339.956 245.988 340.526 246.276 341.03C246.576 341.522 246.99 341.906 247.518 342.182C248.046 342.458 248.652 342.596 249.336 342.596C249.9 342.596 250.41 342.5 250.866 342.308C251.334 342.116 251.742 341.828 252.09 341.444L253.044 342.56C252.612 343.064 252.072 343.448 251.424 343.712C250.788 343.976 250.074 344.108 249.282 344.108ZM258.792 344.108C258 344.108 257.244 344 256.524 343.784C255.816 343.568 255.258 343.304 254.85 342.992L255.57 341.624C255.978 341.9 256.482 342.134 257.082 342.326C257.682 342.518 258.294 342.614 258.918 342.614C259.722 342.614 260.298 342.5 260.646 342.272C261.006 342.044 261.186 341.726 261.186 341.318C261.186 341.018 261.078 340.784 260.862 340.616C260.646 340.448 260.358 340.322 259.998 340.238C259.65 340.154 259.26 340.082 258.828 340.022C258.396 339.95 257.964 339.866 257.532 339.77C257.1 339.662 256.704 339.518 256.344 339.338C255.984 339.146 255.696 338.888 255.48 338.564C255.264 338.228 255.156 337.784 255.156 337.232C255.156 336.656 255.318 336.152 255.642 335.72C255.966 335.288 256.422 334.958 257.01 334.73C257.61 334.49 258.318 334.37 259.134 334.37C259.758 334.37 260.388 334.448 261.024 334.604C261.672 334.748 262.2 334.958 262.608 335.234L261.87 336.602C261.438 336.314 260.988 336.116 260.52 336.008C260.052 335.9 259.584 335.846 259.116 335.846C258.36 335.846 257.796 335.972 257.424 336.224C257.052 336.464 256.866 336.776 256.866 337.16C256.866 337.484 256.974 337.736 257.19 337.916C257.418 338.084 257.706 338.216 258.054 338.312C258.414 338.408 258.81 338.492 259.242 338.564C259.674 338.624 260.106 338.708 260.538 338.816C260.97 338.912 261.36 339.05 261.708 339.23C262.068 339.41 262.356 339.662 262.572 339.986C262.8 340.31 262.914 340.742 262.914 341.282C262.914 341.858 262.746 342.356 262.41 342.776C262.074 343.196 261.6 343.526 260.988 343.766C260.376 343.994 259.644 344.108 258.792 344.108ZM268.35 344.108C267.39 344.108 266.646 343.85 266.118 343.334C265.59 342.818 265.326 342.08 265.326 341.12V332.372H267.054V341.048C267.054 341.564 267.18 341.96 267.432 342.236C267.696 342.512 268.068 342.65 268.548 342.65C269.088 342.65 269.538 342.5 269.898 342.2L270.438 343.442C270.174 343.67 269.856 343.838 269.484 343.946C269.124 344.054 268.746 344.108 268.35 344.108ZM263.706 335.882V334.46H269.79V335.882H263.706ZM272.527 344V334.46H274.255V344H272.527ZM273.391 332.624C273.055 332.624 272.773 332.516 272.545 332.3C272.329 332.084 272.221 331.82 272.221 331.508C272.221 331.184 272.329 330.914 272.545 330.698C272.773 330.482 273.055 330.374 273.391 330.374C273.727 330.374 274.003 330.482 274.219 330.698C274.447 330.902 274.561 331.16 274.561 331.472C274.561 331.796 274.453 332.072 274.237 332.3C274.021 332.516 273.739 332.624 273.391 332.624ZM281.64 344.108C280.68 344.108 279.828 343.898 279.084 343.478C278.34 343.058 277.752 342.482 277.32 341.75C276.888 341.006 276.672 340.166 276.672 339.23C276.672 338.282 276.888 337.442 277.32 336.71C277.752 335.978 278.34 335.408 279.084 335C279.828 334.58 280.68 334.37 281.64 334.37C282.588 334.37 283.434 334.58 284.178 335C284.934 335.408 285.522 335.978 285.942 336.71C286.374 337.43 286.59 338.27 286.59 339.23C286.59 340.178 286.374 341.018 285.942 341.75C285.522 342.482 284.934 343.058 284.178 343.478C283.434 343.898 282.588 344.108 281.64 344.108ZM281.64 342.596C282.252 342.596 282.798 342.458 283.278 342.182C283.77 341.906 284.154 341.516 284.43 341.012C284.706 340.496 284.844 339.902 284.844 339.23C284.844 338.546 284.706 337.958 284.43 337.466C284.154 336.962 283.77 336.572 283.278 336.296C282.798 336.02 282.252 335.882 281.64 335.882C281.028 335.882 280.482 336.02 280.002 336.296C279.522 336.572 279.138 336.962 278.85 337.466C278.562 337.958 278.418 338.546 278.418 339.23C278.418 339.902 278.562 340.496 278.85 341.012C279.138 341.516 279.522 341.906 280.002 342.182C280.482 342.458 281.028 342.596 281.64 342.596ZM294.074 334.37C294.854 334.37 295.538 334.52 296.126 334.82C296.726 335.12 297.194 335.576 297.53 336.188C297.866 336.8 298.034 337.574 298.034 338.51V344H296.306V338.708C296.306 337.784 296.078 337.088 295.622 336.62C295.178 336.152 294.548 335.918 293.732 335.918C293.12 335.918 292.586 336.038 292.13 336.278C291.674 336.518 291.32 336.872 291.068 337.34C290.828 337.808 290.708 338.39 290.708 339.086V344H288.98V334.46H290.636V337.034L290.366 336.35C290.678 335.726 291.158 335.24 291.806 334.892C292.454 334.544 293.21 334.37 294.074 334.37ZM303.968 344.108C303.176 344.108 302.42 344 301.7 343.784C300.992 343.568 300.434 343.304 300.026 342.992L300.746 341.624C301.154 341.9 301.658 342.134 302.258 342.326C302.858 342.518 303.47 342.614 304.094 342.614C304.898 342.614 305.474 342.5 305.822 342.272C306.182 342.044 306.362 341.726 306.362 341.318C306.362 341.018 306.254 340.784 306.038 340.616C305.822 340.448 305.534 340.322 305.174 340.238C304.826 340.154 304.436 340.082 304.004 340.022C303.572 339.95 303.14 339.866 302.708 339.77C302.276 339.662 301.88 339.518 301.52 339.338C301.16 339.146 300.872 338.888 300.656 338.564C300.44 338.228 300.332 337.784 300.332 337.232C300.332 336.656 300.494 336.152 300.818 335.72C301.142 335.288 301.598 334.958 302.186 334.73C302.786 334.49 303.494 334.37 304.31 334.37C304.934 334.37 305.564 334.448 306.2 334.604C306.848 334.748 307.376 334.958 307.784 335.234L307.046 336.602C306.614 336.314 306.164 336.116 305.696 336.008C305.228 335.9 304.76 335.846 304.292 335.846C303.536 335.846 302.972 335.972 302.6 336.224C302.228 336.464 302.042 336.776 302.042 337.16C302.042 337.484 302.15 337.736 302.366 337.916C302.594 338.084 302.882 338.216 303.23 338.312C303.59 338.408 303.986 338.492 304.418 338.564C304.85 338.624 305.282 338.708 305.714 338.816C306.146 338.912 306.536 339.05 306.884 339.23C307.244 339.41 307.532 339.662 307.748 339.986C307.976 340.31 308.09 340.742 308.09 341.282C308.09 341.858 307.922 342.356 307.586 342.776C307.25 343.196 306.776 343.526 306.164 343.766C305.552 343.994 304.82 344.108 303.968 344.108Z" fill="#FBF8F7"/>
<rect x="848.965" y="78.5459" width="363.68" height="242.453" rx="8" fill="white"/>
<path d="M867.094 143.726C867.094 141.517 868.885 139.726 871.094 139.726H988.852C991.061 139.726 992.852 141.517 992.852 143.726V297C992.852 310.255 982.107 321 968.852 321H867.094V143.726Z" fill="#EB896A" fill-opacity="0.16"/>
<rect x="876.16" y="233.761" width="69.1106" height="15.8614" rx="4" fill="white"/>
<rect opacity="0.64" x="876.16" y="258.687" width="107.631" height="15.8614" rx="4" fill="white"/>
<rect opacity="0.4" x="876.16" y="283.612" width="84.972" height="15.8614" rx="4" fill="white"/>
<rect x="876.16" y="148.791" width="107.631" height="75.9083" rx="4" fill="white"/>
<circle cx="931.106" cy="176.548" r="17.5609" fill="#E8704B"/>
<path d="M930.538 198.64C911.766 198.64 896.549 210.307 896.549 224.698H964.526C964.526 210.307 949.309 198.64 930.538 198.64Z" fill="#E8704B"/>
<rect x="1010.98" y="139.726" width="24.9251" height="24.9251" rx="4" fill="#EB896A" fill-opacity="0.16"/>
<rect x="1044.97" y="139.726" width="149.551" height="24.9251" rx="4" fill="#EB896A" fill-opacity="0.16"/>
<rect x="867.094" y="96.6724" width="125.759" height="24.9251" rx="4" fill="#EB896A" fill-opacity="0.4"/>
<rect x="1010.98" y="173.714" width="24.9251" height="24.9251" rx="4" fill="#EB896A" fill-opacity="0.16"/>
<rect x="1044.97" y="173.714" width="149.551" height="24.9251" rx="4" fill="#EB896A" fill-opacity="0.16"/>
<rect x="1010.98" y="207.704" width="24.9251" height="24.9251" rx="4" fill="#EB896A" fill-opacity="0.16"/>
<rect x="1044.97" y="207.704" width="149.551" height="24.9251" rx="4" fill="#EB896A" fill-opacity="0.16"/>
<rect x="1010.98" y="241.692" width="24.9251" height="24.9251" rx="4" fill="#EB896A" fill-opacity="0.4"/>
<path d="M1017.78 254.503L1021.35 258.687L1029.1 249.623" stroke="#E75252" strokeWidth="2"/>
<rect x="1044.97" y="241.692" width="149.551" height="24.9251" rx="4" fill="#EB896A" fill-opacity="0.4"/>
<rect x="1010.98" y="275.681" width="24.9251" height="24.9251" rx="4" fill="#EB896A" fill-opacity="0.16"/>
<rect x="1044.97" y="275.681" width="149.551" height="24.9251" rx="4" fill="#EB896A" fill-opacity="0.08"/>
<rect x="848.965" y="78.5459" width="363.68" height="242.453" rx="8" fill="#0C151D" fill-opacity="0.24"/>
<g filter="url(#filter1_d_3400_61847)">
<rect x="902.611" y="132.649" width="258.442" height="139.739" rx="8" fill="white"/>
</g>
<path d="M1029.87 156.68C1031.41 154.013 1035.26 154.013 1036.8 156.68L1067.61 210.041C1069.15 212.708 1067.22 216.041 1064.14 216.041H1002.53C999.447 216.041 997.522 212.708 999.062 210.041L1029.87 156.68Z" fill="#EB896A"/>
<path d="M1028.89 173.778C1028.86 172.65 1029.76 171.716 1030.89 171.716H1035.78C1036.91 171.716 1037.81 172.65 1037.78 173.778L1037.15 193.819C1037.12 194.899 1036.23 195.757 1035.15 195.757H1031.52C1030.44 195.757 1029.55 194.899 1029.52 193.819L1028.89 173.778Z" fill="#FBF8F7"/>
<rect x="1030.33" y="198.762" width="6.01028" height="6.01028" rx="2" fill="#FBF8F7"/>
<path d="M1071.39 249.569C1070.35 249.569 1069.33 249.429 1068.34 249.148C1067.36 248.882 1066.55 248.489 1065.92 247.97L1067.1 245.993C1067.59 246.4 1068.2 246.722 1068.95 246.961C1069.7 247.213 1070.47 247.339 1071.24 247.339C1072.47 247.339 1073.38 247.052 1073.95 246.477C1074.53 245.916 1074.82 245.067 1074.82 243.931V241.933L1075.03 239.388L1074.94 236.842V234.108H1077.45V243.637C1077.45 245.67 1076.93 247.164 1075.89 248.118C1074.85 249.085 1073.35 249.569 1071.39 249.569ZM1071.05 244.836C1069.98 244.836 1069.02 244.612 1068.15 244.163C1067.29 243.7 1066.61 243.062 1066.11 242.249C1065.62 241.435 1065.37 240.482 1065.37 239.388C1065.37 238.308 1065.62 237.361 1066.11 236.548C1066.61 235.734 1067.29 235.103 1068.15 234.655C1069.02 234.206 1069.98 233.981 1071.05 233.981C1072 233.981 1072.86 234.171 1073.62 234.549C1074.37 234.928 1074.98 235.517 1075.43 236.316C1075.89 237.116 1076.12 238.14 1076.12 239.388C1076.12 240.636 1075.89 241.667 1075.43 242.48C1074.98 243.279 1074.37 243.875 1073.62 244.268C1072.86 244.647 1072 244.836 1071.05 244.836ZM1071.45 242.606C1072.11 242.606 1072.7 242.473 1073.22 242.207C1073.74 241.926 1074.14 241.547 1074.42 241.071C1074.71 240.58 1074.86 240.019 1074.86 239.388C1074.86 238.757 1074.71 238.203 1074.42 237.726C1074.14 237.235 1073.74 236.863 1073.22 236.611C1072.7 236.344 1072.11 236.211 1071.45 236.211C1070.79 236.211 1070.2 236.344 1069.66 236.611C1069.14 236.863 1068.74 237.235 1068.44 237.726C1068.16 238.203 1068.02 238.757 1068.02 239.388C1068.02 240.019 1068.16 240.58 1068.44 241.071C1068.74 241.547 1069.14 241.926 1069.66 242.207C1070.2 242.473 1070.79 242.606 1071.45 242.606Z" fill="#EB896A"/>
<path d="M1058.25 233.981C1059.15 233.981 1059.95 234.157 1060.65 234.507C1061.36 234.858 1061.92 235.398 1062.33 236.127C1062.74 236.842 1062.94 237.768 1062.94 238.904V245.341H1060.31V239.24C1060.31 238.245 1060.07 237.501 1059.6 237.011C1059.13 236.52 1058.48 236.274 1057.64 236.274C1057.02 236.274 1056.47 236.401 1056 236.653C1055.52 236.905 1055.15 237.284 1054.88 237.789C1054.63 238.28 1054.5 238.904 1054.5 239.661V245.341H1051.88V234.108H1054.38V237.137L1053.94 236.211C1054.33 235.496 1054.9 234.949 1055.64 234.57C1056.4 234.178 1057.27 233.981 1058.25 233.981Z" fill="#EB896A"/>
<path d="M1045.79 245.341V234.108H1048.42V245.341H1045.79ZM1047.12 232.256C1046.63 232.256 1046.22 232.102 1045.9 231.794C1045.59 231.485 1045.44 231.114 1045.44 230.679C1045.44 230.23 1045.59 229.858 1045.9 229.564C1046.22 229.255 1046.63 229.101 1047.12 229.101C1047.61 229.101 1048.01 229.248 1048.32 229.543C1048.64 229.823 1048.8 230.181 1048.8 230.616C1048.8 231.078 1048.65 231.471 1048.34 231.794C1048.03 232.102 1047.62 232.256 1047.12 232.256Z" fill="#EB896A"/>
<path d="M1037.77 233.981C1038.66 233.981 1039.46 234.157 1040.16 234.507C1040.88 234.858 1041.44 235.398 1041.85 236.127C1042.25 236.842 1042.46 237.768 1042.46 238.904V245.341H1039.83V239.24C1039.83 238.245 1039.59 237.501 1039.11 237.011C1038.65 236.52 1038 236.274 1037.16 236.274C1036.54 236.274 1035.99 236.401 1035.52 236.653C1035.04 236.905 1034.67 237.284 1034.4 237.789C1034.15 238.28 1034.02 238.904 1034.02 239.661V245.341H1031.39V234.108H1033.9V237.137L1033.45 236.211C1033.85 235.496 1034.41 234.949 1035.16 234.57C1035.92 234.178 1036.78 233.981 1037.77 233.981Z" fill="#EB896A"/>
<path d="M1022.66 245.341V234.108H1025.17V237.2L1024.87 236.295C1025.21 235.538 1025.73 234.963 1026.45 234.57C1027.18 234.178 1028.08 233.981 1029.16 233.981V236.485C1029.05 236.457 1028.94 236.443 1028.85 236.443C1028.75 236.429 1028.65 236.422 1028.55 236.422C1027.56 236.422 1026.76 236.716 1026.18 237.305C1025.59 237.88 1025.29 238.743 1025.29 239.893V245.341H1022.66Z" fill="#EB896A"/>
<path d="M1016.81 245.341V243.069L1016.66 242.585V238.609C1016.66 237.838 1016.43 237.242 1015.96 236.821C1015.5 236.387 1014.8 236.169 1013.86 236.169C1013.23 236.169 1012.61 236.267 1011.99 236.464C1011.39 236.66 1010.87 236.933 1010.45 237.284L1009.42 235.37C1010.03 234.907 1010.74 234.563 1011.57 234.339C1012.41 234.101 1013.28 233.981 1014.18 233.981C1015.8 233.981 1017.06 234.374 1017.94 235.159C1018.84 235.931 1019.29 237.13 1019.29 238.757V245.341H1016.81ZM1013.27 245.488C1012.43 245.488 1011.69 245.348 1011.06 245.067C1010.43 244.773 1009.94 244.373 1009.59 243.868C1009.25 243.349 1009.09 242.767 1009.09 242.122C1009.09 241.491 1009.23 240.923 1009.53 240.418C1009.84 239.914 1010.33 239.514 1011.02 239.219C1011.71 238.925 1012.62 238.778 1013.76 238.778H1017.02V240.524H1013.95C1013.05 240.524 1012.44 240.671 1012.14 240.965C1011.83 241.246 1011.67 241.596 1011.67 242.017C1011.67 242.494 1011.86 242.873 1012.24 243.153C1012.62 243.434 1013.15 243.574 1013.82 243.574C1014.46 243.574 1015.04 243.427 1015.54 243.132C1016.06 242.838 1016.43 242.403 1016.66 241.828L1017.1 243.406C1016.85 244.065 1016.39 244.577 1015.73 244.941C1015.09 245.306 1014.27 245.488 1013.27 245.488Z" fill="#EB896A"/>
<path d="M990.703 245.34L985.822 230.615H988.662L993.017 243.931H991.607L996.13 230.615H998.654L1003.05 243.931H1001.68L1006.14 230.615H1008.75L1003.87 245.34H1000.97L996.95 233.329H997.708L993.627 245.34H990.703Z" fill="#EB896A"/>
<g filter="url(#filter2_d_3400_61847)">
<rect x="1118.98" y="60" width="105.018" height="97.667" rx="8" fill="white"/>
</g>
<rect x="1142.08" y="132.462" width="58.8103" height="8.40146" rx="4.20073" fill="#314A71"/>
<path d="M1150.49 106.456C1150.49 97.619 1157.65 90.4556 1166.49 90.4556H1176.49C1185.33 90.4556 1192.49 97.619 1192.49 106.456V132.463H1150.49V106.456Z" fill="#E75252"/>
<circle cx="1159.94" cy="102.007" r="4.20073" fill="white"/>
<path d="M1171.49 84.1544V75.7529" stroke="#E75252" strokeWidth="4" strokeLinecap="round"/>
<path d="M1186.19 87.2305L1190.39 79.9546" stroke="#E75252" strokeWidth="4" strokeLinecap="round"/>
<path d="M1156.78 87.2305L1152.58 79.9546" stroke="#E75252" strokeWidth="4" strokeLinecap="round"/>
<g filter="url(#filter3_d_3400_61847)">
<rect x="838" y="248" width="105.018" height="97.667" rx="8" fill="white"/>
</g>
<path d="M904.034 263.236C904.564 263.235 905.073 263.444 905.449 263.819L923.843 282.146C924.218 282.521 924.43 283.029 924.431 283.559L924.478 309.525C924.479 310.056 924.269 310.565 923.894 310.94L905.567 329.334C905.193 329.71 904.684 329.921 904.154 329.922L878.188 329.969C877.658 329.97 877.149 329.76 876.773 329.386L858.379 311.058C858.004 310.684 857.792 310.176 857.791 309.645L857.744 283.679C857.743 283.149 857.953 282.64 858.328 282.264L876.655 263.871C877.029 263.495 877.538 263.283 878.068 263.282L904.034 263.236Z" fill="#E75252"/>
<path d="M902.445 267.591C902.843 267.591 903.225 267.748 903.507 268.029L919.64 284.104C919.922 284.385 920.08 284.766 920.081 285.164L920.122 307.938C920.123 308.336 919.965 308.718 919.685 309L903.61 325.133C903.329 325.414 902.948 325.573 902.55 325.574L879.775 325.615C879.377 325.616 878.996 325.458 878.714 325.177L862.581 309.102C862.299 308.822 862.14 308.44 862.14 308.042L862.099 285.268C862.098 284.87 862.255 284.488 862.536 284.207L878.611 268.074C878.892 267.792 879.273 267.633 879.671 267.632L902.445 267.591Z" stroke="white"/>
<path d="M903.457 302.338V290.788H908.209C909.232 290.788 910.107 290.953 910.833 291.283C911.57 291.613 912.136 292.086 912.532 292.702C912.928 293.318 913.126 294.05 913.126 294.897C913.126 295.744 912.928 296.475 912.532 297.091C912.136 297.707 911.57 298.18 910.833 298.51C910.107 298.84 909.232 299.005 908.209 299.005H904.645L905.602 297.999V302.338H903.457ZM905.602 298.23L904.645 297.19H908.11C909.056 297.19 909.766 296.992 910.239 296.596C910.723 296.189 910.965 295.623 910.965 294.897C910.965 294.16 910.723 293.593 910.239 293.197C909.766 292.801 909.056 292.603 908.11 292.603H904.645L905.602 291.547V298.23Z" fill="white"/>
<path d="M894.977 302.503C894.075 302.503 893.245 302.355 892.486 302.058C891.727 301.761 891.067 301.348 890.506 300.82C889.945 300.281 889.51 299.654 889.202 298.939C888.894 298.213 888.74 297.421 888.74 296.563C888.74 295.705 888.894 294.919 889.202 294.204C889.51 293.478 889.945 292.851 890.506 292.323C891.067 291.784 891.727 291.366 892.486 291.069C893.245 290.772 894.07 290.623 894.961 290.623C895.863 290.623 896.688 290.772 897.436 291.069C898.195 291.366 898.855 291.784 899.416 292.323C899.977 292.851 900.412 293.478 900.72 294.204C901.028 294.919 901.182 295.705 901.182 296.563C901.182 297.421 901.028 298.213 900.72 298.939C900.412 299.665 899.977 300.292 899.416 300.82C898.855 301.348 898.195 301.761 897.436 302.058C896.688 302.355 895.868 302.503 894.977 302.503ZM894.961 300.622C895.544 300.622 896.083 300.523 896.578 300.325C897.073 300.127 897.502 299.847 897.865 299.484C898.228 299.11 898.509 298.681 898.707 298.197C898.916 297.702 899.02 297.157 899.02 296.563C899.02 295.969 898.916 295.43 898.707 294.946C898.509 294.451 898.228 294.022 897.865 293.659C897.502 293.285 897.073 292.999 896.578 292.801C896.083 292.603 895.544 292.504 894.961 292.504C894.378 292.504 893.839 292.603 893.344 292.801C892.86 292.999 892.431 293.285 892.057 293.659C891.694 294.022 891.408 294.451 891.199 294.946C891.001 295.43 890.902 295.969 890.902 296.563C890.902 297.146 891.001 297.685 891.199 298.18C891.408 298.675 891.694 299.11 892.057 299.484C892.42 299.847 892.849 300.127 893.344 300.325C893.839 300.523 894.378 300.622 894.961 300.622Z" fill="white"/>
<path d="M882.145 302.338V292.603H878.316V290.788H888.118V292.603H884.29V302.338H882.145Z" fill="white"/>
<path d="M873.165 302.503C872.263 302.503 871.4 302.377 870.575 302.124C869.75 301.86 869.095 301.524 868.611 301.117L869.354 299.451C869.816 299.814 870.388 300.116 871.07 300.358C871.752 300.6 872.45 300.721 873.165 300.721C873.77 300.721 874.26 300.655 874.634 300.523C875.008 300.391 875.283 300.215 875.459 299.995C875.635 299.764 875.723 299.506 875.723 299.22C875.723 298.868 875.597 298.587 875.344 298.378C875.091 298.158 874.761 297.988 874.354 297.867C873.958 297.735 873.512 297.614 873.017 297.504C872.533 297.394 872.043 297.267 871.548 297.124C871.064 296.97 870.619 296.778 870.212 296.547C869.816 296.305 869.491 295.986 869.238 295.59C868.985 295.194 868.859 294.688 868.859 294.072C868.859 293.445 869.024 292.873 869.354 292.356C869.695 291.828 870.206 291.41 870.888 291.102C871.581 290.783 872.456 290.623 873.512 290.623C874.205 290.623 874.893 290.711 875.575 290.887C876.257 291.063 876.851 291.316 877.357 291.646L876.68 293.313C876.163 293.005 875.63 292.779 875.08 292.636C874.53 292.482 874.002 292.405 873.495 292.405C872.901 292.405 872.417 292.477 872.043 292.62C871.68 292.763 871.411 292.95 871.235 293.181C871.07 293.412 870.987 293.676 870.987 293.973C870.987 294.325 871.108 294.611 871.35 294.831C871.603 295.04 871.928 295.205 872.324 295.326C872.731 295.447 873.182 295.568 873.677 295.689C874.172 295.799 874.662 295.925 875.146 296.068C875.641 296.211 876.086 296.398 876.482 296.629C876.889 296.86 877.214 297.174 877.456 297.57C877.709 297.966 877.835 298.466 877.835 299.071C877.835 299.687 877.665 300.259 877.324 300.787C876.994 301.304 876.482 301.722 875.789 302.041C875.096 302.349 874.222 302.503 873.165 302.503Z" fill="white"/>
</g>
<defs>
<filter id="filter0_f_3400_61847" x="682" y="-150" width="700" height="700" filterUnits="userSpaceOnUse" color-interpolation-filters="sRGB">
<feFlood flood-opacity="0" result="BackgroundImageFix"/>
<feBlend mode="normal" in="SourceGraphic" in2="BackgroundImageFix" result="shape"/>
<feGaussianBlur stdDeviation="50" result="effect1_foregroundBlur_3400_61847"/>
</filter>
<filter id="filter1_d_3400_61847" x="894.611" y="124.649" width="274.441" height="155.739" filterUnits="userSpaceOnUse" color-interpolation-filters="sRGB">
<feFlood flood-opacity="0" result="BackgroundImageFix"/>
<feColorMatrix in="SourceAlpha" type="matrix" values="0 0 0 0 0 0 0 0 0 0 0 0 0 0 0 0 0 0 127 0" result="hardAlpha"/>
<feOffset/>
<feGaussianBlur stdDeviation="4"/>
<feComposite in2="hardAlpha" operator="out"/>
<feColorMatrix type="matrix" values="0 0 0 0 0.0470588 0 0 0 0 0.0823529 0 0 0 0 0.113725 0 0 0 0.08 0"/>
<feBlend mode="normal" in2="BackgroundImageFix" result="effect1_dropShadow_3400_61847"/>
<feBlend mode="normal" in="SourceGraphic" in2="effect1_dropShadow_3400_61847" result="shape"/>
</filter>
<filter id="filter2_d_3400_61847" x="1110.98" y="52" width="121.018" height="113.667" filterUnits="userSpaceOnUse" color-interpolation-filters="sRGB">
<feFlood flood-opacity="0" result="BackgroundImageFix"/>
<feColorMatrix in="SourceAlpha" type="matrix" values="0 0 0 0 0 0 0 0 0 0 0 0 0 0 0 0 0 0 127 0" result="hardAlpha"/>
<feOffset/>
<feGaussianBlur stdDeviation="4"/>
<feComposite in2="hardAlpha" operator="out"/>
<feColorMatrix type="matrix" values="0 0 0 0 0.0470588 0 0 0 0 0.0823529 0 0 0 0 0.113725 0 0 0 0.08 0"/>
<feBlend mode="normal" in2="BackgroundImageFix" result="effect1_dropShadow_3400_61847"/>
<feBlend mode="normal" in="SourceGraphic" in2="effect1_dropShadow_3400_61847" result="shape"/>
</filter>
<filter id="filter3_d_3400_61847" x="830" y="240" width="121.018" height="113.667" filterUnits="userSpaceOnUse" color-interpolation-filters="sRGB">
<feFlood flood-opacity="0" result="BackgroundImageFix"/>
<feColorMatrix in="SourceAlpha" type="matrix" values="0 0 0 0 0 0 0 0 0 0 0 0 0 0 0 0 0 0 127 0" result="hardAlpha"/>
<feOffset/>
<feGaussianBlur stdDeviation="4"/>
<feComposite in2="hardAlpha" operator="out"/>
<feColorMatrix type="matrix" values="0 0 0 0 0.0470588 0 0 0 0 0.0823529 0 0 0 0 0.113725 0 0 0 0.08 0"/>
<feBlend mode="normal" in2="BackgroundImageFix" result="effect1_dropShadow_3400_61847"/>
<feBlend mode="normal" in="SourceGraphic" in2="effect1_dropShadow_3400_61847" result="shape"/>
</filter>
<clipPath id="clip0_3400_61847">
<rect width="1304" height="406" rx="8" fill="white"/>
</clipPath>
</defs>
</svg>
