<svg width="1080" height="392" viewBox="0 0 1080 392" fill="none" xmlns="http://www.w3.org/2000/svg">
<g opacity="0.1">
<g filter="url(#filter0_f_12409_51421)">
<path d="M149.808 220.173C105.977 215.857 53.9948 244.005 32.225 259.439C31.4407 259.995 31 260.886 31 261.848V358.502C31 360.159 32.3431 361.502 34 361.502H1045.81C1047.47 361.502 1048.81 360.159 1048.81 358.502V227.547C1048.81 225.9 1047.46 224.565 1045.81 224.507C982.19 222.297 952.92 166.808 948.068 94.7912C943.141 21.6518 888.39 -5.2943 875.25 105.24C862.11 215.774 838.567 232.821 797.505 233.921C756.442 235.021 750.967 188.278 688.552 188.278C626.136 188.278 614.639 238.87 551.676 239.42C488.713 239.97 505.138 150.333 409.325 152.533C313.512 154.733 340.339 241.07 272.996 260.317C205.654 279.564 205.654 225.672 149.808 220.173Z" fill="url(#paint0_linear_12409_51421)"/>
</g>
<path d="M149.808 220.173C105.977 215.857 53.9948 244.005 32.225 259.439C31.4407 259.995 31 260.886 31 261.848V358.502C31 360.159 32.3431 361.502 34 361.502H1045.81C1047.47 361.502 1048.81 360.159 1048.81 358.502V227.547C1048.81 225.9 1047.46 224.565 1045.81 224.507C982.19 222.297 952.92 166.808 948.068 94.7912C943.141 21.6518 888.39 -5.2943 875.25 105.24C862.11 215.774 838.567 232.821 797.505 233.921C756.442 235.021 750.967 188.278 688.552 188.278C626.136 188.278 614.639 238.87 551.676 239.42C488.713 239.97 505.138 150.333 409.325 152.533C313.512 154.733 340.339 241.07 272.996 260.317C205.654 279.564 205.654 225.672 149.808 220.173Z" fill="url(#paint1_linear_12409_51421)"/>
<g filter="url(#filter1_f_12409_51421)">
<path d="M31 260.317C51.9876 245.103 105.132 215.774 149.808 220.173C205.654 225.672 205.654 279.564 272.996 260.317C340.339 241.07 313.512 154.733 409.325 152.533C505.138 150.333 488.713 239.97 551.676 239.42C614.639 238.87 626.136 188.278 688.552 188.278C750.967 188.278 756.442 235.021 797.505 233.921C838.567 232.821 862.11 215.774 875.25 105.24C888.39 -5.2943 943.141 21.6518 948.068 94.7911C952.996 167.931 983.108 224.022 1048.81 224.572" stroke="#217BBB"/>
</g>
<path d="M31 260.317C51.9876 245.103 105.132 215.774 149.808 220.173C205.654 225.672 205.654 279.564 272.996 260.317C340.339 241.07 313.512 154.733 409.325 152.533C505.138 150.333 488.713 239.97 551.676 239.42C614.639 238.87 626.136 188.278 688.552 188.278C750.967 188.278 756.442 235.021 797.505 233.921C838.567 232.821 862.11 215.774 875.25 105.24C888.39 -5.2943 943.141 21.6518 948.068 94.7911C952.996 167.931 983.108 224.022 1048.81 224.572" stroke="#217BBB"/>
</g>
<defs>
<filter id="filter0_f_12409_51421" x="0.5" y="0.5" width="1078.81" height="391.5" filterUnits="userSpaceOnUse" color-interpolation-filters="sRGB">
<feFlood flood-opacity="0" result="BackgroundImageFix"/>
<feBlend mode="normal" in="SourceGraphic" in2="BackgroundImageFix" result="shape"/>
<feGaussianBlur stdDeviation="15.25" result="effect1_foregroundBlur_12409_51421"/>
</filter>
<filter id="filter1_f_12409_51421" x="13.607" y="13.4" width="1052.31" height="268.653" filterUnits="userSpaceOnUse" color-interpolation-filters="sRGB">
<feFlood flood-opacity="0" result="BackgroundImageFix"/>
<feBlend mode="normal" in="SourceGraphic" in2="BackgroundImageFix" result="shape"/>
<feGaussianBlur stdDeviation="8.55" result="effect1_foregroundBlur_12409_51421"/>
</filter>
<linearGradient id="paint0_linear_12409_51421" x1="539.904" y1="334.055" x2="539.904" y2="31" gradientUnits="userSpaceOnUse">
<stop stop-color="#F6F7F9"/>
<stop offset="1" stop-color="#217BBB"/>
</linearGradient>
<linearGradient id="paint1_linear_12409_51421" x1="539.904" y1="340.917" x2="539.904" y2="31" gradientUnits="userSpaceOnUse">
<stop stop-color="#F6F7F9"/>
<stop offset="0.52" stop-color="#217BBB"/>
</linearGradient>
</defs>
</svg>
