<svg width="552" height="160" viewBox="0 0 552 160" fill="none" xmlns="http://www.w3.org/2000/svg">
<rect width="552" height="160" fill="white"/>
<path d="M309.867 135.739H340.787L337.111 38.0781L309.867 135.739Z" fill="#0C151D"/>
<path d="M337.38 36.2151L310.337 134.923C310.193 135.448 309.716 135.812 309.172 135.812H172.689C171.892 135.812 171.313 135.053 171.524 134.284L198.567 35.5765C198.711 35.0515 199.188 34.6875 199.732 34.6875H336.215C337.012 34.6875 337.591 35.4461 337.38 36.2151Z" fill="white"/>
<path fillRule="evenodd" clipRule="evenodd" d="M336.215 35.2904C336.613 35.2904 336.903 35.6697 336.797 36.0542L309.754 134.762C309.682 135.024 309.444 135.206 309.172 135.206H172.689C172.29 135.206 172.001 134.827 172.106 134.443L199.15 35.7349C199.221 35.4724 199.46 35.2904 199.732 35.2904H336.215ZM337.963 36.3735C338.279 35.22 337.411 34.082 336.215 34.082H199.732C198.916 34.082 198.2 34.6281 197.984 35.4156L170.941 134.123C170.625 135.277 171.493 136.415 172.689 136.415H309.172C309.988 136.415 310.704 135.869 310.92 135.081L337.963 36.3735Z" fill="#0C151D"/>
<path d="M337.379 36.2154L334.117 48.1131C333.973 48.638 333.496 49.0019 332.952 49.0019H196.469C195.672 49.0019 195.093 48.2431 195.304 47.474L198.566 35.5763C198.71 35.0514 199.187 34.6875 199.731 34.6875H336.214C337.011 34.6875 337.59 35.4463 337.379 36.2154Z" fill="#217BBB"/>
<path fillRule="evenodd" clipRule="evenodd" d="M336.214 35.2904C336.613 35.2904 336.902 35.6698 336.796 36.0543L333.534 47.952C333.462 48.2145 333.224 48.3964 332.952 48.3964H196.469C196.07 48.3964 195.781 48.017 195.886 47.6325L199.149 35.7348C199.221 35.4723 199.459 35.2904 199.731 35.2904H336.214ZM337.962 36.3738C338.278 35.2203 337.41 34.082 336.214 34.082H199.731C198.915 34.082 198.199 34.6279 197.983 35.4152L194.721 47.313C194.405 48.4665 195.273 49.6048 196.469 49.6048H332.952C333.768 49.6048 334.484 49.0589 334.7 48.2716L337.962 36.3738Z" fill="#0C151D"/>
<path fillRule="evenodd" clipRule="evenodd" d="M341.115 135.793L337.963 36.3187L336.755 36.357L339.907 135.831L341.115 135.793Z" fill="#0C151D"/>
<path d="M279.003 76.3635C279.226 75.591 278.646 74.8203 277.842 74.8203H256.346C255.807 74.8203 255.334 75.1765 255.185 75.6937L248.955 97.2883C248.733 98.0609 249.312 98.8316 250.116 98.8316H271.612C272.151 98.8316 272.624 98.4754 272.773 97.9581L279.003 76.3635Z" fill="#F5F8FB"/>
<path fillRule="evenodd" clipRule="evenodd" d="M256.346 76.0286L277.842 76.0286L271.612 97.6232H250.116L256.346 76.0286ZM277.842 74.8203C278.646 74.8203 279.226 75.591 279.003 76.3635L272.773 97.9581C272.624 98.4754 272.151 98.8316 271.612 98.8316H250.116C249.312 98.8316 248.733 98.0609 248.955 97.2883L255.185 75.6937C255.334 75.1765 255.807 74.8203 256.346 74.8203H277.842Z" fill="#0C151D"/>
<path d="M270.229 104.071C270.452 103.298 269.872 102.527 269.068 102.527H247.572C247.034 102.527 246.56 102.884 246.411 103.401L240.182 124.995C239.959 125.768 240.539 126.539 241.343 126.539H262.839C263.377 126.539 263.851 126.182 264 125.665L270.229 104.071Z" fill="#F5F8FB"/>
<path fillRule="evenodd" clipRule="evenodd" d="M247.572 103.736L269.068 103.736L262.839 125.33H241.343L247.572 103.736ZM269.068 102.527C269.872 102.527 270.452 103.298 270.229 104.071L264 125.665C263.851 126.182 263.377 126.539 262.839 126.539H241.343C240.539 126.539 239.959 125.768 240.182 124.995L246.411 103.401C246.56 102.884 247.034 102.527 247.572 102.527H269.068Z" fill="#0C151D"/>
<path d="M250.836 76.3635C251.059 75.591 250.479 74.8203 249.675 74.8203H228.179C227.64 74.8203 227.167 75.1765 227.018 75.6937L220.788 97.2883C220.566 98.0609 221.145 98.8316 221.949 98.8316H243.446C243.984 98.8316 244.457 98.4754 244.606 97.9581L250.836 76.3635Z" fill="#F5F8FB"/>
<path fillRule="evenodd" clipRule="evenodd" d="M228.179 76.0286L249.675 76.0286L243.446 97.6232H221.949L228.179 76.0286ZM249.675 74.8203C250.479 74.8203 251.059 75.591 250.836 76.3635L244.606 97.9581C244.457 98.4754 243.984 98.8316 243.446 98.8316H221.949C221.145 98.8316 220.566 98.0609 220.788 97.2883L227.018 75.6937C227.167 75.1765 227.64 74.8203 228.179 74.8203H249.675Z" fill="#0C151D"/>
<path d="M242.062 104.071C242.285 103.298 241.705 102.527 240.901 102.527H219.405C218.867 102.527 218.393 102.884 218.244 103.401L212.015 124.995C211.792 125.768 212.372 126.539 213.176 126.539H234.672C235.21 126.539 235.684 126.182 235.833 125.665L242.062 104.071Z" fill="#F5F8FB"/>
<path fillRule="evenodd" clipRule="evenodd" d="M219.405 103.736L240.901 103.736L234.672 125.33H213.176L219.405 103.736ZM240.901 102.527C241.705 102.527 242.285 103.298 242.062 104.071L235.833 125.665C235.684 126.182 235.21 126.539 234.672 126.539H213.176C212.372 126.539 211.792 125.768 212.015 124.995L218.244 103.401C218.393 102.884 218.867 102.527 219.405 102.527H240.901Z" fill="#0C151D"/>
<path d="M222.668 76.3635C222.891 75.591 222.311 74.8203 221.507 74.8203H200.011C199.472 74.8203 198.999 75.1765 198.85 75.6937L192.62 97.2883C192.398 98.0609 192.977 98.8316 193.781 98.8316H215.278C215.816 98.8316 216.289 98.4754 216.439 97.9581L222.668 76.3635Z" fill="#F5F8FB"/>
<path fillRule="evenodd" clipRule="evenodd" d="M200.011 76.0286L221.507 76.0286L215.278 97.6232H193.781L200.011 76.0286ZM221.507 74.8203C222.311 74.8203 222.891 75.591 222.668 76.3635L216.439 97.9581C216.289 98.4754 215.816 98.8316 215.278 98.8316H193.781C192.977 98.8316 192.398 98.0609 192.62 97.2883L198.85 75.6937C198.999 75.1765 199.472 74.8203 200.011 74.8203H221.507Z" fill="#0C151D"/>
<path d="M213.598 104.094C213.821 103.321 213.241 102.551 212.437 102.551H190.941C190.403 102.551 189.93 102.907 189.78 103.424L183.551 125.019C183.328 125.791 183.908 126.562 184.712 126.562H206.208C206.747 126.562 207.22 126.206 207.369 125.689L213.598 104.094Z" fill="#F5F8FB"/>
<path fillRule="evenodd" clipRule="evenodd" d="M190.941 103.759L212.437 103.759L206.208 125.354H184.712L190.941 103.759ZM212.437 102.551C213.241 102.551 213.821 103.321 213.598 104.094L207.369 125.689C207.22 126.206 206.747 126.562 206.208 126.562H184.712C183.908 126.562 183.328 125.791 183.551 125.019L189.78 103.424C189.93 102.907 190.403 102.551 190.941 102.551H212.437Z" fill="#0C151D"/>
<path fillRule="evenodd" clipRule="evenodd" d="M314.078 24.4154C319.61 24.4154 324.094 28.8998 324.094 34.4316H325.303C325.303 28.2324 320.277 23.207 314.078 23.207C307.879 23.207 302.854 28.2324 302.854 34.4316H304.062C304.062 28.8998 308.546 24.4154 314.078 24.4154Z" fill="#0C151D"/>
<path fillRule="evenodd" clipRule="evenodd" d="M266.056 24.4154C271.588 24.4154 276.072 28.8998 276.072 34.4316H277.28C277.28 28.2324 272.255 23.207 266.056 23.207C259.857 23.207 254.831 28.2324 254.831 34.4316H256.04C256.04 28.8998 260.524 24.4154 266.056 24.4154Z" fill="#0C151D"/>
<path fillRule="evenodd" clipRule="evenodd" d="M290.066 24.4154C295.598 24.4154 300.083 28.8998 300.083 34.4316H301.291C301.291 28.2324 296.266 23.207 290.066 23.207C283.867 23.207 278.842 28.2324 278.842 34.4316H280.05C280.05 28.8998 284.535 24.4154 290.066 24.4154Z" fill="#0C151D"/>
<path fillRule="evenodd" clipRule="evenodd" d="M242.045 24.4154C247.577 24.4154 252.061 28.8998 252.061 34.4316H253.27C253.27 28.2324 248.244 23.207 242.045 23.207C235.846 23.207 230.82 28.2324 230.82 34.4316H232.029C232.029 28.8998 236.513 24.4154 242.045 24.4154Z" fill="#0C151D"/>
<path fillRule="evenodd" clipRule="evenodd" d="M217.976 24.4154C223.507 24.4154 227.992 28.8998 227.992 34.4316H229.2C229.2 28.2324 224.175 23.207 217.976 23.207C211.777 23.207 206.751 28.2324 206.751 34.4316H207.959C207.959 28.8998 212.444 24.4154 217.976 24.4154Z" fill="#0C151D"/>
<path d="M320.008 75.7083C320.008 75.041 320.549 74.5 321.216 74.5H332.977C333.645 74.5 334.186 75.041 334.186 75.7083V78.6083C334.186 79.2757 333.645 79.8167 332.977 79.8167H321.216C320.549 79.8167 320.008 79.2757 320.008 78.6083V75.7083Z" fill="#0C151D"/>
<path d="M316.464 70.3919C316.464 69.7246 317.005 69.1836 317.672 69.1836H336.522C337.19 69.1836 337.731 69.7246 337.731 70.3919V75.0641C337.731 75.7315 337.19 76.2725 336.522 76.2725H317.672C317.005 76.2725 316.464 75.7315 316.464 75.0641V70.3919Z" fill="#0C151D"/>
<path fillRule="evenodd" clipRule="evenodd" d="M326.146 151.29C346.5 151.29 363 134.79 363 114.436C363 94.0822 346.5 77.582 326.146 77.582C326.131 77.582 326.116 77.582 326.1 77.5821H316.932V78.7431C301.037 82.8344 289.292 97.2637 289.292 114.436C289.292 131.609 301.037 146.038 316.932 150.129V151.29H326.146C326.146 151.29 326.146 151.29 326.146 151.29Z" fill="#0C151D"/>
<path d="M314.201 77.6107C314.201 76.9433 314.742 76.4023 315.41 76.4023H327.171C327.838 76.4023 328.379 76.9433 328.379 77.6107V80.5107C328.379 81.178 327.838 81.719 327.171 81.719H315.41C314.742 81.719 314.201 81.178 314.201 80.5107V77.6107Z" fill="white"/>
<path fillRule="evenodd" clipRule="evenodd" d="M327.171 77.6107H315.41L315.41 80.5107H327.171L327.171 77.6107ZM315.41 76.4023C314.742 76.4023 314.201 76.9433 314.201 77.6107V80.5107C314.201 81.178 314.742 81.719 315.41 81.719H327.171C327.838 81.719 328.379 81.178 328.379 80.5107V77.6107C328.379 76.9433 327.838 76.4023 327.171 76.4023H315.41Z" fill="#0C151D"/>
<path d="M310.656 72.2943C310.656 71.6269 311.197 71.0859 311.865 71.0859H330.715C331.382 71.0859 331.923 71.6269 331.923 72.2943V76.9665C331.923 77.6338 331.382 78.1748 330.715 78.1748H311.865C311.197 78.1748 310.656 77.6338 310.656 76.9665V72.2943Z" fill="white"/>
<path fillRule="evenodd" clipRule="evenodd" d="M330.715 72.2943L311.865 72.2943V76.9665L330.715 76.9665V72.2943ZM311.865 71.0859C311.197 71.0859 310.656 71.6269 310.656 72.2943V76.9665C310.656 77.6338 311.197 78.1748 311.865 78.1748H330.715C331.382 78.1748 331.923 77.6338 331.923 76.9665V72.2943C331.923 71.6269 331.382 71.0859 330.715 71.0859H311.865Z" fill="#0C151D"/>
<path d="M356.734 115.39C356.734 134.965 340.865 150.834 321.289 150.834C301.714 150.834 285.845 134.965 285.845 115.39C285.845 95.8143 301.714 79.9453 321.289 79.9453C340.865 79.9453 356.734 95.8143 356.734 115.39Z" fill="#F5F8FB"/>
<path fillRule="evenodd" clipRule="evenodd" d="M357.942 115.391C357.942 135.634 341.532 152.044 321.289 152.044C301.047 152.044 284.637 135.634 284.637 115.391C284.637 95.1483 301.047 78.7383 321.289 78.7383C341.532 78.7383 357.942 95.1483 357.942 115.391ZM321.289 150.835C340.865 150.835 356.734 134.966 356.734 115.391C356.734 95.8156 340.865 79.9466 321.289 79.9466C301.714 79.9466 285.845 95.8156 285.845 115.391C285.845 134.966 301.714 150.835 321.289 150.835Z" fill="#0C151D"/>
<mask id="mask0_12044_30211" style="mask-type:alpha" maskUnits="userSpaceOnUse" x="285" y="79" width="72" height="72">
<path d="M356.734 115.39C356.734 134.965 340.865 150.834 321.289 150.834C301.714 150.834 285.845 134.965 285.845 115.39C285.845 95.8143 301.714 79.9453 321.289 79.9453C340.865 79.9453 356.734 95.8143 356.734 115.39Z" fill="#F5F8FB"/>
</mask>
<g mask="url(#mask0_12044_30211)">
<path fillRule="evenodd" clipRule="evenodd" d="M320.958 91.4131V115.438L307.785 101.801L296.269 90.2843C289.83 96.7018 285.845 105.58 285.845 115.39C285.845 134.965 301.714 150.834 321.289 150.834C340.865 150.834 356.734 134.965 356.734 115.39C356.734 95.8143 340.865 79.9453 321.289 79.9453C321.179 79.9453 321.068 79.9458 320.958 79.9468V91.4131Z" fill="white"/>
</g>
<path fillRule="evenodd" clipRule="evenodd" d="M320.686 90.5796V87.0352H321.894V90.5796H320.686Z" fill="#0C151D"/>
<path fillRule="evenodd" clipRule="evenodd" d="M320.686 143.748V140.203H321.894V143.748H320.686Z" fill="#0C151D"/>
<path fillRule="evenodd" clipRule="evenodd" d="M346.1 114.785L349.645 114.785L349.645 115.993L346.1 115.993L346.1 114.785Z" fill="#0C151D"/>
<path fillRule="evenodd" clipRule="evenodd" d="M292.934 114.785L296.479 114.785L296.479 115.993L292.934 115.993L292.934 114.785Z" fill="#0C151D"/>
<path fillRule="evenodd" clipRule="evenodd" d="M338.406 97.4204L340.912 94.9141L341.767 95.7685L339.26 98.2748L338.406 97.4204Z" fill="#0C151D"/>
<path fillRule="evenodd" clipRule="evenodd" d="M300.812 135.014L303.318 132.508L304.173 133.362L301.666 135.869L300.812 135.014Z" fill="#0C151D"/>
<path fillRule="evenodd" clipRule="evenodd" d="M339.26 132.509L341.767 135.016L340.912 135.87L338.406 133.364L339.26 132.509Z" fill="#0C151D"/>
<path fillRule="evenodd" clipRule="evenodd" d="M301.667 94.9156L304.173 97.4219L303.318 98.2763L300.812 95.77L301.667 94.9156Z" fill="#0C151D"/>
<path fillRule="evenodd" clipRule="evenodd" d="M305.303 99.3174C305.598 99.0233 306.077 99.0246 306.371 99.3203L320.534 113.562V101.177C320.534 100.76 320.872 100.422 321.29 100.422C321.707 100.422 322.045 100.76 322.045 101.177V115.392C322.045 115.698 321.86 115.973 321.578 116.09C321.295 116.207 320.97 116.141 320.754 115.924L305.3 100.385C305.006 100.09 305.007 99.6115 305.303 99.3174Z" fill="#0C151D"/>
<path fillRule="evenodd" clipRule="evenodd" d="M360.258 137.324L369.737 134.906L368.123 140.146L373.825 138.428L374.757 141.52L363.253 144.985L364.955 139.459L361.056 140.453L360.258 137.324Z" fill="#217BBB"/>
<path fillRule="evenodd" clipRule="evenodd" d="M359.523 136.888L370.631 134.054L369.033 139.24L374.229 137.675L375.509 141.924L362.341 145.89L364.06 140.31L360.62 141.188L359.523 136.888ZM360.992 137.76L361.492 139.718L365.849 138.607L364.163 144.079L374.004 141.115L373.421 139.18L367.211 141.051L368.842 135.758L360.992 137.76Z" fill="#0C151D"/>
<path fillRule="evenodd" clipRule="evenodd" d="M294.875 58.8241L304.007 68.3696L296.774 69.9469L302.578 75.5149L299.559 78.6619L287.851 67.4293L295.481 65.7655L291.724 61.839L294.875 58.8241Z" fill="#217BBB"/>
<path fillRule="evenodd" clipRule="evenodd" d="M294.893 57.9711L305.188 68.7317L298.01 70.297L303.431 75.4985L299.576 79.5176L286.614 67.0819L294.299 65.4061L290.869 61.8215L294.893 57.9711ZM294.855 59.6796L292.578 61.8592L296.661 66.1276L289.087 67.7795L299.541 77.809L301.723 75.534L295.537 69.5994L302.826 68.0101L294.855 59.6796Z" fill="#0C151D"/>
<path fillRule="evenodd" clipRule="evenodd" d="M280.221 84.4924L290.035 86.3632L287.463 81.3427L293.415 82.7244L293.758 79.6653L281.75 76.8779L284.463 82.1736L280.426 81.404L280.221 84.4924Z" fill="#217BBB"/>
<path fillRule="evenodd" clipRule="evenodd" d="M279.583 84.9888L291.136 87.1912L288.593 82.2285L293.94 83.4694L294.418 79.2013L280.618 75.9982L283.361 81.3515L279.868 80.6856L279.583 84.9888ZM280.859 84.002L280.983 82.1284L285.564 83.0016L282.88 77.7637L293.098 80.1353L292.89 81.9854L286.331 80.463L288.933 85.5412L280.859 84.002Z" fill="#0C151D"/>
<path fillRule="evenodd" clipRule="evenodd" d="M360.958 64.2906C360.867 69.125 356.961 73.026 352.125 73.1103L352.125 73.1116C356.97 73.1961 360.881 77.1108 360.959 81.957L360.962 81.957C361.04 77.1123 364.949 73.1985 369.791 73.1117L369.791 73.1102C364.957 73.0236 361.054 69.1235 360.963 64.2906L360.958 64.2906Z" fill="#0C151D"/>
<path fillRule="evenodd" clipRule="evenodd" d="M374.258 79.9992C374.192 83.5158 371.352 86.3539 367.834 86.4157L367.834 86.4165C371.357 86.4783 374.2 89.3242 374.258 92.8477L374.259 92.8477C374.317 89.3245 377.16 86.4787 380.682 86.4165L380.682 86.4156C377.165 86.3535 374.325 83.5156 374.26 79.9992L374.258 79.9992Z" fill="#0C151D"/>
</svg>
