<svg width="248" height="268" viewBox="0 0 248 268" fill="none" xmlns="http://www.w3.org/2000/svg">
<path d="M121.394 59.4835L126.403 54.3038L133.728 56.1788L135.647 63.34L130.24 68.6263L123.313 66.6447L121.394 59.4835Z" fill="white"/>
<path fillRule="evenodd" clipRule="evenodd" d="M126.054 53.2539C126.262 53.0473 126.566 52.9667 126.85 53.0423L134.011 54.947C134.295 55.0226 134.517 55.243 134.593 55.5251L136.512 62.6334C136.588 62.9155 136.507 63.2166 136.299 63.4232L131.057 68.6267C130.849 68.8333 130.545 68.9139 130.261 68.8383L123.1 66.9336C122.816 66.858 122.594 66.6376 122.518 66.3555L120.599 59.2472C120.522 58.9651 120.604 58.664 120.812 58.4574L126.054 53.2539ZM122.559 60.192L123.986 65.4762L129.309 66.8922L127.883 61.6079L122.559 60.192ZM129.474 61.1847L130.901 66.4689L134.798 62.6006L133.371 57.3164L129.474 61.1847ZM132.206 56.16L128.309 60.0283L122.986 58.6124L126.883 54.7441L132.206 56.16Z" fill="#0C151D"/>
<path d="M63.5951 51.3784C63.5951 50.0959 64.9958 49.3052 66.0938 49.9677L113.872 78.7974C114.367 79.0956 114.669 79.6308 114.669 80.208V185.571C114.669 186.856 113.263 187.646 112.165 186.979L64.3869 157.937C63.8952 157.638 63.5951 157.105 63.5951 156.529V51.3784Z" fill="white"/>
<path fillRule="evenodd" clipRule="evenodd" d="M113.021 80.208L65.2426 51.3784L65.2426 156.529L113.021 185.571V80.208ZM66.0938 49.9677C64.9958 49.3052 63.5951 50.0959 63.5951 51.3784V156.529C63.5951 157.105 63.8952 157.638 64.3869 157.937L112.165 186.979C113.263 187.646 114.669 186.856 114.669 185.571V80.208C114.669 79.6308 114.367 79.0956 113.872 78.7974L66.0938 49.9677Z" fill="#0C151D"/>
<path d="M72.6565 94.2488C72.6565 92.959 74.0716 92.1694 75.1692 92.8467L104.413 110.893C104.899 111.193 105.195 111.723 105.195 112.295V181C105.195 182.293 103.773 183.082 102.676 182.397L73.4318 164.148C72.9495 163.847 72.6565 163.319 72.6565 162.75V94.2488Z" fill="#217BBB"/>
<path fillRule="evenodd" clipRule="evenodd" d="M103.548 112.295L74.304 94.2488L74.304 162.75L103.548 181L103.548 112.295ZM75.1692 92.8467C74.0716 92.1694 72.6565 92.959 72.6565 94.2488V162.75C72.6565 163.319 72.9495 163.847 73.4318 164.148L102.676 182.397C103.773 183.082 105.195 182.293 105.195 181V112.295C105.195 111.723 104.899 111.193 104.413 110.893L75.1692 92.8467Z" fill="#0C151D"/>
<mask id="mask0_4523_164936" style="mask-type:alpha" maskUnits="userSpaceOnUse" x="72" y="92" width="34" height="91">
<path d="M72.6565 94.2488C72.6565 92.959 74.0716 92.1694 75.1692 92.8467L104.413 110.893C104.899 111.193 105.195 111.723 105.195 112.295V181C105.195 182.293 103.773 183.082 102.676 182.397L73.4318 164.148C72.9495 163.847 72.6565 163.319 72.6565 162.75V94.2488Z" fill="#217BBB"/>
</mask>
<g mask="url(#mask0_4523_164936)">
<path d="M66.0664 162.14L212.285 124.247L88.72 197.974L66.0664 162.14Z" fill="#0C151D"/>
</g>
<path d="M114.025 234.795V188.596C114.025 187.686 113.288 186.949 112.378 186.949H57.3352C56.4252 186.949 55.6876 187.686 55.6876 188.596V234.795C55.6876 235.705 56.4252 236.443 57.3352 236.443H112.378C113.288 236.443 114.025 235.705 114.025 234.795Z" fill="white"/>
<path fillRule="evenodd" clipRule="evenodd" d="M57.3352 187.772C56.8802 187.772 56.5114 188.141 56.5114 188.596V234.795C56.5114 235.25 56.8802 235.619 57.3352 235.619H112.378C112.833 235.619 113.202 235.25 113.202 234.795V188.596C113.202 188.141 112.833 187.772 112.378 187.772H57.3352ZM54.8639 188.596C54.8639 187.231 55.9703 186.125 57.3352 186.125H112.378C113.743 186.125 114.849 187.231 114.849 188.596V234.795C114.849 236.16 113.743 237.266 112.378 237.266H57.3352C55.9703 237.266 54.8639 236.16 54.8639 234.795V188.596Z" fill="#0C151D"/>
<path d="M5.10767 192.844L55.6878 223.874V236.287L5.10767 205.256V192.844Z" fill="#0C151D"/>
<path fillRule="evenodd" clipRule="evenodd" d="M4.70525 192.125C4.9655 191.979 5.28414 191.986 5.53835 192.142L56.1185 223.172C56.3626 223.322 56.5115 223.588 56.5115 223.875V236.287C56.5115 236.585 56.3503 236.86 56.09 237.006C55.8298 237.151 55.5111 237.145 55.2569 236.989L4.67681 205.958C4.43263 205.808 4.28381 205.543 4.28381 205.256V192.844C4.28381 192.546 4.44501 192.271 4.70525 192.125ZM5.93135 194.316V204.795L54.8639 234.815V224.336L5.93135 194.316Z" fill="#0C151D"/>
<path d="M19.6921 180.467L70.2723 211.498V223.91L19.6921 192.879V180.467Z" fill="#0C151D"/>
<path fillRule="evenodd" clipRule="evenodd" d="M19.2898 179.748C19.5501 179.603 19.8687 179.609 20.1229 179.765L70.7031 210.796C70.9472 210.945 71.0961 211.211 71.0961 211.498V223.91C71.0961 224.208 70.9349 224.483 70.6746 224.629C70.4144 224.775 70.0957 224.768 69.8415 224.612L19.2614 193.582C19.0172 193.432 18.8684 193.166 18.8684 192.879V180.467C18.8684 180.169 19.0296 179.894 19.2898 179.748ZM20.5159 181.939V192.418L69.4485 222.438V211.959L20.5159 181.939Z" fill="#0C151D"/>
<path d="M34.2765 168.055L84.8566 199.086V211.498L34.2765 180.467V168.055Z" fill="#0C151D"/>
<path fillRule="evenodd" clipRule="evenodd" d="M33.8741 167.336C34.1343 167.19 34.453 167.197 34.7072 167.353L85.2873 198.384C85.5315 198.533 85.6803 198.799 85.6803 199.086V211.498C85.6803 211.796 85.5191 212.071 85.2589 212.217C84.9986 212.363 84.68 212.356 84.4258 212.2L33.8456 181.169C33.6015 181.02 33.4526 180.754 33.4526 180.467V168.055C33.4526 167.757 33.6138 167.482 33.8741 167.336ZM35.1002 169.527V180.006L84.0328 210.026V199.547L35.1002 169.527Z" fill="#0C151D"/>
<path d="M48.8608 155.962L99.441 186.581V198.994L48.8608 167.963V155.962Z" fill="#0C151D"/>
<path fillRule="evenodd" clipRule="evenodd" d="M48.4564 155.245C48.7155 155.099 49.0331 155.104 49.2875 155.258L99.8676 185.877C100.114 186.026 100.265 186.293 100.265 186.581V198.994C100.265 199.292 100.104 199.567 99.8433 199.712C99.5831 199.858 99.2644 199.852 99.0102 199.696L48.4301 168.665C48.1859 168.515 48.0371 168.249 48.0371 167.963V155.962C48.0371 155.665 48.1974 155.391 48.4564 155.245ZM49.6846 157.424V167.502L98.6172 197.522V187.046L49.6846 157.424Z" fill="#0C151D"/>
<path d="M70.1234 223.862L19.5369 192.841L5.10763 192.841L55.6903 223.987L70.1234 223.862Z" fill="white"/>
<path fillRule="evenodd" clipRule="evenodd" d="M70.9173 224.082C71.0155 223.728 70.8674 223.351 70.5541 223.159L19.9676 192.139C19.838 192.059 19.689 192.017 19.537 192.017L5.10772 192.017C4.73921 192.017 4.41553 192.262 4.31512 192.617C4.21472 192.971 4.36202 193.349 4.67581 193.543L55.2585 224.688C55.3904 224.769 55.5426 224.812 55.6975 224.81L70.1306 224.685C70.4981 224.682 70.819 224.436 70.9173 224.082ZM67.2449 223.063L55.9204 223.161L8.01673 193.665L19.3045 193.665L67.2449 223.063Z" fill="#0C151D"/>
<path d="M84.708 211.487L34.1215 180.466L19.6922 180.466L70.2749 211.612L84.708 211.487Z" fill="white"/>
<path fillRule="evenodd" clipRule="evenodd" d="M85.5017 211.707C85.6 211.353 85.4519 210.976 85.1386 210.784L34.5521 179.764C34.4225 179.684 34.2735 179.642 34.1215 179.642L19.6922 179.642C19.3237 179.642 19 179.887 18.8996 180.242C18.7992 180.596 18.9465 180.974 19.2603 181.168L69.843 212.313C69.9749 212.394 70.1271 212.437 70.282 212.435L84.7151 212.31C85.0826 212.307 85.4035 212.061 85.5017 211.707ZM81.8294 210.688L70.5049 210.786L22.6012 181.29L33.889 181.29L81.8294 210.688Z" fill="#0C151D"/>
<path d="M99.2922 199.074L48.7057 168.054L34.2765 168.054L84.8591 199.199L99.2922 199.074Z" fill="white"/>
<path fillRule="evenodd" clipRule="evenodd" d="M100.086 199.295C100.184 198.941 100.036 198.564 99.7228 198.372L49.1363 167.352C49.0067 167.273 48.8577 167.231 48.7057 167.231L34.2764 167.231C33.9079 167.231 33.5842 167.475 33.4838 167.83C33.3834 168.184 33.5307 168.563 33.8445 168.756L84.4272 199.901C84.5591 199.982 84.7113 200.025 84.8662 200.023L99.2993 199.898C99.6668 199.895 99.9877 199.649 100.086 199.295ZM96.4136 198.276L85.0891 198.374L37.1854 168.878L48.4732 168.878L96.4136 198.276Z" fill="#0C151D"/>
<path d="M113.877 186.972L63.2904 155.951L48.8612 155.951L99.4438 187.097L113.877 186.972Z" fill="white"/>
<path fillRule="evenodd" clipRule="evenodd" d="M114.671 187.192C114.769 186.838 114.621 186.461 114.308 186.269L63.721 155.249C63.5914 155.17 63.4424 155.128 63.2904 155.128L48.8611 155.128C48.4926 155.128 48.1689 155.372 48.0685 155.727C47.9681 156.081 48.1154 156.46 48.4292 156.653L99.0119 187.798C99.1438 187.879 99.296 187.922 99.4509 187.92L113.884 187.795C114.252 187.792 114.572 187.546 114.671 187.192ZM110.998 186.173L99.6738 186.271L51.7701 156.775L63.0579 156.775L110.998 186.173Z" fill="#0C151D"/>
<path d="M243.176 57.3531C243.176 56.3208 242.238 55.5428 241.223 55.7341L115.187 79.5102C114.409 79.657 113.845 80.337 113.845 81.1292V234.694C113.845 235.729 114.789 236.508 115.806 236.311L241.842 211.898C242.617 211.748 243.176 211.07 243.176 210.281V57.3531Z" fill="white"/>
<path fillRule="evenodd" clipRule="evenodd" d="M244 57.3529C244 55.8044 242.592 54.6374 241.071 54.9245L115.034 78.7005C113.867 78.9208 113.021 79.9408 113.021 81.129V234.693C113.021 236.247 114.437 237.415 115.962 237.12L241.999 212.707C243.161 212.482 244 211.464 244 210.28V57.3529ZM241.376 56.5434C241.883 56.4477 242.352 56.8368 242.352 57.3529V210.28C242.352 210.675 242.073 211.014 241.685 211.089L115.649 235.502C115.141 235.601 114.669 235.211 114.669 234.693V81.129C114.669 80.7329 114.951 80.3929 115.34 80.3195L241.376 56.5434Z" fill="#0C151D"/>
<path d="M211.461 89.1651C211.461 88.1327 210.522 87.3546 209.508 87.5462L148.137 99.1376C147.359 99.2845 146.795 99.9645 146.795 100.756V136.828C146.795 137.867 147.745 138.646 148.765 138.443L210.135 126.232C210.906 126.078 211.461 125.402 211.461 124.616V89.1651Z" fill="#217BBB"/>
<path fillRule="evenodd" clipRule="evenodd" d="M212.285 89.1652C212.285 87.6165 210.877 86.4494 209.355 86.7368L147.984 98.3281C146.817 98.5486 145.972 99.5685 145.972 100.757V136.828C145.972 138.386 147.397 139.555 148.925 139.251L210.296 127.04C211.452 126.81 212.285 125.795 212.285 124.616V89.1652ZM209.661 88.3557C210.168 88.2599 210.637 88.6489 210.637 89.1652V124.616C210.637 125.009 210.36 125.347 209.974 125.424L148.604 137.635C148.094 137.737 147.619 137.347 147.619 136.828V100.757C147.619 100.361 147.901 100.021 148.29 99.9471L209.661 88.3557Z" fill="#0C151D"/>
<path fillRule="evenodd" clipRule="evenodd" d="M165.742 95.8267V134.956H164.095V95.8267H165.742Z" fill="#0C151D"/>
<path fillRule="evenodd" clipRule="evenodd" d="M197.045 90.0603V129.189H195.398V90.0603H197.045Z" fill="#0C151D"/>
<path fillRule="evenodd" clipRule="evenodd" d="M165.742 26.2185V70.29H164.095V26.2185H165.742Z" fill="#0C151D"/>
<path fillRule="evenodd" clipRule="evenodd" d="M197.045 20.4521V64.5237H195.398V20.4521H197.045Z" fill="#0C151D"/>
<path fillRule="evenodd" clipRule="evenodd" d="M196.781 100.344L165.066 106.11L164.771 104.49L196.486 98.7231L196.781 100.344Z" fill="#0C151D"/>
<path fillRule="evenodd" clipRule="evenodd" d="M196.781 37.7379L165.066 43.5043L164.771 41.8833L196.486 36.1169L196.781 37.7379Z" fill="#0C151D"/>
<path fillRule="evenodd" clipRule="evenodd" d="M196.781 117.643L165.066 123.41L164.771 121.789L196.486 116.022L196.781 117.643Z" fill="#0C151D"/>
<path fillRule="evenodd" clipRule="evenodd" d="M196.781 55.037L165.066 60.8033L164.771 59.1824L196.486 53.416L196.781 55.037Z" fill="#0C151D"/>
<path d="M178.099 187.677L107.255 200.12V216.528L178.099 204.085V187.677Z" fill="#C3C6C9"/>
<path fillRule="evenodd" clipRule="evenodd" d="M178.099 187.677V204.085L107.255 216.528V200.12L178.099 187.677ZM176.451 189.639V202.702L108.902 214.566V201.503L176.451 189.639Z" fill="#0C151D"/>
<path d="M178.099 211.566L107.255 224.009V240.417L178.099 227.974V211.566Z" fill="#C3C6C9"/>
<path fillRule="evenodd" clipRule="evenodd" d="M178.099 211.566V227.974L107.255 240.417V224.009L178.099 211.566ZM176.451 213.528V226.591L108.902 238.455V225.392L176.451 213.528Z" fill="#0C151D"/>
<mask id="mask1_4523_164936" style="mask-type:alpha" maskUnits="userSpaceOnUse" x="107" y="187" width="72" height="30">
<path d="M178.099 187.677L107.255 200.12V216.528L178.099 204.085V187.677Z" fill="#F1F1F1"/>
</mask>
<g mask="url(#mask1_4523_164936)">
<path d="M166.952 179.375L155.697 181.889L176.99 209.208L188.245 206.695L166.952 179.375Z" fill="#0C151D"/>
<path d="M148.059 183.594L136.803 186.107L158.096 213.427L169.352 210.913L148.059 183.594Z" fill="#0C151D"/>
<path d="M129.166 187.812L117.91 190.326L139.203 217.645L150.459 215.132L129.166 187.812Z" fill="#0C151D"/>
<path d="M110.273 192.031L99.017 194.544L120.31 221.864L131.566 219.351L110.273 192.031Z" fill="#0C151D"/>
</g>
<mask id="mask2_4523_164936" style="mask-type:alpha" maskUnits="userSpaceOnUse" x="107" y="211" width="72" height="30">
<path d="M178.099 211.566L107.255 224.009V240.417L178.099 227.974V211.566Z" fill="#9DA0A4"/>
</mask>
<g mask="url(#mask2_4523_164936)">
<path d="M166.952 203.264L155.697 205.778L176.99 233.097L188.245 230.584L166.952 203.264Z" fill="#0C151D"/>
<path d="M148.059 207.483L136.803 209.996L158.096 237.316L169.352 234.803L148.059 207.483Z" fill="#0C151D"/>
<path d="M129.166 211.702L117.91 214.215L139.203 241.534L150.459 239.021L129.166 211.702Z" fill="#0C151D"/>
<path d="M110.273 215.92L99.017 218.433L120.31 245.753L131.566 243.24L110.273 215.92Z" fill="#0C151D"/>
</g>
<path d="M112.197 262.227V199.621L107.667 197.15V260.168L112.197 262.227Z" fill="#F1F1F1"/>
<path fillRule="evenodd" clipRule="evenodd" d="M107.246 196.442C107.496 196.293 107.806 196.288 108.061 196.427L112.592 198.898C112.856 199.042 113.021 199.32 113.021 199.621V262.227C113.021 262.508 112.879 262.768 112.643 262.92C112.408 263.072 112.111 263.093 111.856 262.977L107.326 260.918C107.032 260.784 106.843 260.491 106.843 260.168V197.15C106.843 196.859 106.996 196.59 107.246 196.442ZM108.49 198.538V259.638L111.373 260.948V200.11L108.49 198.538Z" fill="#0C151D"/>
<path d="M173.98 250.695V188.088L169.449 185.617V248.635L173.98 250.695Z" fill="#F1F1F1"/>
<path fillRule="evenodd" clipRule="evenodd" d="M169.029 184.909C169.279 184.76 169.588 184.755 169.843 184.894L174.374 187.365C174.639 187.51 174.803 187.787 174.803 188.089V250.695C174.803 250.975 174.661 251.236 174.426 251.387C174.19 251.539 173.894 251.561 173.639 251.445L169.108 249.385C168.814 249.252 168.625 248.958 168.625 248.635V185.617C168.625 185.326 168.779 185.057 169.029 184.909ZM170.273 187.005V248.105L173.156 249.415V188.578L170.273 187.005Z" fill="#0C151D"/>
<path d="M116.728 259.344V196.737L112.197 195.502V257.284L116.728 259.344Z" fill="#F1F1F1"/>
<path fillRule="evenodd" clipRule="evenodd" d="M111.697 194.848C111.901 194.692 112.166 194.64 112.414 194.708L116.945 195.943C117.303 196.04 117.552 196.366 117.552 196.737V259.344C117.552 259.624 117.409 259.885 117.174 260.036C116.939 260.188 116.642 260.209 116.387 260.093L111.856 258.034C111.562 257.9 111.374 257.607 111.374 257.284V195.502C111.374 195.246 111.493 195.004 111.697 194.848ZM113.021 196.581V256.754L115.904 258.064V197.367L113.021 196.581Z" fill="#0C151D"/>
<path d="M178.51 247.811V185.205L173.98 183.97V245.751L178.51 247.811Z" fill="#F1F1F1"/>
<path fillRule="evenodd" clipRule="evenodd" d="M173.48 183.315C173.684 183.159 173.949 183.107 174.196 183.175L178.727 184.41C179.086 184.508 179.334 184.833 179.334 185.205V247.811C179.334 248.091 179.192 248.352 178.956 248.503C178.721 248.655 178.425 248.677 178.17 248.561L173.639 246.501C173.345 246.368 173.156 246.074 173.156 245.751V183.97C173.156 183.713 173.276 183.471 173.48 183.315ZM174.804 185.048V245.221L177.687 246.532V185.834L174.804 185.048Z" fill="#0C151D"/>
<path d="M107.255 259.342V196.735L111.785 195.502V257.282L107.255 259.342Z" fill="#F1F1F1"/>
<path fillRule="evenodd" clipRule="evenodd" d="M112.286 194.848C112.082 194.692 111.817 194.64 111.569 194.708L107.038 195.94C106.68 196.038 106.431 196.364 106.431 196.735V259.342C106.431 259.622 106.573 259.883 106.809 260.034C107.044 260.186 107.341 260.207 107.596 260.091L112.126 258.032C112.42 257.898 112.609 257.605 112.609 257.282V195.502C112.609 195.246 112.49 195.004 112.286 194.848ZM110.962 196.58V256.752L108.078 258.062V197.365L110.962 196.58Z" fill="#0C151D"/>
<path d="M169.037 247.809V185.203L173.568 183.97V245.749L169.037 247.809Z" fill="#F1F1F1"/>
<path fillRule="evenodd" clipRule="evenodd" d="M174.068 183.315C173.864 183.159 173.599 183.108 173.352 183.175L168.821 184.408C168.462 184.505 168.213 184.831 168.213 185.203V247.809C168.213 248.089 168.356 248.35 168.591 248.501C168.827 248.653 169.123 248.675 169.378 248.559L173.909 246.499C174.203 246.366 174.392 246.072 174.392 245.749V183.97C174.392 183.713 174.272 183.471 174.068 183.315ZM172.744 185.048V245.219L169.861 246.53V185.832L172.744 185.048Z" fill="#0C151D"/>
<path d="M112.197 262.227V198.386L107.667 197.15V260.168L112.197 262.227Z" fill="#F1F1F1"/>
<path fillRule="evenodd" clipRule="evenodd" d="M107.167 196.495C107.371 196.339 107.636 196.288 107.883 196.355L112.414 197.591C112.772 197.689 113.021 198.014 113.021 198.386V262.228C113.021 262.508 112.879 262.768 112.643 262.92C112.408 263.072 112.111 263.093 111.856 262.977L107.326 260.918C107.032 260.784 106.843 260.491 106.843 260.168V197.15C106.843 196.893 106.962 196.651 107.167 196.495ZM108.49 198.228V259.638L111.373 260.948V199.015L108.49 198.228Z" fill="#0C151D"/>
<path d="M173.98 250.695V186.853L169.449 185.617V248.635L173.98 250.695Z" fill="#F1F1F1"/>
<path fillRule="evenodd" clipRule="evenodd" d="M168.949 184.963C169.153 184.807 169.418 184.755 169.666 184.822L174.196 186.058C174.555 186.156 174.803 186.481 174.803 186.853V250.695C174.803 250.975 174.661 251.236 174.426 251.387C174.19 251.539 173.894 251.561 173.639 251.445L169.108 249.385C168.814 249.252 168.625 248.958 168.625 248.635V185.617C168.625 185.36 168.745 185.118 168.949 184.963ZM170.273 186.696V248.105L173.156 249.415V187.482L170.273 186.696Z" fill="#0C151D"/>
<path d="M112.197 262.227V198.386L116.728 197.15V260.168L112.197 262.227Z" fill="#F1F1F1"/>
<path fillRule="evenodd" clipRule="evenodd" d="M117.228 196.495C117.024 196.339 116.759 196.288 116.511 196.355L111.981 197.591C111.622 197.689 111.374 198.014 111.374 198.386V262.228C111.374 262.508 111.516 262.768 111.751 262.92C111.987 263.072 112.283 263.093 112.538 262.977L117.069 260.918C117.363 260.784 117.552 260.491 117.552 260.168V197.15C117.552 196.893 117.432 196.651 117.228 196.495ZM115.904 198.228V259.638L113.021 260.948V199.015L115.904 198.228Z" fill="#0C151D"/>
<path d="M173.98 250.695V186.853L178.51 185.617V248.635L173.98 250.695Z" fill="#F1F1F1"/>
<path fillRule="evenodd" clipRule="evenodd" d="M179.01 184.963C178.806 184.807 178.541 184.755 178.294 184.822L173.763 186.058C173.405 186.156 173.156 186.481 173.156 186.853V250.695C173.156 250.975 173.298 251.236 173.534 251.387C173.769 251.539 174.066 251.561 174.321 251.445L178.851 249.385C179.145 249.252 179.334 248.958 179.334 248.635V185.617C179.334 185.36 179.215 185.118 179.01 184.963ZM177.687 186.696V248.105L174.804 249.415V187.482L177.687 186.696Z" fill="#0C151D"/>
<path fillRule="evenodd" clipRule="evenodd" d="M107.255 196.326L112.395 198.386L117.14 196.326L112.395 195.091L107.255 196.326Z" fill="#0C151D"/>
<path fillRule="evenodd" clipRule="evenodd" d="M169.037 184.794L174.178 186.853L178.922 184.794L174.178 183.558L169.037 184.794Z" fill="#0C151D"/>
<path d="M105.607 202.504L110.55 204.157V220.627L105.607 219.031V202.504Z" fill="#C3C6C9"/>
<path fillRule="evenodd" clipRule="evenodd" d="M104.644 201.167C105.074 200.858 105.627 200.774 106.13 200.942L111.072 202.595C111.744 202.819 112.197 203.449 112.197 204.157V220.627C112.197 221.154 111.945 221.649 111.519 221.959C111.093 222.269 110.545 222.357 110.043 222.195L105.101 220.599C104.421 220.379 103.96 219.746 103.96 219.031V202.504C103.96 201.975 104.214 201.477 104.644 201.167ZM105.607 202.504V219.031L110.55 220.627V204.157L105.607 202.504Z" fill="#0C151D"/>
<path d="M105.607 226.394L110.55 228.046V244.517L105.607 242.921V226.394Z" fill="#C3C6C9"/>
<path fillRule="evenodd" clipRule="evenodd" d="M104.644 225.057C105.074 224.747 105.627 224.663 106.13 224.831L111.072 226.484C111.744 226.709 112.197 227.338 112.197 228.046V244.517C112.197 245.043 111.945 245.538 111.519 245.849C111.093 246.159 110.545 246.246 110.043 246.084L105.101 244.488C104.421 244.269 103.96 243.635 103.96 242.92V226.394C103.96 225.864 104.214 225.366 104.644 225.057ZM105.607 226.394V242.92L110.55 244.517V228.046L105.607 226.394Z" fill="#0C151D"/>
<path d="M180.57 192.619L112.197 204.699V220.627L180.57 208.548V192.619Z" fill="white"/>
<path fillRule="evenodd" clipRule="evenodd" d="M181.629 191.357C181.255 191.044 180.763 190.912 180.283 190.997L111.911 203.076C111.123 203.215 110.55 203.899 110.55 204.699V220.627C110.55 221.114 110.765 221.577 111.138 221.89C111.512 222.203 112.004 222.334 112.484 222.25L180.857 210.17C181.644 210.031 182.217 209.347 182.217 208.548V192.619C182.217 192.132 182.002 191.67 181.629 191.357ZM180.57 192.619V208.548L112.197 220.627V204.699L180.57 192.619Z" fill="#0C151D"/>
<path d="M180.57 216.509L112.197 228.588V244.517L180.57 232.437V216.509Z" fill="white"/>
<path fillRule="evenodd" clipRule="evenodd" d="M181.629 215.246C181.255 214.933 180.763 214.801 180.283 214.886L111.911 226.966C111.123 227.105 110.55 227.789 110.55 228.588V244.517C110.55 245.004 110.765 245.466 111.138 245.779C111.512 246.092 112.004 246.224 112.484 246.139L180.857 234.06C181.644 233.921 182.217 233.237 182.217 232.437V216.509C182.217 216.022 182.002 215.559 181.629 215.246ZM180.57 216.509V232.437L112.197 244.517V228.588L180.57 216.509Z" fill="#0C151D"/>
<mask id="mask3_4523_164936" style="mask-type:alpha" maskUnits="userSpaceOnUse" x="112" y="191" width="69" height="31">
<path d="M180.57 191.795L112.197 204.239V221.451L180.57 209.506V191.795Z" fill="#9DA0A4"/>
</mask>
<g mask="url(#mask3_4523_164936)">
<path d="M126.11 193.031H137.241L122.93 224.334H111.8L126.11 193.031Z" fill="#0C151D"/>
<path d="M144.793 193.031H155.924L141.613 224.334H130.483L144.793 193.031Z" fill="#0C151D"/>
<path d="M163.477 193.031H174.607L160.297 224.334H149.166L163.477 193.031Z" fill="#0C151D"/>
<path d="M182.16 193.031H193.29L178.98 224.334H167.849L182.16 193.031Z" fill="#0C151D"/>
</g>
<mask id="mask4_4523_164936" style="mask-type:alpha" maskUnits="userSpaceOnUse" x="112" y="215" width="69" height="31">
<path d="M180.57 215.685L112.197 228.128V245.34L180.57 233.396V215.685Z" fill="#9DA0A4"/>
</mask>
<g mask="url(#mask4_4523_164936)">
<path d="M126.11 216.92H137.241L122.93 248.224H111.8L126.11 216.92Z" fill="#0C151D"/>
<path d="M144.793 216.92H155.924L141.613 248.224H130.483L144.793 216.92Z" fill="#0C151D"/>
<path d="M163.477 216.92H174.607L160.297 248.224H149.166L163.477 216.92Z" fill="#0C151D"/>
<path d="M182.16 216.92H193.29L178.98 248.224H167.849L182.16 216.92Z" fill="#0C151D"/>
</g>
<path d="M120.048 15.585C121.277 15.1748 122.476 16.277 122.171 17.5357L115.197 46.3194C114.9 47.5427 113.397 47.9953 112.474 47.1389L91.5157 27.6834C90.5987 26.8321 90.9279 25.3096 92.1147 24.9132L120.048 15.585Z" fill="white"/>
<path fillRule="evenodd" clipRule="evenodd" d="M113.595 45.9314L120.57 17.1477L92.6366 26.4759L113.595 45.9314ZM122.171 17.5357C122.476 16.277 121.277 15.1748 120.048 15.585L92.1147 24.9132C90.9279 25.3096 90.5987 26.8321 91.5157 27.6834L112.474 47.1389C113.397 47.9953 114.9 47.5427 115.197 46.3194L122.171 17.5357Z" fill="#0C151D"/>
<path d="M114.491 47.8873C112.17 50.388 104.882 47.397 98.2134 41.2065C91.5447 35.0161 88.3224 28.2507 90.6438 25.75C92.9652 23.2492 99.9512 25.96 106.62 32.1505C113.289 38.3409 116.813 45.3865 114.491 47.8873Z" fill="white"/>
<path fillRule="evenodd" clipRule="evenodd" d="M111.944 47.1218C112.787 47.1411 113.139 46.9222 113.284 46.7664C113.429 46.6105 113.621 46.2433 113.539 45.4038C113.457 44.5669 113.114 43.4602 112.454 42.1395C111.138 39.5098 108.727 36.3543 105.499 33.3579C102.271 30.3613 99.0264 28.2669 96.394 27.2224C95.0729 26.6982 93.9886 26.4714 93.1828 26.472C92.3829 26.4726 92.0197 26.6894 91.8512 26.8708C91.6828 27.0523 91.4936 27.4306 91.5525 28.2284C91.6117 29.0319 91.9184 30.0964 92.5393 31.3749C93.7765 33.9225 96.1061 37.0024 99.3343 39.9991C102.562 42.9955 105.888 45.1655 108.608 46.2819C109.974 46.8426 111.103 47.1026 111.944 47.1218ZM98.2134 41.2065C104.882 47.397 112.17 50.388 114.491 47.8873C116.813 45.3865 113.289 38.3409 106.62 32.1505C99.9512 25.96 92.9652 23.2492 90.6438 25.75C88.3224 28.2507 91.5447 35.0161 98.2134 41.2065Z" fill="#0C151D"/>
<path fillRule="evenodd" clipRule="evenodd" d="M76.7753 40.2174C79.03 40.1773 80.8506 38.3579 80.8927 36.1036L80.8944 36.1036C80.937 38.3579 82.758 40.177 85.0129 40.2165L85.0129 40.2171C82.7542 40.2567 80.9309 42.0819 80.8942 44.3413L80.8929 44.3413C80.8558 42.0826 79.0332 40.2582 76.7753 40.218L76.7753 40.2174Z" fill="#0C151D"/>
<path fillRule="evenodd" clipRule="evenodd" d="M146.796 23.7427C143.634 23.7981 141.082 26.3516 141.029 29.5134L141.028 29.5134C140.975 26.3521 138.423 23.7988 135.263 23.7427L135.263 23.7397C138.42 23.6837 140.968 21.1367 141.027 17.9807L141.03 17.9807C141.089 21.137 143.638 23.6843 146.796 23.7397L146.796 23.7427Z" fill="#0C151D"/>
<path d="M154.209 41.4582C154.209 43.5055 152.55 45.1651 150.502 45.1651C148.455 45.1651 146.796 43.5055 146.796 41.4582C146.796 39.4109 148.455 37.7512 150.502 37.7512C152.55 37.7512 154.209 39.4109 154.209 41.4582Z" fill="white"/>
<path fillRule="evenodd" clipRule="evenodd" d="M150.502 38.575C148.91 38.575 147.619 39.8659 147.619 41.4582C147.619 43.0505 148.91 44.3414 150.502 44.3414C152.095 44.3414 153.386 43.0505 153.386 41.4582C153.386 39.8659 152.095 38.575 150.502 38.575ZM145.972 41.4582C145.972 38.956 148 36.9275 150.502 36.9275C153.005 36.9275 155.033 38.956 155.033 41.4582C155.033 43.9605 153.005 45.9889 150.502 45.9889C148 45.9889 145.972 43.9605 145.972 41.4582Z" fill="#0C151D"/>
</svg>
