<svg width="160" height="124" viewBox="0 0 160 124" fill="none" xmlns="http://www.w3.org/2000/svg">
<path opacity="0.6" d="M93.7387 40.8419C93.7387 39.908 94.583 39.2011 95.5024 39.3653L138.109 46.9736C138.824 47.1013 139.345 47.7235 139.345 48.4502V112.632C139.345 113.566 138.501 114.273 137.581 114.109L94.975 106.5C94.2596 106.373 93.7387 105.751 93.7387 105.024V40.8419Z" fill="white" stroke="#0C151D"/>
<path d="M85.7484 45.8603C85.7484 44.6063 86.8891 43.6616 88.1211 43.8953L132.392 52.2915C133.336 52.4706 134.019 53.2956 134.019 54.2565V65.9981C134.019 67.2521 132.879 68.1967 131.647 67.9631L87.3757 59.5668C86.4317 59.3878 85.7484 58.5627 85.7484 57.6019V45.8603Z" fill="white"/>
<path opacity="0.5" d="M86.2484 45.8603C86.2484 44.9198 87.1039 44.2113 88.0279 44.3865L132.299 52.7828C133.007 52.917 133.519 53.5358 133.519 54.2565V65.9981C133.519 66.9386 132.664 67.6471 131.74 67.4718L87.4689 59.0756C86.7609 58.9413 86.2484 58.3225 86.2484 57.6019V45.8603Z" fill="white" stroke="#0C151D"/>
<path opacity="0.5" d="M86.2484 66.665C86.2484 65.7245 87.1039 65.016 88.0279 65.1912L132.299 73.5875C133.007 73.7217 133.519 74.3405 133.519 75.0612V86.8028C133.519 87.7433 132.664 88.4518 131.74 88.2765L87.4689 79.8803C86.7609 79.746 86.2484 79.1272 86.2484 78.4066V66.665Z" fill="white" stroke="#0C151D"/>
<path d="M61.2806 44.9982C61.2806 44.0642 62.1249 43.3573 63.0443 43.5215L105.651 51.1298C106.366 51.2576 106.887 51.8797 106.887 52.6065V116.788C106.887 117.722 106.043 118.429 105.123 118.265L62.517 110.657C61.8016 110.529 61.2806 109.907 61.2806 109.18V44.9982Z" fill="white" stroke="#0C151D"/>
<path d="M53.7903 50.0243C53.7903 49.0839 54.6458 48.3754 55.5698 48.5506L99.8408 56.9468C100.549 57.0811 101.061 57.6999 101.061 58.4206V70.1622C101.061 71.1026 100.206 71.8111 99.2818 71.6359L55.0108 63.2397C54.3028 63.1054 53.7903 62.4866 53.7903 61.7659V50.0243Z" fill="white" stroke="#0C151D"/>
<path d="M68.771 73.3459C68.771 72.3993 69.637 71.6893 70.5652 71.875L99.8555 77.7331C100.557 77.8733 101.061 78.4889 101.061 79.2039V90.9376C101.061 91.8842 100.195 92.5941 99.2671 92.4085L69.9768 86.5504C69.2757 86.4102 68.771 85.7946 68.771 85.0795V73.3459Z" fill="white" stroke="#0C151D"/>
<path d="M68.771 93.3224C68.771 92.3759 69.637 91.6659 70.5652 91.8515L99.8555 97.7096C100.557 97.8498 101.061 98.4655 101.061 99.1805V110.914C101.061 111.861 100.195 112.571 99.2671 112.385L69.9768 106.527C69.2757 106.387 68.771 105.771 68.771 105.056V93.3224Z" fill="#217BBB" stroke="#0C151D"/>
<path d="M52.4581 89.9385C52.4581 88.6949 53.581 87.7528 54.8056 87.969L64.954 89.7599C65.9097 89.9285 66.6065 90.7589 66.6065 91.7294V103.481C66.6065 104.724 65.4836 105.666 64.2589 105.45L54.1105 103.659C53.1548 103.491 52.4581 102.66 52.4581 101.69V89.9385Z" fill="white"/>
<path d="M52.9581 89.9385C52.9581 89.0058 53.8002 88.2993 54.7188 88.4614L64.8671 90.2522C65.5839 90.3787 66.1065 91.0016 66.1065 91.7294V103.481C66.1065 104.413 65.2643 105.12 64.3458 104.958L54.1974 103.167C53.4806 103.04 52.9581 102.417 52.9581 101.69V89.9385Z" fill="#69A3CC" fill-opacity="0.24" stroke="#0C151D"/>
<path d="M52.9581 69.962C52.9581 69.0293 53.8002 68.3227 54.7187 68.4848L64.8671 70.2757C65.5839 70.4022 66.1065 71.025 66.1065 71.7529V83.504C66.1065 84.4367 65.2643 85.1432 64.3458 84.9811L54.1974 83.1902C53.4806 83.0638 52.9581 82.4409 52.9581 81.7131V69.962Z" fill="white" stroke="#0C151D"/>
<path d="M28.8226 49.1622C28.8226 48.2283 29.6669 47.5214 30.5863 47.6856L73.1927 55.2939C73.9081 55.4216 74.429 56.0438 74.429 56.7705V120.952C74.429 121.886 73.5847 122.593 72.6653 122.429L30.0589 114.821C29.3435 114.693 28.8226 114.071 28.8226 113.344V49.1622Z" fill="white" stroke="#0C151D"/>
<path d="M21.3323 54.1806C21.3323 53.2401 22.1878 52.5316 23.1118 52.7069L67.3827 61.1031C68.0908 61.2374 68.6032 61.8562 68.6032 62.5768V74.3184C68.6032 75.2589 67.7477 75.9674 66.8237 75.7921L22.5528 67.3959C21.8447 67.2616 21.3323 66.6428 21.3323 65.9222V54.1806Z" fill="#217BBB" stroke="#0C151D"/>
<path d="M36.3129 77.5099C36.3129 76.5634 37.1789 75.8534 38.1071 76.039L67.3974 81.8971C68.0986 82.0373 68.6032 82.653 68.6032 83.368V95.1017C68.6032 96.0482 67.7373 96.7582 66.8091 96.5725L37.5188 90.7145C36.8176 90.5743 36.3129 89.9586 36.3129 89.2436V77.5099Z" fill="white" stroke="#0C151D"/>
<path d="M36.3129 97.4865C36.3129 96.5399 37.1789 95.83 38.1071 96.0156L67.3974 101.874C68.0986 102.014 68.6032 102.63 68.6032 103.345V115.078C68.6032 116.025 67.7373 116.735 66.8091 116.549L37.5188 110.691C36.8176 110.551 36.3129 109.935 36.3129 109.22V97.4865Z" fill="white" stroke="#0C151D"/>
<path d="M20 94.1026C20 92.859 21.1229 91.9169 22.3476 92.133L32.496 93.9239C33.4517 94.0926 34.1484 94.923 34.1484 95.8935V107.645C34.1484 108.888 33.0255 109.83 31.8008 109.614L21.6524 107.823C20.6967 107.655 20 106.824 20 105.854V94.1026Z" fill="white"/>
<path d="M20.5 94.1026C20.5 93.1699 21.3422 92.4633 22.2607 92.6254L32.4091 94.4163C33.1259 94.5428 33.6484 95.1656 33.6484 95.8935V107.645C33.6484 108.577 32.8062 109.284 31.8877 109.122L21.7393 107.331C21.0225 107.204 20.5 106.582 20.5 105.854V94.1026Z" fill="#69A3CC" fill-opacity="0.24" stroke="#0C151D"/>
<path d="M20.5 74.126C20.5 73.1933 21.3422 72.4868 22.2607 72.6489L32.4091 74.4397C33.1259 74.5662 33.6484 75.1891 33.6484 75.9169V87.668C33.6484 88.6007 32.8062 89.3073 31.8877 89.1452L21.7393 87.3543C21.0225 87.2278 20.5 86.605 20.5 85.8771V74.126Z" fill="white" stroke="#0C151D"/>
<path fillRule="evenodd" clipRule="evenodd" d="M140.677 15.1906C137.483 15.2466 134.904 17.8279 134.852 21.0234L134.85 21.0234C134.798 17.8283 132.22 15.2474 129.026 15.1906L129.026 15.1865C132.214 15.1299 134.788 12.5586 134.85 9.37182L134.852 9.37182C134.914 12.5591 137.489 15.1307 140.677 15.1866L140.677 15.1906Z" fill="#0C151D"/>
<path fillRule="evenodd" clipRule="evenodd" d="M24.5773 46C24.6199 43.497 26.6354 41.4745 29.1357 41.4208C26.6366 41.367 24.6218 39.3465 24.5773 36.8452L24.5753 36.8452C24.5266 39.3486 22.5044 41.3685 20 41.4133L20 41.4204C22.5082 41.4653 24.5328 43.4913 24.5755 46L24.5773 46Z" fill="#0C151D"/>
<path d="M31.3194 3.40735C31.3194 2.46876 32.1716 1.76073 33.0943 1.93275L127.301 19.4967C128.011 19.6291 128.526 20.2489 128.526 20.9713V36.0443C128.526 36.9828 127.674 37.6909 126.751 37.5189L32.5444 19.9549C31.8343 19.8225 31.3194 19.2028 31.3194 18.4804V3.40735Z" fill="white" stroke="#0C151D"/>
<path d="M119.003 31.1434C116.603 32.5025 113.556 31.6589 112.197 29.2592C110.838 26.8594 111.681 23.8123 114.081 22.4532" stroke="#217BBB" strokeWidth="2"/>
<path d="M119.002 31.151C121.402 29.7919 122.246 26.7448 120.887 24.3451C119.528 21.9454 116.481 21.1018 114.081 22.4608" stroke="#0C151D" strokeWidth="2"/>
<path d="M35.8129 12.1648C35.8129 11.5469 36.3678 11.0769 36.9773 11.1784L39.9709 11.6774C40.4531 11.7577 40.8065 12.1749 40.8065 12.6638V15.6297C40.8065 16.2477 40.2516 16.7177 39.6421 16.6161L36.6485 16.1172C36.1663 16.0368 35.8129 15.6196 35.8129 15.1308V12.1648Z" fill="#0C151D"/>
<path d="M44.1355 13.8289C44.1355 13.211 44.6904 12.7409 45.2999 12.8425L48.2934 13.3414C48.7756 13.4218 49.129 13.839 49.129 14.3278V17.2938C49.129 17.9117 48.5742 18.3818 47.9646 18.2802L44.9711 17.7813C44.4889 17.7009 44.1355 17.2837 44.1355 16.7949V13.8289Z" fill="#0C151D"/>
<path d="M52.4581 15.493C52.4581 14.875 53.0129 14.405 53.6225 14.5066L56.616 15.0055C57.0982 15.0859 57.4516 15.503 57.4516 15.9919V18.9578C57.4516 19.5758 56.8967 20.0458 56.2872 19.9442L53.2937 19.4453C52.8115 19.365 52.4581 18.9478 52.4581 18.4589V15.493Z" fill="#0C151D"/>
</svg>
