<svg width="160" height="124" viewBox="0 0 160 124" fill="none" xmlns="http://www.w3.org/2000/svg">
<path d="M48.9452 24.3296C48.9452 22.1789 50.8667 20.537 52.9911 20.8724L60.804 22.106C62.5051 22.3746 63.7581 23.8409 63.7581 25.5632V55.7479C63.7581 57.8986 61.8366 59.5405 59.7122 59.2051L51.8993 57.9715C50.1981 57.7029 48.9452 56.2366 48.9452 54.5143V24.3296Z" fill="white" stroke="#0C151D"/>
<path d="M48.1129 17.5633C48.1129 16.635 48.4817 15.7448 49.138 15.0884L52.6117 11.6148C54.1178 10.1087 56.6086 10.2857 57.8866 11.9896L63.0581 18.8849C63.5125 19.4908 63.7581 20.2277 63.7581 20.9849V22.9806V25.6847L48.1129 22.1645V17.5633Z" fill="white" stroke="#0C151D"/>
<path d="M48.9452 32.5392V27.7258L63.7581 30.0646V34.8781L48.9452 32.5392Z" fill="#0C151D" stroke="#0C151D"/>
<path d="M48.9452 44.1954V39.382L63.7581 41.7209V46.5343L48.9452 44.1954Z" fill="#0C151D" stroke="#0C151D"/>
<path d="M61.4291 57.5492V21.1755L63.0383 20.3879C63.3705 20.2254 63.7581 20.4672 63.7581 20.8371V56.4094L61.4291 57.5492Z" fill="#0C151D" stroke="#0C151D"/>
<path d="M46.4484 24.7515C46.4484 22.6008 48.3699 20.9588 50.4942 21.2943L58.3071 22.5279C60.0083 22.7965 61.2613 24.2628 61.2613 25.9851V56.1698C61.2613 58.3205 59.3398 59.9624 57.2154 59.627L49.4025 58.3934C47.7013 58.1248 46.4484 56.6585 46.4484 54.9362V24.7515Z" fill="white" stroke="#0C151D"/>
<path d="M46.4484 19.2274C46.4484 18.2991 46.8171 17.4089 47.4735 16.7525L50.9681 13.2579C52.4678 11.7582 54.9462 11.9264 56.2295 13.615L60.5478 19.297C61.0107 19.906 61.2613 20.6499 61.2613 21.4148V26.1402L46.4484 23.8013V19.2274Z" fill="white" stroke="#0C151D"/>
<path d="M46.4484 32.9532V28.1398L61.2613 30.4787V35.2921L46.4484 32.9532Z" fill="#0C151D" stroke="#0C151D"/>
<path d="M63.7581 34.6842V29.9125L62.2613 30.4114V35.1831L63.7581 34.6842Z" fill="#0C151D" stroke="#0C151D"/>
<path d="M63.7581 46.3404V41.5687L62.2613 42.0676V46.8394L63.7581 46.3404Z" fill="#0C151D" stroke="#0C151D"/>
<path d="M46.4484 44.6095V39.7961L61.2613 42.135V46.9484L46.4484 44.6095Z" fill="#0C151D" stroke="#0C151D"/>
<path d="M56.6719 14.2919C54.7346 15.2103 52.6956 14.6742 51.4786 14.0535C50.9365 13.777 50.9614 13.0862 51.4482 12.7211L52.1335 12.2072C52.1713 12.1788 52.2071 12.1477 52.2406 12.1143L52.9078 11.447C52.9838 11.371 53.0716 11.3078 53.1677 11.2597L54.476 10.6056C54.6148 10.5361 54.7679 10.5 54.9232 10.5H55.9355C56.2129 10.5 57.7665 11.9148 58.4323 12.5806C59.0724 13.2208 57.5841 13.6558 56.852 14.1815C56.7948 14.2225 56.7355 14.2617 56.6719 14.2919Z" fill="#0C151D"/>
<path d="M23.1451 41.1857C23.1451 40.2517 23.9894 39.5448 24.9088 39.709L67.5153 47.3173C68.2307 47.4451 68.7516 48.0672 68.7516 48.794V112.976C68.7516 113.91 67.9073 114.617 66.9879 114.452L24.3815 106.844C23.6661 106.716 23.1451 106.094 23.1451 105.368V41.1857Z" fill="white" stroke="#0C151D"/>
<path d="M16.4871 64.5087C16.4871 63.5682 17.3426 62.8597 18.2666 63.035L62.5375 71.4312C63.2456 71.5655 63.758 72.1843 63.758 72.9049V99.4974C63.758 104.827 58.9102 108.842 53.6742 107.849L16.4871 100.796V64.5087Z" fill="white" stroke="#0C151D"/>
<path d="M16.4871 46.204C16.4871 45.2635 17.3426 44.5551 18.2666 44.7303L62.5375 53.1265C63.2456 53.2608 63.758 53.8796 63.758 54.6002V66.3418C63.758 67.2823 62.9025 67.9908 61.9785 67.8156L17.7076 59.4194C16.9995 59.2851 16.4871 58.6663 16.4871 57.9456V46.204Z" fill="#217BBB" stroke="#0C151D"/>
<mask id="path-16-inside-1_57_17058" fill="white">
<path fillRule="evenodd" clipRule="evenodd" d="M11.6956 84.6678C10.4654 84.4384 9.32904 85.3825 9.32904 86.6339V96.7163C9.32904 98.6427 10.7021 100.295 12.5959 100.649L53.6991 108.312C54.2253 108.41 54.743 108.401 55.2316 108.301C53.6772 107.733 52.6064 106.246 52.6064 104.544V92.2952L11.6956 84.6678Z"/>
</mask>
<path fillRule="evenodd" clipRule="evenodd" d="M11.6956 84.6678C10.4654 84.4384 9.32904 85.3825 9.32904 86.6339V96.7163C9.32904 98.6427 10.7021 100.295 12.5959 100.649L53.6991 108.312C54.2253 108.41 54.743 108.401 55.2316 108.301C53.6772 107.733 52.6064 106.246 52.6064 104.544V92.2952L11.6956 84.6678Z" fill="white"/>
<path d="M11.6956 84.6678L11.8789 83.6847L11.6956 84.6678ZM12.5959 100.649L12.4126 101.632H12.4126L12.5959 100.649ZM53.6991 108.312L53.8824 107.329H53.8824L53.6991 108.312ZM55.2316 108.301L55.4314 109.281L58.895 108.575L55.5747 107.362L55.2316 108.301ZM52.6064 92.2952H53.6064V91.4644L52.7897 91.3122L52.6064 92.2952ZM10.329 86.6339C10.329 86.0082 10.8972 85.5362 11.5123 85.6508L11.8789 83.6847C10.0335 83.3407 8.32904 84.7567 8.32904 86.6339H10.329ZM10.329 96.7163V86.6339H8.32904V96.7163H10.329ZM12.7792 99.6655C11.3589 99.4007 10.329 98.1611 10.329 96.7163H8.32904C8.32904 99.1243 10.0454 101.19 12.4126 101.632L12.7792 99.6655ZM53.8824 107.329L12.7792 99.6655L12.4126 101.632L53.5159 109.295L53.8824 107.329ZM55.0318 107.321C54.6677 107.396 54.2801 107.403 53.8824 107.329L53.5159 109.295C54.1706 109.417 54.8183 109.406 55.4314 109.281L55.0318 107.321ZM55.5747 107.362C54.4092 106.936 53.6064 105.82 53.6064 104.544H51.6064C51.6064 106.671 52.9451 108.53 54.8885 109.24L55.5747 107.362ZM53.6064 104.544V92.2952H51.6064V104.544H53.6064ZM11.5123 85.6508L52.4232 93.2783L52.7897 91.3122L11.8789 83.6847L11.5123 85.6508Z" fill="#0C151D" mask="url(#path-16-inside-1_57_17058)"/>
<path d="M138.661 31.0703C138.661 30.168 137.871 29.4699 136.975 29.5818L74.3946 37.4044C73.644 37.4982 73.0807 38.1363 73.0807 38.8928V113.094C73.0807 113.996 73.8714 114.694 74.7667 114.582L137.347 106.76C138.098 106.666 138.661 106.028 138.661 105.271V31.0703Z" fill="white" stroke="#0C151D"/>
<path d="M144.487 36.8984C144.487 35.9961 143.696 35.2981 142.801 35.41L80.2204 43.2325C79.4698 43.3264 78.9065 43.9645 78.9065 44.721V52.3414C78.9065 53.2437 79.6973 53.9418 80.5925 53.8299L143.173 46.0073C143.924 45.9134 144.487 45.2753 144.487 44.5189V36.8984Z" fill="white" stroke="#0C151D"/>
<path d="M130.339 56.0435C130.339 55.14 129.546 54.4416 128.65 54.5554L80.2175 60.7055C79.4682 60.8007 78.9065 61.4382 78.9065 62.1936V69.8131C78.9065 70.7165 79.6992 71.4149 80.5954 71.3011L129.028 65.151C129.777 65.0559 130.339 64.4183 130.339 63.663V56.0435Z" fill="white" stroke="#0C151D"/>
<path d="M130.339 71.856C130.339 70.9525 129.546 70.2541 128.65 70.3679L80.2175 76.518C79.4682 76.6132 78.9065 77.2507 78.9065 78.0061V85.6256C78.9065 86.529 79.6992 87.2274 80.5954 87.1136L129.028 80.9635C129.777 80.8684 130.339 80.2308 130.339 79.4755V71.856Z" fill="white" stroke="#0C151D"/>
<path d="M130.339 87.6685C130.339 86.765 129.546 86.0666 128.65 86.1804L80.2175 92.3305C79.4682 92.4257 78.9065 93.0632 78.9065 93.8186V101.438C78.9065 102.342 79.6992 103.04 80.5954 102.926L129.028 96.776C129.777 96.6809 130.339 96.0433 130.339 95.288V87.6685Z" fill="white" stroke="#0C151D"/>
<path d="M144.987 69.3781C144.987 68.1685 143.922 67.2358 142.723 67.3957L134.239 68.5268C133.245 68.6593 132.503 69.5069 132.503 70.5093V78.1255C132.503 79.3351 133.569 80.2678 134.768 80.108L143.251 78.9768C144.245 78.8443 144.987 77.9967 144.987 76.9943V69.3781Z" fill="white"/>
<path d="M144.487 69.3781C144.487 68.4709 143.688 67.7714 142.789 67.8913L134.305 69.0225C133.56 69.1218 133.003 69.7575 133.003 70.5093V78.1255C133.003 79.0327 133.802 79.7323 134.701 79.6124L143.185 78.4812C143.931 78.3818 144.487 77.7461 144.487 76.9943V69.3781Z" fill="#69A3CC" fill-opacity="0.24" stroke="#0C151D"/>
<path d="M144.487 53.5656C144.487 52.6584 143.688 51.9589 142.789 52.0788L134.305 53.21C133.56 53.3093 133.003 53.945 133.003 54.6968V62.313C133.003 63.2202 133.802 63.9198 134.701 63.7999L143.185 62.6687C143.931 62.5693 144.487 61.9336 144.487 61.1818V53.5656Z" fill="white" stroke="#0C151D"/>
<path d="M144.487 85.1906C144.487 84.2834 143.688 83.5839 142.789 83.7038L134.305 84.835C133.56 84.9343 133.003 85.57 133.003 86.3218V93.938C133.003 94.8452 133.802 95.5448 134.701 95.4249L143.185 94.2937C143.931 94.1943 144.487 93.5586 144.487 92.8068V85.1906Z" fill="white" stroke="#0C151D"/>
<path fillRule="evenodd" clipRule="evenodd" d="M17.6516 40.5108C14.4596 40.5668 11.8824 43.1439 11.8262 46.3359L11.8241 46.3359C11.7679 43.1444 9.19143 40.5675 6 40.5108L6 40.5068C9.19055 40.4501 11.7665 37.8747 11.824 34.6843L11.8262 34.6843C11.8838 37.8751 14.4604 40.4508 17.6516 40.5068L17.6516 40.5108Z" fill="#0C151D"/>
<path fillRule="evenodd" clipRule="evenodd" d="M148.732 35.9453C148.694 33.4387 146.677 31.4121 144.174 31.3583C146.67 31.3046 148.683 29.2882 148.732 26.7905L148.734 26.7905C148.783 29.2882 150.796 31.3046 153.292 31.3583C150.789 31.4121 148.772 33.4387 148.734 35.9453L148.732 35.9453Z" fill="#0C151D"/>
<path fillRule="evenodd" clipRule="evenodd" d="M138.329 24.6346C140.155 24.6666 141.629 26.1422 141.658 27.9688L141.659 27.9688C141.688 26.1425 143.162 24.6671 144.987 24.6346L144.987 24.6323C143.166 24.5999 141.695 23.1312 141.659 21.3107L141.658 21.3107C141.622 23.1315 140.151 24.6003 138.329 24.6323L138.329 24.6346Z" fill="#0C151D"/>
</svg>
