<svg width="160" height="124" viewBox="0 0 160 124" fill="none" xmlns="http://www.w3.org/2000/svg">
<path fillRule="evenodd" clipRule="evenodd" d="M81.8107 55.1225L137.062 62.3924C137.298 62.4234 137.524 62.4813 137.739 62.5627C139.411 63.0264 140.671 64.5595 140.671 66.4194V65.3668C140.671 63.3594 139.183 61.6628 137.193 61.401L81.9412 54.131C79.5454 53.8158 77.4193 55.6805 77.4193 58.0968V73.6894C77.4193 72.6817 77.7942 71.7525 78.4193 71.0436V58.0968C78.4193 56.2845 80.0139 54.8861 81.8107 55.1225Z" fill="#0C151D"/>
<path fillRule="evenodd" clipRule="evenodd" d="M74.5969 54.4913L18.0033 61.9379C17.8071 61.9637 17.6187 62.0118 17.4405 62.0796C16.0484 62.4655 15 63.7414 15 65.2894V64.4133C15 62.7426 16.2383 61.3307 17.8947 61.1127L74.4883 53.6662C76.4822 53.4038 78.2516 54.9557 78.2516 56.9668V72.7359C78.2516 71.8973 77.9396 71.1239 77.4194 70.5339V56.9668C77.4194 55.4585 76.0923 54.2946 74.5969 54.4913Z" fill="#0C151D"/>
<mask id="path-3-inside-1_57_17116" fill="white">
<path fillRule="evenodd" clipRule="evenodd" d="M83.8635 40.7651C82.6586 40.593 81.5806 41.5279 81.5806 42.745V45.0561L73.8544 44.0395C72.6566 43.8819 71.5935 44.8142 71.5935 46.0224V83.5113C71.5935 85.5187 73.0814 87.2152 75.0717 87.4771L134.845 95.342V53.8187C134.845 52.815 134.101 51.9667 133.106 51.8358L99.0581 47.3558V44.6704C99.0581 43.675 98.3262 42.8312 97.3409 42.6905L83.8635 40.7651Z"/>
</mask>
<path fillRule="evenodd" clipRule="evenodd" d="M83.8635 40.7651C82.6586 40.593 81.5806 41.5279 81.5806 42.745V45.0561L73.8544 44.0395C72.6566 43.8819 71.5935 44.8142 71.5935 46.0224V83.5113C71.5935 85.5187 73.0814 87.2152 75.0717 87.4771L134.845 95.342V53.8187C134.845 52.815 134.101 51.9667 133.106 51.8358L99.0581 47.3558V44.6704C99.0581 43.675 98.3262 42.8312 97.3409 42.6905L83.8635 40.7651Z" fill="#FCFCFC"/>
<path d="M83.8635 40.7651L84.0049 39.7752L83.8635 40.7651ZM81.5806 45.0561L81.4502 46.0476L82.5806 46.1963V45.0561H81.5806ZM73.8544 44.0395L73.724 45.031L73.8544 44.0395ZM75.0717 87.4771L74.9413 88.4685L75.0717 87.4771ZM134.845 95.342L134.715 96.3335L135.845 96.4822V95.342H134.845ZM133.106 51.8358L133.237 50.8443L133.106 51.8358ZM99.0581 47.3558H98.0581V48.2328L98.9276 48.3472L99.0581 47.3558ZM97.3409 42.6905L97.1995 43.6804H97.1995L97.3409 42.6905ZM82.5806 42.745C82.5806 42.1365 83.1196 41.669 83.7221 41.7551L84.0049 39.7752C82.1976 39.517 80.5806 40.9194 80.5806 42.745H82.5806ZM82.5806 45.0561V42.745H80.5806V45.0561H82.5806ZM73.724 45.031L81.4502 46.0476L81.7111 44.0646L73.9849 43.048L73.724 45.031ZM72.5935 46.0224C72.5935 45.4183 73.1251 44.9521 73.724 45.031L73.9849 43.048C72.1881 42.8116 70.5935 44.2101 70.5935 46.0224H72.5935ZM72.5935 83.5113V46.0224H70.5935V83.5113H72.5935ZM75.2022 86.4856C73.7095 86.2892 72.5935 85.0168 72.5935 83.5113H70.5935C70.5935 86.0206 72.4534 88.1412 74.9413 88.4685L75.2022 86.4856ZM134.976 94.3506L75.2022 86.4856L74.9413 88.4685L134.715 96.3335L134.976 94.3506ZM133.845 53.8187V95.342H135.845V53.8187H133.845ZM132.976 52.8272C133.473 52.8927 133.845 53.3168 133.845 53.8187H135.845C135.845 52.3131 134.729 51.0407 133.237 50.8443L132.976 52.8272ZM98.9276 48.3472L132.976 52.8272L133.237 50.8443L99.1885 46.3643L98.9276 48.3472ZM98.0581 44.6704V47.3558H100.058V44.6704H98.0581ZM97.1995 43.6804C97.6921 43.7508 98.0581 44.1727 98.0581 44.6704H100.058C100.058 43.1774 98.9603 41.9116 97.4823 41.7005L97.1995 43.6804ZM83.7221 41.7551L97.1995 43.6804L97.4823 41.7005L84.0049 39.7752L83.7221 41.7551Z" fill="#0C151D" mask="url(#path-3-inside-1_57_17116)"/>
<mask id="path-5-inside-2_57_17116" fill="white">
<path fillRule="evenodd" clipRule="evenodd" d="M73.8764 42.4297C72.6715 42.2575 71.5935 43.1925 71.5935 44.4096V46.7207L63.8674 45.704C62.6695 45.5464 61.6064 46.4788 61.6064 47.687V85.1758C61.6064 87.1833 63.0944 88.8798 65.0846 89.1416L124.858 97.0066V55.4832C124.858 54.4795 124.114 53.6313 123.119 53.5003L89.071 49.0203V46.3349C89.071 45.3396 88.3391 44.4958 87.3538 44.355L73.8764 42.4297Z"/>
</mask>
<path fillRule="evenodd" clipRule="evenodd" d="M73.8764 42.4297C72.6715 42.2575 71.5935 43.1925 71.5935 44.4096V46.7207L63.8674 45.704C62.6695 45.5464 61.6064 46.4788 61.6064 47.687V85.1758C61.6064 87.1833 63.0944 88.8798 65.0846 89.1416L124.858 97.0066V55.4832C124.858 54.4795 124.114 53.6313 123.119 53.5003L89.071 49.0203V46.3349C89.071 45.3396 88.3391 44.4958 87.3538 44.355L73.8764 42.4297Z" fill="#FCFCFC"/>
<path d="M73.8764 42.4297L74.0178 41.4397L73.8764 42.4297ZM71.5935 46.7207L71.4631 47.7121L72.5935 47.8608V46.7207H71.5935ZM63.8674 45.704L63.7369 46.6955L63.8674 45.704ZM65.0846 89.1416L64.9542 90.1331L65.0846 89.1416ZM124.858 97.0066L124.728 97.998L125.858 98.1468V97.0066H124.858ZM123.119 53.5003L123.249 52.5089L123.119 53.5003ZM89.071 49.0203H88.071V49.8974L88.9405 50.0118L89.071 49.0203ZM87.3538 44.355L87.2124 45.345H87.2124L87.3538 44.355ZM72.5935 44.4096C72.5935 43.801 73.1325 43.3335 73.735 43.4196L74.0178 41.4397C72.2105 41.1815 70.5935 42.5839 70.5935 44.4096H72.5935ZM72.5935 46.7207V44.4096H70.5935V46.7207H72.5935ZM63.7369 46.6955L71.4631 47.7121L71.724 45.7292L63.9978 44.7126L63.7369 46.6955ZM62.6064 47.687C62.6064 47.0829 63.138 46.6167 63.7369 46.6955L63.9978 44.7126C62.201 44.4762 60.6064 45.8747 60.6064 47.687H62.6064ZM62.6064 85.1758V47.687H60.6064V85.1758H62.6064ZM65.2151 88.1502C63.7224 87.9538 62.6064 86.6814 62.6064 85.1758H60.6064C60.6064 87.6851 62.4663 89.8057 64.9542 90.1331L65.2151 88.1502ZM124.989 96.0151L65.2151 88.1502L64.9542 90.1331L124.728 97.998L124.989 96.0151ZM123.858 55.4832V97.0066H125.858V55.4832H123.858ZM122.989 54.4918C123.486 54.5572 123.858 54.9814 123.858 55.4832H125.858C125.858 53.9776 124.742 52.7053 123.249 52.5089L122.989 54.4918ZM88.9405 50.0118L122.989 54.4918L123.249 52.5089L89.2014 48.0289L88.9405 50.0118ZM88.071 46.3349V49.0203H90.071V46.3349H88.071ZM87.2124 45.345C87.705 45.4153 88.071 45.8373 88.071 46.3349H90.071C90.071 44.842 88.9732 43.5762 87.4952 43.3651L87.2124 45.345ZM73.735 43.4196L87.2124 45.345L87.4952 43.3651L74.0178 41.4397L73.735 43.4196Z" fill="#0C151D" mask="url(#path-5-inside-2_57_17116)"/>
<mask id="path-7-inside-3_57_17116" fill="white">
<path fillRule="evenodd" clipRule="evenodd" d="M63.057 44.0947C61.8522 43.9226 60.7742 44.8575 60.7742 46.0746V48.3857L53.048 47.3691C51.8501 47.2115 50.7871 48.1438 50.7871 49.352V86.8409C50.7871 88.8483 52.275 90.5448 54.2653 90.8067L114.039 98.6716V57.1483C114.039 56.1445 113.295 55.2963 112.3 55.1654L78.2516 50.6854V47.9999C78.2516 47.0046 77.5197 46.1608 76.5344 46.02L63.057 44.0947Z"/>
</mask>
<path fillRule="evenodd" clipRule="evenodd" d="M63.057 44.0947C61.8522 43.9226 60.7742 44.8575 60.7742 46.0746V48.3857L53.048 47.3691C51.8501 47.2115 50.7871 48.1438 50.7871 49.352V86.8409C50.7871 88.8483 52.275 90.5448 54.2653 90.8067L114.039 98.6716V57.1483C114.039 56.1445 113.295 55.2963 112.3 55.1654L78.2516 50.6854V47.9999C78.2516 47.0046 77.5197 46.1608 76.5344 46.02L63.057 44.0947Z" fill="#FCFCFC"/>
<path d="M63.057 44.0947L63.1984 43.1047L63.057 44.0947ZM60.7742 48.3857L60.6437 49.3771L61.7742 49.5259V48.3857H60.7742ZM53.048 47.3691L52.9175 48.3605L53.048 47.3691ZM54.2653 90.8067L54.1348 91.7981L54.2653 90.8067ZM114.039 98.6716L113.908 99.6631L115.039 99.8118V98.6716H114.039ZM112.3 55.1654L112.43 54.1739L112.3 55.1654ZM78.2516 50.6854H77.2516V51.5624L78.1211 51.6768L78.2516 50.6854ZM76.5344 46.02L76.393 47.01H76.393L76.5344 46.02ZM61.7742 46.0746C61.7742 45.466 62.3132 44.9986 62.9156 45.0846L63.1984 43.1047C61.3911 42.8466 59.7742 44.2489 59.7742 46.0746H61.7742ZM61.7742 48.3857V46.0746H59.7742V48.3857H61.7742ZM52.9175 48.3605L60.6437 49.3771L60.9046 47.3942L53.1784 46.3776L52.9175 48.3605ZM51.7871 49.352C51.7871 48.7479 52.3186 48.2817 52.9175 48.3605L53.1784 46.3776C51.3816 46.1412 49.7871 47.5397 49.7871 49.352H51.7871ZM51.7871 86.8409V49.352H49.7871V86.8409H51.7871ZM54.3957 89.8152C52.903 89.6188 51.7871 88.3464 51.7871 86.8409H49.7871C49.7871 89.3501 51.647 91.4708 54.1348 91.7981L54.3957 89.8152ZM114.169 97.6801L54.3957 89.8152L54.1348 91.7981L113.908 99.6631L114.169 97.6801ZM113.039 57.1483V98.6716H115.039V57.1483H113.039ZM112.169 56.1568C112.667 56.2223 113.039 56.6464 113.039 57.1483H115.039C115.039 55.6427 113.923 54.3703 112.43 54.1739L112.169 56.1568ZM78.1211 51.6768L112.169 56.1568L112.43 54.1739L78.382 49.6939L78.1211 51.6768ZM77.2516 47.9999V50.6854H79.2516V47.9999H77.2516ZM76.393 47.01C76.8857 47.0804 77.2516 47.5023 77.2516 47.9999H79.2516C79.2516 46.507 78.1538 45.2412 76.6759 45.0301L76.393 47.01ZM62.9156 45.0846L76.393 47.01L76.6759 45.0301L63.1984 43.1047L62.9156 45.0846Z" fill="#0C151D" mask="url(#path-7-inside-3_57_17116)"/>
<mask id="path-9-inside-4_57_17116" fill="white">
<path fillRule="evenodd" clipRule="evenodd" d="M53.07 21.6216C51.8651 21.4494 50.7871 22.3844 50.7871 23.6015V25.659L43.0609 24.6424C41.8631 24.4847 40.8 25.4171 40.8 26.6253V64.1141C40.8 66.1216 42.2879 67.8181 44.2782 68.08L104.052 75.9449V34.4215C104.052 33.4178 103.308 32.5696 102.313 32.4386L68.2645 27.9586V25.5268C68.2645 24.5315 67.5327 23.6877 66.5474 23.5469L53.07 21.6216Z"/>
</mask>
<path fillRule="evenodd" clipRule="evenodd" d="M53.07 21.6216C51.8651 21.4494 50.7871 22.3844 50.7871 23.6015V25.659L43.0609 24.6424C41.8631 24.4847 40.8 25.4171 40.8 26.6253V64.1141C40.8 66.1216 42.2879 67.8181 44.2782 68.08L104.052 75.9449V34.4215C104.052 33.4178 103.308 32.5696 102.313 32.4386L68.2645 27.9586V25.5268C68.2645 24.5315 67.5327 23.6877 66.5474 23.5469L53.07 21.6216Z" fill="#217BBB"/>
<path d="M53.07 21.6216L53.2114 20.6316L53.07 21.6216ZM50.7871 25.659L50.6567 26.6504L51.7871 26.7992V25.659H50.7871ZM43.0609 24.6424L42.9305 25.6338L43.0609 24.6424ZM44.2782 68.08L44.1478 69.0714L44.2782 68.08ZM104.052 75.9449L103.921 76.9363L105.052 77.0851V75.9449H104.052ZM102.313 32.4386L102.443 31.4472L102.313 32.4386ZM68.2645 27.9586H67.2645V28.8357L68.1341 28.9501L68.2645 27.9586ZM66.5474 23.5469L66.406 24.5368H66.406L66.5474 23.5469ZM51.7871 23.6015C51.7871 22.9929 52.3261 22.5254 52.9285 22.6115L53.2114 20.6316C51.4041 20.3734 49.7871 21.7758 49.7871 23.6015H51.7871ZM51.7871 25.659V23.6015H49.7871V25.659H51.7871ZM42.9305 25.6338L50.6567 26.6504L50.9176 24.6675L43.1914 23.6509L42.9305 25.6338ZM41.8 26.6253C41.8 26.0212 42.3315 25.555 42.9305 25.6338L43.1914 23.6509C41.3946 23.4145 39.8 24.813 39.8 26.6253H41.8ZM41.8 64.1141V26.6253H39.8V64.1141H41.8ZM44.4087 67.0885C42.9159 66.8921 41.8 65.6197 41.8 64.1141H39.8C39.8 66.6234 41.6599 68.7441 44.1478 69.0714L44.4087 67.0885ZM104.182 74.9534L44.4087 67.0885L44.1478 69.0714L103.921 76.9363L104.182 74.9534ZM103.052 34.4215V75.9449H105.052V34.4215H103.052ZM102.182 33.4301C102.68 33.4956 103.052 33.9197 103.052 34.4215H105.052C105.052 32.916 103.936 31.6436 102.443 31.4472L102.182 33.4301ZM68.1341 28.9501L102.182 33.4301L102.443 31.4472L68.395 26.9672L68.1341 28.9501ZM67.2645 25.5268V27.9586H69.2645V25.5268H67.2645ZM66.406 24.5368C66.8986 24.6072 67.2645 25.0291 67.2645 25.5268H69.2645C69.2645 24.0338 68.1667 22.7681 66.6888 22.5569L66.406 24.5368ZM52.9285 22.6115L66.406 24.5368L66.6888 22.5569L53.2114 20.6316L52.9285 22.6115Z" fill="#0C151D" mask="url(#path-9-inside-4_57_17116)"/>
<mask id="path-11-inside-5_57_17116" fill="white">
<path fillRule="evenodd" clipRule="evenodd" d="M41.4183 48.2588C40.2135 48.0866 39.1355 49.0216 39.1355 50.2387V52.5498L31.4093 51.5331C30.2114 51.3755 29.1484 52.3079 29.1484 53.5161V91.0049C29.1484 93.0124 30.6363 94.7089 32.6266 94.9707L92.4 102.836V61.3123C92.4 60.3086 91.656 59.4604 90.6609 59.3294L56.6129 54.8494V52.164C56.6129 51.1687 55.881 50.3249 54.8958 50.1841L41.4183 48.2588Z"/>
</mask>
<path fillRule="evenodd" clipRule="evenodd" d="M41.4183 48.2588C40.2135 48.0866 39.1355 49.0216 39.1355 50.2387V52.5498L31.4093 51.5331C30.2114 51.3755 29.1484 52.3079 29.1484 53.5161V91.0049C29.1484 93.0124 30.6363 94.7089 32.6266 94.9707L92.4 102.836V61.3123C92.4 60.3086 91.656 59.4604 90.6609 59.3294L56.6129 54.8494V52.164C56.6129 51.1687 55.881 50.3249 54.8958 50.1841L41.4183 48.2588Z" fill="#FCFCFC"/>
<path d="M41.4183 48.2588L41.5598 47.2688L41.4183 48.2588ZM39.1355 52.5498L39.005 53.5412L40.1355 53.69V52.5498H39.1355ZM31.4093 51.5331L31.2788 52.5246L31.4093 51.5331ZM32.6266 94.9707L32.4961 95.9622L32.6266 94.9707ZM92.4 102.836L92.2695 103.827L93.4 103.976V102.836H92.4ZM90.6609 59.3294L90.7914 58.338L90.6609 59.3294ZM56.6129 54.8494H55.6129V55.7265L56.4825 55.8409L56.6129 54.8494ZM54.8958 50.1841L54.7543 51.1741H54.7543L54.8958 50.1841ZM40.1355 50.2387C40.1355 49.6301 40.6745 49.1626 41.2769 49.2487L41.5598 47.2688C39.7525 47.0106 38.1355 48.413 38.1355 50.2387H40.1355ZM40.1355 52.5498V50.2387H38.1355V52.5498H40.1355ZM31.2788 52.5246L39.005 53.5412L39.2659 51.5583L31.5398 50.5417L31.2788 52.5246ZM30.1484 53.5161C30.1484 52.912 30.6799 52.4458 31.2788 52.5246L31.5398 50.5417C29.743 50.3053 28.1484 51.7038 28.1484 53.5161H30.1484ZM30.1484 91.0049V53.5161H28.1484V91.0049H30.1484ZM32.757 93.9793C31.2643 93.7829 30.1484 92.5105 30.1484 91.0049H28.1484C28.1484 93.5142 30.0083 95.6348 32.4961 95.9622L32.757 93.9793ZM92.5305 101.844L32.757 93.9793L32.4961 95.9622L92.2695 103.827L92.5305 101.844ZM91.4 61.3123V102.836H93.4V61.3123H91.4ZM90.5305 60.3209C91.028 60.3863 91.4 60.8105 91.4 61.3123H93.4C93.4 59.8067 92.2841 58.5344 90.7914 58.338L90.5305 60.3209ZM56.4825 55.8409L90.5305 60.3209L90.7914 58.338L56.7434 53.858L56.4825 55.8409ZM55.6129 52.164V54.8494H57.6129V52.164H55.6129ZM54.7543 51.1741C55.247 51.2444 55.6129 51.6664 55.6129 52.164H57.6129C57.6129 50.6711 56.5151 49.4053 55.0372 49.1942L54.7543 51.1741ZM41.2769 49.2487L54.7543 51.1741L55.0372 49.1942L41.5598 47.2688L41.2769 49.2487Z" fill="#0C151D" mask="url(#path-11-inside-5_57_17116)"/>
<mask id="path-13-inside-6_57_17116" fill="white">
<path fillRule="evenodd" clipRule="evenodd" d="M31.4312 51.0039C30.2263 50.8318 29.1484 51.7667 29.1484 52.9838V55.0413L21.4222 54.0247C20.2243 53.8671 19.1613 54.7994 19.1613 56.0076V93.4965C19.1613 95.5039 20.6492 97.2004 22.6395 97.4623L82.4129 105.327V63.8039C82.4129 62.8001 81.6689 61.9519 80.6738 61.821L46.6258 57.341V54.9091C46.6258 53.9138 45.8939 53.07 44.9086 52.9292L31.4312 51.0039Z"/>
</mask>
<path fillRule="evenodd" clipRule="evenodd" d="M31.4312 51.0039C30.2263 50.8318 29.1484 51.7667 29.1484 52.9838V55.0413L21.4222 54.0247C20.2243 53.8671 19.1613 54.7994 19.1613 56.0076V93.4965C19.1613 95.5039 20.6492 97.2004 22.6395 97.4623L82.4129 105.327V63.8039C82.4129 62.8001 81.6689 61.9519 80.6738 61.821L46.6258 57.341V54.9091C46.6258 53.9138 45.8939 53.07 44.9086 52.9292L31.4312 51.0039Z" fill="#FCFCFC"/>
<path d="M31.4312 51.0039L31.5726 50.0139L31.4312 51.0039ZM29.1484 55.0413L29.0179 56.0327L30.1484 56.1815V55.0413H29.1484ZM21.4222 54.0247L21.5526 53.0332L21.4222 54.0247ZM22.6395 97.4623L22.509 98.4537L22.6395 97.4623ZM82.4129 105.327L82.2824 106.319L83.4129 106.467V105.327H82.4129ZM80.6738 61.821L80.8042 60.8295L80.6738 61.821ZM46.6258 57.341H45.6258V58.218L46.4953 58.3324L46.6258 57.341ZM44.9086 52.9292L44.7672 53.9192H44.7672L44.9086 52.9292ZM30.1484 52.9838C30.1484 52.3752 30.6874 51.9078 31.2898 51.9938L31.5726 50.0139C29.7653 49.7557 28.1484 51.1581 28.1484 52.9838H30.1484ZM30.1484 55.0413V52.9838H28.1484V55.0413H30.1484ZM21.2917 55.0161L29.0179 56.0327L29.2788 54.0498L21.5526 53.0332L21.2917 55.0161ZM20.1613 56.0076C20.1613 55.4035 20.6928 54.9373 21.2917 55.0161L21.5526 53.0332C19.7558 52.7968 18.1613 54.1953 18.1613 56.0076H20.1613ZM20.1613 93.4965V56.0076H18.1613V93.4965H20.1613ZM22.7699 96.4708C21.2772 96.2744 20.1613 95.002 20.1613 93.4965H18.1613C18.1613 96.0057 20.0212 98.1264 22.509 98.4537L22.7699 96.4708ZM82.5433 104.336L22.7699 96.4708L22.509 98.4537L82.2824 106.319L82.5433 104.336ZM81.4129 63.8039V105.327H83.4129V63.8039H81.4129ZM80.5433 62.8124C81.0409 62.8779 81.4129 63.302 81.4129 63.8039H83.4129C83.4129 62.2983 82.297 61.0259 80.8042 60.8295L80.5433 62.8124ZM46.4953 58.3324L80.5433 62.8124L80.8042 60.8295L46.7562 56.3495L46.4953 58.3324ZM45.6258 54.9091V57.341H47.6258V54.9091H45.6258ZM44.7672 53.9192C45.2599 53.9895 45.6258 54.4115 45.6258 54.9091H47.6258C47.6258 53.4162 46.528 52.1504 45.05 51.9393L44.7672 53.9192ZM31.2898 51.9938L44.7672 53.9192L45.0501 51.9393L31.5726 50.0139L31.2898 51.9938Z" fill="#0C151D" mask="url(#path-13-inside-6_57_17116)"/>
<path d="M15 65.289C15 63.278 16.7694 61.7261 18.7633 61.9885L75.3569 69.435C77.0133 69.6529 78.2516 71.0649 78.2516 72.7356V112.984H77.8355H77.4194L17.8947 105.152C16.2383 104.934 15 103.522 15 101.851V65.289Z" fill="white"/>
<path d="M15 65.289C15 63.278 16.7694 61.7261 18.7633 61.9885L75.3569 69.435C77.0133 69.6529 78.2516 71.0649 78.2516 72.7356V112.984H77.8355H77.4194L17.8947 105.152C16.2383 104.934 15 103.522 15 101.851V65.289Z" fill="#0C151D"/>
<path fillRule="evenodd" clipRule="evenodd" d="M75.2483 70.2601L18.6547 62.8136C17.1593 62.6168 15.8323 63.7808 15.8323 65.289V101.851C15.8323 103.104 16.761 104.163 18.0033 104.326L77.4194 112.144V72.7356C77.4194 71.4825 76.4906 70.4236 75.2483 70.2601ZM78.2516 72.7356C78.2516 71.0649 77.0133 69.6529 75.3569 69.435L18.7633 61.9885C16.7694 61.7261 15 63.278 15 65.289V101.851C15 103.522 16.2383 104.934 17.8947 105.152L77.4194 112.985H77.8355H78.2516V72.7356Z" fill="#0C151D"/>
<path d="M140.671 66.0588C140.671 63.6425 138.545 61.7778 136.149 62.093L80.8975 69.363C78.9073 69.6249 77.4193 71.3214 77.4193 73.3288V111.85C77.9325 112.552 78.7879 112.918 79.6501 112.805L137.193 105.233C139.183 104.971 140.671 103.275 140.671 101.267V66.0588Z" fill="white"/>
<path fillRule="evenodd" clipRule="evenodd" d="M80.4227 70.2601L137.016 62.8136C138.512 62.6168 139.839 63.7808 139.839 65.289V101.851C139.839 103.104 138.91 104.163 137.668 104.326L78.2516 112.144V72.7356C78.2516 71.4825 79.1803 70.4236 80.4227 70.2601ZM77.4193 72.7356C77.4193 71.0649 78.6577 69.6529 80.3141 69.435L136.908 61.9885C138.902 61.7261 140.671 63.278 140.671 65.289V101.851C140.671 103.522 139.433 104.934 137.776 105.152L78.2516 112.984L77.4193 112.144V72.7356Z" fill="#0C151D"/>
<path d="M33.3097 75.0209C33.3097 74.0274 34.1804 73.2587 35.1662 73.382L51.8371 75.4658C52.6636 75.5691 53.2839 76.2718 53.2839 77.1047C53.2839 78.0982 52.4131 78.8669 51.4273 78.7436L34.7565 76.6598C33.9299 76.5565 33.3097 75.8538 33.3097 75.0209Z" fill="white"/>
<path fillRule="evenodd" clipRule="evenodd" d="M39.1355 21.1798C36.6263 21.2237 34.6006 23.2503 34.5581 25.7598L34.5566 25.7598C34.5146 23.2503 32.4894 21.2236 29.9807 21.1789L29.9807 21.176C32.4862 21.1314 34.5093 19.1099 34.5564 16.6049L34.5582 16.6049C34.6049 19.1108 36.629 21.1331 39.1355 21.1769L39.1355 21.1798Z" fill="#0C151D"/>
<path fillRule="evenodd" clipRule="evenodd" d="M39.1354 14.3209C40.962 14.3533 42.436 15.8304 42.4636 17.6582L42.4644 17.6582C42.4899 15.8284 43.9653 14.349 45.7935 14.317L45.7935 14.3144C43.9742 14.2825 42.5044 12.8175 42.4649 11.0001L42.4631 11.0001C42.4256 12.8189 40.9555 14.2858 39.1354 14.3182L39.1354 14.3209Z" fill="#0C151D"/>
<path fillRule="evenodd" clipRule="evenodd" d="M106.548 37.7717C109.054 37.7271 111.077 35.7059 111.125 33.2011L111.127 33.2011C111.175 35.7059 113.199 37.7269 115.705 37.7708L115.705 37.7721C113.194 37.816 111.167 39.8454 111.127 42.3574L111.125 42.3574C111.084 39.8463 109.058 37.8178 106.548 37.7731L106.548 37.7717Z" fill="#0C151D"/>
<path d="M85.4097 80.3381C85.4097 79.5858 85.9669 78.9499 86.7127 78.8511L142.635 71.4419C143.534 71.3228 144.332 72.0223 144.332 72.9289V82.0807C144.332 82.8329 143.775 83.4689 143.029 83.5677L87.1067 90.9768C86.2079 91.0959 85.4097 90.3965 85.4097 89.4898V80.3381Z" fill="white" stroke="#0C151D"/>
<path d="M85.4097 96.0653C85.4097 95.0238 86.1816 94.1437 87.2142 94.0078L97.8766 92.6049C99.1195 92.4413 100.223 93.4087 100.223 94.6624C100.223 95.7039 99.4506 96.5841 98.418 96.7199L87.7557 98.1229C86.5127 98.2864 85.4097 97.319 85.4097 96.0653Z" fill="white" stroke="#0C151D"/>
<path d="M102.887 93.9689C102.887 92.928 103.658 92.0482 104.69 91.9118L112.024 90.9424C113.267 90.778 114.371 91.7455 114.371 92.9995C114.371 94.0405 113.6 94.9203 112.568 95.0567L105.234 96.0261C103.991 96.1904 102.887 95.223 102.887 93.9689Z" fill="#69A3CC" fill-opacity="0.24" stroke="#0C151D"/>
<path d="M138.28 80.1116C136.96 80.8596 135.283 80.3953 134.535 79.0747C133.787 77.7541 134.251 76.0773 135.572 75.3294" stroke="#0C151D"/>
<path d="M138.28 80.115C139.6 79.3671 140.065 77.6902 139.317 76.3696C138.569 75.0491 136.892 74.5848 135.571 75.3327" stroke="#0C151D"/>
<path d="M139.006 79.8042L140.671 81.4687" stroke="#0C151D"/>
</svg>
