
<svg width="212" height="132" viewBox="0 0 212 132" fill="none" xmlns="http://www.w3.org/2000/svg">
<rect width="211.2" height="132" transform="translate(0.398438)" fill="white"/>
<circle cx="106.398" cy="65.9997" r="52.8" fill="#F97F6F" fill-opacity="0.08"/>
<circle cx="106.397" cy="65.9999" r="39.6" fill="#F97F6F" fill-opacity="0.08"/>
<path d="M104.851 37.5827C105.331 36.7524 106.529 36.7524 107.009 37.5827L136.055 87.8917C136.534 88.7221 135.935 89.76 134.976 89.76H76.8841C75.9253 89.76 75.3261 88.7221 75.8054 87.8917L104.851 37.5827Z" fill="#F97F6F"/>
<path d="M101.93 58.7605C101.867 57.9915 102.474 57.3325 103.245 57.3325H108.615C109.387 57.3325 109.994 57.9915 109.931 58.7605L108.5 76.1945C108.444 76.8794 107.872 77.4066 107.185 77.4066H104.676C103.989 77.4066 103.416 76.8794 103.36 76.1945L101.93 58.7605Z" fill="#BA2D1B"/>
<rect x="103.355" y="78.4365" width="5.14719" height="4.63247" rx="2.31623" fill="#BA2D1B"/>
</svg>
