
<svg width="174" height="120" viewBox="0 0 174 120" fill="none" xmlns="http://www.w3.org/2000/svg">
<path fill-rule="evenodd" clip-rule="evenodd" d="M120.218 39.8647C119.633 39.9446 119.044 40.0445 118.453 40.1653L118.285 39.3423C118.894 39.2178 119.501 39.1148 120.104 39.0325L120.218 39.8647ZM122.89 39.6364C122.595 39.6463 122.297 39.6615 121.997 39.682L121.94 38.844C122.25 38.8228 122.557 38.8071 122.862 38.7969C123.166 38.7867 123.473 38.7864 123.784 38.795L123.761 39.6347C123.466 39.6265 123.175 39.6269 122.89 39.6364ZM116.711 40.5809C116.139 40.7373 115.568 40.9135 115 41.1102L114.725 40.3165C115.311 40.1136 115.9 39.9318 116.489 39.7706L116.711 40.5809ZM127.256 40.0393C126.66 39.9296 126.077 39.838 125.509 39.7694L125.609 38.9354C126.198 39.0065 126.798 39.1009 127.408 39.2132L127.256 40.0393ZM113.33 41.7527C112.784 41.9846 112.243 42.2364 111.709 42.5086L111.328 41.7604C111.879 41.479 112.438 41.2189 113.002 40.9795L113.33 41.7527ZM130.734 40.8139C130.147 40.6672 129.569 40.5277 129 40.3994L129.185 39.58C129.762 39.7102 130.346 39.8512 130.937 39.999L130.734 40.8139ZM110.148 43.3785C109.641 43.6861 109.143 44.0139 108.657 44.3623L108.168 43.6795C108.672 43.3183 109.187 42.9788 109.712 42.6603L110.148 43.3785ZM160.411 37.2064C160.201 37.4379 159.99 37.662 159.778 37.8788L159.178 37.2909C159.382 37.082 159.586 36.8658 159.789 36.6422L160.411 37.2064ZM133.132 41.4319C132.91 41.3739 132.689 41.3162 132.47 41.259L132.682 40.4461C132.902 40.5037 133.124 40.5616 133.346 40.6196C133.701 40.7124 134.057 40.8057 134.417 40.8988L134.206 41.7119C133.846 41.6186 133.488 41.5249 133.132 41.4319ZM158.447 39.1297C157.974 39.5384 157.495 39.9143 157.011 40.2594L156.523 39.5757C156.986 39.2458 157.444 38.8859 157.898 38.4938L158.447 39.1297ZM107.249 45.4579C106.798 45.8394 106.359 46.2411 105.935 46.6635L105.342 46.0686C105.783 45.6296 106.238 45.2123 106.707 44.8162L107.249 45.4579ZM137.705 42.572C137.116 42.4392 136.531 42.2993 135.951 42.1556L136.153 41.3402C136.729 41.4828 137.308 41.6213 137.89 41.7526L137.705 42.572ZM141.258 43.2565C140.661 43.1649 140.066 43.06 139.473 42.9449L139.634 42.1203C140.216 42.2336 140.8 42.3365 141.385 42.4262L141.258 43.2565ZM155.463 41.2522C154.921 41.5623 154.374 41.8375 153.823 42.0804L153.484 41.3118C154.008 41.0806 154.529 40.8186 155.046 40.523L155.463 41.2522ZM144.874 43.6195C144.268 43.5948 143.662 43.5499 143.059 43.4881L143.144 42.6524C143.732 42.7126 144.321 42.7563 144.908 42.7802L144.874 43.6195ZM104.727 47.9742C104.347 48.4233 103.983 48.8922 103.636 49.3815L102.951 48.8958C103.311 48.3867 103.69 47.8987 104.086 47.4316L104.727 47.9742ZM152.107 42.7311C151.518 42.92 150.926 43.0759 150.331 43.2021L150.157 42.3804C150.725 42.2599 151.29 42.1112 151.851 41.9312L152.107 42.7311ZM148.522 43.4967C147.915 43.5671 147.307 43.6102 146.698 43.6295L146.672 42.7899C147.259 42.7713 147.843 42.7298 148.426 42.6623L148.522 43.4967ZM102.668 50.8798C102.372 51.3847 102.093 51.9085 101.834 52.4517L101.076 52.0895C101.346 51.5248 101.636 50.9801 101.944 50.4548L102.668 50.8798ZM101.131 54.094C100.924 54.6392 100.735 55.2018 100.565 55.7823L99.7584 55.5464C99.9345 54.9449 100.131 54.3613 100.346 53.7954L101.131 54.094ZM100.127 57.5159C100.006 58.0875 99.9015 58.6749 99.8163 59.2782L98.9846 59.1608C99.0725 58.5383 99.1799 57.9317 99.306 57.3407L100.127 57.5159ZM99.6245 61.0553C99.602 61.352 99.5839 61.6522 99.5703 61.956C99.5582 62.2254 99.5516 62.497 99.5503 62.7706L98.7103 62.7666C98.7116 62.4821 98.7185 62.1993 98.7311 61.9183C98.7452 61.606 98.7638 61.2972 98.7869 60.9919L99.6245 61.0553ZM99.6032 64.404C99.6397 64.9414 99.6945 65.485 99.7665 66.0339L98.9336 66.1432C98.8594 65.5779 98.8028 65.0167 98.7652 64.4608L99.6032 64.404ZM100.025 67.6551C100.125 68.188 100.239 68.7247 100.367 69.2644L99.5501 69.4582C99.4192 68.9062 99.302 68.3564 99.1997 67.8096L100.025 67.6551ZM100.782 70.8579C100.93 71.3824 101.089 71.9087 101.26 72.4361L100.46 72.6943C100.287 72.1574 100.124 71.6211 99.9733 71.086L100.782 70.8579ZM101.794 73.9982C101.98 74.5135 102.175 75.0289 102.378 75.5438L101.597 75.8525C101.391 75.33 101.193 74.8067 101.004 74.2831L101.794 73.9982ZM103.007 77.0727C103.223 77.5785 103.446 78.083 103.676 78.5856L102.912 78.9349C102.68 78.4262 102.453 77.9152 102.235 77.4027L103.007 77.0727ZM104.382 80.0826C104.623 80.5794 104.87 81.0735 105.122 81.5642L104.374 81.9473C104.12 81.4514 103.87 80.952 103.626 80.4496L104.382 80.0826ZM105.892 83.0304C106.023 83.274 106.155 83.5165 106.288 83.7579L105.552 84.1631C105.418 83.9194 105.285 83.6745 105.152 83.4285L105.892 83.0304Z" fill="#D0E3EF"/>
<path d="M162.013 37.0348C162.129 37.9954 161.445 38.8682 160.484 38.9843C159.523 39.1004 158.65 38.4158 158.534 37.4552C158.418 36.4946 159.103 35.6217 160.064 35.5056C161.024 35.3895 161.897 36.0742 162.013 37.0348Z" fill="#D0E3EF"/>
<path d="M11.1325 23.2115C10.3806 23.8204 10.2646 24.9236 10.8735 25.6756C11.4825 26.4276 12.5857 26.5435 13.3377 25.9346C14.0896 25.3257 14.2056 24.2224 13.5966 23.4705C12.9877 22.7185 11.8845 22.6025 11.1325 23.2115Z" fill="#D0E3EF"/>
<path fill-rule="evenodd" clip-rule="evenodd" d="M12.114 25.3796C12.1415 25.0606 12.1823 24.7571 12.235 24.4709L13.0611 24.6231C13.0135 24.8814 12.9762 25.1581 12.9509 25.4517L12.114 25.3796ZM12.3351 29.0027C12.215 28.3754 12.1391 27.7741 12.1016 27.2044L12.9397 27.1491C12.975 27.6836 13.0464 28.2506 13.1601 28.8448L12.3351 29.0027ZM13.3827 32.453C13.1431 31.8757 12.9406 31.3096 12.7719 30.7578L13.5752 30.5122C13.7359 31.0379 13.9292 31.5785 14.1585 32.1309L13.3827 32.453ZM15.0411 35.634C14.7111 35.1111 14.4131 34.5924 14.145 34.0797L14.8894 33.6904C15.1469 34.1828 15.4335 34.6819 15.7515 35.1856L15.0411 35.634ZM17.1711 38.5127C16.7726 38.0463 16.4018 37.5802 16.0573 37.1158L16.732 36.6154C17.0649 37.0642 17.4236 37.5152 17.8098 37.9671L17.1711 38.5127ZM19.6578 41.0781C19.2082 40.6663 18.7826 40.2527 18.38 39.8383L18.9825 39.253C19.3736 39.6555 19.7874 40.0577 20.2252 40.4587L19.6578 41.0781ZM22.4139 43.3449C21.9236 42.9815 21.4545 42.6152 21.0059 42.2468L21.5391 41.5976C21.9767 41.9571 22.4348 42.3148 22.9141 42.6701L22.4139 43.3449ZM25.3676 45.3341C24.8509 45.0174 24.3527 44.6974 23.8724 44.3744L24.3412 43.6773C24.8115 43.9936 25.2998 44.3073 25.8066 44.6179L25.3676 45.3341ZM28.4662 47.0728C27.9281 46.7962 27.4064 46.516 26.9006 46.2325L27.3113 45.4997C27.8081 45.7782 28.321 46.0536 28.8502 46.3257L28.4662 47.0728ZM31.6794 48.592C31.1252 48.351 30.5856 48.1063 30.0603 47.8582L30.419 47.0986C30.9364 47.343 31.468 47.5841 32.0144 47.8216L31.6794 48.592ZM34.9652 49.9104C34.4022 49.7021 33.8521 49.4902 33.3147 49.2748L33.6273 48.4951C34.1575 48.7076 34.7006 48.9169 35.2566 49.1226L34.9652 49.9104ZM37.4831 50.7881C37.1965 50.694 36.9128 50.5991 36.6322 50.5032L36.9038 49.7083C37.1812 49.8031 37.4616 49.897 37.745 49.99C38.0302 50.0835 38.3117 50.1773 38.5898 50.2712L38.3208 51.067C38.0452 50.9739 37.766 50.8809 37.4831 50.7881ZM41.579 52.2373C41.0537 52.0365 40.5131 51.8362 39.9567 51.6366L40.2404 50.8459C40.8021 51.0475 41.3481 51.2498 41.8789 51.4527L41.579 52.2373ZM44.7853 53.5505C44.2711 53.3244 43.7388 53.0986 43.1878 52.8733L43.5057 52.0958C44.0633 52.3238 44.6024 52.5525 45.1234 52.7816L44.7853 53.5505ZM47.9113 55.0401C47.4161 54.7835 46.899 54.5267 46.3593 54.2701L46.72 53.5115C47.268 53.7721 47.7937 54.0331 48.2977 54.2942L47.9113 55.0401ZM50.9142 56.7556C50.4483 56.4603 49.9553 56.1639 49.4339 55.8668L49.8498 55.137C50.3821 55.4403 50.8864 55.7434 51.3639 56.0461L50.9142 56.7556ZM53.7 58.7595C53.2812 58.4132 52.8273 58.0638 52.3359 57.712L52.8248 57.029C53.3312 57.3914 53.8007 57.7527 54.2353 58.1122L53.7 58.7595ZM56.1062 61.1495C55.7743 60.7396 55.3954 60.3218 54.9649 59.8977L55.5545 59.2993C56.0058 59.744 56.4061 60.185 56.759 60.6209L56.1062 61.1495ZM57.7772 64.031C57.6084 63.5496 57.3768 63.0481 57.0712 62.5297L57.7949 62.1032C58.1265 62.6658 58.3819 63.2169 58.5699 63.7531L57.7772 64.031ZM58.034 67.2373C58.1393 66.7424 58.1785 66.2036 58.1286 65.6272L58.9654 65.5547C59.0226 66.2144 58.9781 66.8365 58.8556 67.4121L58.034 67.2373ZM57.0003 69.3935C57.1652 69.1939 57.3195 68.9739 57.4583 68.7351L58.1846 69.157C58.0225 69.436 57.8418 69.6938 57.6479 69.9285L57.0003 69.3935Z" fill="#D0E3EF"/>
<path d="M86.9023 45.4614C86.9023 43.0916 88.9876 41.2628 91.3374 41.572L164.131 51.1491C166.083 51.406 167.542 53.0698 167.542 55.0385V102.294C167.542 104.664 165.457 106.493 163.107 106.184L90.3138 96.6066C88.3617 96.3497 86.9023 94.6859 86.9023 92.7172V45.4614Z" fill="#123A68"/>
<path fill-rule="evenodd" clip-rule="evenodd" d="M73.7886 114.837L9.15721 103.518C9.15721 103.518 6.36719 54.2487 6.36719 56.2118V55.1008C6.36719 52.9821 7.94594 51.1915 10.0577 50.9151L82.2093 41.4716C84.7513 41.1389 87.0072 43.1069 87.0072 45.6573V116.195L73.7886 114.837Z" fill="#123A68"/>
<path d="M113.969 44.5166C113.928 42.9502 116.002 41.6254 118.602 41.5575C121.202 41.4896 123.343 42.7044 123.384 44.2707L123.721 67.2015L114.595 68.5292L113.969 44.5166Z" fill="#8CC942"/>
<path d="M57.4416 44.355C57.4393 42.8028 55.4928 41.4361 53.094 41.3025C50.6951 41.1688 48.7522 42.3188 48.7545 43.8711L49.0286 66.6019L57.4761 68.1514L57.4416 44.355Z" fill="#8CC942"/>
<path fill-rule="evenodd" clip-rule="evenodd" d="M52.6335 62.0334C52.6335 70.7029 59.6615 77.731 68.331 77.731L104.435 77.731C113.105 77.731 120.133 70.7029 120.133 62.0334L120.133 19.4147L120.133 13.3711L120.133 2.93227L89.8366 2.93227L89.8366 11.8014L83.5576 11.8014L83.5576 2.93227L52.6335 2.93227L52.6335 13.3711L52.6335 19.4147L52.6335 62.0334Z" fill="#0C151D"/>
<path d="M120.133 36.3682H52.6335V53.6354H120.133V36.3682Z" fill="#CCF88E"/>
<mask id="mask0_26664_74861" style="mask-type:alpha" maskUnits="userSpaceOnUse" x="52" y="2" width="69" height="76">
<path fill-rule="evenodd" clip-rule="evenodd" d="M68.331 77.7311C59.6615 77.7311 52.6335 70.703 52.6335 62.0335V53.6354L52.6335 19.4148V2.93237L52.6335 53.6354H120.133L120.133 62.0335C120.133 70.703 113.105 77.7311 104.435 77.7311H68.331Z" fill="#0C151D"/>
</mask>
<g mask="url(#mask0_26664_74861)">
<path d="M120.133 56.7739H52.6335V59.9134H120.133V56.7739Z" fill="#2E3642"/>
<path d="M120.133 69.3323H52.6335V72.4718H120.133V69.3323Z" fill="#2E3642"/>
<path d="M120.133 63.0532H52.6335V66.1927H120.133V63.0532Z" fill="#2E3642"/>
<path d="M120.133 75.6113H52.6335V78.7508H120.133V75.6113Z" fill="#2E3642"/>
</g>
<path fill-rule="evenodd" clip-rule="evenodd" d="M101.691 41.3904C101.691 44.8582 98.8796 47.6694 95.4118 47.6694C91.944 47.6694 89.1328 44.8582 89.1328 41.3904L101.691 41.3904Z" fill="white"/>
<mask id="mask1_26664_74861" style="mask-type:alpha" maskUnits="userSpaceOnUse" x="89" y="41" width="13" height="7">
<path fill-rule="evenodd" clip-rule="evenodd" d="M101.691 41.3892C101.691 44.857 98.8796 47.6682 95.4118 47.6682C91.944 47.6682 89.1328 44.857 89.1328 41.3892L101.691 41.3892Z" fill="#D9D9D9"/>
</mask>
<g mask="url(#mask1_26664_74861)">
<path d="M96.9805 41.3889H93.841V48.4528H96.9805V41.3889Z" fill="#0C151D"/>
</g>
<path fill-rule="evenodd" clip-rule="evenodd" d="M71.082 41.3902L83.64 41.3902C83.64 44.858 80.8288 47.6692 77.361 47.6692C73.8932 47.6692 71.082 44.858 71.082 41.3902Z" fill="white"/>
<mask id="mask2_26664_74861" style="mask-type:alpha" maskUnits="userSpaceOnUse" x="71" y="41" width="13" height="7">
<path fill-rule="evenodd" clip-rule="evenodd" d="M71.082 41.389L83.64 41.389C83.64 44.8568 80.8288 47.668 77.361 47.668C73.8932 47.668 71.082 44.8568 71.082 41.389Z" fill="#D9D9D9"/>
</mask>
<g mask="url(#mask2_26664_74861)">
<path d="M78.9297 41.3889H75.7902V48.4528H78.9297V41.3889Z" fill="#0C151D"/>
</g>
<path d="M113.193 86.4791C113.898 87.6103 115.643 87.7961 117.091 86.8941L122.336 83.6275C123.785 82.7254 124.388 81.0772 123.683 79.946L110.95 48.1544C110.246 47.0232 108.56 46.5675 107.112 47.4695L101.867 50.7361C100.418 51.6381 99.8154 53.2864 100.52 54.4176L113.193 86.4791Z" fill="#8CC942"/>
<path d="M58.5061 86.4794C57.8016 87.6106 56.0563 87.7963 54.6079 86.8943L49.3628 83.6277C47.9144 82.7257 47.3113 81.0774 48.0158 79.9462L60.7488 48.1547C61.4533 47.0235 63.1388 46.5677 64.5872 47.4697L69.8324 50.7363C71.2808 51.6383 71.8838 53.2866 71.1793 54.4178L58.5061 86.4794Z" fill="#8CC942"/>
<path d="M6.36719 55.3297C6.36719 52.782 8.62307 52.1007 11.1651 52.433L83.3167 61.8664C85.4284 62.1425 86.9551 62.9236 86.9551 65.04V117.068L10.0577 107.113C7.94593 106.837 6.36719 106.091 6.36719 103.975V55.3297Z" fill="#005C9E"/>
<path d="M167.633 55.3802C167.633 52.8326 165.182 52.1695 162.64 52.5019L90.4881 61.9352C88.3763 62.2113 86.9538 62.9235 86.9538 65.04V117.068L163.747 107.182C165.859 106.906 167.633 106.142 167.633 104.025V55.3802Z" fill="#69A3CC"/>
<path d="M29.0469 68.7658C29.0469 67.6287 30.0349 66.744 31.165 66.869L53.3883 69.3268C54.3552 69.4338 55.0869 70.2509 55.0869 71.2236C55.0869 72.3607 54.0989 73.2454 52.9687 73.1204L30.7455 70.6626C29.7786 70.5556 29.0469 69.7385 29.0469 68.7658Z" fill="#F6F7F9"/>
<path fill-rule="evenodd" clip-rule="evenodd" d="M82.2163 55.6402C81.0848 58.4224 78.3543 60.3839 75.1656 60.3839C71.8662 60.3839 69.0573 58.2838 68.0028 55.3473L66.0781 57.1442L63.0664 53.9181L68.8728 48.4975C70.2422 46.4871 72.5497 45.167 75.1656 45.167C77.5998 45.167 79.767 46.3101 81.1597 48.0887C81.2933 48.0648 81.4309 48.0523 81.5714 48.0523H89.7013C89.8656 48.0523 90.0259 48.0694 90.1805 48.1018C91.5728 46.3157 93.7446 45.167 96.1848 45.167C98.7969 45.167 101.102 46.4834 102.472 48.4889L108.37 53.9956L105.359 57.2216L103.348 55.345C102.295 58.2826 99.485 60.3839 96.1848 60.3839C92.9961 60.3839 90.2656 58.4224 89.1341 55.6402H82.2163Z" fill="#677990"/>
<path fill-rule="evenodd" clip-rule="evenodd" d="M70.8093 72.0543C75.4164 72.0543 79.3473 69.1595 80.8825 65.0896C81.4893 65.2882 82.1374 65.3956 82.8105 65.3956H88.4627C89.1614 65.3956 89.833 65.2799 90.4595 65.0667C91.9885 69.1487 95.9256 72.0543 100.541 72.0543C106.485 72.0543 111.304 67.2358 111.304 61.2919C111.304 55.348 106.485 50.5295 100.541 50.5295C97.1115 50.5295 94.0564 52.1339 92.0856 54.6332H79.265C77.2942 52.1339 74.2391 50.5295 70.8093 50.5295C64.8654 50.5295 60.0469 55.348 60.0469 61.2919C60.0469 67.2358 64.8654 72.0543 70.8093 72.0543Z" fill="#475467"/>
<path d="M107.665 61.3312C107.665 65.2439 104.493 68.4158 100.581 68.4158C96.668 68.4158 93.4961 65.2439 93.4961 61.3312C93.4961 57.4185 96.668 54.2466 100.581 54.2466C104.493 54.2466 107.665 57.4185 107.665 61.3312Z" fill="#0C151D"/>
<path d="M77.8567 61.3312C77.8567 65.2439 74.6848 68.4158 70.7721 68.4158C66.8594 68.4158 63.6875 65.2439 63.6875 61.3312C63.6875 57.4185 66.8594 54.2466 70.7721 54.2466C74.6848 54.2466 77.8567 57.4185 77.8567 61.3312Z" fill="#0C151D"/>
<path d="M103.763 46.815C102.623 47.0066 101.86 48.1191 102.059 49.2998C102.257 50.4806 103.342 51.2825 104.482 51.0909L109.015 50.3291C109.829 50.1922 110.374 49.3976 110.232 48.5541L110.027 47.3324C109.885 46.489 109.11 45.9163 108.296 46.0531L103.763 46.815Z" fill="#8CC942"/>
<path d="M101.747 44.9448C100.567 45.1433 99.7703 46.2614 99.9687 47.4422C100.167 48.6229 101.285 49.4193 102.466 49.2208L107.161 48.4316C108.005 48.2898 108.574 47.4912 108.432 46.6478L108.227 45.4261C108.085 44.5827 107.286 44.0139 106.443 44.1556L101.747 44.9448Z" fill="#8CC942"/>
<path d="M100.353 43.0091C99.172 43.2075 98.3757 44.3256 98.5742 45.5064C98.7727 46.6872 99.8908 47.4835 101.072 47.285L105.767 46.4958C106.61 46.354 107.179 45.5554 107.037 44.712L106.832 43.4903C106.69 42.6469 105.892 42.0781 105.048 42.2198L100.353 43.0091Z" fill="#8CC942"/>
<path d="M107.57 43.1944C106.813 42.1316 105.409 41.8332 104.433 42.5279C103.458 43.2226 103.281 44.6473 104.039 45.7101L107.049 49.9365C107.59 50.6956 108.593 50.9088 109.29 50.4126L110.299 49.6938C111.367 49.4149 111.122 48.1799 110.581 47.4208L107.57 43.1944Z" fill="#8CC942"/>
<path d="M67.9674 46.98C69.1072 47.1716 69.8704 48.2841 69.6719 49.4649C69.4734 50.6456 68.3885 51.4475 67.2487 51.256L62.716 50.4941C61.9018 50.3572 61.3567 49.5626 61.4984 48.7192L61.7038 47.4975C61.8455 46.6541 62.6205 46.0813 63.4347 46.2181L67.9674 46.98Z" fill="#8CC942"/>
<path d="M69.9831 45.1099C71.1639 45.3084 71.9602 46.4264 71.7617 47.6072C71.5633 48.788 70.4452 49.5843 69.2644 49.3858L64.569 48.5966C63.7256 48.4549 63.1568 47.6562 63.2986 46.8128L63.5039 45.5911C63.6457 44.7477 64.4443 44.1789 65.2877 44.3207L69.9831 45.1099Z" fill="#8CC942"/>
<path d="M71.3777 43.1739C72.5584 43.3723 73.3547 44.4904 73.1563 45.6712C72.9578 46.8519 71.8397 47.6483 70.6589 47.4498L65.9635 46.6606C65.1201 46.5188 64.5513 45.7202 64.6931 44.8768L64.8984 43.6551C65.0402 42.8117 65.8388 42.2429 66.6822 42.3846L71.3777 43.1739Z" fill="#8CC942"/>
<path d="M64.1604 43.3592C64.9175 42.2964 66.3218 41.998 67.297 42.6927C68.2722 43.3873 68.449 44.8121 67.6919 45.8749L64.6812 50.1013C64.1404 50.8604 63.1374 51.0736 62.4408 50.5774L61.4318 49.8586C60.3635 49.5797 60.6089 48.3447 61.1497 47.5856L64.1604 43.3592Z" fill="#8CC942"/>
</svg>
