<svg width="174" height="121" viewBox="0 0 174 121" fill="none" xmlns="http://www.w3.org/2000/svg">
<path fillRule="evenodd" clipRule="evenodd" d="M120.215 40.3638C119.63 40.4436 119.041 40.5436 118.45 40.6643L118.282 39.8413C118.891 39.7169 119.498 39.6138 120.101 39.5315L120.215 40.3638ZM122.887 40.1355C122.592 40.1454 122.294 40.1605 121.994 40.1811L121.937 39.343C122.247 39.3218 122.554 39.3062 122.859 39.2959C123.163 39.2857 123.47 39.2854 123.781 39.294L123.758 40.1337C123.463 40.1256 123.173 40.1259 122.887 40.1355ZM116.708 41.0799C116.136 41.2363 115.565 41.4126 114.997 41.6092L114.722 40.8155C115.308 40.6126 115.897 40.4309 116.486 40.2697L116.708 41.0799ZM127.253 40.5383C126.657 40.4286 126.074 40.337 125.506 40.2684L125.606 39.4344C126.195 39.5055 126.795 39.5999 127.405 39.7122L127.253 40.5383ZM113.327 42.2517C112.781 42.4836 112.24 42.7354 111.706 43.0076L111.325 42.2594C111.876 41.978 112.435 41.7179 112.999 41.4785L113.327 42.2517ZM130.731 41.3129C130.144 41.1662 129.566 41.0268 128.997 40.8984L129.182 40.079C129.759 40.2092 130.343 40.3502 130.934 40.498L130.731 41.3129ZM110.145 43.8776C109.638 44.1852 109.14 44.5129 108.654 44.8614L108.165 44.1786C108.669 43.8174 109.184 43.4778 109.709 43.1594L110.145 43.8776ZM160.408 37.7054C160.198 37.9369 159.987 38.161 159.775 38.3778L159.175 37.7899C159.38 37.581 159.583 37.3648 159.786 37.1413L160.408 37.7054ZM133.129 41.9309C132.907 41.8729 132.686 41.8152 132.467 41.758L132.679 40.9452C132.9 41.0027 133.121 41.0606 133.343 41.1186C133.698 41.2114 134.054 41.3047 134.414 41.3978L134.203 42.2109C133.843 42.1176 133.485 42.0239 133.129 41.9309ZM158.444 39.6288C157.971 40.0374 157.492 40.4133 157.008 40.7585L156.52 40.0747C156.983 39.7448 157.441 39.3849 157.895 38.9929L158.444 39.6288ZM107.246 45.9569C106.795 46.3384 106.356 46.7402 105.932 47.1626L105.339 46.5677C105.78 46.1286 106.235 45.7113 106.704 45.3152L107.246 45.9569ZM137.702 43.0711C137.113 42.9382 136.528 42.7983 135.948 42.6547L136.15 41.8393C136.726 41.9818 137.305 42.1203 137.887 42.2517L137.702 43.0711ZM141.255 43.7555C140.658 43.664 140.063 43.559 139.47 43.4439L139.631 42.6194C140.213 42.7326 140.797 42.8356 141.382 42.9252L141.255 43.7555ZM155.46 41.7512C154.918 42.0613 154.371 42.3365 153.82 42.5794L153.481 41.8108C154.006 41.5796 154.526 41.3176 155.043 41.0221L155.46 41.7512ZM144.871 44.1186C144.265 44.0938 143.66 44.0489 143.056 43.9871L143.141 43.1515C143.73 43.2117 144.318 43.2553 144.905 43.2793L144.871 44.1186ZM104.724 48.4732C104.344 48.9223 103.98 49.3912 103.633 49.8805L102.948 49.3948C103.308 48.8857 103.687 48.3977 104.083 47.9306L104.724 48.4732ZM152.105 43.2301C151.515 43.419 150.923 43.575 150.328 43.7011L150.154 42.8794C150.722 42.7589 151.287 42.6102 151.848 42.4302L152.105 43.2301ZM148.52 43.9958C147.912 44.0661 147.304 44.1092 146.695 44.1286L146.669 43.289C147.256 43.2704 147.841 43.2288 148.423 43.1613L148.52 43.9958ZM102.665 51.3788C102.369 51.8837 102.091 52.4075 101.831 52.9507L101.073 52.5885C101.343 52.0239 101.633 51.4791 101.941 50.9539L102.665 51.3788ZM101.128 54.593C100.921 55.1382 100.732 55.7009 100.562 56.2814L99.7555 56.0454C99.9316 55.4439 100.128 54.8604 100.343 54.2944L101.128 54.593ZM100.125 58.015C100.003 58.5865 99.8986 59.1739 99.8134 59.7772L98.9816 59.6598C99.0695 59.0374 99.177 58.4308 99.303 57.8398L100.125 58.015ZM99.6216 61.5544C99.5991 61.851 99.581 62.1512 99.5674 62.455C99.5553 62.7244 99.5486 62.996 99.5474 63.2696L98.7074 63.2657C98.7087 62.9811 98.7156 62.6983 98.7282 62.4173C98.7422 62.105 98.7609 61.7962 98.784 61.4909L99.6216 61.5544ZM99.6003 64.903C99.6367 65.4404 99.6915 65.984 99.7635 66.5329L98.9307 66.6422C98.8565 66.0769 98.7999 65.5157 98.7622 64.9598L99.6003 64.903ZM100.022 68.1541C100.122 68.687 100.237 69.2237 100.365 69.7634L99.5472 69.9572C99.4163 69.4052 99.2991 68.8554 99.1967 68.3086L100.022 68.1541ZM100.779 71.3569C100.927 71.8814 101.086 72.4077 101.257 72.9351L100.458 73.1933C100.284 72.6565 100.121 72.1201 99.9704 71.585L100.779 71.3569ZM101.791 74.4972C101.977 75.0125 102.172 75.5279 102.375 76.0428L101.594 76.3515C101.388 75.8291 101.19 75.3057 101.001 74.7821L101.791 74.4972ZM103.004 77.5717C103.22 78.0775 103.443 78.582 103.673 79.0846L102.909 79.4339C102.677 78.9252 102.451 78.4142 102.232 77.9017L103.004 77.5717ZM104.379 80.5817C104.62 81.0784 104.867 81.5725 105.119 82.0632L104.371 82.4463C104.117 81.9505 103.868 81.451 103.624 80.9486L104.379 80.5817ZM105.889 83.5295C106.02 83.773 106.152 84.0155 106.285 84.2569L105.549 84.6621C105.415 84.4184 105.282 84.1735 105.149 83.9276L105.889 83.5295Z" fill="#D0E3EF"/>
<path d="M162.013 37.5338C162.129 38.4944 161.445 39.3673 160.484 39.4833C159.523 39.5994 158.65 38.9148 158.534 37.9542C158.418 36.9936 159.103 36.1207 160.064 36.0047C161.024 35.8886 161.897 36.5732 162.013 37.5338Z" fill="#D0E3EF"/>
<path d="M11.1286 23.7115C10.3766 24.3204 10.2607 25.4236 10.8696 26.1756C11.4786 26.9276 12.5818 27.0435 13.3338 26.4346C14.0857 25.8257 14.2017 24.7224 13.5927 23.9705C12.9838 23.2185 11.8806 23.1025 11.1286 23.7115Z" fill="#D0E3EF"/>
<path fillRule="evenodd" clipRule="evenodd" d="M12.111 25.8794C12.1385 25.5603 12.1794 25.2569 12.2321 24.9707L13.0582 25.1229C13.0106 25.3812 12.9732 25.6579 12.9479 25.9515L12.111 25.8794ZM12.3321 29.5025C12.2121 28.8752 12.1362 28.2738 12.0986 27.7041L12.9368 27.6488C12.9721 28.1833 13.0434 28.7504 13.1572 29.3446L12.3321 29.5025ZM13.3798 32.9527C13.1401 32.3755 12.9377 31.8093 12.7689 31.2575L13.5722 31.0119C13.733 31.5377 13.9263 32.0783 14.1556 32.6307L13.3798 32.9527ZM15.0382 36.1337C14.7082 35.6109 14.4102 35.0921 14.1421 34.5794L14.8865 34.1902C15.144 34.6826 15.4306 35.1816 15.7485 35.6854L15.0382 36.1337ZM17.1682 39.0125C16.7697 38.5461 16.3989 38.08 16.0544 37.6155L16.7291 37.1151C17.062 37.5639 17.4207 38.0149 17.8068 38.4668L17.1682 39.0125ZM19.6549 41.5779C19.2052 41.166 18.7796 40.7524 18.3771 40.338L18.9796 39.7527C19.3706 40.1553 19.7845 40.5575 20.2222 40.9584L19.6549 41.5779ZM22.411 43.8447C21.9207 43.4813 21.4516 43.115 21.003 42.7465L21.5361 42.0974C21.9738 42.4569 22.4319 42.8146 22.9112 43.1698L22.411 43.8447ZM25.3647 45.8338C24.848 45.5172 24.3498 45.1971 23.8695 44.8741L24.3382 44.1771C24.8086 44.4934 25.2968 44.8071 25.8036 45.1177L25.3647 45.8338ZM28.4633 47.5725C27.9252 47.296 27.4035 47.0157 26.8977 46.7322L27.3084 45.9995C27.8052 46.278 28.318 46.5534 28.8473 46.8254L28.4633 47.5725ZM31.6765 49.0917C31.1223 48.8508 30.5827 48.6061 30.0573 48.3579L30.4161 47.5984C30.9334 47.8427 31.4651 48.0838 32.0114 48.3214L31.6765 49.0917ZM34.9623 50.4102C34.3992 50.2019 33.8492 49.9899 33.3118 49.7745L33.6243 48.9948C34.1546 49.2074 34.6976 49.4167 35.2537 49.6224L34.9623 50.4102ZM37.4802 51.2879C37.1935 51.1938 36.9099 51.0988 36.6293 51.003L36.9008 50.2081C37.1782 50.3028 37.4586 50.3967 37.7421 50.4897C38.0272 50.5833 38.3088 50.6771 38.5868 50.771L38.3179 51.5668C38.0423 51.4736 37.763 51.3807 37.4802 51.2879ZM41.5761 52.7371C41.0508 52.5363 40.5102 52.336 39.9538 52.1363L40.2375 51.3457C40.7992 51.5472 41.3452 51.7495 41.876 51.9524L41.5761 52.7371ZM44.7823 54.0503C44.2682 53.8242 43.7359 53.5984 43.1848 53.373L43.5028 52.5955C44.0604 52.8236 44.5994 53.0522 45.1205 53.2814L44.7823 54.0503ZM47.9083 55.5398C47.4131 55.2832 46.8961 55.0265 46.3563 54.7698L46.7171 54.0112C47.2651 54.2718 47.7907 54.5328 48.2948 54.794L47.9083 55.5398ZM50.9113 57.2553C50.4454 56.96 49.9524 56.6636 49.431 56.3666L49.8468 55.6367C50.3791 55.94 50.8835 56.2432 51.361 56.5459L50.9113 57.2553ZM53.6971 59.2592C53.2783 58.9129 52.8243 58.5635 52.3329 58.2117L52.8219 57.5287C53.3282 57.8912 53.7977 58.2525 54.2324 58.6119L53.6971 59.2592ZM56.1032 61.6492C55.7714 61.2394 55.3925 60.8216 54.962 60.3974L55.5516 59.7991C56.0029 60.2438 56.4031 60.6847 56.7561 61.1206L56.1032 61.6492ZM57.7743 64.5308C57.6055 64.0493 57.3738 63.5478 57.0683 63.0294L57.7919 62.6029C58.1236 63.1655 58.379 63.7166 58.567 64.2529L57.7743 64.5308ZM58.0311 67.7371C58.1364 67.2421 58.1756 66.7033 58.1256 66.1269L58.9625 66.0544C59.0196 66.7141 58.9752 67.3363 58.8527 67.9119L58.0311 67.7371ZM56.9973 69.8933C57.1622 69.6937 57.3166 69.4737 57.4554 69.2348L58.1817 69.6568C58.0196 69.9358 57.8389 70.1936 57.645 70.4283L56.9973 69.8933Z" fill="#D0E3EF"/>
<path d="M86.9023 45.9606C86.9023 43.5908 88.9876 41.7621 91.3374 42.0713L164.131 51.6484C166.083 51.9052 167.542 53.569 167.542 55.5378V102.794C167.542 105.163 165.457 106.992 163.107 106.683L90.3138 97.1058C88.3617 96.849 86.9023 95.1852 86.9023 93.2165V45.9606Z" fill="#123A68"/>
<path fillRule="evenodd" clipRule="evenodd" d="M73.7877 115.335L9.15623 104.017C9.15623 104.017 6.36621 54.7475 6.36621 56.7106V55.5996C6.36621 53.4808 7.94496 51.6903 10.0568 51.4139L82.2083 41.9704C84.7503 41.6376 87.0062 43.6057 87.0062 46.1561V116.694L73.7877 115.335Z" fill="#123A68"/>
<path d="M113.961 45.0158C113.92 43.4495 115.994 42.1247 118.594 42.0568C121.194 41.9889 123.335 43.2037 123.376 44.77L123.713 67.7008L114.588 69.0285L113.961 45.0158Z" fill="#8CC942"/>
<path d="M57.4465 44.8555C57.4442 43.3033 55.4977 41.9366 53.0988 41.8029C50.7 41.6693 48.7571 42.8193 48.7594 44.3716L49.0335 67.1024L57.481 68.6518L57.4465 44.8555Z" fill="#8CC942"/>
<path fillRule="evenodd" clipRule="evenodd" d="M52.6325 62.5349C52.6325 71.2044 59.6605 78.2324 68.33 78.2324L104.434 78.2324C113.104 78.2324 120.132 71.2044 120.132 62.5349L120.132 19.9161L120.132 13.8726L120.132 3.43374L89.8356 3.43374L89.8356 12.3028L83.5566 12.3028L83.5566 3.43374L52.6325 3.43373L52.6325 13.8726L52.6325 19.9161L52.6325 62.5349Z" fill="#0C151D"/>
<path d="M120.132 36.8691H52.6325V54.1364H120.132V36.8691Z" fill="#CCF88E"/>
<mask id="mask0_9687_83359" style="mask-type:alpha" maskUnits="userSpaceOnUse" x="52" y="3" width="69" height="76">
<path fillRule="evenodd" clipRule="evenodd" d="M68.331 78.2323C59.6615 78.2323 52.6335 71.2043 52.6335 62.5348V54.1366L52.6335 19.916V3.43359L52.6335 54.1366H120.133L120.133 62.5348C120.133 71.2043 113.105 78.2323 104.435 78.2323H68.331Z" fill="#0C151D"/>
</mask>
<g mask="url(#mask0_9687_83359)">
<path d="M120.133 57.2754H52.6335V60.4149H120.133V57.2754Z" fill="#2E3642"/>
<path d="M120.133 69.832H52.6335V72.9715H120.133V69.832Z" fill="#2E3642"/>
<path d="M120.133 63.5547H52.6335V66.6942H120.133V63.5547Z" fill="#2E3642"/>
<path d="M120.133 76.1133H52.6335V79.2528H120.133V76.1133Z" fill="#2E3642"/>
</g>
<path fillRule="evenodd" clipRule="evenodd" d="M101.688 41.8909C101.688 45.3587 98.8767 48.1699 95.4089 48.1699C91.9411 48.1699 89.1299 45.3587 89.1299 41.8909L101.688 41.8909Z" fill="white"/>
<mask id="mask1_9687_83359" style="mask-type:alpha" maskUnits="userSpaceOnUse" x="89" y="41" width="13" height="8">
<path fillRule="evenodd" clipRule="evenodd" d="M101.688 41.889C101.688 45.3568 98.8767 48.168 95.4089 48.168C91.9411 48.168 89.1299 45.3568 89.1299 41.889L101.688 41.889Z" fill="#D9D9D9"/>
</mask>
<g mask="url(#mask1_9687_83359)">
<path d="M96.9785 41.8887H93.839V48.9526H96.9785V41.8887Z" fill="#0C151D"/>
</g>
<path fillRule="evenodd" clipRule="evenodd" d="M71.0781 41.8909L83.6361 41.8909C83.6361 45.3587 80.8249 48.1699 77.3571 48.1699C73.8893 48.1699 71.0781 45.3587 71.0781 41.8909Z" fill="white"/>
<mask id="mask2_9687_83359" style="mask-type:alpha" maskUnits="userSpaceOnUse" x="71" y="41" width="13" height="8">
<path fillRule="evenodd" clipRule="evenodd" d="M71.0781 41.889L83.6361 41.889C83.6361 45.3568 80.8249 48.168 77.3571 48.168C73.8893 48.168 71.0781 45.3568 71.0781 41.889Z" fill="#D9D9D9"/>
</mask>
<g mask="url(#mask2_9687_83359)">
<path d="M78.9277 41.8887H75.7882V48.9526H78.9277V41.8887Z" fill="#0C151D"/>
</g>
<path d="M113.189 86.9791C113.894 88.1103 115.639 88.2961 117.087 87.3941L122.333 84.1275C123.781 83.2254 124.384 81.5772 123.679 80.446L110.947 48.6544C110.242 47.5232 108.556 47.0675 107.108 47.9695L101.863 51.2361C100.415 52.1381 99.8115 53.7864 100.516 54.9176L113.189 86.9791Z" fill="#8CC942"/>
<path d="M58.5041 86.9791C57.7996 88.1103 56.0544 88.2961 54.606 87.3941L49.3608 84.1275C47.9124 83.2254 47.3094 81.5772 48.0139 80.446L60.7468 48.6544C61.4513 47.5232 63.1369 47.0675 64.5853 47.9695L69.8304 51.2361C71.2788 52.1381 71.8819 53.7864 71.1774 54.9176L58.5041 86.9791Z" fill="#8CC942"/>
<path d="M6.36621 55.8285C6.36621 53.2808 8.6221 52.5995 11.1641 52.9318L83.3157 62.3652C85.4275 62.6413 86.9541 63.4224 86.9541 65.5388V117.567L10.0567 107.612C7.94496 107.335 6.36621 106.59 6.36621 104.474V55.8285Z" fill="#005C9E"/>
<path d="M167.633 55.8797C167.633 53.3321 165.182 52.669 162.64 53.0014L90.4881 62.4347C88.3763 62.7108 86.9538 63.423 86.9538 65.5395V117.567L163.747 107.681C165.859 107.405 167.633 106.641 167.633 104.525V55.8797Z" fill="#69A3CC"/>
<path d="M29.0459 69.266C29.0459 68.129 30.0339 67.2442 31.164 67.3692L53.3873 69.8271C54.3542 69.934 55.0859 70.7511 55.0859 71.7239C55.0859 72.8609 54.0979 73.7457 52.9677 73.6207L30.7445 71.1628C29.7776 71.0559 29.0459 70.2388 29.0459 69.266Z" fill="#F6F7F9"/>
<path fillRule="evenodd" clipRule="evenodd" d="M82.2163 56.1392C81.0848 58.9214 78.3543 60.8829 75.1656 60.8829C71.8662 60.8829 69.0573 58.7828 68.0028 55.8463L66.0781 57.6432L63.0664 54.4171L68.8728 48.9966C70.2422 46.9862 72.5497 45.666 75.1656 45.666C77.5998 45.666 79.767 46.8091 81.1597 48.5877C81.2933 48.5638 81.4309 48.5514 81.5714 48.5514H89.7013C89.8656 48.5514 90.0259 48.5684 90.1805 48.6009C91.5728 46.8147 93.7446 45.666 96.1848 45.666C98.7969 45.666 101.102 46.9824 102.472 48.988L108.37 54.4946L105.359 57.7207L103.348 55.844C102.295 58.7817 99.485 60.8829 96.1848 60.8829C92.9961 60.8829 90.2656 58.9214 89.1341 56.1392H82.2163Z" fill="#677990"/>
<path fillRule="evenodd" clipRule="evenodd" d="M70.8093 72.5541C75.4164 72.5541 79.3473 69.6593 80.8825 65.5894C81.4893 65.788 82.1374 65.8953 82.8105 65.8953H88.4627C89.1614 65.8953 89.833 65.7797 90.4595 65.5665C91.9885 69.6484 95.9256 72.5541 100.541 72.5541C106.485 72.5541 111.304 67.7356 111.304 61.7917C111.304 55.8478 106.485 51.0293 100.541 51.0293C97.1115 51.0293 94.0564 52.6337 92.0856 55.1329H79.265C77.2942 52.6337 74.2391 51.0293 70.8093 51.0293C64.8654 51.0293 60.0469 55.8478 60.0469 61.7917C60.0469 67.7356 64.8654 72.5541 70.8093 72.5541Z" fill="#475467"/>
<path d="M107.664 61.8307C107.664 65.7434 104.492 68.9153 100.58 68.9153C96.667 68.9153 93.4951 65.7434 93.4951 61.8307C93.4951 57.918 96.667 54.7461 100.58 54.7461C104.492 54.7461 107.664 57.918 107.664 61.8307Z" fill="#0C151D"/>
<path d="M77.8547 61.8307C77.8547 65.7434 74.6829 68.9153 70.7701 68.9153C66.8574 68.9153 63.6855 65.7434 63.6855 61.8307C63.6855 57.918 66.8574 54.7461 70.7701 54.7461C74.6829 54.7461 77.8547 57.918 77.8547 61.8307Z" fill="#0C151D"/>
<path d="M103.762 47.3133C102.622 47.5048 101.859 48.6174 102.058 49.7981C102.256 50.9789 103.341 51.7808 104.481 51.5892L109.014 50.8273C109.828 50.6905 110.373 49.8958 110.231 49.0524L110.026 47.8307C109.884 46.9873 109.109 46.4145 108.295 46.5514L103.762 47.3133Z" fill="#8CC942"/>
<path d="M101.745 45.4453C100.565 45.6438 99.7683 46.7619 99.9668 47.9427C100.165 49.1234 101.283 49.9197 102.464 49.7213L107.16 48.9321C108.003 48.7903 108.572 47.9917 108.43 47.1483L108.225 45.9266C108.083 45.0832 107.284 44.5144 106.441 44.6561L101.745 45.4453Z" fill="#8CC942"/>
<path d="M100.353 43.5078C99.172 43.7063 98.3757 44.8244 98.5742 46.0052C98.7727 47.1859 99.8908 47.9822 101.072 47.7838L105.767 46.9946C106.61 46.8528 107.179 46.0542 107.037 45.2108L106.832 43.9891C106.69 43.1457 105.892 42.5769 105.048 42.7186L100.353 43.5078Z" fill="#8CC942"/>
<path d="M107.568 43.6939C106.811 42.6311 105.407 42.3327 104.432 43.0274C103.456 43.7221 103.28 45.1468 104.037 46.2096L107.047 50.436C107.588 51.1951 108.591 51.4083 109.288 50.9121L110.297 50.1933C111.365 49.9144 111.12 48.6794 110.579 47.9203L107.568 43.6939Z" fill="#8CC942"/>
<path d="M67.9674 47.4793C69.1072 47.6709 69.8704 48.7834 69.6719 49.9641C69.4734 51.1449 68.3885 51.9468 67.2487 51.7552L62.716 50.9934C61.9018 50.8565 61.3567 50.0619 61.4984 49.2185L61.7038 47.9968C61.8455 47.1533 62.6205 46.5806 63.4347 46.7174L67.9674 47.4793Z" fill="#8CC942"/>
<path d="M69.9851 45.6094C71.1658 45.8079 71.9622 46.926 71.7637 48.1067C71.5652 49.2875 70.4471 50.0838 69.2664 49.8853L64.571 49.0961C63.7275 48.9544 63.1587 48.1557 63.3005 47.3123L63.5059 46.0906C63.6476 45.2472 64.4463 44.6784 65.2897 44.8202L69.9851 45.6094Z" fill="#8CC942"/>
<path d="M71.3786 43.6739C72.5594 43.8723 73.3557 44.9904 73.1572 46.1712C72.9588 47.3519 71.8407 48.1483 70.6599 47.9498L65.9645 47.1606C65.1211 47.0188 64.5523 46.2202 64.6941 45.3768L64.8994 44.1551C65.0412 43.3117 65.8398 42.7429 66.6832 42.8846L71.3786 43.6739Z" fill="#8CC942"/>
<path d="M64.1614 43.858C64.9185 42.7952 66.3228 42.4968 67.298 43.1914C68.2732 43.8861 68.45 45.3109 67.6929 46.3737L64.6822 50.6C64.1414 51.3592 63.1383 51.5724 62.4418 51.0761L61.4328 50.3574C60.3645 50.0785 60.6099 48.8435 61.1507 48.0843L64.1614 43.858Z" fill="#8CC942"/>
</svg>
