<svg width="300" height="197" viewBox="0 0 300 197" fill="none" xmlns="http://www.w3.org/2000/svg">
<rect width="300" height="197" fill="white"/>
<path d="M181.004 150.753H211.711L208.06 53.7656L181.004 150.753Z" fill="#0C151D"/>
<path d="M208.328 51.9116L181.471 149.939C181.328 150.46 180.854 150.821 180.314 150.821H44.7725C43.9807 150.821 43.4059 150.068 43.6151 149.304L70.4718 51.2774C70.6147 50.756 71.0885 50.3945 71.6292 50.3945H207.17C207.962 50.3945 208.537 51.1479 208.328 51.9116Z" fill="white"/>
<path fillRule="evenodd" clipRule="evenodd" d="M207.171 50.9969C207.567 50.9969 207.854 51.3736 207.749 51.7554L180.893 149.782C180.821 150.043 180.584 150.224 180.314 150.224H44.7727C44.3768 150.224 44.0894 149.847 44.194 149.465L71.0507 51.4383C71.1222 51.1776 71.3591 50.9969 71.6294 50.9969H207.171ZM208.907 52.0725C209.221 50.927 208.358 49.7969 207.171 49.7969H71.6294C70.8185 49.7969 70.1077 50.3391 69.8934 51.1212L43.0367 149.148C42.7229 150.294 43.585 151.424 44.7727 151.424H180.314C181.125 151.424 181.836 150.882 182.05 150.099L208.907 52.0725Z" fill="#0C151D"/>
<path d="M208.327 51.9119L205.087 63.7275C204.944 64.2488 204.47 64.6102 203.93 64.6102H68.3885C67.5966 64.6102 67.0218 63.8566 67.2312 63.0929L70.471 51.2772C70.6139 50.7559 71.0878 50.3945 71.6283 50.3945H207.169C207.961 50.3945 208.536 51.1481 208.327 51.9119Z" fill="#217BBB"/>
<path fillRule="evenodd" clipRule="evenodd" d="M207.171 50.9969C207.567 50.9969 207.854 51.3737 207.749 51.7555L204.51 63.5712C204.438 63.8319 204.201 64.0126 203.931 64.0126H68.3897C67.9938 64.0126 67.7064 63.6358 67.8111 63.2539L71.0509 51.4382C71.1224 51.1776 71.3593 50.9969 71.6295 50.9969H207.171ZM208.907 52.0729C209.221 50.9272 208.359 49.7969 207.171 49.7969H71.6295C70.8187 49.7969 70.108 50.339 69.8936 51.1209L66.6538 62.9366C66.3397 64.0822 67.2019 65.2126 68.3897 65.2126H203.931C204.742 65.2126 205.452 64.6705 205.667 63.8885L208.907 52.0729Z" fill="#0C151D"/>
<path fillRule="evenodd" clipRule="evenodd" d="M212.037 150.806L208.907 52.0178L207.707 52.0558L210.837 150.844L212.037 150.806Z" fill="#0C151D"/>
<path d="M150.354 91.7865C150.575 91.0193 149.999 90.2539 149.201 90.2539H127.853C127.318 90.2539 126.848 90.6076 126.7 91.1213L120.514 112.567C120.292 113.334 120.868 114.1 121.667 114.1H143.014C143.549 114.1 144.019 113.746 144.167 113.232L150.354 91.7865Z" fill="#E6F2F7"/>
<path fillRule="evenodd" clipRule="evenodd" d="M127.853 91.4539L149.201 91.4539L143.014 112.9H121.667L127.853 91.4539ZM149.201 90.2539C149.999 90.2539 150.575 91.0193 150.354 91.7865L144.167 113.232C144.019 113.746 143.549 114.1 143.014 114.1H121.667C120.868 114.1 120.292 113.334 120.514 112.567L126.7 91.1213C126.848 90.6076 127.318 90.2539 127.853 90.2539H149.201Z" fill="#0C151D"/>
<path d="M141.642 119.302C141.863 118.535 141.287 117.77 140.489 117.77H119.141C118.606 117.77 118.136 118.123 117.988 118.637L111.802 140.083C111.58 140.85 112.156 141.615 112.955 141.615H134.302C134.837 141.615 135.307 141.261 135.455 140.748L141.642 119.302Z" fill="#E6F2F7"/>
<path fillRule="evenodd" clipRule="evenodd" d="M119.141 118.97L140.489 118.97L134.302 140.415H112.955L119.141 118.97ZM140.489 117.77C141.287 117.77 141.863 118.535 141.642 119.302L135.455 140.748C135.307 141.261 134.837 141.615 134.302 141.615H112.955C112.156 141.615 111.58 140.85 111.802 140.083L117.988 118.637C118.136 118.123 118.606 117.77 119.141 117.77H140.489Z" fill="#0C151D"/>
<path d="M122.381 91.7865C122.602 91.0193 122.026 90.2539 121.228 90.2539H99.8802C99.3455 90.2539 98.8754 90.6076 98.7272 91.1213L92.5409 112.567C92.3196 113.334 92.8954 114.1 93.6939 114.1H115.042C115.576 114.1 116.047 113.746 116.195 113.232L122.381 91.7865Z" fill="#E6F2F7"/>
<path fillRule="evenodd" clipRule="evenodd" d="M99.8802 91.4539L121.228 91.4539L115.042 112.9H93.6939L99.8802 91.4539ZM121.228 90.2539C122.026 90.2539 122.602 91.0193 122.381 91.7865L116.195 113.232C116.047 113.746 115.576 114.1 115.042 114.1H93.6939C92.8954 114.1 92.3196 113.334 92.5409 112.567L98.7272 91.1213C98.8754 90.6076 99.3455 90.2539 99.8802 90.2539H121.228Z" fill="#0C151D"/>
<path d="M113.668 119.302C113.889 118.535 113.314 117.77 112.515 117.77H91.1673C90.6326 117.77 90.1625 118.123 90.0143 118.637L83.828 140.083C83.6067 140.85 84.1825 141.615 84.981 141.615H106.329C106.863 141.615 107.334 141.261 107.482 140.748L113.668 119.302Z" fill="#E6F2F7"/>
<path fillRule="evenodd" clipRule="evenodd" d="M91.1673 118.97L112.515 118.97L106.329 140.415H84.981L91.1673 118.97ZM112.515 117.77C113.314 117.77 113.889 118.535 113.668 119.302L107.482 140.748C107.334 141.261 106.863 141.615 106.329 141.615H84.981C84.1825 141.615 83.6067 140.85 83.828 140.083L90.0143 118.637C90.1625 118.123 90.6326 117.77 91.1673 117.77H112.515Z" fill="#0C151D"/>
<path d="M94.4073 91.7865C94.6286 91.0193 94.0529 90.2539 93.2543 90.2539H71.9065C71.3719 90.2539 70.9017 90.6076 70.7535 91.1213L64.5673 112.567C64.346 113.334 64.9218 114.1 65.7203 114.1H87.0681C87.6027 114.1 88.0729 113.746 88.2211 113.232L94.4073 91.7865Z" fill="#E6F2F7"/>
<path fillRule="evenodd" clipRule="evenodd" d="M71.9065 91.4539L93.2543 91.4539L87.0681 112.9H65.7203L71.9065 91.4539ZM93.2543 90.2539C94.0529 90.2539 94.6286 91.0193 94.4073 91.7865L88.2211 113.232C88.0729 113.746 87.6027 114.1 87.0681 114.1H65.7203C64.9218 114.1 64.346 113.334 64.5673 112.567L70.7535 91.1213C70.9017 90.6076 71.3719 90.2539 71.9065 90.2539H93.2543Z" fill="#0C151D"/>
<path d="M85.4005 119.326C85.6218 118.558 85.046 117.793 84.2475 117.793H62.8997C62.365 117.793 61.8949 118.147 61.7467 118.66L55.5605 140.106C55.3391 140.873 55.9149 141.639 56.7134 141.639H78.0613C78.5959 141.639 79.0661 141.285 79.2142 140.771L85.4005 119.326Z" fill="#E6F2F7"/>
<path fillRule="evenodd" clipRule="evenodd" d="M62.8997 118.993L84.2475 118.993L78.0613 140.439H56.7134L62.8997 118.993ZM84.2475 117.793C85.046 117.793 85.6218 118.558 85.4005 119.326L79.2142 140.771C79.0661 141.285 78.5959 141.639 78.0613 141.639H56.7134C55.9149 141.639 55.3391 140.873 55.5605 140.106L61.7467 118.66C61.8949 118.147 62.365 117.793 62.8997 117.793H84.2475Z" fill="#0C151D"/>
<path fillRule="evenodd" clipRule="evenodd" d="M185.187 40.1961C190.681 40.1961 195.134 44.6496 195.134 50.1432H196.334C196.334 43.9868 191.343 38.9961 185.187 38.9961C179.03 38.9961 174.04 43.9868 174.04 50.1432H175.24C175.24 44.6496 179.693 40.1961 185.187 40.1961Z" fill="#0C151D"/>
<path fillRule="evenodd" clipRule="evenodd" d="M137.495 40.1961C142.989 40.1961 147.443 44.6496 147.443 50.1432H148.643C148.643 43.9868 143.652 38.9961 137.495 38.9961C131.339 38.9961 126.348 43.9868 126.348 50.1432H127.548C127.548 44.6496 132.002 40.1961 137.495 40.1961Z" fill="#0C151D"/>
<path fillRule="evenodd" clipRule="evenodd" d="M161.34 40.1961C166.834 40.1961 171.287 44.6496 171.287 50.1432H172.487C172.487 43.9868 167.497 38.9961 161.34 38.9961C155.184 38.9961 150.193 43.9868 150.193 50.1432H151.393C151.393 44.6496 155.847 40.1961 161.34 40.1961Z" fill="#0C151D"/>
<path fillRule="evenodd" clipRule="evenodd" d="M113.65 40.1961C119.143 40.1961 123.597 44.6496 123.597 50.1432H124.797C124.797 43.9868 119.806 38.9961 113.65 38.9961C107.493 38.9961 102.503 43.9868 102.503 50.1432H103.703C103.703 44.6496 108.156 40.1961 113.65 40.1961Z" fill="#0C151D"/>
<path fillRule="evenodd" clipRule="evenodd" d="M89.7455 40.1961C95.2391 40.1961 99.6926 44.6496 99.6926 50.1432H100.893C100.893 43.9868 95.9018 38.9961 89.7455 38.9961C83.5891 38.9961 78.5983 43.9868 78.5983 50.1432H79.7983C79.7983 44.6496 84.2518 40.1961 89.7455 40.1961Z" fill="#0C151D"/>
<path fillRule="evenodd" clipRule="evenodd" d="M237.851 92.4008C237.76 97.2018 233.881 101.076 229.078 101.16L229.078 101.161C233.889 101.245 237.773 105.133 237.851 109.945L237.854 109.945C237.932 105.134 241.813 101.247 246.623 101.161L246.623 101.16C241.822 101.073 237.946 97.2003 237.855 92.4008L237.851 92.4008Z" fill="#0C151D"/>
<path fillRule="evenodd" clipRule="evenodd" d="M251.058 107.998C250.993 111.49 248.172 114.309 244.679 114.37L244.679 114.371C248.177 114.432 251.001 117.259 251.058 120.758L251.06 120.758C251.117 117.259 253.941 114.433 257.439 114.371L257.439 114.37C253.946 114.308 251.125 111.49 251.06 107.998L251.058 107.998Z" fill="#0C151D"/>
<path d="M200.2 94.7529C200.372 94.1127 201.03 93.7328 201.67 93.9043L212.952 96.9273C213.592 97.0989 213.972 97.7569 213.8 98.397L213.055 101.179C212.883 101.819 212.225 102.199 211.585 102.027L200.303 99.0044C199.663 98.8329 199.283 98.1749 199.455 97.5347L200.2 94.7529Z" fill="#0C151D"/>
<path d="M198.168 88.745C198.339 88.1049 198.997 87.725 199.638 87.8965L217.72 92.7416C218.36 92.9131 218.74 93.5711 218.568 94.2113L217.367 98.6932C217.196 99.3334 216.538 99.7133 215.898 99.5417L197.816 94.6966C197.175 94.5251 196.795 93.8671 196.967 93.2269L198.168 88.745Z" fill="#0C151D"/>
<path fillRule="evenodd" clipRule="evenodd" d="M189.878 167.279C208.656 172.311 227.958 161.167 232.989 142.389C238.021 123.611 226.877 104.31 208.099 99.2784C208.085 99.2746 208.071 99.2708 208.057 99.2671L199.599 97.0008L199.312 98.072C183.636 97.917 169.233 108.326 164.988 124.169C160.743 140.011 168.012 156.227 181.665 163.931L181.378 165.002L189.878 167.279C189.878 167.279 189.878 167.279 189.878 167.279Z" fill="#0C151D"/>
<path d="M194.14 95.0927C194.311 94.4525 194.969 94.0726 195.609 94.2442L206.891 97.2672C207.531 97.4387 207.911 98.0967 207.74 98.7369L206.994 101.519C206.823 102.159 206.165 102.539 205.525 102.367L194.243 99.3443C193.603 99.1727 193.223 98.5147 193.394 97.8746L194.14 95.0927Z" fill="white"/>
<path fillRule="evenodd" clipRule="evenodd" d="M206.581 98.4263L195.299 95.4033L194.553 98.1851L205.835 101.208L206.581 98.4263ZM195.609 94.2442C194.969 94.0726 194.311 94.4525 194.14 95.0927L193.394 97.8746C193.223 98.5147 193.603 99.1727 194.243 99.3443L205.525 102.367C206.165 102.539 206.823 102.159 206.994 101.519L207.74 98.7369C207.911 98.0967 207.531 97.4387 206.891 97.2672L195.609 94.2442Z" fill="#0C151D"/>
<path d="M192.106 89.0849C192.278 88.4447 192.936 88.0648 193.576 88.2364L211.658 93.0815C212.298 93.253 212.678 93.911 212.507 94.5511L211.306 99.033C211.134 99.6732 210.476 100.053 209.836 99.8816L191.754 95.0365C191.114 94.8649 190.734 94.2069 190.905 93.5668L192.106 89.0849Z" fill="white"/>
<path fillRule="evenodd" clipRule="evenodd" d="M211.348 94.2406L193.266 89.3955L192.065 93.8774L210.147 98.7225L211.348 94.2406ZM193.576 88.2364C192.936 88.0648 192.278 88.4447 192.106 89.0849L190.905 93.5668C190.734 94.2069 191.114 94.8649 191.754 95.0365L209.836 99.8816C210.476 100.053 211.134 99.6732 211.306 99.033L212.507 94.5511C212.678 93.911 212.298 93.253 211.658 93.0815L193.576 88.2364Z" fill="#0C151D"/>
<path d="M225.23 142.268C220.198 161.046 200.897 172.19 182.119 167.158C163.341 162.127 152.197 142.825 157.228 124.047C162.26 105.269 181.561 94.1258 200.339 99.1573C219.117 104.189 230.261 123.49 225.23 142.268Z" fill="#E6F2F7"/>
<path fillRule="evenodd" clipRule="evenodd" d="M226.389 142.58C221.185 161.998 201.226 173.522 181.808 168.318C162.39 163.115 150.866 143.156 156.069 123.738C161.272 104.32 181.232 92.7961 200.65 97.9991C220.068 103.202 231.592 123.162 226.389 142.58ZM182.118 167.159C200.896 172.191 220.198 161.047 225.229 142.269C230.261 123.491 219.117 104.19 200.339 99.1582C181.561 94.1267 162.26 105.27 157.228 124.048C152.197 142.826 163.34 162.128 182.118 167.159Z" fill="#0C151D"/>
<mask id="mask0_5401_154084" style="mask-type:alpha" maskUnits="userSpaceOnUse" x="156" y="97" width="71" height="72">
<path d="M225.231 142.268C220.199 161.046 200.898 172.19 182.12 167.158C163.342 162.127 152.198 142.825 157.229 124.047C162.261 105.269 181.562 94.1258 200.34 99.1573C219.118 104.189 230.262 123.49 225.231 142.268Z" fill="#E6F2F7"/>
</mask>
<g mask="url(#mask0_5401_154084)">
<path fillRule="evenodd" clipRule="evenodd" d="M197.075 110.073L190.9 133.119L181.769 116.652L173.682 102.644C165.855 107.145 159.751 114.638 157.229 124.047C152.198 142.825 163.342 162.127 182.12 167.158C200.898 172.19 220.199 161.046 225.231 142.268C230.262 123.49 219.118 104.189 200.34 99.1573C200.234 99.1289 200.128 99.101 200.022 99.0736L197.075 110.073Z" fill="white"/>
</g>
<path fillRule="evenodd" clipRule="evenodd" d="M197.027 109.201L197.938 105.801L199.098 106.111L198.187 109.511L197.027 109.201Z" fill="#0C151D"/>
<path fillRule="evenodd" clipRule="evenodd" d="M183.362 160.201L184.273 156.801L185.433 157.111L184.522 160.511L183.362 160.201Z" fill="#0C151D"/>
<path fillRule="evenodd" clipRule="evenodd" d="M215.185 138.952L218.585 139.863L218.274 141.022L214.874 140.111L215.185 138.952Z" fill="#0C151D"/>
<path fillRule="evenodd" clipRule="evenodd" d="M164.183 125.288L167.583 126.199L167.272 127.358L163.872 126.447L164.183 125.288Z" fill="#0C151D"/>
<path fillRule="evenodd" clipRule="evenodd" d="M212.267 120.319L215.315 118.559L215.915 119.598L212.867 121.358L212.267 120.319Z" fill="#0C151D"/>
<path fillRule="evenodd" clipRule="evenodd" d="M166.541 146.721L169.59 144.961L170.19 146L167.141 147.76L166.541 146.721Z" fill="#0C151D"/>
<path fillRule="evenodd" clipRule="evenodd" d="M204.067 154.198L205.827 157.246L204.788 157.846L203.028 154.798L204.067 154.198Z" fill="#0C151D"/>
<path fillRule="evenodd" clipRule="evenodd" d="M177.669 108.471L179.429 111.52L178.389 112.12L176.629 109.071L177.669 108.471Z" fill="#0C151D"/>
<path fillRule="evenodd" clipRule="evenodd" d="M180.025 113.631C180.385 113.425 180.843 113.549 181.049 113.909L190.975 131.21L194.159 119.33C194.266 118.93 194.677 118.692 195.077 118.8C195.477 118.907 195.715 119.318 195.607 119.718L191.954 133.354C191.875 133.648 191.627 133.865 191.326 133.904C191.025 133.943 190.73 133.797 190.579 133.533L179.748 114.655C179.542 114.296 179.666 113.837 180.025 113.631Z" fill="#0C151D"/>
<path fillRule="evenodd" clipRule="evenodd" d="M231.048 155.931L240.462 153.53L238.859 158.733L244.522 157.027L245.447 160.098L234.022 163.539L235.713 158.05L231.841 159.038L231.048 155.931Z" fill="#217BBB"/>
<path fillRule="evenodd" clipRule="evenodd" d="M230.318 155.496L241.35 152.682L239.764 157.832L244.924 156.277L246.195 160.497L233.118 164.436L234.825 158.894L231.408 159.766L230.318 155.496ZM231.778 156.362L232.274 158.307L236.602 157.203L234.927 162.638L244.7 159.694L244.121 157.772L237.954 159.63L239.573 154.373L231.778 156.362Z" fill="#0C151D"/>
<path fillRule="evenodd" clipRule="evenodd" d="M166.117 77.9683L175.187 87.4479L168.003 89.0144L173.767 94.544L170.769 97.6693L159.141 86.5142L166.719 84.8619L162.988 80.9624L166.117 77.9683Z" fill="#217BBB"/>
<path fillRule="evenodd" clipRule="evenodd" d="M166.135 77.1212L176.359 87.8075L169.23 89.3621L174.614 94.5277L170.785 98.519L157.913 86.1691L165.545 84.5049L162.139 80.9451L166.135 77.1212ZM166.097 78.8179L163.835 80.9825L167.891 85.2215L160.368 86.8619L170.75 96.8223L172.918 94.5629L166.775 88.6693L174.013 87.091L166.097 78.8179Z" fill="#0C151D"/>
<path fillRule="evenodd" clipRule="evenodd" d="M151.564 103.461L161.31 105.319L158.756 100.333L164.668 101.706L165.008 98.6676L153.082 95.8995L155.776 101.159L151.768 100.394L151.564 103.461Z" fill="#217BBB"/>
<path fillRule="evenodd" clipRule="evenodd" d="M150.931 103.952L162.404 106.14L159.879 101.211L165.189 102.444L165.664 98.2049L151.959 95.0238L154.683 100.34L151.214 99.679L150.931 103.952ZM152.198 102.972L152.322 101.112L156.871 101.979L154.206 96.7772L164.353 99.1324L164.147 100.97L157.633 99.4578L160.216 104.501L152.198 102.972Z" fill="#0C151D"/>
</svg>
