
<svg width="32" height="32" viewBox="0 0 32 32" fill="none" xmlns="http://www.w3.org/2000/svg">
<rect width="32" height="32" rx="4" fill="url(#paint0_linear_27142_81240)"/>
<path d="M16 14.75C15.4747 14.7502 14.967 14.9394 14.5697 15.283C14.1724 15.6267 13.912 16.1019 13.8362 16.6217C13.7603 17.1415 13.8741 17.6712 14.1566 18.1141C14.4392 18.5569 14.8716 18.8833 15.375 19.0336V20.375C15.375 20.5408 15.4408 20.6997 15.5581 20.8169C15.6753 20.9342 15.8342 21 16 21C16.1658 21 16.3247 20.9342 16.4419 20.8169C16.5592 20.6997 16.625 20.5408 16.625 20.375V19.0336C17.1284 18.8833 17.5608 18.5569 17.8434 18.1141C18.1259 17.6712 18.2397 17.1415 18.1638 16.6217C18.088 16.1019 17.8276 15.6267 17.4303 15.283C17.033 14.9394 16.5253 14.7502 16 14.75ZM16 17.875C15.8146 17.875 15.6333 17.82 15.4792 17.717C15.325 17.614 15.2048 17.4676 15.1339 17.2963C15.0629 17.125 15.0443 16.9365 15.0805 16.7546C15.1167 16.5727 15.206 16.4057 15.3371 16.2746C15.4682 16.1435 15.6352 16.0542 15.8171 16.018C15.999 15.9818 16.1875 16.0004 16.3588 16.0714C16.5301 16.1423 16.6765 16.2625 16.7795 16.4167C16.8825 16.5708 16.9375 16.7521 16.9375 16.9375C16.9375 17.1861 16.8387 17.4246 16.6629 17.6004C16.4871 17.7762 16.2486 17.875 16 17.875ZM22.25 12.25H19.75V10.375C19.75 9.38044 19.3549 8.42661 18.6517 7.72335C17.9484 7.02009 16.9946 6.625 16 6.625C15.0054 6.625 14.0516 7.02009 13.3483 7.72335C12.6451 8.42661 12.25 9.38044 12.25 10.375V12.25H9.75C9.41848 12.25 9.10054 12.3817 8.86612 12.6161C8.6317 12.8505 8.5 13.1685 8.5 13.5V22.25C8.5 22.5815 8.6317 22.8995 8.86612 23.1339C9.10054 23.3683 9.41848 23.5 9.75 23.5H22.25C22.5815 23.5 22.8995 23.3683 23.1339 23.1339C23.3683 22.8995 23.5 22.5815 23.5 22.25V13.5C23.5 13.1685 23.3683 12.8505 23.1339 12.6161C22.8995 12.3817 22.5815 12.25 22.25 12.25ZM13.5 10.375C13.5 9.71196 13.7634 9.07607 14.2322 8.60723C14.7011 8.13839 15.337 7.875 16 7.875C16.663 7.875 17.2989 8.13839 17.7678 8.60723C18.2366 9.07607 18.5 9.71196 18.5 10.375V12.25H13.5V10.375ZM22.25 22.25H9.75V13.5H22.25V22.25Z" fill="url(#paint1_linear_27142_81240)"/>
<defs>
<linearGradient id="paint0_linear_27142_81240" x1="8" y1="-5" x2="32" y2="38.5" gradientUnits="userSpaceOnUse">
<stop stop-color="#69A3CC"/>
<stop offset="1" stop-color="#217BBB"/>
</linearGradient>
<linearGradient id="paint1_linear_27142_81240" x1="16" y1="6.625" x2="16" y2="23.5" gradientUnits="userSpaceOnUse">
<stop stop-color="white"/>
<stop offset="1" stop-color="#D0E3EF"/>
</linearGradient>
</defs>
</svg>
