<svg xmlns="http://www.w3.org/2000/svg" width="20" height="19" viewBox="0 0 20 19" fill="none">
<g clipPath="url(#clip0_8731_245236)">
<path d="M1.90625 5.41424C2.48145 4.2156 3.29414 3.20252 4.31836 2.36013C5.70625 1.21345 7.29824 0.523221 9.0832 0.311697C11.1799 0.0630644 13.1504 0.460135 14.9725 1.55115C15.4252 1.82205 15.8482 2.13006 16.2527 2.46404C16.3529 2.54568 16.3418 2.59392 16.2564 2.67556C15.4289 3.49939 14.6014 4.32322 13.7812 5.15447C13.6848 5.25096 13.6328 5.24353 13.5289 5.1656C11.1242 3.31385 7.61738 3.81482 5.825 6.26404C5.50957 6.69451 5.25352 7.15838 5.07539 7.66306C5.06055 7.7076 5.03086 7.74842 5.00859 7.79295C4.52988 7.42928 4.04746 7.0656 3.57246 6.69822C3.01582 6.27146 2.45918 5.84471 1.90625 5.41424Z" fill="#E94335"/>
<path d="M5.0084 11.2738C5.16797 11.6263 5.30156 11.9937 5.50195 12.324C6.34434 13.7045 7.54668 14.5914 9.13125 14.9068C10.56 15.1926 11.933 14.9996 13.2133 14.2834C13.2578 14.2611 13.3023 14.2388 13.3432 14.2166C13.3654 14.2388 13.384 14.2648 13.4062 14.2834C14.3637 15.0256 15.3248 15.7677 16.2822 16.5099C15.8221 16.9664 15.2988 17.3338 14.7422 17.6529C13.1279 18.5732 11.3801 18.9443 9.53945 18.8033C7.24609 18.6252 5.26816 17.7197 3.63535 16.0869C2.91914 15.3707 2.3291 14.5617 1.90234 13.6377C2.29941 13.3334 2.69648 13.0328 3.09355 12.7285C3.73184 12.2424 4.37012 11.7599 5.0084 11.2738Z" fill="#34A853"/>
<path d="M16.2864 16.51C15.329 15.7678 14.3678 15.0256 13.4104 14.2834C13.3881 14.2648 13.3659 14.2389 13.3473 14.2166C13.6776 13.9605 14.0153 13.7119 14.2862 13.3854C14.7389 12.8436 15.0395 12.2313 15.1954 11.5447C15.2139 11.4594 15.1991 11.4297 15.1137 11.4334C15.0692 11.4371 15.0284 11.4334 14.9838 11.4334C13.4698 11.4334 11.952 11.4297 10.4379 11.4371C10.2709 11.4371 10.2338 11.3926 10.2375 11.233C10.245 10.1568 10.245 9.08066 10.2375 8.00449C10.2375 7.86719 10.2747 7.83008 10.412 7.83008C13.1877 7.83379 15.9635 7.83379 18.743 7.83008C18.8618 7.83008 18.91 7.85977 18.9397 7.98594C19.1661 9.00645 19.1512 10.0307 19.0139 11.0623C18.9026 11.8861 18.7022 12.684 18.3942 13.4559C17.9377 14.5951 17.2661 15.5896 16.3829 16.4432C16.3495 16.4691 16.3161 16.4877 16.2864 16.51Z" fill="#4285F3"/>
<path d="M5.00865 11.2738C4.37037 11.76 3.73209 12.2424 3.09381 12.7285C2.69674 13.0291 2.29967 13.3334 1.9026 13.6377C1.59459 13.0662 1.3942 12.4613 1.23092 11.8379C0.9192 10.6318 0.870958 9.40723 1.04166 8.17891C1.17525 7.21406 1.45358 6.28633 1.9026 5.41797C2.45924 5.84473 3.01217 6.2752 3.56881 6.70195C4.04752 7.06934 4.52623 7.43301 5.00494 7.79668C4.9233 8.19375 4.80826 8.5834 4.77115 8.9916C4.70436 9.73379 4.77486 10.4574 4.98639 11.1699C5.00123 11.1996 5.00494 11.2367 5.00865 11.2738Z" fill="#FABB06"/>
</g>
<defs>
<clipPath id="clip0_8731_245236">
<rect width="19" height="19" fill="white" transform="translate(0.333008)"/>
</clipPath>
</defs>
</svg>