<svg width="282" height="133" viewBox="0 0 282 133" fill="none" xmlns="http://www.w3.org/2000/svg">
<rect width="282" height="133" rx="8" fill="#0C151D"/>
<g clipPath="url(#clip0_2575_71891)">
<path d="M16 24C16 19.5817 19.5817 16 24 16H258C262.418 16 266 19.5817 266 24V133H16V24Z" fill="white"/>
<rect x="105" y="24" width="72" height="86" rx="8" fill="#F8F8F8"/>
<path d="M113 110C113 95.6406 124.641 84 139 84H143C157.359 84 169 95.6406 169 110H113Z" fill="#69A3CC" fill-opacity="0.8"/>
<ellipse cx="141" cy="53.5" rx="26" ry="25.5" fill="#9DA0A4"/>
<path d="M124.5 77.75C119 74.7639 117.167 67.2986 117 63.3171L129.5 64.3125L130 75.7593C129.2 76.1574 127.333 77.9159 128 80.2384C123.2 77.0532 123 72.2755 124.5 70.2847C122.5 70.6829 123.667 75.4275 124.5 77.75Z" fill="#9DA0A4"/>
<path d="M157.5 77.75C163 74.7639 164.833 67.2986 165 63.3171L152.5 64.3125L152 75.7593C152.8 76.1574 154.667 77.9159 154 80.2384C158.8 77.0532 159 72.2755 157.5 70.2847C159.5 70.6829 158.333 75.4275 157.5 77.75Z" fill="#9DA0A4"/>
<path fillRule="evenodd" clipRule="evenodd" d="M141 34C128.85 34 119 43.8497 119 56V63C119 71.8366 126.163 79 135 79V84C135 87.3137 137.686 90 141 90C144.314 90 147 87.3137 147 84V79C155.837 79 163 71.8366 163 63V56C163 43.8497 153.15 34 141 34Z" fill="#F6E9E7"/>
<circle cx="164" cy="59" r="5" fill="#F6E9E7"/>
<circle cx="119" cy="59" r="5" fill="#F6E9E7"/>
<path d="M152 58.5263C135.6 58.5263 131.5 48.3743 131.5 43.2982C123.5 47.6211 119.833 56.2339 119 60L117 48.7018L122.5 37.8947L141.5 32L158 35.9298L165 50.6667L162 60C155.6 59.214 147.667 51.1579 144.5 47.2281C145.3 52.7298 149.833 57.0526 152 58.5263Z" fill="#9DA0A4"/>
<rect x="185" y="38" width="72" height="86" rx="8" fill="#F8F8F8"/>
<path d="M193 124C193 109.641 204.641 98.0001 219 98.0001H223C237.359 98.0001 249 109.641 249 124H193Z" fill="#C1DDED"/>
<ellipse cx="221" cy="67.5001" rx="24" ry="23.5" fill="#C3C6C9"/>
<path fillRule="evenodd" clipRule="evenodd" d="M221 48.0002C209.402 48.0002 200 57.4023 200 69.0002V77.0002C200 85.5009 206.629 92.4533 215 92.9695V98.0002C215 101.314 217.686 104 221 104C224.314 104 227 101.314 227 98.0002V92.9695C235.371 92.4533 242 85.5009 242 77.0002V69.0002C242 57.4023 232.598 48.0002 221 48.0002Z" fill="#F6E9E7"/>
<circle cx="199" cy="75.0001" r="5" fill="#F6E9E7"/>
<circle cx="243" cy="75.0001" r="5" fill="#F6E9E7"/>
<path d="M201 57.5001C216.6 61.9001 229.5 54.6668 234 50.5001L222 46.0001L209.5 48.5001L201 57.5001Z" fill="#C3C6C9"/>
<path d="M231.5 43.4998C212.5 38.5 203 51.5001 202.5 53L209 53.9997L232.5 50.9997C242.1 48.9997 243.833 44.9997 243.5 42.9997C239.9 45.7997 235.263 44.49 231.5 43.4998Z" fill="#C3C6C9"/>
<path d="M242.5 64.5001C236.5 62.5001 231 54.3335 229 50.5001L236 51.5001L240.5 57.5001L242.5 64.5001Z" fill="#C3C6C9"/>
<path fillRule="evenodd" clipRule="evenodd" d="M203 68H218.568V69.5H223.432V68H239V73C239 75.2091 237.209 77 235 77H227.432C225.223 77 223.432 75.2091 223.432 73V70.5H218.568V73C218.568 75.2091 216.777 77 214.568 77H207C204.791 77 203 75.2091 203 73V68Z" fill="white"/>
<rect x="25" y="38" width="72" height="86" rx="8" fill="#F8F8F8"/>
<path fillRule="evenodd" clipRule="evenodd" d="M51.9435 53.9999C46.9624 54.6209 37 59.8684 37 75.8903C37 82.5178 42.3726 87.9999 49.0001 87.9999C55.6276 87.9999 61.0002 82.6272 61.0002 75.9998C61.0002 82.6272 66.3729 87.9999 73.0004 87.9999C79.6278 87.9999 85.0005 82.5178 85.0005 75.8903C85.0005 59.8684 75.0381 54.6209 70.0569 53.9999C65.0551 53.9999 61.0002 58.0547 61.0002 63.0566C61.0002 58.0547 56.9454 53.9999 51.9435 53.9999Z" fill="#C3C6C9"/>
<path d="M33 124C33 109.641 44.6406 98 59 98H63C77.3594 98 89 109.641 89 124H33Z" fill="#C1DDED"/>
<path fillRule="evenodd" clipRule="evenodd" d="M61 48.0002C49.402 48.0002 40 57.4023 40 69.0002V75C37.7909 75 36 76.7909 36 79C36 81.2091 37.7909 83 40 83H41.1629C43.4177 88.5705 48.7185 92.5821 55 92.9695V98C55 101.314 57.6863 104 61 104C64.3137 104 67 101.314 67 98V92.9695C73.2815 92.5821 78.5823 88.5705 80.8371 83H82C84.2091 83 86 81.2091 86 79C86 76.7909 84.2091 75 82 75V69.0002C82 57.4023 72.598 48.0002 61 48.0002Z" fill="#F6E9E7"/>
<path d="M35 66.0001C35 53.8499 44.8497 44.0001 57 44.0001H65C77.1503 44.0001 87 53.8499 87 66.0001V71.0001H77.9998H58.9998L57.9998 66.8463L56.9998 71.0001H46.9998L44.9998 66.8463L42.9998 71.0001H35V66.0001Z" fill="#C3C6C9"/>
<circle cx="208.68" cy="62.68" r="32.0285" transform="rotate(-30 208.68 62.68)" fill="white" fill-opacity="0.4" stroke="#69A3CC" strokeWidth="16"/>
<path d="M219.662 96.2576L232.268 88.9797L243.004 107.576C244.109 109.489 243.453 111.935 241.54 113.04L235.863 116.318C233.949 117.422 231.503 116.767 230.398 114.853L219.662 96.2576Z" fill="#69A3CC"/>
<path fillRule="evenodd" clipRule="evenodd" d="M114.406 42.9265V42.929C110.316 43.0001 107.014 46.3017 106.942 50.3912H106.941C106.869 46.3024 103.568 43.0013 99.4794 42.929V42.9264C103.568 42.8542 106.869 39.5531 106.941 35.4644H106.942C107.014 39.5538 110.316 42.8554 114.406 42.9265Z" fill="#EB896A"/>
<path fillRule="evenodd" clipRule="evenodd" d="M123.199 34.6312C120.473 34.5842 118.272 32.3838 118.224 29.6581H118.222C118.174 32.3824 115.975 34.5821 113.251 34.6312V34.6329C115.975 34.6821 118.174 36.8818 118.222 39.6063H118.224C118.272 36.8805 120.473 34.6799 123.199 34.6328V34.6312Z" fill="#F6E9E7"/>
</g>
<defs>
<clipPath id="clip0_2575_71891">
<rect width="250" height="117" fill="white" transform="translate(16 16)"/>
</clipPath>
</defs>
</svg>
