<svg width="282" height="133" viewBox="0 0 282 133" fill="none" xmlns="http://www.w3.org/2000/svg">
<rect width="282" height="133" rx="8" fill="#0C151D"/>
<g clipPath="url(#clip0_2575_72019)">
<path d="M16 24C16 19.5817 19.5817 16 24 16H258C262.418 16 266 19.5817 266 24V133H16V24Z" fill="white"/>
<rect x="16" y="16" width="250" height="117" rx="6.8125" fill="white"/>
<path d="M32 36C32 33.7909 33.7909 32 36 32H156C158.209 32 160 33.7909 160 36V141H32V36Z" fill="#F8F8F8"/>
<rect x="40" y="40" width="32" height="32" rx="8" fill="white"/>
<mask id="mask0_2575_72019" style="mask-type:alpha" maskUnits="userSpaceOnUse" x="40" y="40" width="32" height="32">
<rect x="40" y="40" width="32" height="32" rx="8" fill="white"/>
</mask>
<g mask="url(#mask0_2575_72019)">
<path fillRule="evenodd" clipRule="evenodd" d="M59.2339 47.5717C61.0129 47.7934 64.5708 49.6675 64.5708 55.3897C64.5708 57.7566 62.652 59.7145 60.2851 59.7145C57.9181 59.7145 55.9993 57.7957 55.9993 55.4288V50.8062C55.9993 49.0198 57.4475 47.5717 59.2339 47.5717ZM52.7647 47.5717C50.9857 47.7934 47.4277 49.6675 47.4277 55.3897C47.4277 57.7566 49.3465 59.7145 51.7135 59.7145C54.0805 59.7145 55.9993 57.7957 55.9993 55.4288V50.8062C55.9993 49.0198 54.5511 47.5717 52.7647 47.5717Z" fill="#C3C6C9"/>
<path d="M46 72.5716C46 67.4432 50.1574 63.2859 55.2857 63.2859H56.7143C61.8426 63.2859 66 67.4432 66 72.5716H46Z" fill="#C1DDED"/>
<path fillRule="evenodd" clipRule="evenodd" d="M56.001 45.4288C51.8588 45.4288 48.501 48.7867 48.501 52.9288V55.0716H48.5008C47.7119 55.0716 47.0723 55.7112 47.0723 56.5001C47.0723 57.2891 47.7119 57.9287 48.5008 57.9287H48.9163C49.7215 59.9181 51.6146 61.3509 53.8579 61.4893V63.2857C53.8579 64.4691 54.8173 65.4285 56.0008 65.4285C57.1843 65.4285 58.1437 64.4691 58.1437 63.2857V61.4893C60.3871 61.351 62.2804 59.9183 63.0857 57.9287H63.501C64.29 57.9287 64.9296 57.2891 64.9296 56.5001C64.9296 55.7112 64.29 55.0716 63.501 55.0716H63.501V52.9288C63.501 48.7867 60.1431 45.4288 56.001 45.4288Z" fill="#F6E9E7"/>
<path d="M46.7148 51.8571C46.7148 47.5178 50.2326 44 54.572 44H57.4291C61.7685 44 65.2863 47.5178 65.2863 51.8571V53.6429H62.0719H55.2862L54.929 52.1593L54.5719 53.6429H51.0005L50.2862 52.1593L49.5719 53.6429H46.7148V51.8571Z" fill="#C3C6C9"/>
</g>
<rect x="76" y="41" width="46.5455" height="7.28571" rx="3.64286" fill="#C3C6C9"/>
<rect x="76" y="63" width="46.5455" height="7.28571" rx="3.64286" fill="#E6F2F7"/>
<rect x="76" y="52" width="24" height="7" rx="3.5" fill="#E6F2F7"/>
<rect x="40" y="80" width="112" height="16" rx="4" fill="#ECECEC"/>
<rect x="40" y="102" width="112" height="8" rx="4" fill="#ECECEC"/>
<rect x="40" y="114" width="112" height="8" rx="4" fill="#ECECEC"/>
<rect x="40" y="126" width="112" height="8" rx="4" fill="#ECECEC"/>
<path d="M80 28C80 25.7909 81.7909 24 84 24H204C206.209 24 208 25.7909 208 28V133H80V28Z" fill="#F8F8F8"/>
<rect x="88" y="32" width="32" height="32" rx="8" fill="white"/>
<mask id="mask1_2575_72019" style="mask-type:alpha" maskUnits="userSpaceOnUse" x="88" y="32" width="32" height="32">
<rect x="88" y="32" width="32" height="32" rx="8" fill="white"/>
</mask>
<g mask="url(#mask1_2575_72019)">
<path fillRule="evenodd" clipRule="evenodd" d="M100.663 38.0246C98.8534 38.5075 95.4277 41.8104 95.4277 51.5205V58C95.4277 58.5523 95.8754 59 96.4277 59H102.999C103.552 59 103.999 58.5523 103.999 58V39C103.999 38.4477 103.552 38 102.999 38H100.871C100.8 38 100.731 38.0064 100.663 38.0246ZM107.336 38.0246C109.145 38.5075 112.571 41.8104 112.571 51.5205V58C112.571 58.5523 112.123 59 111.571 59H104.999C104.447 59 103.999 58.5523 103.999 58V39C103.999 38.4477 104.447 38 104.999 38H107.127C107.198 38 107.267 38.0064 107.336 38.0246Z" fill="#C3C6C9"/>
<path d="M94 64.5718C94 59.4435 98.1574 55.2861 103.286 55.2861H104.714C109.843 55.2861 114 59.4435 114 64.5718H94Z" fill="#C1DDED"/>
<path fillRule="evenodd" clipRule="evenodd" d="M104.001 37.429C99.8588 37.429 96.501 40.7868 96.501 44.929V47.0717H96.5008C95.7119 47.0717 95.0723 47.7113 95.0723 48.5003C95.0723 49.2892 95.7119 49.9288 96.5008 49.9288H96.9163C97.7215 51.9183 99.6146 53.351 101.858 53.4894V55.2858C101.858 56.4693 102.817 57.4287 104.001 57.4287C105.184 57.4287 106.144 56.4693 106.144 55.2858V53.4894C108.387 53.3511 110.28 51.9184 111.086 49.9288H111.501C112.29 49.9288 112.93 49.2892 112.93 48.5003C112.93 47.7113 112.29 47.0717 111.501 47.0717H111.501V44.929C111.501 40.7868 108.143 37.429 104.001 37.429Z" fill="#F6E9E7"/>
<path fillRule="evenodd" clipRule="evenodd" d="M105.887 37.0814C103.139 34.9296 96.4784 37.2594 96 43.0001C95.9871 43.0848 95.9787 43.2156 95.9684 43.3765C95.9192 44.1413 95.8262 45.5868 95 45.9999C99.3215 46.9734 106.134 46.6634 106.688 41.2035C107.846 41.5835 109.341 42.3652 110 45C110.217 45.8684 111.5 47 113 46C112.649 46 112.53 45.402 112.35 44.4936C112.187 43.6769 111.975 42.6094 111.5 41.5C110.238 38.5549 108.267 37.3799 105.887 37.0814Z" fill="#C3C6C9"/>
</g>
<rect x="124" y="33" width="46.5455" height="7.28571" rx="3.64286" fill="#C3C6C9"/>
<rect x="124" y="55" width="46.5455" height="7.28571" rx="3.64286" fill="#ECECEC"/>
<rect x="124" y="44" width="24" height="7" rx="3.5" fill="#ECECEC"/>
<rect x="88" y="72" width="112" height="16" rx="4" fill="#ECECEC"/>
<rect x="88" y="94" width="112" height="8" rx="4" fill="#ECECEC"/>
<rect x="88" y="106" width="112" height="8" rx="4" fill="#ECECEC"/>
<rect x="88" y="118" width="112" height="8" rx="4" fill="#ECECEC"/>
<rect x="88" y="130" width="112" height="8" rx="4" fill="#ECECEC"/>
<path d="M56 81C56 78.7909 57.7909 77 60 77H180C182.209 77 184 78.7909 184 81V186H56V81Z" fill="#F8F8F8"/>
<rect x="100" y="86" width="46.5455" height="7.28571" rx="3.64286" fill="#C3C6C9"/>
<rect x="100" y="108" width="46.5455" height="7.28571" rx="3.64286" fill="#E6F2F7"/>
<rect x="100" y="97" width="24" height="7" rx="3.5" fill="#E6F2F7"/>
<rect x="64" y="125" width="112" height="16" rx="4" fill="#ECECEC"/>
<path d="M122 44C122 41.7909 123.791 40 126 40H246C248.209 40 250 41.7909 250 44V149H122V44Z" fill="#F8F8F8"/>
<rect x="130" y="48" width="32" height="32" rx="8" fill="white"/>
<mask id="mask2_2575_72019" style="mask-type:alpha" maskUnits="userSpaceOnUse" x="130" y="48" width="32" height="32">
<rect x="130" y="48" width="32" height="32" rx="8" fill="white"/>
</mask>
<g mask="url(#mask2_2575_72019)">
<path d="M136 81.286C136 76.1576 140.157 72.0002 145.286 72.0002H146.714C151.843 72.0002 156 76.1576 156 81.286H136Z" fill="#C1DDED"/>
<ellipse cx="146.001" cy="61.1071" rx="9.28571" ry="9.10714" fill="#C3C6C9"/>
<path d="M140.106 69.7679C138.142 68.7014 137.487 66.0352 137.428 64.6133L141.892 64.9688L142.071 69.0569C141.785 69.1991 141.118 69.8271 141.356 70.6566C139.642 69.519 139.571 67.8127 140.106 67.1017C139.392 67.2439 139.809 68.9384 140.106 69.7679Z" fill="#C3C6C9"/>
<path d="M151.894 69.7679C153.858 68.7014 154.513 66.0352 154.572 64.6133L150.108 64.9688L149.929 69.0569C150.215 69.1991 150.882 69.8271 150.644 70.6566C152.358 69.519 152.429 67.8127 151.894 67.1017C152.608 67.2439 152.191 68.9384 151.894 69.7679Z" fill="#C3C6C9"/>
<path fillRule="evenodd" clipRule="evenodd" d="M146 54.1432C141.66 54.1432 138.143 57.6609 138.143 62.0003V64.5003C138.143 67.6562 140.701 70.2146 143.857 70.2146H143.857V72.0001C143.857 73.1836 144.816 74.143 146 74.143C147.183 74.143 148.143 73.1836 148.143 72.0001V70.2146C151.299 70.2145 153.857 67.6562 153.857 64.5003V62.0003C153.857 57.661 150.339 54.1432 146 54.1432Z" fill="#F6E9E7"/>
<circle cx="154.213" cy="63.0716" r="1.78571" fill="#F6E9E7"/>
<circle cx="138.143" cy="63.0716" r="1.78571" fill="#F6E9E7"/>
<path d="M149.928 62.9025C144.071 62.9025 142.606 59.2768 142.606 57.4639C139.749 59.0078 138.44 62.0838 138.142 63.4288L137.428 59.3937L139.392 55.5341L146.178 53.4288L152.071 54.8323L154.571 60.0955L153.499 63.4288C151.213 63.1481 148.38 60.2709 147.249 58.8674C147.535 60.8323 149.154 62.3762 149.928 62.9025Z" fill="#C3C6C9"/>
</g>
<rect x="166" y="49" width="46.5455" height="7.28571" rx="3.64286" fill="#C3C6C9"/>
<rect x="166" y="71" width="46.5455" height="7.28571" rx="3.64286" fill="#E6F2F7"/>
<rect x="166" y="60" width="24" height="7" rx="3.5" fill="#E6F2F7"/>
<rect x="130" y="88" width="112" height="16" rx="4" fill="#ECECEC"/>
<rect x="130" y="110" width="112" height="8" rx="4" fill="#ECECEC"/>
<rect x="130" y="122" width="112" height="8" rx="4" fill="#ECECEC"/>
<rect x="165" y="93" width="85" height="32" rx="4" fill="#69A3CC"/>
<path d="M186.389 113.12C185.749 113.12 185.153 113.016 184.601 112.808C184.057 112.592 183.581 112.292 183.173 111.908C182.773 111.516 182.461 111.056 182.237 110.528C182.013 110 181.901 109.424 181.901 108.8C181.901 108.176 182.013 107.6 182.237 107.072C182.461 106.544 182.777 106.088 183.185 105.704C183.593 105.312 184.069 105.012 184.613 104.804C185.157 104.588 185.753 104.48 186.401 104.48C187.089 104.48 187.717 104.6 188.285 104.84C188.853 105.072 189.333 105.42 189.725 105.884L188.717 106.832C188.413 106.504 188.073 106.26 187.697 106.1C187.321 105.932 186.913 105.848 186.473 105.848C186.033 105.848 185.629 105.92 185.261 106.064C184.901 106.208 184.585 106.412 184.313 106.676C184.049 106.94 183.841 107.252 183.689 107.612C183.545 107.972 183.473 108.368 183.473 108.8C183.473 109.232 183.545 109.628 183.689 109.988C183.841 110.348 184.049 110.66 184.313 110.924C184.585 111.188 184.901 111.392 185.261 111.536C185.629 111.68 186.033 111.752 186.473 111.752C186.913 111.752 187.321 111.672 187.697 111.512C188.073 111.344 188.413 111.092 188.717 110.756L189.725 111.716C189.333 112.172 188.853 112.52 188.285 112.76C187.717 113 187.085 113.12 186.389 113.12ZM193.71 113.084C193.054 113.084 192.47 112.944 191.958 112.664C191.446 112.376 191.042 111.984 190.746 111.488C190.45 110.992 190.302 110.428 190.302 109.796C190.302 109.156 190.45 108.592 190.746 108.104C191.042 107.608 191.446 107.22 191.958 106.94C192.47 106.66 193.054 106.52 193.71 106.52C194.374 106.52 194.962 106.66 195.474 106.94C195.994 107.22 196.398 107.604 196.686 108.092C196.982 108.58 197.13 109.148 197.13 109.796C197.13 110.428 196.982 110.992 196.686 111.488C196.398 111.984 195.994 112.376 195.474 112.664C194.962 112.944 194.374 113.084 193.71 113.084ZM193.71 111.8C194.078 111.8 194.406 111.72 194.694 111.56C194.982 111.4 195.206 111.168 195.366 110.864C195.534 110.56 195.618 110.204 195.618 109.796C195.618 109.38 195.534 109.024 195.366 108.728C195.206 108.424 194.982 108.192 194.694 108.032C194.406 107.872 194.082 107.792 193.722 107.792C193.354 107.792 193.026 107.872 192.738 108.032C192.458 108.192 192.234 108.424 192.066 108.728C191.898 109.024 191.814 109.38 191.814 109.796C191.814 110.204 191.898 110.56 192.066 110.864C192.234 111.168 192.458 111.4 192.738 111.56C193.026 111.72 193.35 111.8 193.71 111.8ZM202.2 106.52C202.712 106.52 203.168 106.62 203.568 106.82C203.976 107.02 204.296 107.328 204.528 107.744C204.76 108.152 204.876 108.68 204.876 109.328V113H203.376V109.52C203.376 108.952 203.24 108.528 202.968 108.248C202.704 107.968 202.332 107.828 201.852 107.828C201.5 107.828 201.188 107.9 200.916 108.044C200.644 108.188 200.432 108.404 200.28 108.692C200.136 108.972 200.064 109.328 200.064 109.76V113H198.564V106.592H199.992V108.32L199.74 107.792C199.964 107.384 200.288 107.072 200.712 106.856C201.144 106.632 201.64 106.52 202.2 106.52ZM210.415 106.52C210.927 106.52 211.383 106.62 211.783 106.82C212.191 107.02 212.511 107.328 212.743 107.744C212.975 108.152 213.091 108.68 213.091 109.328V113H211.591V109.52C211.591 108.952 211.455 108.528 211.183 108.248C210.919 107.968 210.547 107.828 210.067 107.828C209.715 107.828 209.403 107.9 209.131 108.044C208.859 108.188 208.647 108.404 208.495 108.692C208.351 108.972 208.279 109.328 208.279 109.76V113H206.779V106.592H208.207V108.32L207.955 107.792C208.179 107.384 208.503 107.072 208.927 106.856C209.359 106.632 209.855 106.52 210.415 106.52ZM218.017 113.084C217.305 113.084 216.681 112.944 216.145 112.664C215.617 112.376 215.205 111.984 214.909 111.488C214.621 110.992 214.477 110.428 214.477 109.796C214.477 109.156 214.617 108.592 214.897 108.104C215.185 107.608 215.577 107.22 216.073 106.94C216.577 106.66 217.149 106.52 217.789 106.52C218.413 106.52 218.969 106.656 219.457 106.928C219.945 107.2 220.329 107.584 220.609 108.08C220.889 108.576 221.029 109.16 221.029 109.832C221.029 109.896 221.025 109.968 221.017 110.048C221.017 110.128 221.013 110.204 221.005 110.276H215.665V109.28H220.213L219.625 109.592C219.633 109.224 219.557 108.9 219.397 108.62C219.237 108.34 219.017 108.12 218.737 107.96C218.465 107.8 218.149 107.72 217.789 107.72C217.421 107.72 217.097 107.8 216.817 107.96C216.545 108.12 216.329 108.344 216.169 108.632C216.017 108.912 215.941 109.244 215.941 109.628V109.868C215.941 110.252 216.029 110.592 216.205 110.888C216.381 111.184 216.629 111.412 216.949 111.572C217.269 111.732 217.637 111.812 218.053 111.812C218.413 111.812 218.737 111.756 219.025 111.644C219.313 111.532 219.569 111.356 219.793 111.116L220.597 112.04C220.309 112.376 219.945 112.636 219.505 112.82C219.073 112.996 218.577 113.084 218.017 113.084ZM225.41 113.084C224.738 113.084 224.138 112.944 223.61 112.664C223.09 112.376 222.682 111.984 222.386 111.488C222.09 110.992 221.942 110.428 221.942 109.796C221.942 109.156 222.09 108.592 222.386 108.104C222.682 107.608 223.09 107.22 223.61 106.94C224.138 106.66 224.738 106.52 225.41 106.52C226.034 106.52 226.582 106.648 227.054 106.904C227.534 107.152 227.898 107.52 228.146 108.008L226.994 108.68C226.802 108.376 226.566 108.152 226.286 108.008C226.014 107.864 225.718 107.792 225.398 107.792C225.03 107.792 224.698 107.872 224.402 108.032C224.106 108.192 223.874 108.424 223.706 108.728C223.538 109.024 223.454 109.38 223.454 109.796C223.454 110.212 223.538 110.572 223.706 110.876C223.874 111.172 224.106 111.4 224.402 111.56C224.698 111.72 225.03 111.8 225.398 111.8C225.718 111.8 226.014 111.728 226.286 111.584C226.566 111.44 226.802 111.216 226.994 110.912L228.146 111.584C227.898 112.064 227.534 112.436 227.054 112.7C226.582 112.956 226.034 113.084 225.41 113.084ZM231.937 113.084C231.233 113.084 230.689 112.904 230.305 112.544C229.921 112.176 229.729 111.636 229.729 110.924V105.176H231.229V110.888C231.229 111.192 231.305 111.428 231.457 111.596C231.617 111.764 231.837 111.848 232.117 111.848C232.453 111.848 232.733 111.76 232.957 111.584L233.377 112.652C233.201 112.796 232.985 112.904 232.729 112.976C232.473 113.048 232.209 113.084 231.937 113.084ZM228.673 107.84V106.64H232.945V107.84H228.673Z" fill="white"/>
<path fillRule="evenodd" clipRule="evenodd" d="M162.41 91.9265V91.929C158.32 92.0001 155.018 95.3017 154.946 99.3912H154.945C154.873 95.3024 151.572 92.0013 147.483 91.929V91.9264C151.572 91.8542 154.873 88.5531 154.945 84.4644H154.946C155.018 88.5538 158.32 91.8554 162.41 91.9265Z" fill="#EB896A"/>
<path fillRule="evenodd" clipRule="evenodd" d="M171.201 83.6312C168.475 83.5842 166.274 81.3838 166.226 78.6581H166.224C166.176 81.3824 163.977 83.5821 161.253 83.6312V83.6329C163.977 83.6821 166.176 85.8818 166.224 88.6063H166.226C166.274 85.8805 168.475 83.6799 171.201 83.6328V83.6312Z" fill="#F6E9E7"/>
<rect x="64" y="85" width="32" height="32" rx="8" fill="white"/>
<mask id="mask3_2575_72019" style="mask-type:alpha" maskUnits="userSpaceOnUse" x="64" y="85" width="32" height="32">
<rect x="64" y="85" width="32" height="32" rx="8" fill="white"/>
</mask>
<g mask="url(#mask3_2575_72019)">
<path d="M70 117.157C70 112.028 74.1574 107.871 79.2857 107.871H80.7143C85.8426 107.871 90 112.028 90 117.157H70Z" fill="#C1DDED"/>
<ellipse cx="79.9992" cy="96.9781" rx="8.57143" ry="8.39286" fill="#C3C6C9"/>
<path fillRule="evenodd" clipRule="evenodd" d="M80 90.0138C75.8579 90.0138 72.5 93.3717 72.5 97.5138V99.6566C72.5 102.842 74.8167 105.486 77.8571 105.996V107.871C77.8571 109.054 78.8165 110.014 79.9999 110.014C81.1834 110.014 82.1428 109.054 82.1428 107.871V105.996C85.1832 105.486 87.5 102.842 87.5 99.6567V97.5138C87.5 93.3717 84.1421 90.0138 80 90.0138Z" fill="#F6E9E7"/>
<circle cx="72.1431" cy="99.6567" r="1.78571" fill="#F6E9E7"/>
<circle cx="87.858" cy="99.6567" r="1.78571" fill="#F6E9E7"/>
<path d="M72.8574 93.4067C78.4289 94.9781 83.036 92.3948 84.6431 90.9067L80.3574 89.2996L75.8931 90.1924L72.8574 93.4067Z" fill="#C3C6C9"/>
<path d="M83.7497 88.4067C76.964 86.621 73.5711 91.2639 73.3926 91.7996L75.714 92.1566L84.1069 91.0852C87.5354 90.3709 88.1545 88.9424 88.0354 88.2281C86.7497 89.2281 85.0936 88.7603 83.7497 88.4067Z" fill="#C3C6C9"/>
<path d="M87.6789 95.9067C85.536 95.1925 83.5717 92.2758 82.8574 90.9067L85.3574 91.2639L86.9646 93.4067L87.6789 95.9067Z" fill="#C3C6C9"/>
<path fillRule="evenodd" clipRule="evenodd" d="M73.5723 97.1567H79.1321V97.5911C79.1321 97.6024 79.132 97.6137 79.1319 97.625L80.8697 97.625C80.8696 97.6137 80.8695 97.6024 80.8695 97.5911V97.1568H86.4293V97.5911C86.4293 99.1264 85.1847 100.371 83.6494 100.371C82.3863 100.371 81.32 99.5286 80.9816 98.375L79.0201 98.375C78.6816 99.5286 77.6153 100.371 76.3522 100.371C74.8169 100.371 73.5723 99.1264 73.5723 97.5911V97.1567Z" fill="white"/>
</g>
</g>
<defs>
<clipPath id="clip0_2575_72019">
<path d="M16 24C16 19.5817 19.5817 16 24 16H258C262.418 16 266 19.5817 266 24V133H16V24Z" fill="white"/>
</clipPath>
</defs>
</svg>
