
<svg width="314" height="86" viewBox="0 0 314 86" fill="none" xmlns="http://www.w3.org/2000/svg">
<mask id="path-1-inside-1_26864_43358" fill="white">
<path fill-rule="evenodd" clip-rule="evenodd" d="M0 0H314V10.0407C313.753 10.0138 313.502 10 313.248 10C309.617 10 306.673 12.8121 306.673 16.281C306.673 19.7499 309.617 22.562 313.248 22.562C313.502 22.562 313.753 22.5482 314 22.5214V29.1852C313.753 29.1583 313.502 29.1445 313.248 29.1445C309.617 29.1445 306.673 31.9566 306.673 35.4256C306.673 38.8945 309.617 41.7066 313.248 41.7066C313.502 41.7066 313.753 41.6928 314 41.6659V48.3298C313.753 48.3029 313.502 48.2891 313.248 48.2891C309.617 48.2891 306.673 51.1012 306.673 54.5701C306.673 58.039 309.617 60.8511 313.248 60.8511C313.502 60.8511 313.753 60.8373 314 60.8104V67.4704C313.753 67.4435 313.502 67.4297 313.248 67.4297C309.617 67.4297 306.673 70.2418 306.673 73.7107C306.673 77.1796 309.617 79.9917 313.248 79.9917C313.502 79.9917 313.753 79.9779 314 79.951V86H0V77.9856C0.0974956 77.9897 0.195543 77.9917 0.294096 77.9917C3.92489 77.9917 6.86823 75.1796 6.86823 71.7107C6.86823 68.2418 3.92489 65.4297 0.294097 65.4297C0.195543 65.4297 0.0974957 65.4318 0 65.4359V58.8449C0.0974956 58.849 0.195543 58.8511 0.294096 58.8511C3.92489 58.8511 6.86823 56.039 6.86823 52.5701C6.86823 49.1012 3.92489 46.2891 0.294097 46.2891C0.195543 46.2891 0.0974957 46.2911 0 46.2952V39.7004C0.0974956 39.7045 0.195543 39.7066 0.294096 39.7066C3.92489 39.7066 6.86823 36.8945 6.86823 33.4256C6.86823 29.9566 3.92489 27.1445 0.294097 27.1445C0.195543 27.1445 0.0974957 27.1466 0 27.1507V20.5559C0.0974956 20.56 0.195543 20.562 0.294096 20.562C3.92489 20.562 6.86823 17.7499 6.86823 14.281C6.86823 10.8121 3.92489 8 0.294097 8C0.195543 8 0.0974957 8.00207 0 8.00617V0Z"/>
</mask>
<path fill-rule="evenodd" clip-rule="evenodd" d="M0 0H314V10.0407C313.753 10.0138 313.502 10 313.248 10C309.617 10 306.673 12.8121 306.673 16.281C306.673 19.7499 309.617 22.562 313.248 22.562C313.502 22.562 313.753 22.5482 314 22.5214V29.1852C313.753 29.1583 313.502 29.1445 313.248 29.1445C309.617 29.1445 306.673 31.9566 306.673 35.4256C306.673 38.8945 309.617 41.7066 313.248 41.7066C313.502 41.7066 313.753 41.6928 314 41.6659V48.3298C313.753 48.3029 313.502 48.2891 313.248 48.2891C309.617 48.2891 306.673 51.1012 306.673 54.5701C306.673 58.039 309.617 60.8511 313.248 60.8511C313.502 60.8511 313.753 60.8373 314 60.8104V67.4704C313.753 67.4435 313.502 67.4297 313.248 67.4297C309.617 67.4297 306.673 70.2418 306.673 73.7107C306.673 77.1796 309.617 79.9917 313.248 79.9917C313.502 79.9917 313.753 79.9779 314 79.951V86H0V77.9856C0.0974956 77.9897 0.195543 77.9917 0.294096 77.9917C3.92489 77.9917 6.86823 75.1796 6.86823 71.7107C6.86823 68.2418 3.92489 65.4297 0.294097 65.4297C0.195543 65.4297 0.0974957 65.4318 0 65.4359V58.8449C0.0974956 58.849 0.195543 58.8511 0.294096 58.8511C3.92489 58.8511 6.86823 56.039 6.86823 52.5701C6.86823 49.1012 3.92489 46.2891 0.294097 46.2891C0.195543 46.2891 0.0974957 46.2911 0 46.2952V39.7004C0.0974956 39.7045 0.195543 39.7066 0.294096 39.7066C3.92489 39.7066 6.86823 36.8945 6.86823 33.4256C6.86823 29.9566 3.92489 27.1445 0.294097 27.1445C0.195543 27.1445 0.0974957 27.1466 0 27.1507V20.5559C0.0974956 20.56 0.195543 20.562 0.294096 20.562C3.92489 20.562 6.86823 17.7499 6.86823 14.281C6.86823 10.8121 3.92489 8 0.294097 8C0.195543 8 0.0974957 8.00207 0 8.00617V0Z" fill="url(#paint0_radial_26864_43358)"/>
<path d="M314 0H315V-1H314V0ZM0 0V-1H-1V0H0ZM314 10.0407L313.892 11.0348L315 11.1555V10.0407H314ZM314 22.5214H315V21.4066L313.892 21.5272L314 22.5214ZM314 29.1852L313.892 30.1794L315 30.3V29.1852H314ZM314 41.6659H315V40.5511L313.892 40.6718L314 41.6659ZM314 48.3298L313.892 49.3239L315 49.4445V48.3298H314ZM314 60.8104H315V59.6956L313.892 59.8163L314 60.8104ZM314 67.4704L313.892 68.4645L315 68.5852V67.4704H314ZM314 79.951H315V78.8362L313.892 78.9569L314 79.951ZM314 86V87H315V86H314ZM0 86H-1V87H0V86ZM0 77.9856L0.0419852 76.9865L-1 76.9427V77.9856H0ZM0 65.4359H-1V66.4788L0.0419851 66.435L0 65.4359ZM0 58.8449L0.0420242 57.8458L-1 57.802V58.8449H0ZM0 46.2952H-1V47.3382L0.0420242 47.2943L0 46.2952ZM0 39.7004L0.0420242 38.7013L-1 38.6575V39.7004H0ZM0 27.1507H-1V28.1936L0.0420242 28.1498L0 27.1507ZM0 20.5559L0.0420242 19.5568L-1 19.5129V20.5559H0ZM0 8.00617H-1V9.04912L0.0420242 9.00529L0 8.00617ZM314 -1H0V1H314V-1ZM315 10.0407V0H313V10.0407H315ZM313.248 11C313.466 11 313.681 11.0118 313.892 11.0348L314.108 9.04657C313.825 9.01578 313.538 9 313.248 9V11ZM307.673 16.281C307.673 13.4069 310.126 11 313.248 11V9C309.108 9 305.673 12.2173 305.673 16.281H307.673ZM313.248 21.562C310.126 21.562 307.673 19.1552 307.673 16.281H305.673C305.673 20.3447 309.108 23.562 313.248 23.562V21.562ZM313.892 21.5272C313.681 21.5502 313.466 21.562 313.248 21.562V23.562C313.538 23.562 313.825 23.5463 314.108 23.5155L313.892 21.5272ZM315 29.1852V22.5214H313V29.1852H315ZM313.248 30.1445C313.466 30.1445 313.681 30.1564 313.892 30.1794L314.108 28.1911C313.825 28.1603 313.538 28.1445 313.248 28.1445V30.1445ZM307.673 35.4256C307.673 32.5514 310.126 30.1445 313.248 30.1445V28.1445C309.108 28.1445 305.673 31.3619 305.673 35.4256H307.673ZM313.248 40.7066C310.126 40.7066 307.673 38.2997 307.673 35.4256H305.673C305.673 39.4892 309.108 42.7066 313.248 42.7066V40.7066ZM313.892 40.6718C313.681 40.6947 313.466 40.7066 313.248 40.7066V42.7066C313.538 42.7066 313.825 42.6908 314.108 42.66L313.892 40.6718ZM315 48.3298V41.6659H313V48.3298H315ZM314.108 47.3356C313.825 47.3048 313.538 47.2891 313.248 47.2891V49.2891C313.466 49.2891 313.681 49.3009 313.892 49.3239L314.108 47.3356ZM313.248 47.2891C309.108 47.2891 305.673 50.5064 305.673 54.5701H307.673C307.673 51.6959 310.126 49.2891 313.248 49.2891V47.2891ZM305.673 54.5701C305.673 58.6338 309.108 61.8511 313.248 61.8511V59.8511C310.126 59.8511 307.673 57.4442 307.673 54.5701H305.673ZM313.248 61.8511C313.538 61.8511 313.825 61.8353 314.108 61.8045L313.892 59.8163C313.681 59.8393 313.466 59.8511 313.248 59.8511V61.8511ZM315 67.4704V60.8104H313V67.4704H315ZM313.248 68.4297C313.466 68.4297 313.681 68.4415 313.892 68.4645L314.108 66.4763C313.825 66.4455 313.538 66.4297 313.248 66.4297V68.4297ZM307.673 73.7107C307.673 70.8366 310.126 68.4297 313.248 68.4297V66.4297C309.108 66.4297 305.673 69.647 305.673 73.7107H307.673ZM313.248 78.9917C310.126 78.9917 307.673 76.5849 307.673 73.7107H305.673C305.673 77.7744 309.108 80.9917 313.248 80.9917V78.9917ZM313.892 78.9569C313.681 78.9799 313.466 78.9917 313.248 78.9917V80.9917C313.538 80.9917 313.825 80.976 314.108 80.9452L313.892 78.9569ZM315 86V79.951H313V86H315ZM0 87H314V85H0V87ZM-1 77.9856V86H1V77.9856H-1ZM0.294096 76.9917C0.209582 76.9917 0.125533 76.99 0.0419852 76.9865L-0.0419852 78.9847C0.0694582 78.9894 0.181504 78.9917 0.294096 78.9917V76.9917ZM5.86823 71.7107C5.86823 74.5848 3.41608 76.9917 0.294096 76.9917V78.9917C4.4337 78.9917 7.86823 75.7744 7.86823 71.7107H5.86823ZM0.294097 66.4297C3.41608 66.4297 5.86823 68.8366 5.86823 71.7107H7.86823C7.86823 67.647 4.4337 64.4297 0.294097 64.4297V66.4297ZM0.0419851 66.435C0.125533 66.4315 0.209582 66.4297 0.294097 66.4297V64.4297C0.181504 64.4297 0.0694584 64.4321 -0.0419851 64.4367L0.0419851 66.435ZM-1 58.8449V65.4359H1V58.8449H-1ZM0.294096 57.8511C0.209556 57.8511 0.12552 57.8493 0.0420242 57.8458L-0.0420242 59.8441C0.0694712 59.8487 0.18153 59.8511 0.294096 59.8511V57.8511ZM5.86823 52.5701C5.86823 55.4442 3.41608 57.8511 0.294096 57.8511V59.8511C4.4337 59.8511 7.86823 56.6338 7.86823 52.5701H5.86823ZM0.294097 47.2891C3.41608 47.2891 5.86823 49.6959 5.86823 52.5701H7.86823C7.86823 48.5064 4.43371 45.2891 0.294097 45.2891V47.2891ZM0.0420242 47.2943C0.12552 47.2908 0.209556 47.2891 0.294097 47.2891V45.2891C0.18153 45.2891 0.0694714 45.2914 -0.0420242 45.2961L0.0420242 47.2943ZM-1 39.7004V46.2952H1V39.7004H-1ZM0.294096 38.7066C0.209556 38.7066 0.12552 38.7048 0.0420242 38.7013L-0.0420242 40.6995C0.0694712 40.7042 0.18153 40.7066 0.294096 40.7066V38.7066ZM5.86823 33.4256C5.86823 36.2997 3.41608 38.7066 0.294096 38.7066V40.7066C4.4337 40.7066 7.86823 37.4892 7.86823 33.4256H5.86823ZM0.294097 28.1445C3.41608 28.1445 5.86823 30.5514 5.86823 33.4256H7.86823C7.86823 29.3619 4.43371 26.1445 0.294097 26.1445V28.1445ZM0.0420242 28.1498C0.12552 28.1463 0.209556 28.1445 0.294097 28.1445V26.1445C0.18153 26.1445 0.0694714 26.1469 -0.0420242 26.1516L0.0420242 28.1498ZM-1 20.5559V27.1507H1V20.5559H-1ZM0.294096 19.562C0.209556 19.562 0.12552 19.5603 0.0420242 19.5568L-0.0420242 21.555C0.0694712 21.5597 0.18153 21.562 0.294096 21.562V19.562ZM5.86823 14.281C5.86823 17.1552 3.41608 19.562 0.294096 19.562V21.562C4.4337 21.562 7.86823 18.3447 7.86823 14.281H5.86823ZM0.294097 9C3.41608 9 5.86823 11.4069 5.86823 14.281H7.86823C7.86823 10.2173 4.4337 7 0.294097 7V9ZM0.0420242 9.00529C0.125527 9.00178 0.209563 9 0.294097 9V7C0.181523 7 0.0694649 7.00237 -0.0420242 7.00706L0.0420242 9.00529ZM-1 0V8.00617H1V0H-1Z" fill="#D0E3EF" mask="url(#path-1-inside-1_26864_43358)"/>
<defs>
<radialGradient id="paint0_radial_26864_43358" cx="0" cy="0" r="1" gradientUnits="userSpaceOnUse" gradientTransform="translate(286.787 136.5) rotate(-133.141) scale(235.723 220.556)">
<stop stop-color="#B1CFE4"/>
<stop offset="0.607421" stop-color="#F5F8FB"/>
</radialGradient>
</defs>
</svg>
