<svg width="206" height="160" viewBox="0 0 206 160" fill="none" xmlns="http://www.w3.org/2000/svg">
<path fillRule="evenodd" clipRule="evenodd" d="M52.6625 7.72945C51.885 7.74857 51.1022 7.79212 50.3159 7.86012L50.2118 6.65628C51.0225 6.58617 51.8301 6.54122 52.6328 6.52148L52.6625 7.72945ZM56.1814 7.81292C55.7934 7.78445 55.4033 7.76239 55.0112 7.74676L55.0593 6.53938C55.4647 6.55555 55.8683 6.57836 56.2699 6.60783C56.6726 6.63739 57.0769 6.67116 57.4827 6.70902L57.3705 7.91213C56.9724 7.87499 56.576 7.84189 56.1814 7.81292ZM47.9795 8.13291C47.2084 8.24622 46.4358 8.38275 45.6637 8.54249L45.4189 7.35921C46.2138 7.19476 47.0094 7.05415 47.8039 6.93741L47.9795 8.13291ZM62.1547 8.53267C61.3562 8.40192 60.5633 8.28481 59.7765 8.18212L59.9328 6.98395C60.7333 7.08841 61.5391 7.20745 62.3499 7.34022L62.1547 8.53267ZM66.9094 9.45209C66.1122 9.27582 65.3197 9.11098 64.532 8.9583L64.7619 7.77205C65.5605 7.92683 66.3633 8.09382 67.1703 8.27225L66.9094 9.45209ZM43.3725 9.08531C42.6184 9.28687 41.8663 9.51069 41.1181 9.75674L40.7407 8.60888C41.5105 8.3557 42.2844 8.12539 43.0605 7.91795L43.3725 9.08531ZM71.6017 10.6027C70.8158 10.3922 70.0333 10.1911 69.2548 9.99986L69.543 8.8264C70.3301 9.01969 71.1206 9.22297 71.9143 9.43553L71.6017 10.6027ZM38.9037 10.5549C38.1759 10.8407 37.4535 11.148 36.7381 11.4767L36.2335 10.3788C36.9698 10.0404 37.7132 9.72421 38.462 9.43016L38.9037 10.5549ZM76.2563 11.9411C75.4808 11.7038 74.708 11.474 73.9381 11.2523L74.2725 10.0912C75.049 10.3148 75.8283 10.5465 76.6099 10.7856L76.2563 11.9411ZM34.6292 12.5197C33.9383 12.8863 33.2558 13.2738 32.5831 13.6822L31.956 12.6494C32.6488 12.2288 33.3516 11.8297 34.0628 11.4523L34.6292 12.5197ZM80.8739 13.4283C80.1056 13.1693 79.3393 12.9164 78.5752 12.67L78.946 11.52C79.7154 11.7681 80.4868 12.0227 81.2599 12.2833L80.8739 13.4283ZM85.4575 15.0326C84.6934 14.756 83.9306 14.4841 83.1695 14.2175L83.569 13.0771C84.3343 13.3452 85.101 13.6185 85.8688 13.8964L85.4575 15.0326ZM30.6094 14.961C29.9663 15.405 29.3344 15.8693 28.7151 16.3539L27.9705 15.4022C28.6089 14.9027 29.2602 14.4242 29.9228 13.9667L30.6094 14.961ZM90.0108 16.7271C89.2511 16.4373 88.4922 16.1511 87.7343 15.8689L88.156 14.7365C88.9171 15.0199 89.679 15.3073 90.4414 15.5982L90.0108 16.7271ZM94.5375 18.4887C93.7828 18.1898 93.0283 17.8933 92.2743 17.5997L92.7126 16.4737C93.469 16.7682 94.2257 17.0655 94.9824 17.3652L94.5375 18.4887ZM26.9076 17.8584C26.3233 18.3756 25.7527 18.9126 25.1971 19.4691L24.3419 18.6154C24.9153 18.0411 25.504 17.4872 26.1067 16.9536L26.9076 17.8584ZM99.0494 20.2995C98.298 19.9944 97.5463 19.6908 96.7945 19.3889L97.2448 18.2676C97.9981 18.5701 98.7512 18.8743 99.5039 19.1799L99.0494 20.2995ZM103.552 22.1412C102.802 21.8328 102.052 21.5247 101.301 21.2173L101.759 20.099C102.51 20.4067 103.262 20.7151 104.012 21.0237L103.552 22.1412ZM23.59 21.1827C23.0748 21.7677 22.5755 22.3717 22.0933 22.9945L21.1378 22.2549C21.6357 21.6117 22.1513 20.9881 22.6832 20.3841L23.59 21.1827ZM108.052 23.9962L105.8 23.0673L106.261 21.9502L108.512 22.8791L108.052 23.9962ZM112.555 25.8466C111.805 25.5404 111.054 25.2323 110.302 24.9228L110.761 23.8052C111.513 24.1145 112.264 24.4223 113.012 24.7281L112.555 25.8466ZM20.7154 24.8967C20.2797 25.5404 19.8616 26.2021 19.4622 26.8818L18.4204 26.2697C18.8329 25.5677 19.2647 24.8842 19.7147 24.2194L20.7154 24.8967ZM117.067 27.6736C116.318 27.3737 115.566 27.0708 114.812 26.7654L115.266 25.6455C116.018 25.9503 116.768 26.2526 117.516 26.5517L117.067 27.6736ZM121.604 29.4596C120.852 29.1691 120.096 28.8741 119.338 28.5754L119.78 27.4511C120.537 27.7489 121.29 28.0429 122.04 28.3324L121.604 29.4596ZM18.3373 28.9439C17.9871 29.6373 17.6557 30.3477 17.3442 31.075L16.2334 30.5993C16.555 29.8486 16.8971 29.1152 17.2587 28.3993L18.3373 28.9439ZM126.174 31.1802C125.415 30.9025 124.652 30.6189 123.885 30.33L124.311 29.1993C125.074 29.4869 125.834 29.7692 126.589 30.0454L126.174 31.1802ZM130.779 32.8036C130.011 32.5441 129.238 32.2768 128.461 32.0024L128.863 30.863C129.635 31.1356 130.403 31.4012 131.166 31.6589L130.779 32.8036ZM135.424 34.2913C134.654 34.0596 133.878 33.8181 133.097 33.5675L133.466 32.4169C134.241 32.6654 135.01 32.9047 135.773 33.1342L135.424 34.2913ZM167.675 33.6093C167.335 33.8586 166.987 34.095 166.632 34.3188L165.987 33.2969C166.319 33.0878 166.644 32.867 166.962 32.6341L167.675 33.6093ZM16.4865 33.2629C16.2262 33.9922 15.9853 34.7372 15.7646 35.4979L14.6041 35.1612C14.8315 34.3773 15.08 33.6091 15.3485 32.8568L16.4865 33.2629ZM140.148 35.6014C139.367 35.4049 138.579 35.1957 137.784 34.9747L138.107 33.8105C138.894 34.029 139.672 34.2357 140.443 34.4296L140.148 35.6014ZM164.427 35.5117C163.672 35.8575 162.893 36.156 162.091 36.4099L161.726 35.2579C162.483 35.0183 163.216 34.7375 163.923 34.4132L164.427 35.5117ZM144.937 36.657C144.141 36.5086 143.335 36.3437 142.52 36.1633L142.782 34.9836C143.584 35.1612 144.376 35.3234 145.158 35.4691L144.937 36.657ZM159.672 37.0293C158.871 37.1897 158.049 37.3124 157.21 37.3998L157.085 36.198C157.889 36.1142 158.673 35.997 159.435 35.8444L159.672 37.0293ZM149.803 37.3587C149.001 37.2803 148.188 37.1804 147.364 37.0606L147.538 35.8649C148.345 35.9822 149.139 36.0797 149.921 36.1562L149.803 37.3587ZM154.73 37.5562C153.919 37.576 153.094 37.5674 152.254 37.532L152.305 36.3248C153.119 36.359 153.918 36.3674 154.7 36.3482L154.73 37.5562ZM15.1765 37.7739C15.0897 38.1557 15.0078 38.5412 14.9309 38.9303C14.8555 39.3122 14.7778 39.7088 14.6997 40.1204L13.5125 39.8952C13.5915 39.4791 13.6699 39.079 13.7455 38.6962C13.8246 38.2958 13.9089 37.899 13.9983 37.5059L15.1765 37.7739ZM14.2842 42.5088C14.166 43.2711 14.0579 44.0707 13.9694 44.9052L12.7678 44.7778C12.8586 43.9211 12.9695 43.1021 13.0901 42.3237L14.2842 42.5088ZM13.7821 47.3081C13.7442 48.086 13.7278 48.8884 13.7393 49.7137L12.5311 49.7305C12.5192 48.8783 12.5361 48.0506 12.5752 47.2492L13.7821 47.3081ZM13.8521 52.1166C13.915 52.8962 14.0052 53.6932 14.1274 54.5063L12.9325 54.6859C12.806 53.8444 12.7127 53.0199 12.6477 52.2137L13.8521 52.1166ZM14.5658 56.8642C14.7357 57.6292 14.9355 58.4068 15.1689 59.1961L14.0101 59.5387C13.7688 58.7223 13.562 57.9178 13.3862 57.1261L14.5658 56.8642ZM15.9257 61.471C16.1973 62.2051 16.4993 62.9482 16.834 63.6997L15.7303 64.1914C15.3849 63.4161 15.0731 62.6489 14.7924 61.8904L15.9257 61.471ZM17.8839 65.8718C18.2452 66.5648 18.6356 67.2642 19.0567 67.9694L18.0194 68.589C17.5863 67.864 17.1847 67.1443 16.8125 66.4306L17.8839 65.8718ZM20.3482 70.0032C20.7866 70.6546 21.2521 71.3105 21.7463 71.9705L20.7791 72.6947C20.2729 72.0187 19.7956 71.3463 19.3457 70.6779L20.3482 70.0032ZM23.2398 73.8701C23.7406 74.4778 24.2663 75.0886 24.8181 75.7023L23.9195 76.5101C23.3564 75.8838 22.8193 75.2598 22.3073 74.6385L23.2398 73.8701ZM26.4717 77.4687C27.0225 78.0344 27.5959 78.6022 28.1928 79.172L27.3585 80.0461C26.7511 79.4663 26.1672 78.8881 25.606 78.3116L26.4717 77.4687ZM29.9749 80.8154C30.5667 81.3432 31.1791 81.8724 31.8129 82.4029L31.0373 83.3294C30.3941 82.791 29.7721 82.2536 29.1706 81.7172L29.9749 80.8154ZM33.7032 83.9385C34.326 84.4297 34.9674 84.9219 35.6279 85.4148L34.9053 86.3832C34.2362 85.8839 33.5862 85.3852 32.9548 84.8872L33.7032 83.9385ZM37.5856 86.8377C37.9181 87.0732 38.2551 87.3089 38.5966 87.5447L37.91 88.5391C37.5646 88.3005 37.2236 88.0621 36.8871 87.8238L37.5856 86.8377Z" fill="#22272F"/>
<path fillRule="evenodd" clipRule="evenodd" d="M202.248 7.02454C202.529 6.57902 202.145 6.01247 201.627 6.10825L165.575 12.7757C164.984 12.8852 164.898 13.6977 165.454 13.928L178.848 19.4786L183.772 34.4765C183.932 34.9622 184.585 35.0426 184.857 34.6102L202.248 7.02454ZM201.408 4.92007C202.961 4.63273 204.113 6.33237 203.27 7.66895L185.88 35.2546C185.062 36.5519 183.103 36.3105 182.624 34.8534L177.873 20.3825L164.991 15.0443C163.324 14.3533 163.581 11.9158 165.356 11.5876L201.408 4.92007Z" fill="#22272F"/>
<path fillRule="evenodd" clipRule="evenodd" d="M173.034 17.396L178.627 19.7949L181.353 27.1774L173.93 27.7784C172.784 27.8712 171.842 26.8869 171.986 25.7459L173.034 17.396ZM174.033 19.1393L173.184 25.8965C173.137 26.2768 173.451 26.6049 173.833 26.574L179.668 26.1015L177.673 20.7006L174.033 19.1393Z" fill="#22272F"/>
<path fillRule="evenodd" clipRule="evenodd" d="M202.439 6.93182L178.451 20.7721L177.847 19.7254L201.835 5.8852L202.439 6.93182Z" fill="#22272F"/>
<path d="M74.0534 124.393C74.4828 123.637 75.2854 123.17 76.1549 123.17H86.2619C88.1145 123.17 89.2782 125.169 88.3633 126.78L70.5232 158.197C70.0938 158.953 69.2912 159.42 68.4217 159.42H58.3147C56.4621 159.42 55.2984 157.421 56.2133 155.81L74.0534 124.393Z" fill="#22272F"/>
<path fillRule="evenodd" clipRule="evenodd" d="M86.2619 124.378H76.1549C75.7201 124.378 75.3189 124.612 75.1042 124.99L57.264 156.407C56.8066 157.212 57.3884 158.212 58.3147 158.212H68.4217C68.8565 158.212 69.2577 157.978 69.4724 157.6L87.3126 126.183C87.77 125.378 87.1882 124.378 86.2619 124.378ZM76.1549 123.17C75.2854 123.17 74.4828 123.637 74.0534 124.393L56.2133 155.81C55.2984 157.421 56.4621 159.42 58.3147 159.42H68.4217C69.2912 159.42 70.0938 158.953 70.5232 158.197L88.3633 126.78C89.2782 125.169 88.1145 123.17 86.2619 123.17H76.1549Z" fill="#22272F"/>
<path d="M69.7021 124.426C70.1262 123.651 70.9388 123.17 71.8217 123.17H81.5016C83.3378 123.17 84.5032 125.137 83.6212 126.747L66.4169 158.164C65.9928 158.938 65.1802 159.42 64.2972 159.42H54.6174C52.7812 159.42 51.6158 157.453 52.4977 155.842L69.7021 124.426Z" fill="#FEFEFE"/>
<path fillRule="evenodd" clipRule="evenodd" d="M81.5016 124.378H71.8217C71.3803 124.378 70.9739 124.619 70.7619 125.006L53.5575 156.423C53.1166 157.228 53.6993 158.212 54.6174 158.212H64.2972C64.7387 158.212 65.145 157.971 65.3571 157.584L82.5614 126.167C83.0024 125.362 82.4197 124.378 81.5016 124.378ZM71.8217 123.17C70.9388 123.17 70.1262 123.651 69.7021 124.426L52.4977 155.842C51.6158 157.453 52.7812 159.42 54.6174 159.42H64.2972C65.1802 159.42 65.9928 158.938 66.4169 158.164L83.6212 126.747C84.5032 125.137 83.3378 123.17 81.5016 123.17H71.8217Z" fill="#22272F"/>
<path d="M126.833 124.426C126.409 123.651 125.596 123.17 124.713 123.17H115.034C113.197 123.17 112.032 125.137 112.914 126.747L130.118 158.164C130.542 158.938 131.355 159.42 132.238 159.42H141.918C143.754 159.42 144.919 157.453 144.037 155.842L126.833 124.426Z" fill="#22272F"/>
<path fillRule="evenodd" clipRule="evenodd" d="M115.034 124.378H124.713C125.155 124.378 125.561 124.619 125.773 125.006L142.978 156.423C143.419 157.228 142.836 158.212 141.918 158.212H132.238C131.796 158.212 131.39 157.971 131.178 157.584L113.974 126.167C113.533 125.362 114.115 124.378 115.034 124.378ZM124.713 123.17C125.596 123.17 126.409 123.651 126.833 124.426L144.037 155.842C144.919 157.453 143.754 159.42 141.918 159.42H132.238C131.355 159.42 130.542 158.938 130.118 158.164L112.914 126.747C112.032 125.137 113.197 123.17 115.034 123.17H124.713Z" fill="#22272F"/>
<path d="M122.482 124.393C122.052 123.637 121.25 123.17 120.38 123.17H110.273C108.421 123.17 107.257 125.169 108.172 126.78L126.012 158.197C126.441 158.953 127.244 159.42 128.113 159.42H138.22C140.073 159.42 141.237 157.421 140.322 155.81L122.482 124.393Z" fill="#FEFEFE"/>
<path fillRule="evenodd" clipRule="evenodd" d="M110.273 124.378H120.38C120.815 124.378 121.216 124.612 121.431 124.99L139.271 156.407C139.729 157.212 139.147 158.212 138.22 158.212H128.113C127.679 158.212 127.277 157.978 127.063 157.6L109.223 126.183C108.765 125.378 109.347 124.378 110.273 124.378ZM120.38 123.17C121.25 123.17 122.052 123.637 122.482 124.393L140.322 155.81C141.237 157.421 140.073 159.42 138.22 159.42H128.113C127.244 159.42 126.441 158.953 126.012 158.197L108.172 126.78C107.257 125.169 108.421 123.17 110.273 123.17H120.38Z" fill="#22272F"/>
<path d="M164.573 73.6283C164.573 108.33 136.441 136.462 101.74 136.462C67.0377 136.462 38.9062 108.33 38.9062 73.6283C38.9062 38.9264 67.0377 10.7949 101.74 10.7949C136.441 10.7949 164.573 38.9264 164.573 73.6283Z" fill="#22272F"/>
<path fillRule="evenodd" clipRule="evenodd" d="M101.74 135.253C135.774 135.253 163.365 107.663 163.365 73.6283C163.365 39.5937 135.774 12.0033 101.74 12.0033C67.705 12.0033 40.1146 39.5937 40.1146 73.6283C40.1146 107.663 67.705 135.253 101.74 135.253ZM101.74 136.462C136.441 136.462 164.573 108.33 164.573 73.6283C164.573 38.9264 136.441 10.7949 101.74 10.7949C67.0377 10.7949 38.9062 38.9264 38.9062 73.6283C38.9062 108.33 67.0377 136.462 101.74 136.462Z" fill="#22272F"/>
<path d="M159.74 73.6283C159.74 108.33 131.879 136.462 97.5104 136.462C63.1422 136.462 35.2812 108.33 35.2812 73.6283C35.2812 38.9264 63.1422 10.7949 97.5104 10.7949C131.879 10.7949 159.74 38.9264 159.74 73.6283Z" fill="#C1EF78"/>
<path fillRule="evenodd" clipRule="evenodd" d="M97.5104 135.253C131.2 135.253 158.531 107.674 158.531 73.6283C158.531 39.5827 131.2 12.0033 97.5104 12.0033C63.8205 12.0033 36.4896 39.5827 36.4896 73.6283C36.4896 107.674 63.8205 135.253 97.5104 135.253ZM97.5104 136.462C131.879 136.462 159.74 108.33 159.74 73.6283C159.74 38.9264 131.879 10.7949 97.5104 10.7949C63.1422 10.7949 35.2812 38.9264 35.2812 73.6283C35.2812 108.33 63.1422 136.462 97.5104 136.462Z" fill="#22272F"/>
<path d="M146.447 74.2324C146.447 101.26 124.537 123.17 97.5098 123.17C70.4823 123.17 48.5723 101.26 48.5723 74.2324C48.5723 47.205 70.4823 25.2949 97.5098 25.2949C124.537 25.2949 146.447 47.205 146.447 74.2324Z" fill="#FEFEFE"/>
<path fillRule="evenodd" clipRule="evenodd" d="M97.5098 121.962C123.87 121.962 145.239 100.593 145.239 74.2324C145.239 47.8723 123.87 26.5033 97.5098 26.5033C71.1497 26.5033 49.7806 47.8723 49.7806 74.2324C49.7806 100.593 71.1497 121.962 97.5098 121.962ZM97.5098 123.17C124.537 123.17 146.447 101.26 146.447 74.2324C146.447 47.205 124.537 25.2949 97.5098 25.2949C70.4823 25.2949 48.5723 47.205 48.5723 74.2324C48.5723 101.26 70.4823 123.17 97.5098 123.17Z" fill="#22272F"/>
<path d="M131.947 74.2324C131.947 93.2517 116.529 108.67 97.5098 108.67C78.4905 108.67 63.0723 93.2517 63.0723 74.2324C63.0723 55.2131 78.4905 39.7949 97.5098 39.7949C116.529 39.7949 131.947 55.2131 131.947 74.2324Z" fill="#C1EF78"/>
<path fillRule="evenodd" clipRule="evenodd" d="M97.5098 107.462C115.862 107.462 130.739 92.5844 130.739 74.2324C130.739 55.8805 115.862 41.0033 97.5098 41.0033C79.1578 41.0033 64.2806 55.8805 64.2806 74.2324C64.2806 92.5844 79.1578 107.462 97.5098 107.462ZM97.5098 108.67C116.529 108.67 131.947 93.2517 131.947 74.2324C131.947 55.2131 116.529 39.7949 97.5098 39.7949C78.4905 39.7949 63.0723 55.2131 63.0723 74.2324C63.0723 93.2517 78.4905 108.67 97.5098 108.67Z" fill="#22272F"/>
<path d="M118.655 74.2337C118.655 85.9122 109.188 95.3796 97.5091 95.3796C85.8306 95.3796 76.3633 85.9122 76.3633 74.2337C76.3633 62.5552 85.8306 53.0879 97.5091 53.0879C109.188 53.0879 118.655 62.5552 118.655 74.2337Z" fill="#FEFEFE"/>
<path fillRule="evenodd" clipRule="evenodd" d="M97.5091 94.1712C108.52 94.1712 117.447 85.2449 117.447 74.2337C117.447 63.2225 108.52 54.2962 97.5091 54.2962C86.4979 54.2962 77.5716 63.2225 77.5716 74.2337C77.5716 85.2449 86.4979 94.1712 97.5091 94.1712ZM97.5091 95.3796C109.188 95.3796 118.655 85.9122 118.655 74.2337C118.655 62.5552 109.188 53.0879 97.5091 53.0879C85.8306 53.0879 76.3633 62.5552 76.3633 74.2337C76.3633 85.9122 85.8306 95.3796 97.5091 95.3796Z" fill="#22272F"/>
<path d="M104.155 74.2337C104.155 77.9041 101.18 80.8796 97.5091 80.8796C93.8387 80.8796 90.8633 77.9041 90.8633 74.2337C90.8633 70.5633 93.8387 67.5879 97.5091 67.5879C101.18 67.5879 104.155 70.5633 104.155 74.2337Z" fill="#C1EF78"/>
<path fillRule="evenodd" clipRule="evenodd" d="M97.5091 79.6712C100.512 79.6712 102.947 77.2368 102.947 74.2337C102.947 71.2307 100.512 68.7962 97.5091 68.7962C94.5061 68.7962 92.0716 71.2307 92.0716 74.2337C92.0716 77.2368 94.5061 79.6712 97.5091 79.6712ZM97.5091 80.8796C101.18 80.8796 104.155 77.9041 104.155 74.2337C104.155 70.5633 101.18 67.5879 97.5091 67.5879C93.8387 67.5879 90.8633 70.5633 90.8633 74.2337C90.8633 77.9041 93.8387 80.8796 97.5091 80.8796Z" fill="#22272F"/>
<path fillRule="evenodd" clipRule="evenodd" d="M15.4127 31.0537C15.2564 31.3484 15.3687 31.7141 15.6634 31.8705L95.4134 74.1621C95.7082 74.3185 96.0739 74.2062 96.2303 73.9114C96.3866 73.6166 96.2743 73.2509 95.9795 73.0946L16.2295 30.803C15.9348 30.6466 15.5691 30.7589 15.4127 31.0537Z" fill="#22272F"/>
<path d="M25.7603 28.9841C25.7272 28.5897 25.5031 28.2365 25.1604 28.0386L10.3799 19.5051C9.5113 19.0036 8.44518 19.7175 8.57801 20.7116L9.29578 26.0835C9.36843 26.6273 9.06561 27.1518 8.55834 27.3607L3.54724 29.4251C2.61992 29.8071 2.53477 31.0873 3.40333 31.5888L18.1544 40.1053C18.5134 40.3126 18.9535 40.3214 19.3204 40.1287L25.6744 36.7919C26.1043 36.5662 26.3573 36.105 26.3167 35.6212L25.7603 28.9841Z" fill="#C1EF78"/>
<path fillRule="evenodd" clipRule="evenodd" d="M25.7623 26.993L10.9819 18.4595C9.24473 17.4566 7.11249 18.8843 7.37814 20.8725L8.09591 26.2444L3.08481 28.3087C1.23016 29.0728 1.05986 31.6332 2.79699 32.6361L17.5481 41.1527C18.2659 41.5671 19.1461 41.5847 19.88 41.1994L26.234 37.8626C27.0938 37.4111 27.5998 36.4888 27.5186 35.5211L26.9622 28.884C26.8961 28.0952 26.4479 27.3888 25.7623 26.993ZM25.1582 28.0395C25.5009 28.2374 25.7251 28.5906 25.7581 28.985L26.3145 35.622C26.3551 36.1059 26.1021 36.567 25.6722 36.7928L19.3182 40.1296C18.9513 40.3223 18.5112 40.3134 18.1522 40.1062L3.40115 31.5897C2.53259 31.0882 2.61774 29.808 3.54506 29.426L8.55616 27.3616C9.06343 27.1526 9.36626 26.6281 9.2936 26.0843L8.57583 20.7124C8.44301 19.7183 9.50912 19.0045 10.3777 19.506L25.1582 28.0395Z" fill="#22272F"/>
<path d="M22.7928 116.877L26.9924 112.534L33.1346 114.106L34.7436 120.111L30.2104 124.544L24.4018 122.882L22.7928 116.877Z" fill="#FEFEFE"/>
<path fillRule="evenodd" clipRule="evenodd" d="M26.761 112.054C26.9137 111.901 27.1361 111.842 27.3446 111.897L33.3494 113.507C33.5579 113.562 33.7207 113.725 33.7766 113.934L35.3856 119.939C35.4415 120.147 35.3819 120.37 35.2292 120.522L30.8335 124.918C30.6809 125.071 30.4584 125.13 30.2499 125.074L24.2451 123.465C24.0366 123.41 23.8738 123.247 23.8179 123.038L22.2089 117.033C22.1531 116.825 22.2127 116.602 22.3653 116.45L26.761 112.054ZM27.3688 113.155L23.9596 116.564L28.6167 117.812L32.0259 114.403L27.3688 113.155ZM32.8803 115.257L29.4711 118.667L30.719 123.324L34.1282 119.914L32.8803 115.257ZM29.5518 123.636L28.304 118.979L23.6469 117.731L24.8948 122.389L29.5518 123.636Z" fill="#22272F"/>
<path fillRule="evenodd" clipRule="evenodd" d="M197.62 78.4616L197.618 78.4616C197.538 82.661 194.146 86.05 189.946 86.1252L189.946 86.1265C194.154 86.2019 197.55 89.6027 197.618 93.8125L197.619 93.8125C197.687 89.6009 201.086 86.199 205.297 86.1264L205.297 86.1253C201.094 86.0529 197.699 82.6629 197.62 78.4616Z" fill="#22272F"/>
<path d="M183.905 68.1908C183.905 69.8591 182.552 71.2116 180.884 71.2116C179.216 71.2116 177.863 69.8591 177.863 68.1908C177.863 66.5224 179.216 65.1699 180.884 65.1699C182.552 65.1699 183.905 66.5224 183.905 68.1908Z" fill="#FEFEFE"/>
<path fillRule="evenodd" clipRule="evenodd" d="M180.885 65.7747C179.55 65.7747 178.468 66.8567 178.468 68.1914C178.468 69.5261 179.55 70.6081 180.885 70.6081C182.219 70.6081 183.301 69.5261 183.301 68.1914C183.301 66.8567 182.219 65.7747 180.885 65.7747ZM177.26 68.1914C177.26 66.1894 178.883 64.5664 180.885 64.5664C182.887 64.5664 184.51 66.1894 184.51 68.1914C184.51 70.1934 182.887 71.8164 180.885 71.8164C178.883 71.8164 177.26 70.1934 177.26 68.1914Z" fill="#22272F"/>
<path d="M7.48893 94.1712C7.48893 94.8386 6.94794 95.3796 6.2806 95.3796C5.61325 95.3796 5.07227 94.8386 5.07227 94.1712C5.07227 93.5039 5.61325 92.9629 6.2806 92.9629C6.94794 92.9629 7.48893 93.5039 7.48893 94.1712Z" fill="#FEFEFE"/>
<path fillRule="evenodd" clipRule="evenodd" d="M6.28125 93.5658C5.94758 93.5658 5.67708 93.8362 5.67708 94.1699C5.67708 94.5036 5.94758 94.7741 6.28125 94.7741C6.61492 94.7741 6.88542 94.5036 6.88542 94.1699C6.88542 93.8362 6.61492 93.5658 6.28125 93.5658ZM4.46875 94.1699C4.46875 93.1689 5.28023 92.3574 6.28125 92.3574C7.28227 92.3574 8.09375 93.1689 8.09375 94.1699C8.09375 95.1709 7.28227 95.9824 6.28125 95.9824C5.28023 95.9824 4.46875 95.1709 4.46875 94.1699Z" fill="#22272F"/>
</svg>
