<svg width="164" height="166" viewBox="0 0 164 166" fill="none" xmlns="http://www.w3.org/2000/svg">
<g id="Group 13426">
<path id="Rectangle 9632" opacity="0.6" d="M99.4219 53.6402C99.4219 52.2406 100.687 51.1812 102.065 51.4272L160.513 61.8643C161.585 62.0558 162.365 62.9882 162.365 64.0773V151.678C162.365 153.077 161.1 154.137 159.722 153.891L101.275 143.453C100.203 143.262 99.4219 142.33 99.4219 141.241V53.6402Z" fill="white"/>
<path id="Rectangle 9632 (Stroke)" opacity="0.6" fill-rule="evenodd" clip-rule="evenodd" d="M160.315 62.9708L101.867 52.5337C101.179 52.4107 100.546 52.9404 100.546 53.6402V141.241C100.546 141.785 100.936 142.251 101.472 142.347L159.92 152.784C160.609 152.907 161.241 152.377 161.241 151.678V64.0773C161.241 63.5327 160.851 63.0665 160.315 62.9708ZM102.065 51.4272C100.687 51.1812 99.4219 52.2406 99.4219 53.6402V141.241C99.4219 142.33 100.203 143.262 101.275 143.453L159.722 153.891C161.1 154.137 162.365 153.077 162.365 151.678V64.0773C162.365 62.9882 161.585 62.0558 160.513 61.8643L102.065 51.4272Z" fill="#0C151D"/>
<path id="Rectangle 9686" d="M89.3057 60.4137C89.3057 59.0043 90.5878 57.9425 91.9725 58.2051L152.668 69.7163C153.729 69.9176 154.497 70.845 154.497 71.925V88.7047C154.497 90.1141 153.215 91.1759 151.83 90.9133L91.1348 79.4021C90.0737 79.2008 89.3057 78.2735 89.3057 77.1935V60.4137Z" fill="white"/>
<path id="Rectangle 9633" opacity="0.5" d="M89.3057 60.4137C89.3057 59.0043 90.5878 57.9425 91.9725 58.2051L152.668 69.7163C153.729 69.9176 154.497 70.845 154.497 71.925V88.7047C154.497 90.1141 153.215 91.1759 151.83 90.9133L91.1348 79.4021C90.0737 79.2008 89.3057 78.2735 89.3057 77.1935V60.4137Z" fill="white"/>
<path id="Rectangle 9633 (Stroke)" opacity="0.5" fill-rule="evenodd" clip-rule="evenodd" d="M152.459 70.8206L91.7631 59.3094C91.0707 59.1781 90.4297 59.709 90.4297 60.4137V77.1935C90.4297 77.7335 90.8137 78.1972 91.3442 78.2978L152.04 89.809C152.732 89.9403 153.373 89.4094 153.373 88.7047V71.925C153.373 71.385 152.989 70.9213 152.459 70.8206ZM91.9725 58.2051C90.5878 57.9425 89.3057 59.0043 89.3057 60.4137V77.1935C89.3057 78.2735 90.0737 79.2008 91.1348 79.4021L151.83 90.9133C153.215 91.1759 154.497 90.1141 154.497 88.7047V71.925C154.497 70.845 153.729 69.9176 152.668 69.7163L91.9725 58.2051Z" fill="#0C151D"/>
<path id="Rectangle 9685" opacity="0.5" d="M89.3057 88.5143C89.3057 87.1049 90.5878 86.0431 91.9725 86.3057L152.668 97.8169C153.729 98.0182 154.497 98.9455 154.497 100.026V116.805C154.497 118.215 153.215 119.277 151.83 119.014L91.1348 107.503C90.0737 107.301 89.3057 106.374 89.3057 105.294V88.5143Z" fill="white"/>
<path id="Rectangle 9685 (Stroke)" opacity="0.5" fill-rule="evenodd" clip-rule="evenodd" d="M152.459 98.9212L91.7631 87.41C91.0707 87.2787 90.4297 87.8096 90.4297 88.5143V105.294C90.4297 105.834 90.8137 106.298 91.3442 106.398L152.04 117.91C152.732 118.041 153.373 117.51 153.373 116.805V100.026C153.373 99.4855 152.989 99.0219 152.459 98.9212ZM91.9725 86.3057C90.5878 86.0431 89.3057 87.1049 89.3057 88.5143V105.294C89.3057 106.374 90.0737 107.301 91.1348 107.503L151.83 119.014C153.215 119.277 154.497 118.215 154.497 116.805V100.026C154.497 98.9455 153.729 98.0182 152.668 97.8169L91.9725 86.3057Z" fill="#0C151D"/>
<path id="Rectangle 9625" d="M55.5859 59.2603C55.5859 57.8607 56.8512 56.8013 58.2291 57.0474L116.677 67.4844C117.749 67.6759 118.53 68.6083 118.53 69.6974V157.298C118.53 158.697 117.264 159.757 115.886 159.511L57.4387 149.074C56.3666 148.882 55.5859 147.95 55.5859 146.861V59.2603Z" fill="white"/>
<path id="Rectangle 9625 (Stroke)" fill-rule="evenodd" clip-rule="evenodd" d="M116.479 68.5909L58.0315 58.1538C57.3426 58.0308 56.7099 58.5605 56.7099 59.2603V146.861C56.7099 147.405 57.1003 147.871 57.6363 147.967L116.084 158.404C116.773 158.527 117.406 157.998 117.406 157.298V69.6974C117.406 69.1529 117.015 68.6866 116.479 68.5909ZM58.2291 57.0474C56.8512 56.8013 55.5859 57.8607 55.5859 59.2603V146.861C55.5859 147.95 56.3666 148.882 57.4387 149.074L115.886 159.511C117.264 159.757 118.53 158.697 118.53 157.298V69.6974C118.53 68.6083 117.749 67.6759 116.677 67.4844L58.2291 57.0474Z" fill="#0C151D"/>
<path id="Rectangle 9626" d="M45.4707 66.0338C45.4707 64.6244 46.7528 63.5626 48.1376 63.8252L108.833 75.3365C109.894 75.5377 110.662 76.4651 110.662 77.5451V94.3248C110.662 95.7343 109.38 96.7961 107.995 96.5334L47.2998 85.0222C46.2387 84.821 45.4707 83.8936 45.4707 82.8136V66.0338Z" fill="white"/>
<path id="Rectangle 9626 (Stroke)" fill-rule="evenodd" clip-rule="evenodd" d="M108.624 76.4408L47.9281 64.9295C47.2357 64.7982 46.5947 65.3291 46.5947 66.0338V82.8136C46.5947 83.3536 46.9787 83.8173 47.5092 83.9179L108.205 95.4291C108.897 95.5604 109.538 95.0295 109.538 94.3248V77.5451C109.538 77.0051 109.154 76.5414 108.624 76.4408ZM48.1376 63.8252C46.7528 63.5626 45.4707 64.6244 45.4707 66.0338V82.8136C45.4707 83.8936 46.2387 84.821 47.2998 85.0222L107.995 96.5334C109.38 96.7961 110.662 95.7343 110.662 94.3248V77.5451C110.662 76.4651 109.894 75.5377 108.833 75.3365L48.1376 63.8252Z" fill="#0C151D"/>
<path id="Rectangle 9627" d="M65.7021 97.5329C65.7021 96.1143 67 95.0504 68.391 95.3286L108.855 103.421C109.905 103.631 110.662 104.554 110.662 105.626V122.397C110.662 123.815 109.364 124.879 107.973 124.601L67.5093 116.508C66.4585 116.298 65.7021 115.375 65.7021 114.304V97.5329Z" fill="white"/>
<path id="Rectangle 9627 (Stroke)" fill-rule="evenodd" clip-rule="evenodd" d="M108.634 104.524L68.1706 96.4308C67.475 96.2917 66.8261 96.8236 66.8261 97.5329V114.304C66.8261 114.84 67.2043 115.301 67.7297 115.406L108.193 123.499C108.889 123.638 109.538 123.106 109.538 122.397V105.626C109.538 105.09 109.16 104.629 108.634 104.524ZM68.391 95.3286C67 95.0504 65.7021 96.1143 65.7021 97.5329V114.304C65.7021 115.375 66.4585 116.298 67.5093 116.508L107.973 124.601C109.364 124.879 110.662 123.815 110.662 122.397V105.626C110.662 104.554 109.905 103.631 108.855 103.421L68.391 95.3286Z" fill="#0C151D"/>
<path id="Rectangle 9628" d="M65.7021 124.509C65.7021 123.091 67 122.027 68.391 122.305L108.855 130.398C109.905 130.608 110.662 131.531 110.662 132.602V149.373C110.662 150.792 109.364 151.856 107.973 151.577L67.5093 143.485C66.4585 143.275 65.7021 142.352 65.7021 141.28V124.509Z" fill="#C1EF78"/>
<path id="Rectangle 9628 (Stroke)" fill-rule="evenodd" clip-rule="evenodd" d="M108.634 131.5L68.1706 123.407C67.475 123.268 66.8261 123.8 66.8261 124.509V141.28C66.8261 141.816 67.2043 142.277 67.7297 142.383L108.193 150.475C108.889 150.614 109.538 150.082 109.538 149.373V132.602C109.538 132.066 109.16 131.605 108.634 131.5ZM68.391 122.305C67 122.027 65.7021 123.091 65.7021 124.509V141.28C65.7021 142.352 66.4585 143.275 67.5093 143.485L107.973 151.577C109.364 151.856 110.662 150.792 110.662 149.373V132.602C110.662 131.531 109.905 130.608 108.855 130.398L68.391 122.305Z" fill="#0C151D"/>
<path id="Rectangle 9629" d="M44.3467 119.951C44.3467 118.553 45.6088 117.494 46.9853 117.737L61.5972 120.316C62.6714 120.505 63.4545 121.439 63.4545 122.529V139.32C63.4545 140.718 62.1924 141.776 60.8159 141.534L46.204 138.955C45.1298 138.765 44.3467 137.832 44.3467 136.741V119.951Z" fill="white"/>
<path id="Rectangle 9630" d="M44.3467 119.951C44.3467 118.553 45.6088 117.494 46.9853 117.737L61.5972 120.316C62.6714 120.505 63.4545 121.439 63.4545 122.529V139.32C63.4545 140.718 62.1924 141.776 60.8159 141.534L46.204 138.955C45.1298 138.765 44.3467 137.832 44.3467 136.741V119.951Z" fill="#69A3CC" fill-opacity="0.24"/>
<path id="Rectangle 9630 (Stroke)" fill-rule="evenodd" clip-rule="evenodd" d="M61.4019 121.422L46.79 118.844C46.1017 118.722 45.4707 119.252 45.4707 119.951V136.741C45.4707 137.287 45.8622 137.753 46.3993 137.848L61.0112 140.427C61.6995 140.548 62.3306 140.019 62.3306 139.32V122.529C62.3306 121.984 61.939 121.517 61.4019 121.422ZM46.9853 117.737C45.6088 117.494 44.3467 118.553 44.3467 119.951V136.741C44.3467 137.832 45.1298 138.765 46.204 138.955L60.8159 141.534C62.1924 141.776 63.4545 140.718 63.4545 139.32V122.529C63.4545 121.439 62.6714 120.505 61.5972 120.316L46.9853 117.737Z" fill="#0C151D"/>
<path id="Rectangle 9631" d="M44.3467 92.9752C44.3467 91.5774 45.6088 90.5185 46.9853 90.7614L61.5972 93.34C62.6714 93.5295 63.4545 94.4629 63.4545 95.5537V112.344C63.4545 113.742 62.1924 114.801 60.8159 114.558L46.204 111.979C45.1298 111.79 44.3467 110.856 44.3467 109.766V92.9752Z" fill="white"/>
<path id="Rectangle 9631 (Stroke)" fill-rule="evenodd" clip-rule="evenodd" d="M61.4019 94.4468L46.79 91.8683C46.1017 91.7468 45.4707 92.2763 45.4707 92.9752V109.766C45.4707 110.311 45.8622 110.778 46.3993 110.872L61.0112 113.451C61.6995 113.572 62.3306 113.043 62.3306 112.344V95.5537C62.3306 95.0083 61.939 94.5416 61.4019 94.4468ZM46.9853 90.7614C45.6088 90.5185 44.3467 91.5774 44.3467 92.9752V109.766C44.3467 110.856 45.1298 111.79 46.204 111.979L60.8159 114.558C62.1924 114.801 63.4545 113.742 63.4545 112.344V95.5537C63.4545 94.4629 62.6714 93.5295 61.5972 93.34L46.9853 90.7614Z" fill="#0C151D"/>
<path id="Rectangle 9615" d="M11.751 64.8804C11.751 63.4808 13.0163 62.4214 14.3941 62.6675L72.8417 73.1045C73.9139 73.296 74.6945 74.2284 74.6945 75.3175V162.918C74.6945 164.317 73.4292 165.377 72.0514 165.131L13.6038 154.694C12.5317 154.502 11.751 153.57 11.751 152.481V64.8804Z" fill="white"/>
<path id="Rectangle 9615 (Stroke)" fill-rule="evenodd" clip-rule="evenodd" d="M72.6441 74.211L14.1965 63.774C13.5076 63.6509 12.875 64.1806 12.875 64.8804V152.481C12.875 153.025 13.2653 153.491 13.8014 153.587L72.249 164.024C72.9379 164.147 73.5705 163.618 73.5705 162.918V75.3175C73.5705 74.773 73.1802 74.3068 72.6441 74.211ZM14.3941 62.6675C13.0163 62.4214 11.751 63.4808 11.751 64.8804V152.481C11.751 153.57 12.5317 154.502 13.6038 154.694L72.0514 165.131C73.4292 165.377 74.6945 164.317 74.6945 162.918V75.3175C74.6945 74.2284 73.9139 73.296 72.8417 73.1045L14.3941 62.6675Z" fill="#0C151D"/>
<path id="Rectangle 9619" d="M1.63477 71.654C1.63477 70.2445 2.91686 69.1827 4.30163 69.4453L64.9972 80.9566C66.0583 81.1578 66.8263 82.0852 66.8263 83.1652V99.9449C66.8263 101.354 65.5442 102.416 64.1595 102.154L3.46387 90.6423C2.40279 90.4411 1.63477 89.5137 1.63477 88.4337V71.654Z" fill="#C1EF78"/>
<path id="Rectangle 9619 (Stroke)" fill-rule="evenodd" clip-rule="evenodd" d="M64.7878 82.0609L4.09219 70.5496C3.3998 70.4183 2.75876 70.9492 2.75876 71.654V88.4337C2.75876 88.9737 3.14277 89.4374 3.67331 89.538L64.3689 101.049C65.0613 101.181 65.7023 100.65 65.7023 99.9449V83.1652C65.7023 82.6252 65.3183 82.1615 64.7878 82.0609ZM4.30163 69.4453C2.91686 69.1827 1.63477 70.2445 1.63477 71.654V88.4337C1.63477 89.5137 2.40279 90.4411 3.46387 90.6423L64.1595 102.154C65.5442 102.416 66.8263 101.354 66.8263 99.9449V83.1652C66.8263 82.0852 66.0583 81.1578 64.9972 80.9566L4.30163 69.4453Z" fill="#0C151D"/>
<path id="Rectangle 9620" d="M21.8662 103.153C21.8662 101.734 23.164 100.671 24.5551 100.949L65.0188 109.041C66.0695 109.252 66.8259 110.174 66.8259 111.246V128.017C66.8259 129.435 65.5281 130.499 64.1371 130.221L23.6733 122.128C22.6226 121.918 21.8662 120.995 21.8662 119.924V103.153Z" fill="white"/>
<path id="Rectangle 9620 (Stroke)" fill-rule="evenodd" clip-rule="evenodd" d="M64.7984 110.144L24.3346 102.051C23.6391 101.912 22.9902 102.444 22.9902 103.153V119.924C22.9902 120.46 23.3684 120.921 23.8938 121.026L64.3575 129.119C65.053 129.258 65.7019 128.726 65.7019 128.017V111.246C65.7019 110.71 65.3237 110.249 64.7984 110.144ZM24.5551 100.949C23.164 100.671 21.8662 101.734 21.8662 103.153V119.924C21.8662 120.995 22.6226 121.918 23.6733 122.128L64.1371 130.221C65.5281 130.499 66.8259 129.435 66.8259 128.017V111.246C66.8259 110.174 66.0695 109.252 65.0188 109.041L24.5551 100.949Z" fill="#0C151D"/>
<path id="Rectangle 9622" d="M21.8662 130.129C21.8662 128.71 23.164 127.646 24.5551 127.924L65.0188 136.017C66.0695 136.227 66.8259 137.15 66.8259 138.221V154.992C66.8259 156.411 65.5281 157.475 64.1371 157.197L23.6733 149.104C22.6226 148.894 21.8662 147.971 21.8662 146.899V130.129Z" fill="white"/>
<path id="Rectangle 9622 (Stroke)" fill-rule="evenodd" clip-rule="evenodd" d="M64.7984 137.119L24.3346 129.026C23.6391 128.887 22.9902 129.419 22.9902 130.129V146.899C22.9902 147.435 23.3684 147.897 23.8938 148.002L64.3575 156.094C65.053 156.233 65.7019 155.702 65.7019 154.992V138.221C65.7019 137.686 65.3237 137.224 64.7984 137.119ZM24.5551 127.924C23.164 127.646 21.8662 128.71 21.8662 130.129V146.899C21.8662 147.971 22.6226 148.894 23.6733 149.104L64.1371 157.197C65.5281 157.475 66.8259 156.411 66.8259 154.992V138.221C66.8259 137.15 66.0695 136.227 65.0188 136.017L24.5551 127.924Z" fill="#0C151D"/>
<path id="Rectangle 9624" d="M0.510742 125.571C0.510742 124.173 1.77287 123.114 3.14939 123.357L17.7613 125.936C18.8355 126.125 19.6186 127.059 19.6186 128.149V144.94C19.6186 146.338 18.3565 147.397 16.98 147.154L2.36806 144.575C1.29384 144.385 0.510742 143.452 0.510742 142.361V125.571Z" fill="white"/>
<path id="Rectangle 9623" d="M0.510742 125.571C0.510742 124.173 1.77287 123.114 3.14939 123.357L17.7613 125.936C18.8355 126.125 19.6186 127.059 19.6186 128.149V144.94C19.6186 146.338 18.3565 147.397 16.98 147.154L2.36806 144.575C1.29384 144.385 0.510742 143.452 0.510742 142.361V125.571Z" fill="#E1FBBC"/>
<path id="Rectangle 9623 (Stroke)" fill-rule="evenodd" clip-rule="evenodd" d="M17.566 127.043L2.95406 124.464C2.2658 124.343 1.63473 124.872 1.63473 125.571V142.361C1.63473 142.907 2.02628 143.373 2.56339 143.468L17.1753 146.047C17.8636 146.168 18.4946 145.639 18.4946 144.94V128.149C18.4946 127.604 18.1031 127.137 17.566 127.043ZM3.14939 123.357C1.77287 123.114 0.510742 124.173 0.510742 125.571V142.361C0.510742 143.452 1.29384 144.385 2.36806 144.575L16.98 147.154C18.3565 147.397 19.6186 146.338 19.6186 144.94V128.149C19.6186 127.059 18.8355 126.125 17.7613 125.936L3.14939 123.357Z" fill="#0C151D"/>
<path id="Rectangle 9621" d="M0.510742 98.5943C0.510742 97.1965 1.77287 96.1376 3.14939 96.3805L17.7613 98.9591C18.8355 99.1487 19.6186 100.082 19.6186 101.173V117.963C19.6186 119.361 18.3565 120.42 16.98 120.177L2.36806 117.598C1.29384 117.409 0.510742 116.476 0.510742 115.385V98.5943Z" fill="white"/>
<path id="Rectangle 9621 (Stroke)" fill-rule="evenodd" clip-rule="evenodd" d="M17.566 100.066L2.95406 97.4874C2.2658 97.366 1.63473 97.8954 1.63473 98.5943V115.385C1.63473 115.93 2.02628 116.397 2.56339 116.492L17.1753 119.07C17.8636 119.192 18.4946 118.662 18.4946 117.963V101.173C18.4946 100.627 18.1031 100.161 17.566 100.066ZM3.14939 96.3805C1.77287 96.1376 0.510742 97.1965 0.510742 98.5943V115.385C0.510742 116.476 1.29384 117.409 2.36806 117.598L16.98 120.177C18.3565 120.42 19.6186 119.361 19.6186 117.963V101.173C19.6186 100.082 18.8355 99.1487 17.7613 98.9591L3.14939 96.3805Z" fill="#0C151D"/>
<path id="Star" fill-rule="evenodd" clip-rule="evenodd" d="M155.622 11.6821C155.702 15.9888 159.181 19.4645 163.489 19.5401L163.489 19.5417C159.175 19.6174 155.693 23.1028 155.622 27.418L155.619 27.418C155.548 23.1034 152.067 19.6184 147.753 19.5418L147.753 19.54C152.06 19.4635 155.538 15.9882 155.619 11.6821L155.622 11.6821Z" fill="#0C151D"/>
<path id="Star_2" fill-rule="evenodd" clip-rule="evenodd" d="M6.69303 48.7738C6.75498 52.159 9.48908 54.8914 12.875 54.9505L12.875 54.9518C9.48604 55.011 6.75007 57.7482 6.69287 61.1377L6.6905 61.1377C6.63334 57.7491 3.8988 55.0125 0.511086 54.9518L0.511086 54.9503C3.89571 54.8898 6.62834 52.158 6.69034 48.7738L6.69303 48.7738Z" fill="#0C151D"/>
<path id="Rectangle 9671" d="M15.123 3.08167C15.123 1.67506 16.4003 0.613957 17.783 0.871765L145.918 24.7614C146.982 24.9598 147.754 25.8886 147.754 26.9713V48.2496C147.754 49.6563 146.477 50.7174 145.094 50.4596L16.959 26.57C15.8947 26.3715 15.123 25.4427 15.123 24.3601V3.08167Z" fill="white"/>
<path id="Rectangle 9671 (Stroke)" fill-rule="evenodd" clip-rule="evenodd" d="M145.712 25.8663L17.577 1.97672C16.8856 1.84781 16.247 2.37836 16.247 3.08167V24.3601C16.247 24.9014 16.6329 25.3658 17.165 25.465L145.3 49.3546C145.992 49.4835 146.63 48.953 146.63 48.2496V26.9713C146.63 26.43 146.244 25.9655 145.712 25.8663ZM17.783 0.871765C16.4003 0.613957 15.123 1.67506 15.123 3.08167V24.3601C15.123 25.4427 15.8947 26.3715 16.959 26.57L145.094 50.4596C146.477 50.7174 147.754 49.6563 147.754 48.2496V26.9713C147.754 25.8886 146.982 24.9598 145.918 24.7614L17.783 0.871765Z" fill="#0C151D"/>
<path id="Ellipse 1204 (Stroke)" fill-rule="evenodd" clip-rule="evenodd" d="M128.124 30.3277C125.423 31.8573 124.474 35.2867 126.003 37.9874C127.533 40.6882 130.962 41.6376 133.663 40.1081L134.771 42.0641C130.99 44.2055 126.189 42.8763 124.047 39.0952C121.906 35.3142 123.235 30.5131 127.016 28.3717L128.124 30.3277Z" fill="#C1EF78"/>
<path id="Ellipse 1205 (Stroke)" fill-rule="evenodd" clip-rule="evenodd" d="M128.124 30.3315C130.825 28.8019 134.254 29.7513 135.784 32.4521C137.313 35.1528 136.364 38.5822 133.663 40.1118L134.771 42.0678C138.552 39.9264 139.881 35.1253 137.74 31.3443C135.598 27.5632 130.797 26.234 127.016 28.3754L128.124 30.3315Z" fill="#0C151D"/>
<path id="Rectangle 9682" d="M21.8662 15.1907C21.8662 14.4961 22.4899 13.9678 23.175 14.082L27.671 14.8313C28.2129 14.9216 28.6102 15.3906 28.6102 15.94V20.405C28.6102 21.0995 27.9865 21.6279 27.3014 21.5137L22.8054 20.7643C22.2634 20.674 21.8662 20.2051 21.8662 19.6556V15.1907Z" fill="#0C151D"/>
<path id="Rectangle 9683" d="M33.1064 17.4387C33.1064 16.7442 33.7301 16.2158 34.4152 16.33L38.9112 17.0794C39.4532 17.1697 39.8504 17.6386 39.8504 18.1881V22.653C39.8504 23.3476 39.2267 23.8759 38.5416 23.7617L34.0457 23.0124C33.5037 22.9221 33.1064 22.4531 33.1064 21.9037V17.4387Z" fill="#0C151D"/>
<path id="Rectangle 9684" d="M44.3467 19.6868C44.3467 18.9922 44.9703 18.4639 45.6555 18.5781L50.1514 19.3274C50.6934 19.4177 51.0906 19.8866 51.0906 20.4361V24.9011C51.0906 25.5956 50.467 26.1239 49.7819 26.0098L45.2859 25.2604C44.7439 25.1701 44.3467 24.7012 44.3467 24.1517V19.6868Z" fill="#0C151D"/>
</g>
</svg>
