<svg xmlns="http://www.w3.org/2000/svg" width="196" height="150" viewBox="0 0 196 150" fill="none">
  <path opacity="0.6" d="M113.227 49.9887C113.227 48.7963 114.305 47.8937 115.478 48.1034L165.273 56.9953C166.186 57.1584 166.852 57.9528 166.852 58.8806V133.512C166.852 134.704 165.774 135.607 164.6 135.397L114.805 126.505C113.892 126.342 113.227 125.548 113.227 124.62V49.9887Z" fill="white"/>
  <path opacity="0.6" fillRule="evenodd" clipRule="evenodd" d="M165.105 57.9379L115.31 49.046C114.723 48.9412 114.184 49.3925 114.184 49.9887V124.62C114.184 125.084 114.517 125.481 114.973 125.563L164.768 134.455C165.355 134.559 165.894 134.108 165.894 133.512V58.8806C165.894 58.4167 165.561 58.0195 165.105 57.9379ZM115.478 48.1034C114.305 47.8937 113.227 48.7963 113.227 49.9887V124.62C113.227 125.548 113.892 126.342 114.805 126.505L164.6 135.397C165.774 135.607 166.852 134.704 166.852 133.512V58.8806C166.852 57.9528 166.186 57.1584 165.273 56.9953L115.478 48.1034Z" fill="#0C151D"/>
  <path d="M104.607 55.7605C104.607 54.5597 105.7 53.6551 106.879 53.8789L158.59 63.686C159.494 63.8575 160.148 64.6476 160.148 65.5677V79.8635C160.148 81.0643 159.056 81.9689 157.876 81.7451L106.166 71.938C105.262 71.7665 104.607 70.9764 104.607 70.0563V55.7605Z" fill="white"/>
  <path opacity="0.5" d="M104.607 55.7605C104.607 54.5597 105.7 53.6551 106.879 53.8789L158.59 63.686C159.494 63.8575 160.148 64.6476 160.148 65.5677V79.8635C160.148 81.0643 159.056 81.9689 157.876 81.7451L106.166 71.938C105.262 71.7665 104.607 70.9764 104.607 70.0563V55.7605Z" fill="white"/>
  <path opacity="0.5" fillRule="evenodd" clipRule="evenodd" d="M158.412 64.6269L106.701 54.8197C106.111 54.7078 105.565 55.1601 105.565 55.7605V70.0563C105.565 70.5164 105.892 70.9114 106.344 70.9971L158.055 80.8043C158.645 80.9162 159.191 80.4639 159.191 79.8635V65.5677C159.191 65.1076 158.864 64.7126 158.412 64.6269ZM106.879 53.8789C105.7 53.6551 104.607 54.5597 104.607 55.7605V70.0563C104.607 70.9764 105.262 71.7665 106.166 71.938L157.876 81.7451C159.056 81.9689 160.148 81.0643 160.148 79.8635V65.5677C160.148 64.6476 159.494 63.8575 158.59 63.686L106.879 53.8789Z" fill="#0C151D"/>
  <path opacity="0.5" d="M104.607 79.7005C104.607 78.4997 105.7 77.5951 106.879 77.8188L158.59 87.626C159.494 87.7974 160.148 88.5875 160.148 89.5076V103.803C160.148 105.004 159.056 105.909 157.876 105.685L106.166 95.8779C105.262 95.7065 104.607 94.9164 104.607 93.9962V79.7005Z" fill="white"/>
  <path opacity="0.5" fillRule="evenodd" clipRule="evenodd" d="M158.412 88.5668L106.701 78.7596C106.111 78.6478 105.565 79.1001 105.565 79.7005V93.9962C105.565 94.4563 105.892 94.8513 106.344 94.9371L158.055 104.744C158.645 104.856 159.191 104.404 159.191 103.803V89.5076C159.191 89.0476 158.864 88.6525 158.412 88.5668ZM106.879 77.8188C105.7 77.5951 104.607 78.4997 104.607 79.7005V93.9962C104.607 94.9164 105.262 95.7065 106.166 95.8779L157.876 105.685C159.056 105.909 160.148 105.004 160.148 103.803V89.5076C160.148 88.5875 159.494 87.7974 158.59 87.626L106.879 77.8188Z" fill="#0C151D"/>
  <path d="M75.8809 54.7766C75.8809 53.5841 76.9588 52.6816 78.1327 52.8912L127.927 61.7831C128.841 61.9462 129.506 62.7406 129.506 63.6685V138.3C129.506 139.492 128.428 140.395 127.254 140.185L77.4594 131.293C76.546 131.13 75.8809 130.336 75.8809 129.408V54.7766Z" fill="white"/>
  <path fillRule="evenodd" clipRule="evenodd" d="M127.759 62.7258L77.9644 53.8339C77.3774 53.7291 76.8384 54.1803 76.8384 54.7766V129.408C76.8384 129.872 77.171 130.269 77.6277 130.351L127.422 139.243C128.009 139.347 128.548 138.896 128.548 138.3V63.6685C128.548 63.2045 128.216 62.8073 127.759 62.7258ZM78.1327 52.8912C76.9588 52.6816 75.8809 53.5841 75.8809 54.7766V129.408C75.8809 130.336 76.546 131.13 77.4594 131.293L127.254 140.185C128.428 140.395 129.506 139.492 129.506 138.3V63.6685C129.506 62.7406 128.841 61.9462 127.927 61.7831L78.1327 52.8912Z" fill="#0C151D"/>
  <path d="M67.2617 60.5484C67.2617 59.3476 68.354 58.443 69.5338 58.6667L121.244 68.4739C122.148 68.6453 122.803 69.4354 122.803 70.3555V84.6513C122.803 85.8521 121.71 86.7567 120.531 86.533L68.8201 76.7258C67.916 76.5544 67.2617 75.7643 67.2617 74.8441V60.5484Z" fill="white"/>
  <path fillRule="evenodd" clipRule="evenodd" d="M121.066 69.4147L69.3554 59.6075C68.7655 59.4957 68.2193 59.948 68.2193 60.5484V74.8441C68.2193 75.3042 68.5465 75.6992 68.9985 75.785L120.709 85.5921C121.299 85.704 121.845 85.2517 121.845 84.6513V70.3555C121.845 69.8955 121.518 69.5004 121.066 69.4147ZM69.5338 58.6667C68.354 58.443 67.2617 59.3476 67.2617 60.5484V74.8441C67.2617 75.7643 67.916 76.5544 68.8201 76.7258L120.531 86.533C121.71 86.7567 122.803 85.8521 122.803 84.6513V70.3555C122.803 69.4354 122.148 68.6453 121.244 68.4739L69.5338 58.6667Z" fill="#0C151D"/>
  <path d="M84.499 87.3836C84.499 86.175 85.6047 85.2686 86.7898 85.5056L121.264 92.4004C122.159 92.5794 122.803 93.3654 122.803 94.2784V108.567C122.803 109.775 121.697 110.682 120.512 110.445L86.0386 103.55C85.1434 103.371 84.499 102.585 84.499 101.672V87.3836Z" fill="white"/>
  <path fillRule="evenodd" clipRule="evenodd" d="M121.076 93.3394L86.602 86.4446C86.0095 86.3261 85.4566 86.7793 85.4566 87.3836V101.672C85.4566 102.128 85.7788 102.521 86.2264 102.611L120.7 109.506C121.293 109.624 121.846 109.171 121.846 108.567V94.2784C121.846 93.8219 121.523 93.4289 121.076 93.3394ZM86.7898 85.5056C85.6047 85.2686 84.499 86.175 84.499 87.3836V101.672C84.499 102.585 85.1434 103.371 86.0386 103.55L120.512 110.445C121.697 110.682 122.803 109.775 122.803 108.567V94.2784C122.803 93.3654 122.159 92.5794 121.264 92.4004L86.7898 85.5056Z" fill="#0C151D"/>
  <path d="M84.499 110.365C84.499 109.157 85.6047 108.25 86.7898 108.487L121.264 115.382C122.159 115.561 122.803 116.347 122.803 117.26V131.548C122.803 132.757 121.697 133.663 120.512 133.426L86.0386 126.532C85.1434 126.352 84.499 125.566 84.499 124.654V110.365Z" fill="#277BC5"/>
  <path fillRule="evenodd" clipRule="evenodd" d="M121.076 116.321L86.602 109.426C86.0095 109.308 85.4566 109.761 85.4566 110.365V124.654C85.4566 125.11 85.7788 125.503 86.2264 125.593L120.7 132.487C121.293 132.606 121.846 132.153 121.846 131.548V117.26C121.846 116.804 121.523 116.411 121.076 116.321ZM86.7898 108.487C85.6047 108.25 84.499 109.157 84.499 110.365V124.654C84.499 125.566 85.1434 126.352 86.0386 126.532L120.512 133.426C121.697 133.663 122.803 132.757 122.803 131.548V117.26C122.803 116.347 122.159 115.561 121.264 115.382L86.7898 108.487Z" fill="#0C151D"/>
  <path d="M66.3047 106.483C66.3047 105.292 67.38 104.39 68.5527 104.597L81.0016 106.793C81.9168 106.955 82.5839 107.75 82.5839 108.679V122.984C82.5839 124.175 81.5087 125.077 80.3359 124.87L67.8871 122.674C66.9719 122.512 66.3047 121.717 66.3047 120.787V106.483Z" fill="white"/>
  <path d="M66.3047 106.483C66.3047 105.292 67.38 104.39 68.5527 104.597L81.0016 106.793C81.9168 106.955 82.5839 107.75 82.5839 108.679V122.984C82.5839 124.175 81.5087 125.077 80.3359 124.87L67.8871 122.674C66.9719 122.512 66.3047 121.717 66.3047 120.787V106.483Z" fill="#69A3CC" fill-opacity="0.24"/>
  <path fillRule="evenodd" clipRule="evenodd" d="M80.8352 107.736L68.3863 105.54C67.7999 105.436 67.2623 105.887 67.2623 106.483V120.787C67.2623 121.252 67.5959 121.65 68.0535 121.731L80.5023 123.927C81.0887 124.031 81.6263 123.58 81.6263 122.984V108.679C81.6263 108.215 81.2928 107.817 80.8352 107.736ZM68.5527 104.597C67.38 104.39 66.3047 105.292 66.3047 106.483V120.787C66.3047 121.717 66.9719 122.512 67.8871 122.674L80.3359 124.87C81.5087 125.077 82.5839 124.175 82.5839 122.984V108.679C82.5839 107.75 81.9168 106.955 81.0016 106.793L68.5527 104.597Z" fill="#0C151D"/>
  <path d="M66.3047 83.5007C66.3047 82.3098 67.38 81.4077 68.5527 81.6146L81.0016 83.8115C81.9168 83.973 82.5839 84.7682 82.5839 85.6975V100.002C82.5839 101.193 81.5087 102.095 80.3359 101.888L67.8871 99.6916C66.9719 99.5301 66.3047 98.7349 66.3047 97.8056V83.5007Z" fill="white"/>
  <path fillRule="evenodd" clipRule="evenodd" d="M80.8352 84.7545L68.3863 82.5577C67.7999 82.4542 67.2623 82.9053 67.2623 83.5007V97.8056C67.2623 98.2702 67.5959 98.6678 68.0535 98.7486L80.5023 100.945C81.0887 101.049 81.6263 100.598 81.6263 100.002V85.6975C81.6263 85.2329 81.2928 84.8353 80.8352 84.7545ZM68.5527 81.6146C67.38 81.4077 66.3047 82.3098 66.3047 83.5007V97.8056C66.3047 98.7349 66.9719 99.5301 67.8871 99.6916L80.3359 101.888C81.5087 102.095 82.5839 101.193 82.5839 100.002V85.6975C82.5839 84.7682 81.9168 83.973 81.0016 83.8115L68.5527 81.6146Z" fill="#0C151D"/>
  <path d="M38.5352 59.5644C38.5352 58.372 39.6131 57.4694 40.787 57.679L90.5816 66.5709C91.4951 66.734 92.1602 67.5284 92.1602 68.4563V143.088C92.1602 144.28 91.0822 145.183 89.9083 144.973L40.1137 136.081C39.2003 135.918 38.5352 135.124 38.5352 134.196V59.5644Z" fill="white"/>
  <path fillRule="evenodd" clipRule="evenodd" d="M90.4133 67.5136L40.6187 58.6217C40.0317 58.5169 39.4927 58.9682 39.4927 59.5644V134.196C39.4927 134.66 39.8253 135.057 40.282 135.138L90.0766 144.03C90.6636 144.135 91.2026 143.684 91.2026 143.088V68.4563C91.2026 67.9924 90.87 67.5952 90.4133 67.5136ZM40.787 57.679C39.6131 57.4694 38.5352 58.372 38.5352 59.5644V134.196C38.5352 135.124 39.2003 135.918 40.1137 136.081L89.9083 144.973C91.0822 145.183 92.1602 144.28 92.1602 143.088V68.4563C92.1602 67.5284 91.4951 66.734 90.5816 66.5709L40.787 57.679Z" fill="#0C151D"/>
  <path d="M29.917 65.336C29.917 64.1352 31.0093 63.2306 32.1891 63.4543L83.8996 73.2615C84.8037 73.4329 85.458 74.223 85.458 75.1431V89.4389C85.458 90.6397 84.3657 91.5443 83.1859 91.3206L31.4753 81.5134C30.5713 81.3419 29.917 80.5519 29.917 79.6317V65.336Z" fill="#277BC5"/>
  <path fillRule="evenodd" clipRule="evenodd" d="M83.7212 74.2023L32.0106 64.3951C31.4207 64.2833 30.8746 64.7356 30.8746 65.336V79.6317C30.8746 80.0918 31.2018 80.4868 31.6538 80.5726L83.3643 90.3797C83.9542 90.4916 84.5004 90.0393 84.5004 89.4389V75.1431C84.5004 74.6831 84.1732 74.288 83.7212 74.2023ZM32.1891 63.4543C31.0093 63.2306 29.917 64.1352 29.917 65.336V79.6317C29.917 80.5519 30.5713 81.342 31.4753 81.5134L83.1859 91.3206C84.3657 91.5443 85.458 90.6397 85.458 89.4389V75.1431C85.458 74.223 84.8037 73.4329 83.8996 73.2615L32.1891 63.4543Z" fill="#0C151D"/>
  <path d="M47.1523 92.1715C47.1523 90.9629 48.258 90.0564 49.4432 90.2935L83.9169 97.1882C84.8121 97.3672 85.4565 98.1533 85.4565 99.0662V113.354C85.4565 114.563 84.3508 115.469 83.1657 115.232L48.6919 108.338C47.7967 108.159 47.1523 107.373 47.1523 106.46V92.1715Z" fill="white"/>
  <path fillRule="evenodd" clipRule="evenodd" d="M83.7291 98.1272L49.2554 91.2325C48.6628 91.114 48.1099 91.5672 48.1099 92.1715V106.46C48.1099 106.916 48.4321 107.309 48.8797 107.399L83.3535 114.293C83.946 114.412 84.4989 113.959 84.4989 113.354V99.0662C84.4989 98.6097 84.1767 98.2167 83.7291 98.1272ZM49.4432 90.2935C48.258 90.0564 47.1523 90.9629 47.1523 92.1715V106.46C47.1523 107.373 47.7967 108.159 48.6919 108.338L83.1657 115.232C84.3508 115.469 85.4565 114.563 85.4565 113.354V99.0662C85.4565 98.1533 84.8121 97.3672 83.9169 97.1882L49.4432 90.2935Z" fill="#0C151D"/>
  <path d="M47.1523 115.153C47.1523 113.944 48.258 113.038 49.4432 113.275L83.9169 120.17C84.8121 120.349 85.4565 121.135 85.4565 122.048V136.336C85.4565 137.544 84.3508 138.451 83.1657 138.214L48.6919 131.319C47.7967 131.14 47.1523 130.354 47.1523 129.441V115.153Z" fill="white"/>
  <path fillRule="evenodd" clipRule="evenodd" d="M83.7291 121.109L49.2554 114.214C48.6628 114.095 48.1099 114.549 48.1099 115.153V129.441C48.1099 129.898 48.4321 130.291 48.8797 130.38L83.3535 137.275C83.946 137.393 84.4989 136.94 84.4989 136.336V122.048C84.4989 121.591 84.1767 121.198 83.7291 121.109ZM49.4432 113.275C48.258 113.038 47.1523 113.944 47.1523 115.153V129.441C47.1523 130.354 47.7967 131.14 48.6919 131.319L83.1657 138.214C84.3508 138.451 85.4565 137.544 85.4565 136.336V122.048C85.4565 121.135 84.8121 120.349 83.9169 120.17L49.4432 113.275Z" fill="#0C151D"/>
  <path d="M28.959 111.271C28.959 110.08 30.0343 109.178 31.207 109.385L43.6559 111.582C44.5711 111.743 45.2382 112.538 45.2382 113.468V127.772C45.2382 128.963 44.163 129.865 42.9902 129.658L30.5414 127.462C29.6262 127.3 28.959 126.505 28.959 125.576V111.271Z" fill="white"/>
  <path d="M28.959 111.271C28.959 110.08 30.0343 109.178 31.207 109.385L43.6559 111.582C44.5711 111.743 45.2382 112.538 45.2382 113.468V127.772C45.2382 128.963 44.163 129.865 42.9902 129.658L30.5414 127.462C29.6262 127.3 28.959 126.505 28.959 125.576V111.271Z" fill="#69A3CC" fill-opacity="0.24"/>
  <path fillRule="evenodd" clipRule="evenodd" d="M43.4895 112.525L31.0406 110.328C30.4542 110.224 29.9166 110.675 29.9166 111.271V125.576C29.9166 126.04 30.2502 126.438 30.7078 126.519L43.1566 128.715C43.743 128.819 44.2806 128.368 44.2806 127.772V113.468C44.2806 113.003 43.9471 112.605 43.4895 112.525ZM31.207 109.385C30.0343 109.178 28.959 110.08 28.959 111.271V125.576C28.959 126.505 29.6262 127.3 30.5414 127.462L42.9902 129.658C44.163 129.865 45.2382 128.963 45.2382 127.772V113.468C45.2382 112.538 44.5711 111.743 43.6559 111.582L31.207 109.385Z" fill="#0C151D"/>
  <path d="M28.959 88.2883C28.959 87.0974 30.0343 86.1953 31.207 86.4022L43.6559 88.5991C44.5711 88.7606 45.2382 89.5558 45.2382 90.4851V104.79C45.2382 105.981 44.163 106.883 42.9902 106.676L30.5414 104.479C29.6262 104.318 28.959 103.522 28.959 102.593V88.2883Z" fill="white"/>
  <path fillRule="evenodd" clipRule="evenodd" d="M43.4895 89.5421L31.0406 87.3453C30.4542 87.2418 29.9166 87.6929 29.9166 88.2883V102.593C29.9166 103.058 30.2502 103.455 30.7078 103.536L43.1566 105.733C43.743 105.837 44.2806 105.385 44.2806 104.79V90.4851C44.2806 90.0205 43.9471 89.6229 43.4895 89.5421ZM31.207 86.4022C30.0343 86.1953 28.959 87.0974 28.959 88.2883V102.593C28.959 103.522 29.6262 104.318 30.5414 104.479L42.9902 106.676C44.163 106.883 45.2382 105.981 45.2382 104.79V90.4851C45.2382 89.5558 44.5711 88.7606 43.6559 88.5991L31.207 86.4022Z" fill="#0C151D"/>
  <path fillRule="evenodd" clipRule="evenodd" d="M161.163 14.1862C161.231 17.8869 164.22 20.8738 167.922 20.9387L167.922 20.9397C164.216 21.0047 161.224 23.9986 161.162 27.7056L161.16 27.7056C161.099 23.9985 158.108 21.0041 154.402 20.9382L154.402 20.9371C158.103 20.8712 161.091 17.8856 161.16 14.1862L161.163 14.1862Z" fill="#0C151D"/>
  <path fillRule="evenodd" clipRule="evenodd" d="M33.3234 43.8714C33.3764 46.7867 35.7307 49.1398 38.6465 49.1909L38.6465 49.192C35.7286 49.2431 33.373 51.5996 33.3233 54.5178L33.3215 54.5178C33.2726 51.5995 30.9176 49.2425 28.0001 49.1905L28.0001 49.1893C30.9145 49.1374 33.2676 46.7854 33.3213 43.8714L33.3234 43.8714Z" fill="#0C151D"/>
  <path d="M41.4082 6.91576C41.4082 5.71739 42.4963 4.81338 43.6744 5.03302L152.84 25.3859C153.746 25.5549 154.404 26.3462 154.404 27.2686V45.3968C154.404 46.5951 153.316 47.4992 152.138 47.2795L42.9724 26.9267C42.0656 26.7576 41.4082 25.9663 41.4082 25.044V6.91576Z" fill="white"/>
  <path fillRule="evenodd" clipRule="evenodd" d="M152.664 26.3272L43.4989 5.97439C42.9099 5.86457 42.3658 6.31657 42.3658 6.91576V25.044C42.3658 25.5051 42.6945 25.9008 43.1479 25.9853L152.313 46.3382C152.902 46.448 153.446 45.996 153.446 45.3968V27.2686C153.446 26.8074 153.117 26.4117 152.664 26.3272ZM43.6744 5.03302C42.4963 4.81338 41.4082 5.71739 41.4082 6.91576V25.044C41.4082 25.9663 42.0656 26.7576 42.9724 26.9267L152.138 47.2795C153.316 47.4992 154.404 46.5951 154.404 45.3968V27.2686C154.404 26.3462 153.746 25.5549 152.84 25.3859L43.6744 5.03302Z" fill="#0C151D"/>
  <path fillRule="evenodd" clipRule="evenodd" d="M137.679 30.1267C135.378 31.4299 134.569 34.3518 135.872 36.6529C137.176 38.9539 140.098 39.7629 142.399 38.4597L143.342 40.1263C140.121 41.9507 136.03 40.8182 134.206 37.5967C132.381 34.3752 133.514 30.2846 136.735 28.4601L137.679 30.1267Z" fill="#277BC5"/>
  <path fillRule="evenodd" clipRule="evenodd" d="M137.679 30.1322C139.98 28.829 142.902 29.638 144.205 31.939C145.509 34.2401 144.7 37.162 142.399 38.4652L143.342 40.1318C146.564 38.3073 147.696 34.2167 145.872 30.9952C144.047 27.7737 139.957 26.6412 136.735 28.4657L137.679 30.1322Z" fill="#0C151D"/>
  <path d="M49.0684 17.2324C49.0684 16.6406 49.5998 16.1904 50.1836 16.2877L54.0146 16.9262C54.4764 17.0032 54.8149 17.4027 54.8149 17.8709V21.6755C54.8149 22.2674 54.2835 22.7175 53.6997 22.6202L49.8687 21.9817C49.4068 21.9048 49.0684 21.5052 49.0684 21.037V17.2324Z" fill="#0C151D"/>
  <path d="M58.6445 19.1477C58.6445 18.5559 59.176 18.1057 59.7597 18.203L63.5908 18.8415C64.0526 18.9184 64.3911 19.318 64.3911 19.7862V23.5908C64.3911 24.1826 63.8596 24.6328 63.2759 24.5355L59.4448 23.897C58.983 23.8201 58.6445 23.4205 58.6445 22.9523V19.1477Z" fill="#0C151D"/>
  <path d="M68.2207 21.0625C68.2207 20.4707 68.7521 20.0205 69.3359 20.1178L73.1669 20.7563C73.6288 20.8332 73.9672 21.2328 73.9672 21.701V25.5056C73.9672 26.0974 73.4358 26.5476 72.852 26.4503L69.021 25.8118C68.5592 25.7349 68.2207 25.3353 68.2207 24.8671V21.0625Z" fill="#0C151D"/>
</svg>