
<svg width="194" height="163" viewBox="0 0 194 163" fill="none" xmlns="http://www.w3.org/2000/svg">
<path d="M0 31.2918C0 30.5055 0.460782 29.7921 1.17756 29.4688L65.6776 0.371023C66.2005 0.13512 66.7995 0.135122 67.3224 0.371025L131.822 29.4688C132.539 29.7921 133 30.5055 133 31.2918V142C133 143.105 132.105 144 131 144H2C0.895431 144 0 143.105 0 142V31.2918Z" fill="#D0E3EF"/>
<path fill-rule="evenodd" clip-rule="evenodd" d="M133 142.196C133 143.3 132.105 144.196 131 144.196L66.2235 144.196L66.2235 121.344C68.3904 122.969 71.0893 123.932 74.0153 123.932C81.1573 123.932 86.947 118.19 86.947 111.107C86.947 104.024 81.1573 98.2826 74.0153 98.2826C71.0893 98.2826 68.3904 99.2463 66.2235 100.871L66.2235 77.9711L89.3737 77.9711C87.6866 75.7715 86.6827 73.0126 86.6827 70.0174C86.6827 62.8282 92.4663 57.0002 99.6007 57.0002C106.735 57.0002 112.519 62.8282 112.519 70.0174C112.519 73.0126 111.515 75.7715 109.828 77.9711L133 77.9711L133 142.196Z" fill="#005C9E"/>
<path fill-rule="evenodd" clip-rule="evenodd" d="M66.5856 144.195L1.99953 144.195C0.894966 144.195 -0.000465315 143.3 -0.000465218 142.195L-0.000459604 77.9706L22.9681 77.9706C21.3113 80.1496 20.3272 82.8723 20.3272 85.8259C20.3272 92.9797 26.1004 98.779 33.222 98.779C40.3436 98.779 46.1169 92.9797 46.1169 85.8259C46.1169 82.8723 45.1328 80.1496 43.476 77.9706L66.5856 77.9706L66.5856 100.472C68.7111 98.986 71.2979 98.114 74.0883 98.114C81.3271 98.114 87.1953 103.982 87.1953 111.221C87.1953 118.46 81.3271 124.328 74.0883 124.328C71.2979 124.328 68.7111 123.456 66.5856 121.97L66.5856 144.195Z" fill="#217BBB"/>
<path d="M124.205 145.48C127.302 148.709 132.43 148.816 135.659 145.72C138.888 142.623 138.995 137.495 135.899 134.266L101.695 98.6011L90.0018 109.815L124.205 145.48Z" fill="#69A3CC"/>
<path d="M99.5324 119.754C101.081 121.368 103.645 121.422 105.259 119.874L111.106 114.267C112.72 112.718 112.774 110.154 111.226 108.54L101.834 98.7465C100.285 97.132 97.7214 97.0784 96.1069 98.6267L90.2602 104.234C88.6457 105.782 88.5921 108.346 90.1404 109.961L99.5324 119.754Z" fill="#69A3CC"/>
<path d="M111.303 102.938C111.394 101.375 110.202 100.033 108.638 99.9417C107.075 99.8499 105.734 101.043 105.642 102.606L105.277 108.822C105.211 109.939 106.063 110.897 107.18 110.962L108.797 111.057C109.914 111.123 110.872 110.271 110.937 109.154L111.303 102.938Z" fill="#69A3CC"/>
<path d="M97.8067 94.2405C96.7229 93.1103 94.8464 93.1511 93.6155 94.3316C92.3846 95.5121 92.2653 97.3852 93.3492 98.5154L101.449 106.399C102.223 107.206 103.563 107.177 104.442 106.334L105.716 105.112C106.595 104.269 106.68 102.931 105.906 102.124L97.8067 94.2405Z" fill="#69A3CC"/>
<path fill-rule="evenodd" clip-rule="evenodd" d="M117.699 89.3563C117.699 79.5709 125.631 71.6382 135.417 71.6382H192.115C193.093 71.6382 193.887 72.4315 193.887 73.41V144.282L193.887 144.286V156.065H159.691V146.054H152.603V156.065H117.699V144.282V137.461V89.3563Z" fill="#0C151D"/>
<path fill-rule="evenodd" clip-rule="evenodd" d="M156.678 103.531C156.678 107.445 153.505 110.618 149.591 110.618C145.677 110.618 142.504 107.445 142.504 103.531L156.678 103.531Z" fill="white"/>
<mask id="mask0_27609_96792" style="mask-type:alpha" maskUnits="userSpaceOnUse" x="142" y="103" width="15" height="8">
<path fill-rule="evenodd" clip-rule="evenodd" d="M156.678 103.53C156.678 107.445 153.505 110.618 149.591 110.618C145.677 110.618 142.504 107.445 142.504 103.53L156.678 103.53Z" fill="#D9D9D9"/>
</mask>
<g mask="url(#mask0_27609_96792)">
<path d="M152.922 103H149.378V110.973H152.922V103Z" fill="#0C151D"/>
</g>
<path fill-rule="evenodd" clip-rule="evenodd" d="M123.012 103.531L137.186 103.531C137.186 107.445 134.013 110.618 130.099 110.618C126.185 110.618 123.012 107.445 123.012 103.531Z" fill="white"/>
<mask id="mask1_27609_96792" style="mask-type:alpha" maskUnits="userSpaceOnUse" x="123" y="103" width="15" height="8">
<path fill-rule="evenodd" clip-rule="evenodd" d="M123.012 103.53L137.186 103.53C137.186 107.445 134.013 110.618 130.099 110.618C126.185 110.618 123.012 107.445 123.012 103.53Z" fill="#D9D9D9"/>
</mask>
<g mask="url(#mask1_27609_96792)">
<path d="M133.43 103H129.886V110.973H133.43V103Z" fill="#0C151D"/>
</g>
<path d="M189.07 118.165C189.07 115.413 185.749 113.182 181.653 113.182C177.556 113.182 174.235 115.413 174.235 118.165V148.559H189.07V118.165Z" fill="#69A3CC"/>
<path d="M180.552 156.547C185.256 156.547 189.07 153.226 189.07 149.129C189.07 145.033 185.256 141.712 180.552 141.712L128.588 141.712L128.588 156.547L180.552 156.547Z" fill="#69A3CC"/>
<path d="M191.352 120.714C191.352 115.924 187.009 112.041 181.652 112.041C176.294 112.041 171.952 115.924 171.952 120.714L171.952 130.3L191.352 130.3L191.352 120.714Z" fill="#383C41"/>
<path d="M90.9297 152.975H169.791C171.726 152.975 173.295 154.634 173.295 156.681V162.241H94.4346C92.4989 162.241 90.9297 160.581 90.9297 158.534V152.975Z" fill="#565B61"/>
<path d="M90.9297 123.546C90.9297 121.603 92.4969 120.028 94.4302 120.028H157.44C159.373 120.028 160.941 121.603 160.941 123.546V158.723C160.941 160.666 159.373 162.241 157.44 162.241H94.4302C92.4969 162.241 90.9297 160.666 90.9297 158.723V123.546Z" fill="#787B80"/>
<path fill-rule="evenodd" clip-rule="evenodd" d="M122.505 135.472H122.503C122.453 138.575 120.176 141.079 117.355 141.134V141.136C120.176 141.19 122.454 143.695 122.503 146.797H122.505C122.555 143.696 124.831 141.191 127.651 141.136V141.134C124.831 141.078 122.555 138.574 122.505 135.472Z" fill="white"/>
<path fill-rule="evenodd" clip-rule="evenodd" d="M171.131 56.5132C183.589 54.1166 193 43.1574 193 30C193 15.0883 180.912 3 166 3C151.088 3 139 15.0883 139 30C139 43.1573 148.411 54.1164 160.869 56.5131L166 65.3999L171.131 56.5132Z" fill="#69A3CC"/>
<rect x="150" y="20" width="32" height="8" rx="2" fill="#F5F8FB"/>
<rect x="150" y="33" width="32" height="8" rx="2" fill="#F5F8FB"/>
<circle cx="155" cy="24" r="2" fill="#217BBB"/>
<circle cx="155" cy="37" r="2" fill="#217BBB"/>
<circle cx="161" cy="24" r="2" fill="#217BBB"/>
<circle cx="161" cy="37" r="2" fill="#217BBB"/>
<circle cx="167" cy="37" r="2" fill="#217BBB"/>
<circle cx="173" cy="37" r="2" fill="#217BBB"/>
</svg>
