<svg width="113" height="23" viewBox="0 0 113 23" fill="none" xmlns="http://www.w3.org/2000/svg">
<path fillRule="evenodd" clipRule="evenodd" d="M45.8925 16.3081C47.1214 16.3081 48.2103 15.7085 48.8825 14.7859H52.5048C51.5917 17.5642 48.9763 19.5701 45.8925 19.5701C42.0492 19.5701 38.9336 16.4545 38.9336 12.6112C38.9336 8.76794 42.0492 5.65234 45.8925 5.65234C49.7358 5.65234 52.8514 8.76794 52.8514 12.6112C52.8514 12.7573 52.8469 12.9023 52.838 13.0462H42.2209C42.4361 14.8829 43.9979 16.3081 45.8925 16.3081ZM42.4324 11.3064C42.9598 9.90856 44.31 8.91432 45.8925 8.91432C47.4749 8.91432 48.8251 9.90856 49.3526 11.3064H42.4324Z" fill="#565B61"/>
<path fillRule="evenodd" clipRule="evenodd" d="M68.5076 3.26172H65.2456V6.71596C64.1745 6.04302 62.9071 5.65384 61.5487 5.65384C57.7054 5.65384 54.5898 8.76944 54.5898 12.6127C54.5898 16.456 57.7054 19.5716 61.5487 19.5716C62.9071 19.5716 64.1745 19.1824 65.2456 18.5095V19.5716H68.5076V3.26172ZM65.2456 12.6127C65.2456 10.571 63.5905 8.91581 61.5487 8.91581C59.507 8.91581 57.8518 10.571 57.8518 12.6127C57.8518 14.6545 59.507 16.3096 61.5487 16.3096C63.5905 16.3096 65.2456 14.6545 65.2456 12.6127Z" fill="#565B61"/>
<path fillRule="evenodd" clipRule="evenodd" d="M98.0859 3.26172H101.348V6.71596C102.419 6.04302 103.686 5.65384 105.045 5.65384C108.888 5.65384 112.004 8.76944 112.004 12.6127C112.004 16.456 108.888 19.5716 105.045 19.5716C103.686 19.5716 102.419 19.1824 101.348 18.5095V19.5716H98.0859V3.26172ZM101.348 12.6127C101.348 14.6545 103.003 16.3096 105.045 16.3096C107.087 16.3096 108.742 14.6545 108.742 12.6127C108.742 10.571 107.087 8.91581 105.045 8.91581C103.003 8.91581 101.348 10.571 101.348 12.6127Z" fill="#565B61"/>
<path fillRule="evenodd" clipRule="evenodd" d="M88.9472 16.3081C90.9889 16.3081 92.6441 14.653 92.6441 12.6112C92.6441 10.5695 90.9889 8.91432 88.9472 8.91432C86.9054 8.91432 85.2503 10.5695 85.2503 12.6112C85.2503 14.653 86.9054 16.3081 88.9472 16.3081ZM88.9472 19.5701C92.7905 19.5701 95.9061 16.4545 95.9061 12.6112C95.9061 8.76794 92.7905 5.65234 88.9472 5.65234C85.1039 5.65234 81.9883 8.76794 81.9883 12.6112C81.9883 16.4545 85.1039 19.5701 88.9472 19.5701Z" fill="#565B61"/>
<path d="M32.6253 12.6112C32.6253 12.6112 32.6253 12.6112 32.6253 12.6112V19.5701H29.3633L29.3633 12.6112C29.3633 12.6112 29.3633 12.6112 29.3633 12.6112C29.3633 8.76794 32.4789 5.65234 36.3222 5.65234C36.6168 5.65234 36.9071 5.67065 37.192 5.70618V9.01724C36.9131 8.94996 36.6218 8.91432 36.3222 8.91432C34.2804 8.91432 32.6253 10.5695 32.6253 12.6112Z" fill="#565B61"/>
<path d="M75.2503 12.6112C75.2503 12.6112 75.2503 12.6112 75.2503 12.6112L75.2503 19.5701H71.9883L71.9883 12.6112C71.9883 12.6112 71.9883 12.6112 71.9883 12.6112C71.9883 8.76794 75.1039 5.65234 78.9472 5.65234C79.2418 5.65234 79.5321 5.67065 79.817 5.70618V9.01724C79.5381 8.94996 79.2468 8.91432 78.9472 8.91432C76.9054 8.91432 75.2503 10.5695 75.2503 12.6112Z" fill="#565B61"/>
<path d="M17.6444 1.84626L17.6444 11.373C17.6208 7.95389 14.8418 5.18952 11.4171 5.18952C7.97784 5.18952 5.18973 7.97763 5.18973 11.4169L5.18952 22.8338H0L1.23641e-06 11.4169C2.4631e-05 5.11151 5.11176 0 11.4171 0C13.7146 0 15.8535 0.678586 17.6444 1.84626Z" fill="#565B61"/>
<path d="M17.646 11.4169C17.646 14.8562 14.8581 17.6444 11.4188 17.6444C7.98758 17.6444 5.20451 14.8694 5.19141 11.4412L5.19141 20.9875C6.98236 22.1553 9.12132 22.8339 11.4188 22.8339C17.7242 22.8339 22.8357 17.7223 22.8357 11.4169L22.8355 3.23881e-07L17.646 0L17.646 11.4169Z" fill="#9DA0A4"/>
</svg>
