<svg width="584" height="200" viewBox="0 0 584 200" fill="none" xmlns="http://www.w3.org/2000/svg">
<g clipPath="url(#clip0_4304_77638)">
<rect width="584" height="200" rx="4" fill="#69A3CC"/>
<path d="M156.055 102.999C146.723 99.4508 201.548 100.448 232.043 62.1191C254.547 33.8342 307.5 20.4978 357.023 62.1191C391.169 90.8171 438.5 116.5 497 72.7621" stroke="#0C151D" stroke-dasharray="2 2"/>
<path d="M597.5 200L-14 95V200H597.5Z" fill="#217BBB"/>
<path d="M583.5 198L402 166.5L584 134.5L583.5 198Z" fill="#005C9E"/>
<path d="M244 60.3892C244 59.144 245.126 58.2015 246.352 58.4204L298.352 67.7061C299.305 67.8764 300 68.706 300 69.6749V147.612C300 148.857 298.874 149.799 297.648 149.581L245.648 140.295C244.695 140.124 244 139.295 244 138.326V60.3892Z" fill="#F5F8FB"/>
<path fillRule="evenodd" clipRule="evenodd" d="M298.176 68.6905L246.176 59.4048C245.563 59.2954 245 59.7666 245 60.3892V138.326C245 138.81 245.347 139.225 245.824 139.31L297.824 148.596C298.437 148.706 299 148.234 299 147.612V69.6749C299 69.1905 298.653 68.7757 298.176 68.6905ZM246.352 58.4204C245.126 58.2015 244 59.144 244 60.3892V138.326C244 139.295 244.695 140.124 245.648 140.295L297.648 149.581C298.874 149.799 300 148.857 300 147.612V69.6749C300 68.706 299.305 67.8764 298.352 67.7061L246.352 58.4204Z" fill="#0C151D"/>
<path d="M236 67.4147C236 66.1607 237.141 65.2161 238.373 65.4497L292.373 75.6911C293.317 75.8701 294 76.6952 294 77.6561V133.132C294 138.775 288.867 143.026 283.323 141.975L236 133V67.4147Z" fill="white"/>
<path fillRule="evenodd" clipRule="evenodd" d="M292.186 76.6736L238.186 66.4322C237.57 66.3154 237 66.7877 237 67.4147V132.172L283.509 140.992C288.437 141.927 293 138.148 293 133.132V77.6561C293 77.1756 292.658 76.7631 292.186 76.6736ZM236 133L283.323 141.975C288.867 143.026 294 138.775 294 133.132V77.6561C294 76.6952 293.317 75.8701 292.373 75.6911L238.373 65.4497C237.141 65.2161 236 66.1607 236 67.4147V133Z" fill="#0C151D"/>
<path d="M241 105.383C241 104.14 242.122 103.198 243.347 103.414L285.347 110.813C286.303 110.981 287 111.812 287 112.783V139.948C287 141.174 285.906 142.112 284.694 141.924L275.5 140.5L264 137.948L241 133.896V105.383Z" fill="white"/>
<path fillRule="evenodd" clipRule="evenodd" d="M264.195 136.967L275.685 139.517L284.847 140.936C285.453 141.03 286 140.561 286 139.948V112.783C286 112.297 285.651 111.882 285.174 111.798L243.173 104.399C242.561 104.291 242 104.762 242 105.383V133.057L264.195 136.967ZM241 133.896V105.383C241 104.14 242.122 103.198 243.347 103.414L285.347 110.813C286.303 110.981 287 111.812 287 112.783V139.948C287 141.174 285.906 142.112 284.694 141.924L275.5 140.5L264 137.948L241 133.896Z" fill="#0C151D"/>
<path fillRule="evenodd" clipRule="evenodd" d="M230.367 113.034C229.136 112.805 228 113.749 228 115.001V128.27C228 130.196 229.373 131.849 231.267 132.202L282.267 141.711C282.786 141.808 283.296 141.8 283.779 141.704L283.267 141.609C281.373 141.256 280 139.603 280 137.676V122.288L230.367 113.034Z" fill="white"/>
<path fillRule="evenodd" clipRule="evenodd" d="M230.183 114.018C229.568 113.903 229 114.375 229 115.001V128.27C229 129.715 230.03 130.954 231.45 131.219L279.691 140.213C279.25 139.465 279 138.596 279 137.676V123.119L230.183 114.018ZM280 122.288V137.676C280 138.76 280.435 139.758 281.153 140.486C281.491 140.829 281.892 141.112 282.34 141.316C282.631 141.449 282.941 141.548 283.267 141.609L283.779 141.704C283.602 141.739 283.42 141.763 283.236 141.773C282.92 141.791 282.595 141.772 282.267 141.711L231.267 132.202C229.373 131.849 228 130.196 228 128.27V115.001C228 113.749 229.136 112.805 230.367 113.034L280 122.288Z" fill="#0C151D"/>
<path d="M266 90.0671C266 88.7821 267.16 87.8087 268.426 88.032L285.568 91.0678C286.555 91.2421 287.275 92.1001 287.275 93.1029V96.1387C287.275 97.4237 286.115 98.3971 284.849 98.1738L267.707 95.138C266.72 94.9638 266 94.1057 266 93.1029V90.0671Z" fill="white"/>
<path fillRule="evenodd" clipRule="evenodd" d="M267.882 94.1514L285.023 97.1871C285.676 97.3023 286.275 96.7999 286.275 96.1368V93.101C286.275 92.5834 285.904 92.1406 285.394 92.0506L268.252 89.0148C268.252 89.0148 268.252 89.0149 268.252 89.0148C267.599 88.8998 267 89.4021 267 90.0652V93.101C267 93.6185 267.372 94.0615 267.882 94.1514ZM268.426 88.0301C267.16 87.8067 266 88.7802 266 90.0652V93.101C266 94.1037 266.72 94.9618 267.707 95.1361L284.849 98.1719C286.115 98.3952 287.275 97.4217 287.275 96.1368V93.101C287.275 92.0982 286.555 91.2401 285.568 91.0659L268.426 88.0301Z" fill="#0C151D"/>
<path fillRule="evenodd" clipRule="evenodd" d="M267.882 84.1514L285.023 87.1871C285.676 87.3023 286.275 86.7999 286.275 86.1368V83.101C286.275 82.5834 285.904 82.1406 285.394 82.0506L268.252 79.0148C268.252 79.0148 268.252 79.0149 268.252 79.0148C267.599 78.8998 267 79.4021 267 80.0652V83.101C267 83.6185 267.372 84.0615 267.882 84.1514ZM268.426 78.0301C267.16 77.8067 266 78.7802 266 80.0652V83.101C266 84.1037 266.72 84.9618 267.707 85.1361L284.849 88.1719C286.115 88.3952 287.275 87.4217 287.275 86.1368V83.101C287.275 82.0982 286.555 81.2401 285.568 81.0659L268.426 78.0301Z" fill="#0C151D"/>
<path d="M241 75.4166C241 74.162 242.142 73.2172 243.374 73.452L260.374 76.6901C261.318 76.8697 262 77.6945 262 78.6547V100.083C262 101.337 260.858 102.282 259.626 102.047L242.626 98.8094C241.682 98.6297 241 97.805 241 96.8447V75.4166Z" fill="#217BBB"/>
<path fillRule="evenodd" clipRule="evenodd" d="M260.187 77.6724L243.187 74.4343C242.571 74.3169 242 74.7893 242 75.4166V96.8447C242 97.3249 242.341 97.7372 242.813 97.8271L259.813 101.065C260.429 101.183 261 100.71 261 100.083V78.6547C261 78.1746 260.659 77.7622 260.187 77.6724ZM243.374 73.452C242.142 73.2172 241 74.162 241 75.4166V96.8447C241 97.805 241.682 98.6297 242.626 98.8094L259.626 102.047C260.858 102.282 262 101.337 262 100.083V78.6547C262 77.6945 261.318 76.8697 260.374 76.6901L243.374 73.452Z" fill="#0C151D"/>
<path d="M572 99.3892C572 98.144 570.874 97.2015 569.648 97.4204L517.648 106.706C516.695 106.876 516 107.706 516 108.675V144.612C516 145.857 517.126 146.799 518.352 146.581L570.352 137.295C571.305 137.124 572 136.295 572 135.326V99.3892Z" fill="white"/>
<path fillRule="evenodd" clipRule="evenodd" d="M517.824 107.691L569.824 98.4048C570.437 98.2954 571 98.7666 571 99.3892V135.326C571 135.81 570.653 136.225 570.176 136.31L518.176 145.596C517.563 145.706 517 145.234 517 144.612V108.675C517 108.19 517.347 107.776 517.824 107.691ZM569.648 97.4204C570.874 97.2015 572 98.144 572 99.3892V135.326C572 136.295 571.305 137.124 570.352 137.295L518.352 146.581C517.126 146.799 516 145.857 516 144.612V108.675C516 107.706 516.695 106.876 517.648 106.706L569.648 97.4204Z" fill="#0C151D"/>
<path d="M544.221 84.406L517.046 106.522C516.242 107.176 516.841 108.471 517.86 108.281L570.054 98.5496C570.998 98.3735 571.175 97.0966 570.314 96.6704L545.296 84.2854C544.945 84.1117 544.525 84.1588 544.221 84.406Z" fill="white"/>
<path fillRule="evenodd" clipRule="evenodd" d="M545.073 84.7336C544.897 84.6467 544.687 84.6702 544.535 84.7939L517.36 106.91C516.958 107.237 517.258 107.884 517.768 107.789L569.961 98.0581C570.433 97.97 570.522 97.3316 570.091 97.1185L545.073 84.7336ZM543.904 84.0182C544.36 83.6474 544.99 83.5767 545.517 83.8374L570.535 96.2223C571.826 96.8616 571.561 98.777 570.144 99.0411L517.951 108.772C516.423 109.057 515.523 107.115 516.729 106.134L543.904 84.0182Z" fill="#0C151D"/>
<path fillRule="evenodd" clipRule="evenodd" d="M571.41 98.7864L550.953 128.011C550.496 128.663 549.609 128.845 548.932 128.425L516.736 108.424L517.264 107.575L549.46 127.575C549.685 127.715 549.981 127.655 550.133 127.437L570.591 98.2129L571.41 98.7864Z" fill="#0C151D"/>
<path d="M525 98.8397V112.442C525 112.789 525.179 113.11 525.474 113.293L535.5 119.5L549.195 128C549.646 128.28 550.238 128.158 550.542 127.722L564.82 107.257C564.937 107.09 565 106.89 565 106.685V92.1897C565 91.5685 564.44 91.0976 563.828 91.2047L525.828 97.8547C525.349 97.9384 525 98.3539 525 98.8397Z" fill="#217BBB"/>
<path fillRule="evenodd" clipRule="evenodd" d="M564.5 92.1899C564.5 91.8792 564.22 91.6438 563.914 91.6973L525.914 98.3473C525.675 98.3892 525.5 98.597 525.5 98.8399V112.443C525.5 112.616 525.59 112.777 525.737 112.868L549.458 127.575C549.684 127.715 549.98 127.654 550.132 127.436L564.41 106.971C564.469 106.887 564.5 106.788 564.5 106.685V92.1899ZM563.741 90.7123C564.659 90.5517 565.5 91.258 565.5 92.1899V106.685C565.5 106.992 565.406 107.292 565.23 107.544L550.952 128.008C550.496 128.662 549.608 128.845 548.931 128.425L525.21 113.718C524.769 113.445 524.5 112.962 524.5 112.443V98.8399C524.5 98.1112 525.024 97.4879 525.741 97.3623L563.741 90.7123Z" fill="#0C151D"/>
<path d="M150 43.3892C150 42.144 151.126 41.2015 152.352 41.4204L204.352 50.7061C205.305 50.8764 206 51.706 206 52.6749V130.612C206 131.857 204.874 132.799 203.648 132.581L151.648 123.295C150.695 123.124 150 122.295 150 121.326V43.3892Z" fill="white"/>
<path fillRule="evenodd" clipRule="evenodd" d="M204.176 51.6905L152.176 42.4048C151.563 42.2954 151 42.7666 151 43.3892V121.326C151 121.81 151.347 122.225 151.824 122.31L203.824 131.596C204.437 131.706 205 131.234 205 130.612V52.6749C205 52.1905 204.653 51.7757 204.176 51.6905ZM152.352 41.4204C151.126 41.2015 150 42.144 150 43.3892V121.326C150 122.295 150.695 123.124 151.648 123.295L203.648 132.581C204.874 132.799 206 131.857 206 130.612V52.6749C206 51.706 205.305 50.8764 204.352 50.7061L152.352 41.4204Z" fill="#0C151D"/>
<path d="M141 49.4147C141 48.1607 142.141 47.2161 143.373 47.4497L197.373 57.6911C198.317 57.8701 199 58.6952 199 59.6561V74.5848C199 75.8387 197.859 76.7834 196.627 76.5497L142.627 66.3084C141.683 66.1293 141 65.3042 141 64.3434V49.4147Z" fill="#217BBB"/>
<path fillRule="evenodd" clipRule="evenodd" d="M197.186 58.6736L143.186 48.4322C142.57 48.3154 142 48.7877 142 49.4147V64.3434C142 64.8238 142.342 65.2363 142.814 65.3259L196.814 75.5672C197.43 75.6841 198 75.2117 198 74.5848V59.6561C198 59.1756 197.658 58.7631 197.186 58.6736ZM143.373 47.4497C142.141 47.2161 141 48.1607 141 49.4147V64.3434C141 65.3042 141.683 66.1293 142.627 66.3084L196.627 76.5497C197.859 76.7834 199 75.8387 199 74.5848V59.6561C199 58.6952 198.317 57.8701 197.373 57.6911L143.373 47.4497Z" fill="#0C151D"/>
<path d="M159 77.4401C159 76.178 160.155 75.2315 161.392 75.479L197.392 82.679C198.327 82.8659 199 83.6868 199 84.6401V99.5609C199 100.823 197.845 101.77 196.608 101.522L160.608 94.3221C159.673 94.1351 159 93.3143 159 92.3609V77.4401Z" fill="white"/>
<path fillRule="evenodd" clipRule="evenodd" d="M197.196 83.6596L161.196 76.4596C160.577 76.3358 160 76.8091 160 77.4401V92.3609C160 92.8376 160.336 93.248 160.804 93.3415L196.804 100.541C197.423 100.665 198 100.192 198 99.5609V84.6401C198 84.1635 197.664 83.753 197.196 83.6596ZM161.392 75.479C160.155 75.2315 159 76.178 159 77.4401V92.3609C159 93.3143 159.673 94.1351 160.608 94.3221L196.608 101.522C197.845 101.77 199 100.823 199 99.5609V84.6401C199 83.6868 198.327 82.8659 197.392 82.679L161.392 75.479Z" fill="#0C151D"/>
<path d="M159 101.44C159 100.178 160.155 99.2315 161.392 99.479L197.392 106.679C198.327 106.866 199 107.687 199 108.64V123.561C199 124.823 197.845 125.77 196.608 125.522L160.608 118.322C159.673 118.135 159 117.314 159 116.361V101.44Z" fill="white"/>
<path fillRule="evenodd" clipRule="evenodd" d="M197.196 107.66L161.196 100.46C160.577 100.336 160 100.809 160 101.44V116.361C160 116.838 160.336 117.248 160.804 117.341L196.804 124.541C197.423 124.665 198 124.192 198 123.561V108.64C198 108.163 197.664 107.753 197.196 107.66ZM161.392 99.479C160.155 99.2315 159 100.178 159 101.44V116.361C159 117.314 159.673 118.135 160.608 118.322L196.608 125.522C197.845 125.77 199 124.823 199 123.561V108.64C199 107.687 198.327 106.866 197.392 106.679L161.392 99.479Z" fill="#0C151D"/>
<path d="M140 97.3834C140 96.1398 141.123 95.1977 142.348 95.4138L155.348 97.7079C156.303 97.8766 157 98.707 157 99.6775V114.616C157 115.859 155.877 116.801 154.652 116.585L141.652 114.291C140.697 114.122 140 113.292 140 112.322V97.3834Z" fill="white"/>
<path d="M140 97.3834C140 96.1398 141.123 95.1977 142.348 95.4138L155.348 97.7079C156.303 97.8766 157 98.707 157 99.6775V114.616C157 115.859 155.877 116.801 154.652 116.585L141.652 114.291C140.697 114.122 140 113.292 140 112.322V97.3834Z" fill="#69A3CC" fill-opacity="0.24"/>
<path fillRule="evenodd" clipRule="evenodd" d="M155.174 98.6927L142.174 96.3986C141.561 96.2905 141 96.7616 141 97.3834V112.322C141 112.807 141.348 113.222 141.826 113.306L154.826 115.6C155.439 115.709 156 115.237 156 114.616V99.6775C156 99.1922 155.652 98.777 155.174 98.6927ZM142.348 95.4138C141.123 95.1977 140 96.1398 140 97.3834V112.322C140 113.292 140.697 114.122 141.652 114.291L154.652 116.585C155.877 116.801 157 115.859 157 114.616V99.6775C157 98.707 156.303 97.8766 155.348 97.7079L142.348 95.4138Z" fill="#0C151D"/>
<path d="M140 73.3834C140 72.1398 141.123 71.1977 142.348 71.4138L155.348 73.7079C156.303 73.8766 157 74.707 157 75.6775V90.6157C157 91.8593 155.877 92.8014 154.652 92.5852L141.652 90.2911C140.697 90.1225 140 89.292 140 88.3216V73.3834Z" fill="white"/>
<path fillRule="evenodd" clipRule="evenodd" d="M155.174 74.6927L142.174 72.3986C141.561 72.2905 141 72.7616 141 73.3834V88.3216C141 88.8068 141.348 89.222 141.826 89.3063L154.826 91.6005C155.439 91.7085 156 91.2375 156 90.6157V75.6775C156 75.1922 155.652 74.777 155.174 74.6927ZM142.348 71.4138C141.123 71.1977 140 72.1398 140 73.3834V88.3216C140 89.292 140.697 90.1225 141.652 90.2911L154.652 92.5852C155.877 92.8014 157 91.8593 157 90.6157V75.6775C157 74.707 156.303 73.8766 155.348 73.7079L142.348 71.4138Z" fill="#0C151D"/>
<path d="M0 47.4069C0 46.1554 1.13632 45.2114 2.36656 45.4407L116.367 66.695C117.313 66.8715 118 67.6979 118 68.6611V87.5922C118 88.8436 116.864 89.7877 115.633 89.5583L1.63343 68.304C0.686547 68.1275 0 67.3011 0 66.3379V47.4069Z" fill="white"/>
<path fillRule="evenodd" clipRule="evenodd" d="M116.183 67.678L2.18328 46.4238C1.56816 46.3091 1 46.7811 1 47.4069V66.3379C1 66.8195 1.34327 67.2327 1.81671 67.321L115.817 88.5752C116.432 88.6899 117 88.2179 117 87.5922V68.6611C117 68.1795 116.657 67.7663 116.183 67.678ZM2.36656 45.4407C1.13632 45.2114 0 46.1554 0 47.4069V66.3379C0 67.3011 0.686547 68.1275 1.63343 68.304L115.633 89.5583C116.864 89.7877 118 88.8436 118 87.5922V68.6611C118 67.6979 117.313 66.8715 116.367 66.695L2.36656 45.4407Z" fill="#0C151D"/>
<path fillRule="evenodd" clipRule="evenodd" d="M100.536 71.6481C98.1327 73.0089 97.288 76.06 98.6489 78.4628C100.01 80.8656 103.061 81.7103 105.464 80.3495L106.449 82.0898C103.085 83.9949 98.8138 82.8124 96.9086 79.4484C95.0034 76.0844 96.186 71.813 99.55 69.9078L100.536 71.6481Z" fill="#217BBB"/>
<path fillRule="evenodd" clipRule="evenodd" d="M100.535 71.6547C102.938 70.2939 105.989 71.1386 107.35 73.5414C108.711 75.9443 107.866 78.9953 105.463 80.3562L106.449 82.0964C109.813 80.1913 110.995 75.9198 109.09 72.5558C107.185 69.1919 102.914 68.0093 99.5496 69.9145L100.535 71.6547Z" fill="#0C151D"/>
<path d="M6 58.1805C6 57.5625 6.55487 57.0925 7.1644 57.1941L11.1644 57.8607C11.6466 57.9411 12 58.3583 12 58.8471V62.8195C12 63.4375 11.4451 63.9075 10.8356 63.8059L6.8356 63.1393C6.35341 63.0589 6 62.6417 6 62.1529V58.1805Z" fill="#0C151D"/>
<path d="M16 60.1805C16 59.5625 16.5549 59.0925 17.1644 59.1941L21.1644 59.8607C21.6466 59.9411 22 60.3583 22 60.8471V64.8195C22 65.4375 21.4451 65.9075 20.8356 65.8059L16.8356 65.1393C16.3534 65.0589 16 64.6417 16 64.1529V60.1805Z" fill="#0C151D"/>
<path d="M26 62.1805C26 61.5625 26.5549 61.0925 27.1644 61.1941L31.1644 61.8607C31.6466 61.9411 32 62.3583 32 62.8471V66.8195C32 67.4375 31.4451 67.9075 30.8356 67.8059L26.8356 67.1393C26.3534 67.0589 26 66.6417 26 66.1529V62.1805Z" fill="#0C151D"/>
<path fillRule="evenodd" clipRule="evenodd" d="M406.391 93.7021L474.391 102.649C474.627 102.68 474.854 102.738 475.068 102.82C476.74 103.283 478 104.816 478 106.676V105.624C478 103.616 476.512 101.92 474.522 101.658L406.522 92.7106C404.126 92.3954 402 94.26 402 96.6764V115.624C402 114.616 402.375 113.687 403 112.978V96.6764C403 94.8641 404.595 93.4656 406.391 93.7021Z" fill="#0C151D"/>
<path fillRule="evenodd" clipRule="evenodd" d="M398.609 93.2607L330.609 102.208C330.373 102.239 330.146 102.297 329.932 102.378C328.26 102.842 327 104.375 327 106.235V105.182C327 103.175 328.488 101.478 330.478 101.217L398.478 92.2692C400.874 91.954 403 93.8186 403 96.235V115.182C403 114.175 402.625 113.245 402 112.537V96.235C402 94.4227 400.405 93.0242 398.609 93.2607Z" fill="#0C151D"/>
<path fillRule="evenodd" clipRule="evenodd" d="M409.283 76.6963C408.078 76.5241 407 77.4591 407 78.6762V81.9178L397.261 80.6364C396.063 80.4788 395 81.4111 395 82.6193V128.831C395 130.838 396.488 132.535 398.478 132.797L471 142.339V92.093C471 91.0893 470.256 90.241 469.261 90.1101L428 84.681V81.1047C428 80.1094 427.268 79.2656 426.283 79.1248L409.283 76.6963Z" fill="#FCFCFC"/>
<path fillRule="evenodd" clipRule="evenodd" d="M408 83.058L397.13 81.6278C396.532 81.549 396 82.0152 396 82.6193V128.831C396 130.336 397.116 131.609 398.609 131.805L470 141.199V92.093C470 91.5911 469.628 91.167 469.13 91.1015L427 85.558V81.1047C427 80.6071 426.634 80.1852 426.141 80.1148L409.141 77.6862C408.539 77.6001 408 78.0676 408 78.6762V83.058ZM471 142.339L398.478 132.797C396.488 132.535 395 130.838 395 128.831V82.6193C395 81.4111 396.063 80.4788 397.261 80.6364L407 81.9178V78.6762C407 77.4591 408.078 76.5241 409.283 76.6963L426.283 79.1248C427.268 79.2656 428 80.1094 428 81.1047V84.681L469.261 90.1101C470.256 90.241 471 91.0893 471 92.093V142.339Z" fill="#0C151D"/>
<path fillRule="evenodd" clipRule="evenodd" d="M397.283 78.6963C396.078 78.5241 395 79.4591 395 80.6762V83.9178L385.261 82.6364C384.063 82.4788 383 83.4111 383 84.6193V130.831C383 132.838 384.488 134.535 386.478 134.797L459 144.339V94.093C459 93.0893 458.256 92.241 457.261 92.1101L416 86.681V83.1047C416 82.1094 415.268 81.2656 414.283 81.1248L397.283 78.6963Z" fill="#FCFCFC"/>
<path fillRule="evenodd" clipRule="evenodd" d="M396 85.058L385.13 83.6278C384.532 83.549 384 84.0152 384 84.6193V130.831C384 132.336 385.116 133.609 386.609 133.805L458 143.199V94.093C458 93.5911 457.628 93.167 457.13 93.1015L415 87.558V83.1047C415 82.6071 414.634 82.1852 414.141 82.1148L397.141 79.6862C396.539 79.6001 396 80.0676 396 80.6762V85.058ZM459 144.339L386.478 134.797C384.488 134.535 383 132.838 383 130.831V84.6193C383 83.4111 384.063 82.4788 385.261 82.6364L395 83.9178V80.6762C395 79.4591 396.078 78.5241 397.283 78.6963L414.283 81.1248C415.268 81.2656 416 82.1094 416 83.1047V86.681L457.261 92.1101C458.256 92.241 459 93.0893 459 94.093V144.339Z" fill="#0C151D"/>
<path fillRule="evenodd" clipRule="evenodd" d="M384.283 80.6963C383.078 80.5241 382 81.4591 382 82.6762V85.9178L372.261 84.6364C371.063 84.4788 370 85.4111 370 86.6193V132.831C370 134.838 371.488 136.535 373.478 136.797L446 146.339V96.093C446 95.0893 445.256 94.241 444.261 94.1101L403 88.681V85.1047C403 84.1094 402.268 83.2656 401.283 83.1248L384.283 80.6963Z" fill="#FCFCFC"/>
<path fillRule="evenodd" clipRule="evenodd" d="M383 87.058L372.13 85.6278C371.532 85.549 371 86.0152 371 86.6193V132.831C371 134.336 372.116 135.609 373.609 135.805L445 145.199V96.093C445 95.5911 444.628 95.167 444.13 95.1015L402 89.558V85.1047C402 84.6071 401.634 84.1852 401.141 84.1148L384.141 81.6862C383.539 81.6001 383 82.0676 383 82.6762V87.058ZM446 146.339L373.478 136.797C371.488 136.535 370 134.838 370 132.831V86.6193C370 85.4111 371.063 84.4788 372.261 84.6364L382 85.9178V82.6762C382 81.4591 383.078 80.5241 384.283 80.6963L401.283 83.1248C402.268 83.2656 403 84.1094 403 85.1047V88.681L444.261 94.1101C445.256 94.241 446 95.0893 446 96.093V146.339Z" fill="#0C151D"/>
<path fillRule="evenodd" clipRule="evenodd" d="M372.283 53.6963C371.078 53.5241 370 54.4591 370 55.6762V58.6131L360.261 57.3317C359.063 57.1741 358 58.1064 358 59.3146V105.526C358 107.533 359.488 109.23 361.478 109.492L434 119.034V68.7883C434 67.7846 433.256 66.9363 432.261 66.8054L391 61.3763V58.1047C391 57.1094 390.268 56.2656 389.283 56.1248L372.283 53.6963Z" fill="#217BBB"/>
<path fillRule="evenodd" clipRule="evenodd" d="M371 59.7533L360.13 58.3231C359.532 58.2443 359 58.7105 359 59.3146V105.526C359 107.032 360.116 108.304 361.609 108.5L433 117.894V68.7883C433 68.2864 432.628 67.8623 432.13 67.7968L390 62.2533V58.1047C390 57.6071 389.634 57.1852 389.141 57.1148L372.141 54.6862C371.539 54.6001 371 55.0676 371 55.6762V59.7533ZM434 119.034L361.478 109.492C359.488 109.23 358 107.533 358 105.526V59.3146C358 58.1064 359.063 57.1741 360.261 57.3317L370 58.6131V55.6762C370 54.4591 371.078 53.5241 372.283 53.6963L389.283 56.1248C390.268 56.2656 391 57.1094 391 58.1047V61.3763L432.261 66.8054C433.256 66.9363 434 67.7846 434 68.7883V119.034Z" fill="#0C151D"/>
<path fillRule="evenodd" clipRule="evenodd" d="M358.283 85.7041C357.078 85.5319 356 86.4669 356 87.684V90.9256L346.261 89.6442C345.063 89.4866 344 90.4189 344 91.6271V137.839C344 139.846 345.488 141.542 347.478 141.804L420 151.347V101.101C420 100.097 419.256 99.2488 418.261 99.1179L377 93.6888V90.1125C377 89.1172 376.268 88.2734 375.283 88.1326L358.283 85.7041Z" fill="#FCFCFC"/>
<path fillRule="evenodd" clipRule="evenodd" d="M357 92.0658L346.13 90.6356C345.532 90.5568 345 91.023 345 91.6271V137.839C345 139.344 346.116 140.616 347.609 140.813L419 150.207V101.101C419 100.599 418.628 100.175 418.13 100.109L376 94.5658V90.1125C376 89.6149 375.634 89.193 375.141 89.1226L358.141 86.694C357.539 86.608 357 87.0754 357 87.684V92.0658ZM420 151.347L347.478 141.804C345.488 141.542 344 139.846 344 137.839V91.6271C344 90.4189 345.063 89.4866 346.261 89.6442L356 90.9256V87.684C356 86.4669 357.078 85.5319 358.283 85.7041L375.283 88.1326C376.268 88.2734 377 89.1172 377 90.1125V93.6888L418.261 99.1179C419.256 99.2488 420 100.097 420 101.101V151.347Z" fill="#0C151D"/>
<path fillRule="evenodd" clipRule="evenodd" d="M346.283 89.0049C345.078 88.8327 344 89.7677 344 90.9848V93.9256L334.261 92.6442C333.063 92.4866 332 93.4189 332 94.6271V140.839C332 142.846 333.488 144.542 335.478 144.804L408 154.347V104.101C408 103.097 407.256 102.249 406.261 102.118L365 96.6888V93.4133C365 92.418 364.268 91.5742 363.283 91.4334L346.283 89.0049Z" fill="#FCFCFC"/>
<path fillRule="evenodd" clipRule="evenodd" d="M345 95.0658L334.13 93.6356C333.532 93.5568 333 94.023 333 94.6271V140.839C333 142.344 334.116 143.616 335.609 143.813L407 153.207V104.101C407 103.599 406.628 103.175 406.13 103.109L364 97.5658V93.4133C364 92.9157 363.634 92.4938 363.141 92.4234L346.141 89.9948C345.539 89.9087 345 90.3762 345 90.9848V95.0658ZM408 154.347L335.478 144.804C333.488 144.542 332 142.846 332 140.839V94.6271C332 93.4189 333.063 92.4866 334.261 92.6442L344 93.9256V90.9848C344 89.7677 345.078 88.8327 346.283 89.0049L363.283 91.4334C364.268 91.5742 365 92.418 365 93.4133V96.6888L406.261 102.118C407.256 102.249 408 103.097 408 104.101V154.347Z" fill="#0C151D"/>
<path d="M327 106.235C327 103.819 329.126 101.954 331.522 102.269L399.522 111.217C401.512 111.478 403 113.175 403 115.182V163.543H402.5H402L330.478 154.132C328.488 153.87 327 152.174 327 150.166V106.235Z" fill="white"/>
<path d="M327 106.235C327 103.819 329.126 101.954 331.522 102.269L399.522 111.217C401.512 111.478 403 113.175 403 115.182V166.543H402.5H402L330.478 154.132C328.488 153.87 327 152.174 327 150.166V106.235Z" fill="#0C151D"/>
<path fillRule="evenodd" clipRule="evenodd" d="M399.391 112.208L331.391 103.261C329.595 103.024 328 104.423 328 106.235V150.166C328 151.672 329.116 152.944 330.609 153.14L402 162.534V115.182C402 113.677 400.884 112.404 399.391 112.208ZM403 115.182C403 113.175 401.512 111.478 399.522 111.217L331.522 102.269C329.126 101.954 327 103.819 327 106.235V150.166C327 152.174 328.488 153.87 330.478 154.132L402 163.544H402.5H403V115.182Z" fill="#0C151D"/>
<path d="M478 106.237C478 103.821 475.874 101.956 473.478 102.271L405.478 111.219C403.488 111.48 402 113.177 402 115.184V164.628C402.613 165.467 403.647 165.89 404.672 165.722L474.648 154.227C476.581 153.909 478 152.239 478 150.28V106.237Z" fill="white"/>
<path fillRule="evenodd" clipRule="evenodd" d="M405.609 112.208L473.609 103.261C475.405 103.024 477 104.423 477 106.235V150.166C477 151.672 475.884 152.944 474.391 153.14L403 165.534V115.182C403 113.677 404.116 112.404 405.609 112.208ZM402 115.182C402 113.175 403.488 111.478 405.478 111.217L473.478 102.269C475.874 101.954 478 103.819 478 106.235V150.166C478 152.174 476.512 153.87 474.522 154.132L403 166.543L402 165.534V115.182Z" fill="#0C151D"/>
<path d="M349 117.924C349 116.731 350.046 115.807 351.231 115.955L371.262 118.459C372.255 118.583 373 119.427 373 120.428C373 121.622 371.954 122.545 370.769 122.397L350.738 119.894C349.745 119.769 349 118.925 349 117.924Z" fill="white"/>
<path d="M411 123.967C411 122.964 411.743 122.116 412.737 121.984L480.737 112.975C481.936 112.816 483 113.748 483 114.957V126.767C483 127.77 482.257 128.618 481.263 128.75L413.263 137.759C412.064 137.918 411 136.985 411 135.776V123.967Z" fill="white"/>
<path fillRule="evenodd" clipRule="evenodd" d="M480.869 113.966L412.869 122.975C412.371 123.041 412 123.465 412 123.967V135.776C412 136.381 412.532 136.847 413.131 136.767L481.131 127.758C481.629 127.692 482 127.268 482 126.767V114.957C482 114.353 481.468 113.887 480.869 113.966ZM412.737 121.984C411.743 122.116 411 122.964 411 123.967V135.776C411 136.985 412.064 137.918 413.263 137.759L481.263 128.75C482.257 128.618 483 127.77 483 126.767V114.957C483 113.748 481.936 112.816 480.737 112.975L412.737 121.984Z" fill="#0C151D"/>
<path d="M411 143.214C411 141.661 412.151 140.349 413.691 140.146L426.502 138.461C428.355 138.217 430 139.659 430 141.528C430 143.081 428.849 144.394 427.309 144.596L414.498 146.282C412.645 146.526 411 145.083 411 143.214Z" fill="white"/>
<path fillRule="evenodd" clipRule="evenodd" d="M426.632 139.452L413.821 141.138C412.779 141.275 412 142.163 412 143.214C412 144.479 413.113 145.456 414.368 145.291L427.179 143.605C428.221 143.468 429 142.579 429 141.528C429 140.263 427.887 139.287 426.632 139.452ZM413.691 140.146C412.151 140.349 411 141.661 411 143.214C411 145.083 412.645 146.526 414.498 146.282L427.309 144.596C428.849 144.394 430 143.081 430 141.528C430 139.659 428.355 138.217 426.502 138.461L413.691 140.146Z" fill="#0C151D"/>
<path d="M432 140.695C432 139.143 433.15 137.831 434.689 137.628L443.5 136.463C445.354 136.218 447 137.66 447 139.53C447 141.082 445.85 142.394 444.311 142.598L435.5 143.762C433.646 144.007 432 142.565 432 140.695Z" fill="#69A3CC" fill-opacity="0.24"/>
<path fillRule="evenodd" clipRule="evenodd" d="M443.632 137.454L434.82 138.619C433.778 138.757 433 139.644 433 140.695C433 141.96 434.114 142.937 435.368 142.771L444.18 141.606C445.222 141.468 446 140.581 446 139.53C446 138.265 444.886 137.288 443.632 137.454ZM434.689 137.628C433.15 137.831 432 139.143 432 140.695C432 142.565 433.646 144.007 435.5 143.762L444.311 142.598C445.85 142.394 447 141.082 447 139.53C447 137.66 445.354 136.218 443.5 136.463L434.689 137.628Z" fill="#0C151D"/>
<path fillRule="evenodd" clipRule="evenodd" d="M472.119 118.737C470.773 119.499 470.299 121.209 471.062 122.556C471.825 123.902 473.534 124.375 474.881 123.613L475.374 124.483C473.547 125.518 471.227 124.875 470.192 123.048C469.157 121.221 469.799 118.901 471.626 117.867L472.119 118.737Z" fill="#0C151D"/>
<path fillRule="evenodd" clipRule="evenodd" d="M472.119 118.738C473.466 117.975 475.175 118.449 475.938 119.795C476.701 121.142 476.227 122.851 474.881 123.614L475.374 124.484C477.201 123.449 477.843 121.129 476.808 119.302C475.773 117.475 473.453 116.833 471.626 117.868L472.119 118.738Z" fill="#0C151D"/>
<path fillRule="evenodd" clipRule="evenodd" d="M477.646 126.029L475.646 124.029L476.354 123.322L478.354 125.322L477.646 126.029Z" fill="#0C151D"/>
<path fillRule="evenodd" clipRule="evenodd" d="M127.863 40.9087C122.42 41.0042 118.026 45.4 117.932 50.8438L117.928 50.8438C117.837 45.3994 113.443 41.0024 108 40.9056L108 40.8993C113.436 40.8026 117.826 36.4157 117.928 30.9801L117.932 30.9801C118.032 36.418 122.424 40.8071 127.863 40.9025L127.863 40.9087Z" fill="#0C151D"/>
<path fillRule="evenodd" clipRule="evenodd" d="M142.311 26.0333C138.349 26.1026 135.152 29.3032 135.087 33.2656L135.085 33.2656C135.02 29.3041 131.824 26.1039 127.864 26.0331L127.864 26.0274C131.816 25.9568 135.007 22.7695 135.084 18.8191L135.088 18.8191C135.164 22.7706 138.357 25.9586 142.311 26.0277L142.311 26.0333Z" fill="#0C151D"/>
<path fillRule="evenodd" clipRule="evenodd" d="M304 63.9164C309.436 63.8195 313.826 59.4345 313.93 54.0002L313.935 54.0002C314.04 59.434 318.431 63.8179 323.867 63.9132L323.867 63.916C318.418 64.0115 314.02 68.4158 313.934 73.8672L313.931 73.8672C313.843 68.4183 309.447 64.0163 304 63.9193L304 63.9164Z" fill="#0C151D"/>
<path fillRule="evenodd" clipRule="evenodd" d="M494 110.987C498.387 111.065 501.928 114.611 501.998 119L502.001 119C502.07 114.61 505.612 111.063 510 110.986L510 110.98C505.623 110.904 502.088 107.375 502.001 103L501.997 103C501.911 107.375 498.377 110.904 494 110.982L494 110.987Z" fill="#0C151D"/>
<path fillRule="evenodd" clipRule="evenodd" d="M516 96.9949C513.807 97.0334 512.036 98.8058 512 101L511.999 101C511.963 98.8062 510.193 97.034 508 96.9949L508 96.9915C510.189 96.9525 511.956 95.1876 511.998 93.0001L512 93.0001C512.043 95.188 513.811 96.9532 516 96.9916L516 96.9949Z" fill="#0C151D"/>
<path fillRule="evenodd" clipRule="evenodd" d="M532.024 48.7895L509.009 62.5374L495.663 57.007C495.207 56.8178 495.272 56.1518 495.757 56.0548L532.024 48.7895ZM532.847 49.463L509.515 63.4001L514.154 77.5319C514.286 77.9336 514.826 78.0004 515.052 77.6429L532.831 49.4895C532.836 49.4807 532.842 49.4719 532.847 49.463ZM532.113 47.7517C533.407 47.4927 534.38 48.9084 533.676 50.0234L515.898 78.1768C515.22 79.2495 513.6 79.0491 513.204 77.8438L510.648 70.0587L504.338 70.5697C503.389 70.6465 502.61 69.8319 502.729 68.8876L503.668 61.4067L495.281 57.9308C493.911 57.3634 494.107 55.3654 495.56 55.0743L532.113 47.7517ZM504.587 62.1196L503.721 69.0122C503.681 69.327 503.941 69.5985 504.257 69.5729L510.254 69.0874L508.264 63.697L504.587 62.1196Z" fill="#0C151D"/>
</g>
<defs>
<clipPath id="clip0_4304_77638">
<rect width="584" height="200" rx="4" fill="white"/>
</clipPath>
</defs>
</svg>
