<svg width="32" height="32" viewBox="0 0 32 32" fill="none" xmlns="http://www.w3.org/2000/svg">
<g id="Mask group">
<mask id="mask0_21024_620" style="mask-type:alpha" maskUnits="userSpaceOnUse" x="0" y="0" width="32" height="32">
<rect id="Rectangle 12366" width="32" height="32" fill="#D9D9D9"/>
</mask>
<g mask="url(#mask0_21024_620)">
<rect id="Rectangle 12367" x="-2.37939" y="-5.27985" width="40.651" height="38.6681" fill="#D5DBE2"/>
<g id="Group 1171277671">
<g id="Rice Front">
<g id="Left Arm">
<g id="Group 13352">
<path id="Rectangle 9548" d="M24.4025 19.6567C24.3903 19.1878 25.0113 18.7913 25.7896 18.7709C26.5679 18.7506 27.2087 19.1143 27.221 19.5831L27.3219 26.4474L24.5902 26.8449L24.4025 19.6567Z" fill="#8CC942"/>
</g>
</g>
<g id="Left Arm_2">
<g id="Group 13352_2">
<path id="Rectangle 9548_2" d="M7.63701 19.6562C7.64926 19.1873 7.02825 18.7907 6.24996 18.7704C5.47166 18.7501 4.83081 19.1137 4.81857 19.5826L4.71765 26.4469L7.44935 26.8443L7.63701 19.6562Z" fill="#8CC942"/>
<path id="Rectangle 9549" d="M14.8216 26.5722C14.8373 25.9689 14.0383 25.4586 13.0368 25.4325C12.0353 25.4063 11.2107 25.8742 11.195 26.4775L11.0651 35.3101L14.5801 35.8215L14.8216 26.5722Z" fill="#8CC942"/>
<path id="Rectangle 9550" d="M21.6062 26.5722C21.622 25.9689 20.8229 25.4586 19.8215 25.4325C18.82 25.4063 17.9954 25.8742 17.9796 26.4775L17.8498 35.3101L21.3648 35.8215L21.6062 26.5722Z" fill="#8CC942"/>
</g>
</g>
<path id="Body" fillRule="evenodd" clipRule="evenodd" d="M6.21953 24.9415C6.21953 27.5367 8.32335 29.6405 10.9185 29.6405L21.7263 29.6405C24.3215 29.6405 26.4253 27.5367 26.4253 24.9415L26.4253 12.1837L26.4253 10.3745L26.4253 7.2497L17.3562 7.2497L17.3562 9.90464L15.4766 9.90464L15.4766 7.2497L6.21954 7.2497L6.21954 10.3745L6.21954 12.1837L6.21953 24.9415Z" fill="#22272F"/>
<path id="Face" d="M26.4253 17.2585H6.21953V22.4274H26.4253V17.2585Z" fill="#C1EF78"/>
<g id="Pants">
<mask id="mask1_21024_620" style="mask-type:alpha" maskUnits="userSpaceOnUse" x="6" y="7" width="21" height="23">
<path id="Subtract" fillRule="evenodd" clipRule="evenodd" d="M10.9185 29.6408C8.32335 29.6408 6.21953 27.537 6.21953 24.9418V22.4278L6.21953 12.184V7.25L6.21953 22.4278H26.4253L26.4253 24.9418C26.4253 27.537 24.3215 29.6408 21.7263 29.6408H10.9185Z" fill="#0C151D"/>
</mask>
<g mask="url(#mask1_21024_620)">
<path id="Rectangle 9590" d="M26.4253 23.3682H6.21953V24.308H26.4253V23.3682Z" fill="#526277"/>
<path id="Rectangle 9592" d="M26.4253 27.1264H6.21953V28.0662H26.4253V27.1264Z" fill="#526277"/>
<path id="Rectangle 9591" d="M26.4253 25.2472H6.21953V26.187H26.4253V25.2472Z" fill="#526277"/>
<path id="Rectangle 9593" d="M26.4253 29.0062H6.21953V29.946H26.4253V29.0062Z" fill="#526277"/>
</g>
</g>
<g id="Eyes">
<g id="Group 13356">
<path id="Subtract_2" fillRule="evenodd" clipRule="evenodd" d="M20.9042 18.7623C20.9042 19.8004 20.0627 20.6419 19.0246 20.6419C17.9865 20.6419 17.145 19.8004 17.145 18.7623L20.9042 18.7623Z" fill="white"/>
<g id="Mask group_2">
<mask id="mask2_21024_620" style="mask-type:alpha" maskUnits="userSpaceOnUse" x="17" y="18" width="4" height="3">
<path id="Subtract_3" fillRule="evenodd" clipRule="evenodd" d="M20.9042 18.7623C20.9042 19.8004 20.0627 20.6419 19.0246 20.6419C17.9865 20.6419 17.145 19.8004 17.145 18.7623L20.9042 18.7623Z" fill="#D9D9D9"/>
</mask>
<g mask="url(#mask2_21024_620)">
<path id="Rectangle 9545" d="M19.4941 18.7621H18.5543V20.8767H19.4941V18.7621Z" fill="#22272F"/>
</g>
</g>
</g>
<g id="Group 13357">
<path id="Subtract_4" fillRule="evenodd" clipRule="evenodd" d="M11.7407 18.7623L15.4999 18.7623C15.4999 19.8004 14.6584 20.6419 13.6203 20.6419C12.5823 20.6419 11.7407 19.8004 11.7407 18.7623Z" fill="white"/>
<g id="Mask group_3">
<mask id="mask3_21024_620" style="mask-type:alpha" maskUnits="userSpaceOnUse" x="11" y="18" width="5" height="3">
<path id="Subtract_5" fillRule="evenodd" clipRule="evenodd" d="M11.7412 18.7623L15.5004 18.7623C15.5004 19.8004 14.6589 20.6419 13.6208 20.6419C12.5827 20.6419 11.7412 19.8004 11.7412 18.7623Z" fill="#D9D9D9"/>
</mask>
<g mask="url(#mask3_21024_620)">
<path id="Rectangle 9545_2" d="M14.0903 18.7621H13.1505V20.8767H14.0903V18.7621Z" fill="#22272F"/>
</g>
</g>
</g>
</g>
<path id="Rectangle 9660" d="M21.9223 24.8604C22.0836 25.1194 22.5715 25.107 23.0121 24.8326L24.6076 23.8389C25.0482 23.5646 25.2746 23.1321 25.1133 22.8731L24.1348 21.302C23.9735 21.043 23.4855 21.0554 23.045 21.3298L21.4495 22.3235C21.0089 22.5979 20.7825 23.0303 20.9438 23.2893L21.9223 24.8604Z" fill="#8CC942"/>
<path id="Rectangle 9659" d="M22.7061 24.3433C22.3663 23.8376 22.4401 23.193 22.8709 22.9035L23.6509 22.3793C24.0817 22.0898 24.7064 22.2651 25.0462 22.7708L27.1075 25.8382C27.4473 26.3439 27.3735 26.9885 26.9427 27.278L26.1627 27.8022C25.7319 28.0917 25.1072 27.9164 24.7673 27.4107L22.7061 24.3433Z" fill="#8CC942"/>
</g>
<g id="Group 1000001193">
<path id="Rectangle 9662" d="M9.30853 24.3428C9.64835 23.8371 9.57459 23.1924 9.14378 22.9029L8.36374 22.3788C7.93293 22.0893 7.30822 22.2645 6.9684 22.7702L4.90716 25.8376C4.56735 26.3433 4.64111 26.988 5.07192 27.2775L5.85196 27.8016C6.28277 28.0911 6.90748 27.9159 7.2473 27.4102L9.30853 24.3428Z" fill="#8CC942"/>
<path id="Rectangle 9661" d="M10.0929 24.8599C9.93155 25.1189 9.44362 25.1064 9.00304 24.832L7.40755 23.8384C6.96696 23.564 6.74057 23.1316 6.90188 22.8726L7.88035 21.3015C8.04166 21.0424 8.52959 21.0549 8.97018 21.3293L10.5657 22.3229C11.0062 22.5973 11.2326 23.0297 11.0713 23.2887L10.0929 24.8599Z" fill="#8CC942"/>
<path id="Union" fillRule="evenodd" clipRule="evenodd" d="M15.0625 24.4174C14.7191 25.2616 13.8905 25.8568 12.9229 25.8568C11.9217 25.8568 11.0694 25.2196 10.7494 24.3285L10.1653 24.8738L9.25146 23.8948L11.0134 22.25C11.4289 21.6399 12.1292 21.2393 12.9229 21.2393C13.6616 21.2393 14.3192 21.5862 14.7418 22.1259C14.7824 22.1187 14.8241 22.1149 14.8667 22.1149H17.3337C17.3836 22.1149 17.4322 22.12 17.4791 22.1299C17.9016 21.5879 18.5607 21.2393 19.3011 21.2393C20.0938 21.2393 20.7931 21.6388 21.2089 22.2474L22.9988 23.9183L22.0849 24.8973L21.4749 24.3278C21.1551 25.2192 20.3026 25.8568 19.3011 25.8568C18.3335 25.8568 17.505 25.2616 17.1616 24.4174H15.0625Z" fill="#787B80"/>
<path id="Union_2" fillRule="evenodd" clipRule="evenodd" d="M11.6008 29.3985C12.9988 29.3985 14.1916 28.5201 14.6575 27.2851C14.8416 27.3454 15.0383 27.3779 15.2425 27.3779H16.9577C17.1697 27.3779 17.3735 27.3428 17.5636 27.2781C18.0276 28.5168 19.2222 29.3985 20.6229 29.3985C22.4265 29.3985 23.8887 27.9364 23.8887 26.1327C23.8887 24.329 22.4265 22.8669 20.6229 22.8669C19.5821 22.8669 18.655 23.3537 18.057 24.1121H14.1666C13.5686 23.3537 12.6415 22.8669 11.6008 22.8669C9.79712 22.8669 8.33496 24.329 8.33496 26.1327C8.33496 27.9364 9.79712 29.3985 11.6008 29.3985Z" fill="#526277"/>
<path id="Ellipse 172" d="M22.785 26.1442C22.785 27.3315 21.8225 28.294 20.6352 28.294C19.4478 28.294 18.4854 27.3315 18.4854 26.1442C18.4854 24.9569 19.4478 23.9944 20.6352 23.9944C21.8225 23.9944 22.785 24.9569 22.785 26.1442Z" fill="#22272F"/>
<path id="Ellipse 173" d="M13.7386 26.1442C13.7386 27.3315 12.7761 28.294 11.5888 28.294C10.4015 28.294 9.43896 27.3315 9.43896 26.1442C9.43896 24.9569 10.4015 23.9944 11.5888 23.9944C12.7761 23.9944 13.7386 24.9569 13.7386 26.1442Z" fill="#22272F"/>
<path id="Rectangle 9555" d="M21.6229 21.7356C21.2646 21.7958 21.0229 22.1351 21.0832 22.4934C21.1434 22.8517 21.4827 23.0933 21.841 23.0331L23.2658 22.7936C23.5217 22.7506 23.6943 22.5082 23.6513 22.2523L23.589 21.8816C23.546 21.6257 23.3036 21.4531 23.0477 21.4961L21.6229 21.7356Z" fill="#8CC942"/>
<path id="Rectangle 9556" d="M20.9881 21.172C20.6298 21.2322 20.3882 21.5715 20.4484 21.9298C20.5086 22.2881 20.8479 22.5297 21.2062 22.4695L22.631 22.23C22.8869 22.187 23.0595 21.9446 23.0165 21.6887L22.9542 21.318C22.9112 21.0621 22.6689 20.8895 22.4129 20.9325L20.9881 21.172Z" fill="#8CC942"/>
<path id="Rectangle 9557" d="M20.5653 20.5847C20.207 20.6449 19.9653 20.9842 20.0255 21.3425C20.0858 21.7008 20.4251 21.9424 20.7834 21.8822L22.2082 21.6427C22.4641 21.5997 22.6367 21.3574 22.5937 21.1014L22.5314 20.7307C22.4883 20.4748 22.246 20.3022 21.9901 20.3452L20.5653 20.5847Z" fill="#8CC942"/>
<path id="Rectangle 9558" d="M22.5176 20.4114C22.1643 20.2325 21.7449 20.3504 21.5809 20.6745C21.4168 20.9987 21.5702 21.4065 21.9235 21.5853L23.3284 22.2963C23.5807 22.4241 23.8803 22.3399 23.9975 22.1083L24.1673 21.7729C24.2845 21.5414 24.1749 21.2501 23.9225 21.1224L22.5176 20.4114Z" fill="#8CC942"/>
</g>
<path id="Rectangle 9559" d="M10.3918 21.7359C10.7501 21.7961 10.9917 22.1354 10.9315 22.4937C10.8713 22.852 10.532 23.0936 10.1737 23.0334L8.74887 22.7939C8.49294 22.7509 8.32034 22.5085 8.36336 22.2526L8.42567 21.8819C8.46868 21.626 8.71103 21.4534 8.96696 21.4964L10.3918 21.7359Z" fill="#8CC942"/>
<path id="Rectangle 9560" d="M11.026 21.1722C11.3843 21.2324 11.626 21.5717 11.5658 21.93C11.5055 22.2883 11.1663 22.53 10.808 22.4697L9.38314 22.2302C9.12722 22.1872 8.95462 21.9449 8.99763 21.689L9.05994 21.3182C9.10296 21.0623 9.3453 20.8897 9.60123 20.9327L11.026 21.1722Z" fill="#8CC942"/>
<path id="Rectangle 9561" d="M11.4489 20.5849C11.8072 20.6451 12.0488 20.9844 11.9886 21.3427C11.9284 21.701 11.5891 21.9427 11.2308 21.8824L9.806 21.643C9.55007 21.5999 9.37747 21.3576 9.42048 21.1017L9.4828 20.731C9.52581 20.475 9.76816 20.3024 10.0241 20.3454L11.4489 20.5849Z" fill="#8CC942"/>
<path id="Rectangle 9562" d="M9.49751 20.4116C9.8508 20.2328 10.2702 20.3506 10.4343 20.6748C10.5984 20.999 10.445 21.4067 10.0917 21.5855L8.68676 22.2966C8.43441 22.4243 8.13483 22.3401 8.01763 22.1086L7.84787 21.7732C7.73068 21.5416 7.84025 21.2504 8.0926 21.1227L9.49751 20.4116Z" fill="#8CC942"/>
</g>
</g>
</g>
</svg>
