<svg width="360" height="255" viewBox="0 0 360 255" fill="none" xmlns="http://www.w3.org/2000/svg">
<g clipPath="url(#clip0_16361_105434)">
<rect width="360" height="255" fill="url(#paint0_linear_16361_105434)"/>
<path opacity="0.08" fillRule="evenodd" clipRule="evenodd" d="M252.001 132.995C252.001 173.187 284.604 205.77 324.822 205.77L492.308 205.77C532.526 205.77 565.129 173.187 565.129 132.995L565.129 -64.5873L565.129 -92.6055L565.129 -141L424.586 -141L424.586 -99.8829L395.457 -99.8829L395.457 -141L252.001 -141L252.001 -92.6055L252.001 -64.5874L252.001 132.995Z" fill="#CCF88E"/>
<path opacity="0.08" fillRule="evenodd" clipRule="evenodd" d="M158.128 218.774C158.128 178.582 125.525 146 85.3076 146H-147.718C-151.74 146 -155 149.258 -155 153.277V416.357V444.375V492.77H-11.5436V451.652H14.6717V492.77H158.128V444.375V416.357V218.774Z" fill="#FBF8F7"/>
<path d="M127.318 117.192C126.038 117.192 124.814 117 123.646 116.616C122.478 116.216 121.558 115.704 120.886 115.08L121.774 113.208C122.414 113.768 123.23 114.232 124.222 114.6C125.214 114.968 126.246 115.152 127.318 115.152C128.294 115.152 129.086 115.04 129.694 114.816C130.302 114.592 130.75 114.288 131.038 113.904C131.326 113.504 131.47 113.056 131.47 112.56C131.47 111.984 131.278 111.52 130.894 111.168C130.526 110.816 130.038 110.536 129.43 110.328C128.838 110.104 128.182 109.912 127.462 109.752C126.742 109.592 126.014 109.408 125.278 109.2C124.558 108.976 123.894 108.696 123.286 108.36C122.694 108.024 122.214 107.576 121.846 107.016C121.478 106.44 121.294 105.704 121.294 104.808C121.294 103.944 121.518 103.152 121.966 102.432C122.43 101.696 123.134 101.112 124.078 100.68C125.038 100.232 126.254 100.008 127.726 100.008C128.702 100.008 129.67 100.136 130.63 100.392C131.59 100.648 132.422 101.016 133.126 101.496L132.334 103.416C131.614 102.936 130.854 102.592 130.054 102.384C129.254 102.16 128.478 102.048 127.726 102.048C126.782 102.048 126.006 102.168 125.398 102.408C124.79 102.648 124.342 102.968 124.054 103.368C123.782 103.768 123.646 104.216 123.646 104.712C123.646 105.304 123.83 105.776 124.198 106.128C124.582 106.48 125.07 106.76 125.662 106.968C126.27 107.176 126.934 107.368 127.654 107.544C128.374 107.704 129.094 107.888 129.814 108.096C130.55 108.304 131.214 108.576 131.806 108.912C132.414 109.248 132.902 109.696 133.27 110.256C133.638 110.816 133.822 111.536 133.822 112.416C133.822 113.264 133.59 114.056 133.126 114.792C132.662 115.512 131.942 116.096 130.966 116.544C130.006 116.976 128.79 117.192 127.318 117.192ZM141.361 117.144C140.081 117.144 139.089 116.8 138.385 116.112C137.681 115.424 137.329 114.44 137.329 113.16V101.496H139.633V113.064C139.633 113.752 139.801 114.28 140.137 114.648C140.489 115.016 140.985 115.2 141.625 115.2C142.345 115.2 142.945 115 143.425 114.6L144.145 116.256C143.793 116.56 143.369 116.784 142.873 116.928C142.393 117.072 141.889 117.144 141.361 117.144ZM135.169 106.176V104.28H143.281V106.176H135.169ZM154.826 117V114.312L154.706 113.808V109.224C154.706 108.248 154.418 107.496 153.842 106.968C153.282 106.424 152.434 106.152 151.298 106.152C150.546 106.152 149.81 106.28 149.09 106.536C148.37 106.776 147.762 107.104 147.266 107.52L146.306 105.792C146.962 105.264 147.746 104.864 148.658 104.592C149.586 104.304 150.554 104.16 151.562 104.16C153.306 104.16 154.65 104.584 155.594 105.432C156.538 106.28 157.01 107.576 157.01 109.32V117H154.826ZM150.65 117.144C149.706 117.144 148.874 116.984 148.154 116.664C147.45 116.344 146.906 115.904 146.522 115.344C146.138 114.768 145.946 114.12 145.946 113.4C145.946 112.712 146.106 112.088 146.426 111.528C146.762 110.968 147.298 110.52 148.034 110.184C148.786 109.848 149.794 109.68 151.058 109.68H155.09V111.336H151.154C150.002 111.336 149.226 111.528 148.826 111.912C148.426 112.296 148.226 112.76 148.226 113.304C148.226 113.928 148.474 114.432 148.97 114.816C149.466 115.184 150.154 115.368 151.034 115.368C151.898 115.368 152.65 115.176 153.29 114.792C153.946 114.408 154.418 113.848 154.706 113.112L155.162 114.696C154.858 115.448 154.322 116.048 153.554 116.496C152.786 116.928 151.818 117.144 150.65 117.144ZM161.274 117V104.28H163.482V107.736L163.266 106.872C163.618 105.992 164.21 105.32 165.042 104.856C165.874 104.392 166.898 104.16 168.114 104.16V106.392C168.018 106.376 167.922 106.368 167.826 106.368C167.746 106.368 167.666 106.368 167.586 106.368C166.354 106.368 165.378 106.736 164.658 107.472C163.938 108.208 163.578 109.272 163.578 110.664V117H161.274ZM175.837 117.144C174.557 117.144 173.565 116.8 172.861 116.112C172.157 115.424 171.805 114.44 171.805 113.16V101.496H174.109V113.064C174.109 113.752 174.277 114.28 174.613 114.648C174.965 115.016 175.461 115.2 176.101 115.2C176.821 115.2 177.421 115 177.901 114.6L178.621 116.256C178.269 116.56 177.845 116.784 177.349 116.928C176.869 117.072 176.365 117.144 175.837 117.144ZM169.645 106.176V104.28H177.757V106.176H169.645ZM192.244 117V110.568L192.796 112.056L185.572 100.2H188.14L194.212 110.208H192.82L198.916 100.2H201.292L194.092 112.056L194.62 110.568V117H192.244ZM207.409 117.144C206.129 117.144 204.993 116.864 204.001 116.304C203.009 115.744 202.225 114.976 201.649 114C201.073 113.008 200.785 111.888 200.785 110.64C200.785 109.376 201.073 108.256 201.649 107.28C202.225 106.304 203.009 105.544 204.001 105C204.993 104.44 206.129 104.16 207.409 104.16C208.673 104.16 209.801 104.44 210.793 105C211.801 105.544 212.585 106.304 213.145 107.28C213.721 108.24 214.009 109.36 214.009 110.64C214.009 111.904 213.721 113.024 213.145 114C212.585 114.976 211.801 115.744 210.793 116.304C209.801 116.864 208.673 117.144 207.409 117.144ZM207.409 115.128C208.225 115.128 208.953 114.944 209.593 114.576C210.249 114.208 210.761 113.688 211.129 113.016C211.497 112.328 211.681 111.536 211.681 110.64C211.681 109.728 211.497 108.944 211.129 108.288C210.761 107.616 210.249 107.096 209.593 106.728C208.953 106.36 208.225 106.176 207.409 106.176C206.593 106.176 205.865 106.36 205.225 106.728C204.585 107.096 204.073 107.616 203.689 108.288C203.305 108.944 203.113 109.728 203.113 110.64C203.113 111.536 203.305 112.328 203.689 113.016C204.073 113.688 204.585 114.208 205.225 114.576C205.865 114.944 206.593 115.128 207.409 115.128ZM222.548 117.144C221.46 117.144 220.5 116.944 219.668 116.544C218.852 116.144 218.212 115.536 217.748 114.72C217.3 113.888 217.076 112.848 217.076 111.6V104.28H219.38V111.336C219.38 112.584 219.676 113.52 220.268 114.144C220.876 114.768 221.724 115.08 222.812 115.08C223.612 115.08 224.308 114.92 224.9 114.6C225.492 114.264 225.948 113.784 226.268 113.16C226.588 112.52 226.748 111.752 226.748 110.856V104.28H229.052V117H226.868V113.568L227.228 114.48C226.812 115.328 226.188 115.984 225.356 116.448C224.524 116.912 223.588 117.144 222.548 117.144ZM233.438 117V104.28H235.646V107.736L235.43 106.872C235.782 105.992 236.374 105.32 237.206 104.856C238.038 104.392 239.062 104.16 240.278 104.16V106.392C240.182 106.376 240.086 106.368 239.99 106.368C239.91 106.368 239.83 106.368 239.75 106.368C238.518 106.368 237.542 106.736 236.822 107.472C236.102 108.208 235.742 109.272 235.742 110.664V117H233.438Z" fill="white"/>
<path d="M77.3865 148V131.2H80.6025L90.5145 143.296H88.9545V131.2H92.7945V148H89.6025L79.6665 135.904H81.2265V148H77.3865ZM102.649 148.192C101.273 148.192 100.049 147.904 98.9773 147.328C97.9213 146.752 97.0813 145.968 96.4573 144.976C95.8493 143.968 95.5453 142.824 95.5453 141.544C95.5453 140.248 95.8493 139.104 96.4573 138.112C97.0813 137.104 97.9213 136.32 98.9773 135.76C100.049 135.184 101.273 134.896 102.649 134.896C104.009 134.896 105.225 135.184 106.297 135.76C107.369 136.32 108.209 137.096 108.817 138.088C109.425 139.08 109.729 140.232 109.729 141.544C109.729 142.824 109.425 143.968 108.817 144.976C108.209 145.968 107.369 146.752 106.297 147.328C105.225 147.904 104.009 148.192 102.649 148.192ZM102.649 145.12C103.273 145.12 103.833 144.976 104.329 144.688C104.825 144.4 105.217 143.992 105.505 143.464C105.793 142.92 105.937 142.28 105.937 141.544C105.937 140.792 105.793 140.152 105.505 139.624C105.217 139.096 104.825 138.688 104.329 138.4C103.833 138.112 103.273 137.968 102.649 137.968C102.025 137.968 101.465 138.112 100.969 138.4C100.473 138.688 100.073 139.096 99.7693 139.624C99.4813 140.152 99.3373 140.792 99.3373 141.544C99.3373 142.28 99.4813 142.92 99.7693 143.464C100.073 143.992 100.473 144.4 100.969 144.688C101.465 144.976 102.025 145.12 102.649 145.12ZM127.333 148.288C126.037 148.288 124.829 148.08 123.709 147.664C122.605 147.232 121.645 146.624 120.829 145.84C120.013 145.056 119.373 144.136 118.909 143.08C118.461 142.024 118.237 140.864 118.237 139.6C118.237 138.336 118.461 137.176 118.909 136.12C119.373 135.064 120.013 134.144 120.829 133.36C121.661 132.576 122.629 131.976 123.733 131.56C124.837 131.128 126.045 130.912 127.357 130.912C128.813 130.912 130.125 131.168 131.293 131.68C132.477 132.176 133.469 132.912 134.269 133.888L131.773 136.192C131.197 135.536 130.557 135.048 129.853 134.728C129.149 134.392 128.381 134.224 127.549 134.224C126.765 134.224 126.045 134.352 125.389 134.608C124.733 134.864 124.165 135.232 123.685 135.712C123.205 136.192 122.829 136.76 122.557 137.416C122.301 138.072 122.173 138.8 122.173 139.6C122.173 140.4 122.301 141.128 122.557 141.784C122.829 142.44 123.205 143.008 123.685 143.488C124.165 143.968 124.733 144.336 125.389 144.592C126.045 144.848 126.765 144.976 127.549 144.976C128.381 144.976 129.149 144.816 129.853 144.496C130.557 144.16 131.197 143.656 131.773 142.984L134.269 145.288C133.469 146.264 132.477 147.008 131.293 147.52C130.125 148.032 128.805 148.288 127.333 148.288ZM142.329 148.192C140.953 148.192 139.729 147.904 138.657 147.328C137.601 146.752 136.761 145.968 136.137 144.976C135.529 143.968 135.225 142.824 135.225 141.544C135.225 140.248 135.529 139.104 136.137 138.112C136.761 137.104 137.601 136.32 138.657 135.76C139.729 135.184 140.953 134.896 142.329 134.896C143.689 134.896 144.905 135.184 145.977 135.76C147.049 136.32 147.889 137.096 148.497 138.088C149.105 139.08 149.409 140.232 149.409 141.544C149.409 142.824 149.105 143.968 148.497 144.976C147.889 145.968 147.049 146.752 145.977 147.328C144.905 147.904 143.689 148.192 142.329 148.192ZM142.329 145.12C142.953 145.12 143.513 144.976 144.009 144.688C144.505 144.4 144.897 143.992 145.185 143.464C145.473 142.92 145.617 142.28 145.617 141.544C145.617 140.792 145.473 140.152 145.185 139.624C144.897 139.096 144.505 138.688 144.009 138.4C143.513 138.112 142.953 137.968 142.329 137.968C141.705 137.968 141.145 138.112 140.649 138.4C140.153 138.688 139.753 139.096 139.449 139.624C139.161 140.152 139.017 140.792 139.017 141.544C139.017 142.28 139.161 142.92 139.449 143.464C139.753 143.992 140.153 144.4 140.649 144.688C141.145 144.976 141.705 145.12 142.329 145.12ZM168.448 134.896C169.472 134.896 170.376 135.104 171.16 135.52C171.96 135.92 172.584 136.544 173.032 137.392C173.496 138.224 173.728 139.296 173.728 140.608V148H169.984V141.184C169.984 140.144 169.768 139.376 169.336 138.88C168.904 138.384 168.296 138.136 167.512 138.136C166.968 138.136 166.48 138.264 166.048 138.52C165.616 138.76 165.28 139.128 165.04 139.624C164.8 140.12 164.68 140.752 164.68 141.52V148H160.936V141.184C160.936 140.144 160.72 139.376 160.288 138.88C159.872 138.384 159.272 138.136 158.488 138.136C157.944 138.136 157.456 138.264 157.024 138.52C156.592 138.76 156.256 139.128 156.016 139.624C155.776 140.12 155.656 140.752 155.656 141.52V148H151.912V135.088H155.488V138.616L154.816 137.584C155.264 136.704 155.896 136.04 156.712 135.592C157.544 135.128 158.488 134.896 159.544 134.896C160.728 134.896 161.76 135.2 162.64 135.808C163.536 136.4 164.128 137.312 164.416 138.544L163.096 138.184C163.528 137.176 164.216 136.376 165.16 135.784C166.12 135.192 167.216 134.896 168.448 134.896ZM193.619 134.896C194.643 134.896 195.547 135.104 196.331 135.52C197.131 135.92 197.755 136.544 198.203 137.392C198.667 138.224 198.899 139.296 198.899 140.608V148H195.155V141.184C195.155 140.144 194.939 139.376 194.507 138.88C194.075 138.384 193.467 138.136 192.683 138.136C192.139 138.136 191.651 138.264 191.219 138.52C190.787 138.76 190.451 139.128 190.211 139.624C189.971 140.12 189.851 140.752 189.851 141.52V148H186.107V141.184C186.107 140.144 185.891 139.376 185.459 138.88C185.043 138.384 184.443 138.136 183.659 138.136C183.115 138.136 182.627 138.264 182.195 138.52C181.763 138.76 181.427 139.128 181.187 139.624C180.947 140.12 180.827 140.752 180.827 141.52V148H177.083V135.088H180.659V138.616L179.987 137.584C180.435 136.704 181.067 136.04 181.883 135.592C182.715 135.128 183.659 134.896 184.715 134.896C185.899 134.896 186.931 135.2 187.811 135.808C188.707 136.4 189.299 137.312 189.587 138.544L188.267 138.184C188.699 137.176 189.387 136.376 190.331 135.784C191.291 135.192 192.387 134.896 193.619 134.896ZM202.255 148V135.088H205.999V148H202.255ZM204.127 133.288C203.439 133.288 202.879 133.088 202.447 132.688C202.015 132.288 201.799 131.792 201.799 131.2C201.799 130.608 202.015 130.112 202.447 129.712C202.879 129.312 203.439 129.112 204.127 129.112C204.815 129.112 205.375 129.304 205.807 129.688C206.239 130.056 206.455 130.536 206.455 131.128C206.455 131.752 206.239 132.272 205.807 132.688C205.391 133.088 204.831 133.288 204.127 133.288ZM214.754 148.192C213.234 148.192 212.05 147.808 211.202 147.04C210.354 146.256 209.93 145.096 209.93 143.56V132.232H213.674V143.512C213.674 144.056 213.818 144.48 214.106 144.784C214.394 145.072 214.786 145.216 215.282 145.216C215.874 145.216 216.378 145.056 216.794 144.736L217.802 147.376C217.418 147.648 216.954 147.856 216.41 148C215.882 148.128 215.33 148.192 214.754 148.192ZM207.938 138.256V135.376H216.89V138.256H207.938ZM236.44 134.896C237.464 134.896 238.368 135.104 239.152 135.52C239.952 135.92 240.576 136.544 241.024 137.392C241.488 138.224 241.72 139.296 241.72 140.608V148H237.976V141.184C237.976 140.144 237.76 139.376 237.328 138.88C236.896 138.384 236.288 138.136 235.504 138.136C234.96 138.136 234.472 138.264 234.04 138.52C233.608 138.76 233.272 139.128 233.032 139.624C232.792 140.12 232.672 140.752 232.672 141.52V148H228.928V141.184C228.928 140.144 228.712 139.376 228.28 138.88C227.864 138.384 227.264 138.136 226.48 138.136C225.936 138.136 225.448 138.264 225.016 138.52C224.584 138.76 224.248 139.128 224.008 139.624C223.768 140.12 223.648 140.752 223.648 141.52V148H219.904V135.088H223.48V138.616L222.808 137.584C223.256 136.704 223.888 136.04 224.704 135.592C225.536 135.128 226.48 134.896 227.536 134.896C228.72 134.896 229.752 135.2 230.632 135.808C231.528 136.4 232.12 137.312 232.408 138.544L231.088 138.184C231.52 137.176 232.208 136.376 233.152 135.784C234.112 135.192 235.208 134.896 236.44 134.896ZM251.577 148.192C250.105 148.192 248.809 147.904 247.689 147.328C246.585 146.752 245.729 145.968 245.121 144.976C244.513 143.968 244.209 142.824 244.209 141.544C244.209 140.248 244.505 139.104 245.097 138.112C245.705 137.104 246.529 136.32 247.569 135.76C248.609 135.184 249.785 134.896 251.097 134.896C252.361 134.896 253.497 135.168 254.505 135.712C255.529 136.24 256.337 137.008 256.929 138.016C257.521 139.008 257.817 140.2 257.817 141.592C257.817 141.736 257.809 141.904 257.793 142.096C257.777 142.272 257.761 142.44 257.745 142.6H247.257V140.416H255.777L254.337 141.064C254.337 140.392 254.201 139.808 253.929 139.312C253.657 138.816 253.281 138.432 252.801 138.16C252.321 137.872 251.761 137.728 251.121 137.728C250.481 137.728 249.913 137.872 249.417 138.16C248.937 138.432 248.561 138.824 248.289 139.336C248.017 139.832 247.881 140.424 247.881 141.112V141.688C247.881 142.392 248.033 143.016 248.337 143.56C248.657 144.088 249.097 144.496 249.657 144.784C250.233 145.056 250.905 145.192 251.673 145.192C252.361 145.192 252.961 145.088 253.473 144.88C254.001 144.672 254.481 144.36 254.913 143.944L256.905 146.104C256.313 146.776 255.569 147.296 254.673 147.664C253.777 148.016 252.745 148.192 251.577 148.192ZM268.158 134.896C269.182 134.896 270.094 135.104 270.894 135.52C271.71 135.92 272.35 136.544 272.814 137.392C273.278 138.224 273.51 139.296 273.51 140.608V148H269.766V141.184C269.766 140.144 269.534 139.376 269.07 138.88C268.622 138.384 267.982 138.136 267.15 138.136C266.558 138.136 266.022 138.264 265.542 138.52C265.078 138.76 264.71 139.136 264.438 139.648C264.182 140.16 264.054 140.816 264.054 141.616V148H260.31V135.088H263.886V138.664L263.214 137.584C263.678 136.72 264.342 136.056 265.206 135.592C266.07 135.128 267.054 134.896 268.158 134.896ZM282.184 148.192C280.664 148.192 279.48 147.808 278.632 147.04C277.784 146.256 277.36 145.096 277.36 143.56V132.232H281.104V143.512C281.104 144.056 281.248 144.48 281.536 144.784C281.824 145.072 282.216 145.216 282.712 145.216C283.304 145.216 283.808 145.056 284.224 144.736L285.232 147.376C284.848 147.648 284.384 147.856 283.84 148C283.312 148.128 282.76 148.192 282.184 148.192ZM275.368 138.256V135.376H284.32V138.256H275.368Z" fill="white"/>
<path d="M92.4123 169.76H100.476V172.88H92.4123V169.76ZM92.7003 179H88.8123V162.2H101.508V165.32H92.7003V179ZM103.642 179V166.088H107.218V169.736L106.714 168.68C107.098 167.768 107.714 167.08 108.562 166.616C109.41 166.136 110.442 165.896 111.658 165.896V169.352C111.498 169.336 111.354 169.328 111.226 169.328C111.098 169.312 110.962 169.304 110.818 169.304C109.794 169.304 108.962 169.6 108.322 170.192C107.698 170.768 107.386 171.672 107.386 172.904V179H103.642ZM120.199 179.192C118.727 179.192 117.431 178.904 116.311 178.328C115.207 177.752 114.351 176.968 113.743 175.976C113.135 174.968 112.831 173.824 112.831 172.544C112.831 171.248 113.127 170.104 113.719 169.112C114.327 168.104 115.151 167.32 116.191 166.76C117.231 166.184 118.407 165.896 119.719 165.896C120.983 165.896 122.119 166.168 123.127 166.712C124.151 167.24 124.959 168.008 125.551 169.016C126.143 170.008 126.439 171.2 126.439 172.592C126.439 172.736 126.431 172.904 126.415 173.096C126.399 173.272 126.383 173.44 126.367 173.6H115.879V171.416H124.398L122.959 172.064C122.959 171.392 122.823 170.808 122.551 170.312C122.279 169.816 121.903 169.432 121.423 169.16C120.943 168.872 120.383 168.728 119.743 168.728C119.103 168.728 118.535 168.872 118.039 169.16C117.559 169.432 117.183 169.824 116.911 170.336C116.639 170.832 116.503 171.424 116.503 172.112V172.688C116.503 173.392 116.655 174.016 116.959 174.56C117.279 175.088 117.719 175.496 118.279 175.784C118.855 176.056 119.527 176.192 120.295 176.192C120.983 176.192 121.583 176.088 122.095 175.88C122.623 175.672 123.103 175.36 123.535 174.944L125.527 177.104C124.935 177.776 124.191 178.296 123.295 178.664C122.399 179.016 121.367 179.192 120.199 179.192ZM135.339 179.192C133.867 179.192 132.571 178.904 131.451 178.328C130.347 177.752 129.491 176.968 128.883 175.976C128.275 174.968 127.971 173.824 127.971 172.544C127.971 171.248 128.267 170.104 128.859 169.112C129.467 168.104 130.291 167.32 131.331 166.76C132.371 166.184 133.547 165.896 134.859 165.896C136.123 165.896 137.259 166.168 138.267 166.712C139.291 167.24 140.099 168.008 140.691 169.016C141.283 170.008 141.579 171.2 141.579 172.592C141.579 172.736 141.571 172.904 141.555 173.096C141.539 173.272 141.523 173.44 141.507 173.6H131.019V171.416H139.539L138.099 172.064C138.099 171.392 137.963 170.808 137.691 170.312C137.419 169.816 137.043 169.432 136.563 169.16C136.083 168.872 135.523 168.728 134.883 168.728C134.243 168.728 133.675 168.872 133.179 169.16C132.699 169.432 132.323 169.824 132.051 170.336C131.779 170.832 131.643 171.424 131.643 172.112V172.688C131.643 173.392 131.795 174.016 132.099 174.56C132.419 175.088 132.859 175.496 133.419 175.784C133.995 176.056 134.667 176.192 135.435 176.192C136.123 176.192 136.723 176.088 137.235 175.88C137.763 175.672 138.243 175.36 138.675 174.944L140.667 177.104C140.075 177.776 139.331 178.296 138.435 178.664C137.539 179.016 136.507 179.192 135.339 179.192ZM154.613 179V165.368H149.237V162.2H163.877V165.368H158.501V179H154.613ZM165.423 179V166.088H168.999V169.736L168.495 168.68C168.879 167.768 169.495 167.08 170.343 166.616C171.191 166.136 172.223 165.896 173.439 165.896V169.352C173.279 169.336 173.135 169.328 173.007 169.328C172.879 169.312 172.743 169.304 172.599 169.304C171.575 169.304 170.743 169.6 170.103 170.192C169.479 170.768 169.167 171.672 169.167 172.904V179H165.423ZM175.689 179V166.088H179.433V179H175.689ZM177.561 164.288C176.873 164.288 176.313 164.088 175.881 163.688C175.449 163.288 175.233 162.792 175.233 162.2C175.233 161.608 175.449 161.112 175.881 160.712C176.313 160.312 176.873 160.112 177.561 160.112C178.249 160.112 178.809 160.304 179.241 160.688C179.673 161.056 179.889 161.536 179.889 162.128C179.889 162.752 179.673 163.272 179.241 163.688C178.825 164.088 178.265 164.288 177.561 164.288ZM190.828 179V176.48L190.588 175.928V171.416C190.588 170.616 190.34 169.992 189.844 169.544C189.364 169.096 188.62 168.872 187.612 168.872C186.924 168.872 186.244 168.984 185.572 169.208C184.916 169.416 184.356 169.704 183.892 170.072L182.548 167.456C183.252 166.96 184.1 166.576 185.092 166.304C186.084 166.032 187.092 165.896 188.116 165.896C190.084 165.896 191.612 166.36 192.7 167.288C193.788 168.216 194.332 169.664 194.332 171.632V179H190.828ZM186.892 179.192C185.884 179.192 185.02 179.024 184.3 178.688C183.58 178.336 183.028 177.864 182.644 177.272C182.26 176.68 182.068 176.016 182.068 175.28C182.068 174.512 182.252 173.84 182.62 173.264C183.004 172.688 183.604 172.24 184.42 171.92C185.236 171.584 186.3 171.416 187.612 171.416H191.044V173.6H188.02C187.14 173.6 186.532 173.744 186.196 174.032C185.876 174.32 185.716 174.68 185.716 175.112C185.716 175.592 185.9 175.976 186.268 176.264C186.652 176.536 187.172 176.672 187.828 176.672C188.452 176.672 189.012 176.528 189.508 176.24C190.004 175.936 190.364 175.496 190.588 174.92L191.164 176.648C190.892 177.48 190.396 178.112 189.676 178.544C188.956 178.976 188.028 179.192 186.892 179.192ZM197.72 179V161.192H201.464V179H197.72ZM212 179V162.2H215.216L225.128 174.296H223.568V162.2H227.408V179H224.216L214.28 166.904H215.84V179H212ZM237.263 179.192C235.887 179.192 234.663 178.904 233.591 178.328C232.535 177.752 231.695 176.968 231.071 175.976C230.463 174.968 230.159 173.824 230.159 172.544C230.159 171.248 230.463 170.104 231.071 169.112C231.695 168.104 232.535 167.32 233.591 166.76C234.663 166.184 235.887 165.896 237.263 165.896C238.623 165.896 239.839 166.184 240.911 166.76C241.983 167.32 242.823 168.096 243.431 169.088C244.039 170.08 244.343 171.232 244.343 172.544C244.343 173.824 244.039 174.968 243.431 175.976C242.823 176.968 241.983 177.752 240.911 178.328C239.839 178.904 238.623 179.192 237.263 179.192ZM237.263 176.12C237.887 176.12 238.447 175.976 238.943 175.688C239.439 175.4 239.831 174.992 240.119 174.464C240.407 173.92 240.551 173.28 240.551 172.544C240.551 171.792 240.407 171.152 240.119 170.624C239.831 170.096 239.439 169.688 238.943 169.4C238.447 169.112 237.887 168.968 237.263 168.968C236.639 168.968 236.079 169.112 235.583 169.4C235.087 169.688 234.687 170.096 234.383 170.624C234.095 171.152 233.951 171.792 233.951 172.544C233.951 173.28 234.095 173.92 234.383 174.464C234.687 174.992 235.087 175.4 235.583 175.688C236.079 175.976 236.639 176.12 237.263 176.12ZM249.446 179L244.79 166.088H248.318L252.182 177.2H250.502L254.534 166.088H257.702L261.614 177.2H259.934L263.918 166.088H267.23L262.55 179H258.926L255.494 169.472H256.598L253.046 179H249.446ZM269.234 173.168L268.49 162.2H272.954L272.21 173.168H269.234ZM270.722 179.192C270.05 179.192 269.498 178.976 269.066 178.544C268.634 178.112 268.418 177.6 268.418 177.008C268.418 176.4 268.634 175.896 269.066 175.496C269.498 175.08 270.05 174.872 270.722 174.872C271.41 174.872 271.962 175.08 272.378 175.496C272.81 175.896 273.026 176.4 273.026 177.008C273.026 177.6 272.81 178.112 272.378 178.544C271.962 178.976 271.41 179.192 270.722 179.192Z" fill="#CCF88E"/>
</g>
<defs>
<linearGradient id="paint0_linear_16361_105434" x1="75.121" y1="27.8906" x2="150.546" y2="511.703" gradientUnits="userSpaceOnUse">
<stop stop-color="#0C151D"/>
<stop offset="1" stop-color="#217BBB"/>
</linearGradient>
<clipPath id="clip0_16361_105434">
<rect width="360" height="255" fill="white"/>
</clipPath>
</defs>
</svg>
