
<svg width="194" height="113" viewBox="0 0 194 113" fill="none" xmlns="http://www.w3.org/2000/svg">
<path d="M97 28.4132C97 25.5937 99.4831 23.4194 102.278 23.7916L191.396 35.6601C192.887 35.8586 194 37.1301 194 38.6338V93.8391C194 96.6032 191.609 98.7604 188.859 98.4769L101.184 89.4383C98.807 89.1932 97 87.1903 97 84.8004V28.4132Z" fill="#123A68"/>
<path d="M97 28.4132C97 25.5937 94.5169 23.4194 91.7221 23.7916L2.60397 35.6601C1.11334 35.8586 0 37.1301 0 38.6338V93.8391C0 96.6032 2.39103 98.7604 5.14054 98.4769L92.8157 89.4383C95.193 89.1932 97 87.1903 97 84.8004V28.4132Z" fill="#123A68"/>
<path d="M184.08 18.4321C173.58 35.5063 155.662 19.4749 143.669 18.4321C131.676 17.3892 115.512 23.1249 112.384 41.8964C111.042 49.944 113.634 59.9484 117.239 68.8921" stroke="#D0E3EF" stroke-dasharray="2.09 2.09"/>
<circle cx="185.219" cy="17.0271" r="2.08571" fill="#D0E3EF"/>
<path d="M6.66995 1.31296C5.77475 2.03788 5.6367 3.35125 6.36162 4.24645C7.08654 5.14165 8.39991 5.27969 9.29511 4.55477C10.1903 3.82985 10.3284 2.51648 9.60343 1.62128C8.87851 0.726082 7.56515 0.588042 6.66995 1.31296Z" fill="#D0E3EF"/>
<path d="M8.47648 2.90234C7.25981 9.50711 11.5008 24.9066 38.1979 33.6666C64.895 42.4266 64.9646 52.6119 61.6622 56.6095" stroke="#D0E3EF" stroke-dasharray="2.09 2.09"/>
<path d="M194 38.3006C194 37.0881 192.93 36.1545 191.728 36.3192L98.7284 49.068C97.738 49.2037 97 50.0498 97 51.0494V113.008L192.259 100.557C193.255 100.426 194 99.5779 194 98.5735V38.3006Z" fill="#69A3CC"/>
<path d="M0 38.3006C0 37.0881 1.07032 36.1545 2.27163 36.3192L95.2716 49.068C96.262 49.2037 97 50.0498 97 51.0494V113.008L1.74079 100.557C0.744894 100.426 0 99.5779 0 98.5735V38.3006Z" fill="#005C9E"/>
<path d="M28 55.5448C28 54.1912 29.1762 53.1379 30.5216 53.2867L56.9779 56.2127C58.1289 56.34 59 57.3128 59 58.4708C59 59.8244 57.8238 60.8777 56.4784 60.7289L30.0221 57.8029C28.8711 57.6756 28 56.7029 28 55.5448Z" fill="#F6F7F9"/>
</svg>
