<svg width="434" height="140" viewBox="0 0 434 140" fill="none" xmlns="http://www.w3.org/2000/svg">
<path d="M286.679 70C286.679 108.66 255.339 140 216.679 140C178.019 140 146.679 108.66 146.679 70C146.679 31.3401 178.019 0 216.679 0C255.339 0 286.679 31.3401 286.679 70Z" fill="#0C151D"/>
<mask id="mask0_1847_30378" style="mask-type:alpha" maskUnits="userSpaceOnUse" x="146" y="0" width="141" height="140">
<path d="M286.679 70C286.679 108.66 255.339 140 216.679 140C178.019 140 146.679 108.66 146.679 70C146.679 31.3401 178.019 0 216.679 0C255.339 0 286.679 31.3401 286.679 70Z" fill="#091120"/>
</mask>
<g mask="url(#mask0_1847_30378)">
<path fillRule="evenodd" clipRule="evenodd" d="M215.406 -1C215.959 -1 216.406 -0.552285 216.406 0L216.406 58.5455C216.406 59.0977 215.959 59.5455 215.406 59.5455C214.854 59.5455 214.406 59.0977 214.406 58.5455L214.406 8.74226e-08C214.406 -0.552285 214.854 -1 215.406 -1Z" fill="#314A71"/>
<g filter="url(#filter0_d_1847_30378)">
<path d="M215.407 76.3647C220.829 76.3647 225.225 71.2363 225.225 64.9102H205.589C205.589 71.2363 209.985 76.3647 215.407 76.3647Z" fill="#EB896A"/>
</g>
<path fillRule="evenodd" clipRule="evenodd" d="M236.543 82.729V66.1836H237.543V82.729H236.543Z" fill="#E6F2F7"/>
<path d="M183.013 66.9779L214.816 38.7598C215.19 38.4279 215.752 38.4234 216.131 38.7491L248.995 66.9673C249.699 67.5718 249.271 68.726 248.343 68.726H183.677C182.757 68.726 182.325 67.5885 183.013 66.9779Z" fill="#314A71"/>
<path d="M239.588 83.9986C239.588 85.4044 238.448 86.544 237.043 86.544C235.637 86.544 234.497 85.4044 234.497 83.9986C234.497 82.5928 235.637 81.4531 237.043 81.4531C238.448 81.4531 239.588 82.5928 239.588 83.9986Z" fill="#E8704B"/>
<path fillRule="evenodd" clipRule="evenodd" d="M202.011 98.4138C202.372 97.4065 203.326 96.7344 204.396 96.7344H224.463C226.176 96.7344 227.396 98.4 226.878 100.033L212.068 146.747C211.857 147.414 211.145 147.784 210.478 147.572C209.811 147.361 209.442 146.649 209.653 145.982L224.463 99.2677L204.396 99.2677L187.381 146.792C187.146 147.45 186.421 147.793 185.762 147.557C185.103 147.321 184.761 146.596 184.996 145.938L202.011 98.4138Z" fill="#4F87B8"/>
<path fillRule="evenodd" clipRule="evenodd" d="M203.589 111.687C202.802 110.007 204.027 108.078 205.883 108.078H226.608C227.568 108.078 228.445 108.62 228.874 109.479L247.033 145.797C247.346 146.423 247.092 147.184 246.467 147.497C245.841 147.81 245.08 147.556 244.767 146.93L226.608 110.611H205.883L222.399 145.826C222.697 146.459 222.424 147.214 221.791 147.511C221.157 147.808 220.403 147.535 220.106 146.902L203.589 111.687Z" fill="#4F87B8"/>
<path fillRule="evenodd" clipRule="evenodd" d="M187.907 138.005C187.907 137.305 188.474 136.738 189.174 136.738L213.057 136.738C213.757 136.738 214.324 137.305 214.324 138.005C214.324 138.705 213.757 139.272 213.057 139.272L189.174 139.272C188.474 139.272 187.907 138.705 187.907 138.005Z" fill="#4F87B8"/>
<path fillRule="evenodd" clipRule="evenodd" d="M193.884 123.673C193.884 122.973 194.451 122.406 195.15 122.406L217.84 122.406C218.539 122.406 219.106 122.973 219.106 123.673C219.106 124.372 218.539 124.94 217.84 124.94L195.15 124.94C194.451 124.94 193.884 124.372 193.884 123.673Z" fill="#4F87B8"/>
<path fillRule="evenodd" clipRule="evenodd" d="M198.656 109.345C198.656 108.645 199.223 108.078 199.923 108.078L222.612 108.078C223.312 108.078 223.879 108.645 223.879 109.345C223.879 110.044 223.312 110.611 222.612 110.611L199.923 110.611C199.223 110.611 198.656 110.044 198.656 109.345Z" fill="#4F87B8"/>
</g>
<path d="M0 107.27V86.7089L62.248 2.95703H94.3151L33.3876 86.7089L18.4858 82.3704H122.421V107.27H0ZM71.1136 134.998V107.27L72.0568 82.3704V57.6598H100.917V134.998H71.1136Z" fill="#0C151D"/>
<path d="M310.679 107.27V86.7089L372.927 2.95703H404.994L344.066 86.7089L329.164 82.3704H433.1V107.27H310.679ZM381.792 134.998V107.27L382.735 82.3704V57.6598H411.596V134.998H381.792Z" fill="#0C151D"/>
<defs>
<filter id="filter0_d_1847_30378" x="201.589" y="64.9102" width="27.6367" height="19.4531" filterUnits="userSpaceOnUse" color-interpolation-filters="sRGB">
<feFlood flood-opacity="0" result="BackgroundImageFix"/>
<feColorMatrix in="SourceAlpha" type="matrix" values="0 0 0 0 0 0 0 0 0 0 0 0 0 0 0 0 0 0 127 0" result="hardAlpha"/>
<feOffset dy="4"/>
<feGaussianBlur stdDeviation="2"/>
<feComposite in2="hardAlpha" operator="out"/>
<feColorMatrix type="matrix" values="0 0 0 0 0.921569 0 0 0 0 0.537255 0 0 0 0 0.415686 0 0 0 0.4 0"/>
<feBlend mode="normal" in2="BackgroundImageFix" result="effect1_dropShadow_1847_30378"/>
<feBlend mode="normal" in="SourceGraphic" in2="effect1_dropShadow_1847_30378" result="shape"/>
</filter>
</defs>
</svg>
