<svg width="1200" height="630" viewBox="0 0 1200 630" fill="none" xmlns="http://www.w3.org/2000/svg">
<g clipPath="url(#clip0_2545_56552)">
<rect width="1200" height="630" fill="#F8F8F8"/>
<g clipPath="url(#clip1_2545_56552)">
<rect width="1200" height="850" fill="white"/>
<circle opacity="0.9" cx="600.417" cy="682.917" r="739.583" fill="#69A3CC" fill-opacity="0.04"/>
<circle opacity="0.9" cx="600.417" cy="682.917" r="617.083" fill="#69A3CC" fill-opacity="0.04"/>
<circle opacity="0.9" cx="600.417" cy="682.917" r="616.667" stroke="#69A3CC" stroke-opacity="0.16" strokeWidth="0.833333"/>
<circle opacity="0.9" cx="600.416" cy="682.917" r="471.25" fill="#69A3CC" fill-opacity="0.04"/>
<circle opacity="0.9" cx="600.416" cy="682.917" r="470.833" stroke="#69A3CC" stroke-opacity="0.16" strokeWidth="0.833333"/>
<ellipse opacity="0.9" cx="600" cy="682.917" rx="305" ry="305.417" fill="#69A3CC" fill-opacity="0.04"/>
<path opacity="0.9" d="M904.583 682.917C904.583 851.364 768.216 987.917 600 987.917C431.784 987.917 295.417 851.364 295.417 682.917C295.417 514.469 431.784 377.917 600 377.917C768.216 377.917 904.583 514.469 904.583 682.917Z" stroke="#69A3CC" stroke-opacity="0.16" strokeWidth="0.833333"/>
<rect width="1200" height="850" fill="url(#paint0_linear_2545_56552)"/>
</g>
<path fillRule="evenodd" clipRule="evenodd" d="M542.226 342.859C549.222 342.859 555.421 339.445 559.248 334.192H579.871C574.672 350.009 559.782 361.43 542.226 361.43C520.345 361.43 502.607 343.692 502.607 321.811C502.607 299.931 520.345 282.193 542.226 282.193C564.106 282.193 581.844 299.931 581.844 321.811C581.844 322.643 581.818 323.469 581.767 324.287H521.323C522.548 334.745 531.439 342.859 542.226 342.859ZM522.527 314.383C525.529 306.425 533.216 300.764 542.226 300.764C551.235 300.764 558.922 306.425 561.924 314.383H522.527Z" fill="#0C151D"/>
<path fillRule="evenodd" clipRule="evenodd" d="M670.988 268.573H652.417V288.239C646.319 284.407 639.103 282.192 631.37 282.192C609.49 282.192 591.752 299.929 591.752 321.81C591.752 343.69 609.49 361.428 631.37 361.428C639.103 361.428 646.319 359.212 652.417 355.381V361.428H670.988V268.573ZM652.417 321.81C652.417 310.186 642.994 300.763 631.37 300.763C619.746 300.763 610.323 310.186 610.323 321.81C610.323 333.434 619.746 342.857 631.37 342.857C642.994 342.857 652.417 333.434 652.417 321.81Z" fill="#0C151D"/>
<path fillRule="evenodd" clipRule="evenodd" d="M839.367 268.573H857.938V288.239C864.036 284.407 871.252 282.192 878.985 282.192C900.866 282.192 918.603 299.929 918.603 321.81C918.603 343.69 900.866 361.428 878.985 361.428C871.252 361.428 864.036 359.212 857.938 355.381V361.428H839.367V268.573ZM857.938 321.81C857.938 333.434 867.361 342.857 878.985 342.857C890.609 342.857 900.032 333.434 900.032 321.81C900.032 310.186 890.609 300.763 878.985 300.763C867.361 300.763 857.938 310.186 857.938 321.81Z" fill="#0C151D"/>
<path fillRule="evenodd" clipRule="evenodd" d="M787.366 342.858C798.99 342.858 808.413 333.435 808.413 321.811C808.413 310.187 798.99 300.764 787.366 300.764C775.742 300.764 766.319 310.187 766.319 321.811C766.319 333.435 775.742 342.858 787.366 342.858ZM787.366 361.429C809.247 361.429 826.984 343.692 826.984 321.811C826.984 299.931 809.247 282.193 787.366 282.193C765.486 282.193 747.748 299.931 747.748 321.811C747.748 343.692 765.486 361.429 787.366 361.429Z" fill="#0C151D"/>
<path d="M466.706 321.811C466.706 321.811 466.706 321.811 466.706 321.811V361.429H448.135L448.135 321.811C448.135 321.811 448.135 321.811 448.135 321.811C448.135 299.931 465.872 282.193 487.753 282.193C489.43 282.193 491.083 282.297 492.705 282.5V301.35C491.117 300.967 489.459 300.764 487.753 300.764C476.129 300.764 466.706 310.187 466.706 321.811Z" fill="#0C151D"/>
<path d="M709.37 321.811C709.37 321.811 709.37 321.811 709.37 321.811L709.37 361.429H690.799L690.799 321.811C690.799 321.811 690.799 321.811 690.799 321.811C690.799 299.931 708.536 282.193 730.417 282.193C732.094 282.193 733.747 282.297 735.369 282.499V301.35C733.781 300.967 732.123 300.764 730.417 300.764C718.793 300.764 709.37 310.187 709.37 321.811Z" fill="#0C151D"/>
<path d="M381.452 260.511L381.452 314.748C381.318 295.283 365.497 279.545 346 279.545C326.419 279.545 310.546 295.418 310.546 314.999L310.545 379.997H281L281 314.998C281 279.101 310.102 250 346 250C359.079 250 371.256 253.863 381.452 260.511Z" fill="#0C151D"/>
<path d="M381.451 315.001C381.451 334.582 365.579 350.455 345.998 350.455C326.464 350.455 310.62 334.657 310.545 315.14L310.545 369.489C320.741 376.137 332.919 380 345.998 380C381.896 380 410.997 350.899 410.997 315.001L410.996 250.003L381.451 250.003L381.451 315.001Z" fill="#69A3CC"/>
</g>
<defs>
<linearGradient id="paint0_linear_2545_56552" x1="600" y1="0" x2="600" y2="679.583" gradientUnits="userSpaceOnUse">
<stop stop-color="white"/>
<stop offset="1" stop-color="white" stop-opacity="0"/>
</linearGradient>
<clipPath id="clip0_2545_56552">
<rect width="1200" height="630" fill="white"/>
</clipPath>
<clipPath id="clip1_2545_56552">
<rect width="1200" height="850" fill="white"/>
</clipPath>
</defs>
</svg>
