<svg width="160" height="161" viewBox="0 0 160 161" fill="none" xmlns="http://www.w3.org/2000/svg">
<circle cx="80" cy="80.5" r="80" fill="#69A3CC" fill-opacity="0.08"/>
<circle cx="80" cy="80.5" r="60" fill="#69A3CC" fill-opacity="0.08"/>
<path d="M35.2941 41.9976C35.1275 40.9771 35.7662 39.9979 36.7673 39.739L79.7322 28.6295C80.0606 28.5446 80.4052 28.5446 80.7335 28.6295L123.698 39.739C124.699 39.9979 125.338 40.9771 125.172 41.9976L113.965 110.639C113.872 111.212 113.534 111.716 113.039 112.021L81.2809 131.56C80.6382 131.955 79.8276 131.955 79.1848 131.56L47.4265 112.021C46.9321 111.716 46.5942 111.212 46.5007 110.639L35.2941 41.9976Z" fill="#D0E3EF"/>
<path d="M44.8564 50.5425C44.6894 49.5215 45.3286 48.5417 46.3303 48.2832L79.7331 39.6612C80.061 39.5766 80.4049 39.5766 80.7328 39.6612L114.136 48.2832C115.137 48.5417 115.777 49.5215 115.61 50.5425L106.866 104.003C106.772 104.576 106.434 105.08 105.939 105.384L81.2796 120.529C80.6376 120.924 79.8284 120.924 79.1863 120.529L54.5268 105.384C54.0318 105.08 53.6934 104.576 53.5997 104.003L44.8564 50.5425Z" fill="#69A3CC"/>
<path d="M97.8248 73.6655L77.6731 93.9748C77.2022 94.4491 76.5637 94.7155 75.898 94.7155C75.2323 94.7155 74.5938 94.4491 74.123 93.9748L62.8826 82.5864C62.4125 82.1119 62.1484 81.4688 62.1484 80.7983C62.1484 80.1278 62.4125 79.4847 62.8826 79.0102L66.0215 75.8467C66.4921 75.3744 67.1292 75.1092 67.7934 75.1092C68.4575 75.1092 69.0947 75.3744 69.5653 75.8467L75.9608 82.0977L91.1468 66.9812C91.6175 66.5084 92.2549 66.2429 92.9195 66.2429C93.584 66.2429 94.2215 66.5084 94.6922 66.9812L97.8232 70.0719C98.0587 70.307 98.2456 70.5869 98.3732 70.8952C98.5009 71.2035 98.5667 71.5343 98.5668 71.8684C98.5669 72.2025 98.5014 72.5333 98.3741 72.8417C98.2467 73.1502 98.0601 73.4302 97.8248 73.6655Z" fill="#F5F8FB"/>
<path fill-rule="evenodd" clip-rule="evenodd" d="M80.2705 120.824V39.598C80.4259 39.601 80.5809 39.622 80.7326 39.6611L114.135 48.2831C115.137 48.5416 115.776 49.5214 115.609 50.5424L106.866 104.003C106.772 104.576 106.434 105.08 105.939 105.384L81.2794 120.529C80.9695 120.719 80.6207 120.818 80.2705 120.824Z" fill="#0C151D" fill-opacity="0.08"/>
</svg>
