<svg width="160" height="160" viewBox="0 0 160 160" fill="none" xmlns="http://www.w3.org/2000/svg">
  <circle cx="80" cy="80" r="80" fill="#F97F6F" fill-opacity="0.08" />
  <circle cx="80" cy="80" r="60" fill="#F97F6F" fill-opacity="0.08" />
  <path
    d="M78.2646 36.9435C78.991 35.6855 80.8068 35.6855 81.5332 36.9435L125.542 113.169C126.269 114.427 125.361 116 123.908 116H35.8899C34.4372 116 33.5293 114.427 34.2556 113.169L78.2646 36.9435Z"
    fill="#F97F6F" />
  <path
    d="M73.8377 69.0315C73.7421 67.8663 74.6619 66.8679 75.831 66.8679H83.9674C85.1364 66.8679 86.0563 67.8663 85.9607 69.0315L83.7933 95.4467C83.7081 96.4843 82.8411 97.2831 81.8 97.2831H77.9984C76.9572 97.2831 76.0902 96.4843 76.0051 95.4467L73.8377 69.0315Z"
    fill="#BA2D1B" />
  <rect x="76" y="98.8433" width="7.79877" height="7.01889" rx="3.50945" fill="#BA2D1B" />
</svg>