<svg width="282" height="133" viewBox="0 0 282 133" fill="none" xmlns="http://www.w3.org/2000/svg">
<g clipPath="url(#clip0_951_2521)">
<rect width="282" height="133" rx="8" fill="#314A71"/>
<g filter="url(#filter0_d_951_2521)">
<path d="M16 24C16 19.5817 19.5817 16 24 16H258C262.418 16 266 19.5817 266 24V133H16V24Z" fill="white"/>
<rect x="32" y="32" width="65" height="16" rx="4" fill="#E6F2F7"/>
<rect width="65" height="15.9999" rx="4" transform="matrix(0.999398 -0.0346877 0.0344166 0.999408 31.7442 52.2549)" fill="#F8F8F8"/>
<rect width="65" height="15.9999" rx="4" transform="matrix(0.999471 0.0325162 -0.032262 0.999479 32.2753 70.2451)" fill="#F8F8F8"/>
<rect width="65" height="15.9999" rx="4" transform="matrix(0.999564 -0.0295413 0.0293104 0.99957 31.7797 92.2705)" fill="#F8F8F8"/>
<rect width="65" height="15.9999" rx="4" transform="matrix(0.999559 0.0296887 -0.0294566 0.999566 32.25 110.264)" fill="#F8F8F8"/>
<path d="M105 40C105 35.5817 108.582 32 113 32H242C246.418 32 250 35.5817 250 40V133H105V40Z" fill="#F8F8F8"/>
<rect x="113" y="40" width="32" height="8" rx="2" fill="#4F87B8"/>
<rect x="113" y="53" width="129" height="28" rx="2" fill="#69A3CC" fill-opacity="0.16"/>
<rect x="113" y="86" width="8" height="8" rx="2" fill="#ECECEC"/>
<rect x="125" y="86" width="93" height="8" rx="2" fill="#ECECEC"/>
<rect x="222" y="86" width="20" height="8" rx="2" fill="#ECECEC"/>
<rect x="113" y="99" width="8" height="8" rx="2" fill="#C1DDED"/>
<rect x="125" y="99" width="93" height="8" rx="2" fill="#ECECEC"/>
<rect x="222" y="99" width="20" height="8" rx="2" fill="#C1DDED"/>
<rect x="113" y="112" width="8" height="8" rx="2" fill="#ECECEC"/>
<rect x="125" y="112" width="93" height="8" rx="2" fill="#ECECEC"/>
<rect x="222" y="112" width="20" height="8" rx="2" fill="#ECECEC"/>
<rect x="113" y="125" width="8" height="8" rx="2" fill="#ECECEC"/>
<rect x="125" y="125" width="93" height="8" rx="2" fill="#ECECEC"/>
<rect x="222" y="125" width="20" height="8" rx="2" fill="#ECECEC"/>
</g>
</g>
<defs>
<filter id="filter0_d_951_2521" x="8" y="8" width="266" height="133" filterUnits="userSpaceOnUse" color-interpolation-filters="sRGB">
<feFlood flood-opacity="0" result="BackgroundImageFix"/>
<feColorMatrix in="SourceAlpha" type="matrix" values="0 0 0 0 0 0 0 0 0 0 0 0 0 0 0 0 0 0 127 0" result="hardAlpha"/>
<feOffset/>
<feGaussianBlur stdDeviation="4"/>
<feComposite in2="hardAlpha" operator="out"/>
<feColorMatrix type="matrix" values="0 0 0 0 0.0470588 0 0 0 0 0.0823529 0 0 0 0 0.113725 0 0 0 0.08 0"/>
<feBlend mode="normal" in2="BackgroundImageFix" result="effect1_dropShadow_951_2521"/>
<feBlend mode="normal" in="SourceGraphic" in2="effect1_dropShadow_951_2521" result="shape"/>
</filter>
<clipPath id="clip0_951_2521">
<rect width="282" height="133" rx="8" fill="white"/>
</clipPath>
</defs>
</svg>
