<svg width="370" height="370" viewBox="0 0 370 370" fill="none" xmlns="http://www.w3.org/2000/svg">
<path d="M109.244 163.783C110.59 161.643 109.946 158.816 107.806 157.47C105.665 156.124 102.839 156.768 101.493 158.909L96.1398 167.421C95.1783 168.95 95.6384 170.969 97.1674 171.93L99.3822 173.323C100.911 174.284 102.93 173.824 103.892 172.295L109.244 163.783Z" fill="#8CC942"/>
<path d="M124.658 232.347C126.061 237.581 122.955 242.961 117.721 244.364C112.487 245.766 107.107 242.66 105.705 237.426L84.2052 157.189L103.159 152.11L124.658 232.347Z" fill="#8CC942"/>
<path d="M261.609 163.783C260.263 161.643 260.907 158.816 263.048 157.47C265.188 156.124 268.015 156.768 269.361 158.909L274.714 167.421C275.675 168.95 275.215 170.969 273.686 171.93L271.471 173.323C269.942 174.284 267.923 173.824 266.962 172.295L261.609 163.783Z" fill="#8CC942"/>
<path d="M246.195 232.347C244.793 237.581 247.899 242.961 253.133 244.364C258.367 245.766 263.746 242.66 265.149 237.426L286.648 157.189L267.695 152.11L246.195 232.347Z" fill="#8CC942"/>
<path d="M172.386 280.521H146.223V310.936H172.386V280.521Z" fill="#8CC942"/>
<path d="M172.386 310.936H146.223V328.759H172.386V310.936Z" fill="white"/>
<path d="M174.004 328.76H144.57V336.936H174.004V328.76Z" fill="#0C151D"/>
<path d="M172.369 336.936H146.206V363.099H172.369V336.936Z" fill="#0C151D"/>
<path fillRule="evenodd" clipRule="evenodd" d="M133.124 363.099C133.124 352.262 141.91 343.477 152.747 343.477C163.584 343.477 172.369 352.262 172.369 363.099L133.124 363.099Z" fill="#0C151D"/>
<path d="M198.515 280.521H224.678V310.936H198.515V280.521Z" fill="#8CC942"/>
<path d="M198.515 310.936H224.678V328.759H198.515V310.936Z" fill="white"/>
<path d="M196.896 328.76H226.33V336.936H196.896V328.76Z" fill="#0C151D"/>
<path d="M198.532 336.936H224.695V363.099H198.532V336.936Z" fill="#0C151D"/>
<path fillRule="evenodd" clipRule="evenodd" d="M237.776 363.099C237.776 352.262 228.991 343.477 218.154 343.477C207.317 343.477 198.532 352.262 198.532 363.099L237.776 363.099Z" fill="#0C151D"/>
<path fillRule="evenodd" clipRule="evenodd" d="M115.137 262.207C115.137 280.269 129.78 294.911 147.841 294.911L223.06 294.911C241.122 294.911 255.764 280.269 255.764 262.207L255.764 173.416L255.764 160.825L255.764 139.077L192.646 139.077L192.646 157.555L179.564 157.555L179.564 139.077L115.138 139.077L115.138 160.825L115.138 173.416L115.137 262.207Z" fill="#0C151D"/>
<path d="M255.764 208.736H115.137V244.711H255.764V208.736Z" fill="#C1EF78"/>
<mask id="mask0_14886_23672" style="mask-type:alpha" maskUnits="userSpaceOnUse" x="115" y="139" width="141" height="156">
<path fillRule="evenodd" clipRule="evenodd" d="M147.841 294.912C129.78 294.912 115.137 280.27 115.137 262.208V244.712L115.137 173.417V139.078L115.137 244.712H255.764L255.764 262.208C255.764 280.27 241.122 294.912 223.06 294.912H147.841Z" fill="#0C151D"/>
</mask>
<g mask="url(#mask0_14886_23672)">
<path d="M255.764 251.252H115.137V257.793H255.764V251.252Z" fill="#383C41"/>
<path d="M255.764 277.415H115.137V283.956H255.764V277.415Z" fill="#383C41"/>
<path d="M255.764 264.334H115.137V270.875H255.764V264.334Z" fill="#383C41"/>
<path d="M255.764 290.496H115.137V297.037H255.764V290.496Z" fill="#383C41"/>
</g>
<path fillRule="evenodd" clipRule="evenodd" d="M217.337 219.202C217.337 226.426 211.48 232.283 204.255 232.283C197.031 232.283 191.174 226.426 191.174 219.202L217.337 219.202Z" fill="white"/>
<mask id="mask1_14886_23672" style="mask-type:alpha" maskUnits="userSpaceOnUse" x="191" y="219" width="27" height="14">
<path fillRule="evenodd" clipRule="evenodd" d="M217.337 219.202C217.337 226.426 211.48 232.283 204.255 232.283C197.031 232.283 191.174 226.426 191.174 219.202L217.337 219.202Z" fill="#D9D9D9"/>
</mask>
<g mask="url(#mask1_14886_23672)">
<path d="M207.525 219.201H200.985V233.918H207.525V219.201Z" fill="#0C151D"/>
</g>
<path fillRule="evenodd" clipRule="evenodd" d="M153.564 219.202L179.728 219.202C179.728 226.426 173.871 232.283 166.646 232.283C159.421 232.283 153.564 226.426 153.564 219.202Z" fill="white"/>
<mask id="mask2_14886_23672" style="mask-type:alpha" maskUnits="userSpaceOnUse" x="153" y="219" width="27" height="14">
<path fillRule="evenodd" clipRule="evenodd" d="M153.564 219.202L179.728 219.202C179.728 226.426 173.871 232.283 166.646 232.283C159.421 232.283 153.564 226.426 153.564 219.202Z" fill="#D9D9D9"/>
</mask>
<g mask="url(#mask2_14886_23672)">
<path d="M169.916 219.201H163.375V233.918H169.916V219.201Z" fill="#0C151D"/>
</g>
<rect x="97" y="116" width="8" height="89" rx="4" fill="#A47837"/>
<rect x="266" y="116" width="8" height="89" rx="4" fill="#A47837"/>
<rect x="76.2128" y="7.26355" width="218.745" height="128.611" rx="7.73645" fill="white"/>
<rect x="76.2128" y="7.26355" width="218.745" height="128.611" rx="7.73645" stroke="#F1F1F1" strokeWidth="0.527096"/>
<path d="M94.2487 47.7298C93.5087 47.7298 92.7909 47.6317 92.0955 47.4356C91.409 47.2305 90.8562 46.9675 90.4372 46.6466L91.1727 45.015C91.5739 45.3092 92.0509 45.5455 92.6037 45.7238C93.1565 45.9021 93.7093 45.9912 94.262 45.9912C94.8772 45.9912 95.3319 45.9021 95.6262 45.7238C95.9204 45.5365 96.0675 45.2914 96.0675 44.9882C96.0675 44.7653 95.9783 44.5826 95.8 44.4399C95.6306 44.2883 95.4077 44.168 95.1313 44.0788C94.8639 43.9897 94.4983 43.8916 94.0347 43.7846C93.3214 43.6152 92.7374 43.4458 92.2827 43.2764C91.828 43.107 91.4357 42.8351 91.1059 42.4606C90.7849 42.0861 90.6244 41.5869 90.6244 40.9628C90.6244 40.4189 90.7715 39.9285 91.0657 39.4917C91.36 39.0459 91.8013 38.6937 92.3897 38.4351C92.9871 38.1766 93.7137 38.0473 94.5696 38.0473C95.167 38.0473 95.751 38.1186 96.3216 38.2613C96.8922 38.4039 97.3915 38.609 97.8194 38.8765L97.1508 40.5214C96.2859 40.0311 95.4211 39.7859 94.5563 39.7859C93.95 39.7859 93.4997 39.8839 93.2055 40.0801C92.9202 40.2762 92.7776 40.5348 92.7776 40.8558C92.7776 41.1767 92.9425 41.4175 93.2724 41.5779C93.6112 41.7295 94.1239 41.8811 94.8104 42.0326C95.5236 42.202 96.1076 42.3714 96.5623 42.5408C97.017 42.7102 97.4049 42.9777 97.7258 43.3433C98.0557 43.7088 98.2206 44.2036 98.2206 44.8277C98.2206 45.3627 98.0691 45.8531 97.7659 46.2988C97.4717 46.7357 97.0259 47.0834 96.4286 47.342C95.8312 47.6005 95.1046 47.7298 94.2487 47.7298ZM104.195 47.2216C103.99 47.3732 103.735 47.4891 103.432 47.5693C103.138 47.6407 102.826 47.6763 102.496 47.6763C101.64 47.6763 100.976 47.4579 100.503 47.021C100.04 46.5841 99.808 45.9422 99.808 45.0952V42.1396H98.698V40.5348H99.808V38.7829H101.894V40.5348H103.686V42.1396H101.894V45.0685C101.894 45.3716 101.97 45.6079 102.122 45.7773C102.282 45.9378 102.505 46.018 102.79 46.018C103.12 46.018 103.401 45.9288 103.633 45.7505L104.195 47.2216ZM108.268 40.2673C109.382 40.2673 110.238 40.5348 110.836 41.0697C111.433 41.5958 111.732 42.3937 111.732 43.4636V47.5693H109.779V46.6733C109.387 47.342 108.656 47.6763 107.586 47.6763C107.033 47.6763 106.552 47.5827 106.141 47.3955C105.74 47.2082 105.433 46.9497 105.219 46.6198C105.005 46.2899 104.898 45.9155 104.898 45.4964C104.898 44.8277 105.147 44.3017 105.647 43.9183C106.155 43.535 106.935 43.3433 107.987 43.3433H109.645C109.645 42.8886 109.507 42.5408 109.231 42.3001C108.954 42.0505 108.54 41.9257 107.987 41.9257C107.604 41.9257 107.225 41.9881 106.85 42.1129C106.485 42.2288 106.173 42.3893 105.914 42.5943L105.165 41.1366C105.557 40.8602 106.025 40.6462 106.569 40.4947C107.122 40.3431 107.688 40.2673 108.268 40.2673ZM108.107 46.2721C108.464 46.2721 108.78 46.1919 109.057 46.0314C109.333 45.862 109.529 45.6168 109.645 45.2958V44.5603H108.214C107.358 44.5603 106.93 44.8411 106.93 45.4028C106.93 45.6703 107.033 45.8843 107.238 46.0447C107.452 46.1963 107.742 46.2721 108.107 46.2721ZM115.612 41.3238C115.862 40.9761 116.196 40.7131 116.615 40.5348C117.043 40.3565 117.534 40.2673 118.087 40.2673V42.1931C117.855 42.1753 117.699 42.1664 117.618 42.1664C117.021 42.1664 116.553 42.3358 116.214 42.6746C115.875 43.0045 115.706 43.5037 115.706 44.1724V47.5693H113.62V40.3743H115.612V41.3238ZM124.216 47.2216C124.011 47.3732 123.757 47.4891 123.454 47.5693C123.159 47.6407 122.847 47.6763 122.517 47.6763C121.662 47.6763 120.997 47.4579 120.525 47.021C120.061 46.5841 119.829 45.9422 119.829 45.0952V42.1396H118.719V40.5348H119.829V38.7829H121.916V40.5348H123.708V42.1396H121.916V45.0685C121.916 45.3716 121.991 45.6079 122.143 45.7773C122.303 45.9378 122.526 46.018 122.812 46.018C123.142 46.018 123.422 45.9288 123.654 45.7505L124.216 47.2216ZM133.815 44.2527V47.5693H131.649V44.2259L128.024 38.2078H130.325L132.825 42.367L135.326 38.2078H137.453L133.815 44.2527ZM140.839 47.6763C140.081 47.6763 139.399 47.5203 138.793 47.2082C138.196 46.8873 137.727 46.4459 137.389 45.8843C137.05 45.3226 136.88 44.6851 136.88 43.9718C136.88 43.2586 137.05 42.6211 137.389 42.0594C137.727 41.4977 138.196 41.0608 138.793 40.7488C139.399 40.4278 140.081 40.2673 140.839 40.2673C141.597 40.2673 142.275 40.4278 142.872 40.7488C143.469 41.0608 143.937 41.4977 144.276 42.0594C144.615 42.6211 144.784 43.2586 144.784 43.9718C144.784 44.6851 144.615 45.3226 144.276 45.8843C143.937 46.4459 143.469 46.8873 142.872 47.2082C142.275 47.5203 141.597 47.6763 140.839 47.6763ZM140.839 45.9645C141.374 45.9645 141.811 45.7862 142.15 45.4296C142.497 45.064 142.671 44.5781 142.671 43.9718C142.671 43.3656 142.497 42.8841 142.15 42.5275C141.811 42.1619 141.374 41.9792 140.839 41.9792C140.304 41.9792 139.863 42.1619 139.515 42.5275C139.167 42.8841 138.994 43.3656 138.994 43.9718C138.994 44.5781 139.167 45.064 139.515 45.4296C139.863 45.7862 140.304 45.9645 140.839 45.9645ZM153.427 40.3743V47.5693H151.448V46.7134C151.172 47.0255 150.842 47.2662 150.458 47.4356C150.075 47.5961 149.66 47.6763 149.215 47.6763C148.27 47.6763 147.521 47.4044 146.968 46.8605C146.415 46.3167 146.139 45.5098 146.139 44.4399V40.3743H148.225V44.1323C148.225 45.2914 148.711 45.8709 149.683 45.8709C150.182 45.8709 150.583 45.7104 150.886 45.3894C151.189 45.0595 151.341 44.5736 151.341 43.9317V40.3743H153.427ZM157.353 41.3238C157.602 40.9761 157.937 40.7131 158.356 40.5348C158.784 40.3565 159.274 40.2673 159.827 40.2673V42.1931C159.595 42.1753 159.439 42.1664 159.359 42.1664C158.762 42.1664 158.293 42.3358 157.955 42.6746C157.616 43.0045 157.446 43.5037 157.446 44.1724V47.5693H155.36V40.3743H157.353V41.3238ZM173.64 38.2078V47.5693H171.861L167.194 41.8855V47.5693H165.054V38.2078H166.846L171.5 43.8916V38.2078H173.64ZM179.132 47.6763C178.374 47.6763 177.692 47.5203 177.085 47.2082C176.488 46.8873 176.02 46.4459 175.681 45.8843C175.342 45.3226 175.173 44.6851 175.173 43.9718C175.173 43.2586 175.342 42.6211 175.681 42.0594C176.02 41.4977 176.488 41.0608 177.085 40.7488C177.692 40.4278 178.374 40.2673 179.132 40.2673C179.889 40.2673 180.567 40.4278 181.164 40.7488C181.762 41.0608 182.23 41.4977 182.569 42.0594C182.907 42.6211 183.077 43.2586 183.077 43.9718C183.077 44.6851 182.907 45.3226 182.569 45.8843C182.23 46.4459 181.762 46.8873 181.164 47.2082C180.567 47.5203 179.889 47.6763 179.132 47.6763ZM179.132 45.9645C179.667 45.9645 180.103 45.7862 180.442 45.4296C180.79 45.064 180.964 44.5781 180.964 43.9718C180.964 43.3656 180.79 42.8841 180.442 42.5275C180.103 42.1619 179.667 41.9792 179.132 41.9792C178.597 41.9792 178.155 42.1619 177.808 42.5275C177.46 42.8841 177.286 43.3656 177.286 43.9718C177.286 44.5781 177.46 45.064 177.808 45.4296C178.155 45.7862 178.597 45.9645 179.132 45.9645ZM192.886 47.7298C191.932 47.7298 191.067 47.5248 190.292 47.1146C189.525 46.6956 188.919 46.1205 188.473 45.3894C188.036 44.6494 187.817 43.8158 187.817 42.8886C187.817 41.9613 188.036 41.1322 188.473 40.4011C188.919 39.6611 189.525 39.086 190.292 38.6759C191.067 38.2568 191.937 38.0473 192.899 38.0473C193.711 38.0473 194.442 38.19 195.093 38.4753C195.752 38.7606 196.305 39.1707 196.751 39.7056L195.36 40.9895C194.727 40.2584 193.943 39.8929 193.006 39.8929C192.427 39.8929 191.91 40.0221 191.455 40.2807C191 40.5303 190.644 40.8825 190.385 41.3372C190.136 41.7919 190.011 42.309 190.011 42.8886C190.011 43.4681 190.136 43.9852 190.385 44.4399C190.644 44.8946 191 45.2512 191.455 45.5098C191.91 45.7594 192.427 45.8843 193.006 45.8843C193.943 45.8843 194.727 45.5143 195.36 44.7742L196.751 46.0581C196.305 46.602 195.752 47.0166 195.093 47.3019C194.433 47.5872 193.697 47.7298 192.886 47.7298ZM201.243 47.6763C200.485 47.6763 199.803 47.5203 199.196 47.2082C198.599 46.8873 198.131 46.4459 197.792 45.8843C197.453 45.3226 197.284 44.6851 197.284 43.9718C197.284 43.2586 197.453 42.6211 197.792 42.0594C198.131 41.4977 198.599 41.0608 199.196 40.7488C199.803 40.4278 200.485 40.2673 201.243 40.2673C202 40.2673 202.678 40.4278 203.275 40.7488C203.873 41.0608 204.341 41.4977 204.68 42.0594C205.018 42.6211 205.188 43.2586 205.188 43.9718C205.188 44.6851 205.018 45.3226 204.68 45.8843C204.341 46.4459 203.873 46.8873 203.275 47.2082C202.678 47.5203 202 47.6763 201.243 47.6763ZM201.243 45.9645C201.777 45.9645 202.214 45.7862 202.553 45.4296C202.901 45.064 203.075 44.5781 203.075 43.9718C203.075 43.3656 202.901 42.8841 202.553 42.5275C202.214 42.1619 201.777 41.9792 201.243 41.9792C200.708 41.9792 200.266 42.1619 199.919 42.5275C199.571 42.8841 199.397 43.3656 199.397 43.9718C199.397 44.5781 199.571 45.064 199.919 45.4296C200.266 45.7862 200.708 45.9645 201.243 45.9645ZM215.797 40.2673C216.697 40.2673 217.41 40.5348 217.936 41.0697C218.471 41.5958 218.739 42.3893 218.739 43.4503V47.5693H216.653V43.7712C216.653 43.2006 216.532 42.7771 216.292 42.5007C216.06 42.2154 215.725 42.0728 215.288 42.0728C214.798 42.0728 214.41 42.2333 214.125 42.5542C213.84 42.8663 213.697 43.3343 213.697 43.9585V47.5693H211.611V43.7712C211.611 42.6389 211.156 42.0728 210.247 42.0728C209.765 42.0728 209.382 42.2333 209.096 42.5542C208.811 42.8663 208.669 43.3343 208.669 43.9585V47.5693H206.582V40.3743H208.575V41.2035C208.842 40.9003 209.168 40.6685 209.551 40.5081C209.943 40.3476 210.371 40.2673 210.835 40.2673C211.343 40.2673 211.802 40.3699 212.213 40.5749C212.623 40.7711 212.953 41.0608 213.202 41.4442C213.496 41.0697 213.866 40.78 214.312 40.5749C214.767 40.3699 215.262 40.2673 215.797 40.2673ZM229.823 40.2673C230.724 40.2673 231.437 40.5348 231.963 41.0697C232.498 41.5958 232.766 42.3893 232.766 43.4503V47.5693H230.679V43.7712C230.679 43.2006 230.559 42.7771 230.318 42.5007C230.086 42.2154 229.752 42.0728 229.315 42.0728C228.825 42.0728 228.437 42.2333 228.152 42.5542C227.866 42.8663 227.724 43.3343 227.724 43.9585V47.5693H225.637V43.7712C225.637 42.6389 225.183 42.0728 224.273 42.0728C223.792 42.0728 223.408 42.2333 223.123 42.5542C222.838 42.8663 222.695 43.3343 222.695 43.9585V47.5693H220.609V40.3743H222.602V41.2035C222.869 40.9003 223.194 40.6685 223.578 40.5081C223.97 40.3476 224.398 40.2673 224.862 40.2673C225.37 40.2673 225.829 40.3699 226.239 40.5749C226.649 40.7711 226.979 41.0608 227.229 41.4442C227.523 41.0697 227.893 40.78 228.339 40.5749C228.794 40.3699 229.288 40.2673 229.823 40.2673ZM234.636 40.3743H236.722V47.5693H234.636V40.3743ZM235.679 39.3713C235.295 39.3713 234.983 39.2598 234.743 39.037C234.502 38.8141 234.381 38.5377 234.381 38.2078C234.381 37.8779 234.502 37.6015 234.743 37.3786C234.983 37.1557 235.295 37.0443 235.679 37.0443C236.062 37.0443 236.374 37.1513 236.615 37.3652C236.856 37.5792 236.976 37.8467 236.976 38.1677C236.976 38.5154 236.856 38.8051 236.615 39.037C236.374 39.2598 236.062 39.3713 235.679 39.3713ZM243.299 47.2216C243.094 47.3732 242.84 47.4891 242.536 47.5693C242.242 47.6407 241.93 47.6763 241.6 47.6763C240.744 47.6763 240.08 47.4579 239.608 47.021C239.144 46.5841 238.912 45.9422 238.912 45.0952V42.1396H237.802V40.5348H238.912V38.7829H240.998V40.5348H242.791V42.1396H240.998V45.0685C240.998 45.3716 241.074 45.6079 241.226 45.7773C241.386 45.9378 241.609 46.018 241.895 46.018C242.224 46.018 242.505 45.9288 242.737 45.7505L243.299 47.2216ZM253.684 40.2673C254.585 40.2673 255.298 40.5348 255.824 41.0697C256.359 41.5958 256.627 42.3893 256.627 43.4503V47.5693H254.54V43.7712C254.54 43.2006 254.42 42.7771 254.179 42.5007C253.947 42.2154 253.613 42.0728 253.176 42.0728C252.686 42.0728 252.298 42.2333 252.013 42.5542C251.727 42.8663 251.585 43.3343 251.585 43.9585V47.5693H249.498V43.7712C249.498 42.6389 249.044 42.0728 248.134 42.0728C247.653 42.0728 247.269 42.2333 246.984 42.5542C246.699 42.8663 246.556 43.3343 246.556 43.9585V47.5693H244.47V40.3743H246.463V41.2035C246.73 40.9003 247.055 40.6685 247.439 40.5081C247.831 40.3476 248.259 40.2673 248.723 40.2673C249.231 40.2673 249.69 40.3699 250.1 40.5749C250.51 40.7711 250.84 41.0608 251.09 41.4442C251.384 41.0697 251.754 40.78 252.2 40.5749C252.655 40.3699 253.149 40.2673 253.684 40.2673ZM265.623 43.9986C265.623 44.0253 265.609 44.2126 265.583 44.5603H260.14C260.238 45.0061 260.47 45.3582 260.835 45.6168C261.201 45.8753 261.655 46.0046 262.199 46.0046C262.574 46.0046 262.904 45.9511 263.189 45.8441C263.483 45.7282 263.755 45.5499 264.005 45.3092L265.115 46.5128C264.437 47.2885 263.447 47.6763 262.146 47.6763C261.334 47.6763 260.617 47.5203 259.993 47.2082C259.368 46.8873 258.887 46.4459 258.548 45.8843C258.209 45.3226 258.04 44.6851 258.04 43.9718C258.04 43.2675 258.205 42.6345 258.535 42.0728C258.874 41.5022 259.333 41.0608 259.912 40.7488C260.501 40.4278 261.156 40.2673 261.878 40.2673C262.583 40.2673 263.22 40.4189 263.791 40.722C264.361 41.0252 264.807 41.462 265.128 42.0326C265.458 42.5943 265.623 43.2496 265.623 43.9986ZM261.892 41.8454C261.419 41.8454 261.022 41.9792 260.701 42.2466C260.38 42.5141 260.184 42.8796 260.113 43.3433H263.657C263.586 42.8886 263.389 42.5275 263.068 42.26C262.747 41.9836 262.355 41.8454 261.892 41.8454ZM271.385 40.2673C272.277 40.2673 272.994 40.5348 273.538 41.0697C274.091 41.6047 274.367 42.3982 274.367 43.4503V47.5693H272.281V43.7712C272.281 43.2006 272.156 42.7771 271.907 42.5007C271.657 42.2154 271.296 42.0728 270.823 42.0728C270.297 42.0728 269.878 42.2377 269.566 42.5676C269.254 42.8886 269.098 43.37 269.098 44.0119V47.5693H267.012V40.3743H269.004V41.2169C269.281 40.9137 269.624 40.6819 270.034 40.5214C270.444 40.352 270.895 40.2673 271.385 40.2673ZM280.899 47.2216C280.694 47.3732 280.44 47.4891 280.137 47.5693C279.843 47.6407 279.53 47.6763 279.201 47.6763C278.345 47.6763 277.68 47.4579 277.208 47.021C276.744 46.5841 276.513 45.9422 276.513 45.0952V42.1396H275.402V40.5348H276.513V38.7829H278.599V40.5348H280.391V42.1396H278.599V45.0685C278.599 45.3716 278.675 45.6079 278.826 45.7773C278.987 45.9378 279.21 46.018 279.495 46.018C279.825 46.018 280.106 45.9288 280.337 45.7505L280.899 47.2216ZM134.779 56.9464V59.4205H139.112V61.1591H134.779V64.5693H132.613V55.2078H139.687V56.9464H134.779ZM142.869 58.3238C143.119 57.9761 143.453 57.7131 143.872 57.5348C144.3 57.3565 144.79 57.2673 145.343 57.2673V59.1931C145.111 59.1753 144.955 59.1664 144.875 59.1664C144.278 59.1664 143.81 59.3358 143.471 59.6746C143.132 60.0045 142.963 60.5037 142.963 61.1724V64.5693H140.876V57.3743H142.869V58.3238ZM153.566 60.9986C153.566 61.0253 153.553 61.2126 153.526 61.5603H148.083C148.181 62.0061 148.413 62.3582 148.779 62.6168C149.144 62.8753 149.599 63.0046 150.143 63.0046C150.517 63.0046 150.847 62.9511 151.132 62.8441C151.427 62.7282 151.698 62.5499 151.948 62.3092L153.058 63.5128C152.381 64.2885 151.391 64.6763 150.089 64.6763C149.278 64.6763 148.56 64.5203 147.936 64.2082C147.312 63.8873 146.83 63.4459 146.492 62.8843C146.153 62.3226 145.983 61.6851 145.983 60.9718C145.983 60.2675 146.148 59.6345 146.478 59.0728C146.817 58.5022 147.276 58.0608 147.856 57.7488C148.444 57.4278 149.1 57.2673 149.822 57.2673C150.526 57.2673 151.164 57.4189 151.734 57.722C152.305 58.0252 152.751 58.462 153.071 59.0326C153.401 59.5943 153.566 60.2496 153.566 60.9986ZM149.835 58.8454C149.363 58.8454 148.966 58.9792 148.645 59.2466C148.324 59.5141 148.128 59.8796 148.056 60.3433H151.6C151.529 59.8886 151.333 59.5275 151.012 59.26C150.691 58.9836 150.299 58.8454 149.835 58.8454ZM162.003 60.9986C162.003 61.0253 161.99 61.2126 161.963 61.5603H156.52C156.618 62.0061 156.85 62.3582 157.215 62.6168C157.581 62.8753 158.036 63.0046 158.58 63.0046C158.954 63.0046 159.284 62.9511 159.569 62.8441C159.863 62.7282 160.135 62.5499 160.385 62.3092L161.495 63.5128C160.817 64.2885 159.828 64.6763 158.526 64.6763C157.715 64.6763 156.997 64.5203 156.373 64.2082C155.749 63.8873 155.267 63.4459 154.929 62.8843C154.59 62.3226 154.42 61.6851 154.42 60.9718C154.42 60.2675 154.585 59.6345 154.915 59.0728C155.254 58.5022 155.713 58.0608 156.293 57.7488C156.881 57.4278 157.536 57.2673 158.259 57.2673C158.963 57.2673 159.6 57.4189 160.171 57.722C160.742 58.0252 161.187 58.462 161.508 59.0326C161.838 59.5943 162.003 60.2496 162.003 60.9986ZM158.272 58.8454C157.799 58.8454 157.403 58.9792 157.082 59.2466C156.761 59.5141 156.565 59.8796 156.493 60.3433H160.037C159.966 59.8886 159.77 59.5275 159.449 59.26C159.128 58.9836 158.736 58.8454 158.272 58.8454ZM169.266 56.9731H166.27V55.2078H174.428V56.9731H171.432V64.5693H169.266V56.9731ZM177.283 58.3238C177.532 57.9761 177.867 57.7131 178.286 57.5348C178.714 57.3565 179.204 57.2673 179.757 57.2673V59.1931C179.525 59.1753 179.369 59.1664 179.289 59.1664C178.691 59.1664 178.223 59.3358 177.885 59.6746C177.546 60.0045 177.376 60.5037 177.376 61.1724V64.5693H175.29V57.3743H177.283V58.3238ZM180.997 57.3743H183.084V64.5693H180.997V57.3743ZM182.04 56.3713C181.657 56.3713 181.345 56.2598 181.104 56.037C180.864 55.8141 180.743 55.5377 180.743 55.2078C180.743 54.8779 180.864 54.6015 181.104 54.3786C181.345 54.1557 181.657 54.0443 182.04 54.0443C182.424 54.0443 182.736 54.1513 182.977 54.3652C183.217 54.5792 183.338 54.8467 183.338 55.1677C183.338 55.5154 183.217 55.8051 182.977 56.037C182.736 56.2598 182.424 56.3713 182.04 56.3713ZM187.922 57.2673C189.036 57.2673 189.892 57.5348 190.49 58.0697C191.087 58.5958 191.386 59.3937 191.386 60.4636V64.5693H189.433V63.6733C189.041 64.342 188.31 64.6763 187.24 64.6763C186.687 64.6763 186.206 64.5827 185.796 64.3955C185.394 64.2082 185.087 63.9497 184.873 63.6198C184.659 63.2899 184.552 62.9155 184.552 62.4964C184.552 61.8277 184.801 61.3017 185.301 60.9183C185.809 60.535 186.589 60.3433 187.641 60.3433H189.299C189.299 59.8886 189.161 59.5408 188.885 59.3001C188.608 59.0505 188.194 58.9257 187.641 58.9257C187.258 58.9257 186.879 58.9881 186.504 59.1129C186.139 59.2288 185.827 59.3893 185.568 59.5943L184.819 58.1366C185.212 57.8602 185.68 57.6462 186.223 57.4947C186.776 57.3431 187.342 57.2673 187.922 57.2673ZM187.761 63.2721C188.118 63.2721 188.435 63.1919 188.711 63.0314C188.987 62.862 189.184 62.6168 189.299 62.2958V61.5603H187.868C187.013 61.5603 186.585 61.8411 186.585 62.4028C186.585 62.6703 186.687 62.8843 186.892 63.0447C187.106 63.1963 187.396 63.2721 187.761 63.2721ZM193.274 54.6461H195.36V64.5693H193.274V54.6461ZM209.817 55.2078V64.5693H208.038L203.371 58.8855V64.5693H201.231V55.2078H203.023L207.677 60.8916V55.2078H209.817ZM215.308 64.6763C214.551 64.6763 213.868 64.5203 213.262 64.2082C212.665 63.8873 212.197 63.4459 211.858 62.8843C211.519 62.3226 211.35 61.6851 211.35 60.9718C211.35 60.2586 211.519 59.6211 211.858 59.0594C212.197 58.4977 212.665 58.0608 213.262 57.7488C213.868 57.4278 214.551 57.2673 215.308 57.2673C216.066 57.2673 216.744 57.4278 217.341 57.7488C217.938 58.0608 218.407 58.4977 218.745 59.0594C219.084 59.6211 219.254 60.2586 219.254 60.9718C219.254 61.6851 219.084 62.3226 218.745 62.8843C218.407 63.4459 217.938 63.8873 217.341 64.2082C216.744 64.5203 216.066 64.6763 215.308 64.6763ZM215.308 62.9645C215.843 62.9645 216.28 62.7862 216.619 62.4296C216.967 62.064 217.141 61.5781 217.141 60.9718C217.141 60.3656 216.967 59.8841 216.619 59.5275C216.28 59.1619 215.843 58.9792 215.308 58.9792C214.773 58.9792 214.332 59.1619 213.984 59.5275C213.637 59.8841 213.463 60.3656 213.463 60.9718C213.463 61.5781 213.637 62.064 213.984 62.4296C214.332 62.7862 214.773 62.9645 215.308 62.9645ZM232.007 57.3743L229.399 64.5693H227.393L225.775 60.1025L224.103 64.5693H222.097L219.503 57.3743H221.469L223.167 62.2423L224.932 57.3743H226.698L228.41 62.2423L230.161 57.3743H232.007ZM236.497 55.2078H238.984L238.57 61.3195H236.911L236.497 55.2078ZM237.741 64.6763C237.375 64.6763 237.068 64.5604 236.818 64.3286C236.577 64.0879 236.457 63.7981 236.457 63.4593C236.457 63.1205 236.577 62.8397 236.818 62.6168C237.059 62.385 237.366 62.2691 237.741 62.2691C238.115 62.2691 238.423 62.385 238.663 62.6168C238.904 62.8397 239.025 63.1205 239.025 63.4593C239.025 63.7981 238.9 64.0879 238.65 64.3286C238.409 64.5604 238.106 64.6763 237.741 64.6763ZM111.037 85.8308V87.5693H103.789V78.2078H110.864V79.9464H105.942V81.9792H110.288V83.6642H105.942V85.8308H111.037ZM117.096 87.5693L115.518 85.3627L113.887 87.5693H111.613L114.382 83.9451L111.707 80.3743H114.047L115.572 82.474L117.137 80.3743H119.357L116.682 83.8916L119.464 87.5693H117.096ZM124.729 80.2673C125.398 80.2673 126.004 80.4234 126.548 80.7354C127.101 81.0385 127.533 81.471 127.845 82.0326C128.157 82.5854 128.313 83.2318 128.313 83.9718C128.313 84.7118 128.157 85.3627 127.845 85.9244C127.533 86.4772 127.101 86.9096 126.548 87.2216C126.004 87.5248 125.398 87.6763 124.729 87.6763C123.811 87.6763 123.089 87.3866 122.563 86.807V90.1638H120.476V80.3743H122.469V81.2035C122.986 80.5794 123.74 80.2673 124.729 80.2673ZM124.368 85.9645C124.903 85.9645 125.34 85.7862 125.679 85.4296C126.026 85.064 126.2 84.5781 126.2 83.9718C126.2 83.3656 126.026 82.8841 125.679 82.5275C125.34 82.1619 124.903 81.9792 124.368 81.9792C123.833 81.9792 123.392 82.1619 123.044 82.5275C122.705 82.8841 122.536 83.3656 122.536 83.9718C122.536 84.5781 122.705 85.064 123.044 85.4296C123.392 85.7862 123.833 85.9645 124.368 85.9645ZM136.758 83.9986C136.758 84.0253 136.744 84.2126 136.718 84.5603H131.275C131.373 85.0061 131.605 85.3582 131.97 85.6168C132.336 85.8753 132.79 86.0046 133.334 86.0046C133.709 86.0046 134.039 85.9511 134.324 85.8441C134.618 85.7282 134.89 85.5499 135.14 85.3092L136.25 86.5128C135.572 87.2885 134.582 87.6763 133.281 87.6763C132.469 87.6763 131.752 87.5203 131.128 87.2082C130.503 86.8873 130.022 86.4459 129.683 85.8843C129.344 85.3226 129.175 84.6851 129.175 83.9718C129.175 83.2675 129.34 82.6345 129.67 82.0728C130.009 81.5022 130.468 81.0608 131.047 80.7488C131.636 80.4278 132.291 80.2673 133.013 80.2673C133.718 80.2673 134.355 80.4189 134.926 80.722C135.496 81.0252 135.942 81.462 136.263 82.0326C136.593 82.5943 136.758 83.2496 136.758 83.9986ZM133.027 81.8454C132.554 81.8454 132.157 81.9792 131.836 82.2466C131.515 82.5141 131.319 82.8796 131.248 83.3433H134.792C134.721 82.8886 134.524 82.5275 134.203 82.26C133.883 81.9836 133.49 81.8454 133.027 81.8454ZM140.139 81.3238C140.389 80.9761 140.723 80.7131 141.143 80.5348C141.57 80.3565 142.061 80.2673 142.614 80.2673V82.1931C142.382 82.1753 142.226 82.1664 142.146 82.1664C141.548 82.1664 141.08 82.3358 140.741 82.6746C140.403 83.0045 140.233 83.5037 140.233 84.1724V87.5693H138.147V80.3743H140.139V81.3238ZM143.854 80.3743H145.94V87.5693H143.854V80.3743ZM144.897 79.3713C144.514 79.3713 144.202 79.2598 143.961 79.037C143.72 78.8141 143.6 78.5377 143.6 78.2078C143.6 77.8779 143.72 77.6015 143.961 77.3786C144.202 77.1557 144.514 77.0443 144.897 77.0443C145.281 77.0443 145.593 77.1513 145.833 77.3652C146.074 77.5792 146.195 77.8467 146.195 78.1677C146.195 78.5154 146.074 78.8051 145.833 79.037C145.593 79.2598 145.281 79.3713 144.897 79.3713ZM154.925 83.9986C154.925 84.0253 154.911 84.2126 154.884 84.5603H149.441C149.539 85.0061 149.771 85.3582 150.137 85.6168C150.502 85.8753 150.957 86.0046 151.501 86.0046C151.875 86.0046 152.205 85.9511 152.491 85.8441C152.785 85.7282 153.057 85.5499 153.306 85.3092L154.416 86.5128C153.739 87.2885 152.749 87.6763 151.447 87.6763C150.636 87.6763 149.918 87.5203 149.294 87.2082C148.67 86.8873 148.189 86.4459 147.85 85.8843C147.511 85.3226 147.342 84.6851 147.342 83.9718C147.342 83.2675 147.507 82.6345 147.837 82.0728C148.175 81.5022 148.634 81.0608 149.214 80.7488C149.802 80.4278 150.458 80.2673 151.18 80.2673C151.884 80.2673 152.522 80.4189 153.092 80.722C153.663 81.0252 154.109 81.462 154.43 82.0326C154.76 82.5943 154.925 83.2496 154.925 83.9986ZM151.193 81.8454C150.721 81.8454 150.324 81.9792 150.003 82.2466C149.682 82.5141 149.486 82.8796 149.415 83.3433H152.959C152.887 82.8886 152.691 82.5275 152.37 82.26C152.049 81.9836 151.657 81.8454 151.193 81.8454ZM160.687 80.2673C161.578 80.2673 162.296 80.5348 162.84 81.0697C163.393 81.6047 163.669 82.3982 163.669 83.4503V87.5693H161.583V83.7712C161.583 83.2006 161.458 82.7771 161.208 82.5007C160.959 82.2154 160.598 82.0728 160.125 82.0728C159.599 82.0728 159.18 82.2377 158.868 82.5676C158.556 82.8886 158.4 83.37 158.4 84.0119V87.5693H156.314V80.3743H158.306V81.2169C158.583 80.9137 158.926 80.6819 159.336 80.5214C159.746 80.352 160.196 80.2673 160.687 80.2673ZM169.116 87.6763C168.349 87.6763 167.658 87.5203 167.043 87.2082C166.436 86.8873 165.959 86.4459 165.612 85.8843C165.273 85.3226 165.104 84.6851 165.104 83.9718C165.104 83.2586 165.273 82.6211 165.612 82.0594C165.959 81.4977 166.436 81.0608 167.043 80.7488C167.658 80.4278 168.349 80.2673 169.116 80.2673C169.874 80.2673 170.533 80.4278 171.095 80.7488C171.666 81.0608 172.08 81.5111 172.339 82.0995L170.721 82.9688C170.346 82.309 169.807 81.9792 169.102 81.9792C168.558 81.9792 168.108 82.1575 167.752 82.5141C167.395 82.8707 167.217 83.3566 167.217 83.9718C167.217 84.587 167.395 85.0729 167.752 85.4296C168.108 85.7862 168.558 85.9645 169.102 85.9645C169.816 85.9645 170.355 85.6346 170.721 84.9748L172.339 85.8575C172.08 86.4281 171.666 86.8739 171.095 87.1949C170.533 87.5158 169.874 87.6763 169.116 87.6763ZM180.496 83.9986C180.496 84.0253 180.483 84.2126 180.456 84.5603H175.013C175.111 85.0061 175.343 85.3582 175.709 85.6168C176.074 85.8753 176.529 86.0046 177.073 86.0046C177.447 86.0046 177.777 85.9511 178.062 85.8441C178.357 85.7282 178.629 85.5499 178.878 85.3092L179.988 86.5128C179.311 87.2885 178.321 87.6763 177.019 87.6763C176.208 87.6763 175.49 87.5203 174.866 87.2082C174.242 86.8873 173.761 86.4459 173.422 85.8843C173.083 85.3226 172.914 84.6851 172.914 83.9718C172.914 83.2675 173.079 82.6345 173.408 82.0728C173.747 81.5022 174.206 81.0608 174.786 80.7488C175.374 80.4278 176.03 80.2673 176.752 80.2673C177.456 80.2673 178.094 80.4189 178.664 80.722C179.235 81.0252 179.681 81.462 180.002 82.0326C180.331 82.5943 180.496 83.2496 180.496 83.9986ZM176.765 81.8454C176.293 81.8454 175.896 81.9792 175.575 82.2466C175.254 82.5141 175.058 82.8796 174.986 83.3433H178.531C178.459 82.8886 178.263 82.5275 177.942 82.26C177.621 81.9836 177.229 81.8454 176.765 81.8454ZM191.785 87.5693L189.979 84.9615H189.872H187.987V87.5693H185.82V78.2078H189.872C190.701 78.2078 191.419 78.346 192.025 78.6224C192.641 78.8988 193.113 79.2911 193.443 79.7992C193.773 80.3074 193.938 80.9093 193.938 81.6047C193.938 82.3001 193.768 82.9019 193.43 83.4101C193.1 83.9094 192.627 84.2928 192.012 84.5603L194.112 87.5693H191.785ZM191.745 81.6047C191.745 81.0787 191.575 80.6775 191.236 80.4011C190.898 80.1158 190.403 79.9731 189.752 79.9731H187.987V83.2363H189.752C190.403 83.2363 190.898 83.0936 191.236 82.8083C191.575 82.523 191.745 82.1218 191.745 81.6047ZM202.555 83.9986C202.555 84.0253 202.542 84.2126 202.515 84.5603H197.072C197.17 85.0061 197.402 85.3582 197.767 85.6168C198.133 85.8753 198.588 86.0046 199.131 86.0046C199.506 86.0046 199.836 85.9511 200.121 85.8441C200.415 85.7282 200.687 85.5499 200.937 85.3092L202.047 86.5128C201.369 87.2885 200.38 87.6763 199.078 87.6763C198.267 87.6763 197.549 87.5203 196.925 87.2082C196.301 86.8873 195.819 86.4459 195.48 85.8843C195.142 85.3226 194.972 84.6851 194.972 83.9718C194.972 83.2675 195.137 82.6345 195.467 82.0728C195.806 81.5022 196.265 81.0608 196.845 80.7488C197.433 80.4278 198.088 80.2673 198.81 80.2673C199.515 80.2673 200.152 80.4189 200.723 80.722C201.294 81.0252 201.739 81.462 202.06 82.0326C202.39 82.5943 202.555 83.2496 202.555 83.9986ZM198.824 81.8454C198.351 81.8454 197.955 81.9792 197.634 82.2466C197.313 82.5141 197.116 82.8796 197.045 83.3433H200.589C200.518 82.8886 200.322 82.5275 200.001 82.26C199.68 81.9836 199.287 81.8454 198.824 81.8454ZM211.273 77.6461V87.5693H209.28V86.7402C208.763 87.3643 208.014 87.6763 207.033 87.6763C206.356 87.6763 205.741 87.5248 205.188 87.2216C204.644 86.9185 204.216 86.4861 203.904 85.9244C203.592 85.3627 203.436 84.7118 203.436 83.9718C203.436 83.2318 203.592 82.581 203.904 82.0193C204.216 81.4576 204.644 81.0252 205.188 80.722C205.741 80.4189 206.356 80.2673 207.033 80.2673C207.952 80.2673 208.669 80.5571 209.187 81.1366V77.6461H211.273ZM207.394 85.9645C207.921 85.9645 208.357 85.7862 208.705 85.4296C209.053 85.064 209.227 84.5781 209.227 83.9718C209.227 83.3656 209.053 82.8841 208.705 82.5275C208.357 82.1619 207.921 81.9792 207.394 81.9792C206.86 81.9792 206.418 82.1619 206.07 82.5275C205.723 82.8841 205.549 83.3656 205.549 83.9718C205.549 84.5781 205.723 85.064 206.07 85.4296C206.418 85.7862 206.86 85.9645 207.394 85.9645ZM215.196 81.3238C215.446 80.9761 215.78 80.7131 216.199 80.5348C216.627 80.3565 217.118 80.2673 217.671 80.2673V82.1931C217.439 82.1753 217.283 82.1664 217.202 82.1664C216.605 82.1664 216.137 82.3358 215.798 82.6746C215.459 83.0045 215.29 83.5037 215.29 84.1724V87.5693H213.204V80.3743H215.196V81.3238ZM222.269 87.6763C221.512 87.6763 220.83 87.5203 220.223 87.2082C219.626 86.8873 219.158 86.4459 218.819 85.8843C218.48 85.3226 218.311 84.6851 218.311 83.9718C218.311 83.2586 218.48 82.6211 218.819 82.0594C219.158 81.4977 219.626 81.0608 220.223 80.7488C220.83 80.4278 221.512 80.2673 222.269 80.2673C223.027 80.2673 223.705 80.4278 224.302 80.7488C224.9 81.0608 225.368 81.4977 225.706 82.0594C226.045 82.6211 226.215 83.2586 226.215 83.9718C226.215 84.6851 226.045 85.3226 225.706 85.8843C225.368 86.4459 224.9 86.8873 224.302 87.2082C223.705 87.5203 223.027 87.6763 222.269 87.6763ZM222.269 85.9645C222.804 85.9645 223.241 85.7862 223.58 85.4296C223.928 85.064 224.102 84.5781 224.102 83.9718C224.102 83.3656 223.928 82.8841 223.58 82.5275C223.241 82.1619 222.804 81.9792 222.269 81.9792C221.734 81.9792 221.293 82.1619 220.945 82.5275C220.598 82.8841 220.424 83.3656 220.424 83.9718C220.424 84.5781 220.598 85.064 220.945 85.4296C221.293 85.7862 221.734 85.9645 222.269 85.9645ZM231.862 80.2673C232.531 80.2673 233.137 80.4234 233.681 80.7354C234.234 81.0385 234.666 81.471 234.978 82.0326C235.29 82.5854 235.446 83.2318 235.446 83.9718C235.446 84.7118 235.29 85.3627 234.978 85.9244C234.666 86.4772 234.234 86.9096 233.681 87.2216C233.137 87.5248 232.531 87.6763 231.862 87.6763C230.872 87.6763 230.119 87.3643 229.602 86.7402V87.5693H227.609V77.6461H229.695V81.1366C230.221 80.5571 230.944 80.2673 231.862 80.2673ZM231.501 85.9645C232.036 85.9645 232.473 85.7862 232.812 85.4296C233.159 85.064 233.333 84.5781 233.333 83.9718C233.333 83.3656 233.159 82.8841 232.812 82.5275C232.473 82.1619 232.036 81.9792 231.501 81.9792C230.966 81.9792 230.525 82.1619 230.177 82.5275C229.838 82.8841 229.669 83.3656 229.669 83.9718C229.669 84.5781 229.838 85.064 230.177 85.4296C230.525 85.7862 230.966 85.9645 231.501 85.9645ZM246.943 85.5633H242.596L241.767 87.5693H239.547L243.719 78.2078H245.859L250.045 87.5693H247.772L246.943 85.5633ZM246.26 83.9183L244.776 80.3342L243.292 83.9183H246.26ZM255.243 80.2673C256.134 80.2673 256.852 80.5348 257.396 81.0697C257.948 81.6047 258.225 82.3982 258.225 83.4503V87.5693H256.139V83.7712C256.139 83.2006 256.014 82.7771 255.764 82.5007C255.514 82.2154 255.153 82.0728 254.681 82.0728C254.155 82.0728 253.736 82.2377 253.424 82.5676C253.112 82.8886 252.956 83.37 252.956 84.0119V87.5693H250.869V80.3743H252.862V81.2169C253.138 80.9137 253.482 80.6819 253.892 80.5214C254.302 80.352 254.752 80.2673 255.243 80.2673ZM267.523 77.6461V87.5693H265.53V86.7402C265.013 87.3643 264.264 87.6763 263.284 87.6763C262.606 87.6763 261.991 87.5248 261.438 87.2216C260.894 86.9185 260.466 86.4861 260.154 85.9244C259.842 85.3627 259.686 84.7118 259.686 83.9718C259.686 83.2318 259.842 82.581 260.154 82.0193C260.466 81.4576 260.894 81.0252 261.438 80.722C261.991 80.4189 262.606 80.2673 263.284 80.2673C264.202 80.2673 264.92 80.5571 265.437 81.1366V77.6461H267.523ZM263.645 85.9645C264.171 85.9645 264.608 85.7862 264.955 85.4296C265.303 85.064 265.477 84.5781 265.477 83.9718C265.477 83.3656 265.303 82.8841 264.955 82.5275C264.608 82.1619 264.171 81.9792 263.645 81.9792C263.11 81.9792 262.668 82.1619 262.321 82.5275C261.973 82.8841 261.799 83.3656 261.799 83.9718C261.799 84.5781 261.973 85.064 262.321 85.4296C262.668 85.7862 263.11 85.9645 263.645 85.9645ZM148.238 95.2078V104.569H146.072V100.731H141.819V104.569H139.652V95.2078H141.819V98.8989H146.072V95.2078H148.238ZM150.306 97.3743H152.392V104.569H150.306V97.3743ZM151.349 96.3713C150.966 96.3713 150.654 96.2598 150.413 96.037C150.172 95.8141 150.052 95.5377 150.052 95.2078C150.052 94.8779 150.172 94.6015 150.413 94.3786C150.654 94.1557 150.966 94.0443 151.349 94.0443C151.732 94.0443 152.044 94.1513 152.285 94.3652C152.526 94.5792 152.646 94.8467 152.646 95.1677C152.646 95.5154 152.526 95.8051 152.285 96.037C152.044 96.2598 151.732 96.3713 151.349 96.3713ZM156.321 98.3238C156.571 97.9761 156.905 97.7131 157.324 97.5348C157.752 97.3565 158.242 97.2673 158.795 97.2673V99.1931C158.563 99.1753 158.407 99.1664 158.327 99.1664C157.73 99.1664 157.262 99.3358 156.923 99.6746C156.584 100.004 156.415 100.504 156.415 101.172V104.569H154.328V97.3743H156.321V98.3238ZM167.018 100.999C167.018 101.025 167.005 101.213 166.978 101.56H161.535C161.633 102.006 161.865 102.358 162.231 102.617C162.596 102.875 163.051 103.005 163.595 103.005C163.969 103.005 164.299 102.951 164.584 102.844C164.879 102.728 165.15 102.55 165.4 102.309L166.51 103.513C165.833 104.288 164.843 104.676 163.541 104.676C162.73 104.676 162.012 104.52 161.388 104.208C160.764 103.887 160.282 103.446 159.944 102.884C159.605 102.323 159.435 101.685 159.435 100.972C159.435 100.267 159.6 99.6345 159.93 99.0728C160.269 98.5022 160.728 98.0608 161.308 97.7488C161.896 97.4278 162.552 97.2673 163.274 97.2673C163.978 97.2673 164.616 97.4189 165.186 97.722C165.757 98.0252 166.203 98.462 166.523 99.0326C166.853 99.5943 167.018 100.25 167.018 100.999ZM163.287 98.8454C162.815 98.8454 162.418 98.9792 162.097 99.2466C161.776 99.5141 161.58 99.8796 161.508 100.343H165.052C164.981 99.8886 164.785 99.5275 164.464 99.26C164.143 98.9836 163.751 98.8454 163.287 98.8454ZM174.281 96.9731H171.285V95.2078H179.443V96.9731H176.448V104.569H174.281V96.9731ZM184.835 97.2673C185.727 97.2673 186.444 97.5348 186.988 98.0697C187.541 98.6047 187.817 99.3982 187.817 100.45V104.569H185.731V100.771C185.731 100.201 185.606 99.7771 185.357 99.5007C185.107 99.2154 184.746 99.0728 184.273 99.0728C183.747 99.0728 183.328 99.2377 183.016 99.5676C182.704 99.8886 182.548 100.37 182.548 101.012V104.569H180.462V94.6461H182.548V98.1232C182.825 97.8469 183.159 97.6373 183.551 97.4947C183.943 97.3431 184.371 97.2673 184.835 97.2673ZM196.835 100.999C196.835 101.025 196.821 101.213 196.795 101.56H191.352C191.45 102.006 191.681 102.358 192.047 102.617C192.413 102.875 192.867 103.005 193.411 103.005C193.786 103.005 194.115 102.951 194.401 102.844C194.695 102.728 194.967 102.55 195.217 102.309L196.327 103.513C195.649 104.288 194.659 104.676 193.358 104.676C192.546 104.676 191.829 104.52 191.204 104.208C190.58 103.887 190.099 103.446 189.76 102.884C189.421 102.323 189.252 101.685 189.252 100.972C189.252 100.267 189.417 99.6345 189.747 99.0728C190.086 98.5022 190.545 98.0608 191.124 97.7488C191.713 97.4278 192.368 97.2673 193.09 97.2673C193.794 97.2673 194.432 97.4189 195.003 97.722C195.573 98.0252 196.019 98.462 196.34 99.0326C196.67 99.5943 196.835 100.25 196.835 100.999ZM193.104 98.8454C192.631 98.8454 192.234 98.9792 191.913 99.2466C191.592 99.5141 191.396 99.8796 191.325 100.343H194.869C194.797 99.8886 194.601 99.5275 194.28 99.26C193.959 98.9836 193.567 98.8454 193.104 98.8454ZM209.032 99.7013C209.567 99.8707 209.986 100.156 210.289 100.557C210.593 100.95 210.744 101.435 210.744 102.015C210.744 102.835 210.423 103.468 209.781 103.914C209.148 104.351 208.221 104.569 207 104.569H202.158V95.2078H206.732C207.873 95.2078 208.747 95.4262 209.353 95.8631C209.968 96.3 210.276 96.8929 210.276 97.6418C210.276 98.0965 210.165 98.5022 209.942 98.8588C209.728 99.2154 209.425 99.4963 209.032 99.7013ZM204.311 96.8394V99.046H206.465C207 99.046 207.405 98.9524 207.682 98.7652C207.958 98.5779 208.096 98.3016 208.096 97.936C208.096 97.5705 207.958 97.2985 207.682 97.1202C207.405 96.933 207 96.8394 206.465 96.8394H204.311ZM206.839 102.938C207.41 102.938 207.838 102.844 208.123 102.657C208.417 102.47 208.564 102.18 208.564 101.788C208.564 101.012 207.989 100.624 206.839 100.624H204.311V102.938H206.839ZM219.285 100.999C219.285 101.025 219.272 101.213 219.245 101.56H213.802C213.9 102.006 214.132 102.358 214.497 102.617C214.863 102.875 215.318 103.005 215.862 103.005C216.236 103.005 216.566 102.951 216.851 102.844C217.145 102.728 217.417 102.55 217.667 102.309L218.777 103.513C218.099 104.288 217.11 104.676 215.808 104.676C214.997 104.676 214.279 104.52 213.655 104.208C213.031 103.887 212.549 103.446 212.211 102.884C211.872 102.323 211.702 101.685 211.702 100.972C211.702 100.267 211.867 99.6345 212.197 99.0728C212.536 98.5022 212.995 98.0608 213.575 97.7488C214.163 97.4278 214.818 97.2673 215.541 97.2673C216.245 97.2673 216.882 97.4189 217.453 97.722C218.024 98.0252 218.469 98.462 218.79 99.0326C219.12 99.5943 219.285 100.25 219.285 100.999ZM215.554 98.8454C215.081 98.8454 214.685 98.9792 214.364 99.2466C214.043 99.5141 213.847 99.8796 213.775 100.343H217.319C217.248 99.8886 217.052 99.5275 216.731 99.26C216.41 98.9836 216.018 98.8454 215.554 98.8454ZM223.095 104.676C222.497 104.676 221.913 104.605 221.343 104.462C220.772 104.311 220.318 104.124 219.979 103.901L220.674 102.403C220.995 102.608 221.383 102.777 221.838 102.911C222.292 103.036 222.738 103.098 223.175 103.098C224.058 103.098 224.499 102.88 224.499 102.443C224.499 102.238 224.379 102.091 224.138 102.002C223.897 101.912 223.527 101.837 223.028 101.774C222.44 101.685 221.954 101.583 221.57 101.467C221.187 101.351 220.853 101.146 220.567 100.851C220.291 100.557 220.153 100.138 220.153 99.5943C220.153 99.1396 220.282 98.7384 220.54 98.3907C220.808 98.0341 221.191 97.7577 221.691 97.5615C222.199 97.3654 222.796 97.2673 223.483 97.2673C223.991 97.2673 224.495 97.3253 224.994 97.4412C225.502 97.5482 225.921 97.6997 226.251 97.8959L225.556 99.3804C224.923 99.0237 224.232 98.8454 223.483 98.8454C223.037 98.8454 222.703 98.9078 222.48 99.0326C222.257 99.1575 222.145 99.318 222.145 99.5141C222.145 99.737 222.266 99.893 222.506 99.9822C222.747 100.071 223.13 100.156 223.657 100.236C224.245 100.334 224.726 100.441 225.101 100.557C225.475 100.664 225.801 100.865 226.077 101.159C226.354 101.453 226.492 101.863 226.492 102.389C226.492 102.835 226.358 103.232 226.091 103.58C225.823 103.927 225.431 104.199 224.914 104.395C224.405 104.583 223.799 104.676 223.095 104.676ZM232.42 104.222C232.215 104.373 231.96 104.489 231.657 104.569C231.363 104.641 231.051 104.676 230.721 104.676C229.865 104.676 229.201 104.458 228.728 104.021C228.265 103.584 228.033 102.942 228.033 102.095V99.1396H226.923V97.5348H228.033V95.7829H230.119V97.5348H231.911V99.1396H230.119V102.068C230.119 102.372 230.195 102.608 230.347 102.777C230.507 102.938 230.73 103.018 231.015 103.018C231.345 103.018 231.626 102.929 231.858 102.751L232.42 104.222Z" fill="#0C151D"/>
<path fillRule="evenodd" clipRule="evenodd" d="M79.7354 15.9134C82.5572 15.8636 84.8363 13.5886 84.8927 10.7683C84.9491 13.5894 87.2294 15.8649 90.0524 15.9135V15.9158C87.2294 15.9644 84.9491 18.2399 84.8927 21.061C84.8363 18.2407 82.5572 15.9657 79.7354 15.9159V15.9134Z" fill="#217BBB"/>
<path fillRule="evenodd" clipRule="evenodd" d="M291.443 15.9129C288.62 15.9617 286.34 18.2371 286.284 21.0581C286.227 18.2376 283.948 15.9625 281.126 15.9129V15.9115C283.948 15.8619 286.227 13.5868 286.284 10.7663C286.34 13.5873 288.62 15.8627 291.443 15.9115V15.9129Z" fill="#217BBB"/>
<path fillRule="evenodd" clipRule="evenodd" d="M291.443 127.31C288.62 127.359 286.34 129.635 286.284 132.456C286.227 129.635 283.948 127.36 281.126 127.31V127.309C283.948 127.259 286.227 124.984 286.284 122.164C286.34 124.985 288.62 127.26 291.443 127.309V127.31Z" fill="#217BBB"/>
<path fillRule="evenodd" clipRule="evenodd" d="M90.0524 127.311C87.2294 127.36 84.9491 129.635 84.8927 132.457C84.8363 129.636 82.5572 127.361 79.7354 127.311V127.31C82.5572 127.26 84.8363 124.985 84.8927 122.165C84.9491 124.986 87.2294 127.261 90.0524 127.31V127.311Z" fill="#217BBB"/>
<path d="M282.882 150.466C285.977 151.635 287.539 155.092 286.369 158.188C285.2 161.283 281.742 162.845 278.647 161.675L274.978 160.289C272.767 159.454 271.652 156.984 272.487 154.773L273.697 151.571C274.533 149.359 277.002 148.244 279.213 149.08L282.882 150.466Z" fill="#8CC942"/>
<path d="M279.889 160.659C282.984 161.828 284.546 165.286 283.376 168.381C282.207 171.477 278.749 173.038 275.654 171.869L271.985 170.483C269.774 169.647 268.659 167.178 269.494 164.967L270.704 161.764C271.54 159.553 274.009 158.438 276.22 159.273L279.889 160.659Z" fill="#8CC942"/>
<path d="M277.286 169.979C280.382 171.149 281.943 174.606 280.774 177.702C279.604 180.797 276.147 182.358 273.051 181.189L269.383 179.803C267.172 178.968 266.056 176.498 266.892 174.287L268.102 171.084C268.937 168.873 271.407 167.758 273.618 168.593L277.286 169.979Z" fill="#8CC942"/>
<path d="M87.7196 150.466C84.6241 151.635 83.0628 155.092 84.2322 158.188C85.4017 161.283 88.8591 162.845 91.9545 161.675L95.6232 160.289C97.8343 159.454 98.9495 156.984 98.1142 154.773L96.9042 151.571C96.0689 149.359 93.5993 148.244 91.3883 149.08L87.7196 150.466Z" fill="#8CC942"/>
<path d="M90.7128 160.659C87.6173 161.828 86.0559 165.286 87.2254 168.381C88.3948 171.477 91.8522 173.038 94.9477 171.869L98.6164 170.483C100.827 169.647 101.943 167.178 101.107 164.967L99.8974 161.764C99.0621 159.553 96.5925 158.438 94.3814 159.273L90.7128 160.659Z" fill="#8CC942"/>
<path d="M93.3153 169.979C90.2198 171.149 88.6585 174.606 89.8279 177.702C90.9974 180.797 94.4548 182.358 97.5502 181.189L101.219 179.803C103.43 178.968 104.545 176.498 103.71 174.287L102.5 171.084C101.665 168.873 99.195 167.758 96.984 168.593L93.3153 169.979Z" fill="#8CC942"/>
</svg>
