<svg width="282" height="133" viewBox="0 0 282 133" fill="none" xmlns="http://www.w3.org/2000/svg">
<rect width="282" height="133" rx="8" fill="#0C151D"/>
<g clipPath="url(#clip0_1839_31938)">
<path d="M16 24C16 19.5817 19.5817 16 24 16H258C262.418 16 266 19.5817 266 24V133H16V24Z" fill="white"/>
<rect x="16" y="16" width="250" height="117" rx="6.8125" fill="white"/>
<path d="M122 34.8238C122 33.2643 123.264 32 124.824 32H247.176C248.736 32 250 33.2643 250 34.8238V134H122V34.8238Z" fill="#F8F8F8"/>
<rect x="129.758" y="39.2852" width="46.5455" height="7.28571" rx="3.64286" fill="#ECECEC"/>
<rect x="149.152" y="57.5" width="93.0909" height="10.9286" rx="4" fill="#ECECEC"/>
<rect x="149.152" y="91.3594" width="93.0909" height="10.9286" rx="4" fill="#ECECEC"/>
<rect x="149.152" y="74.4297" width="93.0909" height="10.9286" rx="4" fill="#ECECEC"/>
<rect x="149" y="108" width="93" height="11" rx="4" fill="#ECECEC"/>
<rect x="130" y="108" width="15" height="11" rx="4" fill="#ECECEC"/>
<rect x="32" y="32" width="74" height="13.625" rx="4" fill="#ECECEC"/>
<rect width="74" height="13.625" rx="4" transform="matrix(0.999398 -0.0346877 0.0344166 0.999408 31.7878 51.5977)" fill="#F8F8F8"/>
<rect width="74" height="13.625" rx="4" transform="matrix(0.999471 0.0325162 -0.032262 0.999479 32.2394 68.6211)" fill="#F8F8F8"/>
<rect width="74" height="13.625" rx="4" transform="matrix(0.999564 -0.0295413 0.0293104 0.99957 31.8165 90.2383)" fill="#F8F8F8"/>
<rect width="74" height="13.625" rx="4" transform="matrix(0.999559 0.0296887 -0.0294566 0.999566 32.217 107.262)" fill="#F8F8F8"/>
<rect x="174" y="85" width="68" height="32" rx="4" fill="#69A3CC"/>
<path d="M194.013 105.12C193.357 105.12 192.729 105.028 192.129 104.844C191.529 104.652 191.053 104.408 190.701 104.112L191.241 102.9C191.577 103.164 191.993 103.384 192.489 103.56C192.985 103.736 193.493 103.824 194.013 103.824C194.453 103.824 194.809 103.776 195.081 103.68C195.353 103.584 195.553 103.456 195.681 103.296C195.809 103.128 195.873 102.94 195.873 102.732C195.873 102.476 195.781 102.272 195.597 102.12C195.413 101.96 195.173 101.836 194.877 101.748C194.589 101.652 194.265 101.564 193.905 101.484C193.553 101.404 193.197 101.312 192.837 101.208C192.485 101.096 192.161 100.956 191.865 100.788C191.577 100.612 191.341 100.38 191.157 100.092C190.973 99.804 190.881 99.436 190.881 98.988C190.881 98.532 191.001 98.116 191.241 97.74C191.489 97.356 191.861 97.052 192.357 96.828C192.861 96.596 193.497 96.48 194.265 96.48C194.769 96.48 195.269 96.544 195.765 96.672C196.261 96.8 196.693 96.984 197.061 97.224L196.569 98.436C196.193 98.212 195.805 98.048 195.405 97.944C195.005 97.832 194.621 97.776 194.253 97.776C193.821 97.776 193.469 97.828 193.197 97.932C192.933 98.036 192.737 98.172 192.609 98.34C192.489 98.508 192.429 98.7 192.429 98.916C192.429 99.172 192.517 99.38 192.693 99.54C192.877 99.692 193.113 99.812 193.401 99.9C193.697 99.988 194.025 100.076 194.385 100.164C194.745 100.244 195.101 100.336 195.453 100.44C195.813 100.544 196.137 100.68 196.425 100.848C196.721 101.016 196.957 101.244 197.133 101.532C197.317 101.82 197.409 102.184 197.409 102.624C197.409 103.072 197.285 103.488 197.037 103.872C196.797 104.248 196.425 104.552 195.921 104.784C195.417 105.008 194.781 105.12 194.013 105.12ZM202.448 98.52C202.96 98.52 203.416 98.62 203.816 98.82C204.224 99.02 204.544 99.328 204.776 99.744C205.008 100.152 205.124 100.68 205.124 101.328V105H203.624V101.52C203.624 100.952 203.488 100.528 203.216 100.248C202.952 99.968 202.58 99.828 202.1 99.828C201.748 99.828 201.436 99.9 201.164 100.044C200.892 100.188 200.68 100.404 200.528 100.692C200.384 100.972 200.312 101.328 200.312 101.76V105H198.812V96.096H200.312V100.32L199.988 99.792C200.212 99.384 200.536 99.072 200.96 98.856C201.392 98.632 201.888 98.52 202.448 98.52ZM210.975 105V103.704L210.891 103.428V101.16C210.891 100.72 210.759 100.38 210.495 100.14C210.231 99.892 209.831 99.768 209.295 99.768C208.935 99.768 208.579 99.824 208.227 99.936C207.883 100.048 207.591 100.204 207.351 100.404L206.763 99.312C207.107 99.048 207.515 98.852 207.987 98.724C208.467 98.588 208.963 98.52 209.475 98.52C210.403 98.52 211.119 98.744 211.623 99.192C212.135 99.632 212.391 100.316 212.391 101.244V105H210.975ZM208.959 105.084C208.479 105.084 208.059 105.004 207.699 104.844C207.339 104.676 207.059 104.448 206.859 104.16C206.667 103.864 206.571 103.532 206.571 103.164C206.571 102.804 206.655 102.48 206.823 102.192C206.999 101.904 207.283 101.676 207.675 101.508C208.067 101.34 208.587 101.256 209.235 101.256H211.095V102.252H209.343C208.831 102.252 208.487 102.336 208.311 102.504C208.135 102.664 208.047 102.864 208.047 103.104C208.047 103.376 208.155 103.592 208.371 103.752C208.587 103.912 208.887 103.992 209.271 103.992C209.639 103.992 209.967 103.908 210.255 103.74C210.551 103.572 210.763 103.324 210.891 102.996L211.143 103.896C210.999 104.272 210.739 104.564 210.363 104.772C209.995 104.98 209.527 105.084 208.959 105.084ZM214.316 105V98.592H215.744V100.356L215.576 99.84C215.768 99.408 216.068 99.08 216.476 98.856C216.892 98.632 217.408 98.52 218.024 98.52V99.948C217.96 99.932 217.9 99.924 217.844 99.924C217.788 99.916 217.732 99.912 217.676 99.912C217.108 99.912 216.656 100.08 216.32 100.416C215.984 100.744 215.816 101.236 215.816 101.892V105H214.316ZM222.25 105.084C221.538 105.084 220.914 104.944 220.378 104.664C219.85 104.376 219.438 103.984 219.142 103.488C218.854 102.992 218.71 102.428 218.71 101.796C218.71 101.156 218.85 100.592 219.13 100.104C219.418 99.608 219.81 99.22 220.306 98.94C220.81 98.66 221.382 98.52 222.022 98.52C222.646 98.52 223.202 98.656 223.69 98.928C224.178 99.2 224.562 99.584 224.842 100.08C225.122 100.576 225.262 101.16 225.262 101.832C225.262 101.896 225.258 101.968 225.25 102.048C225.25 102.128 225.246 102.204 225.238 102.276H219.898V101.28H224.446L223.858 101.592C223.866 101.224 223.79 100.9 223.63 100.62C223.47 100.34 223.25 100.12 222.97 99.96C222.698 99.8 222.382 99.72 222.022 99.72C221.654 99.72 221.33 99.8 221.05 99.96C220.778 100.12 220.562 100.344 220.402 100.632C220.25 100.912 220.174 101.244 220.174 101.628V101.868C220.174 102.252 220.262 102.592 220.438 102.888C220.614 103.184 220.862 103.412 221.182 103.572C221.502 103.732 221.87 103.812 222.286 103.812C222.646 103.812 222.97 103.756 223.258 103.644C223.546 103.532 223.802 103.356 224.026 103.116L224.83 104.04C224.542 104.376 224.178 104.636 223.738 104.82C223.306 104.996 222.81 105.084 222.25 105.084Z" fill="white"/>
<path fillRule="evenodd" clipRule="evenodd" d="M152.844 102.559C151.832 98.7838 147.975 96.5221 144.187 97.4825L110.507 106.021L89.669 101.481L96.5167 99.6464C100.358 98.6173 102.637 94.6693 101.608 90.8284C100.579 86.9875 96.6307 84.7081 92.7898 85.7373L48.7199 97.5458L48.7227 97.5563L48.7179 97.553L48.2897 98.3106L48.2821 98.3085L48.2876 98.3142L24.392 140.588L50.83 149.694L71.2266 121.849L106.443 121.022L110.461 120.088L110.478 120.176L147.594 111.359C151.511 110.428 153.886 106.447 152.844 102.559Z" fill="#F6E9E7"/>
<path d="M153.449 70.0222L114.614 36.0858C113.653 35.2459 112.349 34.9151 111.103 35.1954L60.7886 46.5195L153.449 70.0222Z" fill="#314A71"/>
<path d="M153.449 70.0222L103.134 81.3463C101.889 81.6266 100.584 81.2958 99.6233 80.4559L60.7886 46.5195L153.449 70.0222Z" fill="#314A71"/>
<rect x="78.1589" y="25.8984" width="72.0633" height="58.0918" rx="4" transform="rotate(14.2326 78.1589 25.8984)" fill="#E6F2F7"/>
<path fillRule="evenodd" clipRule="evenodd" d="M145.031 103.217L153.448 70.03L103.133 81.3541C101.888 81.6344 100.584 81.3036 99.623 80.4637L60.7882 46.5273L52.3706 79.7141C51.8275 81.8554 53.123 84.0316 55.2644 84.5748L140.17 106.111C142.311 106.654 144.487 105.358 145.031 103.217Z" fill="#69A3CC"/>
<path fillRule="evenodd" clipRule="evenodd" d="M163.808 34.8495C162.679 38.7796 158.636 41.1132 154.669 40.1242L154.668 40.128C158.599 41.2555 160.934 45.2992 159.945 49.2678L159.947 49.2683C161.075 45.3372 165.118 43.0027 169.086 43.991L169.087 43.9872C165.157 42.8593 162.823 38.8175 163.81 34.85L163.808 34.8495Z" fill="#E8704B"/>
<path fillRule="evenodd" clipRule="evenodd" d="M148.322 29.8369C150.968 30.4965 153.664 28.9399 154.415 26.3187L154.416 26.3191C153.757 28.9602 155.307 31.6515 157.92 32.4085C155.279 31.7575 152.592 33.3125 151.841 35.9282L151.84 35.928C152.497 33.2838 150.941 30.5904 148.322 29.8394L148.322 29.8369Z" fill="#F6E9E7"/>
<path d="M92.7707 85.735C96.6116 84.7058 100.56 86.9852 101.589 90.8261C102.618 94.667 100.339 98.615 96.4977 99.6442L52.4278 111.453L49.7361 101.407C49.1643 99.2733 50.4307 97.08 52.5645 96.5082L92.7707 85.735Z" fill="#F6E9E7"/>
</g>
<defs>
<clipPath id="clip0_1839_31938">
<path d="M16 24C16 19.5817 19.5817 16 24 16H258C262.418 16 266 19.5817 266 24V133H16V24Z" fill="white"/>
</clipPath>
</defs>
</svg>
