<svg width="282" height="133" viewBox="0 0 282 133" fill="none" xmlns="http://www.w3.org/2000/svg">
<rect width="282" height="133" rx="8" fill="#0C151D"/>
<g clipPath="url(#clip0_1839_31847)">
<path d="M16 24C16 19.5817 19.5817 16 24 16H258C262.418 16 266 19.5817 266 24V133H16V24Z" fill="white"/>
<rect x="116.5" y="60.5" width="117" height="22" rx="11" fill="#69A3CC" fill-opacity="0.16"/>
<path d="M125.364 75V68H128.644C129.484 68 130.124 68.1667 130.564 68.5C131.004 68.8267 131.224 69.2667 131.224 69.82C131.224 70.1933 131.137 70.5133 130.964 70.78C130.79 71.04 130.557 71.2433 130.264 71.39C129.977 71.53 129.664 71.6 129.324 71.6L129.504 71.24C129.897 71.24 130.25 71.3133 130.564 71.46C130.877 71.6 131.124 71.8067 131.304 72.08C131.49 72.3533 131.584 72.6933 131.584 73.1C131.584 73.7 131.354 74.1667 130.894 74.5C130.434 74.8333 129.75 75 128.844 75H125.364ZM126.664 73.98H128.764C129.25 73.98 129.624 73.9 129.884 73.74C130.144 73.58 130.274 73.3233 130.274 72.97C130.274 72.6233 130.144 72.37 129.884 72.21C129.624 72.0433 129.25 71.96 128.764 71.96H126.564V70.95H128.504C128.957 70.95 129.304 70.87 129.544 70.71C129.79 70.55 129.914 70.31 129.914 69.99C129.914 69.6633 129.79 69.42 129.544 69.26C129.304 69.1 128.957 69.02 128.504 69.02H126.664V73.98ZM136.141 75V73.92L136.071 73.69V71.8C136.071 71.4333 135.961 71.15 135.741 70.95C135.521 70.7433 135.188 70.64 134.741 70.64C134.441 70.64 134.145 70.6867 133.851 70.78C133.565 70.8733 133.321 71.0033 133.121 71.17L132.631 70.26C132.918 70.04 133.258 69.8767 133.651 69.77C134.051 69.6567 134.465 69.6 134.891 69.6C135.665 69.6 136.261 69.7867 136.681 70.16C137.108 70.5267 137.321 71.0967 137.321 71.87V75H136.141ZM134.461 75.07C134.061 75.07 133.711 75.0033 133.411 74.87C133.111 74.73 132.878 74.54 132.711 74.3C132.551 74.0533 132.471 73.7767 132.471 73.47C132.471 73.17 132.541 72.9 132.681 72.66C132.828 72.42 133.065 72.23 133.391 72.09C133.718 71.95 134.151 71.88 134.691 71.88H136.241V72.71H134.781C134.355 72.71 134.068 72.78 133.921 72.92C133.775 73.0533 133.701 73.22 133.701 73.42C133.701 73.6467 133.791 73.8267 133.971 73.96C134.151 74.0933 134.401 74.16 134.721 74.16C135.028 74.16 135.301 74.09 135.541 73.95C135.788 73.81 135.965 73.6033 136.071 73.33L136.281 74.08C136.161 74.3933 135.945 74.6367 135.631 74.81C135.325 74.9833 134.935 75.07 134.461 75.07ZM141.385 75.07C140.825 75.07 140.325 74.9533 139.885 74.72C139.452 74.48 139.112 74.1533 138.865 73.74C138.619 73.3267 138.495 72.8567 138.495 72.33C138.495 71.7967 138.619 71.3267 138.865 70.92C139.112 70.5067 139.452 70.1833 139.885 69.95C140.325 69.7167 140.825 69.6 141.385 69.6C141.905 69.6 142.362 69.7067 142.755 69.92C143.155 70.1267 143.459 70.4333 143.665 70.84L142.705 71.4C142.545 71.1467 142.349 70.96 142.115 70.84C141.889 70.72 141.642 70.66 141.375 70.66C141.069 70.66 140.792 70.7267 140.545 70.86C140.299 70.9933 140.105 71.1867 139.965 71.44C139.825 71.6867 139.755 71.9833 139.755 72.33C139.755 72.6767 139.825 72.9767 139.965 73.23C140.105 73.4767 140.299 73.6667 140.545 73.8C140.792 73.9333 141.069 74 141.375 74C141.642 74 141.889 73.94 142.115 73.82C142.349 73.7 142.545 73.5133 142.705 73.26L143.665 73.82C143.459 74.22 143.155 74.53 142.755 74.75C142.362 74.9633 141.905 75.07 141.385 75.07ZM145.717 73.81L145.747 72.24L148.537 69.66H150.037L147.667 72.04L147.007 72.59L145.717 73.81ZM144.697 75V67.58H145.947V75H144.697ZM148.727 75L146.777 72.59L147.567 71.59L150.247 75H148.727ZM153.35 75.07C152.756 75.07 152.236 74.9533 151.79 74.72C151.35 74.48 151.006 74.1533 150.76 73.74C150.52 73.3267 150.4 72.8567 150.4 72.33C150.4 71.7967 150.516 71.3267 150.75 70.92C150.99 70.5067 151.316 70.1833 151.73 69.95C152.15 69.7167 152.626 69.6 153.16 69.6C153.68 69.6 154.143 69.7133 154.55 69.94C154.956 70.1667 155.276 70.4867 155.51 70.9C155.743 71.3133 155.86 71.8 155.86 72.36C155.86 72.4133 155.856 72.4733 155.85 72.54C155.85 72.6067 155.846 72.67 155.84 72.73H151.39V71.9H155.18L154.69 72.16C154.696 71.8533 154.633 71.5833 154.5 71.35C154.366 71.1167 154.183 70.9333 153.95 70.8C153.723 70.6667 153.46 70.6 153.16 70.6C152.853 70.6 152.583 70.6667 152.35 70.8C152.123 70.9333 151.943 71.12 151.81 71.36C151.683 71.5933 151.62 71.87 151.62 72.19V72.39C151.62 72.71 151.693 72.9933 151.84 73.24C151.986 73.4867 152.193 73.6767 152.46 73.81C152.726 73.9433 153.033 74.01 153.38 74.01C153.68 74.01 153.95 73.9633 154.19 73.87C154.43 73.7767 154.643 73.63 154.83 73.43L155.5 74.2C155.26 74.48 154.956 74.6967 154.59 74.85C154.23 74.9967 153.816 75.07 153.35 75.07ZM160.09 69.6C160.517 69.6 160.897 69.6833 161.23 69.85C161.57 70.0167 161.837 70.2733 162.03 70.62C162.224 70.96 162.32 71.4 162.32 71.94V75H161.07V72.1C161.07 71.6267 160.957 71.2733 160.73 71.04C160.51 70.8067 160.2 70.69 159.8 70.69C159.507 70.69 159.247 70.75 159.02 70.87C158.794 70.99 158.617 71.17 158.49 71.41C158.37 71.6433 158.31 71.94 158.31 72.3V75H157.06V69.66H158.25V71.1L158.04 70.66C158.227 70.32 158.497 70.06 158.85 69.88C159.21 69.6933 159.624 69.6 160.09 69.6ZM166.176 75.07C165.662 75.07 165.199 74.9567 164.786 74.73C164.379 74.4967 164.059 74.1767 163.826 73.77C163.592 73.3633 163.476 72.8833 163.476 72.33C163.476 71.7767 163.592 71.2967 163.826 70.89C164.059 70.4833 164.379 70.1667 164.786 69.94C165.199 69.7133 165.662 69.6 166.176 69.6C166.622 69.6 167.022 69.7 167.376 69.9C167.729 70.0933 168.009 70.39 168.216 70.79C168.422 71.19 168.526 71.7033 168.526 72.33C168.526 72.95 168.426 73.4633 168.226 73.87C168.026 74.27 167.749 74.57 167.396 74.77C167.042 74.97 166.636 75.07 166.176 75.07ZM166.326 74C166.626 74 166.892 73.9333 167.126 73.8C167.366 73.6667 167.556 73.4733 167.696 73.22C167.842 72.9667 167.916 72.67 167.916 72.33C167.916 71.9833 167.842 71.6867 167.696 71.44C167.556 71.1867 167.366 70.9933 167.126 70.86C166.892 70.7267 166.626 70.66 166.326 70.66C166.026 70.66 165.756 70.7267 165.516 70.86C165.282 70.9933 165.092 71.1867 164.946 71.44C164.806 71.6867 164.736 71.9833 164.736 72.33C164.736 72.67 164.806 72.9667 164.946 73.22C165.092 73.4733 165.282 73.6667 165.516 73.8C165.756 73.9333 166.026 74 166.326 74ZM167.946 75V73.74L167.996 72.32L167.896 70.9V67.58H169.136V75H167.946ZM173.665 75V68H176.725C177.485 68 178.151 68.1467 178.725 68.44C179.298 68.7333 179.745 69.14 180.065 69.66C180.385 70.18 180.545 70.7933 180.545 71.5C180.545 72.2 180.385 72.8133 180.065 73.34C179.745 73.86 179.298 74.2667 178.725 74.56C178.151 74.8533 177.485 75 176.725 75H173.665ZM174.965 73.9H176.665C177.191 73.9 177.645 73.8 178.025 73.6C178.411 73.4 178.708 73.12 178.915 72.76C179.128 72.4 179.235 71.98 179.235 71.5C179.235 71.0133 179.128 70.5933 178.915 70.24C178.708 69.88 178.411 69.6 178.025 69.4C177.645 69.2 177.191 69.1 176.665 69.1H174.965V73.9ZM184.316 75.07C183.723 75.07 183.203 74.9533 182.756 74.72C182.316 74.48 181.973 74.1533 181.726 73.74C181.486 73.3267 181.366 72.8567 181.366 72.33C181.366 71.7967 181.483 71.3267 181.716 70.92C181.956 70.5067 182.283 70.1833 182.696 69.95C183.116 69.7167 183.593 69.6 184.126 69.6C184.646 69.6 185.11 69.7133 185.516 69.94C185.923 70.1667 186.243 70.4867 186.476 70.9C186.71 71.3133 186.826 71.8 186.826 72.36C186.826 72.4133 186.823 72.4733 186.816 72.54C186.816 72.6067 186.813 72.67 186.806 72.73H182.356V71.9H186.146L185.656 72.16C185.663 71.8533 185.6 71.5833 185.466 71.35C185.333 71.1167 185.15 70.9333 184.916 70.8C184.69 70.6667 184.426 70.6 184.126 70.6C183.82 70.6 183.55 70.6667 183.316 70.8C183.09 70.9333 182.91 71.12 182.776 71.36C182.65 71.5933 182.586 71.87 182.586 72.19V72.39C182.586 72.71 182.66 72.9933 182.806 73.24C182.953 73.4867 183.16 73.6767 183.426 73.81C183.693 73.9433 184 74.01 184.346 74.01C184.646 74.01 184.916 73.9633 185.156 73.87C185.396 73.7767 185.61 73.63 185.796 73.43L186.466 74.2C186.226 74.48 185.923 74.6967 185.556 74.85C185.196 74.9967 184.783 75.07 184.316 75.07ZM189.349 75L187.059 69.66H188.359L190.329 74.37H189.689L191.729 69.66H192.929L190.639 75H189.349ZM196.074 75.07C195.481 75.07 194.961 74.9533 194.514 74.72C194.074 74.48 193.731 74.1533 193.484 73.74C193.244 73.3267 193.124 72.8567 193.124 72.33C193.124 71.7967 193.241 71.3267 193.474 70.92C193.714 70.5067 194.041 70.1833 194.454 69.95C194.874 69.7167 195.351 69.6 195.884 69.6C196.404 69.6 196.867 69.7133 197.274 69.94C197.681 70.1667 198.001 70.4867 198.234 70.9C198.467 71.3133 198.584 71.8 198.584 72.36C198.584 72.4133 198.581 72.4733 198.574 72.54C198.574 72.6067 198.571 72.67 198.564 72.73H194.114V71.9H197.904L197.414 72.16C197.421 71.8533 197.357 71.5833 197.224 71.35C197.091 71.1167 196.907 70.9333 196.674 70.8C196.447 70.6667 196.184 70.6 195.884 70.6C195.577 70.6 195.307 70.6667 195.074 70.8C194.847 70.9333 194.667 71.12 194.534 71.36C194.407 71.5933 194.344 71.87 194.344 72.19V72.39C194.344 72.71 194.417 72.9933 194.564 73.24C194.711 73.4867 194.917 73.6767 195.184 73.81C195.451 73.9433 195.757 74.01 196.104 74.01C196.404 74.01 196.674 73.9633 196.914 73.87C197.154 73.7767 197.367 73.63 197.554 73.43L198.224 74.2C197.984 74.48 197.681 74.6967 197.314 74.85C196.954 74.9967 196.541 75.07 196.074 75.07ZM199.785 75V67.58H201.035V75H199.785ZM205.075 75.07C204.529 75.07 204.042 74.9533 203.615 74.72C203.189 74.48 202.852 74.1533 202.605 73.74C202.359 73.3267 202.235 72.8567 202.235 72.33C202.235 71.7967 202.359 71.3267 202.605 70.92C202.852 70.5067 203.189 70.1833 203.615 69.95C204.042 69.7167 204.529 69.6 205.075 69.6C205.629 69.6 206.119 69.7167 206.545 69.95C206.979 70.1833 207.315 70.5033 207.555 70.91C207.802 71.3167 207.925 71.79 207.925 72.33C207.925 72.8567 207.802 73.3267 207.555 73.74C207.315 74.1533 206.979 74.48 206.545 74.72C206.119 74.9533 205.629 75.07 205.075 75.07ZM205.075 74C205.382 74 205.655 73.9333 205.895 73.8C206.135 73.6667 206.322 73.4733 206.455 73.22C206.595 72.9667 206.665 72.67 206.665 72.33C206.665 71.9833 206.595 71.6867 206.455 71.44C206.322 71.1867 206.135 70.9933 205.895 70.86C205.655 70.7267 205.385 70.66 205.085 70.66C204.779 70.66 204.505 70.7267 204.265 70.86C204.032 70.9933 203.845 71.1867 203.705 71.44C203.565 71.6867 203.495 71.9833 203.495 72.33C203.495 72.67 203.565 72.9667 203.705 73.22C203.845 73.4733 204.032 73.6667 204.265 73.8C204.505 73.9333 204.775 74 205.075 74ZM212.081 75.07C211.647 75.07 211.251 74.97 210.891 74.77C210.537 74.57 210.254 74.27 210.041 73.87C209.834 73.4633 209.731 72.95 209.731 72.33C209.731 71.7033 209.831 71.19 210.031 70.79C210.237 70.39 210.517 70.0933 210.871 69.9C211.224 69.7 211.627 69.6 212.081 69.6C212.607 69.6 213.071 69.7133 213.471 69.94C213.877 70.1667 214.197 70.4833 214.431 70.89C214.671 71.2967 214.791 71.7767 214.791 72.33C214.791 72.8833 214.671 73.3667 214.431 73.78C214.197 74.1867 213.877 74.5033 213.471 74.73C213.071 74.9567 212.607 75.07 212.081 75.07ZM209.121 76.94V69.66H210.311V70.92L210.271 72.34L210.371 73.76V76.94H209.121ZM211.941 74C212.241 74 212.507 73.9333 212.741 73.8C212.981 73.6667 213.171 73.4733 213.311 73.22C213.451 72.9667 213.521 72.67 213.521 72.33C213.521 71.9833 213.451 71.6867 213.311 71.44C213.171 71.1867 212.981 70.9933 212.741 70.86C212.507 70.7267 212.241 70.66 211.941 70.66C211.641 70.66 211.371 70.7267 211.131 70.86C210.891 70.9933 210.701 71.1867 210.561 71.44C210.421 71.6867 210.351 71.9833 210.351 72.33C210.351 72.67 210.421 72.9667 210.561 73.22C210.701 73.4733 210.891 73.6667 211.131 73.8C211.371 73.9333 211.641 74 211.941 74ZM218.486 75.07C217.893 75.07 217.373 74.9533 216.926 74.72C216.486 74.48 216.143 74.1533 215.896 73.74C215.656 73.3267 215.536 72.8567 215.536 72.33C215.536 71.7967 215.653 71.3267 215.886 70.92C216.126 70.5067 216.453 70.1833 216.866 69.95C217.286 69.7167 217.763 69.6 218.296 69.6C218.816 69.6 219.28 69.7133 219.686 69.94C220.093 70.1667 220.413 70.4867 220.646 70.9C220.88 71.3133 220.996 71.8 220.996 72.36C220.996 72.4133 220.993 72.4733 220.986 72.54C220.986 72.6067 220.983 72.67 220.976 72.73H216.526V71.9H220.316L219.826 72.16C219.833 71.8533 219.77 71.5833 219.636 71.35C219.503 71.1167 219.32 70.9333 219.086 70.8C218.86 70.6667 218.596 70.6 218.296 70.6C217.99 70.6 217.72 70.6667 217.486 70.8C217.26 70.9333 217.08 71.12 216.946 71.36C216.82 71.5933 216.756 71.87 216.756 72.19V72.39C216.756 72.71 216.83 72.9933 216.976 73.24C217.123 73.4867 217.33 73.6767 217.596 73.81C217.863 73.9433 218.17 74.01 218.516 74.01C218.816 74.01 219.086 73.9633 219.326 73.87C219.566 73.7767 219.78 73.63 219.966 73.43L220.636 74.2C220.396 74.48 220.093 74.6967 219.726 74.85C219.366 74.9967 218.953 75.07 218.486 75.07ZM222.197 75V69.66H223.387V71.13L223.247 70.7C223.407 70.34 223.657 70.0667 223.997 69.88C224.344 69.6933 224.774 69.6 225.287 69.6V70.79C225.234 70.7767 225.184 70.77 225.137 70.77C225.09 70.7633 225.044 70.76 224.997 70.76C224.524 70.76 224.147 70.9 223.867 71.18C223.587 71.4533 223.447 71.8633 223.447 72.41V75H222.197Z" fill="#69A3CC"/>
<rect x="116.5" y="60.5" width="117" height="22" rx="11" stroke="#69A3CC"/>
<rect x="32.5" y="32.5" width="90" height="19" rx="9.5" fill="#F8F8F8"/>
<path d="M40.9981 45V39.4H43.3021C43.7981 39.4 44.2221 39.48 44.5741 39.64C44.9314 39.8 45.2061 40.0293 45.3981 40.328C45.5901 40.6267 45.6861 40.9813 45.6861 41.392C45.6861 41.8027 45.5901 42.1573 45.3981 42.456C45.2061 42.7547 44.9314 42.984 44.5741 43.144C44.2221 43.304 43.7981 43.384 43.3021 43.384H41.5741L42.0381 42.896V45H40.9981ZM42.0381 43.008L41.5741 42.504H43.2541C43.7128 42.504 44.0568 42.408 44.2861 42.216C44.5208 42.0187 44.6381 41.744 44.6381 41.392C44.6381 41.0347 44.5208 40.76 44.2861 40.568C44.0568 40.376 43.7128 40.28 43.2541 40.28H41.5741L42.0381 39.768V43.008ZM47.0197 46.608C46.8117 46.608 46.6037 46.5733 46.3957 46.504C46.1877 46.4347 46.0144 46.3387 45.8757 46.216L46.2757 45.48C46.3771 45.5707 46.4917 45.6427 46.6197 45.696C46.7477 45.7493 46.8784 45.776 47.0117 45.776C47.1931 45.776 47.3397 45.7307 47.4517 45.64C47.5637 45.5493 47.6677 45.3973 47.7637 45.184L48.0117 44.624L48.0917 44.504L49.7077 40.728H50.6677L48.6677 45.344C48.5344 45.664 48.3851 45.9173 48.2197 46.104C48.0597 46.2907 47.8784 46.4213 47.6757 46.496C47.4784 46.5707 47.2597 46.608 47.0197 46.608ZM47.8997 45.152L45.9717 40.728H47.0117L48.5797 44.416L47.8997 45.152ZM53.0179 45.056C52.5486 45.056 52.1859 44.936 51.9299 44.696C51.6739 44.4507 51.5459 44.0907 51.5459 43.616V39.784H52.5459V43.592C52.5459 43.7947 52.5966 43.952 52.6979 44.064C52.8046 44.176 52.9512 44.232 53.1379 44.232C53.3619 44.232 53.5486 44.1733 53.6979 44.056L53.9779 44.768C53.8606 44.864 53.7166 44.936 53.5459 44.984C53.3752 45.032 53.1992 45.056 53.0179 45.056ZM50.8419 41.56V40.76H53.6899V41.56H50.8419ZM57.2245 40.68C57.5659 40.68 57.8699 40.7467 58.1365 40.88C58.4085 41.0133 58.6219 41.2187 58.7765 41.496C58.9312 41.768 59.0085 42.12 59.0085 42.552V45H58.0085V42.68C58.0085 42.3013 57.9179 42.0187 57.7365 41.832C57.5605 41.6453 57.3125 41.552 56.9925 41.552C56.7579 41.552 56.5499 41.6 56.3685 41.696C56.1872 41.792 56.0459 41.936 55.9445 42.128C55.8485 42.3147 55.8005 42.552 55.8005 42.84V45H54.8005V39.064H55.8005V41.88L55.5845 41.528C55.7339 41.256 55.9499 41.048 56.2325 40.904C56.5205 40.7547 56.8512 40.68 57.2245 40.68ZM62.2049 45.056C61.7676 45.056 61.3782 44.9627 61.0369 44.776C60.6956 44.584 60.4262 44.3227 60.2289 43.992C60.0316 43.6613 59.9329 43.2853 59.9329 42.864C59.9329 42.4373 60.0316 42.0613 60.2289 41.736C60.4262 41.4053 60.6956 41.1467 61.0369 40.96C61.3782 40.7733 61.7676 40.68 62.2049 40.68C62.6476 40.68 63.0396 40.7733 63.3809 40.96C63.7276 41.1467 63.9969 41.4027 64.1889 41.728C64.3862 42.0533 64.4849 42.432 64.4849 42.864C64.4849 43.2853 64.3862 43.6613 64.1889 43.992C63.9969 44.3227 63.7276 44.584 63.3809 44.776C63.0396 44.9627 62.6476 45.056 62.2049 45.056ZM62.2049 44.2C62.4502 44.2 62.6689 44.1467 62.8609 44.04C63.0529 43.9333 63.2022 43.7787 63.3089 43.576C63.4209 43.3733 63.4769 43.136 63.4769 42.864C63.4769 42.5867 63.4209 42.3493 63.3089 42.152C63.2022 41.9493 63.0529 41.7947 62.8609 41.688C62.6689 41.5813 62.4529 41.528 62.2129 41.528C61.9676 41.528 61.7489 41.5813 61.5569 41.688C61.3702 41.7947 61.2209 41.9493 61.1089 42.152C60.9969 42.3493 60.9409 42.5867 60.9409 42.864C60.9409 43.136 60.9969 43.3733 61.1089 43.576C61.2209 43.7787 61.3702 43.9333 61.5569 44.04C61.7489 44.1467 61.9649 44.2 62.2049 44.2ZM67.8652 40.68C68.2065 40.68 68.5105 40.7467 68.7772 40.88C69.0492 41.0133 69.2625 41.2187 69.4172 41.496C69.5718 41.768 69.6492 42.12 69.6492 42.552V45H68.6492V42.68C68.6492 42.3013 68.5585 42.0187 68.3772 41.832C68.2012 41.6453 67.9532 41.552 67.6332 41.552C67.3985 41.552 67.1905 41.6 67.0092 41.696C66.8278 41.792 66.6865 41.936 66.5852 42.128C66.4892 42.3147 66.4412 42.552 66.4412 42.84V45H65.4412V40.728H66.3932V41.88L66.2252 41.528C66.3745 41.256 66.5905 41.048 66.8732 40.904C67.1612 40.7547 67.4918 40.68 67.8652 40.68ZM73.2247 45V39.4H75.6727C76.2807 39.4 76.814 39.5173 77.2727 39.752C77.7313 39.9867 78.0887 40.312 78.3447 40.728C78.6007 41.144 78.7287 41.6347 78.7287 42.2C78.7287 42.76 78.6007 43.2507 78.3447 43.672C78.0887 44.088 77.7313 44.4133 77.2727 44.648C76.814 44.8827 76.2807 45 75.6727 45H73.2247ZM74.2647 44.12H75.6247C76.046 44.12 76.4087 44.04 76.7127 43.88C77.022 43.72 77.2593 43.496 77.4247 43.208C77.5953 42.92 77.6807 42.584 77.6807 42.2C77.6807 41.8107 77.5953 41.4747 77.4247 41.192C77.2593 40.904 77.022 40.68 76.7127 40.52C76.4087 40.36 76.046 40.28 75.6247 40.28H74.2647V44.12ZM81.746 45.056C81.2714 45.056 80.8554 44.9627 80.498 44.776C80.146 44.584 79.8714 44.3227 79.674 43.992C79.482 43.6613 79.386 43.2853 79.386 42.864C79.386 42.4373 79.4794 42.0613 79.666 41.736C79.858 41.4053 80.1194 41.1467 80.45 40.96C80.786 40.7733 81.1674 40.68 81.594 40.68C82.01 40.68 82.3807 40.7707 82.706 40.952C83.0314 41.1333 83.2874 41.3893 83.474 41.72C83.6607 42.0507 83.754 42.44 83.754 42.888C83.754 42.9307 83.7514 42.9787 83.746 43.032C83.746 43.0853 83.7434 43.136 83.738 43.184H80.178V42.52H83.21L82.818 42.728C82.8234 42.4827 82.7727 42.2667 82.666 42.08C82.5594 41.8933 82.4127 41.7467 82.226 41.64C82.0447 41.5333 81.834 41.48 81.594 41.48C81.3487 41.48 81.1327 41.5333 80.946 41.64C80.7647 41.7467 80.6207 41.896 80.514 42.088C80.4127 42.2747 80.362 42.496 80.362 42.752V42.912C80.362 43.168 80.4207 43.3947 80.538 43.592C80.6554 43.7893 80.8207 43.9413 81.034 44.048C81.2474 44.1547 81.4927 44.208 81.77 44.208C82.01 44.208 82.226 44.1707 82.418 44.096C82.61 44.0213 82.7807 43.904 82.93 43.744L83.466 44.36C83.274 44.584 83.0314 44.7573 82.738 44.88C82.45 44.9973 82.1194 45.056 81.746 45.056ZM85.7725 45L83.9405 40.728H84.9805L86.5565 44.496H86.0445L87.6765 40.728H88.6365L86.8045 45H85.7725ZM91.1523 45.056C90.6776 45.056 90.2616 44.9627 89.9043 44.776C89.5523 44.584 89.2776 44.3227 89.0803 43.992C88.8883 43.6613 88.7923 43.2853 88.7923 42.864C88.7923 42.4373 88.8856 42.0613 89.0723 41.736C89.2643 41.4053 89.5256 41.1467 89.8563 40.96C90.1923 40.7733 90.5736 40.68 91.0003 40.68C91.4163 40.68 91.7869 40.7707 92.1123 40.952C92.4376 41.1333 92.6936 41.3893 92.8803 41.72C93.0669 42.0507 93.1603 42.44 93.1603 42.888C93.1603 42.9307 93.1576 42.9787 93.1523 43.032C93.1523 43.0853 93.1496 43.136 93.1443 43.184H89.5843V42.52H92.6163L92.2243 42.728C92.2296 42.4827 92.1789 42.2667 92.0723 42.08C91.9656 41.8933 91.8189 41.7467 91.6323 41.64C91.4509 41.5333 91.2403 41.48 91.0003 41.48C90.7549 41.48 90.5389 41.5333 90.3523 41.64C90.1709 41.7467 90.0269 41.896 89.9203 42.088C89.8189 42.2747 89.7683 42.496 89.7683 42.752V42.912C89.7683 43.168 89.8269 43.3947 89.9443 43.592C90.0616 43.7893 90.2269 43.9413 90.4403 44.048C90.6536 44.1547 90.8989 44.208 91.1763 44.208C91.4163 44.208 91.6323 44.1707 91.8243 44.096C92.0163 44.0213 92.1869 43.904 92.3363 43.744L92.8723 44.36C92.6803 44.584 92.4376 44.7573 92.1443 44.88C91.8563 44.9973 91.5256 45.056 91.1523 45.056ZM94.1208 45V39.064H95.1208V45H94.1208ZM98.3533 45.056C97.916 45.056 97.5267 44.9627 97.1853 44.776C96.844 44.584 96.5747 44.3227 96.3773 43.992C96.18 43.6613 96.0813 43.2853 96.0813 42.864C96.0813 42.4373 96.18 42.0613 96.3773 41.736C96.5747 41.4053 96.844 41.1467 97.1853 40.96C97.5267 40.7733 97.916 40.68 98.3533 40.68C98.796 40.68 99.188 40.7733 99.5293 40.96C99.876 41.1467 100.145 41.4027 100.337 41.728C100.535 42.0533 100.633 42.432 100.633 42.864C100.633 43.2853 100.535 43.6613 100.337 43.992C100.145 44.3227 99.876 44.584 99.5293 44.776C99.188 44.9627 98.796 45.056 98.3533 45.056ZM98.3533 44.2C98.5987 44.2 98.8173 44.1467 99.0093 44.04C99.2013 43.9333 99.3507 43.7787 99.4573 43.576C99.5693 43.3733 99.6253 43.136 99.6253 42.864C99.6253 42.5867 99.5693 42.3493 99.4573 42.152C99.3507 41.9493 99.2013 41.7947 99.0093 41.688C98.8173 41.5813 98.6013 41.528 98.3613 41.528C98.116 41.528 97.8973 41.5813 97.7053 41.688C97.5187 41.7947 97.3693 41.9493 97.2573 42.152C97.1453 42.3493 97.0893 42.5867 97.0893 42.864C97.0893 43.136 97.1453 43.3733 97.2573 43.576C97.3693 43.7787 97.5187 43.9333 97.7053 44.04C97.8973 44.1467 98.1133 44.2 98.3533 44.2ZM103.958 45.056C103.611 45.056 103.294 44.976 103.006 44.816C102.723 44.656 102.496 44.416 102.326 44.096C102.16 43.7707 102.078 43.36 102.078 42.864C102.078 42.3627 102.158 41.952 102.318 41.632C102.483 41.312 102.707 41.0747 102.99 40.92C103.272 40.76 103.595 40.68 103.958 40.68C104.379 40.68 104.75 40.7707 105.07 40.952C105.395 41.1333 105.651 41.3867 105.838 41.712C106.03 42.0373 106.126 42.4213 106.126 42.864C106.126 43.3067 106.03 43.6933 105.838 44.024C105.651 44.3493 105.395 44.6027 105.07 44.784C104.75 44.9653 104.379 45.056 103.958 45.056ZM101.59 46.552V40.728H102.542V41.736L102.51 42.872L102.59 44.008V46.552H101.59ZM103.846 44.2C104.086 44.2 104.299 44.1467 104.486 44.04C104.678 43.9333 104.83 43.7787 104.942 43.576C105.054 43.3733 105.11 43.136 105.11 42.864C105.11 42.5867 105.054 42.3493 104.942 42.152C104.83 41.9493 104.678 41.7947 104.486 41.688C104.299 41.5813 104.086 41.528 103.846 41.528C103.606 41.528 103.39 41.5813 103.198 41.688C103.006 41.7947 102.854 41.9493 102.742 42.152C102.63 42.3493 102.574 42.5867 102.574 42.864C102.574 43.136 102.63 43.3733 102.742 43.576C102.854 43.7787 103.006 43.9333 103.198 44.04C103.39 44.1467 103.606 44.2 103.846 44.2ZM109.082 45.056C108.607 45.056 108.191 44.9627 107.834 44.776C107.482 44.584 107.207 44.3227 107.01 43.992C106.818 43.6613 106.722 43.2853 106.722 42.864C106.722 42.4373 106.815 42.0613 107.002 41.736C107.194 41.4053 107.455 41.1467 107.786 40.96C108.122 40.7733 108.503 40.68 108.93 40.68C109.346 40.68 109.717 40.7707 110.042 40.952C110.367 41.1333 110.623 41.3893 110.81 41.72C110.997 42.0507 111.09 42.44 111.09 42.888C111.09 42.9307 111.087 42.9787 111.082 43.032C111.082 43.0853 111.079 43.136 111.074 43.184H107.514V42.52H110.546L110.154 42.728C110.159 42.4827 110.109 42.2667 110.002 42.08C109.895 41.8933 109.749 41.7467 109.562 41.64C109.381 41.5333 109.17 41.48 108.93 41.48C108.685 41.48 108.469 41.5333 108.282 41.64C108.101 41.7467 107.957 41.896 107.85 42.088C107.749 42.2747 107.698 42.496 107.698 42.752V42.912C107.698 43.168 107.757 43.3947 107.874 43.592C107.991 43.7893 108.157 43.9413 108.37 44.048C108.583 44.1547 108.829 44.208 109.106 44.208C109.346 44.208 109.562 44.1707 109.754 44.096C109.946 44.0213 110.117 43.904 110.266 43.744L110.802 44.36C110.61 44.584 110.367 44.7573 110.074 44.88C109.786 44.9973 109.455 45.056 109.082 45.056ZM112.051 45V40.728H113.003V41.904L112.891 41.56C113.019 41.272 113.219 41.0533 113.491 40.904C113.768 40.7547 114.112 40.68 114.523 40.68V41.632C114.48 41.6213 114.44 41.616 114.403 41.616C114.365 41.6107 114.328 41.608 114.291 41.608C113.912 41.608 113.611 41.72 113.387 41.944C113.163 42.1627 113.051 42.4907 113.051 42.928V45H112.051Z" fill="#F8F8F8"/>
<rect x="32.5" y="32.5" width="90" height="19" rx="9.5" stroke="#ECECEC"/>
<rect x="32.5" y="60.5" width="79" height="19" rx="9.5" fill="#F8F8F8"/>
<path d="M42.24 73L40.384 67.4H41.464L43.12 72.464H42.584L44.304 67.4H45.264L46.936 72.464H46.416L48.112 67.4H49.104L47.248 73H46.144L44.616 68.432H44.904L43.352 73H42.24ZM51.5429 73.056C51.0682 73.056 50.6522 72.9627 50.2949 72.776C49.9429 72.584 49.6682 72.3227 49.4709 71.992C49.2789 71.6613 49.1829 71.2853 49.1829 70.864C49.1829 70.4373 49.2762 70.0613 49.4629 69.736C49.6549 69.4053 49.9162 69.1467 50.2469 68.96C50.5829 68.7733 50.9642 68.68 51.3909 68.68C51.8069 68.68 52.1776 68.7707 52.5029 68.952C52.8282 69.1333 53.0842 69.3893 53.2709 69.72C53.4576 70.0507 53.5509 70.44 53.5509 70.888C53.5509 70.9307 53.5482 70.9787 53.5429 71.032C53.5429 71.0853 53.5402 71.136 53.5349 71.184H49.9749V70.52H53.0069L52.6149 70.728C52.6202 70.4827 52.5696 70.2667 52.4629 70.08C52.3562 69.8933 52.2096 69.7467 52.0229 69.64C51.8416 69.5333 51.6309 69.48 51.3909 69.48C51.1456 69.48 50.9296 69.5333 50.7429 69.64C50.5616 69.7467 50.4176 69.896 50.3109 70.088C50.2096 70.2747 50.1589 70.496 50.1589 70.752V70.912C50.1589 71.168 50.2176 71.3947 50.3349 71.592C50.4522 71.7893 50.6176 71.9413 50.8309 72.048C51.0442 72.1547 51.2896 72.208 51.5669 72.208C51.8069 72.208 52.0229 72.1707 52.2149 72.096C52.4069 72.0213 52.5776 71.904 52.7269 71.744L53.2629 72.36C53.0709 72.584 52.8282 72.7573 52.5349 72.88C52.2469 72.9973 51.9162 73.056 51.5429 73.056ZM56.8795 73.056C56.5168 73.056 56.1941 72.976 55.9115 72.816C55.6288 72.656 55.4048 72.416 55.2395 72.096C55.0795 71.7707 54.9995 71.36 54.9995 70.864C54.9995 70.3627 55.0821 69.952 55.2475 69.632C55.4181 69.312 55.6448 69.0747 55.9275 68.92C56.2155 68.76 56.5328 68.68 56.8795 68.68C57.3008 68.68 57.6715 68.7707 57.9915 68.952C58.3168 69.1333 58.5728 69.3867 58.7595 69.712C58.9515 70.0373 59.0475 70.4213 59.0475 70.864C59.0475 71.3067 58.9515 71.6907 58.7595 72.016C58.5728 72.3413 58.3168 72.5973 57.9915 72.784C57.6715 72.9653 57.3008 73.056 56.8795 73.056ZM54.5115 73V67.064H55.5115V69.72L55.4315 70.856L55.4635 71.992V73H54.5115ZM56.7675 72.2C57.0075 72.2 57.2208 72.1467 57.4075 72.04C57.5995 71.9333 57.7515 71.7787 57.8635 71.576C57.9755 71.3733 58.0315 71.136 58.0315 70.864C58.0315 70.5867 57.9755 70.3493 57.8635 70.152C57.7515 69.9493 57.5995 69.7947 57.4075 69.688C57.2208 69.5813 57.0075 69.528 56.7675 69.528C56.5275 69.528 56.3115 69.5813 56.1195 69.688C55.9275 69.7947 55.7755 69.9493 55.6635 70.152C55.5515 70.3493 55.4955 70.5867 55.4955 70.864C55.4955 71.136 55.5515 71.3733 55.6635 71.576C55.7755 71.7787 55.9275 71.9333 56.1195 72.04C56.3115 72.1467 56.5275 72.2 56.7675 72.2ZM62.3028 73V67.4H64.7508C65.3588 67.4 65.8921 67.5173 66.3508 67.752C66.8094 67.9867 67.1668 68.312 67.4228 68.728C67.6788 69.144 67.8068 69.6347 67.8068 70.2C67.8068 70.76 67.6788 71.2507 67.4228 71.672C67.1668 72.088 66.8094 72.4133 66.3508 72.648C65.8921 72.8827 65.3588 73 64.7508 73H62.3028ZM63.3428 72.12H64.7028C65.1241 72.12 65.4868 72.04 65.7908 71.88C66.1001 71.72 66.3374 71.496 66.5028 71.208C66.6734 70.92 66.7588 70.584 66.7588 70.2C66.7588 69.8107 66.6734 69.4747 66.5028 69.192C66.3374 68.904 66.1001 68.68 65.7908 68.52C65.4868 68.36 65.1241 68.28 64.7028 68.28H63.3428V72.12ZM70.8242 73.056C70.3495 73.056 69.9335 72.9627 69.5762 72.776C69.2242 72.584 68.9495 72.3227 68.7522 71.992C68.5602 71.6613 68.4642 71.2853 68.4642 70.864C68.4642 70.4373 68.5575 70.0613 68.7442 69.736C68.9362 69.4053 69.1975 69.1467 69.5282 68.96C69.8642 68.7733 70.2455 68.68 70.6722 68.68C71.0882 68.68 71.4588 68.7707 71.7842 68.952C72.1095 69.1333 72.3655 69.3893 72.5522 69.72C72.7388 70.0507 72.8322 70.44 72.8322 70.888C72.8322 70.9307 72.8295 70.9787 72.8242 71.032C72.8242 71.0853 72.8215 71.136 72.8162 71.184H69.2562V70.52H72.2882L71.8962 70.728C71.9015 70.4827 71.8508 70.2667 71.7442 70.08C71.6375 69.8933 71.4908 69.7467 71.3042 69.64C71.1228 69.5333 70.9122 69.48 70.6722 69.48C70.4268 69.48 70.2108 69.5333 70.0242 69.64C69.8428 69.7467 69.6988 69.896 69.5922 70.088C69.4908 70.2747 69.4402 70.496 69.4402 70.752V70.912C69.4402 71.168 69.4988 71.3947 69.6162 71.592C69.7335 71.7893 69.8988 71.9413 70.1122 72.048C70.3255 72.1547 70.5708 72.208 70.8482 72.208C71.0882 72.208 71.3042 72.1707 71.4962 72.096C71.6882 72.0213 71.8588 71.904 72.0082 71.744L72.5442 72.36C72.3522 72.584 72.1095 72.7573 71.8162 72.88C71.5282 72.9973 71.1975 73.056 70.8242 73.056ZM74.8506 73L73.0186 68.728H74.0586L75.6346 72.496H75.1226L76.7546 68.728H77.7146L75.8826 73H74.8506ZM80.2304 73.056C79.7557 73.056 79.3397 72.9627 78.9824 72.776C78.6304 72.584 78.3557 72.3227 78.1584 71.992C77.9664 71.6613 77.8704 71.2853 77.8704 70.864C77.8704 70.4373 77.9637 70.0613 78.1504 69.736C78.3424 69.4053 78.6037 69.1467 78.9344 68.96C79.2704 68.7733 79.6517 68.68 80.0784 68.68C80.4944 68.68 80.8651 68.7707 81.1904 68.952C81.5157 69.1333 81.7717 69.3893 81.9584 69.72C82.1451 70.0507 82.2384 70.44 82.2384 70.888C82.2384 70.9307 82.2357 70.9787 82.2304 71.032C82.2304 71.0853 82.2277 71.136 82.2224 71.184H78.6624V70.52H81.6944L81.3024 70.728C81.3077 70.4827 81.2571 70.2667 81.1504 70.08C81.0437 69.8933 80.8971 69.7467 80.7104 69.64C80.5291 69.5333 80.3184 69.48 80.0784 69.48C79.8331 69.48 79.6171 69.5333 79.4304 69.64C79.2491 69.7467 79.1051 69.896 78.9984 70.088C78.8971 70.2747 78.8464 70.496 78.8464 70.752V70.912C78.8464 71.168 78.9051 71.3947 79.0224 71.592C79.1397 71.7893 79.3051 71.9413 79.5184 72.048C79.7317 72.1547 79.9771 72.208 80.2544 72.208C80.4944 72.208 80.7104 72.1707 80.9024 72.096C81.0944 72.0213 81.2651 71.904 81.4144 71.744L81.9504 72.36C81.7584 72.584 81.5157 72.7573 81.2224 72.88C80.9344 72.9973 80.6037 73.056 80.2304 73.056ZM83.199 73V67.064H84.199V73H83.199ZM87.4315 73.056C86.9941 73.056 86.6048 72.9627 86.2635 72.776C85.9221 72.584 85.6528 72.3227 85.4555 71.992C85.2581 71.6613 85.1595 71.2853 85.1595 70.864C85.1595 70.4373 85.2581 70.0613 85.4555 69.736C85.6528 69.4053 85.9221 69.1467 86.2635 68.96C86.6048 68.7733 86.9941 68.68 87.4315 68.68C87.8741 68.68 88.2661 68.7733 88.6075 68.96C88.9541 69.1467 89.2235 69.4027 89.4155 69.728C89.6128 70.0533 89.7115 70.432 89.7115 70.864C89.7115 71.2853 89.6128 71.6613 89.4155 71.992C89.2235 72.3227 88.9541 72.584 88.6075 72.776C88.2661 72.9627 87.8741 73.056 87.4315 73.056ZM87.4315 72.2C87.6768 72.2 87.8955 72.1467 88.0875 72.04C88.2795 71.9333 88.4288 71.7787 88.5355 71.576C88.6475 71.3733 88.7035 71.136 88.7035 70.864C88.7035 70.5867 88.6475 70.3493 88.5355 70.152C88.4288 69.9493 88.2795 69.7947 88.0875 69.688C87.8955 69.5813 87.6795 69.528 87.4395 69.528C87.1941 69.528 86.9755 69.5813 86.7835 69.688C86.5968 69.7947 86.4475 69.9493 86.3355 70.152C86.2235 70.3493 86.1675 70.5867 86.1675 70.864C86.1675 71.136 86.2235 71.3733 86.3355 71.576C86.4475 71.7787 86.5968 71.9333 86.7835 72.04C86.9755 72.1467 87.1915 72.2 87.4315 72.2ZM93.0357 73.056C92.6891 73.056 92.3717 72.976 92.0837 72.816C91.8011 72.656 91.5744 72.416 91.4037 72.096C91.2384 71.7707 91.1557 71.36 91.1557 70.864C91.1557 70.3627 91.2357 69.952 91.3957 69.632C91.5611 69.312 91.7851 69.0747 92.0677 68.92C92.3504 68.76 92.6731 68.68 93.0357 68.68C93.4571 68.68 93.8277 68.7707 94.1477 68.952C94.4731 69.1333 94.7291 69.3867 94.9157 69.712C95.1077 70.0373 95.2037 70.4213 95.2037 70.864C95.2037 71.3067 95.1077 71.6933 94.9157 72.024C94.7291 72.3493 94.4731 72.6027 94.1477 72.784C93.8277 72.9653 93.4571 73.056 93.0357 73.056ZM90.6677 74.552V68.728H91.6197V69.736L91.5877 70.872L91.6677 72.008V74.552H90.6677ZM92.9237 72.2C93.1637 72.2 93.3771 72.1467 93.5637 72.04C93.7557 71.9333 93.9077 71.7787 94.0197 71.576C94.1317 71.3733 94.1877 71.136 94.1877 70.864C94.1877 70.5867 94.1317 70.3493 94.0197 70.152C93.9077 69.9493 93.7557 69.7947 93.5637 69.688C93.3771 69.5813 93.1637 69.528 92.9237 69.528C92.6837 69.528 92.4677 69.5813 92.2757 69.688C92.0837 69.7947 91.9317 69.9493 91.8197 70.152C91.7077 70.3493 91.6517 70.5867 91.6517 70.864C91.6517 71.136 91.7077 71.3733 91.8197 71.576C91.9317 71.7787 92.0837 71.9333 92.2757 72.04C92.4677 72.1467 92.6837 72.2 92.9237 72.2ZM98.1601 73.056C97.6854 73.056 97.2694 72.9627 96.9121 72.776C96.5601 72.584 96.2854 72.3227 96.0881 71.992C95.8961 71.6613 95.8001 71.2853 95.8001 70.864C95.8001 70.4373 95.8934 70.0613 96.0801 69.736C96.2721 69.4053 96.5334 69.1467 96.8641 68.96C97.2001 68.7733 97.5814 68.68 98.0081 68.68C98.4241 68.68 98.7948 68.7707 99.1201 68.952C99.4454 69.1333 99.7014 69.3893 99.8881 69.72C100.075 70.0507 100.168 70.44 100.168 70.888C100.168 70.9307 100.165 70.9787 100.16 71.032C100.16 71.0853 100.157 71.136 100.152 71.184H96.5921V70.52H99.6241L99.2321 70.728C99.2374 70.4827 99.1868 70.2667 99.0801 70.08C98.9734 69.8933 98.8268 69.7467 98.6401 69.64C98.4588 69.5333 98.2481 69.48 98.0081 69.48C97.7628 69.48 97.5468 69.5333 97.3601 69.64C97.1788 69.7467 97.0348 69.896 96.9281 70.088C96.8268 70.2747 96.7761 70.496 96.7761 70.752V70.912C96.7761 71.168 96.8348 71.3947 96.9521 71.592C97.0694 71.7893 97.2348 71.9413 97.4481 72.048C97.6614 72.1547 97.9068 72.208 98.1841 72.208C98.4241 72.208 98.6401 72.1707 98.8321 72.096C99.0241 72.0213 99.1948 71.904 99.3441 71.744L99.8801 72.36C99.6881 72.584 99.4454 72.7573 99.1521 72.88C98.8641 72.9973 98.5334 73.056 98.1601 73.056ZM101.129 73V68.728H102.081V69.904L101.969 69.56C102.097 69.272 102.297 69.0533 102.569 68.904C102.846 68.7547 103.19 68.68 103.601 68.68V69.632C103.558 69.6213 103.518 69.616 103.481 69.616C103.443 69.6107 103.406 69.608 103.369 69.608C102.99 69.608 102.689 69.72 102.465 69.944C102.241 70.1627 102.129 70.4907 102.129 70.928V73H101.129Z" fill="#F8F8F8"/>
<rect x="32.5" y="60.5" width="79" height="19" rx="9.5" stroke="#ECECEC"/>
<rect x="32.5" y="88.5" width="98" height="19" rx="9.5" fill="#F8F8F8"/>
<path d="M41.8915 97.976H44.6835V98.856H41.8915V97.976ZM41.9795 101H40.9395V95.4H45.0275V96.272H41.9795V101ZM45.8591 101V96.728H46.8111V97.904L46.6991 97.56C46.8271 97.272 47.0271 97.0533 47.2991 96.904C47.5765 96.7547 47.9205 96.68 48.3311 96.68V97.632C48.2885 97.6213 48.2485 97.616 48.2111 97.616C48.1738 97.6107 48.1365 97.608 48.0991 97.608C47.7205 97.608 47.4191 97.72 47.1951 97.944C46.9711 98.1627 46.8591 98.4907 46.8591 98.928V101H45.8591ZM51.0604 101.056C50.623 101.056 50.2337 100.963 49.8924 100.776C49.551 100.584 49.2817 100.323 49.0844 99.992C48.887 99.6613 48.7884 99.2853 48.7884 98.864C48.7884 98.4373 48.887 98.0613 49.0844 97.736C49.2817 97.4053 49.551 97.1467 49.8924 96.96C50.2337 96.7733 50.623 96.68 51.0604 96.68C51.503 96.68 51.895 96.7733 52.2364 96.96C52.583 97.1467 52.8524 97.4027 53.0444 97.728C53.2417 98.0533 53.3404 98.432 53.3404 98.864C53.3404 99.2853 53.2417 99.6613 53.0444 99.992C52.8524 100.323 52.583 100.584 52.2364 100.776C51.895 100.963 51.503 101.056 51.0604 101.056ZM51.0604 100.2C51.3057 100.2 51.5244 100.147 51.7164 100.04C51.9084 99.9333 52.0577 99.7787 52.1644 99.576C52.2764 99.3733 52.3324 99.136 52.3324 98.864C52.3324 98.5867 52.2764 98.3493 52.1644 98.152C52.0577 97.9493 51.9084 97.7947 51.7164 97.688C51.5244 97.5813 51.3084 97.528 51.0684 97.528C50.823 97.528 50.6044 97.5813 50.4124 97.688C50.2257 97.7947 50.0764 97.9493 49.9644 98.152C49.8524 98.3493 49.7964 98.5867 49.7964 98.864C49.7964 99.136 49.8524 99.3733 49.9644 99.576C50.0764 99.7787 50.2257 99.9333 50.4124 100.04C50.6044 100.147 50.8204 100.2 51.0604 100.2ZM56.7206 96.68C57.062 96.68 57.366 96.7467 57.6326 96.88C57.9046 97.0133 58.118 97.2187 58.2726 97.496C58.4273 97.768 58.5046 98.12 58.5046 98.552V101H57.5046V98.68C57.5046 98.3013 57.414 98.0187 57.2326 97.832C57.0566 97.6453 56.8086 97.552 56.4886 97.552C56.254 97.552 56.046 97.6 55.8646 97.696C55.6833 97.792 55.542 97.936 55.4406 98.128C55.3446 98.3147 55.2966 98.552 55.2966 98.84V101H54.2966V96.728H55.2486V97.88L55.0806 97.528C55.23 97.256 55.446 97.048 55.7286 96.904C56.0166 96.7547 56.3473 96.68 56.7206 96.68ZM61.3812 101.056C60.9119 101.056 60.5492 100.936 60.2932 100.696C60.0372 100.451 59.9092 100.091 59.9092 99.616V95.784H60.9092V99.592C60.9092 99.7947 60.9599 99.952 61.0612 100.064C61.1679 100.176 61.3145 100.232 61.5012 100.232C61.7252 100.232 61.9119 100.173 62.0612 100.056L62.3412 100.768C62.2239 100.864 62.0799 100.936 61.9092 100.984C61.7385 101.032 61.5625 101.056 61.3812 101.056ZM59.2052 97.56V96.76H62.0532V97.56H59.2052ZM65.0312 101.056C64.5565 101.056 64.1405 100.963 63.7832 100.776C63.4312 100.584 63.1565 100.323 62.9592 99.992C62.7672 99.6613 62.6712 99.2853 62.6712 98.864C62.6712 98.4373 62.7645 98.0613 62.9512 97.736C63.1432 97.4053 63.4045 97.1467 63.7352 96.96C64.0712 96.7733 64.4525 96.68 64.8792 96.68C65.2952 96.68 65.6659 96.7707 65.9912 96.952C66.3165 97.1333 66.5725 97.3893 66.7592 97.72C66.9459 98.0507 67.0392 98.44 67.0392 98.888C67.0392 98.9307 67.0365 98.9787 67.0312 99.032C67.0312 99.0853 67.0285 99.136 67.0232 99.184H63.4632V98.52H66.4952L66.1032 98.728C66.1085 98.4827 66.0579 98.2667 65.9512 98.08C65.8445 97.8933 65.6979 97.7467 65.5112 97.64C65.3299 97.5333 65.1192 97.48 64.8792 97.48C64.6339 97.48 64.4179 97.5333 64.2312 97.64C64.0499 97.7467 63.9059 97.896 63.7992 98.088C63.6979 98.2747 63.6472 98.496 63.6472 98.752V98.912C63.6472 99.168 63.7059 99.3947 63.8232 99.592C63.9405 99.7893 64.1059 99.9413 64.3192 100.048C64.5325 100.155 64.7779 100.208 65.0552 100.208C65.2952 100.208 65.5112 100.171 65.7032 100.096C65.8952 100.021 66.0659 99.904 66.2152 99.744L66.7512 100.36C66.5592 100.584 66.3165 100.757 66.0232 100.88C65.7352 100.997 65.4045 101.056 65.0312 101.056ZM70.4238 96.68C70.7651 96.68 71.0691 96.7467 71.3358 96.88C71.6078 97.0133 71.8211 97.2187 71.9758 97.496C72.1304 97.768 72.2078 98.12 72.2078 98.552V101H71.2078V98.68C71.2078 98.3013 71.1171 98.0187 70.9358 97.832C70.7598 97.6453 70.5118 97.552 70.1918 97.552C69.9571 97.552 69.7491 97.6 69.5678 97.696C69.3864 97.792 69.2451 97.936 69.1438 98.128C69.0478 98.3147 68.9998 98.552 68.9998 98.84V101H67.9998V96.728H68.9518V97.88L68.7838 97.528C68.9331 97.256 69.1491 97.048 69.4318 96.904C69.7198 96.7547 70.0504 96.68 70.4238 96.68ZM75.2921 101.056C74.8815 101.056 74.5108 100.965 74.1801 100.784C73.8548 100.597 73.5988 100.341 73.4121 100.016C73.2255 99.6907 73.1321 99.3067 73.1321 98.864C73.1321 98.4213 73.2255 98.0373 73.4121 97.712C73.5988 97.3867 73.8548 97.1333 74.1801 96.952C74.5108 96.7707 74.8815 96.68 75.2921 96.68C75.6495 96.68 75.9695 96.76 76.2521 96.92C76.5348 97.0747 76.7588 97.312 76.9241 97.632C77.0895 97.952 77.1721 98.3627 77.1721 98.864C77.1721 99.36 77.0921 99.7707 76.9321 100.096C76.7721 100.416 76.5508 100.656 76.2681 100.816C75.9855 100.976 75.6601 101.056 75.2921 101.056ZM75.4121 100.2C75.6521 100.2 75.8655 100.147 76.0521 100.04C76.2441 99.9333 76.3961 99.7787 76.5081 99.576C76.6255 99.3733 76.6841 99.136 76.6841 98.864C76.6841 98.5867 76.6255 98.3493 76.5081 98.152C76.3961 97.9493 76.2441 97.7947 76.0521 97.688C75.8655 97.5813 75.6521 97.528 75.4121 97.528C75.1721 97.528 74.9561 97.5813 74.7641 97.688C74.5775 97.7947 74.4255 97.9493 74.3081 98.152C74.1961 98.3493 74.1401 98.5867 74.1401 98.864C74.1401 99.136 74.1961 99.3733 74.3081 99.576C74.4255 99.7787 74.5775 99.9333 74.7641 100.04C74.9561 100.147 75.1721 100.2 75.4121 100.2ZM76.7081 101V99.992L76.7481 98.856L76.6681 97.72V95.064H77.6601V101H76.7081ZM81.2833 101V95.4H83.7313C84.3393 95.4 84.8726 95.5173 85.3313 95.752C85.7899 95.9867 86.1473 96.312 86.4033 96.728C86.6593 97.144 86.7873 97.6347 86.7873 98.2C86.7873 98.76 86.6593 99.2507 86.4033 99.672C86.1473 100.088 85.7899 100.413 85.3313 100.648C84.8726 100.883 84.3393 101 83.7313 101H81.2833ZM82.3233 100.12H83.6833C84.1046 100.12 84.4673 100.04 84.7713 99.88C85.0806 99.72 85.3179 99.496 85.4833 99.208C85.6539 98.92 85.7393 98.584 85.7393 98.2C85.7393 97.8107 85.6539 97.4747 85.4833 97.192C85.3179 96.904 85.0806 96.68 84.7713 96.52C84.4673 96.36 84.1046 96.28 83.6833 96.28H82.3233V100.12ZM89.8046 101.056C89.33 101.056 88.914 100.963 88.5566 100.776C88.2046 100.584 87.93 100.323 87.7326 99.992C87.5406 99.6613 87.4446 99.2853 87.4446 98.864C87.4446 98.4373 87.538 98.0613 87.7246 97.736C87.9166 97.4053 88.178 97.1467 88.5086 96.96C88.8446 96.7733 89.226 96.68 89.6526 96.68C90.0686 96.68 90.4393 96.7707 90.7646 96.952C91.09 97.1333 91.346 97.3893 91.5326 97.72C91.7193 98.0507 91.8126 98.44 91.8126 98.888C91.8126 98.9307 91.81 98.9787 91.8046 99.032C91.8046 99.0853 91.802 99.136 91.7966 99.184H88.2366V98.52H91.2686L90.8766 98.728C90.882 98.4827 90.8313 98.2667 90.7246 98.08C90.618 97.8933 90.4713 97.7467 90.2846 97.64C90.1033 97.5333 89.8926 97.48 89.6526 97.48C89.4073 97.48 89.1913 97.5333 89.0046 97.64C88.8233 97.7467 88.6793 97.896 88.5726 98.088C88.4713 98.2747 88.4206 98.496 88.4206 98.752V98.912C88.4206 99.168 88.4793 99.3947 88.5966 99.592C88.714 99.7893 88.8793 99.9413 89.0926 100.048C89.306 100.155 89.5513 100.208 89.8286 100.208C90.0686 100.208 90.2846 100.171 90.4766 100.096C90.6686 100.021 90.8393 99.904 90.9886 99.744L91.5246 100.36C91.3326 100.584 91.09 100.757 90.7966 100.88C90.5086 100.997 90.178 101.056 89.8046 101.056ZM93.8311 101L91.9991 96.728H93.0391L94.6151 100.496H94.1031L95.7351 96.728H96.6951L94.8631 101H93.8311ZM99.2109 101.056C98.7362 101.056 98.3202 100.963 97.9629 100.776C97.6109 100.584 97.3362 100.323 97.1389 99.992C96.9469 99.6613 96.8509 99.2853 96.8509 98.864C96.8509 98.4373 96.9442 98.0613 97.1309 97.736C97.3229 97.4053 97.5842 97.1467 97.9149 96.96C98.2509 96.7733 98.6322 96.68 99.0589 96.68C99.4749 96.68 99.8455 96.7707 100.171 96.952C100.496 97.1333 100.752 97.3893 100.939 97.72C101.126 98.0507 101.219 98.44 101.219 98.888C101.219 98.9307 101.216 98.9787 101.211 99.032C101.211 99.0853 101.208 99.136 101.203 99.184H97.6429V98.52H100.675L100.283 98.728C100.288 98.4827 100.238 98.2667 100.131 98.08C100.024 97.8933 99.8775 97.7467 99.6909 97.64C99.5095 97.5333 99.2989 97.48 99.0589 97.48C98.8135 97.48 98.5975 97.5333 98.4109 97.64C98.2295 97.7467 98.0855 97.896 97.9789 98.088C97.8775 98.2747 97.8269 98.496 97.8269 98.752V98.912C97.8269 99.168 97.8855 99.3947 98.0029 99.592C98.1202 99.7893 98.2855 99.9413 98.4989 100.048C98.7122 100.155 98.9575 100.208 99.2349 100.208C99.4749 100.208 99.6909 100.171 99.8829 100.096C100.075 100.021 100.246 99.904 100.395 99.744L100.931 100.36C100.739 100.584 100.496 100.757 100.203 100.88C99.9149 100.997 99.5842 101.056 99.2109 101.056ZM102.179 101V95.064H103.179V101H102.179ZM106.412 101.056C105.975 101.056 105.585 100.963 105.244 100.776C104.903 100.584 104.633 100.323 104.436 99.992C104.239 99.6613 104.14 99.2853 104.14 98.864C104.14 98.4373 104.239 98.0613 104.436 97.736C104.633 97.4053 104.903 97.1467 105.244 96.96C105.585 96.7733 105.975 96.68 106.412 96.68C106.855 96.68 107.247 96.7733 107.588 96.96C107.935 97.1467 108.204 97.4027 108.396 97.728C108.593 98.0533 108.692 98.432 108.692 98.864C108.692 99.2853 108.593 99.6613 108.396 99.992C108.204 100.323 107.935 100.584 107.588 100.776C107.247 100.963 106.855 101.056 106.412 101.056ZM106.412 100.2C106.657 100.2 106.876 100.147 107.068 100.04C107.26 99.9333 107.409 99.7787 107.516 99.576C107.628 99.3733 107.684 99.136 107.684 98.864C107.684 98.5867 107.628 98.3493 107.516 98.152C107.409 97.9493 107.26 97.7947 107.068 97.688C106.876 97.5813 106.66 97.528 106.42 97.528C106.175 97.528 105.956 97.5813 105.764 97.688C105.577 97.7947 105.428 97.9493 105.316 98.152C105.204 98.3493 105.148 98.5867 105.148 98.864C105.148 99.136 105.204 99.3733 105.316 99.576C105.428 99.7787 105.577 99.9333 105.764 100.04C105.956 100.147 106.172 100.2 106.412 100.2ZM112.016 101.056C111.67 101.056 111.352 100.976 111.064 100.816C110.782 100.656 110.555 100.416 110.384 100.096C110.219 99.7707 110.136 99.36 110.136 98.864C110.136 98.3627 110.216 97.952 110.376 97.632C110.542 97.312 110.766 97.0747 111.048 96.92C111.331 96.76 111.654 96.68 112.016 96.68C112.438 96.68 112.808 96.7707 113.128 96.952C113.454 97.1333 113.71 97.3867 113.896 97.712C114.088 98.0373 114.184 98.4213 114.184 98.864C114.184 99.3067 114.088 99.6933 113.896 100.024C113.71 100.349 113.454 100.603 113.128 100.784C112.808 100.965 112.438 101.056 112.016 101.056ZM109.648 102.552V96.728H110.6V97.736L110.568 98.872L110.648 100.008V102.552H109.648ZM111.904 100.2C112.144 100.2 112.358 100.147 112.544 100.04C112.736 99.9333 112.888 99.7787 113 99.576C113.112 99.3733 113.168 99.136 113.168 98.864C113.168 98.5867 113.112 98.3493 113 98.152C112.888 97.9493 112.736 97.7947 112.544 97.688C112.358 97.5813 112.144 97.528 111.904 97.528C111.664 97.528 111.448 97.5813 111.256 97.688C111.064 97.7947 110.912 97.9493 110.8 98.152C110.688 98.3493 110.632 98.5867 110.632 98.864C110.632 99.136 110.688 99.3733 110.8 99.576C110.912 99.7787 111.064 99.9333 111.256 100.04C111.448 100.147 111.664 100.2 111.904 100.2ZM117.141 101.056C116.666 101.056 116.25 100.963 115.893 100.776C115.541 100.584 115.266 100.323 115.069 99.992C114.877 99.6613 114.781 99.2853 114.781 98.864C114.781 98.4373 114.874 98.0613 115.061 97.736C115.253 97.4053 115.514 97.1467 115.845 96.96C116.181 96.7733 116.562 96.68 116.989 96.68C117.405 96.68 117.775 96.7707 118.101 96.952C118.426 97.1333 118.682 97.3893 118.869 97.72C119.055 98.0507 119.149 98.44 119.149 98.888C119.149 98.9307 119.146 98.9787 119.141 99.032C119.141 99.0853 119.138 99.136 119.133 99.184H115.573V98.52H118.605L118.213 98.728C118.218 98.4827 118.167 98.2667 118.061 98.08C117.954 97.8933 117.807 97.7467 117.621 97.64C117.439 97.5333 117.229 97.48 116.989 97.48C116.743 97.48 116.527 97.5333 116.341 97.64C116.159 97.7467 116.015 97.896 115.909 98.088C115.807 98.2747 115.757 98.496 115.757 98.752V98.912C115.757 99.168 115.815 99.3947 115.933 99.592C116.05 99.7893 116.215 99.9413 116.429 100.048C116.642 100.155 116.887 100.208 117.165 100.208C117.405 100.208 117.621 100.171 117.813 100.096C118.005 100.021 118.175 99.904 118.325 99.744L118.861 100.36C118.669 100.584 118.426 100.757 118.133 100.88C117.845 100.997 117.514 101.056 117.141 101.056ZM120.109 101V96.728H121.061V97.904L120.949 97.56C121.077 97.272 121.277 97.0533 121.549 96.904C121.826 96.7547 122.17 96.68 122.581 96.68V97.632C122.538 97.6213 122.498 97.616 122.461 97.616C122.424 97.6107 122.386 97.608 122.349 97.608C121.97 97.608 121.669 97.72 121.445 97.944C121.221 98.1627 121.109 98.4907 121.109 98.928V101H120.109Z" fill="#F8F8F8"/>
<rect x="32.5" y="88.5" width="98" height="19" rx="9.5" stroke="#ECECEC"/>
<rect x="32.5" y="116.5" width="82" height="19" rx="9.5" fill="#F8F8F8"/>
<path d="M43.3944 129.08C42.6264 129.08 42.0237 128.864 41.5864 128.432C41.1544 128 40.9384 127.376 40.9384 126.56V123.4H41.9784V126.52C41.9784 127.096 42.101 127.515 42.3464 127.776C42.597 128.037 42.949 128.168 43.4024 128.168C43.8557 128.168 44.205 128.037 44.4504 127.776C44.6957 127.515 44.8184 127.096 44.8184 126.52V123.4H45.8424V126.56C45.8424 127.376 45.6237 128 45.1864 128.432C44.7544 128.864 44.157 129.08 43.3944 129.08ZM49.6269 124.68C49.9682 124.68 50.2722 124.747 50.5389 124.88C50.8109 125.013 51.0242 125.219 51.1789 125.496C51.3335 125.768 51.4109 126.12 51.4109 126.552V129H50.4109V126.68C50.4109 126.301 50.3202 126.019 50.1389 125.832C49.9629 125.645 49.7149 125.552 49.3949 125.552C49.1602 125.552 48.9522 125.6 48.7709 125.696C48.5895 125.792 48.4482 125.936 48.3469 126.128C48.2509 126.315 48.2029 126.552 48.2029 126.84V129H47.2029V124.728H48.1549V125.88L47.9869 125.528C48.1362 125.256 48.3522 125.048 48.6349 124.904C48.9229 124.755 49.2535 124.68 49.6269 124.68ZM52.6794 129V124.728H53.6794V129H52.6794ZM53.1834 124.024C52.9968 124.024 52.8421 123.965 52.7194 123.848C52.6021 123.731 52.5434 123.589 52.5434 123.424C52.5434 123.253 52.6021 123.112 52.7194 123C52.8421 122.883 52.9968 122.824 53.1834 122.824C53.3701 122.824 53.5221 122.88 53.6394 122.992C53.7621 123.099 53.8234 123.235 53.8234 123.4C53.8234 123.576 53.7648 123.725 53.6474 123.848C53.5301 123.965 53.3754 124.024 53.1834 124.024ZM56.5999 129.056C56.1306 129.056 55.7679 128.936 55.5119 128.696C55.2559 128.451 55.1279 128.091 55.1279 127.616V123.784H56.1279V127.592C56.1279 127.795 56.1786 127.952 56.2799 128.064C56.3866 128.176 56.5333 128.232 56.7199 128.232C56.9439 128.232 57.1306 128.173 57.2799 128.056L57.5599 128.768C57.4426 128.864 57.2986 128.936 57.1279 128.984C56.9573 129.032 56.7813 129.056 56.5999 129.056ZM54.4239 125.56V124.76H57.2719V125.56H54.4239ZM58.6564 130.608C58.4484 130.608 58.2404 130.573 58.0324 130.504C57.8244 130.435 57.6511 130.339 57.5124 130.216L57.9124 129.48C58.0138 129.571 58.1284 129.643 58.2564 129.696C58.3844 129.749 58.5151 129.776 58.6484 129.776C58.8298 129.776 58.9764 129.731 59.0884 129.64C59.2004 129.549 59.3044 129.397 59.4004 129.184L59.6484 128.624L59.7284 128.504L61.3444 124.728H62.3044L60.3044 129.344C60.1711 129.664 60.0218 129.917 59.8564 130.104C59.6964 130.291 59.5151 130.421 59.3124 130.496C59.1151 130.571 58.8964 130.608 58.6564 130.608ZM59.5364 129.152L57.6084 124.728H58.6484L60.2164 128.416L59.5364 129.152ZM65.2364 129V123.4H67.6844C68.2924 123.4 68.8257 123.517 69.2844 123.752C69.743 123.987 70.1004 124.312 70.3564 124.728C70.6124 125.144 70.7404 125.635 70.7404 126.2C70.7404 126.76 70.6124 127.251 70.3564 127.672C70.1004 128.088 69.743 128.413 69.2844 128.648C68.8257 128.883 68.2924 129 67.6844 129H65.2364ZM66.2764 128.12H67.6364C68.0577 128.12 68.4204 128.04 68.7244 127.88C69.0337 127.72 69.271 127.496 69.4364 127.208C69.607 126.92 69.6924 126.584 69.6924 126.2C69.6924 125.811 69.607 125.475 69.4364 125.192C69.271 124.904 69.0337 124.68 68.7244 124.52C68.4204 124.36 68.0577 124.28 67.6364 124.28H66.2764V128.12ZM73.7578 129.056C73.2831 129.056 72.8671 128.963 72.5098 128.776C72.1578 128.584 71.8831 128.323 71.6858 127.992C71.4938 127.661 71.3978 127.285 71.3978 126.864C71.3978 126.437 71.4911 126.061 71.6778 125.736C71.8698 125.405 72.1311 125.147 72.4618 124.96C72.7978 124.773 73.1791 124.68 73.6058 124.68C74.0218 124.68 74.3924 124.771 74.7178 124.952C75.0431 125.133 75.2991 125.389 75.4858 125.72C75.6724 126.051 75.7658 126.44 75.7658 126.888C75.7658 126.931 75.7631 126.979 75.7578 127.032C75.7578 127.085 75.7551 127.136 75.7498 127.184H72.1898V126.52H75.2218L74.8298 126.728C74.8351 126.483 74.7844 126.267 74.6778 126.08C74.5711 125.893 74.4244 125.747 74.2378 125.64C74.0564 125.533 73.8458 125.48 73.6058 125.48C73.3604 125.48 73.1444 125.533 72.9578 125.64C72.7764 125.747 72.6324 125.896 72.5258 126.088C72.4244 126.275 72.3738 126.496 72.3738 126.752V126.912C72.3738 127.168 72.4324 127.395 72.5498 127.592C72.6671 127.789 72.8324 127.941 73.0458 128.048C73.2591 128.155 73.5044 128.208 73.7818 128.208C74.0218 128.208 74.2378 128.171 74.4298 128.096C74.6218 128.021 74.7924 127.904 74.9418 127.744L75.4778 128.36C75.2858 128.584 75.0431 128.757 74.7498 128.88C74.4618 128.997 74.1311 129.056 73.7578 129.056ZM77.7842 129L75.9522 124.728H76.9922L78.5682 128.496H78.0562L79.6882 124.728H80.6482L78.8162 129H77.7842ZM83.164 129.056C82.6893 129.056 82.2733 128.963 81.916 128.776C81.564 128.584 81.2893 128.323 81.092 127.992C80.9 127.661 80.804 127.285 80.804 126.864C80.804 126.437 80.8973 126.061 81.084 125.736C81.276 125.405 81.5373 125.147 81.868 124.96C82.204 124.773 82.5853 124.68 83.012 124.68C83.428 124.68 83.7987 124.771 84.124 124.952C84.4493 125.133 84.7053 125.389 84.892 125.72C85.0787 126.051 85.172 126.44 85.172 126.888C85.172 126.931 85.1693 126.979 85.164 127.032C85.164 127.085 85.1613 127.136 85.156 127.184H81.596V126.52H84.628L84.236 126.728C84.2413 126.483 84.1907 126.267 84.084 126.08C83.9773 125.893 83.8307 125.747 83.644 125.64C83.4627 125.533 83.252 125.48 83.012 125.48C82.7667 125.48 82.5507 125.533 82.364 125.64C82.1827 125.747 82.0387 125.896 81.932 126.088C81.8307 126.275 81.78 126.496 81.78 126.752V126.912C81.78 127.168 81.8387 127.395 81.956 127.592C82.0733 127.789 82.2387 127.941 82.452 128.048C82.6653 128.155 82.9107 128.208 83.188 128.208C83.428 128.208 83.644 128.171 83.836 128.096C84.028 128.021 84.1987 127.904 84.348 127.744L84.884 128.36C84.692 128.584 84.4493 128.757 84.156 128.88C83.868 128.997 83.5373 129.056 83.164 129.056ZM86.1326 129V123.064H87.1326V129H86.1326ZM90.3651 129.056C89.9277 129.056 89.5384 128.963 89.1971 128.776C88.8557 128.584 88.5864 128.323 88.3891 127.992C88.1917 127.661 88.0931 127.285 88.0931 126.864C88.0931 126.437 88.1917 126.061 88.3891 125.736C88.5864 125.405 88.8557 125.147 89.1971 124.96C89.5384 124.773 89.9277 124.68 90.3651 124.68C90.8077 124.68 91.1997 124.773 91.5411 124.96C91.8877 125.147 92.1571 125.403 92.3491 125.728C92.5464 126.053 92.6451 126.432 92.6451 126.864C92.6451 127.285 92.5464 127.661 92.3491 127.992C92.1571 128.323 91.8877 128.584 91.5411 128.776C91.1997 128.963 90.8077 129.056 90.3651 129.056ZM90.3651 128.2C90.6104 128.2 90.8291 128.147 91.0211 128.04C91.2131 127.933 91.3624 127.779 91.4691 127.576C91.5811 127.373 91.6371 127.136 91.6371 126.864C91.6371 126.587 91.5811 126.349 91.4691 126.152C91.3624 125.949 91.2131 125.795 91.0211 125.688C90.8291 125.581 90.6131 125.528 90.3731 125.528C90.1277 125.528 89.9091 125.581 89.7171 125.688C89.5304 125.795 89.3811 125.949 89.2691 126.152C89.1571 126.349 89.1011 126.587 89.1011 126.864C89.1011 127.136 89.1571 127.373 89.2691 127.576C89.3811 127.779 89.5304 127.933 89.7171 128.04C89.9091 128.147 90.1251 128.2 90.3651 128.2ZM95.9693 129.056C95.6226 129.056 95.3053 128.976 95.0173 128.816C94.7346 128.656 94.508 128.416 94.3373 128.096C94.172 127.771 94.0893 127.36 94.0893 126.864C94.0893 126.363 94.1693 125.952 94.3293 125.632C94.4946 125.312 94.7186 125.075 95.0013 124.92C95.284 124.76 95.6066 124.68 95.9693 124.68C96.3906 124.68 96.7613 124.771 97.0813 124.952C97.4066 125.133 97.6626 125.387 97.8493 125.712C98.0413 126.037 98.1373 126.421 98.1373 126.864C98.1373 127.307 98.0413 127.693 97.8493 128.024C97.6626 128.349 97.4066 128.603 97.0813 128.784C96.7613 128.965 96.3906 129.056 95.9693 129.056ZM93.6013 130.552V124.728H94.5533V125.736L94.5213 126.872L94.6013 128.008V130.552H93.6013ZM95.8573 128.2C96.0973 128.2 96.3106 128.147 96.4973 128.04C96.6893 127.933 96.8413 127.779 96.9533 127.576C97.0653 127.373 97.1213 127.136 97.1213 126.864C97.1213 126.587 97.0653 126.349 96.9533 126.152C96.8413 125.949 96.6893 125.795 96.4973 125.688C96.3106 125.581 96.0973 125.528 95.8573 125.528C95.6173 125.528 95.4013 125.581 95.2093 125.688C95.0173 125.795 94.8653 125.949 94.7533 126.152C94.6413 126.349 94.5853 126.587 94.5853 126.864C94.5853 127.136 94.6413 127.373 94.7533 127.576C94.8653 127.779 95.0173 127.933 95.2093 128.04C95.4013 128.147 95.6173 128.2 95.8573 128.2ZM101.094 129.056C100.619 129.056 100.203 128.963 99.8457 128.776C99.4937 128.584 99.219 128.323 99.0217 127.992C98.8297 127.661 98.7337 127.285 98.7337 126.864C98.7337 126.437 98.827 126.061 99.0137 125.736C99.2057 125.405 99.467 125.147 99.7977 124.96C100.134 124.773 100.515 124.68 100.942 124.68C101.358 124.68 101.728 124.771 102.054 124.952C102.379 125.133 102.635 125.389 102.822 125.72C103.008 126.051 103.102 126.44 103.102 126.888C103.102 126.931 103.099 126.979 103.094 127.032C103.094 127.085 103.091 127.136 103.086 127.184H99.5257V126.52H102.558L102.166 126.728C102.171 126.483 102.12 126.267 102.014 126.08C101.907 125.893 101.76 125.747 101.574 125.64C101.392 125.533 101.182 125.48 100.942 125.48C100.696 125.48 100.48 125.533 100.294 125.64C100.112 125.747 99.9684 125.896 99.8617 126.088C99.7604 126.275 99.7097 126.496 99.7097 126.752V126.912C99.7097 127.168 99.7684 127.395 99.8857 127.592C100.003 127.789 100.168 127.941 100.382 128.048C100.595 128.155 100.84 128.208 101.118 128.208C101.358 128.208 101.574 128.171 101.766 128.096C101.958 128.021 102.128 127.904 102.278 127.744L102.814 128.36C102.622 128.584 102.379 128.757 102.086 128.88C101.798 128.997 101.467 129.056 101.094 129.056ZM104.062 129V124.728H105.014V125.904L104.902 125.56C105.03 125.272 105.23 125.053 105.502 124.904C105.78 124.755 106.124 124.68 106.534 124.68V125.632C106.492 125.621 106.452 125.616 106.414 125.616C106.377 125.611 106.34 125.608 106.302 125.608C105.924 125.608 105.622 125.72 105.398 125.944C105.174 126.163 105.062 126.491 105.062 126.928V129H104.062Z" fill="#F8F8F8"/>
<rect x="32.5" y="116.5" width="82" height="19" rx="9.5" stroke="#ECECEC"/>
<rect x="188.5" y="88.5" width="28" height="19" rx="9.5" fill="#F8F8F8"/>
<path d="M199.552 101.08C199.114 101.08 198.712 101.008 198.344 100.864C197.976 100.72 197.656 100.52 197.384 100.264C197.112 100.003 196.901 99.6987 196.752 99.352C196.602 99 196.528 98.616 196.528 98.2C196.528 97.784 196.602 97.4027 196.752 97.056C196.901 96.704 197.112 96.4 197.384 96.144C197.656 95.8827 197.976 95.68 198.344 95.536C198.712 95.392 199.112 95.32 199.544 95.32C199.981 95.32 200.381 95.392 200.744 95.536C201.112 95.68 201.432 95.88 201.704 96.136C201.976 96.392 202.186 96.696 202.336 97.048C202.485 97.4 202.56 97.784 202.56 98.2C202.56 98.616 202.485 99 202.336 99.352C202.186 99.704 201.976 100.008 201.704 100.264C201.432 100.52 201.112 100.72 200.744 100.864C200.381 101.008 199.984 101.08 199.552 101.08ZM201.376 102.224C201.178 102.224 200.986 102.2 200.8 102.152C200.618 102.109 200.437 102.035 200.256 101.928C200.08 101.827 199.896 101.691 199.704 101.52C199.512 101.355 199.301 101.149 199.072 100.904L200.176 100.616C200.325 100.813 200.466 100.971 200.6 101.088C200.738 101.211 200.872 101.299 201 101.352C201.128 101.405 201.261 101.432 201.4 101.432C201.768 101.432 202.088 101.283 202.36 100.984L202.84 101.56C202.466 102.003 201.978 102.224 201.376 102.224ZM199.544 100.168C199.826 100.168 200.088 100.12 200.328 100.024C200.568 99.928 200.776 99.792 200.952 99.616C201.128 99.4347 201.264 99.224 201.36 98.984C201.461 98.744 201.512 98.4827 201.512 98.2C201.512 97.912 201.461 97.6507 201.36 97.416C201.264 97.176 201.128 96.968 200.952 96.792C200.776 96.6107 200.568 96.472 200.328 96.376C200.088 96.28 199.826 96.232 199.544 96.232C199.261 96.232 199 96.28 198.76 96.376C198.52 96.472 198.312 96.6107 198.136 96.792C197.96 96.968 197.821 97.176 197.72 97.416C197.624 97.6507 197.576 97.912 197.576 98.2C197.576 98.4827 197.624 98.744 197.72 98.984C197.821 99.224 197.96 99.4347 198.136 99.616C198.312 99.792 198.52 99.928 198.76 100.024C199 100.12 199.261 100.168 199.544 100.168ZM202.792 101L205.312 95.4H206.336L208.864 101H207.776L205.608 95.952H206.024L203.864 101H202.792ZM203.952 99.704L204.232 98.888H207.256L207.536 99.704H203.952Z" fill="#9DA0A4"/>
<rect x="188.5" y="88.5" width="28" height="19" rx="9.5" stroke="#ECECEC"/>
<rect x="119.5" y="116.5" width="57" height="19" rx="9.5" fill="#F8F8F8"/>
<path d="M129.079 129V124.28H127.223V123.4H131.975V124.28H130.119V129H129.079ZM134.23 129.056C133.756 129.056 133.34 128.963 132.982 128.776C132.63 128.584 132.356 128.323 132.158 127.992C131.966 127.661 131.87 127.285 131.87 126.864C131.87 126.437 131.964 126.061 132.15 125.736C132.342 125.405 132.604 125.147 132.934 124.96C133.27 124.773 133.652 124.68 134.078 124.68C134.494 124.68 134.865 124.771 135.19 124.952C135.516 125.133 135.772 125.389 135.958 125.72C136.145 126.051 136.238 126.44 136.238 126.888C136.238 126.931 136.236 126.979 136.23 127.032C136.23 127.085 136.228 127.136 136.222 127.184H132.662V126.52H135.694L135.302 126.728C135.308 126.483 135.257 126.267 135.15 126.08C135.044 125.893 134.897 125.747 134.71 125.64C134.529 125.533 134.318 125.48 134.078 125.48C133.833 125.48 133.617 125.533 133.43 125.64C133.249 125.747 133.105 125.896 132.998 126.088C132.897 126.275 132.846 126.496 132.846 126.752V126.912C132.846 127.168 132.905 127.395 133.022 127.592C133.14 127.789 133.305 127.941 133.518 128.048C133.732 128.155 133.977 128.208 134.254 128.208C134.494 128.208 134.71 128.171 134.902 128.096C135.094 128.021 135.265 127.904 135.414 127.744L135.95 128.36C135.758 128.584 135.516 128.757 135.222 128.88C134.934 128.997 134.604 129.056 134.23 129.056ZM139.159 129.056C138.711 129.056 138.311 128.963 137.959 128.776C137.612 128.584 137.34 128.323 137.143 127.992C136.946 127.661 136.847 127.285 136.847 126.864C136.847 126.437 136.946 126.061 137.143 125.736C137.34 125.405 137.612 125.147 137.959 124.96C138.311 124.773 138.711 124.68 139.159 124.68C139.575 124.68 139.94 124.765 140.255 124.936C140.575 125.101 140.818 125.347 140.983 125.672L140.215 126.12C140.087 125.917 139.93 125.768 139.743 125.672C139.562 125.576 139.364 125.528 139.151 125.528C138.906 125.528 138.684 125.581 138.487 125.688C138.29 125.795 138.135 125.949 138.023 126.152C137.911 126.349 137.855 126.587 137.855 126.864C137.855 127.141 137.911 127.381 138.023 127.584C138.135 127.781 138.29 127.933 138.487 128.04C138.684 128.147 138.906 128.2 139.151 128.2C139.364 128.2 139.562 128.152 139.743 128.056C139.93 127.96 140.087 127.811 140.215 127.608L140.983 128.056C140.818 128.376 140.575 128.624 140.255 128.8C139.94 128.971 139.575 129.056 139.159 129.056ZM144.232 124.68C144.574 124.68 144.878 124.747 145.144 124.88C145.416 125.013 145.63 125.219 145.784 125.496C145.939 125.768 146.016 126.12 146.016 126.552V129H145.016V126.68C145.016 126.301 144.926 126.019 144.744 125.832C144.568 125.645 144.32 125.552 144 125.552C143.766 125.552 143.558 125.6 143.376 125.696C143.195 125.792 143.054 125.936 142.952 126.128C142.856 126.315 142.808 126.552 142.808 126.84V129H141.808V123.064H142.808V125.88L142.592 125.528C142.742 125.256 142.958 125.048 143.24 124.904C143.528 124.755 143.859 124.68 144.232 124.68ZM149.592 129V123.4H150.632V128.12H153.56V129H149.592ZM156.254 129.056C155.779 129.056 155.363 128.963 155.006 128.776C154.654 128.584 154.379 128.323 154.182 127.992C153.99 127.661 153.894 127.285 153.894 126.864C153.894 126.437 153.987 126.061 154.174 125.736C154.366 125.405 154.627 125.147 154.958 124.96C155.294 124.773 155.675 124.68 156.102 124.68C156.518 124.68 156.889 124.771 157.214 124.952C157.539 125.133 157.795 125.389 157.982 125.72C158.169 126.051 158.262 126.44 158.262 126.888C158.262 126.931 158.259 126.979 158.254 127.032C158.254 127.085 158.251 127.136 158.246 127.184H154.686V126.52H157.718L157.326 126.728C157.331 126.483 157.281 126.267 157.174 126.08C157.067 125.893 156.921 125.747 156.734 125.64C156.553 125.533 156.342 125.48 156.102 125.48C155.857 125.48 155.641 125.533 155.454 125.64C155.273 125.747 155.129 125.896 155.022 126.088C154.921 126.275 154.87 126.496 154.87 126.752V126.912C154.87 127.168 154.929 127.395 155.046 127.592C155.163 127.789 155.329 127.941 155.542 128.048C155.755 128.155 156.001 128.208 156.278 128.208C156.518 128.208 156.734 128.171 156.926 128.096C157.118 128.021 157.289 127.904 157.438 127.744L157.974 128.36C157.782 128.584 157.539 128.757 157.246 128.88C156.958 128.997 156.627 129.056 156.254 129.056ZM161.737 129V128.136L161.681 127.952V126.44C161.681 126.147 161.593 125.92 161.417 125.76C161.241 125.595 160.975 125.512 160.617 125.512C160.377 125.512 160.14 125.549 159.905 125.624C159.676 125.699 159.481 125.803 159.321 125.936L158.929 125.208C159.159 125.032 159.431 124.901 159.745 124.816C160.065 124.725 160.396 124.68 160.737 124.68C161.356 124.68 161.833 124.829 162.169 125.128C162.511 125.421 162.681 125.877 162.681 126.496V129H161.737ZM160.393 129.056C160.073 129.056 159.793 129.003 159.553 128.896C159.313 128.784 159.127 128.632 158.993 128.44C158.865 128.243 158.801 128.021 158.801 127.776C158.801 127.536 158.857 127.32 158.969 127.128C159.087 126.936 159.276 126.784 159.537 126.672C159.799 126.56 160.145 126.504 160.577 126.504H161.817V127.168H160.649C160.308 127.168 160.079 127.224 159.961 127.336C159.844 127.443 159.785 127.576 159.785 127.736C159.785 127.917 159.857 128.061 160.001 128.168C160.145 128.275 160.345 128.328 160.601 128.328C160.847 128.328 161.065 128.272 161.257 128.16C161.455 128.048 161.596 127.883 161.681 127.664L161.849 128.264C161.753 128.515 161.58 128.709 161.329 128.848C161.084 128.987 160.772 129.056 160.393 129.056ZM165.78 129.056C165.37 129.056 164.999 128.965 164.668 128.784C164.343 128.597 164.087 128.341 163.9 128.016C163.714 127.691 163.62 127.307 163.62 126.864C163.62 126.421 163.714 126.037 163.9 125.712C164.087 125.387 164.343 125.133 164.668 124.952C164.999 124.771 165.37 124.68 165.78 124.68C166.138 124.68 166.458 124.76 166.74 124.92C167.023 125.075 167.247 125.312 167.412 125.632C167.578 125.952 167.66 126.363 167.66 126.864C167.66 127.36 167.58 127.771 167.42 128.096C167.26 128.416 167.039 128.656 166.756 128.816C166.474 128.976 166.148 129.056 165.78 129.056ZM165.9 128.2C166.14 128.2 166.354 128.147 166.54 128.04C166.732 127.933 166.884 127.779 166.996 127.576C167.114 127.373 167.172 127.136 167.172 126.864C167.172 126.587 167.114 126.349 166.996 126.152C166.884 125.949 166.732 125.795 166.54 125.688C166.354 125.581 166.14 125.528 165.9 125.528C165.66 125.528 165.444 125.581 165.252 125.688C165.066 125.795 164.914 125.949 164.796 126.152C164.684 126.349 164.628 126.587 164.628 126.864C164.628 127.136 164.684 127.373 164.796 127.576C164.914 127.779 165.066 127.933 165.252 128.04C165.444 128.147 165.66 128.2 165.9 128.2ZM167.196 129V127.992L167.236 126.856L167.156 125.72V123.064H168.148V129H167.196Z" fill="#F8F8F8"/>
<rect x="119.5" y="116.5" width="57" height="19" rx="9.5" stroke="#ECECEC"/>
<rect x="135.5" y="88.5" width="48" height="19" rx="9.5" fill="#F8F8F8"/>
<path d="M144.037 101V95.4H146.485C147.093 95.4 147.626 95.5173 148.085 95.752C148.544 95.9867 148.901 96.312 149.157 96.728C149.413 97.144 149.541 97.6347 149.541 98.2C149.541 98.76 149.413 99.2507 149.157 99.672C148.901 100.088 148.544 100.413 148.085 100.648C147.626 100.883 147.093 101 146.485 101H144.037ZM145.077 100.12H146.437C146.858 100.12 147.221 100.04 147.525 99.88C147.834 99.72 148.072 99.496 148.237 99.208C148.408 98.92 148.493 98.584 148.493 98.2C148.493 97.8107 148.408 97.4747 148.237 97.192C148.072 96.904 147.834 96.68 147.525 96.52C147.221 96.36 146.858 96.28 146.437 96.28H145.077V100.12ZM152.559 101.056C152.084 101.056 151.668 100.963 151.311 100.776C150.959 100.584 150.684 100.323 150.487 99.992C150.295 99.6613 150.199 99.2853 150.199 98.864C150.199 98.4373 150.292 98.0613 150.479 97.736C150.671 97.4053 150.932 97.1467 151.263 96.96C151.599 96.7733 151.98 96.68 152.407 96.68C152.823 96.68 153.193 96.7707 153.519 96.952C153.844 97.1333 154.1 97.3893 154.287 97.72C154.473 98.0507 154.567 98.44 154.567 98.888C154.567 98.9307 154.564 98.9787 154.559 99.032C154.559 99.0853 154.556 99.136 154.551 99.184H150.991V98.52H154.023L153.631 98.728C153.636 98.4827 153.585 98.2667 153.479 98.08C153.372 97.8933 153.225 97.7467 153.039 97.64C152.857 97.5333 152.647 97.48 152.407 97.48C152.161 97.48 151.945 97.5333 151.759 97.64C151.577 97.7467 151.433 97.896 151.327 98.088C151.225 98.2747 151.175 98.496 151.175 98.752V98.912C151.175 99.168 151.233 99.3947 151.351 99.592C151.468 99.7893 151.633 99.9413 151.847 100.048C152.06 100.155 152.305 100.208 152.583 100.208C152.823 100.208 153.039 100.171 153.231 100.096C153.423 100.021 153.593 99.904 153.743 99.744L154.279 100.36C154.087 100.584 153.844 100.757 153.551 100.88C153.263 100.997 152.932 101.056 152.559 101.056ZM156.585 101L154.753 96.728H155.793L157.369 100.496H156.857L158.489 96.728H159.449L157.617 101H156.585ZM162.755 101.08C162.318 101.08 161.915 101.008 161.547 100.864C161.179 100.72 160.859 100.52 160.587 100.264C160.315 100.003 160.104 99.6987 159.955 99.352C159.806 99 159.731 98.616 159.731 98.2C159.731 97.784 159.806 97.4027 159.955 97.056C160.104 96.704 160.315 96.4 160.587 96.144C160.859 95.8827 161.179 95.68 161.547 95.536C161.915 95.392 162.315 95.32 162.747 95.32C163.184 95.32 163.584 95.392 163.947 95.536C164.315 95.68 164.635 95.8827 164.907 96.144C165.179 96.4 165.39 96.704 165.539 97.056C165.688 97.4027 165.763 97.784 165.763 98.2C165.763 98.616 165.688 99 165.539 99.352C165.39 99.704 165.179 100.008 164.907 100.264C164.635 100.52 164.315 100.72 163.947 100.864C163.584 101.008 163.187 101.08 162.755 101.08ZM162.747 100.168C163.03 100.168 163.291 100.12 163.531 100.024C163.771 99.928 163.979 99.792 164.155 99.616C164.331 99.4347 164.467 99.2267 164.563 98.992C164.664 98.752 164.715 98.488 164.715 98.2C164.715 97.912 164.664 97.6507 164.563 97.416C164.467 97.176 164.331 96.968 164.155 96.792C163.979 96.6107 163.771 96.472 163.531 96.376C163.291 96.28 163.03 96.232 162.747 96.232C162.464 96.232 162.203 96.28 161.963 96.376C161.728 96.472 161.52 96.6107 161.339 96.792C161.163 96.968 161.024 97.176 160.923 97.416C160.827 97.6507 160.779 97.912 160.779 98.2C160.779 98.4827 160.827 98.744 160.923 98.984C161.024 99.224 161.163 99.4347 161.339 99.616C161.515 99.792 161.723 99.928 161.963 100.024C162.203 100.12 162.464 100.168 162.747 100.168ZM169.137 101.056C168.791 101.056 168.473 100.976 168.185 100.816C167.903 100.656 167.676 100.416 167.505 100.096C167.34 99.7707 167.257 99.36 167.257 98.864C167.257 98.3627 167.337 97.952 167.497 97.632C167.663 97.312 167.887 97.0747 168.169 96.92C168.452 96.76 168.775 96.68 169.137 96.68C169.559 96.68 169.929 96.7707 170.249 96.952C170.575 97.1333 170.831 97.3867 171.017 97.712C171.209 98.0373 171.305 98.4213 171.305 98.864C171.305 99.3067 171.209 99.6933 171.017 100.024C170.831 100.349 170.575 100.603 170.249 100.784C169.929 100.965 169.559 101.056 169.137 101.056ZM166.769 102.552V96.728H167.721V97.736L167.689 98.872L167.769 100.008V102.552H166.769ZM169.025 100.2C169.265 100.2 169.479 100.147 169.665 100.04C169.857 99.9333 170.009 99.7787 170.121 99.576C170.233 99.3733 170.289 99.136 170.289 98.864C170.289 98.5867 170.233 98.3493 170.121 98.152C170.009 97.9493 169.857 97.7947 169.665 97.688C169.479 97.5813 169.265 97.528 169.025 97.528C168.785 97.528 168.569 97.5813 168.377 97.688C168.185 97.7947 168.033 97.9493 167.921 98.152C167.809 98.3493 167.753 98.5867 167.753 98.864C167.753 99.136 167.809 99.3733 167.921 99.576C168.033 99.7787 168.185 99.9333 168.377 100.04C168.569 100.147 168.785 100.2 169.025 100.2ZM173.574 101.056C173.216 101.056 172.872 101.011 172.542 100.92C172.216 100.824 171.958 100.709 171.766 100.576L172.15 99.816C172.342 99.9387 172.571 100.04 172.838 100.12C173.104 100.2 173.371 100.24 173.638 100.24C173.952 100.24 174.179 100.197 174.318 100.112C174.462 100.027 174.534 99.912 174.534 99.768C174.534 99.6507 174.486 99.5627 174.39 99.504C174.294 99.44 174.168 99.392 174.014 99.36C173.859 99.328 173.686 99.2987 173.494 99.272C173.307 99.2453 173.118 99.2107 172.926 99.168C172.739 99.12 172.568 99.0533 172.414 98.968C172.259 98.8773 172.134 98.7573 172.038 98.608C171.942 98.4587 171.894 98.2613 171.894 98.016C171.894 97.744 171.971 97.5093 172.126 97.312C172.28 97.1093 172.496 96.9547 172.774 96.848C173.056 96.736 173.39 96.68 173.774 96.68C174.062 96.68 174.352 96.712 174.646 96.776C174.939 96.84 175.182 96.9307 175.374 97.048L174.99 97.808C174.787 97.6853 174.582 97.6027 174.374 97.56C174.171 97.512 173.968 97.488 173.766 97.488C173.462 97.488 173.235 97.5333 173.086 97.624C172.942 97.7147 172.87 97.8293 172.87 97.968C172.87 98.096 172.918 98.192 173.014 98.256C173.11 98.32 173.235 98.3707 173.39 98.408C173.544 98.4453 173.715 98.4773 173.902 98.504C174.094 98.5253 174.283 98.56 174.47 98.608C174.656 98.656 174.827 98.7227 174.982 98.808C175.142 98.888 175.27 99.0027 175.366 99.152C175.462 99.3013 175.51 99.496 175.51 99.736C175.51 100.003 175.43 100.235 175.27 100.432C175.115 100.629 174.894 100.784 174.606 100.896C174.318 101.003 173.974 101.056 173.574 101.056Z" fill="#F8F8F8"/>
<rect x="135.5" y="88.5" width="48" height="19" rx="9.5" stroke="#ECECEC"/>
<rect x="127.5" y="32.5" width="100" height="19" rx="9.5" fill="#F8F8F8"/>
<path d="M136.837 41.976H139.629V42.856H136.837V41.976ZM136.925 45H135.885V39.4H139.973V40.272H136.925V45ZM142.573 45.056C142.211 45.056 141.891 44.9893 141.613 44.856C141.336 44.7173 141.12 44.5093 140.965 44.232C140.811 43.9493 140.733 43.5947 140.733 43.168V40.728H141.733V43.032C141.733 43.416 141.819 43.704 141.989 43.896C142.165 44.0827 142.413 44.176 142.733 44.176C142.968 44.176 143.171 44.128 143.341 44.032C143.517 43.936 143.653 43.792 143.749 43.6C143.851 43.408 143.901 43.1707 143.901 42.888V40.728H144.901V45H143.949V43.848L144.117 44.2C143.973 44.4773 143.763 44.6907 143.485 44.84C143.208 44.984 142.904 45.056 142.573 45.056ZM146.211 45V39.064H147.211V45H146.211ZM148.523 45V39.064H149.523V45H148.523ZM154.879 45.08C154.441 45.08 154.023 45.0187 153.623 44.896C153.223 44.768 152.905 44.6053 152.671 44.408L153.031 43.6C153.255 43.776 153.532 43.9227 153.863 44.04C154.193 44.1573 154.532 44.216 154.879 44.216C155.172 44.216 155.409 44.184 155.591 44.12C155.772 44.056 155.905 43.9707 155.991 43.864C156.076 43.752 156.119 43.6267 156.119 43.488C156.119 43.3173 156.057 43.1813 155.935 43.08C155.812 42.9733 155.652 42.8907 155.455 42.832C155.263 42.768 155.047 42.7093 154.807 42.656C154.572 42.6027 154.335 42.5413 154.095 42.472C153.86 42.3973 153.644 42.304 153.447 42.192C153.255 42.0747 153.097 41.92 152.975 41.728C152.852 41.536 152.791 41.2907 152.791 40.992C152.791 40.688 152.871 40.4107 153.031 40.16C153.196 39.904 153.444 39.7013 153.775 39.552C154.111 39.3973 154.535 39.32 155.047 39.32C155.383 39.32 155.716 39.3627 156.047 39.448C156.377 39.5333 156.665 39.656 156.911 39.816L156.583 40.624C156.332 40.4747 156.073 40.3653 155.807 40.296C155.54 40.2213 155.284 40.184 155.039 40.184C154.751 40.184 154.516 40.2187 154.335 40.288C154.159 40.3573 154.028 40.448 153.943 40.56C153.863 40.672 153.823 40.8 153.823 40.944C153.823 41.1147 153.881 41.2533 153.999 41.36C154.121 41.4613 154.279 41.5413 154.471 41.6C154.668 41.6587 154.887 41.7173 155.127 41.776C155.367 41.8293 155.604 41.8907 155.839 41.96C156.079 42.0293 156.295 42.12 156.487 42.232C156.684 42.344 156.841 42.496 156.959 42.688C157.081 42.88 157.143 43.1227 157.143 43.416C157.143 43.7147 157.06 43.992 156.895 44.248C156.735 44.4987 156.487 44.7013 156.151 44.856C155.815 45.0053 155.391 45.08 154.879 45.08ZM159.686 45.056C159.217 45.056 158.854 44.936 158.598 44.696C158.342 44.4507 158.214 44.0907 158.214 43.616V39.784H159.214V43.592C159.214 43.7947 159.265 43.952 159.366 44.064C159.473 44.176 159.619 44.232 159.806 44.232C160.03 44.232 160.217 44.1733 160.366 44.056L160.646 44.768C160.529 44.864 160.385 44.936 160.214 44.984C160.043 45.032 159.867 45.056 159.686 45.056ZM157.51 41.56V40.76H160.358V41.56H157.51ZM164.101 45V44.136L164.045 43.952V42.44C164.045 42.1467 163.957 41.92 163.781 41.76C163.605 41.5947 163.338 41.512 162.981 41.512C162.741 41.512 162.503 41.5493 162.269 41.624C162.039 41.6987 161.845 41.8027 161.685 41.936L161.293 41.208C161.522 41.032 161.794 40.9013 162.109 40.816C162.429 40.7253 162.759 40.68 163.101 40.68C163.719 40.68 164.197 40.8293 164.533 41.128C164.874 41.4213 165.045 41.8773 165.045 42.496V45H164.101ZM162.757 45.056C162.437 45.056 162.157 45.0027 161.917 44.896C161.677 44.784 161.49 44.632 161.357 44.44C161.229 44.2427 161.165 44.0213 161.165 43.776C161.165 43.536 161.221 43.32 161.333 43.128C161.45 42.936 161.639 42.784 161.901 42.672C162.162 42.56 162.509 42.504 162.941 42.504H164.181V43.168H163.013C162.671 43.168 162.442 43.224 162.325 43.336C162.207 43.4427 162.149 43.576 162.149 43.736C162.149 43.9173 162.221 44.0613 162.365 44.168C162.509 44.2747 162.709 44.328 162.965 44.328C163.21 44.328 163.429 44.272 163.621 44.16C163.818 44.048 163.959 43.8827 164.045 43.664L164.213 44.264C164.117 44.5147 163.943 44.7093 163.693 44.848C163.447 44.9867 163.135 45.056 162.757 45.056ZM168.296 45.056C167.848 45.056 167.448 44.9627 167.096 44.776C166.749 44.584 166.477 44.3227 166.28 43.992C166.082 43.6613 165.984 43.2853 165.984 42.864C165.984 42.4373 166.082 42.0613 166.28 41.736C166.477 41.4053 166.749 41.1467 167.096 40.96C167.448 40.7733 167.848 40.68 168.296 40.68C168.712 40.68 169.077 40.7653 169.392 40.936C169.712 41.1013 169.954 41.3467 170.12 41.672L169.352 42.12C169.224 41.9173 169.066 41.768 168.88 41.672C168.698 41.576 168.501 41.528 168.288 41.528C168.042 41.528 167.821 41.5813 167.624 41.688C167.426 41.7947 167.272 41.9493 167.16 42.152C167.048 42.3493 166.992 42.5867 166.992 42.864C166.992 43.1413 167.048 43.3813 167.16 43.584C167.272 43.7813 167.426 43.9333 167.624 44.04C167.821 44.1467 168.042 44.2 168.288 44.2C168.501 44.2 168.698 44.152 168.88 44.056C169.066 43.96 169.224 43.8107 169.352 43.608L170.12 44.056C169.954 44.376 169.712 44.624 169.392 44.8C169.077 44.9707 168.712 45.056 168.296 45.056ZM171.761 44.048L171.785 42.792L174.017 40.728H175.217L173.321 42.632L172.793 43.072L171.761 44.048ZM170.945 45V39.064H171.945V45H170.945ZM174.169 45L172.609 43.072L173.241 42.272L175.385 45H174.169ZM178.338 45V39.4H180.786C181.394 39.4 181.927 39.5173 182.386 39.752C182.845 39.9867 183.202 40.312 183.458 40.728C183.714 41.144 183.842 41.6347 183.842 42.2C183.842 42.76 183.714 43.2507 183.458 43.672C183.202 44.088 182.845 44.4133 182.386 44.648C181.927 44.8827 181.394 45 180.786 45H178.338ZM179.378 44.12H180.738C181.159 44.12 181.522 44.04 181.826 43.88C182.135 43.72 182.373 43.496 182.538 43.208C182.709 42.92 182.794 42.584 182.794 42.2C182.794 41.8107 182.709 41.4747 182.538 41.192C182.373 40.904 182.135 40.68 181.826 40.52C181.522 40.36 181.159 40.28 180.738 40.28H179.378V44.12ZM186.859 45.056C186.385 45.056 185.969 44.9627 185.611 44.776C185.259 44.584 184.985 44.3227 184.787 43.992C184.595 43.6613 184.499 43.2853 184.499 42.864C184.499 42.4373 184.593 42.0613 184.779 41.736C184.971 41.4053 185.233 41.1467 185.563 40.96C185.899 40.7733 186.281 40.68 186.707 40.68C187.123 40.68 187.494 40.7707 187.819 40.952C188.145 41.1333 188.401 41.3893 188.587 41.72C188.774 42.0507 188.867 42.44 188.867 42.888C188.867 42.9307 188.865 42.9787 188.859 43.032C188.859 43.0853 188.857 43.136 188.851 43.184H185.291V42.52H188.323L187.931 42.728C187.937 42.4827 187.886 42.2667 187.779 42.08C187.673 41.8933 187.526 41.7467 187.339 41.64C187.158 41.5333 186.947 41.48 186.707 41.48C186.462 41.48 186.246 41.5333 186.059 41.64C185.878 41.7467 185.734 41.896 185.627 42.088C185.526 42.2747 185.475 42.496 185.475 42.752V42.912C185.475 43.168 185.534 43.3947 185.651 43.592C185.769 43.7893 185.934 43.9413 186.147 44.048C186.361 44.1547 186.606 44.208 186.883 44.208C187.123 44.208 187.339 44.1707 187.531 44.096C187.723 44.0213 187.894 43.904 188.043 43.744L188.579 44.36C188.387 44.584 188.145 44.7573 187.851 44.88C187.563 44.9973 187.233 45.056 186.859 45.056ZM190.886 45L189.054 40.728H190.094L191.67 44.496H191.158L192.79 40.728H193.75L191.918 45H190.886ZM196.266 45.056C195.791 45.056 195.375 44.9627 195.018 44.776C194.666 44.584 194.391 44.3227 194.194 43.992C194.002 43.6613 193.906 43.2853 193.906 42.864C193.906 42.4373 193.999 42.0613 194.186 41.736C194.378 41.4053 194.639 41.1467 194.97 40.96C195.306 40.7733 195.687 40.68 196.114 40.68C196.53 40.68 196.9 40.7707 197.226 40.952C197.551 41.1333 197.807 41.3893 197.994 41.72C198.18 42.0507 198.274 42.44 198.274 42.888C198.274 42.9307 198.271 42.9787 198.266 43.032C198.266 43.0853 198.263 43.136 198.258 43.184H194.698V42.52H197.73L197.338 42.728C197.343 42.4827 197.292 42.2667 197.186 42.08C197.079 41.8933 196.932 41.7467 196.746 41.64C196.564 41.5333 196.354 41.48 196.114 41.48C195.868 41.48 195.652 41.5333 195.466 41.64C195.284 41.7467 195.14 41.896 195.034 42.088C194.932 42.2747 194.882 42.496 194.882 42.752V42.912C194.882 43.168 194.94 43.3947 195.058 43.592C195.175 43.7893 195.34 43.9413 195.554 44.048C195.767 44.1547 196.012 44.208 196.29 44.208C196.53 44.208 196.746 44.1707 196.938 44.096C197.13 44.0213 197.3 43.904 197.45 43.744L197.986 44.36C197.794 44.584 197.551 44.7573 197.258 44.88C196.97 44.9973 196.639 45.056 196.266 45.056ZM199.234 45V39.064H200.234V45H199.234ZM203.467 45.056C203.029 45.056 202.64 44.9627 202.299 44.776C201.957 44.584 201.688 44.3227 201.491 43.992C201.293 43.6613 201.195 43.2853 201.195 42.864C201.195 42.4373 201.293 42.0613 201.491 41.736C201.688 41.4053 201.957 41.1467 202.299 40.96C202.64 40.7733 203.029 40.68 203.467 40.68C203.909 40.68 204.301 40.7733 204.643 40.96C204.989 41.1467 205.259 41.4027 205.451 41.728C205.648 42.0533 205.747 42.432 205.747 42.864C205.747 43.2853 205.648 43.6613 205.451 43.992C205.259 44.3227 204.989 44.584 204.643 44.776C204.301 44.9627 203.909 45.056 203.467 45.056ZM203.467 44.2C203.712 44.2 203.931 44.1467 204.123 44.04C204.315 43.9333 204.464 43.7787 204.571 43.576C204.683 43.3733 204.739 43.136 204.739 42.864C204.739 42.5867 204.683 42.3493 204.571 42.152C204.464 41.9493 204.315 41.7947 204.123 41.688C203.931 41.5813 203.715 41.528 203.475 41.528C203.229 41.528 203.011 41.5813 202.819 41.688C202.632 41.7947 202.483 41.9493 202.371 42.152C202.259 42.3493 202.203 42.5867 202.203 42.864C202.203 43.136 202.259 43.3733 202.371 43.576C202.483 43.7787 202.632 43.9333 202.819 44.04C203.011 44.1467 203.227 44.2 203.467 44.2ZM209.071 45.056C208.724 45.056 208.407 44.976 208.119 44.816C207.836 44.656 207.61 44.416 207.439 44.096C207.274 43.7707 207.191 43.36 207.191 42.864C207.191 42.3627 207.271 41.952 207.431 41.632C207.596 41.312 207.82 41.0747 208.103 40.92C208.386 40.76 208.708 40.68 209.071 40.68C209.492 40.68 209.863 40.7707 210.183 40.952C210.508 41.1333 210.764 41.3867 210.951 41.712C211.143 42.0373 211.239 42.4213 211.239 42.864C211.239 43.3067 211.143 43.6933 210.951 44.024C210.764 44.3493 210.508 44.6027 210.183 44.784C209.863 44.9653 209.492 45.056 209.071 45.056ZM206.703 46.552V40.728H207.655V41.736L207.623 42.872L207.703 44.008V46.552H206.703ZM208.959 44.2C209.199 44.2 209.412 44.1467 209.599 44.04C209.791 43.9333 209.943 43.7787 210.055 43.576C210.167 43.3733 210.223 43.136 210.223 42.864C210.223 42.5867 210.167 42.3493 210.055 42.152C209.943 41.9493 209.791 41.7947 209.599 41.688C209.412 41.5813 209.199 41.528 208.959 41.528C208.719 41.528 208.503 41.5813 208.311 41.688C208.119 41.7947 207.967 41.9493 207.855 42.152C207.743 42.3493 207.687 42.5867 207.687 42.864C207.687 43.136 207.743 43.3733 207.855 43.576C207.967 43.7787 208.119 43.9333 208.311 44.04C208.503 44.1467 208.719 44.2 208.959 44.2ZM214.195 45.056C213.721 45.056 213.305 44.9627 212.947 44.776C212.595 44.584 212.321 44.3227 212.123 43.992C211.931 43.6613 211.835 43.2853 211.835 42.864C211.835 42.4373 211.929 42.0613 212.115 41.736C212.307 41.4053 212.569 41.1467 212.899 40.96C213.235 40.7733 213.617 40.68 214.043 40.68C214.459 40.68 214.83 40.7707 215.155 40.952C215.481 41.1333 215.737 41.3893 215.923 41.72C216.11 42.0507 216.203 42.44 216.203 42.888C216.203 42.9307 216.201 42.9787 216.195 43.032C216.195 43.0853 216.193 43.136 216.187 43.184H212.627V42.52H215.659L215.267 42.728C215.273 42.4827 215.222 42.2667 215.115 42.08C215.009 41.8933 214.862 41.7467 214.675 41.64C214.494 41.5333 214.283 41.48 214.043 41.48C213.798 41.48 213.582 41.5333 213.395 41.64C213.214 41.7467 213.07 41.896 212.963 42.088C212.862 42.2747 212.811 42.496 212.811 42.752V42.912C212.811 43.168 212.87 43.3947 212.987 43.592C213.105 43.7893 213.27 43.9413 213.483 44.048C213.697 44.1547 213.942 44.208 214.219 44.208C214.459 44.208 214.675 44.1707 214.867 44.096C215.059 44.0213 215.23 43.904 215.379 43.744L215.915 44.36C215.723 44.584 215.481 44.7573 215.187 44.88C214.899 44.9973 214.569 45.056 214.195 45.056ZM217.164 45V40.728H218.116V41.904L218.004 41.56C218.132 41.272 218.332 41.0533 218.604 40.904C218.881 40.7547 219.225 40.68 219.636 40.68V41.632C219.593 41.6213 219.553 41.616 219.516 41.616C219.478 41.6107 219.441 41.608 219.404 41.608C219.025 41.608 218.724 41.72 218.5 41.944C218.276 42.1627 218.164 42.4907 218.164 42.928V45H217.164Z" fill="#F8F8F8"/>
<rect x="127.5" y="32.5" width="100" height="19" rx="9.5" stroke="#ECECEC"/>
<path fillRule="evenodd" clipRule="evenodd" d="M189.077 68.4949C184.809 69.6384 182.277 74.0251 183.42 78.2928L194.602 120.026L184.588 110.012C181.464 106.888 176.399 106.888 173.275 110.012L173.128 110.158C170.062 113.225 169.997 118.176 172.982 121.322L198.147 147.843C204.704 156.833 219.602 160.737 234.95 156.625C253.17 151.743 265.192 137.393 262.034 124.425L262.038 124.423L261.933 124.031L252.486 88.7743C251.343 84.5066 246.956 81.9739 242.688 83.1175C238.421 84.261 235.888 88.6477 237.031 92.9154C235.888 88.6477 231.501 86.1151 227.234 87.2586C222.966 88.4021 220.433 92.7888 221.577 97.0565C220.433 92.7888 216.046 90.2562 211.779 91.3997C207.511 92.5432 204.978 96.9299 206.122 101.198L198.875 74.1517C197.731 69.884 193.345 67.3513 189.077 68.4949Z" fill="#F6E9E7"/>
<path fillRule="evenodd" clipRule="evenodd" d="M242.914 68.3917C242.843 64.3009 239.541 60.9977 235.45 60.9262V60.9251C239.539 60.8537 242.84 57.5533 242.913 53.4648H242.915C242.988 57.5533 246.288 60.8542 250.377 60.9267V60.9279C246.288 61.0004 242.987 64.3023 242.915 68.3917H242.914Z" fill="#EB896A"/>
<path fillRule="evenodd" clipRule="evenodd" d="M231.632 57.6083C231.585 54.8818 229.384 52.6802 226.658 52.6324V52.6317C229.383 52.5839 231.583 50.3846 231.632 47.6602H231.633C231.682 50.3849 233.882 52.5846 236.606 52.633V52.6337C233.881 52.6821 231.681 54.8828 231.633 57.6083H231.632Z" fill="#F6E9E7"/>
</g>
<defs>
<clipPath id="clip0_1839_31847">
<rect width="250" height="117" fill="white" transform="translate(16 16)"/>
</clipPath>
</defs>
</svg>
