<svg width="282" height="133" viewBox="0 0 282 133" fill="none" xmlns="http://www.w3.org/2000/svg">
<rect width="282" height="133" rx="8" fill="#0C151D"/>
<g clipPath="url(#clip0_1839_31902)">
<path d="M16 24C16 19.5817 19.5817 16 24 16H258C262.418 16 266 19.5817 266 24V133H16V24Z" fill="white"/>
<rect x="32" y="32" width="218" height="72" rx="4" fill="#F8F8F8"/>
<rect x="32" y="108" width="218" height="36" rx="4" fill="#F8F8F8"/>
<rect x="38" y="36" width="52" height="8" rx="4" fill="#C1DDED"/>
<rect x="40" y="116" width="80" height="8" rx="4" fill="#ECECEC"/>
<rect x="38" y="48" width="32" height="8" rx="4" fill="#C1DDED"/>
<rect x="40" y="128" width="104" height="8" rx="4" fill="#ECECEC"/>
<rect x="38" y="64" width="104" height="8" rx="4" fill="#C1DDED"/>
<rect x="38" y="76" width="90" height="8" rx="4" fill="#C1DDED"/>
<rect x="38" y="88" width="52" height="8" rx="4" fill="#ECECEC"/>
<rect x="38" y="88" width="24" height="8" rx="4" fill="#C1DDED"/>
<path fillRule="evenodd" clipRule="evenodd" d="M202.548 24C200.339 24 198.548 25.7909 198.548 28V33.4277C198.548 35.6368 200.339 37.4277 202.548 37.4277H212.452C214.661 37.4277 216.452 35.6368 216.452 33.4277V28C216.452 25.7909 214.661 24 212.452 24H202.548ZM258 69.5506C258 67.3414 256.209 65.5506 254 65.5506H248.572C246.363 65.5506 244.572 67.3414 244.572 69.5505V79.4542C244.572 81.6633 246.363 83.4542 248.572 83.4542H254C256.209 83.4542 258 81.6633 258 79.4542V69.5506ZM234.051 35.1447C235.613 33.5826 238.146 33.5826 239.708 35.1447L246.711 42.1476C248.273 43.7097 248.273 46.2424 246.711 47.8045L242.873 51.6424C241.311 53.2045 238.778 53.2045 237.216 51.6424L230.213 44.6395C228.651 43.0774 228.651 40.5448 230.213 38.9827L234.051 35.1447ZM246.787 106.564C248.349 105.002 248.349 102.47 246.787 100.907L242.949 97.0695C241.387 95.5074 238.855 95.5074 237.293 97.0695L230.29 104.072C228.728 105.635 228.728 108.167 230.29 109.729L234.128 113.567C235.69 115.129 238.222 115.129 239.784 113.567L246.787 106.564ZM198.548 115.576C198.548 113.367 200.339 111.576 202.548 111.576H212.452C214.661 111.576 216.452 113.367 216.452 115.576V121.004C216.452 123.213 214.661 125.004 212.452 125.004H202.548C200.339 125.004 198.548 123.213 198.548 121.004V115.576ZM170.428 69.5506C170.428 67.3414 168.637 65.5506 166.428 65.5506H161C158.791 65.5506 157 67.3414 157 69.5505L157 79.4542C157 81.6633 158.791 83.4542 161 83.4542H166.428C168.637 83.4542 170.428 81.6633 170.428 79.4542L170.428 69.5506ZM172.128 97.0644C173.69 95.5023 176.222 95.5023 177.784 97.0644L184.787 104.067C186.349 105.629 186.349 108.162 184.787 109.724L180.949 113.562C179.387 115.124 176.855 115.124 175.292 113.562L168.29 106.559C166.727 104.997 166.727 102.464 168.29 100.902L172.128 97.0644ZM184.865 44.6369C186.427 43.0748 186.427 40.5422 184.865 38.9801L181.027 35.1421C179.464 33.58 176.932 33.58 175.37 35.1421L168.367 42.145C166.805 43.7071 166.805 46.2398 168.367 47.8018L172.205 51.6398C173.767 53.2019 176.3 53.2019 177.862 51.6398L184.865 44.6369Z" fill="#69A3CC"/>
<path fillRule="evenodd" clipRule="evenodd" d="M207.5 116.314C230.674 116.314 249.461 97.5269 249.461 74.3522C249.461 51.1775 230.674 32.3906 207.5 32.3906C184.325 32.3906 165.538 51.1775 165.538 74.3522C165.538 97.5269 184.325 116.314 207.5 116.314ZM207.354 91.137C216.624 91.137 224.138 83.6223 224.138 74.3524C224.138 65.0825 216.624 57.5677 207.354 57.5677C198.084 57.5677 190.569 65.0825 190.569 74.3524C190.569 83.6223 198.084 91.137 207.354 91.137Z" fill="#69A3CC"/>
<path fillRule="evenodd" clipRule="evenodd" d="M156.945 46.3917C157.016 42.3008 160.318 38.9976 164.409 38.9262V38.9251C160.32 38.8537 157.018 35.5533 156.945 31.4648H156.943C156.871 35.5533 153.57 38.8542 149.482 38.9267V38.9279C153.571 39.0004 156.872 42.3023 156.943 46.3917H156.945Z" fill="#EB896A"/>
<path fillRule="evenodd" clipRule="evenodd" d="M168.227 35.6083C168.273 32.8818 170.474 30.6802 173.201 30.6324V30.6317C170.476 30.584 168.276 28.3846 168.227 25.6602H168.225C168.177 28.3848 165.977 30.5846 163.252 30.633V30.6337C165.978 30.6821 168.178 32.8828 168.225 35.6083H168.227Z" fill="#F6E9E7"/>
</g>
<defs>
<clipPath id="clip0_1839_31902">
<path d="M16 24C16 19.5817 19.5817 16 24 16H258C262.418 16 266 19.5817 266 24V133H16V24Z" fill="white"/>
</clipPath>
</defs>
</svg>
