
<svg width="196" height="115" viewBox="0 0 196 115" fill="none" xmlns="http://www.w3.org/2000/svg">
<path d="M20.5647 2.07194C19.543 2.89935 19.3854 4.3984 20.2128 5.42017C21.0402 6.44194 22.5393 6.59949 23.5611 5.77208C24.5828 4.94467 24.7404 3.44562 23.913 2.42385C23.0856 1.40209 21.5865 1.24453 20.5647 2.07194Z" fill="#0C151D"/>
<path fillRule="evenodd" clipRule="evenodd" d="M21.8763 5.01582C21.9137 4.5816 21.9693 4.16851 22.0411 3.77881L23.2117 3.99445C23.1472 4.34464 23.0965 4.71978 23.0622 5.11798L21.8763 5.01582ZM22.177 9.94557C22.0137 9.09223 21.9105 8.27412 21.8594 7.49897L23.0471 7.42061C23.0949 8.14586 23.1918 8.9154 23.3461 9.72179L22.177 9.94557ZM23.602 14.6385C23.2761 13.8534 23.0007 13.0834 22.7712 12.3328L23.9095 11.9848C24.1277 12.6984 24.39 13.4323 24.7013 14.1822L23.602 14.6385ZM25.8574 18.9645C25.4086 18.2535 25.0033 17.548 24.6388 16.8508L25.6935 16.2992C26.0431 16.9677 26.4322 17.6452 26.8639 18.3291L25.8574 18.9645ZM28.7537 22.879C28.2118 22.2448 27.7076 21.611 27.2392 20.9794L28.1952 20.2703C28.6472 20.8797 29.1343 21.4921 29.6586 22.1057L28.7537 22.879ZM32.1346 26.3669C31.5233 25.807 30.9446 25.2447 30.3973 24.6812L31.2511 23.8519C31.7821 24.3985 32.3441 24.9447 32.9385 25.4891L32.1346 26.3669ZM35.8815 29.4486C35.215 28.9546 34.5773 28.4566 33.9674 27.9557L34.7229 27.0359C35.3173 27.5241 35.9394 28.0099 36.5903 28.4924L35.8815 29.4486ZM39.8967 32.1527C39.1944 31.7222 38.5171 31.2871 37.8642 30.8481L38.5284 29.8603C39.1672 30.2899 39.8304 30.716 40.5187 31.1378L39.8967 32.1527ZM44.1087 34.5161C43.3773 34.1402 42.6681 33.7593 41.9806 33.3739L42.5625 32.3356C43.2374 32.7138 43.9339 33.0879 44.6528 33.4574L44.1087 34.5161ZM48.4762 36.581C47.7229 36.2535 46.9895 35.9209 46.2754 35.5836L46.7837 34.5073C47.4865 34.8393 48.2087 35.1668 48.9508 35.4894L48.4762 36.581ZM52.9421 38.3731C52.1769 38.0899 51.4292 37.8018 50.6989 37.5091L51.1418 36.4042C51.8621 36.693 52.5997 36.9772 53.3551 37.2567L52.9421 38.3731ZM56.3643 39.5659C55.9747 39.4381 55.5892 39.309 55.2078 39.1787L55.5926 38.0523C55.9694 38.181 56.3504 38.3086 56.7354 38.435C57.1229 38.5621 57.5056 38.6895 57.8835 38.8172L57.5024 39.9449C57.1279 39.8183 56.7486 39.692 56.3643 39.5659ZM61.9286 41.5347C61.2151 41.2619 60.4806 40.9898 59.7247 40.7186L60.1267 39.5982C60.8901 39.8722 61.6323 40.1471 62.3537 40.4229L61.9286 41.5347ZM66.2842 43.3186C65.5858 43.0115 64.8626 42.7048 64.1141 42.3986L64.5646 41.2969C65.3225 41.6068 66.0551 41.9176 66.7633 42.229L66.2842 43.3186ZM70.5303 45.3419C69.8577 44.9934 69.1554 44.6446 68.4222 44.296L68.9334 43.2211C69.6783 43.5753 70.3928 43.9301 71.0779 44.285L70.5303 45.3419ZM74.6088 47.6719C73.9762 47.2708 73.3066 46.8683 72.5984 46.4648L73.1877 45.4306C73.9113 45.8429 74.5969 46.255 75.2461 46.6665L74.6088 47.6719ZM78.3917 50.3929C77.8231 49.9228 77.2067 49.4483 76.5394 48.9707L77.2323 48.0028C77.9207 48.4956 78.5591 48.9869 79.1502 49.4757L78.3917 50.3929ZM81.6577 53.637C81.2074 53.0808 80.6932 52.5138 80.1088 51.9381L80.9443 51.0902C81.5581 51.6951 82.1026 52.2949 82.5828 52.888L81.6577 53.637ZM83.9243 57.5451C83.6955 56.8925 83.3813 56.2125 82.9669 55.5094L83.9924 54.905C84.4437 55.6708 84.7915 56.4211 85.0475 57.1513L83.9243 57.5451ZM84.2723 61.8886C84.4149 61.2184 84.468 60.4887 84.4004 59.7079L85.5862 59.6052C85.6641 60.504 85.6035 61.3518 85.4366 62.1363L84.2723 61.8886ZM82.8728 64.808C83.096 64.5378 83.305 64.2399 83.4928 63.9165L84.522 64.5145C84.3011 64.8947 84.0548 65.2461 83.7904 65.566L82.8728 64.808Z" fill="black"/>
<path fillRule="evenodd" clipRule="evenodd" d="M102.788 28.9248C99.9359 28.5495 97.4053 30.769 97.4053 33.6453V56.7218C97.4053 54.3324 99.1763 52.3131 101.545 52.0013L182.486 41.3513C185.337 40.9761 187.868 43.1956 187.868 46.0718V44.2953C187.868 41.9059 186.097 39.8865 183.728 39.5748L102.788 28.9248Z" fill="#E5E5E5"/>
<path fillRule="evenodd" clipRule="evenodd" d="M102.632 30.1049L183.573 40.7549C183.853 40.7919 184.123 40.8607 184.378 40.9576C186.369 41.5095 187.868 43.3343 187.868 45.5483V44.2953C187.868 41.9059 186.097 39.8865 183.728 39.5748L102.788 28.9248C99.9359 28.5495 97.4053 30.769 97.4053 33.6453V56.1983C97.4053 54.9989 97.8515 53.8928 98.5956 53.0491V33.6453C98.5956 31.4881 100.494 29.8235 102.632 30.1049Z" fill="#0C151D"/>
<path fillRule="evenodd" clipRule="evenodd" d="M93.2134 28.9248C96.065 28.5495 98.5957 30.769 98.5957 33.6453V56.7218C98.5957 54.3324 96.8247 52.3131 94.4556 52.0013L13.5153 41.3513C10.6637 40.9761 8.13302 43.1956 8.13302 46.0718V44.2953C8.13302 41.9059 9.90408 39.8865 12.2731 39.5748L93.2134 28.9248Z" fill="#E5E5E5"/>
<path fillRule="evenodd" clipRule="evenodd" d="M93.3685 30.1049L12.4282 40.7549C12.1475 40.7919 11.878 40.8607 11.6232 40.9576C9.6322 41.5095 8.13281 43.3343 8.13281 45.5483V44.2953C8.13281 41.9059 9.90387 39.8865 12.2729 39.5748L93.2132 28.9248C96.0648 28.5495 98.5955 30.769 98.5955 33.6453V56.1983C98.5955 54.9989 98.1493 53.8928 97.4052 53.0491V33.6453C97.4052 31.4881 95.5072 29.8235 93.3685 30.1049Z" fill="#0C151D"/>
<path d="M8.13281 46.2117C8.13281 43.3355 10.6635 41.1159 13.5151 41.4912L94.4554 52.1412C96.8244 52.4529 98.5955 54.4723 98.5955 56.8617V114.425H98.0003H97.4052L12.2729 103.223C9.90386 102.912 8.13281 100.892 8.13281 98.5027V46.2117Z" fill="white"/>
<path fillRule="evenodd" clipRule="evenodd" d="M70.3661 14.624C68.9319 14.4191 67.6488 15.5319 67.6488 16.9807V20.4812L56.0564 18.9559C54.6306 18.7683 53.3652 19.878 53.3652 21.3161V76.3215C53.3652 78.711 55.1363 80.7303 57.5053 81.0421L143.828 92.4003V32.5926C143.828 31.3979 142.942 30.3882 141.758 30.2324L92.6451 23.7702V19.8714C92.6451 18.6867 91.7739 17.6823 90.6012 17.5147L70.3661 14.624Z" fill="#FCFCFC"/>
<path fillRule="evenodd" clipRule="evenodd" d="M68.8391 21.8384L55.9011 20.136C55.1882 20.0422 54.5555 20.5971 54.5555 21.3161V76.3215C54.5555 78.1136 55.8838 79.6281 57.6606 79.8619L142.638 91.0431V32.5926C142.638 31.9953 142.195 31.4904 141.603 31.4125L91.4548 24.8141V19.8714C91.4548 19.279 91.0192 18.7768 90.4328 18.693L70.1977 15.8023C69.4807 15.6999 68.8391 16.2563 68.8391 16.9807V21.8384ZM143.828 92.4003L57.5053 81.0421C55.1363 80.7303 53.3652 78.711 53.3652 76.3215V21.3161C53.3652 19.878 54.6306 18.7683 56.0564 18.9559L67.6488 20.4812V16.9807C67.6488 15.5319 68.9319 14.4191 70.3661 14.624L90.6012 17.5147C91.7739 17.6823 92.6451 18.6867 92.6451 19.8714V23.7702L141.758 30.2324C142.942 30.3882 143.828 31.3979 143.828 32.5926V92.4003Z" fill="#9DA0A4"/>
<path fillRule="evenodd" clipRule="evenodd" d="M119.12 15.1989C118.319 15.2114 117.509 15.2502 116.692 15.3166L116.595 14.1303C117.438 14.0617 118.275 14.0216 119.102 14.0088L119.12 15.1989ZM122.76 15.3266C122.36 15.2918 121.957 15.2638 121.549 15.2426L121.611 14.0539C122.032 14.0758 122.45 14.1048 122.863 14.1407C123.275 14.1765 123.69 14.2263 124.109 14.2887L123.933 15.466C123.537 15.4069 123.146 15.3601 122.76 15.3266ZM114.276 15.5931C113.48 15.7108 112.681 15.8554 111.883 16.028L111.632 14.8646C112.456 14.6863 113.28 14.5371 114.102 14.4156L114.276 15.5931ZM128.578 16.5806C127.793 16.3356 127.022 16.1172 126.267 15.9321L126.55 14.776C127.333 14.968 128.128 15.1934 128.933 15.4443L128.578 16.5806ZM109.527 16.622C108.753 16.8456 107.983 17.0969 107.22 17.377L106.81 16.2595C107.6 15.9696 108.397 15.7096 109.197 15.4784L109.527 16.622ZM133.142 18.192C132.374 17.8985 131.618 17.6162 130.871 17.3504L131.271 16.2292C132.028 16.4988 132.794 16.7845 133.567 17.0802L133.142 18.192ZM104.973 18.2953C104.24 18.6273 103.515 18.9881 102.803 19.3785L102.231 18.3348C102.97 17.9294 103.722 17.5551 104.482 17.2109L104.973 18.2953ZM173.789 18.1592C173.468 18.4374 173.146 18.7055 172.824 18.9635L172.08 18.0345C172.39 17.7862 172.7 17.528 173.01 17.2597L173.789 18.1592ZM136.275 19.4163C135.986 19.302 135.698 19.1882 135.411 19.0753L135.847 17.9678C136.136 18.0815 136.425 18.1955 136.714 18.3099C137.178 18.4931 137.644 18.6771 138.114 18.8613L137.679 19.9693C137.209 19.7848 136.74 19.5998 136.275 19.4163ZM170.824 20.4353C170.118 20.9098 169.41 21.3392 168.701 21.7263L168.13 20.6815C168.807 20.3122 169.484 19.9018 170.16 19.4474L170.824 20.4353ZM100.727 20.6259C100.056 21.0666 99.3996 21.5366 98.7597 22.0369L98.0266 21.0992C98.6928 20.5783 99.3761 20.0893 100.074 19.631L100.727 20.6259ZM142.26 21.7003C141.487 21.425 140.721 21.1409 139.961 20.8525L140.384 19.7397C141.137 20.0259 141.896 20.3071 142.659 20.579L142.26 21.7003ZM146.943 23.2033C146.152 22.9824 145.366 22.7437 144.585 22.4918L144.951 21.3591C145.718 21.6067 146.489 21.8407 147.263 22.0569L146.943 23.2033ZM166.448 22.8142C165.665 23.1445 164.882 23.4269 164.098 23.6649L163.752 22.526C164.496 22.2999 165.241 22.0317 165.985 21.7175L166.448 22.8142ZM151.764 24.2831C150.95 24.1509 150.14 23.9915 149.335 23.8096L149.598 22.6485C150.381 22.8256 151.167 22.9802 151.955 23.1082L151.764 24.2831ZM96.9177 23.6066C96.3323 24.15 95.765 24.7227 95.218 25.3257L94.3364 24.5259C94.9066 23.8974 95.4979 23.3005 96.1079 22.7343L96.9177 23.6066ZM161.675 24.2637C160.849 24.4226 160.024 24.5365 159.2 24.6098L159.094 23.4242C159.88 23.3543 160.665 23.2459 161.451 23.0948L161.675 24.2637ZM156.71 24.7125C155.879 24.7085 155.05 24.6674 154.225 24.5942L154.331 23.4086C155.125 23.4791 155.92 23.5184 156.716 23.5223L156.71 24.7125ZM93.6697 27.1876C93.1884 27.8198 92.7275 28.4804 92.2891 29.1702L91.2845 28.5318C91.741 27.8136 92.221 27.1254 92.7227 26.4665L93.6697 27.1876ZM91.0744 31.2693C90.7061 31.9704 90.3594 32.698 90.0358 33.4528L88.9418 32.9838C89.2776 32.2006 89.6377 31.4448 90.0206 30.7158L91.0744 31.2693ZM89.1642 35.7184C88.9068 36.4691 88.6708 37.2439 88.4576 38.0433L87.3075 37.7367C87.5277 36.9109 87.7717 36.1096 88.0382 35.3323L89.1642 35.7184ZM87.9096 40.4078C87.8309 40.8041 87.7576 41.2059 87.6897 41.6132C87.6295 41.9743 87.5764 42.3393 87.5301 42.7078L86.3491 42.5595C86.3973 42.1756 86.4527 41.7949 86.5156 41.4175C86.5855 40.9983 86.661 40.5845 86.742 40.1762L87.9096 40.4078ZM87.3354 44.9181C87.297 45.6484 87.2823 46.3902 87.2899 47.1419L86.0997 47.154C86.0918 46.3789 86.1069 45.6122 86.1467 44.8556L87.3354 44.9181ZM87.3748 49.3697C87.4225 50.1044 87.4892 50.8467 87.5739 51.5952L86.3911 51.7289C86.3045 50.9626 86.236 50.2014 86.187 49.4467L87.3748 49.3697ZM87.8729 53.8113C87.987 54.5427 88.1165 55.2784 88.2603 56.0173L87.0919 56.2447C86.9454 55.4919 86.8133 54.7415 86.6968 53.9948L87.8729 53.8113ZM88.7261 58.2109C88.8926 58.936 89.0716 59.6628 89.262 60.3904L88.1105 60.6917C87.9172 59.9531 87.7353 59.2146 87.566 58.4773L88.7261 58.2109ZM89.8608 62.5546C90.0698 63.2719 90.2888 63.9887 90.5168 64.7039L89.3827 65.0655C89.1518 64.3411 88.9299 63.6148 88.718 62.8875L89.8608 62.5546ZM91.2248 66.838C91.4692 67.5473 91.7215 68.2538 91.9807 68.9566L90.8639 69.3685C90.6019 68.658 90.3467 67.9434 90.0994 67.2257L91.2248 66.838ZM92.7807 71.0597C92.9178 71.4095 93.0564 71.7581 93.1963 72.1053L92.0923 72.5503C91.951 72.1996 91.811 71.8474 91.6725 71.494L92.7807 71.0597Z" fill="#0C151D"/>
<path d="M175.965 18.1701C175.965 19.4849 174.899 20.5507 173.585 20.5507C172.27 20.5507 171.204 19.4849 171.204 18.1701C171.204 16.8554 172.27 15.7896 173.585 15.7896C174.899 15.7896 175.965 16.8554 175.965 18.1701Z" fill="#0C151D"/>
<path d="M8.13281 46.2117C8.13281 43.3355 10.6635 41.1159 13.5151 41.4912L94.4554 52.1412C96.8244 52.4529 98.5955 54.4723 98.5955 56.8617V114.425H98.0003H97.4052L12.2729 103.223C9.90386 102.912 8.13281 100.892 8.13281 98.5027V46.2117Z" fill="#D3B4FE"/>
<path fillRule="evenodd" clipRule="evenodd" d="M94.3001 53.3213L13.3598 42.6713C11.2211 42.3899 9.32311 44.0545 9.32311 46.2117V98.5027C9.32311 100.295 10.6514 101.809 12.4282 102.043L97.4052 113.224V56.8617C97.4052 55.0696 96.0769 53.5551 94.3001 53.3213ZM98.5955 56.8617C98.5955 54.4723 96.8244 52.4529 94.4554 52.1412L13.5151 41.4912C10.6635 41.1159 8.13281 43.3355 8.13281 46.2117V98.5027C8.13281 100.892 9.90386 102.912 12.2729 103.223L97.4052 114.427H98.0003H98.5955V56.8617Z" fill="#0C151D"/>
<path d="M187.868 46.2131C187.868 43.3369 185.337 41.1174 182.486 41.4926L101.546 52.1427C99.1765 52.4544 97.4055 54.4737 97.4055 56.8632V112.797V112.797C98.1393 113.802 99.3628 114.325 100.596 114.163L183.728 103.225C186.097 102.913 187.868 100.894 187.868 98.5042V46.2131Z" fill="white"/>
<path fillRule="evenodd" clipRule="evenodd" d="M101.701 53.3213L182.641 42.6713C184.78 42.3899 186.678 44.0545 186.678 46.2117V98.5027C186.678 100.295 185.35 101.809 183.573 102.043L98.5958 113.224V56.8617C98.5958 55.0696 99.9241 53.5551 101.701 53.3213ZM97.4055 56.8617C97.4055 54.4723 99.1765 52.4529 101.546 52.1412L182.486 41.4912C185.337 41.1159 187.868 43.3355 187.868 46.2117V98.5027C187.868 100.892 186.097 102.912 183.728 103.223L98.5958 114.425L97.4055 113.224V56.8617Z" fill="#0C151D"/>
<path d="M194.587 56.7935L186.854 42.2384C186.39 41.3642 185.433 40.8686 184.451 40.9938L101.003 51.6349C99.3032 51.8516 98.3821 53.7386 99.2568 55.2117L107.914 69.7921C108.399 70.6092 109.324 71.0595 110.266 70.9377L192.79 60.2713C194.439 60.0581 195.367 58.2623 194.587 56.7935Z" fill="white"/>
<path fillRule="evenodd" clipRule="evenodd" d="M184.526 41.5846C185.263 41.4907 185.98 41.8624 186.329 42.5181L194.061 57.0732C194.646 58.1748 193.95 59.5216 192.713 59.6815L110.19 70.3479C109.483 70.4392 108.79 70.1015 108.426 69.4887L99.7686 54.9083C99.1126 53.8035 99.8033 52.3882 101.078 52.2257L184.526 41.5846ZM187.38 41.9596C186.799 40.8668 185.603 40.2474 184.376 40.4039L100.927 51.0449C98.803 51.3158 97.6517 53.6746 98.7451 55.516L107.402 70.0964C108.009 71.1177 109.164 71.6806 110.342 71.5283L192.866 60.862C194.928 60.5955 196.088 58.3507 195.112 56.5147L187.38 41.9596Z" fill="#0C151D"/>
<path d="M1.4142 56.7935L9.14659 42.2384C9.61104 41.3642 10.5681 40.8686 11.5501 40.9938L94.9983 51.6349C96.6978 51.8516 97.6188 53.7386 96.7442 55.2117L88.0871 69.7921C87.6019 70.6092 86.6774 71.0595 85.7349 70.9377L3.21138 60.2713C1.56192 60.0581 0.633905 58.2623 1.4142 56.7935Z" fill="white"/>
<path fillRule="evenodd" clipRule="evenodd" d="M11.4748 41.5846C10.7383 41.4907 10.0205 41.8624 9.67216 42.5181L1.93977 57.0732C1.35455 58.1748 2.05056 59.5216 3.28766 59.6815L85.8112 70.3479C86.518 70.4392 87.2115 70.1015 87.5753 69.4887L96.2324 54.9083C96.8884 53.8035 96.1976 52.3882 94.923 52.2257L11.4748 41.5846ZM8.62099 41.9596C9.20155 40.8668 10.3978 40.2474 11.6253 40.4039L95.0736 51.0449C97.198 51.3158 98.3492 53.6746 97.2559 55.516L88.5988 70.0964C87.9924 71.1177 86.8367 71.6806 85.6586 71.5283L3.13508 60.862C1.07325 60.5955 -0.0867696 58.3507 0.888595 56.5147L8.62099 41.9596Z" fill="#0C151D"/>
<path d="M97.4053 53.8794H98.5956V62.2115H97.4053V53.8794Z" fill="#0C151D"/>
</svg>
