<svg width="206" height="172" viewBox="0 0 206 172" fill="none" xmlns="http://www.w3.org/2000/svg">
<path d="M31.1957 165.639C30.2399 165.974 29.321 165.055 29.6558 164.099L67.0561 57.3226C67.3504 56.4822 68.4214 56.238 69.0509 56.8676L138.409 126.238C139.039 126.867 138.795 127.938 137.955 128.233L31.1957 165.639Z" fill="white"/>
<path fillRule="evenodd" clipRule="evenodd" d="M28.5183 163.699L65.9186 56.9228C66.5072 55.2421 68.6492 54.7536 69.9082 56.0128L139.267 125.383C140.526 126.642 140.037 128.784 138.357 129.373L31.5981 166.779C29.6865 167.449 27.8486 165.611 28.5183 163.699ZM29.6587 164.099C29.3239 165.055 30.2428 165.974 31.1986 165.639L137.957 128.232C138.798 127.938 139.042 126.867 138.412 126.237L69.0537 56.8673C68.4243 56.2377 67.3533 56.482 67.059 57.3223L29.6587 164.099Z" fill="#0C151D"/>
<mask id="mask0_25173_36991" style="mask-type:alpha" maskUnits="userSpaceOnUse" x="29" y="56" width="110" height="110">
<path d="M31.1957 165.639C30.2399 165.974 29.321 165.055 29.6558 164.099L67.0561 57.3226C67.3504 56.4822 68.4214 56.238 69.0509 56.8676L138.409 126.238C139.039 126.867 138.795 127.938 137.955 128.233L31.1957 165.639Z" fill="white"/>
</mask>
<g mask="url(#mask0_25173_36991)">
<path d="M122.874 141.497C84.1733 127.762 57.9567 85.4479 52.5469 71.1582L41.3112 82.3957C60.9528 126.68 96.38 147.74 111.638 152.734L122.874 141.497Z" fill="#C1EF78"/>
<path fillRule="evenodd" clipRule="evenodd" d="M123.975 141.248L111.8 153.425L111.447 153.309C96.0452 148.268 60.4744 127.099 40.7556 82.6413L40.5875 82.2622L52.7775 70.0702L53.1086 70.9447C55.7838 78.011 63.6493 92.1027 75.6818 106.143C87.7123 120.181 103.859 134.109 123.073 140.928L123.975 141.248ZM52.318 72.2388L42.0287 82.5298C61.476 126.044 96.2119 146.905 111.472 152.044L121.771 141.742C102.681 134.717 86.6835 120.837 74.7643 106.929C63.1275 93.3509 55.3322 79.6916 52.318 72.2388Z" fill="#0C151D"/>
<path d="M98.3194 166.053C59.6186 152.318 33.402 110.004 27.9922 95.7139L16.7565 106.951C36.3982 151.236 71.8253 172.296 87.0837 177.29L98.3194 166.053Z" fill="#C1EF78"/>
<path fillRule="evenodd" clipRule="evenodd" d="M99.4238 165.804L87.2491 177.98L86.8963 177.865C71.4944 172.823 35.9236 151.655 16.2048 107.197L16.0367 106.818L28.2267 94.6258L28.5578 95.5004C31.233 102.567 39.0985 116.658 51.131 130.699C63.1615 144.736 79.3082 158.665 98.522 165.484L99.4238 165.804ZM27.7672 96.7945L17.4779 107.085C36.9252 150.6 71.6611 171.461 86.9207 176.6L97.2205 166.298C78.1299 159.273 62.1327 145.393 50.2135 131.485C38.5767 117.907 30.7814 104.247 27.7672 96.7945Z" fill="#0C151D"/>
</g>
<path d="M139.936 128.595C136.488 132.043 117.298 118.44 97.0735 98.2118C76.8487 77.9838 63.2481 58.7906 66.6954 55.3427C70.1428 51.8947 89.3329 65.4977 109.558 85.7257C129.782 105.954 143.383 125.147 139.936 128.595Z" fill="#0C151D"/>
<path fillRule="evenodd" clipRule="evenodd" d="M144.17 50.4041C144.503 49.8243 145.244 49.6258 145.823 49.9611L152.629 53.9048C153.208 54.2401 153.949 54.0416 154.282 53.4618L158.205 46.6427C158.539 46.0629 159.28 45.8644 159.858 46.1997L166.665 50.1434C167.243 50.4787 167.984 50.2802 168.318 49.7004L170.845 45.3073C171.179 44.7276 171.919 44.529 172.498 44.8643L175.25 46.4588C175.826 46.7927 176.024 47.5299 175.692 48.1072L170.369 57.3586C170.036 57.9384 169.295 58.1369 168.716 57.8016L161.91 53.8579C161.331 53.5226 160.59 53.7211 160.257 54.3009L156.334 61.12C156 61.6998 155.26 61.8983 154.681 61.563L147.875 57.6192C147.296 57.284 146.555 57.4825 146.221 58.0623L142.299 64.8814C141.965 65.4612 141.224 65.6597 140.645 65.3244L131.411 59.974C130.835 59.6401 130.638 58.9029 130.97 58.3256L132.556 55.5685C132.889 54.9888 133.63 54.7902 134.209 55.1255L138.594 57.6662C139.172 58.0015 139.913 57.803 140.247 57.2232L144.17 50.4041Z" fill="#C1EF78"/>
<path fillRule="evenodd" clipRule="evenodd" d="M159.557 46.723C159.268 46.5554 158.897 46.6547 158.731 46.9445L154.808 53.7637C154.307 54.6333 153.196 54.9311 152.328 54.4282L145.522 50.4844C145.232 50.3168 144.862 50.4161 144.695 50.7059L140.772 57.5251C140.272 58.3947 139.161 58.6925 138.293 58.1896L133.908 55.6489C133.618 55.4813 133.248 55.5805 133.081 55.8704L131.495 58.6274C131.329 58.9161 131.428 59.2847 131.716 59.4516L140.95 64.8021C141.239 64.9697 141.61 64.8704 141.777 64.5806L145.699 57.7614C146.2 56.8918 147.311 56.594 148.179 57.0969L154.985 61.0407C155.275 61.2083 155.645 61.109 155.812 60.8192L159.735 54C160.235 53.1304 161.346 52.8326 162.214 53.3355L169.021 57.2793C169.31 57.4469 169.681 57.3477 169.847 57.0578L175.17 47.8064C175.336 47.5177 175.237 47.1491 174.949 46.9822L172.197 45.3877C171.908 45.22 171.537 45.3193 171.37 45.6092L168.843 50.0023C168.343 50.8719 167.231 51.1697 166.363 50.6668L159.557 46.723ZM157.683 46.3418C158.183 45.4722 159.295 45.1744 160.163 45.6773L166.969 49.6211C167.259 49.7887 167.629 49.6895 167.796 49.3996L170.323 45.0065C170.823 44.1369 171.935 43.839 172.803 44.342L175.554 45.9364C176.419 46.4373 176.715 47.5431 176.217 48.4091L170.895 57.6605C170.394 58.5301 169.283 58.8279 168.415 58.325L161.609 54.3812C161.319 54.2136 160.949 54.3129 160.782 54.6027L156.859 61.4219C156.359 62.2915 155.248 62.5893 154.38 62.0864L147.573 58.1426C147.284 57.975 146.914 58.0743 146.747 58.3641L142.824 65.1833C142.324 66.0529 141.212 66.3507 140.344 65.8478L131.11 60.4974C130.246 59.9965 129.95 58.8907 130.448 58.0247L132.034 55.2677C132.534 54.3981 133.645 54.1003 134.513 54.6032L138.898 57.1439C139.188 57.3115 139.558 57.2123 139.725 56.9224L143.648 50.1032C144.148 49.2336 145.259 48.9358 146.127 49.4387L152.934 53.3825C153.223 53.5501 153.594 53.4509 153.76 53.161L157.683 46.3418Z" fill="#0C151D"/>
<path d="M147.443 111.112L151.08 107.35L156.399 108.712L157.792 113.913L153.866 117.753L148.836 116.313L147.443 111.112Z" fill="white"/>
<path fillRule="evenodd" clipRule="evenodd" d="M150.824 106.877C150.977 106.724 151.199 106.665 151.408 106.721L156.608 108.114C156.816 108.17 156.979 108.333 157.035 108.542L158.428 113.743C158.484 113.951 158.425 114.174 158.272 114.326L154.465 118.134C154.313 118.286 154.09 118.346 153.882 118.29L148.681 116.897C148.473 116.841 148.31 116.678 148.254 116.469L146.861 111.268C146.805 111.06 146.865 110.837 147.017 110.685L150.824 106.877ZM148.299 111.966L149.331 115.82L153.184 116.852L152.151 112.999L148.299 111.966ZM153.318 112.686L154.351 116.539L157.171 113.719L156.139 109.865L153.318 112.686ZM155.284 109.011L152.464 111.831L148.612 110.799L151.432 107.978L155.284 109.011Z" fill="#0C151D"/>
<path fillRule="evenodd" clipRule="evenodd" d="M183.952 76.4545C188.102 76.381 191.452 73.0331 191.531 68.8844L191.534 68.8844C191.612 73.0335 194.963 76.3817 199.113 76.4546L199.113 76.4557C194.956 76.5286 191.6 79.8885 191.533 84.0479L191.531 84.0479C191.464 79.889 188.109 76.5294 183.952 76.4558L183.952 76.4545Z" fill="#0C151D"/>
<path fillRule="evenodd" clipRule="evenodd" d="M65.1749 10.7391C62.5167 9.38213 59.2571 10.3781 57.8112 12.9905L57.8099 12.9898C59.1707 10.3325 58.1788 7.07175 55.5705 5.62217L55.5709 5.62141C58.2242 6.97513 61.4761 5.98512 62.9257 3.38358L62.9275 3.38452C61.5775 6.03957 62.5709 9.29168 65.1753 10.7384L65.1749 10.7391Z" fill="#0C151D"/>
<path d="M68.0673 46.768C68.0673 48.2547 66.8621 49.4599 65.3754 49.4599C63.8888 49.4599 62.6836 48.2547 62.6836 46.768C62.6836 45.2814 63.8888 44.0762 65.3754 44.0762C66.8621 44.0762 68.0673 45.2814 68.0673 46.768Z" fill="white"/>
<path fillRule="evenodd" clipRule="evenodd" d="M65.378 44.68C64.225 44.68 63.2904 45.6147 63.2904 46.7677C63.2904 47.9207 64.225 48.8554 65.378 48.8554C66.531 48.8554 67.4657 47.9207 67.4657 46.7677C67.4657 45.6147 66.531 44.68 65.378 44.68ZM62.082 46.7677C62.082 44.9474 63.5577 43.4717 65.378 43.4717C67.1984 43.4717 68.674 44.9474 68.674 46.7677C68.674 48.588 67.1984 50.0637 65.378 50.0637C63.5577 50.0637 62.082 48.588 62.082 46.7677Z" fill="#0C151D"/>
<path d="M204.497 108.834C204.497 110.321 203.292 111.526 201.805 111.526C200.318 111.526 199.113 110.321 199.113 108.834C199.113 107.348 200.318 106.143 201.805 106.143C203.292 106.143 204.497 107.348 204.497 108.834Z" fill="white"/>
<path fillRule="evenodd" clipRule="evenodd" d="M201.808 106.746C200.655 106.746 199.72 107.681 199.72 108.834C199.72 109.987 200.655 110.922 201.808 110.922C202.961 110.922 203.895 109.987 203.895 108.834C203.895 107.681 202.961 106.746 201.808 106.746ZM198.512 108.834C198.512 107.014 199.987 105.538 201.808 105.538C203.628 105.538 205.104 107.014 205.104 108.834C205.104 110.654 203.628 112.13 201.808 112.13C199.987 112.13 198.512 110.654 198.512 108.834Z" fill="#0C151D"/>
<path fillRule="evenodd" clipRule="evenodd" d="M137.783 90.185C128.207 92.9462 119.524 99.1188 114.548 103.955L107.205 96.3781C113.086 90.6624 123.256 83.3586 134.953 79.9858C146.866 76.5507 160.768 77.1434 172.723 88.0968L165.517 95.9648C156.935 88.1014 147.143 87.486 137.783 90.185Z" fill="white"/>
<path fillRule="evenodd" clipRule="evenodd" d="M134.785 79.4059C146.841 75.9297 160.98 76.519 173.131 87.652L173.577 88.0602L165.555 96.8193L165.109 96.4111C156.721 88.7263 147.166 88.109 137.951 90.7663C128.494 93.4931 119.895 99.6021 114.969 104.39L114.535 104.811L106.351 96.3661L106.784 95.9455C112.715 90.1807 122.969 82.8133 134.785 79.4059ZM171.867 88.1381C160.21 77.7549 146.741 77.2163 135.12 80.5672C123.826 83.8239 113.95 90.7941 108.061 96.394L114.564 103.104C119.652 98.2861 128.195 92.3216 137.616 89.6051C146.959 86.911 156.807 87.4581 165.476 95.1158L171.867 88.1381Z" fill="#0C151D"/>
<path fillRule="evenodd" clipRule="evenodd" d="M92.5679 51.8438C92.816 61.8085 89.5427 71.9473 86.4281 78.149L95.8623 82.8732C99.543 75.5444 103.448 63.6466 103.144 51.4749C102.836 39.0787 98.0879 25.9967 84.0468 17.8887L78.7127 27.1293C88.7927 32.9499 92.3253 42.1038 92.5679 51.8438Z" fill="white"/>
<path fillRule="evenodd" clipRule="evenodd" d="M103.745 51.46C103.433 38.9153 98.617 25.6064 84.3457 17.3655L83.8225 17.0633L77.8841 27.3505L78.4074 27.6526C88.2585 33.3411 91.7218 42.2693 91.9607 51.8589C92.2057 61.6991 88.9679 71.7392 85.885 77.8778L85.6134 78.4185L96.1282 83.6838L96.399 83.1445C100.111 75.7528 104.051 63.7561 103.745 51.46ZM84.2626 18.7179C97.6704 26.7131 102.236 39.3975 102.537 51.4901C102.83 63.2427 99.1549 74.7594 95.5871 82.0613L87.2327 77.8778C90.2958 71.5751 93.4128 61.6318 93.1686 51.8288C92.9265 42.1067 89.4421 32.8782 79.532 26.9129L84.2626 18.7179Z" fill="#0C151D"/>
<path d="M122.684 14.1436C123.264 13.3492 124.499 13.5435 124.808 14.4775L128.865 26.7751C129.149 27.6362 128.419 28.492 127.524 28.3467L115.87 26.4552C114.98 26.3108 114.556 25.2778 115.087 24.5496L122.684 14.1436Z" fill="white"/>
<path fillRule="evenodd" clipRule="evenodd" d="M127.718 27.1538L123.66 14.8563L116.063 25.2623L127.718 27.1538ZM124.808 14.4775C124.499 13.5435 123.264 13.3492 122.684 14.1436L115.087 24.5496C114.556 25.2778 114.98 26.3108 115.87 26.4552L127.524 28.3467C128.419 28.492 129.149 27.6362 128.865 26.7751L124.808 14.4775Z" fill="#0C151D"/>
<path d="M128.615 27.1381C128.354 28.7465 125.133 29.562 121.421 28.9595C117.709 28.357 115.079 26.592 115.34 24.9836C115.601 23.3752 118.654 22.5324 122.366 23.1349C126.078 23.7374 128.876 25.5297 128.615 27.1381Z" fill="white"/>
<path fillRule="evenodd" clipRule="evenodd" d="M127.422 26.9447L127.422 26.9445L127.422 26.9443C127.423 26.9386 127.44 26.8389 127.282 26.6134C127.117 26.3788 126.811 26.0858 126.329 25.7767C125.367 25.1609 123.905 24.6089 122.172 24.3276C120.44 24.0464 118.927 24.1156 117.871 24.3976C116.704 24.7092 116.541 25.1281 116.533 25.1772C116.525 25.2262 116.547 25.6751 117.555 26.3398C118.468 26.9414 119.882 27.4855 121.614 27.7668C123.347 28.048 124.909 27.9867 126.016 27.7065C126.571 27.5659 126.954 27.3847 127.184 27.2143C127.406 27.0505 127.421 26.9505 127.422 26.9447ZM121.421 28.9595C125.133 29.562 128.354 28.7465 128.615 27.1381C128.876 25.5297 126.078 23.7374 122.366 23.1349C118.654 22.5324 115.601 23.3752 115.34 24.9836C115.079 26.592 117.709 28.357 121.421 28.9595Z" fill="#0C151D"/>
</svg>
