<svg width="600" height="216" viewBox="0 0 600 216" fill="none" xmlns="http://www.w3.org/2000/svg">
<path d="M867.371 348.522L678.366 348.522C746.199 348.055 801.043 293.163 801.043 225.518C801.043 157.583 745.728 102.51 677.494 102.51L450.989 102.506L450.989 -1.98018e-05L677.495 1.45213e-05C802.59 0.000482093 904 100.97 904 225.518C904 270.897 890.537 313.147 867.371 348.522Z" fill="#CCF88E"/>
<path d="M36.6288 348.522L225.634 348.522C157.801 348.055 102.957 293.163 102.957 225.518C102.957 157.583 158.272 102.51 226.506 102.51L453.011 102.506L453.011 -1.98018e-05L226.505 1.45213e-05C101.41 0.000482093 4.41355e-06 100.97 9.85769e-06 225.518C1.18413e-05 270.897 13.4628 313.147 36.6288 348.522Z" fill="#CCF88E"/>
</svg>
