<svg width="249" height="242" viewBox="0 0 249 242" fill="none" xmlns="http://www.w3.org/2000/svg">
<path fillRule="evenodd" clipRule="evenodd" d="M130.579 132.635C126.958 132.159 123.745 134.977 123.745 138.628V167.918C123.75 164.888 125.997 162.329 129.002 161.934L231.767 148.412C235.387 147.936 238.6 150.754 238.6 154.405L238.6 152.15C238.6 149.116 236.352 146.553 233.344 146.157L130.579 132.635Z" fill="#E5E5E5"/>
<path fillRule="evenodd" clipRule="evenodd" d="M130.382 134.133L233.147 147.655C233.503 147.702 233.845 147.79 234.169 147.913C236.696 148.613 238.6 150.93 238.6 153.741L238.6 152.15C238.6 149.116 236.352 146.553 233.344 146.157L130.579 132.635C126.958 132.159 123.745 134.977 123.745 138.628V167.254C123.747 165.734 124.314 164.333 125.256 163.264V138.628C125.256 135.89 127.666 133.776 130.382 134.133Z" fill="#0C151D"/>
<path fillRule="evenodd" clipRule="evenodd" d="M118.423 132.635C122.043 132.159 125.256 134.977 125.256 138.628V167.918C125.252 164.888 123.005 162.329 120 161.934L17.2349 148.412C13.6144 147.936 10.4013 150.754 10.4013 154.405L10.4013 152.15C10.4013 149.116 12.6499 146.553 15.6577 146.157L118.423 132.635Z" fill="#E5E5E5"/>
<path fillRule="evenodd" clipRule="evenodd" d="M118.62 134.133L15.8554 147.655C15.4991 147.702 15.157 147.79 14.8334 147.913C12.3055 148.613 10.4019 150.93 10.4019 153.741V152.15C10.4019 149.116 12.6505 146.553 15.6583 146.157L118.423 132.635C122.044 132.159 125.257 134.977 125.257 138.628V167.263C125.257 165.74 124.69 164.335 123.746 163.264V138.628C123.746 135.89 121.336 133.776 118.62 134.133Z" fill="#0C151D"/>
<path d="M10.4014 154.583C10.4014 150.931 13.6144 148.113 17.235 148.59L120 162.111C123.008 162.507 125.256 165.071 125.256 168.105V241.189H124.501H123.745L15.6578 226.967C12.65 226.571 10.4014 224.007 10.4014 220.974V154.583Z" fill="white"/>
<path d="M10.4014 154.583C10.4014 150.931 13.6144 148.113 17.235 148.59L120 162.111C123.008 162.507 125.256 165.071 125.256 168.105V241.189H124.501H123.745L15.6578 226.967C12.65 226.571 10.4014 224.007 10.4014 220.974V154.583Z" fill="#0C151D"/>
<path fillRule="evenodd" clipRule="evenodd" d="M119.803 163.61L17.0378 150.088C14.3224 149.731 11.9126 151.844 11.9126 154.583V220.974C11.9126 223.249 13.5991 225.172 15.8549 225.469L123.745 239.665V168.105C123.745 165.829 122.059 163.907 119.803 163.61ZM125.256 168.105C125.256 165.071 123.008 162.507 120 162.111L17.235 148.59C13.6144 148.113 10.4014 150.931 10.4014 154.583V220.974C10.4014 224.007 12.65 226.571 15.6578 226.967L123.745 241.191H124.501H125.256V168.105Z" fill="#0C151D"/>
<path d="M238.6 154.586C238.6 150.934 235.387 148.116 231.766 148.592L129.001 162.114C125.994 162.51 123.745 165.073 123.745 168.107V239.123C124.677 240.398 126.23 241.063 127.796 240.857L233.344 226.969C236.352 226.574 238.6 224.01 238.6 220.976V154.586Z" fill="white"/>
<mask id="path-9-inside-1_4680_116561" fill="white">
<path fillRule="evenodd" clipRule="evenodd" d="M129.199 163.61L231.964 150.088C234.679 149.731 237.089 151.844 237.089 154.583V220.974C237.089 223.249 235.402 225.172 233.147 225.469L125.256 239.665V168.105C125.256 165.829 126.943 163.907 129.199 163.61ZM123.745 168.105C123.745 165.071 125.994 162.507 129.001 162.111L231.766 148.59C235.387 148.113 238.6 150.931 238.6 154.583V220.974C238.6 224.007 236.352 226.571 233.344 226.967L125.256 241.189L123.745 239.665V168.105Z"/>
</mask>
<path fillRule="evenodd" clipRule="evenodd" d="M129.199 163.61L231.964 150.088C234.679 149.731 237.089 151.844 237.089 154.583V220.974C237.089 223.249 235.402 225.172 233.147 225.469L125.256 239.665V168.105C125.256 165.829 126.943 163.907 129.199 163.61ZM123.745 168.105C123.745 165.071 125.994 162.507 129.001 162.111L231.766 148.59C235.387 148.113 238.6 150.931 238.6 154.583V220.974C238.6 224.007 236.352 226.571 233.344 226.967L125.256 241.189L123.745 239.665V168.105Z" fill="#0C151D"/>
<path d="M231.964 150.088L231.699 148.078L231.964 150.088ZM129.199 163.61L128.934 161.6L129.199 163.61ZM233.147 225.469L233.411 227.479H233.411L233.147 225.469ZM125.256 239.665L125.521 241.675L123.229 241.976V239.665H125.256ZM129.001 162.111L129.266 164.121L129.001 162.111ZM231.766 148.59L232.031 150.6L231.766 148.59ZM233.344 226.967L233.608 228.977H233.608L233.344 226.967ZM123.745 239.665L122.305 241.092L121.718 240.499V239.665H123.745ZM125.256 241.189L125.521 243.199L124.524 243.33L123.817 242.616L125.256 241.189ZM232.228 152.098L129.463 165.62L128.934 161.6L231.699 148.078L232.228 152.098ZM235.062 154.583C235.062 153.069 233.729 151.901 232.228 152.098L231.699 148.078C235.629 147.561 239.116 150.62 239.116 154.583H235.062ZM235.062 220.974V154.583H239.116V220.974H235.062ZM232.882 223.459C234.129 223.295 235.062 222.232 235.062 220.974H239.116C239.116 224.266 236.676 227.049 233.411 227.479L232.882 223.459ZM124.992 237.655L232.882 223.459L233.411 227.479L125.521 241.675L124.992 237.655ZM127.284 168.105V239.665H123.229V168.105H127.284ZM129.463 165.62C128.216 165.784 127.284 166.847 127.284 168.105H123.229C123.229 164.812 125.67 162.029 128.934 161.6L129.463 165.62ZM129.266 164.121C127.267 164.384 125.772 166.088 125.772 168.105H121.718C121.718 164.054 124.721 160.63 128.737 160.101L129.266 164.121ZM232.031 150.6L129.266 164.121L128.737 160.101L231.502 146.58L232.031 150.6ZM236.573 154.583C236.573 152.156 234.437 150.283 232.031 150.6L231.502 146.58C236.337 145.944 240.627 149.707 240.627 154.583H236.573ZM236.573 220.974V154.583H240.627V220.974H236.573ZM233.079 224.957C235.078 224.694 236.573 222.99 236.573 220.974H240.627C240.627 225.025 237.625 228.449 233.608 228.977L233.079 224.957ZM125.772 168.105V239.665H121.718V168.105H125.772ZM125.185 238.237L126.696 239.762L123.817 242.616L122.305 241.092L125.185 238.237ZM124.992 239.179L233.079 224.957L233.608 228.977L125.521 243.199L124.992 239.179Z" fill="black" mask="url(#path-9-inside-1_4680_116561)"/>
<path d="M247.129 168.019L237.312 149.54C236.722 148.43 235.507 147.8 234.26 147.959L128.311 161.47C126.153 161.745 124.984 164.141 126.095 166.011L137.086 184.523C137.702 185.56 138.876 186.132 140.072 185.977L244.848 172.435C246.942 172.164 248.12 169.884 247.129 168.019Z" fill="white"/>
<path fillRule="evenodd" clipRule="evenodd" d="M234.389 148.965C235.217 148.86 236.025 149.278 236.417 150.015L246.234 168.495C246.893 169.735 246.11 171.25 244.718 171.43L139.943 184.972C139.147 185.075 138.367 184.695 137.958 184.006L126.966 165.494C126.228 164.251 127.005 162.658 128.44 162.475L234.389 148.965ZM238.207 149.064C237.42 147.582 235.797 146.742 234.132 146.954L128.183 160.464C125.302 160.832 123.74 164.031 125.223 166.529L136.215 185.041C137.037 186.426 138.605 187.189 140.202 186.983L244.978 173.44C247.774 173.079 249.348 170.034 248.025 167.544L238.207 149.064Z" fill="#0C151D"/>
<path d="M1.87066 168.019L11.688 149.54C12.2777 148.43 13.4928 147.8 14.7396 147.959L120.689 161.47C122.847 161.745 124.016 164.141 122.905 166.011L111.914 184.523C111.298 185.56 110.124 186.132 108.928 185.977L4.15244 172.435C2.05822 172.164 0.879976 169.884 1.87066 168.019Z" fill="white"/>
<path fillRule="evenodd" clipRule="evenodd" d="M14.6112 148.965C13.7826 148.86 12.975 149.278 12.5831 150.015L2.76574 168.495C2.10729 169.735 2.8904 171.25 4.28229 171.43L109.057 184.972C109.853 185.075 110.633 184.695 111.042 184.006L122.034 165.494C122.772 164.251 121.995 162.658 120.56 162.475L14.6112 148.965ZM10.7928 149.064C11.5802 147.582 13.2028 146.742 14.8677 146.954L120.817 160.464C123.698 160.832 125.26 164.031 123.777 166.529L112.785 185.041C111.963 186.426 110.395 187.189 108.798 186.983L4.02242 173.44C1.22586 173.079 -0.34752 170.034 0.975411 167.544L10.7928 149.064Z" fill="#0C151D"/>
<path d="M123.745 164.319H125.256V174.898H123.745V164.319Z" fill="#0C151D"/>
<path fillRule="evenodd" clipRule="evenodd" d="M124.501 19.0547L60.6411 42.3088L84.0438 120.943C84.5742 122.726 85.7012 124.271 87.2358 125.322L124.501 150.828L161.766 125.322C163.3 124.271 164.427 122.726 164.958 120.943L188.36 42.3088L124.501 19.0547H124.501Z" fill="#217BBB"/>
<path fillRule="evenodd" clipRule="evenodd" d="M124.322 18.041H124.679L189.604 41.683L165.929 121.232C165.332 123.237 164.064 124.977 162.338 126.158L124.5 152.056L86.6629 126.158C84.9365 124.977 83.6687 123.237 83.0719 121.232L59.397 41.683L124.322 18.041ZM124.5 20.1334L61.8846 42.9346L85.015 120.654C85.4791 122.214 86.4652 123.566 87.808 124.485L124.5 149.6L161.193 124.485C162.535 123.566 163.522 122.214 163.986 120.654L187.116 42.9346L124.5 20.1334Z" fill="#0C151D"/>
<path fillRule="evenodd" clipRule="evenodd" d="M159.52 64.3897L122.519 107.829C119.099 111.845 112.795 111.568 109.743 107.268L91.5405 81.6233L98.1471 76.97L116.35 102.615L153.35 59.175L159.52 64.3897Z" fill="white"/>
<path fillRule="evenodd" clipRule="evenodd" d="M162.383 64.1552L124.063 109.144C119.786 114.165 111.907 113.819 108.09 108.441L88.7095 81.1377L98.6309 74.1496L116.495 99.3174L153.116 56.3232L162.383 64.1552ZM153.35 59.1752L159.52 64.3898L122.519 107.829C119.099 111.845 112.795 111.568 109.743 107.268L91.5404 81.6236L98.1467 76.9703L116.35 102.615L153.35 59.1752Z" fill="#0C151D"/>
<path d="M167.084 158.204L172.434 152.67L180.259 154.673L182.309 162.323L176.534 167.971L169.134 165.854L167.084 158.204Z" fill="white"/>
<path fillRule="evenodd" clipRule="evenodd" d="M171.968 151.646C172.224 151.391 172.597 151.291 172.947 151.384L180.597 153.431C180.947 153.525 181.22 153.797 181.314 154.147L183.363 161.785C183.457 162.134 183.357 162.507 183.101 162.762L177.501 168.354C177.245 168.609 176.872 168.709 176.522 168.616L168.872 166.569C168.522 166.475 168.249 166.203 168.155 165.853L166.105 158.215C166.011 157.866 166.111 157.493 166.367 157.238L171.968 151.646ZM168.518 159.385L169.962 164.765L175.351 166.207L173.907 160.826L168.518 159.385ZM175.865 160.302L177.309 165.683L181.254 161.744L179.81 156.364L175.865 160.302ZM178.376 154.932L174.431 158.871L169.042 157.429L172.987 153.491L178.376 154.932Z" fill="#0C151D"/>
<path fillRule="evenodd" clipRule="evenodd" d="M22.1222 25.5946C28.2249 25.486 33.1526 20.5626 33.2683 14.4616L33.2729 14.4616C33.3886 20.5637 38.3181 25.4878 44.4224 25.5947L44.4224 25.5963C38.3073 25.7034 33.3711 30.6447 33.2723 36.7617L33.2688 36.7617C33.17 30.6458 28.2357 25.7052 22.1222 25.5964L22.1222 25.5946Z" fill="#0C151D"/>
<path fillRule="evenodd" clipRule="evenodd" d="M44.4223 8.90826C48.8615 8.82928 52.4459 5.24731 52.5287 0.809081L52.5321 0.809081C52.6149 5.24804 56.2004 8.83044 60.6406 8.9083L60.6406 8.90944C56.1942 8.98741 52.6049 12.5798 52.5318 17.0273L52.5292 17.0273C52.4561 12.5804 48.8678 8.98853 44.4223 8.90953L44.4223 8.90826Z" fill="#0C151D"/>
<path fillRule="evenodd" clipRule="evenodd" d="M229.921 106.228C230.037 112.331 234.968 117.256 241.073 117.363L241.073 117.365C234.957 117.472 230.02 122.414 229.921 128.532L229.917 128.532C229.819 122.415 224.883 117.474 218.769 117.365L218.769 117.363C224.873 117.254 229.801 112.33 229.917 106.228L229.921 106.228Z" fill="#0C151D"/>
<path d="M61.4902 128.777C64.587 127.637 67.6759 130.477 66.8002 133.658L61.932 151.345C61.1246 154.279 57.4942 155.311 55.2644 153.241L43.0039 141.86C40.7869 139.802 41.5229 136.128 44.3616 135.083L61.4902 128.777Z" fill="white"/>
<path fillRule="evenodd" clipRule="evenodd" d="M59.9774 150.807L64.8456 133.12C65.2835 131.53 63.739 130.11 62.1906 130.68L45.062 136.986C43.6426 137.508 43.2746 139.345 44.3832 140.374L56.6436 151.755C57.7585 152.79 59.5737 152.274 59.9774 150.807ZM66.8002 133.658C67.6759 130.477 64.587 127.637 61.4902 128.777L44.3616 135.083C41.5229 136.128 40.7869 139.802 43.0039 141.86L55.2644 153.241C57.4942 155.311 61.1246 154.279 61.932 151.345L66.8002 133.658Z" fill="#0C151D"/>
<path d="M60.3862 154.445C58.2758 156.719 52.3116 154.613 47.0646 149.743C41.8176 144.872 39.5124 139.301 41.6227 137.028C43.7331 134.754 49.4598 136.639 54.7068 141.51C59.9538 146.381 62.4965 152.172 60.3862 154.445Z" fill="white"/>
<path fillRule="evenodd" clipRule="evenodd" d="M58.0525 153.33C58.6314 153.301 58.8338 153.138 58.9004 153.066C58.9669 152.994 59.1149 152.78 59.1003 152.201C59.0854 151.609 58.8967 150.786 58.4492 149.767C57.5572 147.735 55.7974 145.288 53.3276 142.996C50.8576 140.703 48.3547 139.193 46.3386 138.51C44.1398 137.766 43.2904 138.211 43.1085 138.407C42.9266 138.603 42.5458 139.483 43.4513 141.62C44.2816 143.58 45.9739 145.964 48.4438 148.257C50.9136 150.55 53.4841 152.123 55.5765 152.861C56.626 153.232 57.4606 153.359 58.0525 153.33ZM47.0646 149.743C52.3116 154.613 58.2758 156.719 60.3862 154.445C62.4965 152.172 59.9538 146.381 54.7068 141.51C49.4598 136.639 43.7331 134.754 41.6227 137.028C39.5124 139.301 41.8176 144.872 47.0646 149.743Z" fill="#0C151D"/>
<path d="M202.362 75.724C202.362 77.911 200.589 79.684 198.401 79.684C196.214 79.684 194.441 77.911 194.441 75.724C194.441 73.5369 196.214 71.7639 198.401 71.7639C200.589 71.7639 202.362 73.5369 202.362 75.724Z" fill="white"/>
<path fillRule="evenodd" clipRule="evenodd" d="M198.401 72.7778C196.774 72.7778 195.455 74.0969 195.455 75.7242C195.455 77.3514 196.774 78.6706 198.401 78.6706C200.029 78.6706 201.348 77.3514 201.348 75.7242C201.348 74.0969 200.029 72.7778 198.401 72.7778ZM193.428 75.7242C193.428 72.9773 195.655 70.7505 198.401 70.7505C201.148 70.7505 203.375 72.9773 203.375 75.7242C203.375 78.4711 201.148 80.6979 198.401 80.6979C195.655 80.6979 193.428 78.4711 193.428 75.7242Z" fill="#0C151D"/>
</svg>
