<svg width="249" height="224" viewBox="0 0 249 224" fill="none" xmlns="http://www.w3.org/2000/svg">
<path fillRule="evenodd" clipRule="evenodd" d="M130.578 114.555C126.958 114.078 123.745 116.896 123.745 120.548V149.838C123.749 146.808 125.996 144.249 129.001 143.853L231.766 130.332C235.386 129.855 238.599 132.673 238.599 136.325L238.599 134.07C238.599 131.036 236.351 128.472 233.343 128.077L130.578 114.555Z" fill="#E5E5E5"/>
<path fillRule="evenodd" clipRule="evenodd" d="M130.381 116.053L233.146 129.575C233.502 129.622 233.844 129.709 234.168 129.832C236.696 130.533 238.599 132.85 238.599 135.661L238.599 134.07C238.599 131.036 236.351 128.472 233.343 128.077L130.578 114.555C126.958 114.078 123.745 116.896 123.745 120.548V149.173C123.747 147.654 124.313 146.253 125.256 145.184V120.548C125.256 117.809 127.666 115.696 130.381 116.053Z" fill="#0C151D"/>
<path fillRule="evenodd" clipRule="evenodd" d="M118.422 114.555C122.042 114.078 125.255 116.896 125.255 120.548V149.838C125.251 146.808 123.004 144.249 119.999 143.853L17.2342 130.332C13.6136 129.855 10.4006 132.673 10.4006 136.325L10.4006 134.07C10.4006 131.036 12.6492 128.472 15.657 128.077L118.422 114.555Z" fill="#E5E5E5"/>
<path fillRule="evenodd" clipRule="evenodd" d="M118.619 116.053L15.8544 129.575C15.4981 129.622 15.156 129.709 14.8324 129.832C12.3046 130.533 10.4009 132.85 10.4009 135.661V134.07C10.4009 131.036 12.6495 128.472 15.6573 128.077L118.422 114.555C122.043 114.078 125.256 116.896 125.256 120.548V149.182C125.256 147.66 124.689 146.255 123.744 145.184V120.548C123.744 117.809 121.335 115.696 118.619 116.053Z" fill="#0C151D"/>
<path d="M10.4009 136.503C10.4009 132.851 13.6139 130.033 17.2345 130.509L119.999 144.031C123.007 144.427 125.256 146.99 125.256 150.024V223.108H124.5H123.744L15.6573 208.887C12.6495 208.491 10.4009 205.927 10.4009 202.893V136.503Z" fill="white"/>
<path d="M10.4009 136.503C10.4009 132.851 13.6139 130.033 17.2345 130.509L119.999 144.031C123.007 144.427 125.256 146.99 125.256 150.024V223.108H124.5H123.744L15.6573 208.887C12.6495 208.491 10.4009 205.927 10.4009 202.893V136.503Z" fill="#0C151D"/>
<path fillRule="evenodd" clipRule="evenodd" d="M119.802 145.529L17.0373 132.008C14.3219 131.65 11.9121 133.764 11.9121 136.503V202.893C11.9121 205.168 13.5986 207.091 15.8544 207.388L123.744 221.584V150.024C123.744 147.749 122.058 145.826 119.802 145.529ZM125.256 150.024C125.256 146.99 123.007 144.427 119.999 144.031L17.2345 130.509C13.6139 130.033 10.4009 132.851 10.4009 136.503V202.893C10.4009 205.927 12.6495 208.491 15.6573 208.886L123.744 223.111H124.5H125.256V150.024Z" fill="#0C151D"/>
<path d="M238.599 136.505C238.599 132.853 235.386 130.035 231.765 130.512L129 144.034C125.992 144.429 123.744 146.993 123.744 150.027V221.043C124.676 222.318 126.229 222.983 127.795 222.777L233.342 208.889C236.35 208.493 238.599 205.93 238.599 202.896V136.505Z" fill="white"/>
<path fillRule="evenodd" clipRule="evenodd" d="M129.197 145.529L231.962 132.008C234.678 131.65 237.087 133.764 237.087 136.503V202.893C237.087 205.168 235.401 207.091 233.145 207.388L125.255 221.584V150.024C125.255 147.749 126.942 145.826 129.197 145.529ZM123.744 150.024C123.744 146.99 125.992 144.427 129 144.031L231.765 130.509C235.386 130.033 238.599 132.851 238.599 136.503V202.893C238.599 205.927 236.35 208.491 233.342 208.887L125.255 223.108L123.744 221.584V150.024Z" fill="#0C151D"/>
<path d="M123.745 146.238H125.256V156.817H123.745V146.238Z" fill="#0C151D"/>
<path d="M247.129 149.939L237.312 131.459C236.722 130.349 235.507 129.72 234.26 129.879L128.311 143.389C126.153 143.665 124.984 146.06 126.094 147.931L137.086 166.442C137.702 167.48 138.876 168.052 140.072 167.897L244.847 154.355C246.941 154.084 248.12 151.804 247.129 149.939Z" fill="white"/>
<path fillRule="evenodd" clipRule="evenodd" d="M234.388 130.884C235.217 130.778 236.025 131.197 236.416 131.934L246.234 150.414C246.892 151.653 246.109 153.169 244.717 153.349L139.942 166.891C139.147 166.994 138.367 166.614 137.957 165.924L126.966 147.413C126.228 146.17 127.005 144.577 128.439 144.394L234.388 130.884ZM238.207 130.983C237.419 129.501 235.797 128.661 234.132 128.873L128.183 142.383C125.302 142.751 123.74 145.95 125.223 148.448L136.214 166.959C137.037 168.345 138.604 169.108 140.202 168.902L244.977 155.359C247.774 154.998 249.347 151.953 248.024 149.463L238.207 130.983Z" fill="#0C151D"/>
<path d="M1.87066 149.939L11.688 131.459C12.2777 130.349 13.4927 129.72 14.7395 129.879L120.689 143.389C122.846 143.665 124.016 146.06 122.905 147.931L111.914 166.442C111.298 167.48 110.124 168.052 108.927 167.897L4.15243 154.355C2.05822 154.084 0.879977 151.804 1.87066 149.939Z" fill="white"/>
<path fillRule="evenodd" clipRule="evenodd" d="M14.6112 130.884C13.7826 130.778 12.975 131.197 12.5831 131.934L2.76574 150.414C2.10729 151.653 2.89039 153.169 4.28228 153.349L109.057 166.891C109.852 166.994 110.633 166.614 111.042 165.924L122.033 147.413C122.772 146.17 121.994 144.577 120.56 144.394L14.6112 130.884ZM10.7927 130.983C11.5802 129.501 13.2027 128.661 14.8677 128.873L120.817 142.383C123.698 142.751 125.26 145.95 123.777 148.448L112.785 166.959C111.963 168.345 110.395 169.108 108.797 168.902L4.02241 155.359C1.22586 154.998 -0.347518 151.953 0.97541 149.463L10.7927 130.983Z" fill="#0C151D"/>
<path d="M118.962 3.00165C120.522 0.29861 124.424 0.298599 125.984 3.00164L190.067 113.995C191.627 116.698 189.676 120.077 186.555 120.077H58.3907C55.2695 120.077 53.3187 116.698 54.8793 113.995L118.962 3.00165Z" fill="#F6614E"/>
<path fillRule="evenodd" clipRule="evenodd" d="M188.311 115.009L124.229 4.01528C123.448 2.66377 121.498 2.66376 120.717 4.01529L56.635 115.009C55.8547 116.361 56.8301 118.05 58.3907 118.05H186.555C188.116 118.05 189.091 116.361 188.311 115.009ZM125.984 3.00164C124.424 0.298599 120.522 0.29861 118.962 3.00165L54.8793 113.995C53.3187 116.698 55.2695 120.077 58.3907 120.077H186.555C189.676 120.077 191.627 116.698 190.067 113.995L125.984 3.00164Z" fill="#0C151D"/>
<path d="M131.747 40.6306H112.747L116.547 84.9628H127.947L131.747 40.6306Z" fill="#0C151D"/>
<path d="M128.58 97.6291C128.58 101.127 125.744 103.962 122.247 103.962C118.749 103.962 115.914 101.127 115.914 97.6291C115.914 94.1314 118.749 91.2959 122.247 91.2959C125.744 91.2959 128.58 94.1314 128.58 97.6291Z" fill="#0C151D"/>
<path fillRule="evenodd" clipRule="evenodd" d="M50.5041 20.217C56.607 20.1083 61.5348 15.1847 61.6502 9.08349L61.6548 9.08349C61.7702 15.1858 66.6998 20.1102 72.8042 20.217L72.8042 20.2185C66.6892 20.3254 61.753 25.2666 61.654 31.3835L61.6507 31.3835C61.5517 25.2678 56.6175 20.3275 50.5041 20.2186L50.5041 20.217Z" fill="#0C151D"/>
<path fillRule="evenodd" clipRule="evenodd" d="M204.578 84.0928C204.661 88.5318 208.246 92.1141 212.687 92.1918L212.687 92.1932C208.24 92.2711 204.65 95.8636 204.577 100.311L204.574 100.311C204.501 95.8645 200.913 92.2726 196.468 92.1932L196.468 92.1917C200.907 92.1125 204.491 88.5308 204.574 84.0928L204.578 84.0928Z" fill="#0C151D"/>
</svg>
