
<svg width="1092" height="393" viewBox="0 0 1092 393" fill="none" xmlns="http://www.w3.org/2000/svg">
<g opacity="0.1">
<g filter="url(#filter0_f_11678_65222)">
<path d="M155.902 220.614C112.071 216.298 60.0886 244.447 38.3188 259.881C37.5345 260.437 37.0938 261.328 37.0938 262.289V358.943C37.0938 360.6 38.4369 361.943 40.0938 361.943H1051.9C1053.56 361.943 1054.9 360.6 1054.9 358.943V227.988C1054.9 226.341 1053.55 225.006 1051.9 224.949C988.284 222.738 959.014 167.25 954.162 95.2326C949.234 22.0932 894.484 -4.85289 881.344 105.681C868.204 216.215 844.661 233.262 803.598 234.362C762.536 235.462 757.061 188.719 694.645 188.719C632.23 188.719 620.732 239.312 557.769 239.862C494.807 240.412 511.232 150.775 415.419 152.974C319.605 155.174 346.433 241.511 279.09 260.759C211.747 280.006 211.747 226.114 155.902 220.614Z" fill="url(#paint0_linear_11678_65222)"/>
</g>
<path d="M155.902 220.614C112.071 216.298 60.0886 244.447 38.3188 259.881C37.5345 260.437 37.0938 261.328 37.0938 262.289V358.943C37.0938 360.6 38.4369 361.943 40.0938 361.943H1051.9C1053.56 361.943 1054.9 360.6 1054.9 358.943V227.988C1054.9 226.341 1053.55 225.006 1051.9 224.949C988.284 222.738 959.014 167.25 954.162 95.2326C949.234 22.0932 894.484 -4.85289 881.344 105.681C868.204 216.215 844.661 233.262 803.598 234.362C762.536 235.462 757.061 188.719 694.645 188.719C632.23 188.719 620.732 239.312 557.769 239.862C494.807 240.412 511.232 150.775 415.419 152.974C319.605 155.174 346.433 241.511 279.09 260.759C211.747 280.006 211.747 226.114 155.902 220.614Z" fill="url(#paint1_linear_11678_65222)"/>
<g filter="url(#filter1_f_11678_65222)">
<path d="M37.0938 260.759C58.0814 245.544 111.226 216.215 155.902 220.614C211.747 226.114 211.747 280.006 279.09 260.759C346.433 241.511 319.606 155.174 415.419 152.974C511.232 150.775 494.807 240.412 557.769 239.862C620.732 239.312 632.23 188.719 694.645 188.719C757.061 188.719 762.536 235.462 803.598 234.362C844.661 233.262 868.204 216.215 881.344 105.681C894.484 -4.85289 949.234 22.0932 954.162 95.2326C959.089 168.372 989.202 224.463 1054.9 225.013" stroke="#217BBB"/>
</g>
<path d="M37.0938 260.759C58.0814 245.544 111.226 216.215 155.902 220.614C211.747 226.114 211.747 280.006 279.09 260.759C346.433 241.511 319.606 155.174 415.419 152.974C511.232 150.775 494.807 240.412 557.769 239.862C620.732 239.312 632.23 188.719 694.645 188.719C757.061 188.719 762.536 235.462 803.598 234.362C844.661 233.262 868.204 216.215 881.344 105.681C894.484 -4.85289 949.234 22.0932 954.162 95.2326C959.089 168.372 989.202 224.463 1054.9 225.013" stroke="#217BBB"/>
<rect x="0.5" y="12" width="1091" height="349.943" fill="url(#paint2_linear_11678_65222)"/>
</g>
<defs>
<filter id="filter0_f_11678_65222" x="6.59375" y="0.941406" width="1078.81" height="391.504" filterUnits="userSpaceOnUse" color-interpolation-filters="sRGB">
<feFlood flood-opacity="0" result="BackgroundImageFix"/>
<feBlend mode="normal" in="SourceGraphic" in2="BackgroundImageFix" result="shape"/>
<feGaussianBlur stdDeviation="15.25" result="effect1_foregroundBlur_11678_65222"/>
</filter>
<filter id="filter1_f_11678_65222" x="19.7008" y="13.8414" width="1052.31" height="268.653" filterUnits="userSpaceOnUse" color-interpolation-filters="sRGB">
<feFlood flood-opacity="0" result="BackgroundImageFix"/>
<feBlend mode="normal" in="SourceGraphic" in2="BackgroundImageFix" result="shape"/>
<feGaussianBlur stdDeviation="8.55" result="effect1_foregroundBlur_11678_65222"/>
</filter>
<linearGradient id="paint0_linear_11678_65222" x1="545.998" y1="334.497" x2="545.998" y2="31.4414" gradientUnits="userSpaceOnUse">
<stop stop-color="#F6F7F9"/>
<stop offset="1" stop-color="#217BBB"/>
</linearGradient>
<linearGradient id="paint1_linear_11678_65222" x1="545.998" y1="341.358" x2="545.998" y2="31.4414" gradientUnits="userSpaceOnUse">
<stop stop-color="#F6F7F9"/>
<stop offset="0.52" stop-color="#217BBB"/>
</linearGradient>
<linearGradient id="paint2_linear_11678_65222" x1="-91.4382" y1="187.577" x2="1132.57" y2="186.957" gradientUnits="userSpaceOnUse">
<stop stop-color="#F6F7F9"/>
<stop offset="0.405" stop-color="#F6F7F9" stop-opacity="0"/>
<stop offset="0.585" stop-color="#F6F7F9" stop-opacity="0"/>
<stop offset="1" stop-color="#F6F7F9"/>
</linearGradient>
</defs>
</svg>
