<svg width="270" height="197" viewBox="0 0 270 197" fill="none" xmlns="http://www.w3.org/2000/svg">
<g clipPath="url(#clip0_5401_153944)">
<rect width="269.522" height="197" transform="translate(0.239258)" fill="white"/>
<path d="M66.2329 176.512C65.2837 176.844 64.3711 175.932 64.7037 174.983L101.846 68.9601C102.138 68.1257 103.202 67.8831 103.827 68.5083L172.707 137.389C173.332 138.014 173.09 139.077 172.255 139.37L66.2329 176.512Z" fill="white"/>
<path fillRule="evenodd" clipRule="evenodd" d="M63.5711 174.583L100.713 68.5603C101.298 66.8915 103.425 66.4064 104.675 67.6567L173.556 136.537C174.806 137.787 174.321 139.914 172.652 140.499L66.6296 177.641C64.7312 178.306 62.906 176.481 63.5711 174.583ZM64.7036 174.98C64.3711 175.929 65.2837 176.841 66.2329 176.509L172.255 139.367C173.09 139.074 173.332 138.011 172.707 137.385L103.827 68.5052C103.202 67.8801 102.138 68.1226 101.846 68.957L64.7036 174.98Z" fill="#0C151D"/>
<mask id="mask0_5401_153944" style="mask-type:alpha" maskUnits="userSpaceOnUse" x="64" y="68" width="110" height="109">
<path d="M66.2329 176.508C65.2837 176.841 64.3711 175.928 64.7037 174.979L101.846 68.9564C102.138 68.122 103.202 67.8795 103.827 68.5046L172.707 137.385C173.332 138.01 173.09 139.074 172.255 139.366L66.2329 176.508Z" fill="white"/>
</mask>
<g mask="url(#mask0_5401_153944)">
<path d="M157.277 152.532C118.843 138.894 92.807 96.8785 87.4346 82.6897L76.2764 93.8479C95.7826 137.82 130.965 158.731 146.119 163.69L157.277 152.532Z" fill="#217BBB"/>
<path fillRule="evenodd" clipRule="evenodd" d="M158.374 152.291L146.284 164.381L145.933 164.267C130.638 159.261 95.312 138.242 75.7292 94.0976L75.5623 93.7212L87.6682 81.6152L87.997 82.4836C90.6538 89.5 98.465 103.492 110.415 117.433C122.362 131.372 138.397 145.202 157.479 151.973L158.374 152.291ZM87.2119 83.7686L76.9936 93.9869C96.3067 137.194 130.803 157.908 145.957 163.01L156.186 152.782C137.227 145.806 121.34 132.024 109.503 118.214C97.9468 104.732 90.2053 91.1687 87.2119 83.7686Z" fill="#0C151D"/>
<path d="M132.895 176.919C94.461 163.281 68.4252 121.265 63.0527 107.076L51.8945 118.235C71.4007 162.206 106.584 183.118 121.737 188.077L132.895 176.919Z" fill="#217BBB"/>
<path fillRule="evenodd" clipRule="evenodd" d="M133.99 176.669L121.9 188.76L121.549 188.646C106.254 183.64 70.9282 162.621 51.3455 118.476L51.1785 118.1L63.2844 105.994L63.6133 106.863C66.27 113.879 74.0812 127.871 86.0307 141.812C97.9783 155.751 114.014 169.581 133.095 176.352L133.99 176.669ZM62.8281 108.147L52.6098 118.366C71.9229 161.573 106.419 182.287 121.574 187.389L131.802 177.16C112.843 170.185 96.9566 156.403 85.1196 142.593C73.5631 129.11 65.8215 115.548 62.8281 108.147Z" fill="#0C151D"/>
</g>
<path d="M174.222 139.729C170.798 143.153 151.74 129.646 131.655 109.56C111.57 89.4752 98.0629 70.4175 101.487 66.9939C104.91 63.5703 123.968 77.0772 144.053 97.1624C164.138 117.248 177.645 136.305 174.222 139.729Z" fill="#0C151D"/>
<path fillRule="evenodd" clipRule="evenodd" d="M178.427 62.0885C178.758 61.5129 179.494 61.3157 180.068 61.6486L186.828 65.5646C187.402 65.8975 188.138 65.7003 188.469 65.1247L192.365 58.3537C192.696 57.778 193.432 57.5809 194.007 57.9138L200.766 61.8297C201.341 62.1626 202.077 61.9655 202.408 61.3898L204.918 57.0277C205.249 56.4521 205.985 56.2549 206.56 56.5878L209.292 58.1711C209.865 58.5026 210.061 59.2346 209.731 59.8079L204.446 68.994C204.114 69.5696 203.379 69.7668 202.804 69.4339L196.044 65.5179C195.47 65.185 194.734 65.3822 194.403 65.9578L190.507 72.7288C190.176 73.3045 189.44 73.5016 188.865 73.1687L182.106 69.2528C181.531 68.9198 180.795 69.117 180.464 69.6926L176.568 76.4637C176.237 77.0393 175.501 77.2365 174.927 76.9035L165.756 71.5909C165.184 71.2594 164.988 70.5273 165.318 69.9541L166.893 67.2165C167.224 66.6409 167.96 66.4437 168.534 66.7766L172.889 69.2994C173.464 69.6323 174.2 69.4352 174.531 68.8595L178.427 62.0885Z" fill="#217BBB"/>
<path fillRule="evenodd" clipRule="evenodd" d="M193.707 58.4353C193.419 58.2689 193.051 58.3675 192.886 58.6553L188.99 65.4263C188.493 66.2898 187.389 66.5855 186.527 66.0861L179.768 62.1702C179.481 62.0037 179.113 62.1023 178.947 62.3901L175.051 69.1611C174.554 70.0246 173.451 70.3203 172.589 69.821L168.234 67.2982C167.947 67.1317 167.579 67.2303 167.413 67.5181L165.838 70.2557C165.673 70.5423 165.771 70.9083 166.057 71.0741L175.228 76.3868C175.515 76.5532 175.883 76.4546 176.049 76.1668L179.945 69.3958C180.441 68.5323 181.545 68.2366 182.407 68.736L189.166 72.6519C189.454 72.8184 189.822 72.7198 189.987 72.432L193.883 65.661C194.38 64.7975 195.484 64.5018 196.346 65.0011L203.105 68.9171C203.392 69.0835 203.76 68.985 203.926 68.6971L209.211 59.511C209.376 59.2244 209.278 58.8584 208.992 58.6926L206.259 57.1094C205.972 56.9429 205.604 57.0415 205.438 57.3293L202.929 61.6915C202.432 62.5549 201.328 62.8507 200.466 62.3513L193.707 58.4353ZM191.846 58.0568C192.342 57.1934 193.446 56.8976 194.308 57.397L201.068 61.3129C201.355 61.4794 201.723 61.3808 201.888 61.093L204.398 56.7309C204.895 55.8674 205.999 55.5717 206.861 56.0711L209.594 57.6543C210.452 58.1516 210.746 59.2496 210.251 60.1095L204.966 69.2956C204.469 70.1591 203.366 70.4548 202.504 69.9554L195.744 66.0395C195.457 65.873 195.089 65.9716 194.923 66.2594L191.027 73.0304C190.531 73.8939 189.427 74.1896 188.565 73.6903L181.805 69.7743C181.518 69.6079 181.15 69.7064 180.985 69.9943L177.089 76.7653C176.592 77.6287 175.488 77.9245 174.626 77.4251L165.456 72.1124C164.598 71.6151 164.303 70.5171 164.798 69.6572L166.373 66.9197C166.87 66.0562 167.974 65.7605 168.836 66.2599L173.19 68.7826C173.478 68.9491 173.846 68.8505 174.011 68.5627L177.907 61.7917C178.404 60.9282 179.508 60.6325 180.37 61.1318L187.129 65.0478C187.416 65.2142 187.784 65.1157 187.95 64.8278L191.846 58.0568Z" fill="#0C151D"/>
<path d="M181.675 122.366L185.287 118.63L190.569 119.982L191.953 125.147L188.055 128.959L183.059 127.53L181.675 122.366Z" fill="white"/>
<path fillRule="evenodd" clipRule="evenodd" d="M164.968 105.265C165.104 105.129 165.303 105.076 165.489 105.126L170.128 106.369C170.314 106.419 170.46 106.564 170.509 106.75L171.753 111.39C171.802 111.576 171.749 111.774 171.613 111.91L168.217 115.307C168.08 115.443 167.882 115.496 167.696 115.446L163.056 114.203C162.87 114.153 162.725 114.008 162.675 113.822L161.432 109.182C161.382 108.996 161.435 108.798 161.572 108.662L164.968 105.265ZM162.715 109.805L163.636 113.242L167.073 114.163L166.152 110.726L162.715 109.805ZM167.194 110.447L168.115 113.884L170.631 111.368L169.71 107.931L167.194 110.447ZM168.947 107.169L166.431 109.685L162.994 108.764L165.51 106.248L168.947 107.169Z" fill="#0C151D"/>
<path fillRule="evenodd" clipRule="evenodd" d="M217.936 87.9544C222.056 87.8814 225.384 84.5571 225.462 80.4377L225.465 80.4377C225.543 84.5576 228.871 87.8821 232.992 87.9545L232.992 87.9556C228.864 88.028 225.531 91.3642 225.464 95.4941L225.462 95.4941C225.396 91.3647 222.064 88.0288 217.936 87.9557L217.936 87.9544Z" fill="#0C151D"/>
<path fillRule="evenodd" clipRule="evenodd" d="M99.9746 22.7027C97.3347 21.3554 94.0976 22.3443 92.6617 24.9382L92.6604 24.9375C94.0118 22.299 93.0268 19.0613 90.4364 17.6219L90.4368 17.6212C93.0718 18.9653 96.3014 17.9823 97.741 15.3991L97.7427 15.4001C96.402 18.0364 97.3885 21.2655 99.975 22.702L99.9746 22.7027Z" fill="#0C151D"/>
<path d="M102.85 58.476C102.85 59.9524 101.654 61.1493 100.177 61.1493C98.7008 61.1493 97.5039 59.9524 97.5039 58.476C97.5039 56.9996 98.7008 55.8027 100.177 55.8027C101.654 55.8027 102.85 56.9996 102.85 58.476Z" fill="white"/>
<path fillRule="evenodd" clipRule="evenodd" d="M100.177 56.4012C99.0316 56.4012 98.1033 57.3294 98.1033 58.4744C98.1033 59.6195 99.0316 60.5477 100.177 60.5477C101.322 60.5477 102.25 59.6195 102.25 58.4744C102.25 57.3294 101.322 56.4012 100.177 56.4012ZM96.9033 58.4744C96.9033 56.6667 98.3688 55.2012 100.177 55.2012C101.984 55.2012 103.45 56.6667 103.45 58.4744C103.45 60.2822 101.984 61.7477 100.177 61.7477C98.3688 61.7477 96.9033 60.2822 96.9033 58.4744Z" fill="#0C151D"/>
<path d="M238.339 120.105C238.339 121.581 237.142 122.778 235.665 122.778C234.189 122.778 232.992 121.581 232.992 120.105C232.992 118.629 234.189 117.432 235.665 117.432C237.142 117.432 238.339 118.629 238.339 120.105Z" fill="white"/>
<path fillRule="evenodd" clipRule="evenodd" d="M235.666 118.034C234.521 118.034 233.593 118.962 233.593 120.107C233.593 121.252 234.521 122.181 235.666 122.181C236.811 122.181 237.739 121.252 237.739 120.107C237.739 118.962 236.811 118.034 235.666 118.034ZM232.393 120.107C232.393 118.299 233.858 116.834 235.666 116.834C237.474 116.834 238.939 118.299 238.939 120.107C238.939 121.915 237.474 123.381 235.666 123.381C233.858 123.381 232.393 121.915 232.393 120.107Z" fill="#0C151D"/>
<path fillRule="evenodd" clipRule="evenodd" d="M172.083 101.588C162.573 104.329 153.95 110.458 149.008 115.261L141.716 107.737C147.556 102.062 157.656 94.8094 169.272 91.4604C181.103 88.0496 194.91 88.6381 206.783 99.5142L199.626 107.327C191.103 99.5187 181.379 98.9076 172.083 101.588Z" fill="white"/>
<path fillRule="evenodd" clipRule="evenodd" d="M169.107 90.8833C181.079 87.4317 195.121 88.0168 207.188 99.0712L207.631 99.4765L199.664 108.174L199.221 107.768C190.891 100.138 181.402 99.525 172.25 102.164C162.859 104.871 154.319 110.937 149.427 115.691L148.996 116.109L140.869 107.724L141.298 107.306C147.189 101.582 157.372 94.2666 169.107 90.8833ZM205.933 99.5539C194.356 89.244 180.98 88.7091 169.439 92.0364C158.223 95.2701 148.415 102.191 142.567 107.752L149.024 114.414C154.077 109.63 162.562 103.708 171.918 101.011C181.196 98.3355 190.976 98.8787 199.586 106.482L205.933 99.5539Z" fill="#0C151D"/>
<path fillRule="evenodd" clipRule="evenodd" d="M127.177 63.5205C127.424 73.4149 124.173 83.4822 121.08 89.64L130.449 94.3309C134.104 87.0539 137.982 75.24 137.681 63.1543C137.374 50.8455 132.659 37.8559 118.715 29.8051L113.418 38.9805C123.428 44.7601 126.936 53.8493 127.177 63.5205Z" fill="white"/>
<path fillRule="evenodd" clipRule="evenodd" d="M138.282 63.135C137.971 50.6789 133.189 37.464 119.016 29.2812L118.496 28.9812L112.599 39.1958L113.118 39.4958C122.902 45.1441 126.341 54.0092 126.578 63.5312C126.822 73.3019 123.606 83.2711 120.544 89.3664L120.275 89.9033L130.717 95.1314L130.986 94.596C134.673 87.2564 138.586 75.3444 138.282 63.135ZM118.933 30.6241C132.249 38.5629 136.783 51.1578 137.082 63.1649C137.373 74.8346 133.723 86.27 130.18 93.5204L121.883 89.3664C124.925 83.1082 128.02 73.2351 127.778 63.5013C127.537 53.8478 124.077 44.6845 114.235 38.7612L118.933 30.6241Z" fill="#0C151D"/>
<path d="M157.089 26.0798C157.665 25.291 158.891 25.4839 159.197 26.4113L163.227 38.6221C163.509 39.4772 162.784 40.3269 161.895 40.1826L150.321 38.3044C149.437 38.161 149.016 37.1353 149.544 36.4123L157.089 26.0798Z" fill="white"/>
<path fillRule="evenodd" clipRule="evenodd" d="M162.088 38.9981L158.058 26.7874L150.513 37.1199L162.088 38.9981ZM159.197 26.4113C158.891 25.4839 157.665 25.291 157.089 26.0798L149.544 36.4123C149.016 37.1353 149.437 38.161 150.321 38.3044L161.895 40.1826C162.784 40.3269 163.509 39.4772 163.227 38.6221L159.197 26.4113Z" fill="#0C151D"/>
<path d="M162.979 38.9829C162.72 40.5802 159.521 41.3902 155.834 40.7919C152.148 40.1937 149.536 38.4409 149.795 36.8436C150.055 35.2463 153.086 34.4093 156.773 35.0075C160.46 35.6058 163.238 37.3856 162.979 38.9829Z" fill="white"/>
<path fillRule="evenodd" clipRule="evenodd" d="M161.794 38.7909L161.794 38.7907L161.794 38.7905C161.795 38.7848 161.812 38.6858 161.655 38.4619C161.491 38.2289 161.187 37.938 160.708 37.631C159.753 37.0194 158.301 36.4713 156.581 36.192C154.86 35.9128 153.357 35.9815 152.308 36.2616C151.149 36.5711 150.988 36.9871 150.98 37.0358C150.972 37.0845 150.994 37.5303 151.995 38.1905C152.902 38.7878 154.306 39.3282 156.026 39.6074C157.747 39.8867 159.298 39.8258 160.397 39.5475C160.949 39.4078 161.329 39.2279 161.558 39.0586C161.778 38.896 161.793 38.7966 161.794 38.7909ZM155.834 40.7919C159.521 41.3902 162.72 40.5802 162.979 38.9829C163.238 37.3856 160.46 35.6058 156.773 35.0075C153.086 34.4093 150.055 35.2463 149.795 36.8436C149.536 38.4409 152.148 40.1937 155.834 40.7919Z" fill="#0C151D"/>
</g>
<defs>
<clipPath id="clip0_5401_153944">
<rect width="269.522" height="197" fill="white" transform="translate(0.239258)"/>
</clipPath>
</defs>
</svg>
