
<svg width="138" height="28" viewBox="0 0 138 28" fill="none" xmlns="http://www.w3.org/2000/svg">
<path d="M22.2555 2.33499L22.2555 13.9464C22.2267 9.77913 18.8396 6.40984 14.6655 6.40984C10.4736 6.40984 7.07538 9.80806 7.07538 14L7.07512 27.9152H0.75L0.750002 13.9999C0.75003 6.31476 6.98035 0.0847168 14.6655 0.0847168C17.4657 0.0847168 20.0726 0.911795 22.2555 2.33499Z" fill="#1A1A1A"/>
<path d="M22.2552 14C22.2552 18.1919 18.8572 21.5901 14.6653 21.5901C10.4832 21.5901 7.09117 18.2079 7.0752 14.0296L7.0752 25.6649C9.25806 27.0881 11.8651 27.9152 14.6653 27.9152C22.3505 27.9152 28.5806 21.6852 28.5806 14L28.5803 0.0847172L22.2552 0.0847168L22.2552 14Z" fill="#69A3CC"/>
<path fill-rule="evenodd" clip-rule="evenodd" d="M56.6741 19.9623C58.1719 19.9623 59.499 19.2315 60.3183 18.1069H64.7334C63.6204 21.4932 60.4327 23.9381 56.6741 23.9381C51.9898 23.9381 48.1924 20.1407 48.1924 15.4564C48.1924 10.7721 51.9898 6.97473 56.6741 6.97473C61.3584 6.97473 65.1557 10.7721 65.1557 15.4564C65.1557 15.6344 65.1503 15.8112 65.1394 15.9865H52.199C52.4614 18.2252 54.3649 19.9623 56.6741 19.9623ZM52.4568 13.8661C53.0997 12.1623 54.7453 10.9505 56.6741 10.9505C58.6028 10.9505 60.2485 12.1623 60.8913 13.8661H52.4568Z" fill="#1A1A1A"/>
<path fill-rule="evenodd" clip-rule="evenodd" d="M84.2414 4.06012H80.2656V8.27024C78.9601 7.45004 77.4153 6.97569 75.7598 6.97569C71.0755 6.97569 67.2781 10.7731 67.2781 15.4574C67.2781 20.1417 71.0755 23.939 75.7598 23.939C77.4153 23.939 78.9601 23.4647 80.2656 22.6445V23.939H84.2414V4.06012ZM80.2656 15.4574C80.2656 12.9688 78.2483 10.9515 75.7598 10.9515C73.2712 10.9515 71.2539 12.9688 71.2539 15.4574C71.2539 17.9459 73.2712 19.9633 75.7598 19.9633C78.2483 19.9633 80.2656 17.9459 80.2656 15.4574Z" fill="#1A1A1A"/>
<path fill-rule="evenodd" clip-rule="evenodd" d="M120.287 4.06012H124.263V8.27024C125.568 7.45004 127.113 6.97569 128.769 6.97569C133.453 6.97569 137.25 10.7731 137.25 15.4574C137.25 20.1417 133.453 23.939 128.769 23.939C127.113 23.939 125.568 23.4647 124.263 22.6445V23.939H120.287V4.06012ZM124.263 15.4574C124.263 17.9459 126.28 19.9633 128.769 19.9633C131.257 19.9633 133.274 17.9459 133.274 15.4574C133.274 12.9688 131.257 10.9515 128.769 10.9515C126.28 10.9515 124.263 12.9688 124.263 15.4574Z" fill="#1A1A1A"/>
<path fill-rule="evenodd" clip-rule="evenodd" d="M109.155 19.9623C111.643 19.9623 113.661 17.9449 113.661 15.4564C113.661 12.9679 111.643 10.9505 109.155 10.9505C106.666 10.9505 104.649 12.9679 104.649 15.4564C104.649 17.9449 106.666 19.9623 109.155 19.9623ZM109.155 23.9381C113.839 23.9381 117.636 20.1407 117.636 15.4564C117.636 10.7721 113.839 6.97473 109.155 6.97473C104.47 6.97473 100.673 10.7721 100.673 15.4564C100.673 20.1407 104.47 23.9381 109.155 23.9381Z" fill="#1A1A1A"/>
<path d="M40.5075 15.4564C40.5075 15.4564 40.5075 15.4564 40.5075 15.4564V23.9381H36.5317L36.5317 15.4564C36.5317 15.4564 36.5317 15.4564 36.5317 15.4564C36.5317 10.7721 40.3291 6.97473 45.0134 6.97473C45.3725 6.97473 45.7263 6.99704 46.0736 7.04035V11.076C45.7336 10.994 45.3786 10.9505 45.0134 10.9505C42.5249 10.9505 40.5075 12.9679 40.5075 15.4564Z" fill="#1A1A1A"/>
<path d="M92.4577 15.4564C92.4577 15.4564 92.4577 15.4564 92.4577 15.4564L92.4577 23.9381H88.4819L88.4819 15.4564C88.4819 15.4564 88.4819 15.4564 88.4819 15.4564C88.4819 10.7721 92.2793 6.97473 96.9636 6.97473C97.3227 6.97473 97.6765 6.99704 98.0238 7.04035V11.076C97.6838 10.994 97.3288 10.9505 96.9636 10.9505C94.4751 10.9505 92.4577 12.9679 92.4577 15.4564Z" fill="#1A1A1A"/>
</svg>
