
<svg width="16" height="16" viewBox="0 0 16 16" fill="none" xmlns="http://www.w3.org/2000/svg">
<path d="M12.3659 1.2937L12.3659 7.96919C12.3493 5.5734 10.402 3.63636 8.00229 3.63636C5.59226 3.63636 3.63855 5.59003 3.63855 8L3.6384 16H0.00195312L0.00195399 7.99997C0.00197038 3.58171 3.58391 0 8.00229 0C9.61215 0 11.111 0.475494 12.3659 1.2937Z" fill="#0C151D"/>
<path d="M12.3621 8C12.3621 10.41 10.4085 12.3636 7.99847 12.3636C5.59413 12.3636 3.64395 10.4192 3.63477 8.01703L3.63477 14.7063C4.88974 15.5245 6.38857 16 7.99847 16C12.4169 16 15.9987 12.4183 15.9987 8L15.9985 2.26947e-07L12.3621 0L12.3621 8Z" fill="#69A3CC"/>
</svg>
